<svg width="140" height="21" viewBox="0 0 140 21" fill="none" xmlns="http://www.w3.org/2000/svg">
<path d="M0 0.850952H3.6425C10.9275 0.850952 14.1264 5.22522 14.1264 10.465C14.1264 15.7048 10.9275 20.1492 3.6425 20.1492H0V0.850952ZM3.99274 16.9211C8.68596 16.9211 10.9041 14.1141 10.9041 10.465C10.9041 6.81587 8.68596 4.05563 3.99274 4.05563H3.19886V16.9211H3.99274Z" fill="white"/>
<path d="M16.2744 0.89856H26.805V3.9395H19.4733V8.87517H26.1979V11.7056H19.4733V17.0857H26.805V20.15H16.2744V0.89856Z" fill="white"/>
<path d="M29.0232 0.874756H33.2728C39.3203 0.874756 41.5384 4.40692 41.5384 8.24318C41.5384 12.0794 39.2269 15.6116 33.623 15.6116H32.2221V20.173H29.0232V0.874756ZM33.7631 12.5005C36.7985 12.5005 38.4096 10.7695 38.4096 8.24318C38.4096 5.71686 36.7518 4.00926 33.7631 4.00926H32.2221V12.5005H33.7631Z" fill="white"/>
<path d="M43.4998 0.874756H47.7493C53.7968 0.874756 56.015 4.40692 56.015 8.24318C56.015 10.6759 55.081 12.9917 52.9796 14.3484L56.2018 20.1496H52.3725L50.131 15.4479C49.5239 15.5414 48.8701 15.6116 48.1463 15.6116H46.6986V20.173H43.4998V0.874756ZM48.2397 12.5005C51.2751 12.5005 52.8862 10.7695 52.8862 8.24318C52.8862 5.71686 51.2284 4.00926 48.2397 4.00926H46.6986V12.5005H48.2397Z" fill="white"/>
<path d="M67.4562 20.5C61.6422 20.5 57.4626 15.845 57.4626 10.4883C57.4626 5.13158 61.6422 0.5 67.4562 0.5C73.2702 0.5 77.4263 5.15497 77.4263 10.4883C77.4263 15.8216 73.2468 20.5 67.4562 20.5ZM67.4562 17.2953C71.3088 17.2953 74.2275 14.231 74.2275 10.4883C74.2275 6.74561 71.3088 3.70468 67.4562 3.70468C63.6035 3.70468 60.6615 6.74561 60.6615 10.4883C60.6615 14.231 63.5802 17.2953 67.4562 17.2953Z" fill="white"/>
<path d="M79.5747 0.89856H83.6842L90.4555 16.4073L97.1334 0.89856H101.22V20.15H98.0207V6.16172L91.9032 20.15H88.9611L82.7736 6.09154V20.15H79.5747V0.89856Z" fill="white"/>
<path d="M104.115 0.89856H114.645V3.9395H107.314V8.87517H114.038V11.7056H107.314V17.0857H114.645V20.15H104.115V0.89856Z" fill="white"/>
<path d="M116.864 0.89856H127.394V3.9395H120.062V8.87517H126.787V11.7056H120.062V17.0857H127.394V20.15H116.864V0.89856Z" fill="white"/>
<path d="M132.598 3.91528H128.395V0.850952H140V3.91528H135.797V20.1492H132.598V3.91528Z" fill="white"/>
</svg>
