<svg width="99" height="61" viewBox="0 0 99 61" fill="none" xmlns="http://www.w3.org/2000/svg">
<path d="M28.9517 22.66C28.9517 23.8392 29.0788 24.7952 29.3025 25.4965C29.5843 26.2854 29.9239 27.0523 30.3184 27.791C30.4595 28.0096 30.5364 28.2636 30.5405 28.524C30.5405 28.8428 30.35 29.1616 29.9372 29.4803L27.937 30.8189C27.6514 31.0102 27.3654 31.1056 27.1116 31.1056C26.794 31.1056 26.4764 30.9464 26.1589 30.6593C25.731 30.198 25.3482 29.6964 25.016 29.1616C24.6984 28.6198 24.3807 28.0144 24.0315 27.2814C21.5537 30.2134 18.4417 31.6794 14.6954 31.6794C12.0284 31.6794 9.90228 30.9143 8.34357 29.3845C6.78482 27.8548 5.99414 25.8153 5.99414 23.2654C5.99414 20.5563 6.94654 18.3573 8.88327 16.7001C10.82 15.0427 13.392 14.2143 16.6626 14.2143C17.742 14.2143 18.8534 14.3097 20.0283 14.4693C21.2032 14.6289 22.4097 14.8835 23.6796 15.1702V12.8438C23.6796 10.4218 23.1731 8.73276 22.1872 7.74473C21.172 6.75669 19.4574 6.27872 17.0133 6.27872C15.8579 6.27871 14.7065 6.41778 13.5841 6.69293C12.4168 6.97189 11.2708 7.33397 10.1548 7.77641C9.79375 7.93864 9.4225 8.07702 9.04344 8.19064C8.82092 8.2544 8.66233 8.28647 8.53684 8.28647C8.09222 8.28647 7.87009 7.96769 7.87009 7.29843V5.73658C7.87009 5.22809 7.93361 4.84438 8.09222 4.62142C8.25082 4.39847 8.53684 4.17512 8.98148 3.95218C10.0928 3.37849 11.4264 2.90038 12.982 2.51784C14.5369 2.10361 16.188 1.91234 17.9341 1.91234C21.7141 1.91234 24.4751 2.77286 26.2532 4.4939C27.9994 6.21496 28.8878 8.82821 28.8878 12.334V22.6603L28.9517 22.66ZM16.061 27.5043C17.1088 27.5043 18.1882 27.3131 19.3312 26.9305C20.4741 26.5479 21.4904 25.847 22.3478 24.8911C22.8543 24.2856 23.2366 23.6159 23.4271 22.8512C23.6177 22.0865 23.7439 21.1622 23.7439 20.0784V18.7399C22.7806 18.5047 21.8048 18.3238 20.8213 18.1981C19.8314 18.072 18.8346 18.0081 17.8367 18.0068C15.7091 18.0068 14.1534 18.421 13.1056 19.2816C12.0576 20.1421 11.5499 21.3546 11.5499 22.9466C11.5499 24.4448 11.9306 25.5603 12.7245 26.325C13.4867 27.1218 14.598 27.5043 16.0586 27.5043H16.061ZM41.5574 30.9464C40.9856 30.9464 40.6045 30.8506 40.3493 30.6276C40.0956 30.4364 39.8731 29.9901 39.6826 29.3845L32.2224 4.74893C32.0318 4.11137 31.9363 3.69715 31.9363 3.4738C31.9363 2.9653 32.1904 2.67703 32.6985 2.67703H35.8103C36.4135 2.67703 36.8262 2.77286 37.0487 2.99581C37.3023 3.18709 37.4929 3.63338 37.6834 4.23888L43.0179 25.337L47.9712 4.23888C48.1298 3.60131 48.3219 3.18709 48.5744 2.99581C48.8269 2.80455 49.2727 2.67703 49.8445 2.67703H52.3859C52.9892 2.67703 53.4019 2.77286 53.656 2.99581C53.91 3.18709 54.1325 3.63338 54.2592 4.23888L59.2745 25.5912L64.7691 4.2381C64.9596 3.60053 65.1817 3.1863 65.4042 2.99504C65.6583 2.80376 66.071 2.67625 66.6422 2.67625H69.5953C70.1019 2.67625 70.3891 2.93128 70.3891 3.47301C70.3891 3.6326 70.3572 3.7918 70.3256 3.9815C70.276 4.25337 70.2017 4.52007 70.1035 4.77827L62.4496 29.4166C62.259 30.0539 62.0367 30.4681 61.7829 30.6593C61.5288 30.8506 61.1162 30.9781 60.5748 30.9781H57.8443C57.2406 30.9781 56.828 30.8827 56.5739 30.6593C56.3198 30.436 56.0993 30.0222 55.9711 29.3853L51.0509 8.82821L46.1611 29.3528C46.0025 29.9901 45.8104 30.4047 45.5579 30.6276C45.3054 30.8506 44.8596 30.9464 44.2879 30.9464H41.5574ZM82.3575 31.8069C80.7108 31.8087 79.0697 31.6161 77.4677 31.2331C75.8802 30.8506 74.6417 30.4364 73.8164 29.9584C73.3098 29.6716 72.9591 29.3528 72.8321 29.0657C72.7085 28.7843 72.6438 28.4803 72.6419 28.1728V26.5483C72.6419 25.8787 72.896 25.5603 73.3722 25.5603C73.5666 25.5609 73.7596 25.5931 73.9438 25.6557C74.1344 25.7195 74.42 25.847 74.7376 25.9745C75.859 26.4696 77.0298 26.8436 78.23 27.0901C79.4742 27.3435 80.7404 27.4715 82.01 27.4723C84.0105 27.4723 85.5662 27.1202 86.6472 26.4208C87.7282 25.7215 88.2983 24.6998 88.2983 23.3929C88.2983 22.5008 88.0127 21.7678 87.441 21.1634C86.8694 20.5591 85.7899 20.0158 84.2343 19.5062L79.6301 18.0718C77.3123 17.3388 75.598 16.2553 74.5502 14.821C73.4992 13.4176 72.9615 11.8561 72.9615 10.1988C72.9615 8.86002 73.2472 7.68071 73.8187 6.66086C74.3857 5.63568 75.1652 4.74454 76.1046 4.04761C77.0574 3.3146 78.1368 2.77286 79.4068 2.39032C80.6768 2.00778 82.0084 1.84858 83.405 1.84858C84.1162 1.84331 84.8268 1.88591 85.5323 1.9761C86.2625 2.07154 86.9294 2.19905 87.5977 2.32813C88.2324 2.48771 88.8361 2.64691 89.4073 2.83662C89.9787 3.02632 90.4237 3.21916 90.7409 3.41004C91.1855 3.66507 91.5031 3.91853 91.6936 4.20681C91.8844 4.46183 91.9795 4.81243 91.9793 5.2586V6.75669C91.9793 7.42595 91.7252 7.77641 91.249 7.77641C90.9949 7.77641 90.5823 7.6489 90.041 7.39387C88.2316 6.56543 86.1997 6.1512 83.9456 6.1512C82.1354 6.1512 80.7068 6.43791 79.7225 7.04341C78.7381 7.6489 78.23 8.57318 78.23 9.87996C78.23 10.7722 78.5476 11.5373 79.1828 12.1428C79.8179 12.7482 80.9925 13.3554 82.6755 13.8955L87.185 15.3298C89.4709 16.0629 91.1208 17.0826 92.1063 18.3894C93.0919 19.6962 93.5669 21.1939 93.5669 22.8512C93.5669 24.2203 93.2812 25.4645 92.7415 26.5483C92.1699 27.6318 91.4076 28.5878 90.4237 29.3528C89.4394 30.1497 88.2644 30.7219 86.899 31.1377C85.4703 31.5836 83.9763 31.8069 82.3587 31.8069H82.3575Z" fill="black"/>
<path fill-rule="evenodd" clip-rule="evenodd" d="M88.3594 47.2959C77.9134 55.0406 62.7358 59.1516 49.686 59.1516C31.3972 59.1516 14.9181 52.3632 2.47158 41.0806C1.48762 40.1883 2.37649 38.9774 3.55139 39.6783C17.0139 47.5189 33.62 52.2673 50.7974 52.2673C62.3867 52.2673 75.1189 49.8454 86.8352 44.8747C88.5819 44.0768 90.0739 46.0207 88.3594 47.2959Z" fill="#FF9900"/>
<path fill-rule="evenodd" clip-rule="evenodd" d="M92.7089 42.3238C91.3753 40.6027 83.8821 41.4948 80.4843 41.9095C79.4685 42.037 79.3099 41.1444 80.2307 40.4752C86.1999 36.2683 96.0111 37.4794 97.154 38.8816C98.2974 40.316 96.8364 50.1638 91.2483 54.8795C90.391 55.6125 89.5657 55.2316 89.9464 54.2741C91.2163 51.1199 94.0435 44.0139 92.7089 42.3238Z" fill="#FF9900"/>
</svg>
