<svg width="101" height="62" viewBox="0 0 101 62" fill="none" xmlns="http://www.w3.org/2000/svg">
  <path d="M29.5376 23.0314C29.5376 24.23 29.6672 25.2017 29.8954 25.9145C30.1829 26.7163 30.5294 27.4958 30.9319 28.2466C31.0758 28.4687 31.1543 28.7269 31.1585 28.9916C31.1585 29.3156 30.9641 29.6396 30.543 29.9636L28.5024 31.3241C28.211 31.5185 27.9192 31.6155 27.6603 31.6155C27.3363 31.6155 27.0123 31.4537 26.6883 31.1619C26.2518 30.693 25.8613 30.1832 25.5223 29.6396C25.1983 29.089 24.8742 28.4736 24.518 27.7286C21.9901 30.7087 18.8152 32.1987 14.9933 32.1987C12.2724 32.1987 10.1033 31.4211 8.5131 29.8662C6.92286 28.3114 6.11621 26.2385 6.11621 23.6468C6.11621 20.8933 7.08785 18.6582 9.06371 16.9738C11.0396 15.2893 13.6635 14.4473 17.0002 14.4473C18.1014 14.4473 19.2353 14.5443 20.4339 14.7065C21.6325 14.8687 22.8634 15.1275 24.159 15.4189V13.0543C24.159 10.5926 23.6422 8.8759 22.6364 7.87167C21.6007 6.86743 19.8515 6.38162 17.358 6.38162C16.1792 6.38161 15.0046 6.52296 13.8595 6.80263C12.6686 7.08616 11.4995 7.45417 10.3609 7.90387C9.99258 8.06876 9.61383 8.2094 9.22711 8.32489C9.0001 8.38969 8.8383 8.42229 8.71028 8.42229C8.25667 8.42229 8.03006 8.09828 8.03006 7.41805V5.8306C8.03006 5.31377 8.09486 4.92377 8.25667 4.69716C8.41848 4.47055 8.71028 4.24354 9.1639 4.01694C10.2977 3.43385 11.6582 2.9479 13.2452 2.55909C14.8315 2.13807 16.516 1.94366 18.2974 1.94366C22.1537 1.94366 24.9705 2.81829 26.7845 4.56755C28.566 6.31682 29.4724 8.97291 29.4724 12.5362V23.0318L29.5376 23.0314ZM16.3864 27.9552C17.4554 27.9552 18.5566 27.7608 19.7227 27.372C20.8887 26.9831 21.9255 26.2707 22.8002 25.2991C23.317 24.6837 23.707 24.003 23.9014 23.2258C24.0958 22.4486 24.2246 21.5091 24.2246 20.4075V19.0471C23.2418 18.808 22.2463 18.6242 21.2429 18.4964C20.233 18.3682 19.2161 18.3033 18.198 18.302C16.0274 18.302 14.4403 18.723 13.3713 19.5977C12.3022 20.4723 11.7842 21.7047 11.7842 23.3228C11.7842 24.8455 12.1726 25.9793 12.9825 26.7565C13.7601 27.5664 14.8939 27.9552 16.384 27.9552H16.3864ZM42.3979 31.4537C41.8146 31.4537 41.4258 31.3563 41.1654 31.1297C40.9066 30.9353 40.6796 30.4817 40.4852 29.8662L32.8743 4.82676C32.6799 4.17874 32.5825 3.75773 32.5825 3.53072C32.5825 3.01389 32.8417 2.72089 33.3601 2.72089H36.5347C37.1501 2.72089 37.5711 2.81829 37.7981 3.0449C38.0569 3.23931 38.2513 3.69292 38.4457 4.30835L43.8879 25.7523L48.9413 4.30835C49.1031 3.66032 49.2991 3.23931 49.5567 3.0449C49.8143 2.8505 50.2691 2.72089 50.8524 2.72089H53.4452C54.0607 2.72089 54.4817 2.81829 54.7409 3.0449C55.0001 3.23931 55.2271 3.69292 55.3563 4.30835L60.4729 26.0107L66.0785 4.30755C66.2729 3.65953 66.4995 3.23851 66.7265 3.04411C66.9857 2.8497 67.4067 2.7201 67.9895 2.7201H71.0022C71.5191 2.7201 71.8121 2.97931 71.8121 3.52992C71.8121 3.69213 71.7795 3.85394 71.7473 4.04675C71.6967 4.32307 71.6209 4.59415 71.5207 4.85658L63.7122 29.8988C63.5177 30.5466 63.2909 30.9676 63.032 31.1619C62.7728 31.3563 62.3518 31.4859 61.7995 31.4859H59.0138C58.398 31.4859 57.977 31.3889 57.7178 31.1619C57.4586 30.9349 57.2336 30.5143 57.1028 29.867L52.0832 8.97291L47.0946 29.834C46.9328 30.4817 46.7368 30.9031 46.4792 31.1297C46.2216 31.3563 45.7668 31.4537 45.1836 31.4537H42.3979ZM84.0223 32.3283C82.3423 32.3301 80.668 32.1344 79.0337 31.7451C77.4141 31.3563 76.1506 30.9353 75.3086 30.4495C74.7918 30.158 74.434 29.834 74.3044 29.5422C74.1783 29.2561 74.1123 28.9472 74.1104 28.6346V26.9835C74.1104 26.3029 74.3696 25.9793 74.8554 25.9793C75.0538 25.9799 75.2507 26.0126 75.4386 26.0763C75.633 26.1411 75.9244 26.2707 76.2484 26.4003C77.3925 26.9035 78.5869 27.2836 79.8114 27.5342C81.0807 27.7917 82.3725 27.9218 83.6677 27.9226C85.7087 27.9226 87.2958 27.5648 88.3986 26.8539C89.5015 26.1431 90.0831 25.1047 90.0831 23.7764C90.0831 22.8696 89.7917 22.1246 89.2085 21.5103C88.6253 20.8961 87.524 20.3439 85.937 19.8259L81.2398 18.368C78.8751 17.623 77.1262 16.5218 76.0572 15.0639C74.985 13.6375 74.4364 12.0504 74.4364 10.366C74.4364 9.00524 74.7279 7.8066 75.311 6.77003C75.8894 5.72804 76.6847 4.82229 77.6431 4.11394C78.6151 3.36891 79.7163 2.81829 81.012 2.42948C82.3076 2.04067 83.6661 1.87886 85.0909 1.87886C85.8165 1.8735 86.5415 1.9168 87.2612 2.00847C88.0062 2.10547 88.6865 2.23507 89.3683 2.36627C90.0159 2.52847 90.6317 2.69028 91.2145 2.8831C91.7974 3.07591 92.2514 3.27191 92.575 3.46592C93.0286 3.72513 93.3526 3.98274 93.547 4.27575C93.7416 4.53495 93.8387 4.8913 93.8384 5.34478V6.86743C93.8384 7.54766 93.5792 7.90387 93.0934 7.90387C92.8342 7.90387 92.4132 7.77427 91.861 7.51506C90.015 6.67303 87.9421 6.25201 85.6424 6.25201C83.7957 6.25201 82.3382 6.54342 81.334 7.15885C80.3298 7.77427 79.8114 8.7137 79.8114 10.0419C79.8114 10.9488 80.1354 11.7264 80.7834 12.3418C81.4314 12.9572 82.6297 13.5743 84.3467 14.1233L88.9473 15.5811C91.2794 16.3262 92.9626 17.3626 93.968 18.6908C94.9735 20.0191 95.4581 21.5413 95.4581 23.2258C95.4581 24.6173 95.1667 25.8819 94.6161 26.9835C94.0329 28.0848 93.2552 29.0564 92.2514 29.834C91.2472 30.6439 90.0485 31.2255 88.6555 31.6481C87.198 32.1013 85.6738 32.3283 84.0235 32.3283H84.0223Z" fill="white" />
  <path fill-rule="evenodd" clip-rule="evenodd" d="M90.145 48.0712C79.488 55.9428 64.0038 60.1212 50.6904 60.1212C32.0321 60.1212 15.2201 53.2216 2.52211 41.754C1.51827 40.8471 2.4251 39.6163 3.62374 40.3287C17.3582 48.2978 34.2998 53.1241 51.8242 53.1241C63.6476 53.1241 76.6371 50.6625 88.5901 45.6103C90.372 44.7993 91.8942 46.7751 90.145 48.0712Z" fill="#FF9900" />
  <path fill-rule="evenodd" clip-rule="evenodd" d="M94.5826 43.0176C93.2221 41.2683 85.5775 42.1751 82.1111 42.5965C81.0747 42.7261 80.9129 41.8189 81.8523 41.1387C87.9421 36.8629 97.9515 38.0938 99.1175 39.519C100.284 40.9769 98.7935 50.9862 93.0925 55.7792C92.2179 56.5242 91.3759 56.137 91.7643 55.1638C93.0599 51.9579 95.9442 44.7354 94.5826 43.0176Z" fill="#FF9900" />
</svg>