<svg width="162" height="38" viewBox="0 0 162 38" fill="none" xmlns="http://www.w3.org/2000/svg">
<path d="M67.9433 21.3419H64.4802C64.0309 22.8261 63.0925 24.1116 61.8199 24.986C60.5473 25.8605 59.0166 26.2717 57.4806 26.1517C55.9445 26.0317 54.4951 25.3877 53.3716 24.326C52.2481 23.2643 51.5177 21.8486 51.301 20.3123C51.0844 18.7762 51.3944 17.2115 52.1799 15.8767C52.9654 14.5419 54.1795 13.5169 55.6215 12.9709C57.0636 12.4248 58.6475 12.3905 60.1115 12.8734C61.5756 13.3564 62.8323 14.3278 63.6743 15.6272L66.9815 12.2963C65.3791 10.2217 63.1178 8.76428 60.576 8.16797C58.0343 7.57168 55.3663 7.87267 53.0185 9.02057C50.6707 10.1685 48.7856 12.0937 47.6786 14.4739C46.5718 16.8542 46.3101 19.5452 46.9376 22.0965C47.565 24.6479 49.0434 26.9048 51.1255 28.4896C53.2075 30.0744 55.767 30.8909 58.3753 30.8025C60.9836 30.7142 63.4827 29.7262 65.4543 28.0041C67.4259 26.2819 68.7503 23.93 69.2061 21.3419H67.9433Z" fill="black"/>
<path d="M121.172 7.87793C119.903 7.87756 118.649 8.14763 117.491 8.67043C116.334 9.19321 115.299 9.95683 114.456 10.9112C113.24 9.53902 111.639 8.57125 109.865 8.13609C108.091 7.70094 106.227 7.81893 104.522 8.47445C102.816 9.12998 101.349 10.2921 100.313 11.8068C99.2775 13.3214 98.7237 15.1171 98.7246 16.9561V30.8099H103.316V16.9561C103.316 15.7748 103.782 14.6419 104.612 13.8067C105.441 12.9715 106.566 12.5022 107.739 12.5022C108.912 12.5022 110.036 12.9715 110.866 13.8067C111.695 14.6419 112.161 15.7748 112.161 16.9561V30.8099H116.753V16.9561C116.753 15.7748 117.218 14.6419 118.048 13.8067C118.877 12.9715 120.002 12.5022 121.175 12.5022C122.347 12.5022 123.473 12.9715 124.302 13.8067C125.132 14.6419 125.597 15.7748 125.597 16.9561V30.8099H130.188V16.9561C130.186 14.5492 129.235 12.2419 127.546 10.54C125.856 8.83815 123.564 7.8808 121.175 7.87793" fill="black"/>
<path d="M94.4193 19.4667C94.4193 19.4235 94.4193 19.3802 94.4193 19.3368C94.4193 16.7558 93.5546 14.2503 91.9654 12.2254C90.3763 10.2005 88.1558 8.77429 85.6625 8.17744C83.1692 7.58058 80.5489 7.84787 78.2251 8.93615C75.9013 10.0245 74.0097 11.8701 72.8561 14.1748C71.7025 16.4796 71.3542 19.1087 71.8677 21.6374C72.381 24.1662 73.726 26.4467 75.6853 28.1105C77.6446 29.7741 80.1037 30.7239 82.6651 30.8061C85.2266 30.8884 87.7407 30.0983 89.8013 28.5638V30.7853H94.4249V19.4667H94.4193ZM83.0282 26.1529C81.6898 26.1523 80.3816 25.7521 79.269 25.0028C78.1564 24.2536 77.2894 23.1889 76.7776 21.9433C76.2658 20.6978 76.1321 19.3274 76.3936 18.0055C76.6549 16.6835 77.2997 15.4692 78.2463 14.5162C79.1929 13.5633 80.3988 12.9144 81.7115 12.6516C83.0243 12.3888 84.385 12.524 85.6214 13.0399C86.8579 13.5559 87.9147 14.4295 88.6582 15.5503C89.4018 16.6712 89.7986 17.9889 89.7986 19.3368C89.7986 20.2319 89.6236 21.1183 89.2835 21.9452C88.9434 22.7722 88.4449 23.5236 87.8165 24.1565C87.188 24.7895 86.4419 25.2915 85.6208 25.634C84.7997 25.9766 83.9197 26.1529 83.0309 26.1529" fill="black"/>
<path d="M145.76 7.82886C142.737 7.82886 139.839 9.03789 137.702 11.19C135.566 13.342 134.365 16.2608 134.365 19.3043C134.365 19.3476 134.365 19.3909 134.365 19.4342V34.6924H138.989V28.5339C140.438 29.6124 142.121 30.3293 143.899 30.6257C145.677 30.9222 147.499 30.7896 149.216 30.2392C150.933 29.6887 152.496 28.7359 153.777 27.459C155.057 26.1821 156.019 24.6176 156.583 22.8938C157.146 21.17 157.296 19.3362 157.019 17.5429C156.743 15.7496 156.048 14.0479 154.991 12.5776C153.935 11.1071 152.548 9.91015 150.943 9.08466C149.338 8.25918 147.562 7.82879 145.76 7.82886ZM145.76 26.1204C144.421 26.1204 143.112 25.7206 142 24.9716C140.887 24.2227 140.019 23.1582 139.507 21.9127C138.994 20.6672 138.861 19.2968 139.122 17.9746C139.383 16.6524 140.028 15.4379 140.974 14.4847C141.921 13.5315 143.126 12.8823 144.439 12.6193C145.752 12.3563 147.112 12.4913 148.349 13.0071C149.586 13.523 150.643 14.3967 151.387 15.5175C152.131 16.6384 152.527 17.9563 152.527 19.3043C152.527 21.1121 151.814 22.8457 150.545 24.124C149.276 25.4022 147.554 26.1204 145.76 26.1204Z" fill="black"/>
<path d="M39.6125 19.3451C39.6125 19.8471 39.4646 20.3379 39.1877 20.7552C38.9108 21.1727 38.5173 21.4979 38.0567 21.69C37.5963 21.8821 37.0896 21.9324 36.6007 21.8344C36.1119 21.7365 35.6628 21.4948 35.3104 21.1399C34.9579 20.7849 34.7179 20.3327 34.6207 19.8403C34.5234 19.348 34.5733 18.8377 34.7641 18.3739C34.9549 17.9101 35.2779 17.5137 35.6923 17.2348C36.1067 16.9559 36.5939 16.8071 37.0924 16.8071C37.4233 16.8071 37.751 16.8727 38.0567 17.0003C38.3626 17.1278 38.6403 17.3148 38.8744 17.5505C39.1083 17.7861 39.294 18.066 39.4206 18.3739C39.5473 18.6818 39.6125 19.0118 39.6125 19.3451Z" fill="#EF7C10"/>
<path fill-rule="evenodd" clip-rule="evenodd" d="M26.8073 23.2766C27.2652 22.0143 27.4988 20.6807 27.4978 19.3369C27.4978 19.2936 27.4978 19.2503 27.4978 19.207V3.94067H22.8714V10.1046C21.1828 8.84518 19.1815 8.0803 17.0884 7.8944C14.9954 7.7085 12.8921 8.10881 11.0108 9.05113C9.12944 9.99342 7.54332 11.4411 6.42756 13.2342C5.31179 15.0274 4.70982 17.0962 4.68811 19.2122C4.6664 21.3282 5.22581 23.4092 6.30454 25.2251C7.38327 27.0412 8.93935 28.5215 10.801 29.5028C12.6625 30.4841 14.7572 30.9281 16.8536 30.7858C18.95 30.6435 20.9666 29.9204 22.6806 28.6964L19.8166 25.0164C18.8836 25.6416 17.8107 26.023 16.6947 26.1258L19.5184 22.9384L24.427 29.2187H31.9308L26.8073 23.2766ZM22.3045 22.0616H18.433L14.8946 26.042C13.51 25.7901 12.2377 25.1102 11.2543 24.0967C10.271 23.0833 9.62543 21.7864 9.4073 20.3866C9.18919 18.9867 9.40938 17.5531 10.0373 16.285C10.6651 15.0169 11.6696 13.9772 12.9111 13.3103C14.1525 12.6434 15.5694 12.3826 16.9648 12.5638C18.3602 12.745 19.665 13.3595 20.6978 14.3217C21.7308 15.284 22.4404 16.5462 22.7283 17.9333C23.0162 19.3204 22.8681 20.7633 22.3045 22.0616Z" fill="#EF7C10"/>
</svg>
