<svg width="172" height="40" viewBox="0 0 172 40" fill="none" xmlns="http://www.w3.org/2000/svg">
<path d="M72.1371 22.4651H68.4602C67.9832 24.0274 66.9868 25.3805 65.6357 26.301C64.2845 27.2215 62.6593 27.6543 61.0285 27.528C59.3976 27.4017 57.8587 26.7238 56.6659 25.6062C55.473 24.4887 54.6975 22.9984 54.4675 21.3813C54.2375 19.7643 54.5666 18.1173 55.4006 16.7122C56.2346 15.3072 57.5236 14.2282 59.0547 13.6535C60.5858 13.0787 62.2674 13.0425 63.8218 13.5509C65.3763 14.0593 66.7106 15.0818 67.6045 16.4496L71.1159 12.9434C69.4146 10.7596 67.0137 9.22547 64.315 8.59778C61.6164 7.9701 58.7837 8.28693 56.291 9.49525C53.7983 10.7036 51.7968 12.7301 50.6215 15.2356C49.4463 17.7412 49.1685 20.5738 49.8347 23.2594C50.5008 25.9451 52.0705 28.3208 54.2811 29.989C56.4917 31.6572 59.2091 32.5167 61.9784 32.4236C64.7478 32.3306 67.4011 31.2907 69.4944 29.4779C71.5877 27.6651 72.9939 25.1894 73.4778 22.4651H72.1371Z" fill="white"/>
<path d="M128.651 8.29248C127.304 8.29209 125.972 8.57638 124.743 9.12669C123.514 9.67699 122.416 10.4808 121.52 11.4854C120.229 10.041 118.53 9.02229 116.646 8.56423C114.763 8.10617 112.784 8.23038 110.973 8.9204C109.162 9.61043 107.604 10.8337 106.504 12.4281C105.405 14.0225 104.817 15.9127 104.818 17.8484V32.4314H109.693V17.8484C109.693 16.605 110.188 15.4125 111.069 14.5333C111.949 13.6541 113.143 13.1601 114.389 13.1601C115.634 13.1601 116.828 13.6541 117.709 14.5333C118.589 15.4125 119.084 16.605 119.084 17.8484V32.4314H123.959V17.8484C123.959 16.605 124.453 15.4125 125.334 14.5333C126.214 13.6541 127.409 13.1601 128.654 13.1601C129.899 13.1601 131.094 13.6541 131.974 14.5333C132.855 15.4125 133.349 16.605 133.349 17.8484V32.4314H138.224V17.8484C138.221 15.3149 137.212 12.8861 135.418 11.0947C133.624 9.30324 131.191 8.2955 128.654 8.29248" fill="white"/>
<path d="M100.248 20.4913C100.248 20.4458 100.248 20.4002 100.248 20.3546C100.248 17.6377 99.3299 15.0004 97.6427 12.8689C95.9555 10.7374 93.5979 9.23614 90.9507 8.60787C88.3035 7.9796 85.5214 8.26096 83.0542 9.40651C80.5869 10.5521 78.5786 12.4949 77.3538 14.9209C76.129 17.347 75.7592 20.1145 76.3043 22.7763C76.8493 25.4381 78.2774 27.8387 80.3576 29.59C82.4379 31.3412 85.0487 32.341 87.7683 32.4275C90.4879 32.5141 93.1572 31.6825 95.345 30.0672V32.4056H100.254V20.4913H100.248ZM88.1538 27.5294C86.7328 27.5288 85.3438 27.1075 84.1625 26.3188C82.9812 25.5301 82.0607 24.4094 81.5173 23.0983C80.9739 21.7872 80.832 20.3447 81.1096 18.9532C81.3871 17.5616 82.0717 16.2834 83.0767 15.2803C84.0817 14.2772 85.3621 13.5941 86.7558 13.3175C88.1496 13.0409 89.5943 13.1832 90.9071 13.7263C92.2199 14.2694 93.3419 15.189 94.1313 16.3688C94.9208 17.5487 95.3421 18.9357 95.3421 20.3546C95.3421 21.2968 95.1563 22.2298 94.7952 23.1003C94.4341 23.9708 93.9048 24.7617 93.2376 25.4279C92.5703 26.0942 91.7782 26.6227 90.9064 26.9832C90.0346 27.3438 89.1003 27.5294 88.1566 27.5294" fill="white"/>
<path d="M154.758 8.24097C151.549 8.24097 148.472 9.51363 146.203 11.779C143.935 14.0443 142.66 17.1167 142.66 20.3204C142.66 20.366 142.66 20.4115 142.66 20.4571V36.5184H147.569V30.0358C149.108 31.171 150.895 31.9256 152.782 32.2376C154.67 32.5497 156.604 32.4102 158.427 31.8308C160.251 31.2513 161.91 30.2484 163.27 28.9043C164.629 27.5602 165.65 25.9133 166.249 24.0988C166.847 22.2843 167.006 20.354 166.712 18.4663C166.419 16.5786 165.681 14.7873 164.559 13.2396C163.438 11.6918 161.965 10.4318 160.261 9.56287C158.557 8.69394 156.671 8.2409 154.758 8.24097ZM154.758 27.4952C153.337 27.4952 151.947 27.0744 150.766 26.286C149.584 25.4976 148.663 24.3771 148.119 23.0661C147.575 21.755 147.433 20.3125 147.71 18.9207C147.988 17.5289 148.672 16.2505 149.677 15.2471C150.682 14.2437 151.962 13.5604 153.356 13.2835C154.75 13.0067 156.194 13.1488 157.507 13.6918C158.82 14.2348 159.943 15.1545 160.732 16.3343C161.522 17.5142 161.943 18.9014 161.943 20.3204C161.943 22.2233 161.186 24.0482 159.839 25.3937C158.491 26.7392 156.663 27.4952 154.758 27.4952Z" fill="white"/>
<path d="M42.0574 20.3633C42.0574 20.8917 41.9004 21.4083 41.6064 21.8476C41.3124 22.287 40.8946 22.6294 40.4056 22.8316C39.9167 23.0338 39.3788 23.0867 38.8597 22.9836C38.3407 22.8805 37.8639 22.6261 37.4897 22.2525C37.1155 21.8788 36.8607 21.4028 36.7575 20.8845C36.6542 20.3663 36.7072 19.8291 36.9097 19.3409C37.1123 18.8527 37.4552 18.4355 37.8952 18.1419C38.3352 17.8483 38.8525 17.6917 39.3817 17.6917C39.7331 17.6917 40.081 17.7607 40.4056 17.895C40.7303 18.0293 41.0252 18.2261 41.2737 18.4742C41.5221 18.7222 41.7192 19.0168 41.8537 19.3409C41.9882 19.665 42.0574 20.0124 42.0574 20.3633Z" fill="#EF7C10"/>
<path fill-rule="evenodd" clip-rule="evenodd" d="M28.4618 24.5018C28.9479 23.1731 29.196 21.7693 29.1949 20.3547C29.1949 20.3092 29.1949 20.2636 29.1949 20.218V4.14819H24.2829V10.6365C22.4901 9.31083 20.3653 8.50569 18.143 8.31001C15.9208 8.11432 13.6876 8.5357 11.6902 9.52762C9.6927 10.5195 8.00867 12.0434 6.82403 13.9309C5.63939 15.8184 5.00026 17.9961 4.97721 20.2235C4.95416 22.4509 5.5481 24.6414 6.69342 26.5529C7.83874 28.4645 9.49087 30.0227 11.4674 31.0557C13.4439 32.0886 15.6679 32.556 17.8937 32.4062C20.1195 32.2564 22.2605 31.4953 24.0804 30.2069L21.0396 26.3332C20.049 26.9913 18.9098 27.3927 17.725 27.501L20.723 24.1458L25.9345 30.7566H33.9016L28.4618 24.5018ZM23.681 23.2229H19.5705L15.8137 27.4127C14.3437 27.1476 12.9928 26.4319 11.9487 25.3651C10.9047 24.2983 10.2193 22.9332 9.98771 21.4597C9.75614 19.9861 9.98992 18.4771 10.6566 17.1422C11.3232 15.8074 12.3897 14.713 13.7078 14.011C15.0258 13.309 16.5302 13.0344 18.0117 13.2252C19.4933 13.4159 20.8786 14.0627 21.9752 15.0756C23.0719 16.0885 23.8253 17.4172 24.131 18.8773C24.4367 20.3374 24.2794 21.8562 23.681 23.2229Z" fill="#EF7C10"/>
</svg>
