<svg width="124" height="18" viewBox="0 0 124 18" fill="none" xmlns="http://www.w3.org/2000/svg">
  <g clip-path="url(#clip0_387_2136)">
    <path d="M2.18573 5.0127H0.460938V13.5504H2.18573V5.0127Z" fill="black" />
    <path
      d="M6.11176 5.01201V5.82942C6.45672 5.44697 7.45784 4.83203 8.62023 4.83203C9.87255 4.83203 10.9262 5.39447 11.6348 6.24937C12.4147 5.46946 13.3409 4.83203 14.8857 4.83203C16.1044 4.83203 17.2105 5.37572 17.9191 6.26812C18.4478 6.92054 18.699 7.75669 18.699 9.19275V13.5535H16.9742V8.91906C16.9742 8.0454 16.7942 7.57296 16.483 7.213C16.1006 6.75931 15.5194 6.46684 14.8857 6.46684C13.6521 6.46684 12.8497 7.10427 12.2873 7.68545C12.3773 8.10165 12.4335 8.59284 12.4335 9.19275V13.5535H10.7087V8.91906C10.7087 8.0454 10.5287 7.57296 10.2175 7.213C9.83502 6.75931 9.22012 6.46684 8.56394 6.46684C7.51034 6.46684 6.65545 7.10427 6.16425 7.68545V13.5535H4.43945V5.01201H6.11176Z"
      fill="black" />
    <path
      d="M22.1155 17.4914H20.3906V5.01284H22.063V5.79274C22.8429 5.12157 23.769 4.8291 24.7327 4.8291C25.5313 4.8291 26.24 5.02783 26.8212 5.37279C28.111 6.1377 29.0184 7.57003 29.0184 9.27986C29.0184 10.9858 28.1297 12.4032 26.8361 13.1681C26.2549 13.5131 25.4563 13.7305 24.6914 13.7305C23.6752 13.7305 22.8016 13.4043 22.1117 12.8044V17.4914H22.1155ZM22.1155 10.8809C22.6967 11.6608 23.5891 12.0995 24.4589 12.0995C26.1125 12.0995 27.2936 10.8097 27.2936 9.2836C27.2936 7.79501 26.2025 6.46766 24.5489 6.46766C23.5141 6.46766 22.6404 6.99635 22.1155 7.68627V10.8809Z"
      fill="black" />
    <path
      d="M36.8244 12.7699C36.1345 13.3885 35.2084 13.7335 34.1885 13.7335C33.4235 13.7335 32.6249 13.5161 32.0437 13.1711C30.7539 12.4061 29.8652 10.9888 29.8652 9.28275C29.8652 7.57671 30.7726 6.14063 32.0624 5.37572C32.6436 5.03076 33.3523 4.83203 34.1509 4.83203C35.1146 4.83203 36.0407 5.1245 36.8206 5.79567V5.01201H38.493V13.5498H36.8206V12.7699H36.8244ZM36.7681 7.6817C36.2394 6.99178 35.3695 6.46309 34.3347 6.46309C32.6811 6.46309 31.59 7.79043 31.59 9.27902C31.59 10.8051 32.7712 12.0949 34.4247 12.0949C35.2983 12.0949 36.1869 11.6599 36.7681 10.8763V7.6817Z"
      fill="black" />
    <path
      d="M48.5433 11.735C47.7783 12.8786 46.3798 13.7335 44.745 13.7335C42.1091 13.7335 40.1855 11.8249 40.1855 9.28275C40.1855 6.74056 42.0753 4.83203 44.655 4.83203C46.1623 4.83203 47.4184 5.5407 48.2695 6.61308L47.0509 7.62921C46.5073 7.04802 45.7236 6.46684 44.6512 6.46684C43.0164 6.46684 41.9066 7.71919 41.9066 9.28275C41.9066 10.8463 43.0502 12.0987 44.7412 12.0987C45.9936 12.0987 46.811 11.3713 47.3209 10.7526L48.5433 11.735Z"
      fill="black" />
    <path
      d="M55.4572 13.1535C54.8572 13.5547 54.2386 13.7347 53.5674 13.7347C52.7125 13.7347 51.9139 13.371 51.4039 12.7523C51.0027 12.2611 50.8227 11.6087 50.8227 10.5551V6.55805H48.8242V5.01323H50.8227V2.26855H52.5475V5.01323H55.0897V6.55805H52.5475V10.6113C52.5475 11.2825 52.6376 11.5562 52.8213 11.7737C53.0387 12.0287 53.365 12.1561 53.7474 12.1561C54.1111 12.1561 54.4936 12.0287 54.7823 11.8487L55.4572 13.1535Z"
      fill="black" />
    <path
      d="M58.9745 11.1963C59.6794 11.1963 60.2418 11.7587 60.2418 12.4636C60.2418 13.1685 59.6794 13.731 58.9745 13.731C58.2695 13.731 57.707 13.1685 57.707 12.4636C57.707 11.755 58.2695 11.1963 58.9745 11.1963Z"
      fill="#3C8CFF" />
    <path
      d="M1.32399 0.510742C2.02891 0.510742 2.59134 1.07317 2.59134 1.77809C2.59134 2.48301 2.02891 3.04544 1.32399 3.04544C0.619073 3.04544 0.0566406 2.48301 0.0566406 1.77809C0.0566406 1.07317 0.619073 0.510742 1.32399 0.510742Z"
      fill="#3C8CFF" />
    <path
      d="M70.2855 11.735C69.5205 12.8786 68.122 13.7335 66.4872 13.7335C63.8513 13.7335 61.9277 11.8249 61.9277 9.28275C61.9277 6.74056 63.8175 4.83203 66.3972 4.83203C67.9045 4.83203 69.1606 5.5407 70.0117 6.61308L68.7931 7.62921C68.2494 7.04802 67.4658 6.46684 66.3934 6.46684C64.7586 6.46684 63.6487 7.71919 63.6487 9.28275C63.6487 10.8463 64.7924 12.0987 66.4834 12.0987C67.7357 12.0987 68.5532 11.3713 69.0631 10.7526L70.2855 11.735Z"
      fill="black" />
    <path
      d="M77.8068 12.7699C77.1169 13.3885 76.1908 13.7335 75.1709 13.7335C74.4059 13.7335 73.6073 13.5161 73.0262 13.1711C71.7363 12.4061 70.8477 10.9888 70.8477 9.28275C70.8477 7.57671 71.755 6.14063 73.0448 5.37572C73.626 5.03076 74.3347 4.83203 75.1333 4.83203C76.0971 4.83203 77.0232 5.1245 77.803 5.79567V5.01201H79.4791V13.5498H77.8068V12.7699ZM77.7506 7.6817C77.2219 6.99178 76.352 6.46309 75.3171 6.46309C73.6636 6.46309 72.5724 7.79043 72.5724 9.27902C72.5724 10.8051 73.7536 12.0949 75.4071 12.0949C76.2807 12.0949 77.1694 11.6599 77.7506 10.8763V7.6817Z"
      fill="black" />
    <path
      d="M83.1215 5.01201V5.82942C83.4665 5.44697 84.4676 4.83203 85.6296 4.83203C86.882 4.83203 87.9357 5.39447 88.6447 6.24937C89.4242 5.46946 90.3505 4.83203 91.8959 4.83203C93.1143 4.83203 94.2198 5.37572 94.9288 6.26812C95.4578 6.92054 95.7091 7.75669 95.7091 9.19275V13.5535H93.9838V8.91906C93.9838 8.0454 93.8038 7.57296 93.493 7.213C93.1101 6.75931 92.5293 6.46684 91.8959 6.46684C90.6622 6.46684 89.8598 7.10427 89.2968 7.68545C89.3868 8.10165 89.4429 8.59284 89.4429 9.19275V13.5535H87.7184V8.91906C87.7184 8.0454 87.5384 7.57296 87.2276 7.213C86.8447 6.75931 86.2265 6.46684 85.5736 6.46684C84.5201 6.46684 83.6653 7.10427 83.1741 7.68545V13.5535H81.4492V5.01201H83.1215Z"
      fill="black" />
    <path
      d="M99.1405 17.4914H97.416V5.01284H99.0879V5.79274C99.8682 5.12157 100.795 4.8291 101.758 4.8291C102.556 4.8291 103.265 5.02783 103.846 5.37279C105.136 6.1377 106.044 7.57003 106.044 9.27986C106.044 10.9858 105.155 12.4032 103.861 13.1681C103.28 13.5131 102.482 13.7305 101.717 13.7305C100.7 13.7305 99.8266 13.4043 99.1371 12.8044V17.4914H99.1405ZM99.1405 10.8809C99.7221 11.6608 100.615 12.0995 101.484 12.0995C103.138 12.0995 104.319 10.8097 104.319 9.2836C104.319 7.79501 103.228 6.46766 101.574 6.46766C100.539 6.46766 99.6652 6.99635 99.1405 7.68627V10.8809Z"
      fill="black" />
    <path
      d="M108.231 12.2981C107.703 11.6457 107.451 10.8095 107.451 9.37344V5.0127H109.177V9.64719C109.177 10.5208 109.357 10.9932 109.667 11.3532C110.05 11.8069 110.665 12.0994 111.321 12.0994C112.375 12.0994 113.229 11.4619 113.721 10.8807V5.0127H115.445V13.5504H113.773V12.7706C113.391 13.1342 112.446 13.7342 111.264 13.7342C110.046 13.7342 108.94 13.1867 108.231 12.2981Z"
      fill="black" />
    <path
      d="M120.301 13.7335C118.94 13.7335 117.774 13.3173 116.848 12.5523L117.736 11.3713C118.535 11.9525 119.371 12.2262 120.264 12.2262C121.01 12.2262 121.752 11.8249 121.752 11.1538C121.752 9.48153 117.118 10.5014 117.118 7.41173C117.118 5.61194 118.752 4.83203 120.278 4.83203C121.497 4.83203 122.441 5.24824 123.113 5.77692L122.277 6.95804C121.715 6.57558 121.077 6.33936 120.387 6.33936C119.551 6.33936 118.842 6.74056 118.842 7.41173C118.842 8.86656 123.476 8.04916 123.476 11.1538C123.481 12.7511 121.954 13.7335 120.301 13.7335Z"
      fill="black" />
  </g>
  <defs>
    <clipPath id="clip0_387_2136">
      <rect width="123.542" height="17.0667" fill="white" transform="translate(0 0.466797)" />
    </clipPath>
  </defs>
</svg>