<svg width="194" height="36" viewBox="0 0 194 36" fill="none" xmlns="http://www.w3.org/2000/svg">
<path d="M35.2095 11.6054C34.3384 9.57247 33.105 7.71478 31.5695 6.12295C30.0093 4.54682 28.1641 3.28112 26.1319 2.39306C24.0201 1.47147 21.7403 0.997148 19.4361 0.999963C17.1389 0.975765 14.8607 1.41916 12.7403 2.30318C10.6798 3.17308 8.79242 4.406 7.16789 5.9432C5.56351 7.48919 4.28063 9.33714 3.39306 11.3808C2.47147 13.4926 1.99715 15.7724 1.99996 18.0766C1.97577 20.3738 2.41916 22.652 3.30318 24.7724C4.17251 26.8438 5.42241 28.7339 6.98814 30.3448C8.55034 31.9505 10.4132 33.2332 12.4706 34.1196C14.5839 35.0368 16.8628 35.5109 19.1665 35.5127L36.3779 35.6475L36.5127 18.3462C36.5192 16.0361 36.0766 13.7467 35.2095 11.6054ZM13.7739 30.929C12.129 30.2123 10.6347 29.1907 9.36988 27.9181C8.11984 26.6271 7.11486 25.1196 6.40394 23.4692C5.70745 21.7621 5.35675 19.9337 5.37218 18.0901C5.3876 16.2464 5.76885 14.4241 6.49381 12.7289C7.21122 11.0977 8.2331 9.61828 9.50469 8.36988C10.8041 7.13117 12.3197 6.14115 13.9761 5.44888C15.6832 4.75238 17.5116 4.40168 19.3552 4.41711C21.1989 4.43254 23.0212 4.81379 24.7164 5.53875C26.3566 6.23995 27.839 7.26388 29.0754 8.54963C30.3206 9.81822 31.3121 11.313 31.9964 12.9536C32.7091 14.6606 33.061 16.4966 33.03 18.3462L32.9401 29.9404L20.627 17.4025L23.3682 9.85285C23.5112 9.45954 23.4922 9.02553 23.3152 8.64628C23.1382 8.26704 22.8178 7.97364 22.4245 7.83061C22.0312 7.68759 21.5972 7.70667 21.2179 7.88365C20.8387 8.06063 20.5453 8.38101 20.4023 8.77432L18.2003 14.886L14.3356 10.9763C14.191 10.8317 14.0194 10.717 13.8304 10.6388C13.6415 10.5605 13.4391 10.5203 13.2346 10.5203C13.0301 10.5203 12.8276 10.5605 12.6387 10.6388C12.4498 10.717 12.2782 10.8317 12.1336 10.9763C11.989 11.1209 11.8743 11.2925 11.7961 11.4814C11.7178 11.6704 11.6776 11.8728 11.6776 12.0773C11.6776 12.2818 11.7178 12.4842 11.7961 12.6732C11.8743 12.8621 11.989 13.0337 12.1336 13.1783L21.6156 22.8401H14.7176C14.3004 22.8401 13.9004 23.0058 13.6054 23.3008C13.3104 23.5957 13.1447 23.9958 13.1447 24.4129C13.1447 24.8301 13.3104 25.2301 13.6054 25.5251C13.9004 25.8201 14.3004 25.9858 14.7176 25.9858H24.604L30.7157 32.1873L19.1215 32.0974C17.2783 32.0738 15.459 31.6763 13.7739 30.929Z" fill="#00C471"/>
<path d="M44.3318 11.3809V35.6027H39.5908V11.3809H44.3318Z" fill="#00C471"/>
<path d="M46.849 18.7954C47.457 17.3625 48.3429 16.0642 49.4554 14.9756C50.5643 13.8667 51.8765 12.9817 53.3202 12.3692C54.7984 11.7425 56.3882 11.4215 57.9938 11.4255C59.6152 11.4081 61.2223 11.7295 62.7123 12.3692C64.1529 12.9875 65.464 13.8717 66.577 14.9756C67.6896 16.0642 68.5755 17.3625 69.1835 18.7954C69.8231 20.2854 70.1446 21.8925 70.1272 23.5139V35.6473H65.3187V23.5139C65.3291 22.5393 65.1298 21.5738 64.7345 20.6828C64.3761 19.8042 63.8407 19.0088 63.1617 18.346C61.7781 16.9653 59.9035 16.1896 57.9488 16.189C56.9742 16.1786 56.0087 16.3779 55.1177 16.7732C54.2391 17.1316 53.4437 17.667 52.7809 18.346C51.4112 19.7186 50.6363 21.5749 50.6239 23.5139V35.6473H45.8154V23.5139C45.8812 21.8927 46.231 20.2956 46.849 18.7954Z" fill="#00C471"/>
<path d="M81.0471 7.06647C80.1685 7.4249 79.3731 7.96028 78.7103 8.63932C77.3405 10.0119 76.5657 11.8682 76.5532 13.8072V16.2789H86.26V21.0873H76.5532V35.6474H71.7448V13.8072C71.7274 12.1858 72.0488 10.5787 72.6885 9.0887C73.2965 7.65578 74.1824 6.35753 75.295 5.26893C76.4198 4.17955 77.7281 3.29721 79.1597 2.66249C80.6379 2.03585 82.2277 1.71484 83.8333 1.71879H86.215V6.5272H83.8333C82.8749 6.48364 81.92 6.66847 81.0471 7.06647Z" fill="#00C471"/>
<path d="M100.461 1.67383V35.6024H95.6523V1.67383H100.461Z" fill="#00C471"/>
<path d="M121.222 27.0644L124.637 30.4798L122.975 32.1425C121.843 33.2766 120.499 34.1774 119.02 34.7939C117.555 35.4061 115.979 35.712 114.391 35.6926C112.805 35.6899 111.234 35.3849 109.763 34.7939C108.284 34.1774 106.94 33.2766 105.808 32.1425C104.658 31.0061 103.756 29.6445 103.157 28.143C102.018 25.2242 102.018 21.9841 103.157 19.0654C103.75 17.5609 104.653 16.1982 105.808 15.0659C106.944 13.9161 108.306 13.0134 109.808 12.4145C112.715 11.216 115.978 11.216 118.885 12.4145C120.387 13.0134 121.748 13.9161 122.885 15.0659L124.547 16.7286L111.111 30.1652C112.459 30.837 113.982 31.0726 115.47 30.8393C116.993 30.6058 118.398 29.8797 119.469 28.7721L121.222 27.0644ZM109.178 18.3913C108.484 19.0587 107.934 19.862 107.563 20.751C107.192 21.6401 107.007 22.5959 107.021 23.5592C107.029 24.6672 107.29 25.7587 107.785 26.7499L109.763 24.7726L112.549 21.9864C113.538 20.9977 114.481 20.054 115.425 19.1553L117.537 17.0432C116.187 16.3794 114.67 16.1293 113.178 16.3241C111.661 16.5771 110.262 17.3002 109.178 18.3913Z" fill="#00C471"/>
<path d="M138.298 11.3806C139.92 11.3631 141.527 11.6846 143.017 12.3243C144.45 12.9322 145.748 13.8181 146.836 14.9307C147.935 16.0312 148.819 17.3265 149.443 18.7505C150.083 20.2404 150.404 21.8476 150.387 23.469V35.6024H138.298C136.711 35.6026 135.14 35.2891 133.675 34.6798C132.209 34.0705 130.879 33.1776 129.76 32.0523C128.656 30.9392 127.772 29.6281 127.153 28.1876C126.527 26.7093 126.206 25.1195 126.21 23.514C126.192 21.8926 126.514 20.2854 127.153 18.7954C127.761 17.3625 128.647 16.0642 129.76 14.9756C130.885 13.8863 132.193 13.0039 133.625 12.3692C135.093 11.7072 136.687 11.37 138.298 11.3806ZM145.578 30.794V23.469C145.588 22.4943 145.389 21.5289 144.994 20.6379C144.636 19.7593 144.1 18.9639 143.421 18.3011C142.049 16.9313 140.192 16.1565 138.253 16.144C137.264 16.1337 136.284 16.3328 135.377 16.7282C134.499 17.0867 133.703 17.622 133.04 18.3011C131.671 19.6736 130.896 21.53 130.883 23.469C130.873 24.4582 131.072 25.4383 131.467 26.3451C131.833 27.2256 132.376 28.0212 133.063 28.6819C134.446 30.0626 136.321 30.8383 138.276 30.8389H145.601L145.578 30.794Z" fill="#00C471"/>
<path d="M166.34 11.3809V16.1893H163.913C162.939 16.179 161.973 16.3782 161.082 16.7735C160.204 17.1319 159.408 17.6673 158.745 18.3463C157.376 19.7189 156.601 21.5752 156.588 23.5143V35.6477H151.735V23.5143C151.718 21.8929 152.039 20.2857 152.679 18.7957C153.287 17.3628 154.173 16.0645 155.285 14.9759C156.41 13.8866 157.718 13.0042 159.15 12.3695C160.628 11.7429 162.218 11.4218 163.824 11.4258H166.34V11.3809Z" fill="#00C471"/>
<path d="M168.721 18.7954C169.329 17.3625 170.215 16.0642 171.328 14.9756C172.436 13.8667 173.749 12.9817 175.192 12.3692C176.67 11.7425 178.26 11.4215 179.866 11.4255C181.487 11.4081 183.094 11.7295 184.584 12.3692C186.025 12.9875 187.336 13.8717 188.449 14.9756C189.562 16.0642 190.448 17.3625 191.056 18.7954C191.695 20.2854 192.017 21.8925 191.999 23.5139V35.6473H187.191V23.5139C187.201 22.5393 187.002 21.5738 186.607 20.6828C186.248 19.8042 185.713 19.0088 185.034 18.346C183.65 16.9653 181.776 16.1896 179.821 16.189C178.846 16.1786 177.881 16.3779 176.99 16.7732C176.111 17.1316 175.316 17.667 174.653 18.346C173.283 19.7186 172.508 21.5749 172.496 23.5139V35.6473H167.688V23.5139C167.753 21.8927 168.103 20.2956 168.721 18.7954Z" fill="#00C471"/>
</svg>
