<?xml version="1.0" encoding="utf-8"?>
<!-- Generator: Adobe Illustrator 27.4.1, SVG Export Plug-In . SVG Version: 6.00 Build 0)  -->
<svg version="1.1" id="Layer_1" xmlns="http://www.w3.org/2000/svg" xmlns:xlink="http://www.w3.org/1999/xlink" x="0px" y="0px"
	 viewBox="0 0 800 87.7" style="enable-background:new 0 0 800 87.7;" xml:space="preserve">
<style type="text/css">
	.st0{fill:url(#SVGID_1_);}
	.st1{fill:url(#SVGID_00000145741433996595442380000010299276045358974894_);}
	.st2{fill:url(#SVGID_00000085961457687991765040000010391688047842998666_);}
	.st3{fill:url(#SVGID_00000079466500371613879820000011456683264085482885_);}
	.st4{fill:url(#SVGID_00000118387935548001305840000003483864490188907918_);}
	.st5{fill:url(#SVGID_00000063612924755384843120000006378177749708673166_);}
	.st6{fill:url(#SVGID_00000051345107453529190550000013636754930470360970_);}
	.st7{fill:url(#SVGID_00000003100798188788195890000000061898267459703728_);}
	.st8{fill:url(#SVGID_00000111905176319702061480000000164916780294863015_);}
	.st9{fill:url(#SVGID_00000000932969684946742250000004293176780153733765_);}
</style>
<g>
	<linearGradient id="SVGID_1_" gradientUnits="userSpaceOnUse" x1="41.0905" y1="6.1375" x2="41.0905" y2="85.5551">
		<stop  offset="0" style="stop-color:#02D94A"/>
		<stop  offset="0.5" style="stop-color:#03CF5D"/>
		<stop  offset="0.8578" style="stop-color:#03CB5B"/>
		<stop  offset="1" style="stop-color:#03C75A"/>
	</linearGradient>
	<polygon class="st0" points="55.7,47.8 25.3,4 0,4 0,85.8 26.5,85.8 26.5,42 56.9,85.8 82.2,85.8 82.2,4 55.7,4 	"/>
	
		<linearGradient id="SVGID_00000099641093393224207330000010030354155009477523_" gradientUnits="userSpaceOnUse" x1="137.102" y1="6.1375" x2="137.102" y2="85.5551">
		<stop  offset="0" style="stop-color:#02D94A"/>
		<stop  offset="0.5" style="stop-color:#03CF5D"/>
		<stop  offset="0.8578" style="stop-color:#03CB5B"/>
		<stop  offset="1" style="stop-color:#03C75A"/>
	</linearGradient>
	<path style="fill:url(#SVGID_00000099641093393224207330000010030354155009477523_);" d="M122.7,4L90.6,85.8h27.3l3.9-10.8h30.7
		l3.9,10.8h27.3L151.5,4H122.7z M128,55.3l9.1-25.6l9.1,25.6H128z"/>
	
		<linearGradient id="SVGID_00000094607250552317499750000006530844250128584112_" gradientUnits="userSpaceOnUse" x1="303.268" y1="6.1375" x2="303.268" y2="85.5551">
		<stop  offset="0" style="stop-color:#02D94A"/>
		<stop  offset="0.5" style="stop-color:#03CF5D"/>
		<stop  offset="0.8578" style="stop-color:#03CB5B"/>
		<stop  offset="1" style="stop-color:#03C75A"/>
	</linearGradient>
	<polygon style="fill:url(#SVGID_00000094607250552317499750000006530844250128584112_);" points="297.1,54.7 334.3,54.7 
		334.3,35.1 297.1,35.1 297.1,24.1 334.7,24.1 334.7,4 271,4 271,85.8 335.5,85.8 335.5,65.8 297.1,65.8 	"/>
	
		<linearGradient id="SVGID_00000119088315400503717960000011807953703395439773_" gradientUnits="userSpaceOnUse" x1="216.0759" y1="6.1375" x2="216.0759" y2="85.5551">
		<stop  offset="0" style="stop-color:#02D94A"/>
		<stop  offset="0.5" style="stop-color:#03CF5D"/>
		<stop  offset="0.8578" style="stop-color:#03CB5B"/>
		<stop  offset="1" style="stop-color:#03C75A"/>
	</linearGradient>
	<polygon style="fill:url(#SVGID_00000119088315400503717960000011807953703395439773_);" points="216.1,57.8 196.8,4 169.6,4 
		201.6,85.8 230.5,85.8 262.6,4 235.3,4 	"/>
	
		<linearGradient id="SVGID_00000018948138049328669290000016728577011081129119_" gradientUnits="userSpaceOnUse" x1="387.2528" y1="6.1375" x2="387.2528" y2="85.5551">
		<stop  offset="0" style="stop-color:#02D94A"/>
		<stop  offset="0.5" style="stop-color:#03CF5D"/>
		<stop  offset="0.8578" style="stop-color:#03CB5B"/>
		<stop  offset="1" style="stop-color:#03C75A"/>
	</linearGradient>
	<path style="fill:url(#SVGID_00000018948138049328669290000016728577011081129119_);" d="M407.9,56.7c9.5-4,14.3-12.6,14.3-23.5
		c0-10.3-3.8-18-11.2-22.7C404.2,6.1,395.2,4,382.9,4h-34.5v81.8H374V63h9.2l15.6,22.9h27.3l-20.7-28.1L407.9,56.7z M387.7,42.1h-14
		V24.9h14c4.8,0,8.6,3.9,8.6,8.6S392.4,42.1,387.7,42.1z"/>
	
		<linearGradient id="SVGID_00000065778111402260218280000009312786002486188191_" gradientUnits="userSpaceOnUse" x1="615.3884" y1="6.1375" x2="615.3884" y2="85.5551">
		<stop  offset="0" style="stop-color:#02D94A"/>
		<stop  offset="0.5" style="stop-color:#03CF5D"/>
		<stop  offset="0.8578" style="stop-color:#03CB5B"/>
		<stop  offset="1" style="stop-color:#03C75A"/>
	</linearGradient>
	<path style="fill:url(#SVGID_00000065778111402260218280000009312786002486188191_);" d="M615.4,20.7c-20.4,0-35.2,14.1-35.2,33.5
		c0,19.4,14.8,33.5,35.2,33.5c20.4,0,35.2-14.1,35.2-33.5C650.6,34.7,635.8,20.7,615.4,20.7z M615.4,67.3c-7.5,0-12.7-5.4-12.7-13.2
		S607.9,41,615.4,41c7.5,0,12.7,5.4,12.7,13.2C628.1,61.9,622.9,67.3,615.4,67.3z"/>
	
		<linearGradient id="SVGID_00000090283840789908404170000016901505843771745435_" gradientUnits="userSpaceOnUse" x1="690.3854" y1="6.1375" x2="690.3854" y2="85.5551">
		<stop  offset="0" style="stop-color:#02D94A"/>
		<stop  offset="0.5" style="stop-color:#03CF5D"/>
		<stop  offset="0.8578" style="stop-color:#03CB5B"/>
		<stop  offset="1" style="stop-color:#03C75A"/>
	</linearGradient>
	<path style="fill:url(#SVGID_00000090283840789908404170000016901505843771745435_);" d="M698.4,57.5c0,5.8-2.9,9.2-8,9.2
		c-5.1,0-8-3.3-8-9.2V22.4l-23.1,5.4v30.6c0,17.5,12.5,29.2,31.1,29.2c18.6,0,31-11.7,31-29.2V22.4l-23.1,5.4V57.5z"/>
	
		<linearGradient id="SVGID_00000166641190378547338710000018106274027930131849_" gradientUnits="userSpaceOnUse" x1="765.0204" y1="6.1375" x2="765.0204" y2="85.5551">
		<stop  offset="0" style="stop-color:#02D94A"/>
		<stop  offset="0.5" style="stop-color:#03CF5D"/>
		<stop  offset="0.8578" style="stop-color:#03CB5B"/>
		<stop  offset="1" style="stop-color:#03C75A"/>
	</linearGradient>
	<path style="fill:url(#SVGID_00000166641190378547338710000018106274027930131849_);" d="M777.2,5.4v18.7
		c-4.3-2.3-9.1-3.5-14.1-3.5c-19.1,0-33,14.1-33,33.5c0,19.4,13.9,33.6,33,33.6c6.7,0,12.9-2.3,17.7-6.5l2,4.4H800V0L777.2,5.4z
		 M765.9,67.7c-7.7,0-13.2-5.7-13.2-13.5c0-7.8,5.6-13.5,13.2-13.5c7.7,0,13.2,5.7,13.2,13.5C779.1,62,773.6,67.7,765.9,67.7z"/>
	
		<linearGradient id="SVGID_00000173867401543301092160000002733221756819997314_" gradientUnits="userSpaceOnUse" x1="557.6569" y1="6.1375" x2="557.6569" y2="85.5551">
		<stop  offset="0" style="stop-color:#02D94A"/>
		<stop  offset="0.5" style="stop-color:#03CF5D"/>
		<stop  offset="0.8578" style="stop-color:#03CB5B"/>
		<stop  offset="1" style="stop-color:#03C75A"/>
	</linearGradient>
	<polygon style="fill:url(#SVGID_00000173867401543301092160000002733221756819997314_);" points="545.6,85.6 569.7,85.6 569.7,0 
		545.6,5.4 	"/>
	
		<linearGradient id="SVGID_00000135654068843192588370000004932283041509007762_" gradientUnits="userSpaceOnUse" x1="494.0143" y1="6.1375" x2="494.0143" y2="85.5551">
		<stop  offset="0" style="stop-color:#02D94A"/>
		<stop  offset="0.5" style="stop-color:#03CF5D"/>
		<stop  offset="0.8578" style="stop-color:#03CB5B"/>
		<stop  offset="1" style="stop-color:#03C75A"/>
	</linearGradient>
	<path style="fill:url(#SVGID_00000135654068843192588370000004932283041509007762_);" d="M495.2,65.2c-10.6,0-18.3-8.4-18.3-20
		c0-11.7,7.7-20.2,18.3-20.2c6.9,0,12.9,3.9,15.9,10.4l23.1-5.6C528.6,13,513.6,2.6,495.2,2.6c-24.5,0-43,18.3-43,42.6
		c0,24.2,18.5,42.4,43,42.4c20.2,0,36.1-12.6,40.5-32.1l0.1-0.7h-24.9C508.1,61.3,502.2,65.2,495.2,65.2z"/>
</g>
</svg>
