<svg width="211" height="35" viewBox="0 0 211 35" fill="none" xmlns="http://www.w3.org/2000/svg">
<path d="M72.3008 18.9895C72.3008 24.4084 76.9948 28.6468 82.9971 28.6468C88.9994 28.6468 93.7622 24.3746 93.7622 18.922V18.8546C93.7622 13.4469 89.0683 9.19727 83.0659 9.19727C77.0636 9.19727 72.3008 13.4694 72.3008 18.922V18.9895ZM78.0391 18.8546C78.005 18.2103 78.1086 17.5662 78.3433 16.9634C78.578 16.3606 78.9387 15.8125 79.4022 15.3543C79.8657 14.896 80.4218 14.5376 81.035 14.3021C81.6481 14.0665 82.3046 13.9591 82.9626 13.9866C83.6252 13.9757 84.2831 14.0963 84.8969 14.3411C85.5106 14.5859 86.0674 14.9498 86.5338 15.4108C87.0002 15.8719 87.3666 16.4207 87.6108 17.0241C87.8551 17.6275 87.9722 18.2731 87.955 18.922V18.9895C87.9892 19.6337 87.8856 20.2779 87.6509 20.8807C87.4162 21.4834 87.0555 22.0315 86.592 22.4898C86.1284 22.9481 85.5723 23.3065 84.9591 23.542C84.346 23.7775 83.6895 23.885 83.0315 23.8575C82.3685 23.8699 81.7098 23.7504 81.0953 23.5062C80.4809 23.262 79.9234 22.8982 79.4567 22.4367C78.99 21.9753 78.6237 21.4259 78.38 20.8218C78.1363 20.2176 78.0204 19.5714 78.0391 18.922V18.8546Z" fill="white"/>
<path d="M120.251 9.19717C118.946 9.17543 117.65 9.41288 116.441 9.89519C115.232 10.3775 114.136 11.0947 113.218 12.0035C112.3 12.9123 111.579 13.9938 111.099 15.1829C110.619 16.3719 110.391 17.6439 110.426 18.9219V18.9894C110.426 24.6106 114.788 28.6467 120.756 28.6467C122.29 28.7098 123.818 28.4286 125.225 27.8245C126.631 27.2205 127.878 26.3096 128.87 25.1615L128.961 25.0491L125.518 22.2272L125.427 22.3172C124.819 22.9165 124.094 23.3897 123.295 23.7084C122.497 24.0271 121.641 24.1849 120.779 24.1722C119.748 24.2561 118.721 23.9788 117.881 23.3899C117.04 22.801 116.44 21.9387 116.188 20.9568V20.8556H129.891V20.7207C129.891 20.2485 129.971 19.7539 129.971 19.3379C129.891 11.8167 124.715 9.19717 120.251 9.19717ZM116.199 17.303V17.2018C116.31 16.2319 116.782 15.3362 117.526 14.6867C118.269 14.0372 119.231 13.6797 120.228 13.6829C121.214 13.6768 122.167 14.036 122.895 14.6885C123.622 15.341 124.072 16.2386 124.153 17.2018V17.303H116.199Z" fill="white"/>
<path d="M155.69 9.19727C149.654 9.19727 144.925 13.4694 144.925 18.922V18.9895C144.925 24.4084 149.619 28.6468 155.622 28.6468C161.624 28.6468 166.387 24.3746 166.387 18.922V18.8546C166.387 13.4469 161.693 9.19727 155.69 9.19727ZM160.614 18.9895C160.648 19.6337 160.545 20.2779 160.31 20.8807C160.075 21.4834 159.714 22.0315 159.251 22.4898C158.787 22.9481 158.231 23.3065 157.618 23.542C157.005 23.7775 156.348 23.885 155.69 23.8575C155.027 23.8699 154.369 23.7504 153.754 23.5062C153.14 23.262 152.582 22.8982 152.116 22.4367C151.649 21.9753 151.283 21.4259 151.039 20.8218C150.795 20.2176 150.679 19.5714 150.698 18.922V18.8546C150.664 18.2103 150.768 17.5662 151.002 16.9634C151.237 16.3606 151.598 15.8125 152.061 15.3543C152.525 14.896 153.081 14.5376 153.694 14.3021C154.307 14.0665 154.964 13.9591 155.622 13.9866C156.284 13.9757 156.942 14.0963 157.556 14.3411C158.17 14.5859 158.726 14.9498 159.193 15.4108C159.659 15.8719 160.026 16.4207 160.27 17.0241C160.514 17.6275 160.631 18.2731 160.614 18.922V18.9895Z" fill="white"/>
<path d="M174.96 3.05908H169.107V28.4109H174.96V3.05908Z" fill="white"/>
<path d="M184.956 12.3677H179.138V28.4107H184.956V12.3677Z" fill="white"/>
<path d="M198.683 9.19727C192.646 9.19727 187.917 13.4694 187.917 18.922V18.9895C187.917 24.4084 192.611 28.6468 198.614 28.6468C204.616 28.6468 209.379 24.3746 209.379 18.922V18.8546C209.379 13.4469 204.685 9.19727 198.683 9.19727ZM203.606 18.9895C203.64 19.6337 203.537 20.2779 203.302 20.8807C203.067 21.4834 202.707 22.0315 202.243 22.4898C201.78 22.9481 201.223 23.3065 200.61 23.542C199.997 23.7775 199.341 23.885 198.683 23.8575C198.02 23.8699 197.361 23.7504 196.747 23.5062C196.132 23.262 195.575 22.8982 195.108 22.4367C194.641 21.9753 194.275 21.4259 194.031 20.8218C193.787 20.2176 193.672 19.5714 193.69 18.922V18.8546C193.656 18.2103 193.76 17.5662 193.994 16.9634C194.229 16.3606 194.59 15.8125 195.053 15.3543C195.517 14.896 196.073 14.5376 196.686 14.3021C197.299 14.0665 197.956 13.9591 198.614 13.9866C199.276 13.9757 199.934 14.0963 200.548 14.3411C201.162 14.5859 201.719 14.9498 202.185 15.4108C202.651 15.8719 203.018 16.4207 203.262 17.0241C203.506 17.6275 203.623 18.2731 203.606 18.922V18.9895Z" fill="white"/>
<path d="M103.85 28.6806C105.377 28.7574 106.902 28.484 108.303 27.8824H108.372V23.3292C107.786 23.4529 104.929 23.9925 104.229 23.0032V22.9357C103.961 22.5127 103.843 22.0144 103.896 21.5192V14.4701H107.717V9.71457H103.896V4.95898H98.341V9.65835H94.8979V14.4139H98.341V22.9919C98.2951 26.9718 99.9592 28.6806 103.85 28.6806Z" fill="white"/>
<path d="M144.053 9.93931H139.554V9.36595C139.533 9.12794 139.563 8.88834 139.641 8.66204C139.719 8.43574 139.844 8.22756 140.007 8.05044C140.171 7.87332 140.37 7.73105 140.592 7.63243C140.814 7.53382 141.055 7.48098 141.298 7.4772C142.231 7.38837 143.173 7.44529 144.087 7.64583V3.07015H143.984C142.675 2.70982 141.313 2.56919 139.956 2.65418C139.11 2.59531 138.262 2.7187 137.471 3.01568C136.68 3.31265 135.965 3.77597 135.376 4.37301C134.787 4.97005 134.339 5.68629 134.064 6.47125C133.788 7.25621 133.692 8.0908 133.781 8.91624V9.93931H131.486V14.515H133.781V28.4557H139.634V14.515H144.053V9.93931Z" fill="white"/>
<path d="M182.041 10.7601C183.682 10.7601 185.013 9.45647 185.013 7.84833C185.013 6.24018 183.682 4.93652 182.041 4.93652C180.399 4.93652 179.068 6.24018 179.068 7.84833C179.068 9.45647 180.399 10.7601 182.041 10.7601Z" fill="white"/>
<path d="M60.0091 14.0654C61.0168 14.0428 62.0004 14.3693 62.7865 14.9873C63.1072 15.3047 63.355 15.6855 63.5134 16.1043C63.6717 16.5231 63.7369 16.9702 63.7047 17.4156V28.3996H69.7184V16.8535C69.7692 15.7799 69.5913 14.7078 69.1962 13.7052C68.801 12.7026 68.1972 11.7915 67.4231 11.0299C65.8164 9.56437 63.6964 8.75943 61.5011 8.78142C59.5822 8.7052 57.7023 9.32576 56.2218 10.524L56.0841 10.6364V9.36603H50.1851V28.3658H56.0841V18.1464C56.0406 17.5959 56.1106 17.0425 56.29 16.519C56.4695 15.9956 56.7546 15.5129 57.1285 15.0997C57.5153 14.7498 57.969 14.4783 58.4634 14.3008C58.9577 14.1233 59.4831 14.0433 60.0091 14.0654Z" fill="white"/>
<path d="M44.0679 13.0985C44.0407 13.0686 44.007 13.045 43.9693 13.0295C43.9316 13.0139 43.8908 13.0068 43.8499 13.0086H30.0434C29.1712 13.0086 28.8154 12.6039 29.1827 11.8169L33.7734 1.78858C33.7935 1.7544 33.8041 1.71562 33.8041 1.67615C33.8041 1.63668 33.7935 1.59792 33.7734 1.56374C33.7485 1.53039 33.7155 1.50365 33.6775 1.48598C33.6394 1.4683 33.5974 1.46024 33.5553 1.46254H10.9806C10.8833 1.4681 10.789 1.49786 10.7067 1.549C10.6243 1.60014 10.5567 1.67099 10.51 1.75486L1.47788 21.6766C1.45779 21.7128 1.44727 21.7534 1.44727 21.7946C1.44727 21.8358 1.45779 21.8764 1.47788 21.9126C1.50457 21.9432 1.53823 21.9673 1.57608 21.9829C1.61394 21.9985 1.65495 22.0052 1.69594 22.0026H15.5942C16.4205 22.0026 16.7419 22.3174 16.3976 23.1268L11.8069 33.2451C11.7868 33.2792 11.7762 33.318 11.7762 33.3575C11.7762 33.397 11.7868 33.4357 11.8069 33.4699C11.831 33.5041 11.8638 33.5314 11.9021 33.5492C11.9404 33.5669 11.9828 33.5745 12.025 33.5711H34.6341C34.73 33.5658 34.8228 33.536 34.9033 33.4848C34.9838 33.4335 35.0493 33.3625 35.0932 33.2788L44.1254 13.3571C44.1449 13.3136 44.1499 13.2651 44.1396 13.2187C44.1293 13.1722 44.1042 13.1301 44.0679 13.0985Z" fill="#1ECAD3"/>
</svg>
