<svg width="153" height="62" viewBox="0 0 153 62" fill="none" xmlns="http://www.w3.org/2000/svg">
<path d="M32.5527 1.99731C38.3682 1.99731 44.0532 3.69395 48.8886 6.87266C53.724 10.0514 57.4928 14.5694 59.7183 19.8554C61.9438 25.1414 62.5261 30.958 61.3915 36.5696C60.257 42.1812 57.4565 47.3358 53.3443 51.3815C49.2321 55.4273 43.9929 58.1824 38.2891 59.2987C32.5853 60.4149 26.6732 59.842 21.3004 57.6525C15.9275 55.4629 11.3353 51.7551 8.10436 46.9978C4.87343 42.2405 3.14893 36.6474 3.14893 30.9259C3.14893 23.2536 6.24682 15.8955 11.7611 10.4703C17.2754 5.04514 24.7543 1.99731 32.5527 1.99731ZM32.5527 4.3116C27.2024 4.3116 21.9723 5.8725 17.5237 8.79692C13.0751 11.7213 9.60786 15.8779 7.5604 20.7411C5.51294 25.6042 4.97723 30.9554 6.02102 36.1181C7.0648 41.2808 9.64121 46.023 13.4244 49.7451C17.2076 53.4671 22.0278 56.0019 27.2752 57.0288C32.5227 58.0558 37.9619 57.5287 42.9049 55.5143C47.8479 53.5 52.0727 50.0887 55.0452 45.712C58.0177 41.3353 59.6042 36.1897 59.6042 30.9259C59.6042 23.8674 56.7541 17.0979 51.681 12.1068C46.6079 7.1156 39.7272 4.3116 32.5527 4.3116ZM32.5527 44.0402L33.1565 44.3989C33.2192 44.4336 33.3643 44.5108 33.5916 44.6188C34.0348 44.8271 34.4904 45.0087 34.956 45.1626C36.5483 45.6996 38.2204 45.972 39.9037 45.9688V48.2831C37.9605 48.2861 36.0302 47.972 34.1915 47.3535C33.639 47.1696 33.0984 46.9532 32.5723 46.7055C32.0463 46.9532 31.5056 47.1696 30.9531 47.3535C29.102 47.9762 27.1581 48.2904 25.2018 48.2831V45.9688C26.885 45.972 28.5571 45.6996 30.1494 45.1626C30.615 45.0087 31.0706 44.8271 31.5138 44.6188C31.7412 44.5108 31.9058 44.4336 31.949 44.3989L32.5527 44.0402ZM32.5527 38.1118L33.1565 38.4666C33.2975 38.5474 33.4428 38.6208 33.5916 38.6865C34.0354 38.8946 34.4909 39.0774 34.956 39.2342C38.164 40.309 41.6433 40.309 44.8513 39.2342C45.3174 39.0767 45.7742 38.8939 46.2196 38.6865C46.4156 38.5939 46.5568 38.5206 46.6116 38.4821H46.6352L47.2193 38.1388L47.8152 38.4666C47.878 38.5013 47.9995 38.5669 48.1642 38.6479C48.4464 38.7906 48.7483 38.9333 49.0541 39.0683C49.3599 39.2033 49.6304 39.3036 49.897 39.3923C50.2059 39.508 50.5288 39.5832 50.8575 39.6161H50.9124V41.9303C50.3037 41.9088 49.7026 41.7903 49.1325 41.5793C48.8032 41.4675 48.4582 41.3325 48.1093 41.1936C47.7603 41.0548 47.5173 40.9275 47.2389 40.8079C46.7129 41.0556 46.1722 41.272 45.6198 41.4559C41.9167 42.7005 37.8985 42.7005 34.1954 41.4559C33.643 41.272 33.1023 41.0556 32.5762 40.8079C32.0502 41.0556 31.5095 41.272 30.9571 41.4559C27.254 42.7005 23.2358 42.7005 19.5327 41.4559C18.9803 41.272 18.4396 41.0556 17.9135 40.8079C17.6352 40.9468 17.3412 41.0818 17.0393 41.1936C16.7374 41.3055 16.3453 41.4791 16.0121 41.5793C15.4829 41.7719 14.9284 41.8888 14.3655 41.9265H14.2322V39.6122C14.5816 39.5866 14.9251 39.5099 15.2515 39.3846C15.5142 39.2959 15.8004 39.1879 16.0944 39.0606C16.3885 38.9333 16.7021 38.7829 16.9844 38.6402L17.3059 38.4743H17.3333L17.9292 38.1465L18.5134 38.4898C18.6544 38.5705 18.7997 38.6439 18.9486 38.7096C19.3923 38.9177 19.8478 39.1006 20.3129 39.2573C23.5209 40.3321 27.0002 40.3321 30.2082 39.2573C30.6733 39.1006 31.1288 38.9177 31.5726 38.7096C31.7725 38.6171 31.9097 38.5438 31.9842 38.5052H32.0078L32.5527 38.1118ZM47.2585 32.1795L47.8623 32.5382C47.9211 32.5729 48.0701 32.6501 48.2935 32.7581C48.7367 32.9664 49.1923 33.148 49.6579 33.3019C51.1603 33.8097 52.7349 34.0805 54.3233 34.1042H54.6055V36.4185C52.6623 36.4215 50.7321 36.1074 48.8934 35.4889C48.3409 35.305 47.8002 35.0886 47.2742 34.8409C46.746 35.0856 46.2041 35.3006 45.6511 35.4851C41.949 36.7192 37.9367 36.7192 34.2346 35.4851C33.7441 35.322 33.2626 35.1341 32.7919 34.9219L32.6115 34.8409C32.0833 35.0856 31.5414 35.3006 30.9884 35.4851C27.2863 36.7192 23.274 36.7192 19.5719 35.4851C19.0536 35.326 18.5445 35.1393 18.0468 34.9258L17.8665 34.8448C17.338 35.0888 16.7961 35.3038 16.2434 35.4889C14.4953 36.0751 12.6641 36.3862 10.8174 36.4108H10.5352V34.0965C12.218 34.0988 13.8897 33.8277 15.4828 33.2942C15.9497 33.1402 16.4066 32.9586 16.8511 32.7503C17.051 32.6578 17.1883 32.5845 17.2431 32.5459H17.2667L17.8704 32.1949L18.4742 32.5459C18.6137 32.627 18.7577 32.7004 18.9054 32.7658C19.3499 32.9741 19.8069 33.1557 20.2737 33.3096C23.4839 34.3792 26.9627 34.3792 30.173 33.3096C30.6383 33.155 31.0939 32.9734 31.5373 32.7658C31.7372 32.6732 31.8745 32.5999 31.9294 32.5613H31.9529L32.5527 32.1833L33.1565 32.5343C33.2192 32.5729 33.3643 32.6501 33.5877 32.7542C34.0322 32.9625 34.4892 33.1441 34.956 33.2981C38.1662 34.3676 41.645 34.3676 44.8553 33.2981C45.3206 33.1435 45.7761 32.9619 46.2196 32.7542C46.4195 32.6616 46.5568 32.5883 46.6116 32.5498H46.6352L47.2585 32.1795Z" fill="white"/>
<path fill-rule="evenodd" clip-rule="evenodd" d="M82.1239 31.6666L79.3482 33.1014C79.1405 32.546 78.7676 32.065 78.2781 31.721C77.7886 31.377 77.2052 31.186 76.6038 31.1729C75.3807 31.1729 74.2515 31.8671 74.2515 33.3483C74.2515 34.7369 75.1925 35.1534 77.3879 36.0792C80.2107 37.2363 81.528 38.1157 82.2807 39.0414C83.0002 39.9095 83.3688 41.0083 83.3157 42.1272C83.3157 46.154 80.3519 48.422 76.5882 48.422C75.0677 48.4432 73.5818 47.9755 72.3562 47.0899C71.1306 46.2044 70.2323 44.9494 69.7979 43.5157L72.7147 42.3123C73.1068 43.3306 74.2202 45.4597 76.6666 45.4597C77.0849 45.4828 77.5035 45.4203 77.8959 45.2762C78.2884 45.132 78.6463 44.9094 78.9469 44.6224C79.2475 44.3353 79.4844 43.99 79.6425 43.6083C79.8007 43.2267 79.8767 42.8169 79.8657 42.4049C79.8657 40.5997 78.5484 39.998 76.7293 39.2112C74.377 38.1929 72.8715 37.4523 71.9777 36.3877C71.3394 35.5855 71.0215 34.5812 71.0838 33.5643C71.0838 30.1854 73.4831 28.1951 76.7764 28.1951C77.7957 28.1951 80.5714 28.3803 82.1239 31.6666ZM90.3178 28.658V39.8437C90.3178 41.186 90.3178 42.7597 91.2587 43.9632C91.7762 44.6112 92.8269 45.4443 94.6931 45.4443C96.5592 45.4443 97.6099 44.6112 98.1274 43.9632C99.037 42.806 99.0644 41.2902 99.0683 39.9787V28.658H102.456V40.2294C102.456 42.59 102.22 44.3489 100.668 46.0152C99.0744 47.5576 96.9285 48.4221 94.6931 48.4221C92.4576 48.4221 90.3117 47.5576 88.7182 46.0152C87.15 44.3489 86.9305 42.59 86.9305 40.2294V28.658H90.3178ZM136.893 28.658V47.8666H133.506V28.658H136.893ZM135.764 16.3923C136.846 18.1049 136.893 19.9563 136.893 21.4374V22.2089H133.506V21.4374C133.506 20.6969 133.459 19.3546 132.847 18.4289C132.283 17.5957 131.201 16.9477 129.319 16.9477C127.437 16.9477 126.355 17.5957 125.791 18.4289C125.226 19.262 125.136 20.3574 125.132 21.3101V28.658H129.931V31.6974H125.132V47.8512H121.745V31.6974H119.863V28.658H121.745V21.4374C121.745 19.3546 121.886 17.7809 122.874 16.3923C123.768 15.1117 125.649 13.5688 129.319 13.5688C130.958 13.5688 134.118 13.8466 135.764 16.3923ZM115.127 28.1951C116.176 28.2319 117.204 28.4952 118.138 28.9666L116.538 31.9751C115.966 31.569 115.283 31.3431 114.578 31.3271C114.056 31.2979 113.535 31.3919 113.057 31.6012C112.58 31.8106 112.16 32.1292 111.833 32.5306C111.269 33.2712 110.704 34.5672 110.704 37.7146V47.8512H107.317V28.658H110.704V30.7409C111.034 30.2317 112.492 28.1951 115.127 28.1951ZM146.491 21.7151V28.658H149.878V31.6974H146.491V47.8512H143.111V31.6974H141.033V28.658H143.111V21.7151H146.491Z" fill="white"/>
</svg>
