<svg width="48" height="48" viewBox="0 0 48 48" fill="none" xmlns="http://www.w3.org/2000/svg">
<circle cx="24" cy="24" r="24" fill="white" fill-opacity="0.2"/>
<path d="M23.9271 37.9557C31.2909 37.9557 37.2604 31.9862 37.2604 24.6224C37.2604 17.2586 31.2909 11.2891 23.9271 11.2891C16.5633 11.2891 10.5938 17.2586 10.5938 24.6224C10.5938 31.9862 16.5633 37.9557 23.9271 37.9557Z" stroke="white" stroke-width="1.5" stroke-linecap="round" stroke-linejoin="round"/>
<path d="M10.5938 24.6211H37.2604" stroke="white" stroke-width="1.5" stroke-linecap="round" stroke-linejoin="round"/>
<path d="M23.9271 11.2891C27.2621 14.9402 29.1574 19.6784 29.2604 24.6224C29.1574 29.5664 27.2621 34.3046 23.9271 37.9557C20.592 34.3046 18.6967 29.5664 18.5938 24.6224C18.6967 19.6784 20.592 14.9402 23.9271 11.2891V11.2891Z" stroke="white" stroke-width="1.5" stroke-linecap="round" stroke-linejoin="round"/>
</svg>
