<svg width="36" height="36" viewBox="0 0 36 36" fill="none" xmlns="http://www.w3.org/2000/svg">
<circle cx="18" cy="18" r="18" fill="white" fill-opacity="0.2"/>
<path d="M17.9453 28.4648C23.4682 28.4648 27.9453 23.9877 27.9453 18.4648C27.9453 12.942 23.4682 8.46484 17.9453 8.46484C12.4225 8.46484 7.94531 12.942 7.94531 18.4648C7.94531 23.9877 12.4225 28.4648 17.9453 28.4648Z" stroke="white" stroke-width="1.5" stroke-linecap="round" stroke-linejoin="round"/>
<path d="M7.94531 18.4648H27.9453" stroke="white" stroke-width="1.5" stroke-linecap="round" stroke-linejoin="round"/>
<path d="M17.9453 8.46484C20.4466 11.2032 21.8681 14.7569 21.9453 18.4648C21.8681 22.1728 20.4466 25.7265 17.9453 28.4648C15.444 25.7265 14.0226 22.1728 13.9453 18.4648C14.0226 14.7569 15.444 11.2032 17.9453 8.46484V8.46484Z" stroke="white" stroke-width="1.5" stroke-linecap="round" stroke-linejoin="round"/>
</svg>
