<svg width="1920" height="301" viewBox="0 0 1920 301" fill="none" xmlns="http://www.w3.org/2000/svg">
<g clip-path="url(#clip0_1094_5492)">
<g clip-path="url(#clip1_1094_5492)">
<rect width="1920" height="301" fill="black"/>
<g filter="url(#filter0_f_1094_5492)">
<path d="M460.854 411.768L350 -28.4681L1437 -88L1383.94 158.632L1138.59 508.82V814.983L835.446 846L641.583 555.344L460.854 411.768Z" fill="url(#paint0_linear_1094_5492)"/>
</g>
<circle cx="783.48" cy="283.844" r="8.79493" transform="rotate(2.41818 783.48 283.844)" fill="#88BAFF" fill-opacity="0.4"/>
<ellipse cx="959.581" cy="114.248" rx="10.0513" ry="10.6796" transform="rotate(2.41818 959.581 114.248)" fill="#FFE6FF" fill-opacity="0.2"/>
<ellipse cx="1284.92" cy="67.9739" rx="9.42314" ry="10.6796" transform="rotate(2.41818 1284.92 67.9739)" fill="#88BAFF" fill-opacity="0.2"/>
<ellipse cx="1245.6" cy="105.925" rx="14.4488" ry="15.077" transform="rotate(2.41818 1245.6 105.925)" fill="#88BAFF" fill-opacity="0.1"/>
<circle cx="672.557" cy="260.293" r="10.0513" transform="rotate(2.41818 672.557 260.293)" fill="#FFE6FF" fill-opacity="0.1"/>
<circle cx="660.246" cy="15.8127" r="25.1284" transform="rotate(2.41818 660.246 15.8127)" fill="#FFE6FF" fill-opacity="0.1"/>
<ellipse cx="652.925" cy="204.136" rx="5.65388" ry="6.28209" transform="rotate(2.41818 652.925 204.136)" fill="#FFE6FF" fill-opacity="0.1"/>
<ellipse cx="1031.45" cy="18.9156" rx="5.02567" ry="5.65388" transform="rotate(2.41818 1031.45 18.9156)" fill="#FFE6FF" fill-opacity="0.2"/>
<ellipse cx="1053.36" cy="310.335" rx="9.42314" ry="10.0513" transform="rotate(2.41818 1053.36 310.335)" fill="#88BAFF" fill-opacity="0.4"/>
<circle cx="1046.04" cy="35.4609" r="8.79493" transform="rotate(2.41818 1046.04 35.4609)" fill="#FFE6FF" fill-opacity="0.2"/>
<ellipse cx="1276.5" cy="29.2592" rx="5.65388" ry="6.28209" transform="rotate(2.41818 1276.5 29.2592)" fill="#88BAFF" fill-opacity="0.1"/>
<circle cx="1061.7" cy="-0.893709" r="5.02567" transform="rotate(2.41818 1061.7 -0.893709)" fill="#FFE6FF" fill-opacity="0.2"/>
<rect x="910.058" y="145.555" width="192.012" height="137.311" rx="19" transform="rotate(19.8569 910.058 145.555)" fill="#006AFE"/>
<circle cx="954.178" cy="304.477" r="11.9303" transform="rotate(19.8569 954.178 304.477)" fill="#4C97FF"/>
<path d="M846.612 268.635L1060.81 345.99L1060.44 347.016C1056.24 358.627 1043.43 364.64 1031.82 360.447L859.673 298.277C848.062 294.084 842.048 281.271 846.241 269.66L846.612 268.635Z" fill="#006AFE"/>
<rect x="922.127" y="171.285" width="151.823" height="97.1222" transform="rotate(19.8569 922.127 171.285)" fill="black"/>
<path d="M1019.06 257.812L992.158 270.439L988.718 263.021L1008.24 253.902L999.08 234.484L1006.43 230.908L1019.06 257.812Z" fill="white"/>
<path d="M997.919 222.037L965.313 266.513L957.715 263.769L990.37 219.311L997.919 222.037Z" fill="white"/>
<path d="M936.897 228.136L963.8 215.509L967.173 222.959L947.723 232.046L956.91 251.532L949.524 255.04L936.897 228.136Z" fill="white"/>
<ellipse cx="857.575" cy="271.248" rx="8.70949" ry="9.07239" transform="rotate(2.41818 857.575 271.248)" fill="#88BAFF"/>
<circle cx="1009.84" cy="178.588" r="8.96421" transform="rotate(179.483 1009.84 178.588)" fill="#88BAFF"/>
<circle cx="1074.76" cy="256.156" r="5.00964" transform="rotate(-92.1165 1074.76 256.156)" fill="#88BAFF"/>
<circle cx="1021.91" cy="183.912" r="7.147" transform="rotate(179.483 1021.91 183.912)" fill="#88BAFF"/>
<circle cx="1071.97" cy="262.98" r="3.9941" transform="rotate(-92.1165 1071.97 262.98)" fill="#88BAFF"/>
<circle cx="1075.91" cy="272.116" r="2.43822" transform="rotate(-92.1165 1075.91 272.116)" fill="#88BAFF"/>
<circle cx="948.702" cy="136.789" r="6.73667" transform="rotate(179.483 948.702 136.789)" fill="#88BAFF" fill-opacity="0.7"/>
<circle cx="955.932" cy="158.081" r="11.5788" transform="rotate(179.483 955.932 158.081)" fill="#88BAFF"/>
<circle cx="846.078" cy="165.064" r="1.45158" transform="rotate(2.41818 846.078 165.064)" fill="#88BAFF"/>
<circle cx="845.926" cy="168.689" r="2.90316" transform="rotate(2.41818 845.926 168.689)" fill="#88BAFF"/>
<ellipse cx="839.519" cy="277.384" rx="5.44343" ry="5.08054" transform="rotate(2.41818 839.519 277.384)" fill="#88BAFF"/>
<circle cx="925.607" cy="149.764" r="6.72316" transform="rotate(179.483 925.607 149.764)" fill="#88BAFF"/>
<circle cx="916.998" cy="148.725" r="4.85561" transform="rotate(179.483 916.998 148.725)" fill="#88BAFF"/>
<circle cx="846.305" cy="271.496" r="6.16922" transform="rotate(2.41818 846.305 271.496)" fill="#88BAFF"/>
<ellipse cx="833.523" cy="273.135" rx="2.90316" ry="2.54027" transform="rotate(2.41818 833.523 273.135)" fill="#88BAFF"/>
<ellipse cx="883.968" cy="299.968" rx="2.90316" ry="3.26606" transform="rotate(2.41818 883.968 299.968)" fill="#88BAFF"/>
<ellipse cx="844.545" cy="287.403" rx="2.17737" ry="2.54027" transform="rotate(2.41818 844.545 287.403)" fill="#88BAFF"/>
<circle cx="984.035" cy="167.914" r="1.49404" transform="rotate(179.483 984.035 167.914)" fill="#88BAFF"/>
<circle cx="984.381" cy="164.548" r="2.61456" transform="rotate(179.483 984.381 164.548)" fill="#88BAFF"/>
<circle cx="907.513" cy="155.311" r="7.9837" transform="rotate(2.41818 907.513 155.311)" fill="#88BAFF"/>
<circle cx="901.218" cy="140.877" r="4.71764" transform="rotate(2.41818 901.218 140.877)" fill="#88BAFF"/>
<circle cx="901.844" cy="134.73" r="2.90316" transform="rotate(2.41818 901.844 134.73)" fill="#88BAFF"/>
<ellipse cx="898.612" cy="125.152" rx="2.17737" ry="1.45158" transform="rotate(2.41818 898.612 125.152)" fill="#88BAFF" fill-opacity="0.6"/>
<ellipse cx="906.394" cy="104.414" rx="1.08869" ry="0.725791" transform="rotate(2.41818 906.394 104.414)" fill="#88BAFF" fill-opacity="0.6"/>
<circle cx="904.383" cy="100.333" r="1.08869" transform="rotate(2.41818 904.383 100.333)" fill="#88BAFF" fill-opacity="0.6"/>
<circle cx="969.705" cy="153.099" r="6.72316" transform="rotate(179.483 969.705 153.099)" fill="#88BAFF"/>
<ellipse cx="884.903" cy="88.6152" rx="5.80633" ry="5.44343" transform="rotate(2.41818 884.903 88.6152)" fill="#88BAFF" fill-opacity="0.6"/>
<circle cx="874.378" cy="79.814" r="3.62896" transform="rotate(2.41818 874.378 79.814)" fill="#88BAFF" fill-opacity="0.6"/>
<circle cx="899.84" cy="173.512" r="4.71764" transform="rotate(2.41818 899.84 173.512)" fill="#88BAFF"/>
<ellipse cx="894.983" cy="185.29" rx="3.26606" ry="2.90316" transform="rotate(2.41818 894.983 185.29)" fill="#88BAFF"/>
<ellipse cx="895.18" cy="189.293" rx="2.17737" ry="1.81448" transform="rotate(2.41818 895.18 189.293)" fill="#88BAFF"/>
<circle cx="954.388" cy="121.365" r="2.98807" transform="rotate(179.483 954.388 121.365)" fill="#88BAFF" fill-opacity="0.7"/>
<circle cx="955.743" cy="93.1689" r="1.71976" transform="rotate(179.483 955.743 93.1689)" fill="#88BAFF"/>
<circle cx="1002.98" cy="159.409" r="4.51096" transform="rotate(179.483 1002.98 159.409)" fill="#88BAFF"/>
<circle cx="1004.43" cy="154.744" r="3.56982" transform="rotate(179.483 1004.43 154.744)" fill="#88BAFF"/>
<circle cx="1000.45" cy="141.331" r="2.28731" transform="rotate(179.483 1000.45 141.331)" fill="#88BAFF" fill-opacity="0.7"/>
<circle cx="844.069" cy="251.139" r="2.98807" transform="rotate(2.41818 844.069 251.139)" fill="#88BAFF"/>
<circle cx="846.537" cy="254.601" r="1.86754" transform="rotate(2.41818 846.537 254.601)" fill="#88BAFF"/>
<circle cx="852.486" cy="255.608" r="1.12053" transform="rotate(2.41818 852.486 255.608)" fill="#88BAFF"/>
<circle cx="995.676" cy="175.649" r="2.61456" transform="rotate(179.483 995.676 175.649)" fill="#88BAFF"/>
<ellipse cx="848.374" cy="222.551" rx="3.26606" ry="3.62896" transform="rotate(2.41818 848.374 222.551)" fill="#88BAFF"/>
<ellipse cx="851.415" cy="210.694" rx="2.17737" ry="1.81448" transform="rotate(2.41818 851.415 210.694)" fill="#88BAFF"/>
<circle cx="1035.98" cy="190.629" r="1.59007" transform="rotate(179.483 1035.98 190.629)" fill="#88BAFF"/>
<ellipse cx="1059.47" cy="143.568" rx="3.26606" ry="2.90316" transform="rotate(2.41818 1059.47 143.568)" fill="#88BAFF" fill-opacity="0.75"/>
</g>
<g clip-path="url(#clip2_1094_5492)">
<path d="M704.64 118.738L731.341 49.4395H743.431L769.467 118.755H757.621L753.929 108.562H720.51L716.731 118.755H704.64V118.738ZM750.325 98.7026L737.395 63.071L724.202 98.7026H750.325Z" fill="white"/>
<path d="M774.173 49.4395H792.073C807.523 49.4395 815.256 55.2465 815.256 67.7903C815.256 74.5272 812.142 79.3342 807.033 81.5973C814.679 83.6149 819.123 89.9307 819.123 97.843C819.123 111.404 810.392 118.738 791.495 118.738H774.191V49.4395H774.173ZM792.318 77.9833C800.121 77.9833 804.408 75.457 804.408 68.8956C804.408 61.8254 800.296 59.3868 792.318 59.3868H785.091V78.0009H792.318V77.9833ZM791.233 108.124C802.326 108.124 807.435 105.597 807.435 97.7728C807.435 90.3693 802.396 87.2465 792.318 87.2465H785.091V108.141H791.215L791.233 108.124Z" fill="white"/>
<path d="M858.754 120C837.845 120 822.797 103.246 822.797 83.9474C822.797 64.6491 837.845 48 858.754 48C879.663 48 894.623 64.7544 894.623 83.9649C894.623 103.175 879.593 120.018 858.754 120.018V120ZM858.754 108.474C872.611 108.474 883.11 97.4386 883.11 83.9649C883.11 70.4912 872.611 59.5439 858.754 59.5439C844.896 59.5439 834.31 70.4912 834.31 83.9649C834.31 97.4386 844.809 108.474 858.754 108.474Z" fill="white"/>
<path d="M901.761 92.2991V49.4395H913.274V92.65C913.274 101.492 916.809 108.65 926.38 108.65C935.95 108.65 939.572 101.492 939.572 92.65V49.4395H951.085V92.2991C951.085 108.545 942.179 119.843 926.397 119.843C910.615 119.843 901.779 108.475 901.779 92.2991H901.761Z" fill="white"/>
<path d="M971.539 60.2988H956.422V49.2637H998.17V60.2988H983.052V118.755H971.539V60.2988Z" fill="white"/>
<path d="M1026.9 49.2637H1040.01C1066.22 49.2637 1077.71 65.0181 1077.71 83.8777C1077.71 102.737 1066.2 118.737 1040.01 118.737H1026.9V49.2637ZM1041.25 107.123C1058.13 107.123 1066.11 97.0181 1066.11 83.8777C1066.11 70.7374 1058.13 60.8075 1041.25 60.8075H1038.4V107.123H1041.25Z" fill="white"/>
<path d="M1085.43 49.3516H1100.72C1122.47 49.3516 1130.45 62.0709 1130.45 75.8779C1130.45 89.6849 1122.14 102.404 1101.98 102.404H1096.94V118.825H1085.43V49.3516ZM1102.49 91.2112C1113.4 91.2112 1119.2 84.9831 1119.2 75.8779C1119.2 66.7726 1113.23 60.6323 1102.49 60.6323H1096.94V91.2112H1102.49Z" fill="white"/>
<path d="M1137.5 49.4395H1152.28L1176.64 105.282L1200.66 49.4395H1215.36V118.755H1203.85V68.3868L1181.84 118.755H1171.25L1148.99 68.1412V118.755H1137.48V49.4395H1137.5Z" fill="white"/>
</g>
</g>
<defs>
<filter id="filter0_f_1094_5492" x="144.6" y="-293.4" width="1497.8" height="1344.8" filterUnits="userSpaceOnUse" color-interpolation-filters="sRGB">
<feFlood flood-opacity="0" result="BackgroundImageFix"/>
<feBlend mode="normal" in="SourceGraphic" in2="BackgroundImageFix" result="shape"/>
<feGaussianBlur stdDeviation="102.7" result="effect1_foregroundBlur_1094_5492"/>
</filter>
<linearGradient id="paint0_linear_1094_5492" x1="893.5" y1="7" x2="893.5" y2="846" gradientUnits="userSpaceOnUse">
<stop stop-color="#1A1D3F" stop-opacity="0.55"/>
<stop offset="1" stop-color="#2D336E"/>
</linearGradient>
<clipPath id="clip0_1094_5492">
<rect width="1920" height="301" fill="white"/>
</clipPath>
<clipPath id="clip1_1094_5492">
<rect width="1920" height="301" fill="white"/>
</clipPath>
<clipPath id="clip2_1094_5492">
<rect width="510.72" height="72" fill="white" transform="translate(704.64 48)"/>
</clipPath>
</defs>
</svg>
