<svg width="360" height="180" viewBox="0 0 360 180" fill="none" xmlns="http://www.w3.org/2000/svg">
<g clip-path="url(#clip0_1094_5495)">
<rect width="360" height="180" fill="black"/>
<g filter="url(#filter0_f_1094_5495)">
<path d="M-116.485 255.366L-182 -4.81628L460.424 -40L429.064 105.761L284.06 312.724V493.669L104.902 512L-9.67264 340.221L-116.485 255.366Z" fill="url(#paint0_linear_1094_5495)"/>
</g>
<ellipse cx="178.266" cy="119.529" rx="5.94041" ry="6.31168" transform="rotate(2.41818 178.266 119.529)" fill="#FFE6FF" fill-opacity="0.2"/>
<ellipse cx="347.303" cy="114.611" rx="8.53934" ry="8.91061" transform="rotate(2.41818 347.303 114.611)" fill="#88BAFF" fill-opacity="0.1"/>
<circle cx="1.35719" cy="61.355" r="14.851" transform="rotate(2.41818 1.35719 61.355)" fill="#FFE6FF" fill-opacity="0.1"/>
<ellipse cx="-2.96951" cy="172.655" rx="3.34148" ry="3.71276" transform="rotate(2.41818 -2.96951 172.655)" fill="#FFE6FF" fill-opacity="0.1"/>
<ellipse cx="220.743" cy="63.1884" rx="2.97021" ry="3.34148" transform="rotate(2.41818 220.743 63.1884)" fill="#FFE6FF" fill-opacity="0.2"/>
<circle cx="229.362" cy="72.9672" r="5.19786" transform="rotate(2.41818 229.362 72.9672)" fill="#FFE6FF" fill-opacity="0.2"/>
<circle cx="238.618" cy="51.4816" r="2.97021" transform="rotate(2.41818 238.618 51.4816)" fill="#FFE6FF" fill-opacity="0.2"/>
<rect x="142.997" y="87.8828" width="113.48" height="81.1515" rx="19" transform="rotate(19.8569 142.997 87.8828)" fill="#006AFE"/>
<circle cx="169.072" cy="181.806" r="7.05089" transform="rotate(19.8569 169.072 181.806)" fill="#4C97FF"/>
<path d="M105.5 160.625L232.09 206.342C229.491 213.539 221.55 217.267 214.353 214.668L113.825 178.363C106.628 175.763 102.901 167.822 105.5 160.625Z" fill="#006AFE"/>
<rect x="150.13" y="103.09" width="89.7285" height="57.3999" transform="rotate(19.8569 150.13 103.09)" fill="black"/>
<path d="M207.419 154.229L191.519 161.692L189.485 157.308L201.02 151.919L195.61 140.442L199.956 138.329L207.419 154.229Z" fill="white"/>
<path d="M194.923 133.087L175.653 159.373L171.163 157.751L190.462 131.476L194.923 133.087Z" fill="white"/>
<path d="M158.858 136.691L174.759 129.228L176.752 133.631L165.257 139.002L170.686 150.518L166.321 152.591L158.858 136.691Z" fill="white"/>
<ellipse cx="111.979" cy="162.168" rx="5.14737" ry="5.36184" transform="rotate(2.41818 111.979 162.168)" fill="#88BAFF"/>
<circle cx="201.97" cy="107.406" r="5.29791" transform="rotate(179.483 201.97 107.406)" fill="#88BAFF"/>
<circle cx="240.335" cy="153.248" r="2.96073" transform="rotate(-92.1165 240.335 153.248)" fill="#88BAFF"/>
<circle cx="209.102" cy="110.553" r="4.22392" transform="rotate(179.483 209.102 110.553)" fill="#88BAFF"/>
<circle cx="238.689" cy="157.282" r="2.36054" transform="rotate(-92.1165 238.689 157.282)" fill="#88BAFF"/>
<circle cx="241.018" cy="162.681" r="1.44101" transform="rotate(-92.1165 241.018 162.681)" fill="#88BAFF"/>
<circle cx="165.836" cy="82.7031" r="3.98141" transform="rotate(179.483 165.836 82.7031)" fill="#88BAFF" fill-opacity="0.7"/>
<circle cx="170.109" cy="95.2853" r="6.84313" transform="rotate(179.483 170.109 95.2853)" fill="#88BAFF"/>
<circle cx="105.184" cy="99.4129" r="0.857894" transform="rotate(2.41818 105.184 99.4129)" fill="#88BAFF"/>
<circle cx="105.094" cy="101.556" r="1.71579" transform="rotate(2.41818 105.094 101.556)" fill="#88BAFF"/>
<ellipse cx="101.308" cy="165.796" rx="3.2171" ry="3.00263" transform="rotate(2.41818 101.308 165.796)" fill="#88BAFF"/>
<circle cx="152.187" cy="90.3712" r="3.97343" transform="rotate(179.483 152.187 90.3712)" fill="#88BAFF"/>
<circle cx="147.099" cy="89.7559" r="2.8697" transform="rotate(179.483 147.099 89.7559)" fill="#88BAFF"/>
<circle cx="105.319" cy="162.316" r="3.64605" transform="rotate(2.41818 105.319 162.316)" fill="#88BAFF"/>
<ellipse cx="97.7647" cy="163.283" rx="1.71579" ry="1.50132" transform="rotate(2.41818 97.7647 163.283)" fill="#88BAFF"/>
<ellipse cx="127.578" cy="179.142" rx="1.71579" ry="1.93026" transform="rotate(2.41818 127.578 179.142)" fill="#88BAFF"/>
<ellipse cx="104.279" cy="171.716" rx="1.28684" ry="1.50132" transform="rotate(2.41818 104.279 171.716)" fill="#88BAFF"/>
<circle cx="186.717" cy="101.098" r="0.882984" transform="rotate(179.483 186.717 101.098)" fill="#88BAFF"/>
<circle cx="186.922" cy="99.1075" r="1.54522" transform="rotate(179.483 186.922 99.1075)" fill="#88BAFF"/>
<circle cx="141.493" cy="93.6496" r="4.71842" transform="rotate(2.41818 141.493 93.6496)" fill="#88BAFF"/>
<circle cx="100.353" cy="183.358" r="3.43158" transform="rotate(2.41818 100.353 183.358)" fill="#88BAFF"/>
<circle cx="137.772" cy="85.1201" r="2.78816" transform="rotate(2.41818 137.772 85.1201)" fill="#88BAFF"/>
<circle cx="138.143" cy="81.4859" r="1.71579" transform="rotate(2.41818 138.143 81.4859)" fill="#88BAFF"/>
<ellipse cx="136.232" cy="75.8255" rx="1.28684" ry="0.857894" transform="rotate(2.41818 136.232 75.8255)" fill="#88BAFF" fill-opacity="0.6"/>
<ellipse cx="140.831" cy="63.567" rx="0.643421" ry="0.428947" transform="rotate(2.41818 140.831 63.567)" fill="#88BAFF" fill-opacity="0.6"/>
<circle cx="139.643" cy="61.1563" r="0.643421" transform="rotate(2.41818 139.643 61.1563)" fill="#88BAFF" fill-opacity="0.6"/>
<circle cx="178.249" cy="92.3419" r="3.97343" transform="rotate(179.483 178.249 92.3419)" fill="#88BAFF"/>
<ellipse cx="128.13" cy="54.2321" rx="3.43158" ry="3.2171" transform="rotate(2.41818 128.13 54.2321)" fill="#88BAFF" fill-opacity="0.6"/>
<circle cx="121.91" cy="49.0302" r="2.14474" transform="rotate(2.41818 121.91 49.0302)" fill="#88BAFF" fill-opacity="0.6"/>
<circle cx="136.958" cy="104.405" r="2.78816" transform="rotate(2.41818 136.958 104.405)" fill="#88BAFF"/>
<ellipse cx="134.088" cy="111.368" rx="1.93026" ry="1.71579" transform="rotate(2.41818 134.088 111.368)" fill="#88BAFF"/>
<ellipse cx="134.204" cy="113.733" rx="1.28684" ry="1.07237" transform="rotate(2.41818 134.204 113.733)" fill="#88BAFF"/>
<circle cx="169.197" cy="73.5879" r="1.76597" transform="rotate(179.483 169.197 73.5879)" fill="#88BAFF" fill-opacity="0.7"/>
<circle cx="169.997" cy="56.9225" r="1.01639" transform="rotate(179.483 169.997 56.9225)" fill="#88BAFF"/>
<circle cx="197.912" cy="96.071" r="2.66601" transform="rotate(179.483 197.912 96.071)" fill="#88BAFF"/>
<circle cx="198.773" cy="93.3136" r="2.10979" transform="rotate(179.483 198.773 93.3136)" fill="#88BAFF"/>
<circle cx="196.418" cy="85.387" r="1.35182" transform="rotate(179.483 196.418 85.387)" fill="#88BAFF" fill-opacity="0.7"/>
<circle cx="103.997" cy="150.284" r="1.76597" transform="rotate(2.41818 103.997 150.284)" fill="#88BAFF"/>
<circle cx="105.455" cy="152.331" r="1.10373" transform="rotate(2.41818 105.455 152.331)" fill="#88BAFF"/>
<circle cx="108.972" cy="152.926" r="0.662238" transform="rotate(2.41818 108.972 152.926)" fill="#88BAFF"/>
<circle cx="193.598" cy="105.67" r="1.54522" transform="rotate(179.483 193.598 105.67)" fill="#88BAFF"/>
<ellipse cx="106.541" cy="133.388" rx="1.93026" ry="2.14474" transform="rotate(2.41818 106.541 133.388)" fill="#88BAFF"/>
<ellipse cx="108.339" cy="126.38" rx="1.28684" ry="1.07237" transform="rotate(2.41818 108.339 126.38)" fill="#88BAFF"/>
<circle cx="217.418" cy="114.524" r="0.93974" transform="rotate(179.483 217.418 114.524)" fill="#88BAFF"/>
<ellipse cx="231.299" cy="86.7078" rx="1.93026" ry="1.71579" transform="rotate(2.41818 231.299 86.7078)" fill="#88BAFF" fill-opacity="0.75"/>
</g>
<g clip-path="url(#clip1_1094_5495)">
<path d="M46 68.3518L60.011 32.7402H66.3555L80.0176 68.3609H73.8017L71.8644 63.1228H54.3277L52.3444 68.3609H46V68.3518ZM69.973 58.056L63.1878 39.7454L56.265 58.056H69.973Z" fill="white"/>
<path d="M82.4873 32.7402H91.88C99.9873 32.7402 104.046 35.7244 104.046 42.1705C104.046 45.6325 102.411 48.1028 99.7302 49.2658C103.743 50.3026 106.075 53.5482 106.075 57.6143C106.075 64.5833 101.493 68.3518 91.577 68.3518H82.4965V32.7402H82.4873ZM92.0086 47.4086C96.1035 47.4086 98.353 46.1104 98.353 42.7385C98.353 39.1052 96.1953 37.8521 92.0086 37.8521H88.2166V47.4176H92.0086V47.4086ZM91.4393 62.8974C97.2604 62.8974 99.9414 61.5992 99.9414 57.5782C99.9414 53.7736 97.2971 52.1688 92.0086 52.1688H88.2166V62.9064H91.4301L91.4393 62.8974Z" fill="white"/>
<path d="M126.871 69C115.899 69 108.003 60.3901 108.003 50.473C108.003 40.5558 115.899 32 126.871 32C137.843 32 145.693 40.6099 145.693 50.482C145.693 60.354 137.806 69.009 126.871 69.009V69ZM126.871 63.0768C134.143 63.0768 139.652 57.4059 139.652 50.482C139.652 43.558 134.143 37.9323 126.871 37.9323C119.599 37.9323 114.044 43.558 114.044 50.482C114.044 57.4059 119.553 63.0768 126.871 63.0768Z" fill="white"/>
<path d="M149.439 54.7653V32.7402H155.481V54.9456C155.481 59.4895 157.336 63.1679 162.358 63.1679C167.38 63.1679 169.281 59.4895 169.281 54.9456V32.7402H175.322V54.7653C175.322 63.1138 170.649 68.9198 162.367 68.9198C154.085 68.9198 149.449 63.0777 149.449 54.7653H149.439Z" fill="white"/>
<path d="M186.055 38.3192H178.123V32.6484H200.03V38.3192H192.097V68.3592H186.055V38.3192Z" fill="white"/>
<path d="M215.106 32.6484H221.983C235.737 32.6484 241.769 40.7444 241.769 50.4362C241.769 60.128 235.727 68.3502 221.983 68.3502H215.106V32.6484ZM222.635 62.3819C231.495 62.3819 235.682 57.1889 235.682 50.4362C235.682 43.6835 231.495 38.5807 222.635 38.5807H221.138V62.3819H222.635Z" fill="white"/>
<path d="M245.818 32.6934H253.843C265.255 32.6934 269.442 39.2297 269.442 46.3249C269.442 53.4202 265.081 59.9565 254.504 59.9565H251.859V68.3951H245.818V32.6934ZM254.77 54.2046C260.499 54.2046 263.538 51.004 263.538 46.3249C263.538 41.6458 260.407 38.4904 254.77 38.4904H251.859V54.2046H254.77Z" fill="white"/>
<path d="M273.142 32.7402H280.901L293.681 61.4369L306.288 32.7402H314V68.3609H307.959V42.4771L296.408 68.3609H290.853L279.175 42.3509V68.3609H273.133V32.7402H273.142Z" fill="white"/>
</g>
<defs>
<filter id="filter0_f_1094_5495" x="-387.4" y="-245.4" width="1053.22" height="962.8" filterUnits="userSpaceOnUse" color-interpolation-filters="sRGB">
<feFlood flood-opacity="0" result="BackgroundImageFix"/>
<feBlend mode="normal" in="SourceGraphic" in2="BackgroundImageFix" result="shape"/>
<feGaussianBlur stdDeviation="102.7" result="effect1_foregroundBlur_1094_5495"/>
</filter>
<linearGradient id="paint0_linear_1094_5495" x1="139.212" y1="16.1456" x2="139.212" y2="512" gradientUnits="userSpaceOnUse">
<stop stop-color="#1A1D3F" stop-opacity="0.55"/>
<stop offset="1" stop-color="#2D336E"/>
</linearGradient>
<clipPath id="clip0_1094_5495">
<rect width="360" height="180" fill="white"/>
</clipPath>
<clipPath id="clip1_1094_5495">
<rect width="268" height="37" fill="white" transform="translate(46 32)"/>
</clipPath>
</defs>
</svg>
