<svg width="292" height="292" viewBox="0 0 292 292" fill="none" xmlns="http://www.w3.org/2000/svg">
<path d="M145.996 292C226.63 292 291.996 226.634 291.996 146C291.996 65.3664 226.63 0 145.996 0C65.3625 0 -0.00390625 65.3664 -0.00390625 146C-0.00390625 226.634 65.3625 292 145.996 292Z" fill="black"/>
<path d="M145.999 283.21C221.777 283.21 283.208 221.779 283.208 146.001C283.208 70.2218 221.777 8.79102 145.999 8.79102C70.2199 8.79102 8.78906 70.2218 8.78906 146.001C8.78906 221.779 70.2199 283.21 145.999 283.21Z" fill="white"/>
<path d="M149.449 144.313L273.155 93.1914C277.36 103.97 282.462 120.834 283.054 141.982C283.71 165.393 278.561 184.075 274.461 195.435C232.788 178.392 191.121 161.355 149.449 144.313Z" fill="#F4F4F4"/>
<path d="M141.09 17.3484H138.441V15.7113C140.252 15.5774 141.334 14.8481 141.8 14.0098H143.437V29.4774H141.095V17.3484H141.09Z" fill="black"/>
<path d="M145.707 25.9904V17.5075C145.707 15.3 147.185 13.7969 149.398 13.7969C151.61 13.7969 153.064 15.3 153.064 17.5075V18.0135H150.812V17.3934C150.812 16.5551 150.261 15.9995 149.418 15.9995C148.574 15.9995 148.049 16.5501 148.049 17.3934V20.9304C148.401 20.355 149.175 19.8242 150.325 19.8242C152.116 19.8242 153.178 21.0594 153.178 22.9842V25.9904C153.178 28.1979 151.675 29.7011 149.467 29.7011C147.26 29.7011 145.712 28.1979 145.712 25.9904H145.707ZM150.832 26.0996V23.3364C150.832 22.3839 150.345 21.9424 149.552 21.9424C148.624 21.9424 148.049 22.5179 148.049 23.4902V26.0996C148.049 26.9379 148.579 27.4935 149.462 27.4935C150.345 27.4935 150.832 26.9429 150.832 26.0996Z" fill="black"/>
<path d="M92.3021 28.9922L89.8515 30.0042L89.2264 28.4961C90.8486 27.6826 91.5729 26.5912 91.6771 25.6387L93.1901 25.0137L99.1083 39.3056L96.9454 40.2035L92.3021 28.9972V28.9922Z" fill="black"/>
<path d="M99.7979 35.1876L99.6194 34.761L101.619 33.6944L101.812 34.1657C102.283 35.3066 102.963 35.5547 103.757 35.2223C104.55 34.8899 104.858 34.2401 104.466 33.3025L103.097 29.9937C102.75 29.1553 102.13 28.937 101.44 29.2248C100.666 29.5472 100.314 30.3112 100.676 31.1892L100.775 31.4323L98.6917 32.2955L95.3085 24.1301L101.495 21.5703L102.338 23.6141L98.2353 25.3157L99.7087 28.8676C99.788 28.188 100.359 27.3794 101.341 26.9726C102.953 26.3029 104.406 27.042 105.126 28.7783L106.614 32.3699C107.512 34.5328 106.768 36.3732 104.645 37.2513C102.521 38.1293 100.696 37.3554 99.7979 35.1926V35.1876Z" fill="black"/>
<path d="M51.6248 58.4488L49.7496 60.324L48.5938 59.1681C49.7794 57.794 50.0324 56.5141 49.7645 55.5914L50.9203 54.4355L61.8588 65.374L60.2019 67.0309L51.6248 58.4538V58.4488Z" fill="black"/>
<path d="M66.6038 56.0576L65.7158 56.9456L67.9977 59.2275L66.3408 60.8844L64.0589 58.6025L60.8245 61.8369L59.3412 60.3536L55.0898 50.2585L57.0593 48.2891L64.1532 55.3829L65.0461 54.49L66.6087 56.0526L66.6038 56.0576ZM62.4963 57.0398L58.2002 52.7438L60.8245 58.7116L62.4963 57.0398Z" fill="black"/>
<path d="M25.3362 101.1L24.3242 103.551L22.8112 102.925C23.3817 101.199 23.1237 99.9193 22.5234 99.1702L23.1485 97.6621L37.4404 103.58L36.5425 105.743L25.3362 101.1Z" fill="black"/>
<path d="M36.3746 93.0443L37.6992 93.595C39.862 94.4929 40.6756 96.3383 39.7827 98.5011C38.8848 100.664 37.0047 101.393 34.8418 100.495L34.4151 100.317L35.0749 98.1489L35.5462 98.3424C36.6872 98.8137 37.3817 98.5309 37.7289 97.6925C38.0762 96.8542 37.7885 96.1646 36.8509 95.7727L35.3626 95.1576C34.2217 94.6814 33.5272 94.9691 33.0509 96.115L32.6938 96.9732L30.6499 96.1299L30.9476 95.4156C31.4188 94.2746 31.1361 93.5801 29.9901 93.1038L28.8889 92.6475C28.0505 92.3002 27.4155 92.5631 27.098 93.337C26.7805 94.1109 27.0385 94.7459 28.0803 95.1774L28.4077 95.3114L27.5445 97.3949L27.0534 97.1915C24.9897 96.3383 24.2009 94.5524 25.074 92.449C25.9471 90.3457 27.7677 89.6412 29.8314 90.4945L30.769 90.8814C32.0538 91.4122 32.7731 92.3349 32.8723 93.5454C33.8397 92.6524 35.0352 92.4788 36.3846 93.0394L36.3746 93.0443Z" fill="black"/>
<path d="M17.3464 150.643V153.292H15.7093C15.5754 151.482 14.8462 150.4 14.0078 149.934V148.297H29.4754V150.638H17.3464V150.643Z" fill="black"/>
<path d="M27.2671 143.615V138.977H29.4747V146.403H27.4408L21.9839 142.98C19.95 141.7 18.8884 141.323 17.6978 141.323C16.6164 141.323 16.0211 141.829 16.0211 142.737C16.0211 143.645 16.6164 144.151 17.6978 144.151H18.6057V146.403H17.8764C15.3564 146.403 13.8086 145.034 13.8086 142.712C13.8086 140.39 15.2472 138.977 17.6333 138.977C19.3101 138.977 20.6842 139.483 23.1795 141.055L27.2671 143.62V143.615Z" fill="black"/>
<path d="M28.5565 198.648L29.5685 201.099L28.0604 201.724C27.2469 200.101 26.1555 199.377 25.203 199.273L24.578 197.76L38.8699 191.842L39.7678 194.005L28.5615 198.648H28.5565Z" fill="black"/>
<path d="M25.9082 192.259L26.9252 194.71L25.4121 195.335C24.5986 193.713 23.5072 192.989 22.5547 192.884L21.9297 191.371L36.2216 185.453L37.1195 187.616L25.9132 192.259H25.9082Z" fill="black"/>
<path d="M58.5797 240.519L60.4548 242.394L59.299 243.55C57.9248 242.365 56.645 242.112 55.7223 242.379L54.5664 241.224L65.5049 230.285L67.1618 231.942L58.5846 240.519H58.5797Z" fill="black"/>
<path d="M61.4074 231.162L55.4396 237.13C53.8621 238.708 51.7388 238.708 50.1415 237.115C48.5491 235.523 48.5491 233.395 50.1266 231.817L56.0944 225.849C57.6719 224.272 59.7951 224.272 61.3925 225.864C62.9849 227.457 62.9849 229.585 61.4074 231.162ZM57.7513 227.506L51.7835 233.474C51.0939 234.159 51.094 234.942 51.7041 235.552C52.3143 236.163 53.0931 236.163 53.7827 235.473L59.7505 229.505C60.44 228.816 60.44 228.037 59.8298 227.427C59.2197 226.817 58.4408 226.817 57.7513 227.506Z" fill="black"/>
<path d="M93.6626 263.416L96.9118 255.578C97.7552 253.534 99.6998 252.716 101.744 253.559C103.787 254.407 104.556 256.352 103.713 258.391L103.52 258.862L101.436 257.999L101.674 257.428C101.997 256.654 101.694 255.93 100.92 255.608C100.146 255.285 99.4418 255.593 99.1244 256.372L97.7701 259.636C98.3157 259.239 99.2335 259.046 100.295 259.487C101.947 260.172 102.453 261.719 101.719 263.495L100.568 266.273C99.7246 268.312 97.7601 269.126 95.7163 268.282C93.6328 267.419 92.8192 265.455 93.6675 263.416H93.6626ZM98.3554 265.48L99.4121 262.93C99.7742 262.052 99.4964 261.456 98.7622 261.154C97.904 260.797 97.1549 261.109 96.7829 262.007L95.7858 264.418C95.4633 265.192 95.7411 265.906 96.5596 266.244C97.3335 266.566 98.0379 266.258 98.3554 265.48Z" fill="black"/>
<path d="M142.109 267.538V266.105C142.109 263.763 143.503 262.305 145.999 262.305C148.494 262.305 149.888 263.763 149.888 266.105V267.538C149.888 268.997 149.268 270.034 148.166 270.564C149.159 271.115 149.734 272.132 149.734 273.546V274.563C149.734 276.795 148.385 278.209 145.999 278.209C143.612 278.209 142.263 276.795 142.263 274.563V273.546C142.263 272.132 142.839 271.115 143.831 270.564C142.725 270.034 142.109 268.997 142.109 267.538ZM144.451 267.672C144.451 268.907 144.982 269.438 145.999 269.438C147.016 269.438 147.546 268.907 147.546 267.672V266.06C147.546 265.043 147.016 264.512 145.999 264.512C144.982 264.512 144.451 265.043 144.451 266.06V267.672ZM147.388 273.417C147.388 272.182 146.857 271.651 145.994 271.651C145.13 271.651 144.6 272.182 144.6 273.417V274.612C144.6 275.52 145.086 276.006 145.994 276.006C146.901 276.006 147.388 275.52 147.388 274.612V273.417Z" fill="black"/>
<path d="M193.256 269.284L192.477 267.404L190.766 253.573L193.013 252.641L194.496 266.327L198.966 264.477L199.829 266.561L193.256 269.284Z" fill="black"/>
<path d="M233.42 228.288L239.418 234.286C240.98 235.849 240.995 237.957 239.432 239.519C237.87 241.082 235.776 241.052 234.214 239.49L233.857 239.133L235.449 237.54L235.886 237.977C236.481 238.572 237.26 238.572 237.855 237.977C238.45 237.381 238.435 236.617 237.84 236.022L235.34 233.522C235.499 234.177 235.325 235.099 234.511 235.913C233.246 237.178 231.619 237.054 230.26 235.695L228.137 233.572C226.574 232.009 226.574 229.886 228.137 228.323C229.729 226.731 231.857 226.731 233.42 228.293V228.288ZM229.719 231.835L231.674 233.79C232.344 234.46 233.003 234.43 233.564 233.869C234.219 233.214 234.219 232.401 233.534 231.711L231.689 229.866C231.093 229.271 230.329 229.256 229.704 229.881C229.109 230.476 229.124 231.24 229.719 231.835Z" fill="black"/>
<path d="M258.303 188.614L258.73 188.792L258.07 190.96L257.599 190.767C256.458 190.296 255.803 190.598 255.475 191.392C255.148 192.186 255.391 192.865 256.329 193.252L259.637 194.621C260.476 194.969 261.066 194.686 261.354 193.996C261.676 193.222 261.384 192.429 260.506 192.067L260.262 191.967L261.126 189.884L269.291 193.267L266.731 199.453L264.687 198.61L266.389 194.507L262.837 193.034C263.259 193.57 263.432 194.547 263.026 195.529C262.356 197.141 260.808 197.647 259.072 196.928L255.48 195.44C253.317 194.542 252.543 192.716 253.422 190.593C254.3 188.47 256.14 187.726 258.303 188.624V188.614Z" fill="black"/>
<path d="M265.744 150.113V148.853H262.519V146.511H265.744V141.938H267.842L277.982 146.07V148.853H267.951V150.113H265.744ZM267.951 146.511H274.028L267.951 144.145V146.511Z" fill="black"/>
<path d="M259.668 102.833L258.343 103.383C256.18 104.281 254.3 103.552 253.402 101.389C252.504 99.2262 253.323 97.3808 255.486 96.4829L255.912 96.3044L256.979 98.3035L256.508 98.497C255.367 98.9683 255.079 99.6628 255.426 100.501C255.773 101.34 256.468 101.622 257.406 101.235L258.894 100.62C260.035 100.149 260.322 99.4544 259.851 98.3135L259.494 97.4553L261.538 96.607L261.835 97.3213C262.307 98.4623 263.001 98.75 264.147 98.2787L265.248 97.8223C266.087 97.4751 266.35 96.8401 266.027 96.0662C265.705 95.2924 265.07 95.0294 264.028 95.4561L263.701 95.59L262.838 93.5065L263.329 93.3031C265.392 92.4498 267.213 93.1543 268.081 95.2576C268.954 97.361 268.16 99.1469 266.102 100L265.164 100.387C263.879 100.918 262.718 100.779 261.796 99.9902C261.741 101.305 261.022 102.272 259.673 102.833H259.668Z" fill="black"/>
<path d="M229.27 61.3755L232.549 64.6546L230.987 66.2172L225.738 60.9687L227.177 59.5301L233.457 58.0915C235.799 57.5607 236.816 57.0745 237.659 56.2312C238.423 55.4673 238.487 54.6835 237.848 54.0435C237.208 53.4036 236.424 53.4631 235.66 54.232L235.02 54.872L233.427 53.2796L233.943 52.7636C235.724 50.9827 237.788 50.8587 239.43 52.4958C241.072 54.1378 241.052 56.1518 239.365 57.8385C238.18 59.0241 236.85 59.6343 233.973 60.2941L229.27 61.3705V61.3755Z" fill="black"/>
<path d="M195.021 27.0521L192.571 26.0351L193.196 24.5221C194.922 25.0926 196.202 24.8346 196.951 24.2344L198.464 24.8594L192.546 39.1464L190.383 38.2485L195.026 27.0422L195.021 27.0521Z" fill="black"/>
<path d="M145.998 147.254C147.546 147.254 148.801 145.999 148.801 144.451C148.801 142.903 147.546 141.648 145.998 141.648C144.45 141.648 143.195 142.903 143.195 144.451C143.195 145.999 144.45 147.254 145.998 147.254Z" fill="black"/>
<path d="M132.562 163.317H145.874V164.821H132.562V163.317ZM138.242 161.669H140.146V163.765H138.242V161.669ZM134.226 157.653H144.178V162.229H134.226V157.653ZM142.306 159.125H136.098V160.757H142.306V159.125ZM134.114 165.701H144.226V169.349H136.002V170.789H134.13V168.021H142.354V167.109H134.114V165.701ZM134.13 170.357H144.626V171.797H134.13V170.357ZM156.913 157.205H158.833V165.109H156.913V157.205ZM149.137 165.781H151.009V167.253H156.945V165.781H158.833V171.749H149.137V165.781ZM151.009 168.725V170.229H156.945V168.725H151.009ZM150.849 157.829C151.606 157.829 152.284 157.978 152.881 158.277C153.478 158.565 153.948 158.97 154.289 159.493C154.63 160.005 154.801 160.602 154.801 161.285C154.801 161.957 154.63 162.554 154.289 163.077C153.948 163.599 153.478 164.01 152.881 164.309C152.284 164.597 151.606 164.741 150.849 164.741C150.092 164.741 149.414 164.597 148.817 164.309C148.22 164.01 147.75 163.599 147.409 163.077C147.068 162.554 146.897 161.957 146.897 161.285C146.897 160.602 147.068 160.005 147.409 159.493C147.75 158.97 148.22 158.565 148.817 158.277C149.414 157.978 150.092 157.829 150.849 157.829ZM150.849 159.397C150.444 159.397 150.081 159.477 149.761 159.637C149.452 159.786 149.206 160.005 149.025 160.293C148.844 160.57 148.753 160.901 148.753 161.285C148.753 161.669 148.844 162.005 149.025 162.293C149.206 162.57 149.452 162.783 149.761 162.933C150.081 163.082 150.444 163.157 150.849 163.157C151.254 163.157 151.612 163.082 151.921 162.933C152.241 162.783 152.492 162.57 152.673 162.293C152.854 162.005 152.945 161.669 152.945 161.285C152.945 160.901 152.854 160.57 152.673 160.293C152.492 160.005 152.241 159.786 151.921 159.637C151.612 159.477 151.254 159.397 150.849 159.397Z" fill="black"/>
<path d="M108.586 109.657H114.298C116.157 109.657 117.551 110.156 118.48 111.153C119.41 112.15 119.874 113.612 119.874 115.539V127.575C119.874 129.502 119.41 130.964 118.48 131.961C117.551 132.958 116.157 133.457 114.298 133.457H108.586V109.657ZM114.23 130.057C114.842 130.057 115.307 129.876 115.624 129.513C115.964 129.15 116.134 128.561 116.134 127.745V115.369C116.134 114.553 115.964 113.964 115.624 113.601C115.307 113.238 114.842 113.057 114.23 113.057H112.326V130.057H114.23ZM122.399 109.657H126.139V133.457H122.399V109.657ZM134.244 133.797C132.431 133.797 131.048 133.287 130.096 132.267C129.144 131.224 128.668 129.74 128.668 127.813V115.301C128.668 113.374 129.144 111.901 130.096 110.881C131.048 109.838 132.431 109.317 134.244 109.317C136.057 109.317 137.44 109.838 138.392 110.881C139.344 111.901 139.82 113.374 139.82 115.301V117.341H136.284V115.063C136.284 113.499 135.638 112.717 134.346 112.717C133.054 112.717 132.408 113.499 132.408 115.063V128.085C132.408 129.626 133.054 130.397 134.346 130.397C135.638 130.397 136.284 129.626 136.284 128.085V123.427H134.414V120.027H139.82V127.813C139.82 129.74 139.344 131.224 138.392 132.267C137.44 133.287 136.057 133.797 134.244 133.797ZM147.525 133.797C145.712 133.797 144.329 133.287 143.377 132.267C142.425 131.224 141.949 129.74 141.949 127.813V115.301C141.949 113.374 142.425 111.901 143.377 110.881C144.329 109.838 145.712 109.317 147.525 109.317C149.338 109.317 150.721 109.838 151.673 110.881C152.625 111.901 153.101 113.374 153.101 115.301V117.341H149.565V115.063C149.565 113.499 148.919 112.717 147.627 112.717C146.335 112.717 145.689 113.499 145.689 115.063V128.085C145.689 129.626 146.335 130.397 147.627 130.397C148.919 130.397 149.565 129.626 149.565 128.085V123.427H147.695V120.027H153.101V127.813C153.101 129.74 152.625 131.224 151.673 132.267C150.721 133.287 149.338 133.797 147.525 133.797ZM155.502 109.657H159.242V133.457H155.502V109.657ZM162.043 109.657H166.735L170.373 123.903H170.441V109.657H173.773V133.457H169.931L165.443 116.083H165.375V133.457H162.043V109.657ZM181.857 133.797C180.044 133.797 178.661 133.287 177.709 132.267C176.757 131.224 176.281 129.74 176.281 127.813V115.301C176.281 113.374 176.757 111.901 177.709 110.881C178.661 109.838 180.044 109.317 181.857 109.317C183.671 109.317 185.053 109.838 186.005 110.881C186.957 111.901 187.433 113.374 187.433 115.301V117.341H183.897V115.063C183.897 113.499 183.251 112.717 181.959 112.717C180.667 112.717 180.021 113.499 180.021 115.063V128.085C180.021 129.626 180.667 130.397 181.959 130.397C183.251 130.397 183.897 129.626 183.897 128.085V123.427H182.027V120.027H187.433V127.813C187.433 129.74 186.957 131.224 186.005 132.267C185.053 133.287 183.671 133.797 181.857 133.797Z" fill="black"/>
</svg>
