<svg width="166" height="53" viewBox="0 0 166 53" fill="none" xmlns="http://www.w3.org/2000/svg">
<path d="M86.2081 52.7014C87.5141 52.6588 88.5383 51.5655 88.4957 50.2595C88.4531 48.9535 87.3598 47.9294 86.0538 47.972L86.2081 52.7014ZM46.3715 46.9067L45.8688 49.2187L45.9483 49.236L46.0289 49.2478L46.3715 46.9067ZM21.4504 39.7864L22.2251 37.5509L21.4504 39.7864ZM3.05566 25.2261L0.719895 25.603H0.719895L3.05566 25.2261ZM15.0421 12.3732L14.1842 10.1682L14.1842 10.1682L15.0421 12.3732ZM73.3271 3V0.634027H73.3016L73.2761 0.634578L73.3271 3ZM136.767 8.92651L137.29 6.61886L136.767 8.92651ZM163.127 21.5768L160.981 22.5718L163.127 21.5768ZM147.588 32.7598L148.19 35.0479L148.192 35.0475L147.588 32.7598ZM147.586 32.7603L146.984 30.4722L146.983 30.4726L147.586 32.7603ZM68.0291 39.7446C66.7225 39.7656 65.6805 40.8418 65.7015 42.1484C65.7225 43.4549 66.7987 44.497 68.1053 44.4759L68.0291 39.7446ZM86.0538 47.972C73.7877 48.3721 61.3309 46.7047 46.7141 44.5657L46.0289 49.2478C60.6054 51.3809 73.4607 53.1172 86.2081 52.7014L86.0538 47.972ZM46.8742 44.5948C38.8817 42.857 30.0036 40.2464 22.2251 37.5509L20.6757 42.022C28.5912 44.765 37.6539 47.4325 45.8688 49.2187L46.8742 44.5948ZM22.2251 37.5509C19.9151 36.7504 15.798 35.0063 12.1612 32.6215C10.3451 31.4306 8.72163 30.1269 7.50765 28.7606C6.28682 27.3866 5.58882 26.0727 5.39143 24.8493L0.719895 25.603C1.10929 28.0164 2.39426 30.1298 3.97025 31.9036C5.55311 33.6851 7.54027 35.2499 9.5664 36.5785C13.614 39.2328 18.1075 41.132 20.6757 42.022L22.2251 37.5509ZM5.39143 24.8493C5.29047 24.2235 5.48126 23.3489 6.25295 22.1793C7.01292 21.0275 8.17749 19.8383 9.52811 18.7143C12.2623 16.4389 15.275 14.8213 15.9 14.5782L14.1842 10.1682C12.985 10.6348 9.53757 12.5502 6.50121 15.0771C4.96654 16.3543 3.41821 17.8835 2.30328 19.5733C1.2001 21.2453 0.354028 23.3353 0.719895 25.603L5.39143 24.8493ZM15.9 14.5782C33.5963 7.69317 51.6695 5.83415 73.3782 5.36542L73.2761 0.634578C51.3868 1.10721 32.655 2.98191 14.1842 10.1682L15.9 14.5782ZM73.3271 5.36597C101.616 5.36598 116.007 6.65539 136.245 11.2342L137.29 6.61886C116.601 1.9383 101.837 0.634036 73.3271 0.634027V5.36597ZM136.245 11.2342C139.78 12.0339 145.299 13.2241 150.382 15.1501C152.918 16.1112 155.259 17.2246 157.144 18.508C159.042 19.8005 160.328 21.1646 160.981 22.5718L165.274 20.5819C164.13 18.1134 162.097 16.1559 159.807 14.5968C157.504 13.0285 154.79 11.7602 152.058 10.7252C146.606 8.65901 140.741 7.39972 137.29 6.61886L136.245 11.2342ZM160.981 22.5718C161.138 22.9105 161.136 23.1369 161.094 23.3269C161.043 23.5573 160.889 23.8973 160.502 24.3419C159.695 25.2712 158.242 26.2411 156.363 27.1598C152.662 28.9691 148.253 30.1375 146.985 30.4721L148.192 35.0475C149.449 34.7158 154.273 33.4486 158.441 31.411C160.496 30.4063 162.638 29.0998 164.075 27.4447C164.811 26.5971 165.442 25.5678 165.712 24.3576C165.991 23.1069 165.848 21.8212 165.274 20.5819L160.981 22.5718ZM146.986 30.4718L146.984 30.4722L148.189 35.0483L148.19 35.0479L146.986 30.4718ZM146.983 30.4726C121.555 37.1805 94.4534 39.319 68.0291 39.7446L68.1053 44.4759C94.6986 44.0476 122.232 41.8958 148.19 35.048L146.983 30.4726Z" fill="#FF94B5"/>
</svg>
