<svg width="1024" height="700" viewBox="0 0 1024 700" fill="none" xmlns="http://www.w3.org/2000/svg">
<g clip-path="url(#clip0_502_5310)">
<path d="M389.605 350.907L207 9.15527e-05L839.5 9.44229e-05L590.999 422.5L389.605 350.907Z" fill="#A0EEE9"/>
<g clip-path="url(#clip1_502_5310)">
<path d="M89.9239 274.472C54.7655 274.472 36.5352 253.637 36.5352 217.176V97.3773C36.5352 60.9167 54.7655 40.082 89.9239 40.082C125.082 40.082 143.313 60.9167 143.313 97.3773V116.91H109.456V95.0985C109.456 78.8214 102.294 72.6361 90.9005 72.6361C79.5066 72.6361 72.3447 78.8214 72.3447 95.0985V219.781C72.3447 236.058 79.5066 241.918 90.9005 241.918C102.294 241.918 109.456 236.058 109.456 219.781V175.182H91.5516V142.627H143.313V217.176C143.313 253.637 125.082 274.472 89.9239 274.472Z" fill="black"/>
<path d="M260.215 274.442L234.785 179.011H216.624V274.442H181.617V43.3008H236.435C269.792 43.3008 291.252 65.0963 291.252 98.4407V123.871C291.252 145.331 282.333 161.842 267.149 171.084L296.537 274.442H260.215ZM216.624 145.989H234.785C248.319 145.989 256.245 138.062 256.245 124.528V97.7833C256.245 84.2495 248.319 76.3227 234.785 76.3227H216.624V146.001V145.989Z" fill="black"/>
<path d="M322.301 221.943V95.8098C322.301 62.4654 344.754 40 378.433 40C412.113 40 434.565 62.4529 434.565 95.8098V221.943C434.565 255.288 412.113 277.753 378.433 277.753C344.754 277.753 322.301 255.3 322.301 221.943ZM399.571 221.943V95.8098C399.571 81.2836 391.322 73.022 378.433 73.022C365.544 73.022 357.295 81.2712 357.295 95.8098V221.943C357.295 236.469 365.544 244.731 378.433 244.731C391.322 244.731 399.571 236.482 399.571 221.943Z" fill="black"/>
<path d="M640.945 43.3008L606.931 274.442H568.302L549.806 122.221L531.311 274.442H492.682L458.68 43.3008H494.009L513.162 199.491L532.315 43.3008H567.98L587.133 199.491L606.286 43.3008H640.958H640.945Z" fill="black"/>
<path d="M733.082 223.594V43.3008H768.089V223.594C768.089 237.128 776.338 244.732 787.577 244.732C798.816 244.732 807.065 237.14 807.065 223.594V43.3008H841.402V223.594C841.402 255.959 819.606 277.754 787.577 277.754C755.547 277.754 733.094 255.959 733.094 223.594H733.082Z" fill="black"/>
<path d="M878.383 43.3008H933.2C966.557 43.3008 988.018 65.0963 988.018 98.4407V125.521C988.018 158.865 966.557 180.661 933.2 180.661H913.39V274.442H878.383V43.3008ZM931.55 147.651C945.084 147.651 953.011 139.724 953.011 126.191V97.7957C953.011 84.2619 945.084 76.3351 931.55 76.3351H913.39V147.664H931.55V147.651Z" fill="black"/>
</g>
<path d="M516.388 1036.26C719.005 1036.26 883.258 872.219 883.258 669.868C883.258 467.518 719.005 303.48 516.388 303.48C313.771 303.48 149.518 467.518 149.518 669.868C149.518 872.219 313.771 1036.26 516.388 1036.26Z" fill="black"/>
<path d="M516.39 1014.2C706.808 1014.2 861.172 860.034 861.172 669.867C861.172 479.7 706.808 325.539 516.39 325.539C325.973 325.539 171.609 479.7 171.609 669.867C171.609 860.034 325.973 1014.2 516.39 1014.2Z" fill="white"/>
<path d="M526 672.41L814 495.5C839 544.5 860.82 586 860.82 672.41C863.134 754.632 842.684 811.103 828.208 851L526 672.41Z" fill="#F4F4F4"/>
<path d="M504.058 347.007L497.402 347.007L497.402 342.899C501.952 342.563 504.669 340.733 505.841 338.629L509.955 338.629L509.955 377.445L504.071 377.445L504.071 347.007L504.058 347.007Z" fill="black"/>
<path d="M515.667 368.697L515.667 347.41C515.667 341.87 519.382 338.098 524.942 338.098C530.501 338.098 534.154 341.87 534.154 347.41L534.154 348.679L528.494 348.679L528.494 347.123C528.494 345.019 527.111 343.625 524.992 343.625C522.873 343.625 521.551 345.007 521.551 347.123L521.551 355.999C522.436 354.555 524.381 353.223 527.273 353.223C531.773 353.223 534.44 356.323 534.44 361.153L534.44 368.697C534.44 374.237 530.663 378.009 525.116 378.009C519.569 378.009 515.68 374.237 515.68 368.697L515.667 368.697ZM528.544 368.971L528.544 362.037C528.544 359.647 527.323 358.539 525.328 358.539C522.997 358.539 521.551 359.983 521.551 362.423L521.551 368.971C521.551 371.075 522.885 372.469 525.104 372.469C527.323 372.469 528.544 371.088 528.544 368.971Z" fill="black"/>
<path d="M381.476 376.234L375.318 378.774L373.747 374.989C377.823 372.948 379.643 370.209 379.905 367.819L383.707 366.25L398.578 402.116L393.143 404.369L381.476 376.247L381.476 376.234Z" fill="black"/>
<path d="M400.309 391.782L399.861 390.711L404.884 388.035L405.37 389.218C406.555 392.081 408.262 392.703 410.257 391.869C412.251 391.035 413.024 389.404 412.039 387.051L408.599 378.748C407.726 376.644 406.168 376.096 404.435 376.818C402.491 377.627 401.606 379.545 402.516 381.748L402.765 382.358L397.53 384.524L389.028 364.033L404.573 357.609L406.692 362.738L396.383 367.008L400.085 375.922C400.284 374.216 401.718 372.187 404.186 371.166C408.237 369.486 411.89 371.341 413.697 375.698L417.437 384.711C419.693 390.139 417.823 394.757 412.488 396.961C407.153 399.164 402.566 397.222 400.309 391.794L400.309 391.782Z" fill="black"/>
<path d="M279.246 450.157L274.534 454.863L271.629 451.962C274.609 448.514 275.244 445.302 274.571 442.987L277.476 440.086L304.962 467.536L300.798 471.694L279.246 450.17L279.246 450.157Z" fill="black"/>
<path d="M316.894 444.155L314.663 446.384L320.397 452.11L316.233 456.268L310.499 450.542L302.372 458.659L298.645 454.936L287.962 429.602L292.911 424.66L310.736 442.462L312.98 440.221L316.907 444.143L316.894 444.155ZM306.573 446.62L295.778 435.839L302.372 450.816L306.573 446.62Z" fill="black"/>
<path d="M213.188 557.19L210.645 563.34L206.843 561.771C208.276 557.439 207.628 554.227 206.12 552.347L207.691 548.562L243.603 563.414L241.347 568.842L213.188 557.19Z" fill="black"/>
<path d="M240.922 536.974L244.25 538.356C249.685 540.609 251.729 545.241 249.486 550.668C247.229 556.096 242.505 557.926 237.07 555.673L235.998 555.225L237.656 549.784L238.84 550.27C241.707 551.453 243.452 550.743 244.325 548.639C245.198 546.535 244.475 544.805 242.119 543.821L238.379 542.278C235.512 541.083 233.767 541.805 232.57 544.68L231.673 546.834L226.537 544.718L227.285 542.925C228.469 540.062 227.758 538.319 224.879 537.124L222.112 535.978C220.005 535.107 218.409 535.767 217.612 537.709C216.814 539.651 217.462 541.244 220.08 542.327L220.902 542.664L218.733 547.892L217.499 547.382C212.314 545.241 210.332 540.759 212.526 535.48C214.72 530.202 219.294 528.434 224.48 530.576L226.836 531.547C230.064 532.879 231.872 535.194 232.121 538.232C234.552 535.991 237.556 535.555 240.947 536.962L240.922 536.974Z" fill="black"/>
<path d="M193.105 681.525L193.105 688.173L188.992 688.173C188.655 683.629 186.823 680.915 184.716 679.745L184.716 675.637L223.583 675.637L223.583 681.513L193.105 681.513L193.105 681.525Z" fill="black"/>
<path d="M218.037 663.882L218.037 652.242L223.584 652.242L223.584 670.878L218.474 670.878L204.762 662.289C199.651 659.077 196.983 658.131 193.991 658.131C191.274 658.131 189.778 659.4 189.778 661.679C189.778 663.957 191.274 665.227 193.991 665.227L196.273 665.227L196.273 670.878L194.44 670.878C188.108 670.878 184.219 667.442 184.219 661.616C184.219 655.79 187.834 652.242 193.829 652.242C198.043 652.242 201.496 653.512 207.766 657.458L218.037 663.895L218.037 663.882Z" fill="black"/>
<path d="M817.288 680.188L817.288 677.026H809.185L809.185 671.15H817.288L817.288 659.672H822.561L848.04 670.042L848.04 677.026H822.835L822.835 680.188H817.288ZM822.835 671.15H838.105L822.835 665.212L822.835 671.15Z" fill="black"/>
<path d="M802.018 561.537L798.69 562.919C793.255 565.172 788.53 563.342 786.274 557.914C784.018 552.487 786.075 547.856 791.51 545.602L792.582 545.154L795.262 550.171L794.077 550.657C791.21 551.839 790.487 553.582 791.36 555.686C792.233 557.79 793.978 558.499 796.334 557.528L800.073 555.985C802.94 554.802 803.663 553.059 802.479 550.196L801.582 548.042L806.717 545.913L807.465 547.706C808.649 550.569 810.395 551.291 813.274 550.109L816.041 548.964C818.148 548.092 818.809 546.499 817.999 544.557C817.188 542.614 815.593 541.955 812.975 543.025L812.152 543.361L809.983 538.133L811.217 537.622C816.403 535.481 820.978 537.249 823.159 542.527C825.353 547.806 823.359 552.287 818.186 554.429L815.83 555.4C812.601 556.732 809.684 556.383 807.366 554.404C807.228 557.703 805.421 560.13 802.03 561.537H802.018Z" fill="black"/>
<path d="M725.645 457.503L733.885 465.732L729.958 469.653L716.77 456.482L720.385 452.872L736.166 449.262C742.05 447.93 744.605 446.71 746.724 444.593C748.644 442.676 748.806 440.709 747.198 439.103C745.59 437.497 743.62 437.647 741.701 439.576L740.092 441.182L736.091 437.186L737.388 435.891C741.863 431.422 747.048 431.111 751.174 435.219C755.3 439.34 755.25 444.394 751.012 448.627C748.033 451.602 744.692 453.133 737.462 454.789L725.645 457.49L725.645 457.503Z" fill="black"/>
<path d="M639.583 371.364L633.426 368.812L634.996 365.015C639.334 366.447 642.55 365.799 644.433 364.293L648.234 365.862L633.363 401.715L627.928 399.462L639.596 371.339L639.583 371.364Z" fill="black"/>
<path d="M32.17 630.72C32.17 629.22 32.41 627.94 32.89 626.88C33.37 625.8 34.23 624.61 35.47 623.31C36.69 622.01 37.53 620.9 37.99 619.98C38.47 619.06 38.71 618.1 38.71 617.1C38.71 616.2 38.56 615.58 38.26 615.24C37.98 614.88 37.56 614.7 37 614.7C35.86 614.7 35.29 615.39 35.29 616.77V619.02H32.17V616.98C32.17 615.28 32.59 613.98 33.43 613.08C34.27 612.16 35.49 611.7 37.09 611.7C38.69 611.7 39.91 612.16 40.75 613.08C41.59 613.98 42.01 615.28 42.01 616.98C42.01 618.26 41.7 619.51 41.08 620.73C40.48 621.95 39.43 623.35 37.93 624.93C36.95 625.97 36.29 626.82 35.95 627.48C35.61 628.12 35.44 628.81 35.44 629.55V630H41.71V633H32.17V630.72ZM49.0117 633.3C47.3917 633.3 46.1517 632.84 45.2917 631.92C44.4317 631 44.0017 629.7 44.0017 628.02V616.98C44.0017 615.3 44.4317 614 45.2917 613.08C46.1517 612.16 47.3917 611.7 49.0117 611.7C50.6317 611.7 51.8717 612.16 52.7317 613.08C53.5917 614 54.0217 615.3 54.0217 616.98V628.02C54.0217 629.7 53.5917 631 52.7317 631.92C51.8717 632.84 50.6317 633.3 49.0117 633.3ZM49.0117 630.3C50.1517 630.3 50.7217 629.61 50.7217 628.23V616.77C50.7217 615.39 50.1517 614.7 49.0117 614.7C47.8717 614.7 47.3017 615.39 47.3017 616.77V628.23C47.3017 629.61 47.8717 630.3 49.0117 630.3ZM56.1934 630.72C56.1934 629.22 56.4334 627.94 56.9134 626.88C57.3934 625.8 58.2534 624.61 59.4934 623.31C60.7134 622.01 61.5534 620.9 62.0134 619.98C62.4934 619.06 62.7334 618.1 62.7334 617.1C62.7334 616.2 62.5834 615.58 62.2834 615.24C62.0034 614.88 61.5834 614.7 61.0234 614.7C59.8834 614.7 59.3134 615.39 59.3134 616.77V619.02H56.1934V616.98C56.1934 615.28 56.6134 613.98 57.4534 613.08C58.2934 612.16 59.5134 611.7 61.1134 611.7C62.7134 611.7 63.9334 612.16 64.7734 613.08C65.6134 613.98 66.0334 615.28 66.0334 616.98C66.0334 618.26 65.7234 619.51 65.1034 620.73C64.5034 621.95 63.4534 623.35 61.9534 624.93C60.9734 625.97 60.3134 626.82 59.9734 627.48C59.6334 628.12 59.4634 628.81 59.4634 629.55V630H65.7334V633H56.1934V630.72ZM73.7852 629.19H67.4852V626.19L73.4852 612H77.0852V626.19H78.6452V629.19H77.0852V633H73.7852V629.19ZM73.7852 626.19V618H73.7252L70.4852 626.19H73.7852ZM32.23 648H37.27C38.91 648 40.14 648.44 40.96 649.32C41.78 650.2 42.19 651.49 42.19 653.19V663.81C42.19 665.51 41.78 666.8 40.96 667.68C40.14 668.56 38.91 669 37.27 669H32.23V648ZM37.21 666C37.75 666 38.16 665.84 38.44 665.52C38.74 665.2 38.89 664.68 38.89 663.96V653.04C38.89 652.32 38.74 651.8 38.44 651.48C38.16 651.16 37.75 651 37.21 651H35.53V666H37.21ZM44.4175 648H53.4175V651H47.7175V656.55H52.2475V659.55H47.7175V666H53.4175V669H44.4175V648ZM55.3159 648H60.1759C61.8159 648 63.0459 648.44 63.8659 649.32C64.6859 650.2 65.0959 651.49 65.0959 653.19V655.26C65.0959 656.96 64.6859 658.25 63.8659 659.13C63.0459 660.01 61.8159 660.45 60.1759 660.45H58.6159V669H55.3159V648ZM60.1759 657.45C60.7159 657.45 61.1159 657.3 61.3759 657C61.6559 656.7 61.7959 656.19 61.7959 655.47V652.98C61.7959 652.26 61.6559 651.75 61.3759 651.45C61.1159 651.15 60.7159 651 60.1759 651H58.6159V657.45H60.1759ZM66.8882 648H71.7782C73.4782 648 74.7182 648.4 75.4982 649.2C76.2782 649.98 76.6682 651.19 76.6682 652.83V654.12C76.6682 656.3 75.9482 657.68 74.5082 658.26V658.32C75.3082 658.56 75.8682 659.05 76.1882 659.79C76.5282 660.53 76.6982 661.52 76.6982 662.76V666.45C76.6982 667.05 76.7182 667.54 76.7582 667.92C76.7982 668.28 76.8982 668.64 77.0582 669H73.6982C73.5782 668.66 73.4982 668.34 73.4582 668.04C73.4182 667.74 73.3982 667.2 73.3982 666.42V662.58C73.3982 661.62 73.2382 660.95 72.9182 660.57C72.6182 660.19 72.0882 660 71.3282 660H70.1882V669H66.8882V648ZM71.3882 657C72.0482 657 72.5382 656.83 72.8582 656.49C73.1982 656.15 73.3682 655.58 73.3682 654.78V653.16C73.3682 652.4 73.2282 651.85 72.9482 651.51C72.6882 651.17 72.2682 651 71.6882 651H70.1882V657H71.3882ZM83.7578 669.3C82.1378 669.3 80.8978 668.84 80.0378 667.92C79.1778 667 78.7478 665.7 78.7478 664.02V652.98C78.7478 651.3 79.1778 650 80.0378 649.08C80.8978 648.16 82.1378 647.7 83.7578 647.7C85.3778 647.7 86.6178 648.16 87.4778 649.08C88.3378 650 88.7678 651.3 88.7678 652.98V664.02C88.7678 665.7 88.3378 667 87.4778 667.92C86.6178 668.84 85.3778 669.3 83.7578 669.3ZM83.7578 666.3C84.8978 666.3 85.4678 665.61 85.4678 664.23V652.77C85.4678 651.39 84.8978 650.7 83.7578 650.7C82.6178 650.7 82.0478 651.39 82.0478 652.77V664.23C82.0478 665.61 82.6178 666.3 83.7578 666.3ZM90.9995 648H95.7095L97.8095 663.03H97.8695L99.9695 648H104.68V669H101.56V653.1H101.5L99.0995 669H96.3395L93.9395 653.1H93.8795V669H90.9995V648ZM107.142 648H116.142V651H110.442V656.55H114.972V659.55H110.442V666H116.142V669H107.142V648ZM118.041 648H127.041V651H121.341V656.55H125.871V659.55H121.341V666H127.041V669H118.041V648ZM131.519 651H128.069V648H138.269V651H134.819V669H131.519V651Z" fill="black"/>
<path d="M899.878 648H904.768C906.468 648 907.708 648.4 908.488 649.2C909.268 649.98 909.658 651.19 909.658 652.83V654.12C909.658 656.3 908.938 657.68 907.498 658.26V658.32C908.298 658.56 908.858 659.05 909.178 659.79C909.518 660.53 909.688 661.52 909.688 662.76V666.45C909.688 667.05 909.708 667.54 909.748 667.92C909.788 668.28 909.888 668.64 910.048 669H906.688C906.568 668.66 906.488 668.34 906.448 668.04C906.408 667.74 906.388 667.2 906.388 666.42V662.58C906.388 661.62 906.228 660.95 905.908 660.57C905.608 660.19 905.078 660 904.318 660H903.178V669H899.878V648ZM904.378 657C905.038 657 905.528 656.83 905.848 656.49C906.188 656.15 906.358 655.58 906.358 654.78V653.16C906.358 652.4 906.218 651.85 905.938 651.51C905.678 651.17 905.258 651 904.678 651H903.178V657H904.378ZM911.978 648H920.978V651H915.278V656.55H919.808V659.55H915.278V666H920.978V669H911.978V648ZM927.526 669.3C925.946 669.3 924.736 668.85 923.896 667.95C923.076 667.05 922.666 665.78 922.666 664.14V652.86C922.666 651.22 923.076 649.95 923.896 649.05C924.736 648.15 925.946 647.7 927.526 647.7C929.106 647.7 930.306 648.15 931.126 649.05C931.966 649.95 932.386 651.22 932.386 652.86V655.08H929.266V652.65C929.266 651.35 928.716 650.7 927.616 650.7C926.516 650.7 925.966 651.35 925.966 652.65V664.38C925.966 665.66 926.516 666.3 927.616 666.3C928.716 666.3 929.266 665.66 929.266 664.38V661.17H932.386V664.14C932.386 665.78 931.966 667.05 931.126 667.95C930.306 668.85 929.106 669.3 927.526 669.3ZM934.361 648H939.251C940.951 648 942.191 648.4 942.971 649.2C943.751 649.98 944.141 651.19 944.141 652.83V654.12C944.141 656.3 943.421 657.68 941.981 658.26V658.32C942.781 658.56 943.341 659.05 943.661 659.79C944.001 660.53 944.171 661.52 944.171 662.76V666.45C944.171 667.05 944.191 667.54 944.231 667.92C944.271 668.28 944.371 668.64 944.531 669H941.171C941.051 668.66 940.971 668.34 940.931 668.04C940.891 667.74 940.871 667.2 940.871 666.42V662.58C940.871 661.62 940.711 660.95 940.391 660.57C940.091 660.19 939.561 660 938.801 660H937.661V669H934.361V648ZM938.861 657C939.521 657 940.011 656.83 940.331 656.49C940.671 656.15 940.841 655.58 940.841 654.78V653.16C940.841 652.4 940.701 651.85 940.421 651.51C940.161 651.17 939.741 651 939.161 651H937.661V657H938.861ZM951.26 669.3C949.66 669.3 948.44 668.85 947.6 667.95C946.76 667.03 946.34 665.72 946.34 664.02V648H949.64V664.26C949.64 664.98 949.78 665.5 950.06 665.82C950.36 666.14 950.78 666.3 951.32 666.3C951.86 666.3 952.27 666.14 952.55 665.82C952.85 665.5 953 664.98 953 664.26V648H956.18V664.02C956.18 665.72 955.76 667.03 954.92 667.95C954.08 668.85 952.86 669.3 951.26 669.3ZM958.531 648H961.831V669H958.531V648ZM966.882 651H963.432V648H973.632V651H970.182V669H966.882V651Z" fill="black"/>
</g>
<defs>
<clipPath id="clip0_502_5310">
<rect width="1024" height="700" fill="white"/>
</clipPath>
<clipPath id="clip1_502_5310">
<rect width="951" height="237.753" fill="white" transform="translate(37 40)"/>
</clipPath>
</defs>
</svg>
