<svg width="1024" height="780" viewBox="0 0 1024 780" fill="none" xmlns="http://www.w3.org/2000/svg">
<g clip-path="url(#clip0_1_149)">
<path d="M759.669 295.251L1026.98 194V595.552L702 455.899L759.669 295.251Z" fill="#A0EEE9"/>
</g>
<path d="M40 26.554H81.1969C106.266 26.554 122.394 43.4218 122.394 69.2275V162.754C122.394 188.569 106.266 205.427 81.1969 205.427H40V26.554ZM79.957 179.881C90.128 179.881 96.0852 173.746 96.0852 163.272V68.7187C96.0852 58.2447 90.128 52.1101 79.957 52.1101H66.3086V179.881H79.957Z" fill="black"/>
<path d="M148.69 26.554H223.384V52.1101H174.99V101.945H213.455V127.502H174.99V179.891H223.384V205.447H148.69V26.554Z" fill="black"/>
<path d="M245.48 26.554H286.677C311.746 26.554 327.874 43.4218 327.874 69.2275V90.185C327.874 115.991 311.746 132.859 286.677 132.859H271.789V205.437H245.48V26.554ZM285.437 107.312C295.608 107.312 301.565 101.177 301.565 90.7034V68.7283C301.565 58.2543 295.608 52.1197 285.437 52.1197H271.789V107.322H285.437V107.312Z" fill="black"/>
<path d="M409.023 205.437L389.911 131.582H376.263V205.437H349.954V26.554H391.151C416.22 26.554 432.348 43.4218 432.348 69.2275V88.9082C432.348 105.517 425.645 118.295 414.234 125.447L436.32 205.437H409.023ZM376.263 106.026H389.911C400.082 106.026 406.039 99.891 406.039 89.417V68.7187C406.039 58.2447 400.082 52.1101 389.911 52.1101H376.263V106.035V106.026Z" fill="black"/>
<path d="M455.67 164.808V67.1919C455.67 41.3862 472.545 24 497.856 24C523.167 24 540.041 41.3766 540.041 67.1919V164.808C540.041 190.614 523.167 208 497.856 208C472.545 208 455.67 190.623 455.67 164.808ZM513.741 164.808V67.1919C513.741 55.9499 507.542 49.5561 497.856 49.5561C488.169 49.5561 481.97 55.9403 481.97 67.1919V164.808C481.97 176.05 488.169 182.444 497.856 182.444C507.542 182.444 513.741 176.06 513.741 164.808Z" fill="black"/>
<path d="M686.209 26.554V205.437H659.901V82.7736L635.336 205.437H616.97L592.405 82.7736V205.437H566.599V26.554H603.825L626.656 140.788L648.49 26.554H686.209Z" fill="black"/>
<path d="M714.999 26.554H789.693V52.1101H741.299V101.945H779.764V127.502H741.299V179.891H789.693V205.447H714.999V26.554Z" fill="black"/>
<path d="M811.785 26.554H886.478V52.1101H838.084V101.945H876.549V127.502H838.084V179.891H886.478V205.447H811.785V26.554Z" fill="black"/>
<path d="M900.124 26.554H984V52.1101H955.212V205.437H928.903V52.1101H900.115V26.554H900.124Z" fill="black"/>
<path d="M634.646 578.818H604V559.94C624.946 558.407 637.457 549.994 642.821 540.297H661.723V718.843H634.646V578.808V578.818Z" fill="black"/>
<path d="M687.266 678.042V672.685L713.316 670.136V676.001C713.316 690.288 719.447 695.894 729.406 695.894C739.366 695.894 745.497 690.278 745.497 678.55V637.231C745.497 626.777 739.874 621.669 731.191 621.669C721.481 621.669 714.333 628.3 714.333 639.272V642.329H688.283V540.297H765.675V565.805H714.342V610.19C718.171 603.3 727.881 597.177 740.143 597.177C760.321 597.177 772.583 611.464 772.583 633.139V678.032C772.583 705.073 756.493 721.392 729.934 721.392C703.375 721.392 687.285 705.064 687.285 678.032L687.266 678.042Z" fill="black"/>
<path d="M788.146 540.297H874.471V565.805H844.842V718.843H817.766V565.805H788.137V540.297H788.146Z" fill="black"/>
<path d="M895.414 718.853V540.307H922.491V615.556H954.672V540.307H981.749V718.853H954.672V641.054H922.491V718.853H895.414Z" fill="black"/>
<path d="M802.875 734.439L800.196 752.625H797.157L795.703 740.644L794.25 752.625H791.21L788.531 734.439H791.314L792.825 746.734L794.335 734.439H797.147L798.657 746.734L800.168 734.439H802.903H802.875Z" fill="black"/>
<path d="M818.789 734.439L816.11 752.625H813.071L811.617 740.643L810.164 752.625H807.124L804.445 734.439H807.229L808.739 746.734L810.249 734.439H813.061L814.571 746.734L816.082 734.439H818.818H818.789Z" fill="black"/>
<path d="M834.707 734.439L832.028 752.625H828.989L827.535 740.643L826.082 752.625H823.042L820.363 734.439H823.147L824.657 746.734L826.167 734.439H828.979L830.489 746.734L832 734.439H834.736H834.707Z" fill="black"/>
<path d="M835.484 749.893H838.239V752.626H835.484V749.893Z" fill="black"/>
<path d="M841.441 734.44H845.764C848.395 734.44 850.086 736.157 850.086 738.775V748.281C850.086 750.909 848.395 752.616 845.764 752.616H841.441V734.43V734.44ZM845.631 750.026C846.694 750.026 847.321 749.4 847.321 748.338V738.728C847.321 737.665 846.694 737.039 845.631 737.039H844.196V750.026H845.631Z" fill="black"/>
<path d="M852.84 734.439H860.667V737.038H855.595V742.104H859.632V744.704H855.595V750.026H860.667V752.625H852.84V734.439Z" fill="black"/>
<path d="M862.977 734.439H867.299C869.93 734.439 871.621 736.156 871.621 738.775V740.909C871.621 743.537 869.93 745.244 867.299 745.244H865.741V752.625H862.986V734.439H862.977ZM867.166 742.655C868.23 742.655 868.857 742.028 868.857 740.966V738.727C868.857 737.665 868.23 737.038 867.166 737.038H865.731V742.655H867.166Z" fill="black"/>
<path d="M880.123 752.625L878.119 745.112H876.684V752.625H873.93V734.439H878.252C880.883 734.439 882.574 736.156 882.574 738.775V740.776C882.574 742.465 881.871 743.765 880.674 744.495L882.992 752.625H880.133H880.123ZM876.684 742.522H878.119C879.183 742.522 879.81 741.896 879.81 740.833V738.727C879.81 737.665 879.183 737.038 878.119 737.038H876.684V742.522Z" fill="black"/>
<path d="M885.016 748.499V738.576C885.016 735.948 886.783 734.184 889.442 734.184C892.102 734.184 893.869 735.948 893.869 738.576V748.499C893.869 751.127 892.102 752.891 889.442 752.891C886.783 752.891 885.016 751.127 885.016 748.499ZM891.105 748.499V738.576C891.105 737.428 890.449 736.783 889.442 736.783C888.435 736.783 887.78 737.438 887.78 738.576V748.499C887.78 749.647 888.426 750.292 889.442 750.292C890.459 750.292 891.105 749.647 891.105 748.499Z" fill="black"/>
<path d="M909.18 734.439V752.625H906.425V740.15L903.851 752.625H901.922L899.348 740.15V752.625H896.641V734.439H900.545L902.939 746.051L905.228 734.439H909.18Z" fill="black"/>
<path d="M912.191 734.439H920.019V737.038H914.946V742.104H918.983V744.704H914.946V750.026H920.019V752.625H912.191V734.439Z" fill="black"/>
<path d="M922.336 734.439H930.163V737.038H925.091V742.104H929.128V744.704H925.091V750.026H930.163V752.625H922.336V734.439Z" fill="black"/>
<path d="M931.598 734.439H940.394V737.038H937.373V752.625H934.618V737.038H931.598V734.439Z" fill="black"/>
<path d="M940.52 749.893H943.274V752.625H940.52V749.893Z" fill="black"/>
<path d="M946.246 748.575V738.49C946.246 735.948 947.984 734.174 950.568 734.174C953.152 734.174 954.89 735.938 954.89 738.49V740.625H952.183V738.49C952.183 737.428 951.537 736.773 950.597 736.773C949.656 736.773 949.01 737.428 949.01 738.49V748.575C949.01 749.637 949.656 750.292 950.597 750.292C951.537 750.292 952.183 749.647 952.183 748.575V745.975H954.89V748.575C954.89 751.117 953.142 752.891 950.568 752.891C947.994 752.891 946.246 751.127 946.246 748.575Z" fill="black"/>
<path d="M957.273 748.499V738.576C957.273 735.948 959.04 734.184 961.7 734.184C964.36 734.184 966.127 735.948 966.127 738.576V748.499C966.127 751.127 964.36 752.891 961.7 752.891C959.04 752.891 957.273 751.127 957.273 748.499ZM963.362 748.499V738.576C963.362 737.428 962.707 736.783 961.7 736.783C960.693 736.783 960.038 737.438 960.038 738.576V748.499C960.038 749.647 960.684 750.292 961.7 750.292C962.716 750.292 963.362 749.647 963.362 748.499Z" fill="black"/>
<path d="M981.441 734.439V752.625H978.686V740.15L976.112 752.625H974.184L971.609 740.15V752.625H968.902V734.439H972.806L975.2 746.051L977.489 734.439H981.441Z" fill="black"/>
<path d="M73.7423 693.726H126.63V718.879H42.0095V695.739L81.0464 633.613C95.6545 610.473 99.9309 598.398 99.9309 584.82C99.9309 572.498 94.1407 565.705 83.809 565.705C73.4774 565.705 67.6872 572.498 67.6872 584.82V595.128H42V586.823C42 558.155 57.611 540.543 84.055 540.543C110.499 540.543 126.621 556.889 126.621 584.054C126.621 603.169 120.831 618.76 102.949 647.182L73.7329 693.717L73.7423 693.726Z" fill="black"/>
<path d="M146.773 678.882V582.807C146.773 557.409 163.898 540.297 189.585 540.297C215.273 540.297 232.397 557.399 232.397 582.807V678.882C232.397 704.28 215.273 721.392 189.585 721.392C163.898 721.392 146.773 704.29 146.773 678.882ZM205.707 678.882V582.807C205.707 571.742 199.416 565.449 189.585 565.449C179.755 565.449 173.463 571.742 173.463 582.807V678.882C173.463 689.946 179.755 696.239 189.585 696.239C199.416 696.239 205.707 689.956 205.707 678.882Z" fill="black"/>
<path d="M283.535 693.726H336.423V718.879H251.802V695.739L290.839 633.613C305.447 610.473 309.724 598.398 309.724 584.82C309.724 572.498 303.934 565.705 293.602 565.705C283.27 565.705 277.48 572.498 277.48 584.82V595.128H251.793V586.823C251.793 558.155 267.404 540.543 293.848 540.543C320.292 540.543 336.414 556.889 336.414 584.054C336.414 603.169 330.624 618.76 312.742 647.182L283.526 693.717L283.535 693.726Z" fill="black"/>
<path d="M441.441 682.151H427.089V718.869H400.389V682.151H348.258V658.255L395.356 542.81H427.089V656.999H441.441V682.151ZM400.389 656.999V587.834L373.444 656.999H400.389Z" fill="black"/>
<path d="M45.2772 750.026H50.7392V752.625H42V750.235L46.0371 743.812C47.5475 741.422 47.9845 740.179 47.9845 738.775C47.9845 737.504 47.386 736.802 46.3221 736.802C45.2582 736.802 44.6598 737.504 44.6598 738.775V739.837H42.0095V738.983C42.0095 736.024 43.6244 734.202 46.3506 734.202C49.0769 734.202 50.7487 735.891 50.7487 738.699C50.7487 740.672 50.1503 742.285 48.3074 745.226L45.2867 750.035L45.2772 750.026Z" fill="black"/>
<path d="M52.8203 748.499V738.576C52.8203 735.948 54.5872 734.184 57.2469 734.184C59.9067 734.184 61.6735 735.948 61.6735 738.576V748.499C61.6735 751.127 59.9067 752.891 57.2469 752.891C54.5872 752.891 52.8203 751.127 52.8203 748.499ZM58.9093 748.499V738.576C58.9093 737.428 58.2633 736.783 57.2469 736.783C56.2305 736.783 55.5846 737.438 55.5846 738.576V748.499C55.5846 749.647 56.24 750.292 57.2469 750.292C58.2538 750.292 58.9093 749.647 58.9093 748.499Z" fill="black"/>
<path d="M66.9452 750.026H72.4072V752.625H63.668V750.235L67.7051 743.812C69.2155 741.422 69.6524 740.179 69.6524 738.775C69.6524 737.504 69.054 736.802 67.9901 736.802C66.9262 736.802 66.3277 737.504 66.3277 738.775V739.837H63.6775V738.983C63.6775 736.024 65.2923 734.202 68.0186 734.202C70.7448 734.202 72.4167 735.891 72.4167 738.699C72.4167 740.672 71.8182 742.285 69.9754 745.226L66.9547 750.035L66.9452 750.026Z" fill="black"/>
<path d="M83.2555 748.83H81.7736V752.625H79.0188V748.83H73.6328V746.364L78.4964 734.439H81.7736V746.231H83.2555V748.83ZM79.0188 746.231V739.088L76.2356 746.231H79.0188Z" fill="black"/>
<path d="M90.543 734.44H94.8651C97.4964 734.44 99.1872 736.157 99.1872 738.775V748.281C99.1872 750.909 97.4964 752.616 94.8651 752.616H90.543V734.43V734.44ZM94.7321 750.026C95.796 750.026 96.423 749.4 96.423 748.338V738.728C96.423 737.665 95.796 737.039 94.7321 737.039H93.2977V750.026H94.7321Z" fill="black"/>
<path d="M101.93 734.439H109.757V737.038H104.684V742.104H108.722V744.704H104.684V750.026H109.757V752.625H101.93V734.439Z" fill="black"/>
<path d="M112.074 734.439H116.396C119.028 734.439 120.718 736.156 120.718 738.775V740.909C120.718 743.537 119.028 745.244 116.396 745.244H114.838V752.625H112.084V734.439H112.074ZM116.263 742.655C117.327 742.655 117.954 742.028 117.954 740.966V738.727C117.954 737.665 117.327 737.038 116.263 737.038H114.829V742.655H116.263Z" fill="black"/>
<path d="M129.221 752.625L127.216 745.112H125.782V752.625H123.027V734.439H127.349C129.981 734.439 131.672 736.156 131.672 738.775V740.776C131.672 742.465 130.969 743.765 129.772 744.495L132.09 752.625H129.23H129.221ZM125.782 742.522H127.216C128.28 742.522 128.907 741.896 128.907 740.833V738.727C128.907 737.665 128.28 737.038 127.216 737.038H125.782V742.522Z" fill="black"/>
<path d="M134.113 748.499V738.576C134.113 735.948 135.88 734.184 138.54 734.184C141.2 734.184 142.967 735.948 142.967 738.576V748.499C142.967 751.127 141.2 752.891 138.54 752.891C135.88 752.891 134.113 751.127 134.113 748.499ZM140.202 748.499V738.576C140.202 737.428 139.547 736.783 138.54 736.783C137.533 736.783 136.878 737.438 136.878 738.576V748.499C136.878 749.647 137.523 750.292 138.54 750.292C139.556 750.292 140.202 749.647 140.202 748.499Z" fill="black"/>
<path d="M158.281 734.439V752.625H155.526V740.15L152.952 752.625H151.024L148.449 740.15V752.625H145.742V734.439H149.646L152.04 746.051L154.329 734.439H158.281Z" fill="black"/>
<path d="M161.289 734.439H169.116V737.038H164.044V742.104H168.081V744.704H164.044V750.026H169.116V752.625H161.289V734.439Z" fill="black"/>
<path d="M171.434 734.439H179.261V737.038H174.188V742.104H178.225V744.704H174.188V750.026H179.261V752.625H171.434V734.439Z" fill="black"/>
<path d="M180.695 734.439H189.492V737.038H186.471V752.625H183.716V737.038H180.695V734.439Z" fill="black"/>
<path d="M198.985 738.358H195.859V736.432C197.997 736.28 199.27 735.417 199.811 734.43H201.739V752.616H198.985V738.348V738.358Z" fill="black"/>
<path d="M204.34 748.47V747.92L206.99 747.664V748.261C206.99 749.713 207.617 750.291 208.633 750.291C209.65 750.291 210.277 749.722 210.277 748.527V744.315C210.277 743.252 209.707 742.73 208.823 742.73C207.836 742.73 207.104 743.404 207.104 744.523V744.837H204.454V734.439H212.338V737.038H207.104V741.564C207.494 740.862 208.481 740.235 209.735 740.235C211.787 740.235 213.041 741.687 213.041 743.897V748.47C213.041 751.221 211.398 752.891 208.7 752.891C206.002 752.891 204.359 751.231 204.359 748.47H204.34Z" fill="black"/>
<path d="M214.621 734.439H223.417V737.038H220.397V752.625H217.642V737.038H214.621V734.439Z" fill="black"/>
<path d="M225.543 752.625V734.439H228.298V742.104H231.575V734.439H234.33V752.625H231.575V744.704H228.298V752.625H225.543Z" fill="black"/>
<path d="M248.748 752.625L246.744 745.112H245.309V752.625H242.555V734.439H246.877C249.508 734.439 251.199 736.156 251.199 738.775V740.776C251.199 742.465 250.496 743.765 249.299 744.495L251.617 752.625H248.758H248.748ZM245.309 742.522H246.744C247.808 742.522 248.435 741.896 248.435 740.833V738.727C248.435 737.665 247.808 737.038 246.744 737.038H245.309V742.522Z" fill="black"/>
<path d="M253.867 734.439H261.695V737.038H256.622V742.104H260.659V744.704H256.622V750.026H261.695V752.625H253.867V734.439Z" fill="black"/>
<path d="M263.777 748.575V738.49C263.777 735.948 265.516 734.174 268.099 734.174C270.683 734.174 272.422 735.938 272.422 738.49V740.625H269.714V738.49C269.714 737.428 269.068 736.773 268.128 736.773C267.188 736.773 266.542 737.428 266.542 738.49V748.575C266.542 749.637 267.188 750.292 268.128 750.292C269.068 750.292 269.714 749.647 269.714 748.575V745.975H272.422V748.575C272.422 751.117 270.674 752.891 268.099 752.891C265.525 752.891 263.777 751.127 263.777 748.575Z" fill="black"/>
<path d="M281.135 752.625L279.131 745.112H277.696V752.625H274.941V734.439H279.264C281.895 734.439 283.586 736.156 283.586 738.775V740.776C283.586 742.465 282.883 743.765 281.686 744.495L284.004 752.625H281.144H281.135ZM277.696 742.522H279.131C280.194 742.522 280.821 741.896 280.821 740.833V738.727C280.821 737.665 280.194 737.038 279.131 737.038H277.696V742.522Z" fill="black"/>
<path d="M286.148 748.622V734.43H288.903V748.622C288.903 749.685 289.549 750.282 290.442 750.282C291.335 750.282 291.981 749.685 291.981 748.622V734.43H294.688V748.622C294.688 751.165 292.969 752.882 290.452 752.882C287.934 752.882 286.158 751.165 286.158 748.622H286.148Z" fill="black"/>
<path d="M297.594 734.439H300.349V752.625H297.594V734.439Z" fill="black"/>
<path d="M302.488 734.439H311.284V737.038H308.264V752.625H305.509V737.038H302.488V734.439Z" fill="black"/>
<path d="M325.949 734.439V752.625H323.194V740.15L320.62 752.625H318.692L316.117 740.15V752.625H313.41V734.439H317.314L319.708 746.051L321.997 734.439H325.949Z" fill="black"/>
<path d="M328.961 734.439H336.788V737.038H331.716V742.104H335.753V744.704H331.716V750.026H336.788V752.625H328.961V734.439Z" fill="black"/>
<path d="M339.105 734.439H342.145L345.66 746.648V734.439H348.367V752.625H345.451L341.813 740.985V752.625H339.105V734.439Z" fill="black"/>
<path d="M350.504 734.439H359.3V737.038H356.279V752.625H353.525V737.038H350.504V734.439Z" fill="black"/>
<path d="M512.467 669.199C666.812 669.199 791.933 544.242 791.933 390.099C791.933 235.957 666.812 111 512.467 111C358.121 111 233 235.957 233 390.099C233 544.242 358.121 669.199 512.467 669.199Z" fill="black"/>
<path d="M512.468 652.395C657.521 652.395 775.109 534.962 775.109 390.1C775.109 245.238 657.521 127.805 512.468 127.805C367.416 127.805 249.828 245.238 249.828 390.1C249.828 534.962 367.416 652.395 512.468 652.395Z" fill="white"/>
<path d="M533.043 386.97L757.084 294.404C764.699 313.921 773.938 344.457 775.011 382.75C776.198 425.139 766.874 458.966 759.448 479.535C683.976 448.677 608.514 417.828 533.043 386.97Z" fill="#F4F4F4"/>
<path d="M503.075 144.161H498.004V141.032C501.47 140.776 503.54 139.382 504.432 137.779H507.566V167.348H503.084V144.161H503.075Z" fill="black"/>
<path d="M511.918 160.681V144.465C511.918 140.244 514.748 137.371 518.983 137.371C523.218 137.371 526 140.244 526 144.465V145.432H521.689V144.246C521.689 142.644 520.635 141.582 519.021 141.582C517.406 141.582 516.4 142.634 516.4 144.246V151.008C517.074 149.908 518.555 148.893 520.758 148.893C524.186 148.893 526.218 151.254 526.218 154.934V160.681C526.218 164.901 523.341 167.774 519.116 167.774C514.89 167.774 511.927 164.901 511.927 160.681H511.918ZM521.727 160.889V155.607C521.727 153.786 520.796 152.942 519.277 152.942C517.501 152.942 516.4 154.043 516.4 155.901V160.889C516.4 162.492 517.416 163.554 519.106 163.554C520.796 163.554 521.727 162.502 521.727 160.889Z" fill="black"/>
<path d="M409.696 166.419L405.005 168.354L403.809 165.471C406.914 163.916 408.3 161.829 408.499 160.008L411.396 158.814L422.724 186.135L418.584 187.851L409.696 166.429V166.419Z" fill="black"/>
<path d="M424.043 178.264L423.701 177.448L427.528 175.409L427.898 176.31C428.8 178.491 430.101 178.966 431.62 178.33C433.14 177.695 433.728 176.452 432.978 174.66L430.357 168.335C429.693 166.732 428.506 166.315 427.186 166.865C425.705 167.481 425.03 168.942 425.724 170.62L425.913 171.085L421.925 172.735L415.449 157.126L427.29 152.232L428.905 156.14L421.052 159.392L423.872 166.182C424.024 164.883 425.116 163.337 426.996 162.56C430.082 161.279 432.864 162.692 434.241 166.011L437.09 172.877C438.809 177.012 437.384 180.53 433.32 182.209C429.256 183.887 425.761 182.408 424.043 178.273V178.264Z" fill="black"/>
<path d="M331.821 222.732L328.232 226.317L326.02 224.107C328.289 221.48 328.773 219.034 328.26 217.27L330.473 215.06L351.411 235.971L348.239 239.138L331.821 222.742V222.732Z" fill="black"/>
<path d="M360.5 218.161L358.801 219.859L363.169 224.221L359.997 227.388L355.629 223.026L349.438 229.209L346.599 226.374L338.461 207.075L342.231 203.311L355.81 216.871L357.519 215.165L360.51 218.152L360.5 218.161ZM352.638 220.039L344.415 211.826L349.438 223.235L352.638 220.039Z" fill="black"/>
<path d="M281.501 304.266L279.564 308.95L276.668 307.756C277.76 304.455 277.266 302.009 276.117 300.577L277.314 297.694L304.671 309.007L302.952 313.142L281.501 304.266Z" fill="black"/>
<path d="M302.628 288.865L305.163 289.918C309.303 291.634 310.861 295.162 309.151 299.297C307.433 303.431 303.834 304.825 299.694 303.109L298.877 302.768L300.14 298.623L301.042 298.993C303.226 299.894 304.556 299.354 305.22 297.751C305.885 296.148 305.334 294.83 303.539 294.081L300.691 292.905C298.507 291.995 297.177 292.545 296.266 294.735L295.582 296.376L291.67 294.764L292.24 293.398C293.142 291.217 292.601 289.889 290.407 288.979L288.299 288.107C286.694 287.443 285.479 287.945 284.871 289.425C284.263 290.904 284.757 292.118 286.751 292.943L287.378 293.199L285.726 297.182L284.786 296.793C280.835 295.162 279.326 291.748 280.997 287.727C282.668 283.706 286.153 282.36 290.103 283.991L291.898 284.731C294.357 285.745 295.734 287.509 295.924 289.823C297.776 288.116 300.064 287.784 302.647 288.856L302.628 288.865Z" fill="black"/>
<path d="M266.203 398.976V404.04H263.07C262.813 400.579 261.417 398.512 259.812 397.62V394.491H289.42V398.967H266.203V398.976Z" fill="black"/>
<path d="M285.195 385.539V376.672H289.421V390.868H285.528L275.082 384.325C271.189 381.878 269.157 381.157 266.878 381.157C264.808 381.157 263.669 382.125 263.669 383.86C263.669 385.596 264.808 386.563 266.878 386.563H268.616V390.868H267.22C262.396 390.868 259.434 388.251 259.434 383.813C259.434 379.375 262.187 376.672 266.755 376.672C269.964 376.672 272.595 377.639 277.371 380.645L285.195 385.548V385.539Z" fill="black"/>
<path d="M287.666 490.745L289.603 495.43L286.717 496.624C285.159 493.523 283.07 492.139 281.247 491.94L280.051 489.047L307.408 477.734L309.126 481.869L287.676 490.745H287.666Z" fill="black"/>
<path d="M282.596 478.53L284.543 483.215L281.646 484.41C280.089 481.309 278 479.924 276.177 479.725L274.98 476.833L302.337 465.52L304.056 469.654L282.605 478.53H282.596Z" fill="black"/>
<path d="M345.147 570.783L348.736 574.367L346.524 576.577C343.893 574.31 341.444 573.827 339.677 574.339L337.465 572.129L358.403 551.219L361.574 554.386L345.156 570.783H345.147Z" fill="black"/>
<path d="M350.557 552.897L339.134 564.305C336.115 567.321 332.05 567.321 328.993 564.277C325.945 561.233 325.945 557.165 328.964 554.149L340.388 542.741C343.407 539.725 347.471 539.725 350.529 542.769C353.577 545.813 353.577 549.881 350.557 552.897ZM343.559 545.908L332.136 557.316C330.816 558.625 330.816 560.123 331.984 561.29C333.152 562.456 334.643 562.456 335.963 561.138L347.386 549.73C348.706 548.412 348.706 546.923 347.538 545.756C346.37 544.59 344.879 544.59 343.559 545.908Z" fill="black"/>
<path d="M412.297 614.557L418.517 599.574C420.131 595.666 423.853 594.102 427.766 595.714C431.678 597.335 433.15 601.053 431.535 604.951L431.165 605.851L427.177 604.201L427.633 603.111C428.25 601.631 427.671 600.247 426.189 599.63C424.708 599.014 423.36 599.602 422.752 601.091L420.159 607.331C421.204 606.572 422.961 606.202 424.993 607.046C428.155 608.355 429.123 611.314 427.718 614.709L425.515 620.019C423.901 623.917 420.14 625.472 416.228 623.86C412.24 622.21 410.683 618.455 412.307 614.557H412.297ZM421.28 618.502L423.303 613.628C423.996 611.949 423.464 610.811 422.059 610.233C420.416 609.55 418.982 610.147 418.27 611.864L416.361 616.473C415.744 617.952 416.276 619.318 417.843 619.962C419.324 620.579 420.672 619.991 421.28 618.502Z" fill="black"/>
<path d="M505.031 622.438V619.698C505.031 615.222 507.7 612.434 512.476 612.434C517.252 612.434 519.92 615.222 519.92 619.698V622.438C519.92 625.226 518.734 627.208 516.625 628.223C518.525 629.276 519.626 631.22 519.626 633.923V635.867C519.626 640.134 517.043 642.837 512.476 642.837C507.908 642.837 505.326 640.134 505.326 635.867V633.923C505.326 631.22 506.427 629.276 508.326 628.223C506.209 627.208 505.031 625.226 505.031 622.438ZM509.513 622.694C509.513 625.056 510.529 626.07 512.476 626.07C514.422 626.07 515.439 625.056 515.439 622.694V619.612C515.439 617.668 514.422 616.654 512.476 616.654C510.529 616.654 509.513 617.668 509.513 619.612V622.694ZM515.135 633.676C515.135 631.315 514.119 630.3 512.466 630.3C510.814 630.3 509.798 631.315 509.798 633.676V635.961C509.798 637.697 510.729 638.626 512.466 638.626C514.204 638.626 515.135 637.697 515.135 635.961V633.676Z" fill="black"/>
<path d="M602.931 625.775L601.44 622.181L598.164 595.742L602.466 593.959L605.305 620.123L613.86 616.586L615.513 620.569L602.931 625.775Z" fill="black"/>
<path d="M679.809 547.407L691.29 558.873C694.281 561.86 694.309 565.89 691.318 568.877C688.327 571.865 684.32 571.808 681.329 568.82L680.645 568.138L683.693 565.094L684.529 565.928C685.668 567.066 687.159 567.066 688.298 565.928C689.438 564.79 689.409 563.33 688.27 562.192L683.484 557.412C683.788 558.664 683.456 560.428 681.898 561.983C679.477 564.401 676.362 564.164 673.761 561.566L669.696 557.507C666.705 554.52 666.705 550.461 669.696 547.474C672.745 544.43 676.818 544.43 679.809 547.417V547.407ZM672.726 554.188L676.467 557.924C677.749 559.205 679.012 559.148 680.085 558.076C681.338 556.824 681.338 555.269 680.028 553.951L676.495 550.423C675.356 549.285 673.894 549.257 672.697 550.452C671.558 551.59 671.586 553.05 672.726 554.188Z" fill="black"/>
<path d="M727.441 471.561L728.258 471.902L726.995 476.046L726.093 475.677C723.909 474.776 722.656 475.354 722.029 476.871C721.402 478.389 721.868 479.688 723.662 480.428L729.996 483.045C731.601 483.709 732.731 483.168 733.281 481.85C733.899 480.371 733.338 478.853 731.658 478.161L731.192 477.971L732.845 473.989L748.474 480.456L743.575 492.282L739.662 490.669L742.919 482.827L736.121 480.01C736.928 481.035 737.26 482.903 736.481 484.78C735.199 487.862 732.237 488.83 728.913 487.455L722.038 484.61C717.898 482.893 716.417 479.403 718.098 475.345C719.778 471.286 723.301 469.863 727.441 471.58V471.561Z" fill="black"/>
<path d="M741.68 397.96V395.552H735.508V391.076H741.68V382.332H745.697L765.106 390.232V395.552H745.906V397.96H741.68ZM745.906 391.076H757.538L745.906 386.552V391.076Z" fill="black"/>
<path d="M730.048 307.577L727.513 308.63C723.372 310.346 719.774 308.952 718.055 304.818C716.336 300.683 717.903 297.155 722.043 295.439L722.86 295.097L724.901 298.919L723.999 299.289C721.815 300.19 721.264 301.518 721.929 303.12C722.594 304.723 723.923 305.263 725.718 304.524L728.567 303.348C730.751 302.447 731.301 301.119 730.399 298.938L729.716 297.298L733.628 295.676L734.197 297.041C735.1 299.223 736.429 299.773 738.622 298.872L740.73 297.999C742.335 297.335 742.839 296.122 742.221 294.642C741.604 293.163 740.389 292.66 738.395 293.476L737.768 293.732L736.116 289.749L737.056 289.36C741.006 287.729 744.491 289.076 746.152 293.096C747.824 297.117 746.304 300.531 742.364 302.162L740.569 302.902C738.11 303.917 735.888 303.651 734.121 302.143C734.017 304.656 732.64 306.506 730.057 307.577H730.048Z" fill="black"/>
<path d="M671.87 228.326L678.147 234.594L675.156 237.581L665.109 227.548L667.863 224.798L679.885 222.048C684.367 221.033 686.313 220.104 687.927 218.492C689.39 217.031 689.513 215.533 688.288 214.309C687.063 213.086 685.563 213.2 684.101 214.67L682.876 215.893L679.828 212.849L680.815 211.863C684.224 208.458 688.174 208.221 691.317 211.351C694.46 214.49 694.422 218.34 691.194 221.564C688.925 223.831 686.38 224.997 680.872 226.258L671.87 228.316V228.326Z" fill="black"/>
<path d="M606.312 162.713L601.621 160.769L602.818 157.876C606.122 158.967 608.572 158.474 610.006 157.326L612.902 158.521L601.574 185.833L597.434 184.116L606.322 162.694L606.312 162.713Z" fill="black"/>
<path d="M512.467 395.458C515.43 395.458 517.832 393.059 517.832 390.1C517.832 387.141 515.43 384.742 512.467 384.742C509.504 384.742 507.102 387.141 507.102 390.1C507.102 393.059 509.504 395.458 512.467 395.458Z" fill="black"/>
<path d="M520.723 368.194L524.53 366.658C526.847 365.719 528.946 366.629 529.886 368.943L533.285 377.326C534.225 379.64 533.342 381.755 531.035 382.684L527.227 384.221L520.723 368.194ZM529.981 380.437C530.921 380.057 531.244 379.289 530.864 378.341L527.427 369.873C527.047 368.934 526.278 368.611 525.328 368.991L524.065 369.503L528.708 380.949L529.971 380.437H529.981Z" fill="black"/>
<path d="M530.762 364.135L537.665 361.347L538.596 363.633L534.123 365.444L535.937 369.911L539.488 368.469L540.419 370.755L536.867 372.196L538.776 376.89L543.248 375.079L544.179 377.365L537.276 380.153L530.771 364.126L530.762 364.135Z" fill="black"/>
<path d="M544.149 373.059L543.922 372.49L546.153 371.295L546.39 371.892C546.865 373.059 547.748 373.533 548.707 373.135C549.666 372.746 550.027 371.911 549.648 370.973C549.239 369.967 548.527 369.398 546.02 368.412C542.697 367.122 541.5 366.165 540.788 364.401C539.819 362.02 540.57 359.906 542.877 358.967C545.194 358.028 547.198 359.033 548.176 361.432L548.347 361.84L546.115 363.035L545.925 362.58C545.422 361.347 544.681 360.901 543.836 361.243C542.991 361.584 542.725 362.305 543.133 363.32C543.542 364.325 544.339 364.856 546.761 365.88C550.046 367.265 551.271 368.128 551.993 369.891C552.923 372.177 551.993 374.481 549.666 375.411C547.35 376.35 545.08 375.344 544.149 373.059Z" fill="black"/>
<path d="M549.051 356.729L551.482 355.743L557.986 371.77L555.555 372.756L549.051 356.729Z" fill="black"/>
<path d="M561.327 357.573L560.776 356.227C560.367 355.221 559.56 354.88 558.668 355.24C557.775 355.601 557.433 356.407 557.842 357.412L561.393 366.155C561.801 367.161 562.608 367.502 563.501 367.142C564.394 366.781 564.735 365.975 564.327 364.97L563.178 362.135L561.706 362.732L560.776 360.447L564.669 358.872L566.748 364.003C567.689 366.317 566.758 368.507 564.422 369.446C562.086 370.394 559.893 369.465 558.953 367.151L555.401 358.408C554.461 356.094 555.392 353.903 557.728 352.964C560.064 352.016 562.257 352.945 563.197 355.259L563.748 356.606L561.317 357.592L561.327 357.573Z" fill="black"/>
<path d="M564.09 350.65L566.768 349.569L574.231 359.081L569.863 348.318L572.247 347.35L578.751 363.377L576.187 364.42L568.819 355.458L572.978 365.719L570.594 366.686L564.09 350.66V350.65Z" fill="black"/>
<path d="M574.906 346.269L581.81 343.481L582.74 345.766L578.268 347.578L580.081 352.044L583.633 350.603L584.563 352.888L581.012 354.33L582.921 359.024L587.393 357.212L588.324 359.498L581.42 362.286L574.916 346.259L574.906 346.269Z" fill="black"/>
<path d="M595.804 356.473L591.351 350.575L590.088 351.087L592.775 357.706L590.344 358.692L583.84 342.666L587.648 341.129C589.965 340.19 592.063 341.101 593.003 343.415L593.715 345.179C594.323 346.667 594.162 348.061 593.374 349.133L598.321 355.477L595.795 356.502L595.804 356.473ZM589.167 348.792L590.43 348.28C591.37 347.9 591.693 347.132 591.313 346.184L590.563 344.325C590.183 343.386 589.414 343.064 588.474 343.443L587.211 343.955L589.167 348.782V348.792Z" fill="black"/>
<path d="M605.272 344.562L602.044 345.871L603.354 349.095L601.569 349.816L600.259 346.591L597.03 347.9L596.309 346.117L599.537 344.809L598.227 341.584L600.012 340.864L601.322 344.088L604.551 342.779L605.272 344.562Z" fill="black"/>
<path d="M603.762 334.595L607.569 333.059C609.886 332.12 611.985 333.03 612.925 335.344L613.685 337.222C614.625 339.536 613.742 341.651 611.434 342.58L610.057 343.14L612.697 349.645L610.266 350.631L603.762 334.605V334.595ZM610.39 340.332C611.33 339.953 611.653 339.185 611.273 338.246L610.475 336.274C610.095 335.335 609.326 335.012 608.386 335.392L607.123 335.904L609.127 340.845L610.39 340.332Z" fill="black"/>
<path d="M625.375 344.505L620.921 338.606L619.658 339.119L622.346 345.738L619.915 346.724L613.41 330.697L617.218 329.161C619.535 328.222 621.633 329.133 622.573 331.447L623.286 333.211C623.893 334.699 623.732 336.093 622.944 337.165L627.891 343.5L625.365 344.524L625.375 344.505ZM618.737 336.824L620 336.312C620.94 335.932 621.263 335.164 620.883 334.216L620.133 332.357C619.753 331.418 618.975 331.096 618.035 331.475L616.772 331.987L618.728 336.814L618.737 336.824Z" fill="black"/>
<path d="M628.206 339.119L624.655 330.376C623.715 328.062 624.646 325.871 626.981 324.932C629.317 323.984 631.511 324.913 632.451 327.227L636.002 335.971C636.942 338.285 636.012 340.475 633.676 341.414C631.34 342.362 629.146 341.433 628.206 339.119ZM633.571 336.948L630.02 328.204C629.612 327.199 628.805 326.857 627.912 327.218C627.019 327.578 626.678 328.384 627.086 329.389L630.637 338.133C631.046 339.138 631.853 339.48 632.745 339.119C633.638 338.759 633.98 337.953 633.571 336.948Z" fill="black"/>
<path d="M640.606 325.492L640.055 324.145C639.647 323.14 638.84 322.799 637.947 323.159C637.055 323.519 636.713 324.325 637.121 325.331L640.672 334.074C641.081 335.079 641.888 335.421 642.78 335.06C643.673 334.7 644.015 333.894 643.607 332.889L642.458 330.053L640.995 330.651L640.065 328.365L643.958 326.791L646.037 331.921C646.978 334.235 646.047 336.426 643.711 337.365C641.375 338.313 639.182 337.384 638.242 335.07L634.69 326.326C633.75 324.012 634.681 321.822 637.017 320.883C639.353 319.935 641.546 320.864 642.486 323.178L643.037 324.525L640.606 325.511V325.492Z" fill="black"/>
<path d="M655.332 332.386L650.878 326.488L649.615 327L652.303 333.619L649.872 334.605L643.367 318.579L647.175 317.042C649.492 316.104 651.59 317.014 652.531 319.328L653.243 321.092C653.85 322.581 653.689 323.975 652.901 325.046L657.848 331.39L655.322 332.415L655.332 332.386ZM648.694 324.705L649.957 324.193C650.897 323.813 651.22 323.045 650.84 322.097L650.09 320.238C649.71 319.299 648.932 318.977 648.001 319.356L646.738 319.868L648.694 324.695V324.705Z" fill="black"/>
<path d="M663.195 325.074L660.584 326.137L661.495 329.901L659.064 330.888L655.219 313.789L658.476 312.471L667.639 327.417L665.161 328.422L663.195 325.084V325.074ZM661.923 322.865L658.219 316.559L659.957 323.661L661.932 322.865H661.923Z" fill="black"/>
<path d="M674.069 306.146L680.573 322.172L678.142 323.159L673.689 312.168L675.873 324.069L674.173 324.752L667.45 314.681L671.904 325.672L669.52 326.639L663.016 310.612L666.453 309.218L672.711 318.597L670.574 307.549L674.059 306.136L674.069 306.146Z" fill="black"/>
<path d="M687.78 300.598L694.284 316.625L691.853 317.611L687.4 306.62L689.584 318.521L687.884 319.204L681.161 309.133L685.615 320.124L683.231 321.091L676.727 305.065L680.164 303.671L686.422 313.049L684.285 302.002L687.77 300.589L687.78 300.598Z" fill="black"/>
<path d="M690.438 299.527L697.341 296.739L698.271 299.024L693.799 300.835L695.613 305.302L699.164 303.86L700.095 306.146L696.543 307.587L698.452 312.282L702.924 310.47L703.855 312.756L696.952 315.544L690.447 299.517L690.438 299.527Z" fill="black"/>
<path d="M711.328 309.73L706.874 303.832L705.611 304.344L708.299 310.963L705.868 311.949L699.363 295.923L703.171 294.387C705.488 293.448 707.586 294.358 708.527 296.672L709.239 298.436C709.846 299.925 709.685 301.319 708.897 302.39L713.844 308.725L711.318 309.749L711.328 309.73ZM704.69 302.049L705.953 301.537C706.893 301.158 707.216 300.389 706.836 299.441L706.086 297.582C705.706 296.644 704.928 296.321 703.988 296.701L702.725 297.213L704.681 302.04L704.69 302.049Z" fill="black"/>
<path d="M528.536 391.779L532.316 393.381C534.614 394.358 535.459 396.482 534.49 398.777L530.958 407.103C529.98 409.398 527.872 410.271 525.564 409.304L521.785 407.701L528.536 391.779ZM526.419 406.98C527.35 407.378 528.128 407.056 528.527 406.127L532.097 397.706C532.496 396.776 532.173 395.999 531.243 395.6L529.989 395.069L525.166 406.44L526.419 406.971V406.98Z" fill="black"/>
<path d="M538.519 395.999L545.375 398.9L544.406 401.176L539.962 399.299L538.082 403.737L541.614 405.226L540.646 407.502L537.113 406.013L535.138 410.679L539.582 412.556L538.614 414.832L531.758 411.93L538.509 396.008L538.519 395.999Z" fill="black"/>
<path d="M547.394 399.754L551.173 401.357C553.471 402.334 554.317 404.458 553.348 406.753L552.56 408.621C551.582 410.916 549.464 411.798 547.166 410.821L545.799 410.243L543.064 416.701L540.652 415.677L547.404 399.754H547.394ZM548.011 408.488C548.942 408.887 549.721 408.564 550.119 407.635L550.946 405.681C551.344 404.752 551.022 403.974 550.091 403.576L548.838 403.045L546.758 407.957L548.011 408.488Z" fill="black"/>
<path d="M555.655 422.02L556.69 414.709L555.436 414.178L552.654 420.75L550.242 419.726L556.994 403.803L560.773 405.406C563.071 406.383 563.916 408.507 562.947 410.802L562.207 412.556C561.58 414.036 560.488 414.908 559.168 415.107L558.18 423.083L555.674 422.02H555.655ZM556.395 411.902L557.649 412.433C558.579 412.831 559.358 412.509 559.757 411.579L560.535 409.74C560.934 408.81 560.611 408.033 559.681 407.634L558.427 407.103L556.395 411.902Z" fill="black"/>
<path d="M561.466 420.219L565.15 411.532C566.128 409.237 568.331 408.346 570.648 409.323C572.975 410.309 573.867 412.509 572.889 414.804L569.205 423.49C568.227 425.785 566.024 426.677 563.707 425.7C561.38 424.714 560.488 422.514 561.466 420.219ZM566.793 422.476L570.477 413.789C570.905 412.784 570.572 411.978 569.689 411.599C568.806 411.219 567.989 411.551 567.562 412.556L563.878 421.243C563.45 422.248 563.783 423.054 564.666 423.424C565.549 423.794 566.366 423.471 566.793 422.476Z" fill="black"/>
<path d="M587.847 416.852L581.096 432.774L578.684 431.75L583.308 420.835L576.424 430.802L574.734 430.091L577.108 418.218L572.483 429.133L570.109 428.128L576.861 412.205L580.279 413.647L578.067 424.704L584.381 415.382L587.847 416.843V416.852Z" fill="black"/>
<path d="M590.487 417.971L597.343 420.873L596.375 423.149L591.931 421.271L590.051 425.709L593.583 427.198L592.614 429.474L589.082 427.985L587.107 432.651L591.551 434.529L590.582 436.805L583.727 433.903L590.478 417.981L590.487 417.971Z" fill="black"/>
<path d="M599.374 421.727L606.23 424.628L605.261 426.904L600.817 425.027L598.937 429.465L602.47 430.954L601.501 433.23L597.969 431.741L595.994 436.406L600.438 438.284L599.469 440.56L592.613 437.658L599.365 421.736L599.374 421.727Z" fill="black"/>
<path d="M607.473 425.16L615.174 428.412L614.206 430.688L611.566 429.569L605.783 443.216L603.371 442.191L609.154 428.545L606.514 427.426L607.483 425.15L607.473 425.16Z" fill="black"/>
<defs>
<clipPath id="clip0_1_149">
<rect width="1024" height="780" fill="white"/>
</clipPath>
</defs>
</svg>
