<svg width="292" height="292" viewBox="0 0 292 292" fill="none" xmlns="http://www.w3.org/2000/svg">
<path d="M146 292C226.634 292 292 226.634 292 146C292 65.3664 226.634 0 146 0C65.3664 0 0 65.3664 0 146C0 226.634 65.3664 292 146 292Z" fill="black"/>
<path d="M146.003 283.208C221.781 283.208 283.212 221.777 283.212 145.999C283.212 70.2199 221.781 8.78906 146.003 8.78906C70.2238 8.78906 8.79297 70.2199 8.79297 145.999C8.79297 221.777 70.2238 283.208 146.003 283.208Z" fill="white"/>
<path d="M149.637 144.313L273.343 93.1914C277.548 103.97 282.649 120.834 283.242 141.982C283.897 165.393 278.748 184.075 274.648 195.435C232.976 178.392 191.309 161.355 149.637 144.313Z" fill="#F4F4F4"/>
<path d="M141.094 17.3484H138.445V15.7113C140.256 15.5774 141.337 14.8481 141.804 14.0098H143.441V29.4774H141.099V17.3484H141.094Z" fill="black"/>
<path d="M145.711 25.9904V17.5075C145.711 15.3 147.189 13.7969 149.402 13.7969C151.614 13.7969 153.068 15.3 153.068 17.5075V18.0135H150.816V17.3934C150.816 16.5551 150.265 15.9995 149.422 15.9995C148.578 15.9995 148.052 16.5501 148.052 17.3934V20.9304C148.405 20.355 149.179 19.8242 150.329 19.8242C152.12 19.8242 153.182 21.0594 153.182 22.9842V25.9904C153.182 28.1979 151.679 29.7011 149.471 29.7011C147.264 29.7011 145.716 28.1979 145.716 25.9904H145.711ZM150.835 26.0996V23.3364C150.835 22.3839 150.349 21.9424 149.556 21.9424C148.628 21.9424 148.052 22.5179 148.052 23.4902V26.0996C148.052 26.9379 148.583 27.4935 149.466 27.4935C150.349 27.4935 150.835 26.9429 150.835 26.0996Z" fill="black"/>
<path d="M92.3099 28.9922L89.8593 30.0042L89.2343 28.4961C90.8564 27.6826 91.5807 26.5912 91.6849 25.6387L93.1979 25.0137L99.1161 39.3056L96.9532 40.2035L92.3099 28.9972V28.9922Z" fill="black"/>
<path d="M99.8058 35.1876L99.6272 34.761L101.626 33.6944L101.82 34.1657C102.291 35.3066 102.971 35.5547 103.764 35.2223C104.558 34.8899 104.866 34.2401 104.474 33.3025L103.105 29.9937C102.757 29.1553 102.137 28.937 101.448 29.2248C100.674 29.5472 100.322 30.3112 100.684 31.1892L100.783 31.4323L98.6995 32.2955L95.3163 24.1301L101.502 21.5703L102.346 23.6141L98.2431 25.3157L99.7165 28.8676C99.7958 28.188 100.366 27.3794 101.349 26.9726C102.961 26.3029 104.414 27.042 105.134 28.7783L106.622 32.3699C107.52 34.5328 106.776 36.3732 104.652 37.2513C102.529 38.1293 100.704 37.3554 99.8058 35.1926V35.1876Z" fill="black"/>
<path d="M51.6248 58.4488L49.7496 60.324L48.5938 59.1681C49.7794 57.794 50.0324 56.5141 49.7645 55.5914L50.9203 54.4355L61.8588 65.374L60.2019 67.0309L51.6248 58.4538V58.4488Z" fill="black"/>
<path d="M66.6038 56.0576L65.7158 56.9456L67.9977 59.2275L66.3408 60.8844L64.0589 58.6025L60.8245 61.8369L59.3412 60.3536L55.0898 50.2585L57.0593 48.2891L64.1532 55.3829L65.0461 54.49L66.6087 56.0526L66.6038 56.0576ZM62.4963 57.0398L58.2002 52.7438L60.8245 58.7116L62.4963 57.0398Z" fill="black"/>
<path d="M25.3401 101.1L24.3281 103.551L22.8151 102.925C23.3856 101.199 23.1276 99.9193 22.5273 99.1702L23.1524 97.6621L37.4443 103.58L36.5464 105.743L25.3401 101.1Z" fill="black"/>
<path d="M36.3785 93.0443L37.7031 93.595C39.8659 94.4929 40.6795 96.3383 39.7866 98.5011C38.8887 100.664 37.0086 101.393 34.8457 100.495L34.419 100.317L35.0788 98.1489L35.5501 98.3424C36.6911 98.8137 37.3856 98.5309 37.7328 97.6925C38.0801 96.8542 37.7924 96.1646 36.8548 95.7727L35.3665 95.1576C34.2256 94.6814 33.5311 94.9691 33.0548 96.115L32.6977 96.9732L30.6538 96.1299L30.9515 95.4156C31.4227 94.2746 31.14 93.5801 29.9941 93.1038L28.8928 92.6475C28.0544 92.3002 27.4194 92.5631 27.1019 93.337C26.7844 94.1109 27.0424 94.7459 28.0842 95.1774L28.4116 95.3114L27.5484 97.3949L27.0573 97.1915C24.9936 96.3383 24.2049 94.5524 25.0779 92.449C25.951 90.3457 27.7716 89.6412 29.8353 90.4945L30.7729 90.8814C32.0577 91.4122 32.777 92.3349 32.8763 93.5454C33.8436 92.6524 35.0391 92.4788 36.3885 93.0394L36.3785 93.0443Z" fill="black"/>
<path d="M17.3503 150.643V153.292H15.7133C15.5793 151.482 14.8501 150.4 14.0117 149.934V148.297H29.4794V150.638H17.3503V150.643Z" fill="black"/>
<path d="M27.271 143.615V138.977H29.4786V146.403H27.4447L21.9878 142.98C19.9539 141.7 18.8923 141.323 17.7017 141.323C16.6203 141.323 16.025 141.829 16.025 142.737C16.025 143.645 16.6203 144.151 17.7017 144.151H18.6096V146.403H17.8803C15.3603 146.403 13.8125 145.034 13.8125 142.712C13.8125 140.39 15.2511 138.977 17.6373 138.977C19.314 138.977 20.6881 139.483 23.1834 141.055L27.271 143.62V143.615Z" fill="black"/>
<path d="M28.5565 198.648L29.5685 201.099L28.0604 201.724C27.2468 200.101 26.1555 199.377 25.203 199.273L24.5779 197.76L38.8699 191.842L39.7678 194.005L28.5614 198.648H28.5565Z" fill="black"/>
<path d="M25.9082 192.259L26.9252 194.71L25.4121 195.335C24.5986 193.713 23.5072 192.989 22.5547 192.884L21.9297 191.371L36.2216 185.453L37.1195 187.616L25.9132 192.259H25.9082Z" fill="black"/>
<path d="M58.5875 240.519L60.4626 242.394L59.3068 243.55C57.9327 242.365 56.6528 242.112 55.7301 242.379L54.5742 241.224L65.5127 230.285L67.1696 231.942L58.5924 240.519H58.5875Z" fill="black"/>
<path d="M61.4152 231.162L55.4474 237.13C53.8699 238.708 51.7467 238.708 50.1493 237.115C48.5569 235.523 48.5569 233.395 50.1344 231.817L56.1022 225.849C57.6797 224.272 59.8029 224.272 61.4003 225.864C62.9927 227.457 62.9927 229.585 61.4152 231.162ZM57.7591 227.506L51.7913 233.474C51.1018 234.159 51.1018 234.942 51.7119 235.552C52.3221 236.163 53.1009 236.163 53.7905 235.473L59.7583 229.505C60.4478 228.816 60.4478 228.037 59.8376 227.427C59.2275 226.817 58.4486 226.817 57.7591 227.506Z" fill="black"/>
<path d="M93.6665 263.416L96.9158 255.578C97.7591 253.534 99.7037 252.716 101.748 253.559C103.791 254.407 104.56 256.352 103.717 258.391L103.523 258.862L101.44 257.999L101.678 257.428C102.001 256.654 101.698 255.93 100.924 255.608C100.15 255.285 99.4457 255.593 99.1283 256.372L97.774 259.636C98.3196 259.239 99.2374 259.046 100.299 259.487C101.951 260.172 102.457 261.719 101.723 263.495L100.572 266.273C99.7285 268.312 97.7641 269.126 95.7202 268.282C93.6367 267.419 92.8231 265.455 93.6714 263.416H93.6665ZM98.3593 265.48L99.416 262.93C99.7781 262.052 99.5003 261.456 98.7661 261.154C97.9079 260.797 97.1588 261.109 96.7868 262.007L95.7897 264.418C95.4672 265.192 95.745 265.906 96.5635 266.244C97.3374 266.566 98.0418 266.258 98.3593 265.48Z" fill="black"/>
<path d="M142.113 267.538V266.105C142.113 263.763 143.507 262.305 146.003 262.305C148.498 262.305 149.892 263.763 149.892 266.105V267.538C149.892 268.997 149.272 270.034 148.17 270.564C149.163 271.115 149.738 272.132 149.738 273.546V274.563C149.738 276.795 148.389 278.209 146.003 278.209C143.616 278.209 142.267 276.795 142.267 274.563V273.546C142.267 272.132 142.843 271.115 143.835 270.564C142.728 270.034 142.113 268.997 142.113 267.538ZM144.455 267.672C144.455 268.907 144.986 269.438 146.003 269.438C147.019 269.438 147.55 268.907 147.55 267.672V266.06C147.55 265.043 147.019 264.512 146.003 264.512C144.986 264.512 144.455 265.043 144.455 266.06V267.672ZM147.392 273.417C147.392 272.182 146.861 271.651 145.998 271.651C145.134 271.651 144.604 272.182 144.604 273.417V274.612C144.604 275.52 145.09 276.006 145.998 276.006C146.905 276.006 147.392 275.52 147.392 274.612V273.417Z" fill="black"/>
<path d="M193.264 269.284L192.485 267.404L190.773 253.573L193.021 252.641L194.504 266.327L198.974 264.477L199.837 266.561L193.264 269.284Z" fill="black"/>
<path d="M233.424 228.288L239.421 234.286C240.984 235.849 240.999 237.957 239.436 239.519C237.874 241.082 235.78 241.052 234.218 239.49L233.86 239.133L235.453 237.54L235.889 237.977C236.485 238.572 237.264 238.572 237.859 237.977C238.454 237.381 238.439 236.617 237.844 236.022L235.344 233.522C235.502 234.177 235.329 235.099 234.515 235.913C233.25 237.178 231.623 237.054 230.264 235.695L228.141 233.572C226.578 232.009 226.578 229.886 228.141 228.323C229.733 226.731 231.861 226.731 233.424 228.293V228.288ZM229.723 231.835L231.678 233.79C232.347 234.46 233.007 234.43 233.568 233.869C234.223 233.214 234.223 232.401 233.538 231.711L231.693 229.866C231.097 229.271 230.333 229.256 229.708 229.881C229.113 230.476 229.128 231.24 229.723 231.835Z" fill="black"/>
<path d="M258.307 188.614L258.733 188.792L258.074 190.96L257.602 190.767C256.461 190.296 255.807 190.598 255.479 191.392C255.152 192.186 255.395 192.865 256.332 193.252L259.641 194.621C260.48 194.969 261.07 194.686 261.358 193.996C261.68 193.222 261.387 192.429 260.509 192.067L260.266 191.967L261.13 189.884L269.295 193.267L266.735 199.453L264.691 198.61L266.393 194.507L262.841 193.034C263.263 193.57 263.436 194.547 263.029 195.529C262.36 197.141 260.812 197.647 259.076 196.928L255.484 195.44C253.321 194.542 252.547 192.716 253.425 190.593C254.303 188.47 256.144 187.726 258.307 188.624V188.614Z" fill="black"/>
<path d="M265.748 150.113V148.853H262.523V146.511H265.748V141.938H267.846L277.986 146.07V148.853H267.955V150.113H265.748ZM267.955 146.511H274.032L267.955 144.145V146.511Z" fill="black"/>
<path d="M259.672 102.831L258.347 103.381C256.184 104.279 254.304 103.55 253.406 101.387C252.508 99.2243 253.327 97.3789 255.49 96.481L255.916 96.3024L256.983 98.3016L256.512 98.495C255.371 98.9663 255.083 99.6608 255.43 100.499C255.777 101.338 256.472 101.62 257.409 101.233L258.898 100.618C260.039 100.147 260.326 99.4525 259.855 98.3115L259.498 97.4533L261.542 96.605L261.839 97.3194C262.311 98.4603 263.005 98.748 264.151 98.2768L265.252 97.8204C266.091 97.4731 266.354 96.8382 266.031 96.0643C265.709 95.2904 265.074 95.0275 264.032 95.4541L263.705 95.5881L262.841 93.5045L263.333 93.3011C265.396 92.4479 267.217 93.1523 268.085 95.2557C268.958 97.359 268.164 99.1449 266.106 99.9982L265.168 100.385C263.883 100.916 262.722 100.777 261.8 99.9882C261.745 101.303 261.026 102.27 259.677 102.831H259.672Z" fill="black"/>
<path d="M229.274 61.3755L232.553 64.6546L230.991 66.2172L225.742 60.9687L227.181 59.5301L233.461 58.0915C235.803 57.5607 236.82 57.0745 237.663 56.2312C238.427 55.4673 238.491 54.6835 237.851 54.0435C237.211 53.4036 236.428 53.4631 235.664 54.232L235.024 54.872L233.431 53.2796L233.947 52.7636C235.728 50.9827 237.792 50.8587 239.434 52.4958C241.076 54.1378 241.056 56.1518 239.369 57.8385C238.184 59.0241 236.854 59.6343 233.977 60.2941L229.274 61.3705V61.3755Z" fill="black"/>
<path d="M195.025 27.0521L192.574 26.0351L193.199 24.5221C194.926 25.0926 196.206 24.8346 196.955 24.2344L198.468 24.8594L192.55 39.1464L190.387 38.2485L195.03 27.0422L195.025 27.0521Z" fill="black"/>
<path d="M146.002 147.254C147.55 147.254 148.805 145.999 148.805 144.451C148.805 142.903 147.55 141.648 146.002 141.648C144.454 141.648 143.199 142.903 143.199 144.451C143.199 145.999 144.454 147.254 146.002 147.254Z" fill="black"/>
<path d="M127.33 160.037H128.754V160.501C128.754 161.29 128.636 162.037 128.402 162.741C128.167 163.445 127.81 164.069 127.33 164.613C126.85 165.146 126.231 165.557 125.474 165.845L124.61 164.453C125.228 164.207 125.735 163.882 126.13 163.477C126.535 163.071 126.834 162.613 127.026 162.101C127.228 161.589 127.33 161.055 127.33 160.501V160.037ZM127.714 160.037H129.122V160.501C129.122 161.013 129.223 161.514 129.426 162.005C129.628 162.485 129.932 162.917 130.338 163.301C130.754 163.674 131.266 163.973 131.874 164.197L131.01 165.605C130.252 165.327 129.628 164.933 129.138 164.421C128.658 163.909 128.3 163.317 128.066 162.645C127.831 161.962 127.714 161.247 127.714 160.501V160.037ZM124.978 158.933H131.458V160.421H124.978V158.933ZM127.33 157.349H129.122V159.605H127.33V157.349ZM135.282 157.205H137.09V166.229H135.282V157.205ZM133.346 160.949H135.81V162.485H133.346V160.949ZM132.194 157.445H133.97V166.149H132.194V157.445ZM127.042 166.901H137.09V171.925H135.186V168.421H127.042V166.901ZM148.928 157.205H150.848V165.557H148.928V157.205ZM141.136 166.245H150.848V171.749H141.136V166.245ZM148.976 167.749H142.992V170.245H148.976V167.749ZM142.864 157.909C143.622 157.909 144.299 158.058 144.896 158.357C145.494 158.655 145.963 159.066 146.304 159.589C146.646 160.111 146.816 160.719 146.816 161.413C146.816 162.095 146.646 162.703 146.304 163.237C145.963 163.759 145.494 164.17 144.896 164.469C144.299 164.767 143.622 164.917 142.864 164.917C142.107 164.917 141.43 164.767 140.832 164.469C140.235 164.17 139.766 163.759 139.424 163.237C139.083 162.703 138.912 162.095 138.912 161.413C138.912 160.719 139.083 160.111 139.424 159.589C139.766 159.066 140.235 158.655 140.832 158.357C141.43 158.058 142.107 157.909 142.864 157.909ZM142.864 159.477C142.47 159.477 142.112 159.557 141.792 159.717C141.472 159.866 141.222 160.085 141.04 160.373C140.859 160.661 140.768 161.007 140.768 161.413C140.768 161.797 140.859 162.138 141.04 162.437C141.222 162.725 141.472 162.949 141.792 163.109C142.112 163.258 142.47 163.333 142.864 163.333C143.27 163.333 143.627 163.258 143.936 163.109C144.256 162.949 144.507 162.725 144.688 162.437C144.87 162.138 144.96 161.797 144.96 161.413C144.96 161.007 144.87 160.661 144.688 160.373C144.507 160.085 144.256 159.866 143.936 159.717C143.627 159.557 143.27 159.477 142.864 159.477ZM162.367 157.189H164.271V165.445H162.367V157.189ZM163.759 160.501H166.287V162.053H163.759V160.501ZM158.191 158.069H160.223C160.223 159.349 159.951 160.495 159.407 161.509C158.874 162.522 158.095 163.386 157.071 164.101C156.058 164.805 154.821 165.349 153.359 165.733L152.623 164.229C153.85 163.919 154.874 163.503 155.695 162.981C156.517 162.458 157.135 161.861 157.551 161.189C157.978 160.506 158.191 159.775 158.191 158.997V158.069ZM153.311 158.069H159.311V159.589H153.311V158.069ZM154.815 166.053H164.271V171.749H154.815V166.053ZM162.399 167.557H156.687V170.229H162.399V167.557Z" fill="black"/>
<path d="M67.6596 109.657H73.2016C75.1283 109.657 76.5336 110.11 77.4176 111.017C78.3016 111.901 78.7436 113.272 78.7436 115.131V116.593C78.7436 119.064 77.9276 120.628 76.2956 121.285V121.353C77.2023 121.625 77.837 122.18 78.1996 123.019C78.585 123.858 78.7776 124.98 78.7776 126.385V130.567C78.7776 131.247 78.8003 131.802 78.8456 132.233C78.891 132.641 79.0043 133.049 79.1856 133.457H75.3776C75.2416 133.072 75.151 132.709 75.1056 132.369C75.0603 132.029 75.0376 131.417 75.0376 130.533V126.181C75.0376 125.093 74.8563 124.334 74.4936 123.903C74.1536 123.472 73.553 123.257 72.6916 123.257H71.3996V133.457H67.6596V109.657ZM72.7596 119.857C73.5076 119.857 74.063 119.664 74.4256 119.279C74.811 118.894 75.0036 118.248 75.0036 117.341V115.505C75.0036 114.644 74.845 114.02 74.5276 113.635C74.233 113.25 73.757 113.057 73.0996 113.057H71.3996V119.857H72.7596ZM81.3725 109.657H91.5725V113.057H85.1125V119.347H90.2465V122.747H85.1125V130.057H91.5725V133.457H81.3725V109.657ZM98.6525 133.797C96.8392 133.797 95.4678 133.287 94.5385 132.267C93.6092 131.224 93.1445 129.74 93.1445 127.813V126.453H96.6805V128.085C96.6805 129.626 97.3265 130.397 98.6185 130.397C99.2532 130.397 99.7292 130.216 100.046 129.853C100.386 129.468 100.556 128.856 100.556 128.017C100.556 127.02 100.33 126.147 99.8765 125.399C99.4232 124.628 98.5845 123.71 97.3605 122.645C95.8192 121.285 94.7425 120.061 94.1305 118.973C93.5185 117.862 93.2125 116.616 93.2125 115.233C93.2125 113.352 93.6885 111.901 94.6405 110.881C95.5925 109.838 96.9752 109.317 98.7885 109.317C100.579 109.317 101.928 109.838 102.834 110.881C103.764 111.901 104.228 113.374 104.228 115.301V116.287H100.692V115.063C100.692 114.247 100.534 113.658 100.216 113.295C99.8992 112.91 99.4345 112.717 98.8225 112.717C97.5758 112.717 96.9525 113.476 96.9525 114.995C96.9525 115.856 97.1792 116.661 97.6325 117.409C98.1085 118.157 98.9585 119.064 100.182 120.129C101.746 121.489 102.823 122.724 103.412 123.835C104.002 124.946 104.296 126.249 104.296 127.745C104.296 129.694 103.809 131.19 102.834 132.233C101.882 133.276 100.488 133.797 98.6525 133.797ZM106.441 109.657H111.949C113.808 109.657 115.202 110.156 116.131 111.153C117.06 112.15 117.525 113.612 117.525 115.539V117.885C117.525 119.812 117.06 121.274 116.131 122.271C115.202 123.268 113.808 123.767 111.949 123.767H110.181V133.457H106.441V109.657ZM111.949 120.367C112.561 120.367 113.014 120.197 113.309 119.857C113.626 119.517 113.785 118.939 113.785 118.123V115.301C113.785 114.485 113.626 113.907 113.309 113.567C113.014 113.227 112.561 113.057 111.949 113.057H110.181V120.367H111.949ZM124.962 133.797C123.126 133.797 121.721 133.276 120.746 132.233C119.771 131.19 119.284 129.717 119.284 127.813V115.301C119.284 113.397 119.771 111.924 120.746 110.881C121.721 109.838 123.126 109.317 124.962 109.317C126.798 109.317 128.203 109.838 129.178 110.881C130.153 111.924 130.64 113.397 130.64 115.301V127.813C130.64 129.717 130.153 131.19 129.178 132.233C128.203 133.276 126.798 133.797 124.962 133.797ZM124.962 130.397C126.254 130.397 126.9 129.615 126.9 128.051V115.063C126.9 113.499 126.254 112.717 124.962 112.717C123.67 112.717 123.024 113.499 123.024 115.063V128.051C123.024 129.615 123.67 130.397 124.962 130.397ZM133.169 109.657H137.861L141.499 123.903H141.567V109.657H144.899V133.457H141.057L136.569 116.083H136.501V133.457H133.169V109.657ZM152.541 133.797C150.728 133.797 149.356 133.287 148.427 132.267C147.498 131.224 147.033 129.74 147.033 127.813V126.453H150.569V128.085C150.569 129.626 151.215 130.397 152.507 130.397C153.142 130.397 153.618 130.216 153.935 129.853C154.275 129.468 154.445 128.856 154.445 128.017C154.445 127.02 154.218 126.147 153.765 125.399C153.312 124.628 152.473 123.71 151.249 122.645C149.708 121.285 148.631 120.061 148.019 118.973C147.407 117.862 147.101 116.616 147.101 115.233C147.101 113.352 147.577 111.901 148.529 110.881C149.481 109.838 150.864 109.317 152.677 109.317C154.468 109.317 155.816 109.838 156.723 110.881C157.652 111.901 158.117 113.374 158.117 115.301V116.287H154.581V115.063C154.581 114.247 154.422 113.658 154.105 113.295C153.788 112.91 153.323 112.717 152.711 112.717C151.464 112.717 150.841 113.476 150.841 114.995C150.841 115.856 151.068 116.661 151.521 117.409C151.997 118.157 152.847 119.064 154.071 120.129C155.635 121.489 156.712 122.724 157.301 123.835C157.89 124.946 158.185 126.249 158.185 127.745C158.185 129.694 157.698 131.19 156.723 132.233C155.771 133.276 154.377 133.797 152.541 133.797ZM160.33 109.657H164.07V133.457H160.33V109.657ZM166.871 109.657H172.515C174.441 109.657 175.847 110.11 176.731 111.017C177.615 111.901 178.057 113.272 178.057 115.131V116.083C178.057 117.307 177.853 118.304 177.445 119.075C177.059 119.846 176.459 120.401 175.643 120.741V120.809C177.501 121.444 178.431 123.098 178.431 125.773V127.813C178.431 129.649 177.943 131.054 176.969 132.029C176.017 132.981 174.611 133.457 172.753 133.457H166.871V109.657ZM172.073 119.347C172.821 119.347 173.376 119.154 173.739 118.769C174.124 118.384 174.317 117.738 174.317 116.831V115.505C174.317 114.644 174.158 114.02 173.841 113.635C173.546 113.25 173.07 113.057 172.413 113.057H170.611V119.347H172.073ZM172.753 130.057C173.41 130.057 173.897 129.887 174.215 129.547C174.532 129.184 174.691 128.572 174.691 127.711V125.637C174.691 124.549 174.498 123.801 174.113 123.393C173.75 122.962 173.138 122.747 172.277 122.747H170.611V130.057H172.753ZM180.617 109.657H184.357V133.457H180.617V109.657ZM187.158 109.657H190.898V130.057H197.052V133.457H187.158V109.657ZM198.845 109.657H202.585V133.457H198.845V109.657ZM208.31 113.057H204.4V109.657H215.96V113.057H212.05V133.457H208.31V113.057ZM221.338 123.325L216.816 109.657H220.794L223.344 118.395H223.412L225.962 109.657H229.6L225.078 123.325V133.457H221.338V123.325Z" fill="black"/>
</svg>
