<svg width="316" height="292" viewBox="0 0 316 292" fill="none" xmlns="http://www.w3.org/2000/svg">
<path d="M170 292C250.634 292 316 226.634 316 146C316 65.3664 250.634 0 170 0C89.3664 0 24 65.3664 24 146C24 226.634 89.3664 292 170 292Z" fill="black"/>
<path d="M170.003 283.208C245.781 283.208 307.212 221.777 307.212 145.999C307.212 70.2199 245.781 8.78906 170.003 8.78906C94.2238 8.78906 32.793 70.2199 32.793 145.999C32.793 221.777 94.2238 283.208 170.003 283.208Z" fill="white"/>
<path d="M173.637 144.313L297.343 93.1914C301.548 103.97 306.649 120.834 307.242 141.982C307.897 165.393 302.748 184.075 298.648 195.435C256.976 178.392 215.309 161.355 173.637 144.313Z" fill="#F4F4F4"/>
<path d="M165.094 17.3484H162.445V15.7113C164.256 15.5774 165.337 14.8481 165.804 14.0098H167.441V29.4774H165.099V17.3484H165.094Z" fill="black"/>
<path d="M169.711 25.9904V17.5075C169.711 15.3 171.189 13.7969 173.402 13.7969C175.614 13.7969 177.068 15.3 177.068 17.5075V18.0135H174.816V17.3934C174.816 16.5551 174.265 15.9995 173.422 15.9995C172.578 15.9995 172.052 16.5501 172.052 17.3934V20.9304C172.405 20.355 173.179 19.8242 174.329 19.8242C176.12 19.8242 177.182 21.0594 177.182 22.9842V25.9904C177.182 28.1979 175.679 29.7011 173.471 29.7011C171.264 29.7011 169.716 28.1979 169.716 25.9904H169.711ZM174.835 26.0995V23.3364C174.835 22.3839 174.349 21.9424 173.556 21.9424C172.628 21.9424 172.052 22.5179 172.052 23.4902V26.0995C172.052 26.9379 172.583 27.4935 173.466 27.4935C174.349 27.4935 174.835 26.9429 174.835 26.0995Z" fill="black"/>
<path d="M116.31 28.9922L113.859 30.0042L113.234 28.4961C114.857 27.6826 115.581 26.5912 115.685 25.6387L117.198 25.0137L123.116 39.3056L120.953 40.2035L116.31 28.9972V28.9922Z" fill="black"/>
<path d="M123.806 35.1876L123.627 34.761L125.626 33.6944L125.82 34.1657C126.291 35.3066 126.971 35.5547 127.765 35.2223C128.558 34.8899 128.866 34.2401 128.474 33.3025L127.105 29.9937C126.758 29.1553 126.137 28.937 125.448 29.2248C124.674 29.5472 124.322 30.3112 124.684 31.1892L124.783 31.4323L122.7 32.2955L119.316 24.1301L125.502 21.5703L126.346 23.6141L122.243 25.3157L123.717 28.8676C123.796 28.188 124.366 27.3794 125.349 26.9726C126.961 26.3029 128.414 27.042 129.134 28.7783L130.622 32.3699C131.52 34.5328 130.776 36.3732 128.653 37.2513C126.529 38.1293 124.704 37.3554 123.806 35.1926V35.1876Z" fill="black"/>
<path d="M75.6248 58.4488L73.7496 60.324L72.5938 59.1681C73.7794 57.794 74.0324 56.5141 73.7645 55.5914L74.9203 54.4355L85.8588 65.374L84.2019 67.0309L75.6248 58.4538V58.4488Z" fill="black"/>
<path d="M90.6038 56.0576L89.7158 56.9456L91.9977 59.2275L90.3408 60.8844L88.0589 58.6025L84.8245 61.8369L83.3412 60.3536L79.0898 50.2585L81.0593 48.2891L88.1532 55.3829L89.0461 54.49L90.6087 56.0526L90.6038 56.0576ZM86.4963 57.0398L82.2002 52.7438L84.8245 58.7116L86.4963 57.0398Z" fill="black"/>
<path d="M49.3401 101.1L48.3281 103.551L46.8151 102.925C47.3856 101.199 47.1276 99.9193 46.5273 99.1702L47.1524 97.6621L61.4443 103.58L60.5464 105.743L49.3401 101.1Z" fill="black"/>
<path d="M60.3785 93.0443L61.7031 93.595C63.8659 94.4929 64.6795 96.3383 63.7866 98.5011C62.8887 100.664 61.0086 101.393 58.8457 100.495L58.419 100.317L59.0788 98.1489L59.5501 98.3424C60.6911 98.8137 61.3856 98.5309 61.7328 97.6925C62.0801 96.8542 61.7924 96.1646 60.8548 95.7727L59.3665 95.1576C58.2256 94.6814 57.5311 94.9691 57.0548 96.115L56.6977 96.9732L54.6538 96.1299L54.9515 95.4156C55.4227 94.2746 55.14 93.5801 53.9941 93.1038L52.8928 92.6475C52.0544 92.3002 51.4194 92.5631 51.1019 93.337C50.7844 94.1109 51.0424 94.7459 52.0842 95.1774L52.4116 95.3114L51.5484 97.3949L51.0573 97.1915C48.9936 96.3383 48.2049 94.5524 49.0779 92.449C49.951 90.3457 51.7716 89.6412 53.8353 90.4945L54.7729 90.8814C56.0577 91.4122 56.777 92.3349 56.8763 93.5454C57.8436 92.6524 59.0391 92.4788 60.3885 93.0394L60.3785 93.0443Z" fill="black"/>
<path d="M41.3503 150.643V153.292H39.7133C39.5793 151.482 38.8501 150.4 38.0117 149.934V148.297H53.4794V150.638H41.3503V150.643Z" fill="black"/>
<path d="M51.271 143.615V138.977H53.4786V146.403H51.4447L45.9878 142.98C43.9539 141.7 42.8923 141.323 41.7017 141.323C40.6203 141.323 40.025 141.829 40.025 142.737C40.025 143.645 40.6203 144.151 41.7017 144.151H42.6096V146.403H41.8803C39.3603 146.403 37.8125 145.034 37.8125 142.712C37.8125 140.39 39.2511 138.977 41.6373 138.977C43.314 138.977 44.6881 139.483 47.1834 141.055L51.271 143.62V143.615Z" fill="black"/>
<path d="M52.5566 198.648L53.5686 201.099L52.0606 201.724C51.247 200.101 50.1556 199.377 49.2032 199.273L48.5781 197.76L62.8701 191.842L63.768 194.005L52.5616 198.648H52.5566Z" fill="black"/>
<path d="M49.9082 192.259L50.9252 194.71L49.4121 195.335C48.5986 193.713 47.5072 192.989 46.5547 192.884L45.9297 191.371L60.2216 185.453L61.1195 187.616L49.9132 192.259H49.9082Z" fill="black"/>
<path d="M82.5875 240.519L84.4626 242.394L83.3068 243.55C81.9327 242.365 80.6528 242.112 79.7301 242.379L78.5742 241.224L89.5127 230.285L91.1696 231.942L82.5924 240.519H82.5875Z" fill="black"/>
<path d="M85.4152 231.162L79.4474 237.13C77.8699 238.708 75.7467 238.708 74.1493 237.115C72.5569 235.523 72.5569 233.395 74.1344 231.817L80.1022 225.849C81.6797 224.272 83.8029 224.272 85.4003 225.864C86.9927 227.457 86.9927 229.585 85.4152 231.162ZM81.7591 227.506L75.7913 233.474C75.1018 234.159 75.1018 234.942 75.7119 235.552C76.3221 236.163 77.1009 236.163 77.7905 235.473L83.7583 229.505C84.4478 228.816 84.4478 228.037 83.8376 227.427C83.2275 226.817 82.4486 226.817 81.7591 227.506Z" fill="black"/>
<path d="M117.666 263.416L120.916 255.578C121.759 253.534 123.704 252.716 125.748 253.559C127.791 254.407 128.56 256.352 127.717 258.391L127.523 258.862L125.44 257.999L125.678 257.428C126.001 256.654 125.698 255.93 124.924 255.608C124.15 255.285 123.446 255.593 123.128 256.372L121.774 259.636C122.32 259.239 123.237 259.046 124.299 259.487C125.951 260.172 126.457 261.719 125.723 263.495L124.572 266.273C123.729 268.312 121.764 269.126 119.72 268.282C117.637 267.419 116.823 265.455 117.671 263.416H117.666ZM122.359 265.48L123.416 262.93C123.778 262.052 123.5 261.456 122.766 261.154C121.908 260.797 121.159 261.109 120.787 262.007L119.79 264.418C119.467 265.192 119.745 265.906 120.564 266.244C121.337 266.566 122.042 266.258 122.359 265.48Z" fill="black"/>
<path d="M166.113 267.538V266.105C166.113 263.763 167.507 262.305 170.003 262.305C172.498 262.305 173.892 263.763 173.892 266.105V267.538C173.892 268.997 173.272 270.034 172.17 270.564C173.163 271.115 173.738 272.132 173.738 273.546V274.563C173.738 276.795 172.389 278.209 170.003 278.209C167.616 278.209 166.267 276.795 166.267 274.563V273.546C166.267 272.132 166.843 271.115 167.835 270.564C166.728 270.034 166.113 268.997 166.113 267.538ZM168.455 267.672C168.455 268.907 168.986 269.438 170.003 269.438C171.019 269.438 171.55 268.907 171.55 267.672V266.06C171.55 265.043 171.019 264.512 170.003 264.512C168.986 264.512 168.455 265.043 168.455 266.06V267.672ZM171.392 273.417C171.392 272.182 170.861 271.651 169.998 271.651C169.134 271.651 168.604 272.182 168.604 273.417V274.612C168.604 275.52 169.09 276.006 169.998 276.006C170.905 276.006 171.392 275.52 171.392 274.612V273.417Z" fill="black"/>
<path d="M217.264 269.284L216.485 267.404L214.773 253.573L217.021 252.641L218.504 266.327L222.974 264.477L223.837 266.561L217.264 269.284Z" fill="black"/>
<path d="M257.424 228.288L263.421 234.286C264.984 235.849 264.999 237.957 263.436 239.519C261.874 241.082 259.78 241.052 258.218 239.49L257.86 239.133L259.453 237.54L259.889 237.977C260.485 238.572 261.264 238.572 261.859 237.977C262.454 237.381 262.439 236.617 261.844 236.022L259.344 233.522C259.502 234.177 259.329 235.099 258.515 235.913C257.25 237.178 255.623 237.054 254.264 235.695L252.141 233.572C250.578 232.009 250.578 229.886 252.141 228.323C253.733 226.731 255.861 226.731 257.424 228.293V228.288ZM253.723 231.835L255.678 233.79C256.347 234.46 257.007 234.43 257.568 233.869C258.223 233.214 258.223 232.401 257.538 231.711L255.693 229.866C255.097 229.271 254.333 229.256 253.708 229.881C253.113 230.476 253.128 231.24 253.723 231.835Z" fill="black"/>
<path d="M282.307 188.614L282.733 188.792L282.074 190.96L281.602 190.767C280.461 190.296 279.807 190.598 279.479 191.392C279.152 192.186 279.395 192.865 280.332 193.252L283.641 194.621C284.48 194.969 285.07 194.686 285.358 193.996C285.68 193.222 285.387 192.429 284.509 192.067L284.266 191.967L285.13 189.884L293.295 193.267L290.735 199.453L288.691 198.61L290.393 194.507L286.841 193.034C287.263 193.57 287.436 194.547 287.029 195.529C286.36 197.141 284.812 197.647 283.076 196.928L279.484 195.44C277.321 194.542 276.547 192.716 277.425 190.593C278.303 188.47 280.144 187.726 282.307 188.624V188.614Z" fill="black"/>
<path d="M289.748 150.113V148.853H286.523V146.511H289.748V141.938H291.846L301.986 146.07V148.853H291.955V150.113H289.748ZM291.955 146.511H298.032L291.955 144.145V146.511Z" fill="black"/>
<path d="M283.672 102.831L282.347 103.381C280.184 104.279 278.304 103.55 277.406 101.387C276.508 99.2243 277.327 97.3789 279.49 96.481L279.916 96.3024L280.983 98.3016L280.512 98.495C279.371 98.9663 279.083 99.6608 279.43 100.499C279.777 101.338 280.472 101.62 281.409 101.233L282.898 100.618C284.039 100.147 284.326 99.4525 283.855 98.3115L283.498 97.4533L285.542 96.605L285.839 97.3194C286.311 98.4603 287.005 98.748 288.151 98.2768L289.252 97.8204C290.091 97.4731 290.354 96.8382 290.031 96.0643C289.709 95.2904 289.074 95.0275 288.032 95.4541L287.705 95.5881L286.841 93.5045L287.333 93.3011C289.396 92.4479 291.217 93.1523 292.085 95.2557C292.958 97.359 292.164 99.1449 290.106 99.9982L289.168 100.385C287.883 100.916 286.722 100.777 285.8 99.9882C285.745 101.303 285.026 102.27 283.677 102.831H283.672Z" fill="black"/>
<path d="M253.274 61.3755L256.553 64.6546L254.991 66.2172L249.742 60.9687L251.181 59.5301L257.461 58.0915C259.803 57.5607 260.82 57.0745 261.663 56.2312C262.427 55.4673 262.491 54.6835 261.851 54.0435C261.211 53.4036 260.428 53.4631 259.664 54.232L259.024 54.872L257.431 53.2796L257.947 52.7636C259.728 50.9827 261.792 50.8587 263.434 52.4958C265.076 54.1378 265.056 56.1518 263.369 57.8385C262.184 59.0241 260.854 59.6343 257.977 60.2941L253.274 61.3705V61.3755Z" fill="black"/>
<path d="M219.025 27.0521L216.574 26.0351L217.199 24.5221C218.926 25.0926 220.206 24.8346 220.955 24.2344L222.468 24.8594L216.55 39.1464L214.387 38.2485L219.03 27.0422L219.025 27.0521Z" fill="black"/>
<path d="M170.002 147.254C171.55 147.254 172.805 145.999 172.805 144.451C172.805 142.903 171.55 141.648 170.002 141.648C168.454 141.648 167.199 142.903 167.199 144.451C167.199 145.999 168.454 147.254 170.002 147.254Z" fill="black"/>
<path d="M151.33 160.037H152.754V160.501C152.754 161.29 152.636 162.037 152.402 162.741C152.167 163.445 151.81 164.069 151.33 164.613C150.85 165.146 150.231 165.557 149.474 165.845L148.61 164.453C149.228 164.207 149.735 163.882 150.13 163.477C150.535 163.071 150.834 162.613 151.026 162.101C151.228 161.589 151.33 161.055 151.33 160.501V160.037ZM151.714 160.037H153.122V160.501C153.122 161.013 153.223 161.514 153.426 162.005C153.628 162.485 153.932 162.917 154.338 163.301C154.754 163.674 155.266 163.973 155.874 164.197L155.01 165.605C154.252 165.327 153.628 164.933 153.138 164.421C152.658 163.909 152.3 163.317 152.066 162.645C151.831 161.962 151.714 161.247 151.714 160.501V160.037ZM148.978 158.933H155.458V160.421H148.978V158.933ZM151.33 157.349H153.122V159.605H151.33V157.349ZM159.282 157.205H161.09V166.229H159.282V157.205ZM157.346 160.949H159.81V162.485H157.346V160.949ZM156.194 157.445H157.97V166.149H156.194V157.445ZM151.042 166.901H161.09V171.925H159.186V168.421H151.042V166.901ZM172.928 157.205H174.848V165.557H172.928V157.205ZM165.136 166.245H174.848V171.749H165.136V166.245ZM172.976 167.749H166.992V170.245H172.976V167.749ZM166.864 157.909C167.622 157.909 168.299 158.058 168.896 158.357C169.494 158.655 169.963 159.066 170.304 159.589C170.646 160.111 170.816 160.719 170.816 161.413C170.816 162.095 170.646 162.703 170.304 163.237C169.963 163.759 169.494 164.17 168.896 164.469C168.299 164.767 167.622 164.917 166.864 164.917C166.107 164.917 165.43 164.767 164.832 164.469C164.235 164.17 163.766 163.759 163.424 163.237C163.083 162.703 162.912 162.095 162.912 161.413C162.912 160.719 163.083 160.111 163.424 159.589C163.766 159.066 164.235 158.655 164.832 158.357C165.43 158.058 166.107 157.909 166.864 157.909ZM166.864 159.477C166.47 159.477 166.112 159.557 165.792 159.717C165.472 159.866 165.222 160.085 165.04 160.373C164.859 160.661 164.768 161.007 164.768 161.413C164.768 161.797 164.859 162.138 165.04 162.437C165.222 162.725 165.472 162.949 165.792 163.109C166.112 163.258 166.47 163.333 166.864 163.333C167.27 163.333 167.627 163.258 167.936 163.109C168.256 162.949 168.507 162.725 168.688 162.437C168.87 162.138 168.96 161.797 168.96 161.413C168.96 161.007 168.87 160.661 168.688 160.373C168.507 160.085 168.256 159.866 167.936 159.717C167.627 159.557 167.27 159.477 166.864 159.477ZM186.367 157.189H188.271V165.445H186.367V157.189ZM187.759 160.501H190.287V162.053H187.759V160.501ZM182.191 158.069H184.223C184.223 159.349 183.951 160.495 183.407 161.509C182.874 162.522 182.095 163.386 181.071 164.101C180.058 164.805 178.821 165.349 177.359 165.733L176.623 164.229C177.85 163.919 178.874 163.503 179.695 162.981C180.517 162.458 181.135 161.861 181.551 161.189C181.978 160.506 182.191 159.775 182.191 158.997V158.069ZM177.311 158.069H183.311V159.589H177.311V158.069ZM178.815 166.053H188.271V171.749H178.815V166.053ZM186.399 167.557H180.687V170.229H186.399V167.557Z" fill="black"/>
<path d="M91.6596 109.657H97.2016C99.1283 109.657 100.534 110.11 101.418 111.017C102.302 111.901 102.744 113.272 102.744 115.131V116.593C102.744 119.064 101.928 120.628 100.296 121.285V121.353C101.202 121.625 101.837 122.18 102.2 123.019C102.585 123.858 102.778 124.98 102.778 126.385V130.567C102.778 131.247 102.8 131.802 102.846 132.233C102.891 132.641 103.004 133.049 103.186 133.457H99.3776C99.2416 133.072 99.151 132.709 99.1056 132.369C99.0603 132.029 99.0376 131.417 99.0376 130.533V126.181C99.0376 125.093 98.8563 124.334 98.4936 123.903C98.1536 123.472 97.553 123.257 96.6916 123.257H95.3996V133.457H91.6596V109.657ZM96.7596 119.857C97.5076 119.857 98.063 119.664 98.4256 119.279C98.811 118.894 99.0036 118.248 99.0036 117.341V115.505C99.0036 114.644 98.845 114.02 98.5276 113.635C98.233 113.25 97.757 113.057 97.0996 113.057H95.3996V119.857H96.7596ZM105.373 109.657H115.573V113.057H109.113V119.347H114.247V122.747H109.113V130.057H115.573V133.457H105.373V109.657ZM122.652 133.797C120.839 133.797 119.468 133.287 118.538 132.267C117.609 131.224 117.144 129.74 117.144 127.813V126.453H120.68V128.085C120.68 129.626 121.326 130.397 122.618 130.397C123.253 130.397 123.729 130.216 124.046 129.853C124.386 129.468 124.556 128.856 124.556 128.017C124.556 127.02 124.33 126.147 123.876 125.399C123.423 124.628 122.584 123.71 121.36 122.645C119.819 121.285 118.742 120.061 118.13 118.973C117.518 117.862 117.212 116.616 117.212 115.233C117.212 113.352 117.688 111.901 118.64 110.881C119.592 109.838 120.975 109.317 122.788 109.317C124.579 109.317 125.928 109.838 126.834 110.881C127.764 111.901 128.228 113.374 128.228 115.301V116.287H124.692V115.063C124.692 114.247 124.534 113.658 124.216 113.295C123.899 112.91 123.434 112.717 122.822 112.717C121.576 112.717 120.952 113.476 120.952 114.995C120.952 115.856 121.179 116.661 121.632 117.409C122.108 118.157 122.958 119.064 124.182 120.129C125.746 121.489 126.823 122.724 127.412 123.835C128.002 124.946 128.296 126.249 128.296 127.745C128.296 129.694 127.809 131.19 126.834 132.233C125.882 133.276 124.488 133.797 122.652 133.797ZM130.441 109.657H135.949C137.808 109.657 139.202 110.156 140.131 111.153C141.06 112.15 141.525 113.612 141.525 115.539V117.885C141.525 119.812 141.06 121.274 140.131 122.271C139.202 123.268 137.808 123.767 135.949 123.767H134.181V133.457H130.441V109.657ZM135.949 120.367C136.561 120.367 137.014 120.197 137.309 119.857C137.626 119.517 137.785 118.939 137.785 118.123V115.301C137.785 114.485 137.626 113.907 137.309 113.567C137.014 113.227 136.561 113.057 135.949 113.057H134.181V120.367H135.949ZM148.962 133.797C147.126 133.797 145.721 133.276 144.746 132.233C143.771 131.19 143.284 129.717 143.284 127.813V115.301C143.284 113.397 143.771 111.924 144.746 110.881C145.721 109.838 147.126 109.317 148.962 109.317C150.798 109.317 152.203 109.838 153.178 110.881C154.153 111.924 154.64 113.397 154.64 115.301V127.813C154.64 129.717 154.153 131.19 153.178 132.233C152.203 133.276 150.798 133.797 148.962 133.797ZM148.962 130.397C150.254 130.397 150.9 129.615 150.9 128.051V115.063C150.9 113.499 150.254 112.717 148.962 112.717C147.67 112.717 147.024 113.499 147.024 115.063V128.051C147.024 129.615 147.67 130.397 148.962 130.397ZM157.169 109.657H161.861L165.499 123.903H165.567V109.657H168.899V133.457H165.057L160.569 116.083H160.501V133.457H157.169V109.657ZM176.541 133.797C174.728 133.797 173.356 133.287 172.427 132.267C171.498 131.224 171.033 129.74 171.033 127.813V126.453H174.569V128.085C174.569 129.626 175.215 130.397 176.507 130.397C177.142 130.397 177.618 130.216 177.935 129.853C178.275 129.468 178.445 128.856 178.445 128.017C178.445 127.02 178.218 126.147 177.765 125.399C177.312 124.628 176.473 123.71 175.249 122.645C173.708 121.285 172.631 120.061 172.019 118.973C171.407 117.862 171.101 116.616 171.101 115.233C171.101 113.352 171.577 111.901 172.529 110.881C173.481 109.838 174.864 109.317 176.677 109.317C178.468 109.317 179.816 109.838 180.723 110.881C181.652 111.901 182.117 113.374 182.117 115.301V116.287H178.581V115.063C178.581 114.247 178.422 113.658 178.105 113.295C177.788 112.91 177.323 112.717 176.711 112.717C175.464 112.717 174.841 113.476 174.841 114.995C174.841 115.856 175.068 116.661 175.521 117.409C175.997 118.157 176.847 119.064 178.071 120.129C179.635 121.489 180.712 122.724 181.301 123.835C181.89 124.946 182.185 126.249 182.185 127.745C182.185 129.694 181.698 131.19 180.723 132.233C179.771 133.276 178.377 133.797 176.541 133.797ZM184.33 109.657H188.07V133.457H184.33V109.657ZM190.871 109.657H196.515C198.441 109.657 199.847 110.11 200.731 111.017C201.615 111.901 202.057 113.272 202.057 115.131V116.083C202.057 117.307 201.853 118.304 201.445 119.075C201.059 119.846 200.459 120.401 199.643 120.741V120.809C201.501 121.444 202.431 123.098 202.431 125.773V127.813C202.431 129.649 201.943 131.054 200.969 132.029C200.017 132.981 198.611 133.457 196.753 133.457H190.871V109.657ZM196.073 119.347C196.821 119.347 197.376 119.154 197.739 118.769C198.124 118.384 198.317 117.738 198.317 116.831V115.505C198.317 114.644 198.158 114.02 197.841 113.635C197.546 113.25 197.07 113.057 196.413 113.057H194.611V119.347H196.073ZM196.753 130.057C197.41 130.057 197.897 129.887 198.215 129.547C198.532 129.184 198.691 128.572 198.691 127.711V125.637C198.691 124.549 198.498 123.801 198.113 123.393C197.75 122.962 197.138 122.747 196.277 122.747H194.611V130.057H196.753ZM204.617 109.657H208.357V133.457H204.617V109.657ZM211.158 109.657H214.898V130.057H221.052V133.457H211.158V109.657ZM222.845 109.657H226.585V133.457H222.845V109.657ZM232.31 113.057H228.4V109.657H239.96V113.057H236.05V133.457H232.31V113.057ZM245.338 123.325L240.816 109.657H244.794L247.344 118.395H247.412L249.962 109.657H253.6L249.078 123.325V133.457H245.338V123.325Z" fill="black"/>
</svg>
