<svg width="316" height="292" viewBox="0 0 316 292" fill="none" xmlns="http://www.w3.org/2000/svg">
<path d="M146 292C226.634 292 292 226.634 292 146C292 65.3664 226.634 0 146 0C65.3664 0 0 65.3664 0 146C0 226.634 65.3664 292 146 292Z" fill="black"/>
<path d="M146.002 283.21C221.781 283.21 283.212 221.779 283.212 146.001C283.212 70.2218 221.781 8.79102 146.002 8.79102C70.2238 8.79102 8.79297 70.2218 8.79297 146.001C8.79297 221.779 70.2238 283.21 146.002 283.21Z" fill="white"/>
<path d="M149.809 144.313L273.515 93.1914C277.72 103.97 282.821 120.834 283.414 141.982C284.069 165.393 278.92 184.075 274.82 195.435C233.148 178.392 191.481 161.355 149.809 144.313Z" fill="#F4F4F4"/>
<path d="M141.094 17.3484H138.445V15.7113C140.256 15.5774 141.337 14.8481 141.804 14.0098H143.441V29.4774H141.099V17.3484H141.094Z" fill="black"/>
<path d="M145.711 25.9904V17.5075C145.711 15.3 147.189 13.7969 149.402 13.7969C151.614 13.7969 153.068 15.3 153.068 17.5075V18.0135H150.816V17.3934C150.816 16.5551 150.265 15.9995 149.422 15.9995C148.578 15.9995 148.052 16.5501 148.052 17.3934V20.9304C148.405 20.355 149.179 19.8242 150.329 19.8242C152.12 19.8242 153.182 21.0594 153.182 22.9842V25.9904C153.182 28.1979 151.679 29.7011 149.471 29.7011C147.264 29.7011 145.716 28.1979 145.716 25.9904H145.711ZM150.835 26.0995V23.3364C150.835 22.3839 150.349 21.9424 149.556 21.9424C148.628 21.9424 148.052 22.5179 148.052 23.4902V26.0995C148.052 26.9379 148.583 27.4935 149.466 27.4935C150.349 27.4935 150.835 26.9429 150.835 26.0995Z" fill="black"/>
<path d="M92.31 28.9922L89.8594 30.0042L89.2344 28.4961C90.8565 27.6826 91.5808 26.5912 91.685 25.6387L93.198 25.0137L99.1162 39.3056L96.9533 40.2035L92.31 28.9972V28.9922Z" fill="black"/>
<path d="M99.8059 35.1876L99.6273 34.761L101.626 33.6944L101.82 34.1657C102.291 35.3066 102.971 35.5547 103.765 35.2223C104.558 34.8899 104.866 34.2401 104.474 33.3025L103.105 29.9937C102.758 29.1553 102.137 28.937 101.448 29.2248C100.674 29.5472 100.322 30.3112 100.684 31.1892L100.783 31.4323L98.6996 32.2955L95.3164 24.1301L101.502 21.5703L102.346 23.6141L98.2432 25.3157L99.7166 28.8676C99.796 28.188 100.366 27.3794 101.349 26.9726C102.961 26.3029 104.414 27.042 105.134 28.7783L106.622 32.3699C107.52 34.5328 106.776 36.3732 104.653 37.2513C102.529 38.1293 100.704 37.3554 99.8059 35.1926V35.1876Z" fill="black"/>
<path d="M51.6287 58.4488L49.7535 60.324L48.5977 59.1681C49.7833 57.794 50.0363 56.5141 49.7684 55.5914L50.9242 54.4355L61.8627 65.374L60.2058 67.0309L51.6287 58.4538V58.4488Z" fill="black"/>
<path d="M66.6077 56.0576L65.7197 56.9456L68.0016 59.2275L66.3448 60.8844L64.0628 58.6025L60.8284 61.8369L59.3451 60.3536L55.0938 50.2585L57.0632 48.2891L64.1571 55.3829L65.05 54.49L66.6126 56.0526L66.6077 56.0576ZM62.5002 57.0398L58.2042 52.7438L60.8284 58.7116L62.5002 57.0398Z" fill="black"/>
<path d="M25.3401 101.1L24.3281 103.551L22.8151 102.925C23.3856 101.199 23.1276 99.9193 22.5273 99.1702L23.1524 97.6621L37.4443 103.58L36.5464 105.743L25.3401 101.1Z" fill="black"/>
<path d="M36.3785 93.0443L37.7031 93.595C39.8659 94.4929 40.6795 96.3383 39.7866 98.5011C38.8887 100.664 37.0086 101.393 34.8457 100.495L34.419 100.317L35.0788 98.1489L35.5501 98.3424C36.6911 98.8137 37.3856 98.5309 37.7328 97.6925C38.0801 96.8542 37.7924 96.1646 36.8548 95.7727L35.3665 95.1576C34.2256 94.6814 33.5311 94.9691 33.0548 96.115L32.6977 96.9732L30.6538 96.1299L30.9515 95.4156C31.4227 94.2746 31.14 93.5801 29.9941 93.1038L28.8928 92.6475C28.0544 92.3002 27.4194 92.5631 27.1019 93.337C26.7844 94.1109 27.0424 94.7459 28.0842 95.1774L28.4116 95.3114L27.5484 97.3949L27.0573 97.1915C24.9936 96.3383 24.2049 94.5524 25.0779 92.449C25.951 90.3457 27.7716 89.6412 29.8353 90.4945L30.7729 90.8814C32.0577 91.4122 32.777 92.3349 32.8763 93.5454C33.8436 92.6524 35.0391 92.4788 36.3885 93.0394L36.3785 93.0443Z" fill="black"/>
<path d="M17.3503 150.643V153.292H15.7133C15.5793 151.482 14.8501 150.4 14.0117 149.934V148.297H29.4794V150.638H17.3503V150.643Z" fill="black"/>
<path d="M27.271 143.615V138.977H29.4786V146.403H27.4447L21.9878 142.98C19.9539 141.7 18.8923 141.323 17.7017 141.323C16.6203 141.323 16.025 141.829 16.025 142.737C16.025 143.645 16.6203 144.151 17.7017 144.151H18.6096V146.403H17.8803C15.3603 146.403 13.8125 145.034 13.8125 142.712C13.8125 140.39 15.2511 138.977 17.6373 138.977C19.314 138.977 20.6881 139.483 23.1834 141.055L27.271 143.62V143.615Z" fill="black"/>
<path d="M28.5566 198.648L29.5686 201.099L28.0606 201.724C27.247 200.101 26.1556 199.377 25.2032 199.273L24.5781 197.76L38.8701 191.842L39.768 194.005L28.5616 198.648H28.5566Z" fill="black"/>
<path d="M25.9082 192.259L26.9252 194.71L25.4121 195.335C24.5986 193.713 23.5072 192.989 22.5547 192.884L21.9297 191.371L36.2216 185.453L37.1195 187.616L25.9132 192.259H25.9082Z" fill="black"/>
<path d="M58.5875 240.519L60.4626 242.394L59.3068 243.55C57.9327 242.365 56.6528 242.112 55.7301 242.379L54.5742 241.224L65.5127 230.285L67.1696 231.942L58.5924 240.519H58.5875Z" fill="black"/>
<path d="M61.4152 231.162L55.4474 237.13C53.8699 238.708 51.7467 238.708 50.1493 237.115C48.5569 235.523 48.5569 233.395 50.1344 231.817L56.1022 225.849C57.6797 224.272 59.8029 224.272 61.4003 225.864C62.9927 227.457 62.9927 229.585 61.4152 231.162ZM57.7591 227.506L51.7913 233.474C51.1018 234.159 51.1018 234.942 51.7119 235.552C52.3221 236.163 53.1009 236.163 53.7905 235.473L59.7583 229.505C60.4478 228.816 60.4478 228.037 59.8376 227.427C59.2275 226.817 58.4486 226.817 57.7591 227.506Z" fill="black"/>
<path d="M93.6665 263.416L96.9158 255.578C97.7591 253.534 99.7037 252.716 101.748 253.559C103.791 254.407 104.56 256.352 103.717 258.391L103.523 258.862L101.44 257.999L101.678 257.428C102.001 256.654 101.698 255.93 100.924 255.608C100.15 255.285 99.4457 255.593 99.1283 256.372L97.774 259.636C98.3196 259.239 99.2374 259.046 100.299 259.487C101.951 260.172 102.457 261.719 101.723 263.495L100.572 266.273C99.7285 268.312 97.7641 269.126 95.7202 268.282C93.6367 267.419 92.8231 265.455 93.6714 263.416H93.6665ZM98.3593 265.48L99.416 262.93C99.7781 262.052 99.5003 261.456 98.7661 261.154C97.9079 260.797 97.1588 261.109 96.7868 262.007L95.7897 264.418C95.4672 265.192 95.745 265.906 96.5635 266.244C97.3374 266.566 98.0418 266.258 98.3593 265.48Z" fill="black"/>
<path d="M142.113 267.538V266.105C142.113 263.763 143.507 262.305 146.003 262.305C148.498 262.305 149.892 263.763 149.892 266.105V267.538C149.892 268.997 149.272 270.034 148.17 270.564C149.163 271.115 149.738 272.132 149.738 273.546V274.563C149.738 276.795 148.389 278.209 146.003 278.209C143.616 278.209 142.267 276.795 142.267 274.563V273.546C142.267 272.132 142.843 271.115 143.835 270.564C142.728 270.034 142.113 268.997 142.113 267.538ZM144.455 267.672C144.455 268.907 144.986 269.438 146.003 269.438C147.019 269.438 147.55 268.907 147.55 267.672V266.06C147.55 265.043 147.019 264.512 146.003 264.512C144.986 264.512 144.455 265.043 144.455 266.06V267.672ZM147.392 273.417C147.392 272.182 146.861 271.651 145.998 271.651C145.134 271.651 144.604 272.182 144.604 273.417V274.612C144.604 275.52 145.09 276.006 145.998 276.006C146.905 276.006 147.392 275.52 147.392 274.612V273.417Z" fill="black"/>
<path d="M193.264 269.284L192.485 267.404L190.773 253.573L193.021 252.641L194.504 266.327L198.974 264.477L199.837 266.561L193.264 269.284Z" fill="black"/>
<path d="M233.424 228.288L239.421 234.286C240.984 235.849 240.999 237.957 239.436 239.519C237.874 241.082 235.78 241.052 234.218 239.49L233.86 239.133L235.453 237.54L235.889 237.977C236.485 238.572 237.264 238.572 237.859 237.977C238.454 237.381 238.439 236.617 237.844 236.022L235.344 233.522C235.502 234.177 235.329 235.099 234.515 235.913C233.25 237.178 231.623 237.054 230.264 235.695L228.141 233.572C226.578 232.009 226.578 229.886 228.141 228.323C229.733 226.731 231.861 226.731 233.424 228.293V228.288ZM229.723 231.835L231.678 233.79C232.347 234.46 233.007 234.43 233.568 233.869C234.223 233.214 234.223 232.401 233.538 231.711L231.693 229.866C231.097 229.271 230.333 229.256 229.708 229.881C229.113 230.476 229.128 231.24 229.723 231.835Z" fill="black"/>
<path d="M258.307 188.614L258.733 188.792L258.074 190.96L257.602 190.767C256.461 190.296 255.807 190.598 255.479 191.392C255.152 192.186 255.395 192.865 256.332 193.252L259.641 194.621C260.48 194.969 261.07 194.686 261.358 193.996C261.68 193.222 261.387 192.429 260.509 192.067L260.266 191.967L261.13 189.884L269.295 193.267L266.735 199.453L264.691 198.61L266.393 194.507L262.841 193.034C263.263 193.57 263.436 194.547 263.029 195.529C262.36 197.141 260.812 197.647 259.076 196.928L255.484 195.44C253.321 194.542 252.547 192.716 253.425 190.593C254.303 188.47 256.144 187.726 258.307 188.624V188.614Z" fill="black"/>
<path d="M265.748 150.113V148.853H262.523V146.511H265.748V141.938H267.846L277.986 146.07V148.853H267.955V150.113H265.748ZM267.955 146.511H274.032L267.955 144.145V146.511Z" fill="black"/>
<path d="M259.672 102.833L258.347 103.383C256.184 104.281 254.304 103.552 253.406 101.389C252.508 99.2262 253.327 97.3808 255.49 96.4829L255.916 96.3044L256.983 98.3035L256.512 98.497C255.371 98.9683 255.083 99.6628 255.43 100.501C255.777 101.34 256.472 101.622 257.409 101.235L258.898 100.62C260.039 100.149 260.326 99.4544 259.855 98.3135L259.498 97.4553L261.542 96.607L261.839 97.3213C262.311 98.4623 263.005 98.75 264.151 98.2787L265.252 97.8223C266.091 97.4751 266.354 96.8401 266.031 96.0662C265.709 95.2924 265.074 95.0294 264.032 95.4561L263.705 95.59L262.841 93.5065L263.333 93.3031C265.396 92.4498 267.217 93.1543 268.085 95.2576C268.958 97.361 268.164 99.1469 266.106 100L265.168 100.387C263.883 100.918 262.722 100.779 261.8 99.9902C261.745 101.305 261.026 102.272 259.677 102.833H259.672Z" fill="black"/>
<path d="M229.274 61.3755L232.553 64.6546L230.991 66.2172L225.742 60.9687L227.181 59.5301L233.461 58.0915C235.803 57.5607 236.82 57.0745 237.663 56.2312C238.427 55.4673 238.491 54.6835 237.851 54.0435C237.211 53.4036 236.428 53.4631 235.664 54.232L235.024 54.872L233.431 53.2796L233.947 52.7636C235.728 50.9827 237.792 50.8587 239.434 52.4958C241.076 54.1378 241.056 56.1518 239.369 57.8385C238.184 59.0241 236.854 59.6343 233.977 60.2941L229.274 61.3705V61.3755Z" fill="black"/>
<path d="M195.025 27.0521L192.574 26.0351L193.199 24.5221C194.926 25.0926 196.206 24.8346 196.955 24.2344L198.468 24.8594L192.55 39.1464L190.387 38.2485L195.03 27.0422L195.025 27.0521Z" fill="black"/>
<path d="M146.002 147.254C147.55 147.254 148.805 145.999 148.805 144.451C148.805 142.903 147.55 141.648 146.002 141.648C144.454 141.648 143.199 142.903 143.199 144.451C143.199 145.999 144.454 147.254 146.002 147.254Z" fill="black"/>
<path d="M138.334 166.389C139.39 166.389 140.302 166.501 141.07 166.725C141.849 166.949 142.452 167.269 142.878 167.685C143.305 168.09 143.518 168.581 143.518 169.157C143.518 169.733 143.305 170.223 142.878 170.629C142.452 171.045 141.849 171.359 141.07 171.573C140.302 171.797 139.39 171.909 138.334 171.909C137.278 171.909 136.361 171.797 135.582 171.573C134.804 171.359 134.201 171.045 133.774 170.629C133.348 170.223 133.134 169.733 133.134 169.157C133.134 168.581 133.348 168.09 133.774 167.685C134.201 167.269 134.804 166.949 135.582 166.725C136.361 166.501 137.278 166.389 138.334 166.389ZM138.334 167.829C137.641 167.829 137.049 167.882 136.558 167.989C136.068 168.085 135.689 168.234 135.422 168.437C135.166 168.629 135.038 168.869 135.038 169.157C135.038 169.434 135.166 169.674 135.422 169.877C135.689 170.069 136.068 170.218 136.558 170.325C137.049 170.421 137.641 170.469 138.334 170.469C139.028 170.469 139.62 170.421 140.11 170.325C140.601 170.218 140.974 170.069 141.23 169.877C141.497 169.674 141.63 169.434 141.63 169.157C141.63 168.869 141.497 168.629 141.23 168.437C140.974 168.234 140.601 168.085 140.11 167.989C139.62 167.882 139.028 167.829 138.334 167.829ZM133.278 157.877H142.654V159.381H133.278V157.877ZM131.774 163.845H145.022V165.365H131.774V163.845ZM136.83 161.205H138.718V164.245H136.83V161.205ZM141.534 157.877H143.422V159.093C143.422 159.679 143.406 160.293 143.374 160.933C143.342 161.562 143.225 162.261 143.022 163.029L141.15 162.821C141.342 162.074 141.454 161.413 141.486 160.837C141.518 160.25 141.534 159.669 141.534 159.093V157.877ZM148.941 166.437H150.893V171.909H148.941V166.437ZM154.029 166.437H155.965V171.909H154.029V166.437ZM145.821 165.445H159.149V166.981H145.821V165.445ZM152.461 157.717C153.506 157.717 154.424 157.85 155.213 158.117C156.002 158.383 156.616 158.762 157.053 159.253C157.501 159.743 157.725 160.325 157.725 160.997C157.725 161.647 157.501 162.218 157.053 162.709C156.616 163.199 156.002 163.578 155.213 163.845C154.424 164.111 153.506 164.245 152.461 164.245C151.426 164.245 150.509 164.111 149.709 163.845C148.92 163.578 148.301 163.199 147.853 162.709C147.405 162.218 147.181 161.647 147.181 160.997C147.181 160.325 147.405 159.743 147.853 159.253C148.301 158.762 148.92 158.383 149.709 158.117C150.509 157.85 151.426 157.717 152.461 157.717ZM152.461 159.237C151.789 159.237 151.202 159.306 150.701 159.445C150.21 159.583 149.826 159.786 149.549 160.053C149.272 160.309 149.133 160.623 149.133 160.997C149.133 161.359 149.272 161.674 149.549 161.941C149.826 162.197 150.21 162.394 150.701 162.533C151.202 162.671 151.789 162.741 152.461 162.741C153.133 162.741 153.714 162.671 154.205 162.533C154.706 162.394 155.09 162.197 155.357 161.941C155.634 161.674 155.773 161.359 155.773 160.997C155.773 160.623 155.634 160.309 155.357 160.053C155.09 159.786 154.706 159.583 154.205 159.445C153.714 159.306 153.133 159.237 152.461 159.237Z" fill="black"/>
<path d="M109.786 133.797C107.973 133.797 106.602 133.287 105.672 132.267C104.743 131.224 104.278 129.74 104.278 127.813V126.453H107.814V128.085C107.814 129.626 108.46 130.397 109.752 130.397C110.387 130.397 110.863 130.216 111.18 129.853C111.52 129.468 111.69 128.856 111.69 128.017C111.69 127.02 111.464 126.147 111.01 125.399C110.557 124.628 109.718 123.71 108.494 122.645C106.953 121.285 105.876 120.061 105.264 118.973C104.652 117.862 104.346 116.616 104.346 115.233C104.346 113.352 104.822 111.901 105.774 110.881C106.726 109.838 108.109 109.317 109.922 109.317C111.713 109.317 113.062 109.838 113.968 110.881C114.898 111.901 115.362 113.374 115.362 115.301V116.287H111.826V115.063C111.826 114.247 111.668 113.658 111.35 113.295C111.033 112.91 110.568 112.717 109.956 112.717C108.71 112.717 108.086 113.476 108.086 114.995C108.086 115.856 108.313 116.661 108.766 117.409C109.242 118.157 110.092 119.064 111.316 120.129C112.88 121.489 113.957 122.724 114.546 123.835C115.136 124.946 115.43 126.249 115.43 127.745C115.43 129.694 114.943 131.19 113.968 132.233C113.016 133.276 111.622 133.797 109.786 133.797ZM117.575 109.657H121.315V119.347H125.327V109.657H129.067V133.457H125.327V122.747H121.315V133.457H117.575V109.657ZM134.742 109.657H139.808L143.684 133.457H139.944L139.264 128.731V128.799H135.014L134.334 133.457H130.866L134.742 109.657ZM138.822 125.569L137.156 113.805H137.088L135.456 125.569H138.822ZM145.498 109.657H151.04C152.967 109.657 154.372 110.11 155.256 111.017C156.14 111.901 156.582 113.272 156.582 115.131V116.593C156.582 119.064 155.766 120.628 154.134 121.285V121.353C155.041 121.625 155.676 122.18 156.038 123.019C156.424 123.858 156.616 124.98 156.616 126.385V130.567C156.616 131.247 156.639 131.802 156.684 132.233C156.73 132.641 156.843 133.049 157.024 133.457H153.216C153.08 133.072 152.99 132.709 152.944 132.369C152.899 132.029 152.876 131.417 152.876 130.533V126.181C152.876 125.093 152.695 124.334 152.332 123.903C151.992 123.472 151.392 123.257 150.53 123.257H149.238V133.457H145.498V109.657ZM150.598 119.857C151.346 119.857 151.902 119.664 152.264 119.279C152.65 118.894 152.842 118.248 152.842 117.341V115.505C152.842 114.644 152.684 114.02 152.366 113.635C152.072 113.25 151.596 113.057 150.938 113.057H149.238V119.857H150.598ZM159.211 109.657H162.951V133.457H159.211V109.657ZM165.752 109.657H170.444L174.082 123.903H174.15V109.657H177.482V133.457H173.64L169.152 116.083H169.084V133.457H165.752V109.657ZM185.566 133.797C183.753 133.797 182.37 133.287 181.418 132.267C180.466 131.224 179.99 129.74 179.99 127.813V115.301C179.99 113.374 180.466 111.901 181.418 110.881C182.37 109.838 183.753 109.317 185.566 109.317C187.379 109.317 188.762 109.838 189.714 110.881C190.666 111.901 191.142 113.374 191.142 115.301V117.341H187.606V115.063C187.606 113.499 186.96 112.717 185.668 112.717C184.376 112.717 183.73 113.499 183.73 115.063V128.085C183.73 129.626 184.376 130.397 185.668 130.397C186.96 130.397 187.606 129.626 187.606 128.085V123.427H185.736V120.027H191.142V127.813C191.142 129.74 190.666 131.224 189.714 132.267C188.762 133.287 187.379 133.797 185.566 133.797Z" fill="black"/>
</svg>
