<svg width="292" height="292" viewBox="0 0 292 292" fill="none" xmlns="http://www.w3.org/2000/svg">
<path d="M146.004 292C226.637 292 292.004 226.634 292.004 146C292.004 65.3664 226.637 0 146.004 0C65.3703 0 0.00390625 65.3664 0.00390625 146C0.00390625 226.634 65.3703 292 146.004 292Z" fill="black"/>
<path d="M146.006 283.21C221.785 283.21 283.216 221.779 283.216 146.001C283.216 70.2218 221.785 8.79102 146.006 8.79102C70.2277 8.79102 8.79688 70.2218 8.79688 146.001C8.79688 221.779 70.2277 283.21 146.006 283.21Z" fill="white"/>
<path d="M149.812 144.313L273.518 93.1914C277.723 103.97 282.825 120.834 283.417 141.982C284.073 165.393 278.924 184.075 274.824 195.435C233.152 178.392 191.485 161.355 149.812 144.313Z" fill="#F4F4F4"/>
<path d="M141.098 17.3484H138.449V15.7113C140.26 15.5774 141.341 14.8481 141.808 14.0098H143.445V29.4774H141.103V17.3484H141.098Z" fill="black"/>
<path d="M145.715 25.9904V17.5075C145.715 15.3 147.193 13.7969 149.406 13.7969C151.618 13.7969 153.072 15.3 153.072 17.5075V18.0135H150.819V17.3934C150.819 16.5551 150.269 15.9995 149.426 15.9995C148.582 15.9995 148.056 16.5501 148.056 17.3934V20.9304C148.409 20.355 149.182 19.8242 150.333 19.8242C152.124 19.8242 153.186 21.0594 153.186 22.9842V25.9904C153.186 28.1979 151.683 29.7011 149.475 29.7011C147.268 29.7011 145.72 28.1979 145.72 25.9904H145.715ZM150.839 26.0996V23.3364C150.839 22.3839 150.353 21.9424 149.559 21.9424C148.632 21.9424 148.056 22.5179 148.056 23.4902V26.0996C148.056 26.9379 148.587 27.4935 149.47 27.4935C150.353 27.4935 150.839 26.9429 150.839 26.0996Z" fill="black"/>
<path d="M92.3138 28.9922L89.8632 30.0042L89.2382 28.4961C90.8603 27.6826 91.5846 26.5912 91.6888 25.6387L93.2018 25.0137L99.12 39.3056L96.9571 40.2035L92.3138 28.9972V28.9922Z" fill="black"/>
<path d="M99.8097 35.1876L99.6311 34.761L101.63 33.6944L101.824 34.1657C102.295 35.3066 102.975 35.5547 103.768 35.2223C104.562 34.8899 104.87 34.2401 104.478 33.3025L103.109 29.9937C102.761 29.1553 102.141 28.937 101.452 29.2248C100.678 29.5472 100.326 30.3112 100.688 31.1892L100.787 31.4323L98.7034 32.2955L95.3202 24.1301L101.506 21.5703L102.35 23.6141L98.247 25.3157L99.7204 28.8676C99.7998 28.188 100.37 27.3794 101.352 26.9726C102.965 26.3029 104.418 27.042 105.138 28.7783L106.626 32.3699C107.524 34.5328 106.78 36.3732 104.656 37.2513C102.533 38.1293 100.708 37.3554 99.8097 35.1926V35.1876Z" fill="black"/>
<path d="M51.6326 58.4488L49.7574 60.324L48.6016 59.1681C49.7872 57.794 50.0402 56.5141 49.7723 55.5914L50.9281 54.4355L61.8666 65.374L60.2097 67.0309L51.6326 58.4538V58.4488Z" fill="black"/>
<path d="M66.6116 56.0576L65.7236 56.9456L68.0056 59.2275L66.3487 60.8844L64.0667 58.6025L60.8323 61.8369L59.349 60.3536L55.0977 50.2585L57.0671 48.2891L64.161 55.3829L65.0539 54.49L66.6165 56.0526L66.6116 56.0576ZM62.5041 57.0398L58.2081 52.7438L60.8323 58.7116L62.5041 57.0398Z" fill="black"/>
<path d="M25.344 101.1L24.332 103.551L22.819 102.925C23.3895 101.199 23.1315 99.9193 22.5312 99.1702L23.1563 97.6621L37.4482 103.58L36.5504 105.743L25.344 101.1Z" fill="black"/>
<path d="M36.3825 93.0443L37.707 93.595C39.8699 94.4929 40.6834 96.3383 39.7905 98.5011C38.8926 100.664 37.0125 101.393 34.8496 100.495L34.4229 100.317L35.0827 98.1489L35.554 98.3424C36.695 98.8137 37.3895 98.5309 37.7367 97.6925C38.084 96.8542 37.7963 96.1646 36.8587 95.7727L35.3705 95.1576C34.2295 94.6814 33.535 94.9691 33.0587 96.115L32.7016 96.9732L30.6577 96.1299L30.9554 95.4156C31.4267 94.2746 31.1439 93.5801 29.998 93.1038L28.8967 92.6475C28.0583 92.3002 27.4233 92.5631 27.1058 93.337C26.7883 94.1109 27.0463 94.7459 28.0881 95.1774L28.4155 95.3114L27.5523 97.3949L27.0612 97.1915C24.9975 96.3383 24.2088 94.5524 25.0819 92.449C25.9549 90.3457 27.7755 89.6412 29.8392 90.4945L30.7768 90.8814C32.0616 91.4122 32.7809 92.3349 32.8802 93.5454C33.8475 92.6524 35.043 92.4788 36.3924 93.0394L36.3825 93.0443Z" fill="black"/>
<path d="M17.3542 150.643V153.292H15.7172C15.5832 151.482 14.854 150.4 14.0156 149.934V148.297H29.4833V150.638H17.3542V150.643Z" fill="black"/>
<path d="M27.2749 143.615V138.977H29.4825V146.403H27.4486L21.9917 142.98C19.9578 141.7 18.8962 141.323 17.7056 141.323C16.6242 141.323 16.0289 141.829 16.0289 142.737C16.0289 143.645 16.6242 144.151 17.7056 144.151H18.6135V146.403H17.8842C15.3642 146.403 13.8164 145.034 13.8164 142.712C13.8164 140.39 15.255 138.977 17.6412 138.977C19.3179 138.977 20.692 139.483 23.1873 141.055L27.2749 143.62V143.615Z" fill="black"/>
<path d="M28.5604 198.648L29.5724 201.099L28.0644 201.724C27.2508 200.101 26.1594 199.377 25.207 199.273L24.5819 197.76L38.8738 191.842L39.7717 194.005L28.5654 198.648H28.5604Z" fill="black"/>
<path d="M25.9121 192.259L26.9291 194.71L25.416 195.335C24.6025 193.713 23.5111 192.989 22.5586 192.884L21.9336 191.371L36.2255 185.453L37.1234 187.616L25.9171 192.259H25.9121Z" fill="black"/>
<path d="M58.5914 240.519L60.4665 242.394L59.3107 243.55C57.9366 242.365 56.6567 242.112 55.734 242.379L54.5781 241.224L65.5166 230.285L67.1735 231.942L58.5963 240.519H58.5914Z" fill="black"/>
<path d="M61.4191 231.162L55.4513 237.13C53.8738 238.708 51.7506 238.708 50.1532 237.115C48.5608 235.523 48.5608 233.395 50.1383 231.817L56.1061 225.849C57.6836 224.272 59.8068 224.272 61.4042 225.864C62.9966 227.457 62.9966 229.585 61.4191 231.162ZM57.763 227.506L51.7952 233.474C51.1057 234.159 51.1057 234.942 51.7158 235.552C52.326 236.163 53.1048 236.163 53.7944 235.473L59.7622 229.505C60.4517 228.816 60.4517 228.037 59.8416 227.427C59.2314 226.817 58.4525 226.817 57.763 227.506Z" fill="black"/>
<path d="M93.6704 263.416L96.9197 255.578C97.763 253.534 99.7076 252.716 101.751 253.559C103.795 254.407 104.564 256.352 103.721 258.391L103.527 258.862L101.444 257.999L101.682 257.428C102.004 256.654 101.702 255.93 100.928 255.608C100.154 255.285 99.4497 255.593 99.1322 256.372L97.7779 259.636C98.3236 259.239 99.2413 259.046 100.303 259.487C101.955 260.172 102.461 261.719 101.727 263.495L100.576 266.273C99.7324 268.312 97.768 269.126 95.7241 268.282C93.6406 267.419 92.827 265.455 93.6753 263.416H93.6704ZM98.3632 265.48L99.4199 262.93C99.782 262.052 99.5042 261.456 98.77 261.154C97.9118 260.797 97.1627 261.109 96.7907 262.007L95.7936 264.418C95.4711 265.192 95.7489 265.906 96.5674 266.244C97.3413 266.566 98.0458 266.258 98.3632 265.48Z" fill="black"/>
<path d="M142.117 267.538V266.105C142.117 263.763 143.511 262.305 146.006 262.305C148.502 262.305 149.896 263.763 149.896 266.105V267.538C149.896 268.997 149.276 270.034 148.174 270.564C149.166 271.115 149.742 272.132 149.742 273.546V274.563C149.742 276.795 148.393 278.209 146.006 278.209C143.62 278.209 142.271 276.795 142.271 274.563V273.546C142.271 272.132 142.846 271.115 143.839 270.564C142.732 270.034 142.117 268.997 142.117 267.538ZM144.459 267.672C144.459 268.907 144.989 269.438 146.006 269.438C147.023 269.438 147.554 268.907 147.554 267.672V266.06C147.554 265.043 147.023 264.512 146.006 264.512C144.989 264.512 144.459 265.043 144.459 266.06V267.672ZM147.395 273.417C147.395 272.182 146.865 271.651 146.001 271.651C145.138 271.651 144.607 272.182 144.607 273.417V274.612C144.607 275.52 145.094 276.006 146.001 276.006C146.909 276.006 147.395 275.52 147.395 274.612V273.417Z" fill="black"/>
<path d="M193.268 269.284L192.489 267.404L190.777 253.573L193.025 252.641L194.508 266.327L198.977 264.477L199.841 266.561L193.268 269.284Z" fill="black"/>
<path d="M233.428 228.288L239.425 234.286C240.988 235.849 241.003 237.957 239.44 239.519C237.878 241.082 235.784 241.052 234.222 239.49L233.864 239.133L235.457 237.54L235.893 237.977C236.489 238.572 237.267 238.572 237.863 237.977C238.458 237.381 238.443 236.617 237.848 236.022L235.348 233.522C235.506 234.177 235.333 235.099 234.519 235.913C233.254 237.178 231.627 237.054 230.268 235.695L228.145 233.572C226.582 232.009 226.582 229.886 228.145 228.323C229.737 226.731 231.865 226.731 233.428 228.293V228.288ZM229.727 231.835L231.682 233.79C232.351 234.46 233.011 234.43 233.572 233.869C234.227 233.214 234.227 232.401 233.542 231.711L231.697 229.866C231.101 229.271 230.337 229.256 229.712 229.881C229.117 230.476 229.132 231.24 229.727 231.835Z" fill="black"/>
<path d="M258.311 188.614L258.737 188.792L258.078 190.96L257.606 190.767C256.465 190.296 255.811 190.598 255.483 191.392C255.156 192.186 255.399 192.865 256.336 193.252L259.645 194.621C260.484 194.969 261.074 194.686 261.362 193.996C261.684 193.222 261.391 192.429 260.513 192.067L260.27 191.967L261.133 189.884L269.299 193.267L266.739 199.453L264.695 198.61L266.397 194.507L262.845 193.034C263.267 193.57 263.44 194.547 263.033 195.529C262.364 197.141 260.816 197.647 259.08 196.928L255.488 195.44C253.325 194.542 252.551 192.716 253.429 190.593C254.307 188.47 256.148 187.726 258.311 188.624V188.614Z" fill="black"/>
<path d="M265.752 150.113V148.853H262.527V146.511H265.752V141.938H267.85L277.99 146.07V148.853H267.959V150.113H265.752ZM267.959 146.511H274.036L267.959 144.145V146.511Z" fill="black"/>
<path d="M259.675 102.833L258.351 103.383C256.188 104.281 254.308 103.552 253.41 101.389C252.512 99.2262 253.331 97.3808 255.494 96.4829L255.92 96.3044L256.987 98.3035L256.515 98.497C255.374 98.9683 255.087 99.6628 255.434 100.501C255.781 101.34 256.476 101.622 257.413 101.235L258.902 100.62C260.043 100.149 260.33 99.4544 259.859 98.3135L259.502 97.4553L261.546 96.607L261.843 97.3213C262.315 98.4623 263.009 98.75 264.155 98.2787L265.256 97.8223C266.095 97.4751 266.358 96.8401 266.035 96.0662C265.713 95.2924 265.078 95.0294 264.036 95.4561L263.709 95.59L262.845 93.5065L263.336 93.3031C265.4 92.4498 267.221 93.1543 268.089 95.2576C268.962 97.361 268.168 99.1469 266.11 100L265.172 100.387C263.887 100.918 262.726 100.779 261.804 99.9902C261.749 101.305 261.03 102.272 259.68 102.833H259.675Z" fill="black"/>
<path d="M229.278 61.3755L232.557 64.6546L230.995 66.2172L225.746 60.9687L227.185 59.5301L233.465 58.0915C235.807 57.5607 236.823 57.0745 237.667 56.2312C238.431 55.4673 238.495 54.6835 237.855 54.0435C237.215 53.4036 236.432 53.4631 235.668 54.232L235.028 54.872L233.435 53.2796L233.951 52.7636C235.732 50.9827 237.796 50.8587 239.438 52.4958C241.08 54.1378 241.06 56.1518 239.373 57.8385C238.188 59.0241 236.858 59.6343 233.981 60.2941L229.278 61.3705V61.3755Z" fill="black"/>
<path d="M195.029 27.0521L192.578 26.0351L193.203 24.5221C194.93 25.0926 196.21 24.8346 196.959 24.2344L198.472 24.8594L192.554 39.1464L190.391 38.2485L195.034 27.0422L195.029 27.0521Z" fill="black"/>
<path d="M146.006 147.254C147.554 147.254 148.809 145.999 148.809 144.451C148.809 142.903 147.554 141.648 146.006 141.648C144.458 141.648 143.203 142.903 143.203 144.451C143.203 145.999 144.458 147.254 146.006 147.254Z" fill="black"/>
<path d="M138.338 166.389C139.394 166.389 140.306 166.501 141.074 166.725C141.853 166.949 142.456 167.269 142.882 167.685C143.309 168.09 143.522 168.581 143.522 169.157C143.522 169.733 143.309 170.223 142.882 170.629C142.456 171.045 141.853 171.359 141.074 171.573C140.306 171.797 139.394 171.909 138.338 171.909C137.282 171.909 136.365 171.797 135.586 171.573C134.808 171.359 134.205 171.045 133.778 170.629C133.352 170.223 133.138 169.733 133.138 169.157C133.138 168.581 133.352 168.09 133.778 167.685C134.205 167.269 134.808 166.949 135.586 166.725C136.365 166.501 137.282 166.389 138.338 166.389ZM138.338 167.829C137.645 167.829 137.053 167.882 136.562 167.989C136.072 168.085 135.693 168.234 135.426 168.437C135.17 168.629 135.042 168.869 135.042 169.157C135.042 169.434 135.17 169.674 135.426 169.877C135.693 170.069 136.072 170.218 136.562 170.325C137.053 170.421 137.645 170.469 138.338 170.469C139.032 170.469 139.624 170.421 140.114 170.325C140.605 170.218 140.978 170.069 141.234 169.877C141.501 169.674 141.634 169.434 141.634 169.157C141.634 168.869 141.501 168.629 141.234 168.437C140.978 168.234 140.605 168.085 140.114 167.989C139.624 167.882 139.032 167.829 138.338 167.829ZM133.282 157.877H142.658V159.381H133.282V157.877ZM131.778 163.845H145.026V165.365H131.778V163.845ZM136.834 161.205H138.722V164.245H136.834V161.205ZM141.538 157.877H143.426V159.093C143.426 159.679 143.41 160.293 143.378 160.933C143.346 161.562 143.229 162.261 143.026 163.029L141.154 162.821C141.346 162.074 141.458 161.413 141.49 160.837C141.522 160.25 141.538 159.669 141.538 159.093V157.877ZM148.945 166.437H150.897V171.909H148.945V166.437ZM154.033 166.437H155.969V171.909H154.033V166.437ZM145.825 165.445H159.153V166.981H145.825V165.445ZM152.465 157.717C153.51 157.717 154.428 157.85 155.217 158.117C156.006 158.383 156.62 158.762 157.057 159.253C157.505 159.743 157.729 160.325 157.729 160.997C157.729 161.647 157.505 162.218 157.057 162.709C156.62 163.199 156.006 163.578 155.217 163.845C154.428 164.111 153.51 164.245 152.465 164.245C151.43 164.245 150.513 164.111 149.713 163.845C148.924 163.578 148.305 163.199 147.857 162.709C147.409 162.218 147.185 161.647 147.185 160.997C147.185 160.325 147.409 159.743 147.857 159.253C148.305 158.762 148.924 158.383 149.713 158.117C150.513 157.85 151.43 157.717 152.465 157.717ZM152.465 159.237C151.793 159.237 151.206 159.306 150.705 159.445C150.214 159.583 149.83 159.786 149.553 160.053C149.276 160.309 149.137 160.623 149.137 160.997C149.137 161.359 149.276 161.674 149.553 161.941C149.83 162.197 150.214 162.394 150.705 162.533C151.206 162.671 151.793 162.741 152.465 162.741C153.137 162.741 153.718 162.671 154.209 162.533C154.71 162.394 155.094 162.197 155.361 161.941C155.638 161.674 155.777 161.359 155.777 160.997C155.777 160.623 155.638 160.309 155.361 160.053C155.094 159.786 154.71 159.583 154.209 159.445C153.718 159.306 153.137 159.237 152.465 159.237Z" fill="black"/>
<path d="M109.79 133.797C107.977 133.797 106.606 133.287 105.676 132.267C104.747 131.224 104.282 129.74 104.282 127.813V126.453H107.818V128.085C107.818 129.626 108.464 130.397 109.756 130.397C110.391 130.397 110.867 130.216 111.184 129.853C111.524 129.468 111.694 128.856 111.694 128.017C111.694 127.02 111.468 126.147 111.014 125.399C110.561 124.628 109.722 123.71 108.498 122.645C106.957 121.285 105.88 120.061 105.268 118.973C104.656 117.862 104.35 116.616 104.35 115.233C104.35 113.352 104.826 111.901 105.778 110.881C106.73 109.838 108.113 109.317 109.926 109.317C111.717 109.317 113.066 109.838 113.972 110.881C114.902 111.901 115.366 113.374 115.366 115.301V116.287H111.83V115.063C111.83 114.247 111.672 113.658 111.354 113.295C111.037 112.91 110.572 112.717 109.96 112.717C108.714 112.717 108.09 113.476 108.09 114.995C108.09 115.856 108.317 116.661 108.77 117.409C109.246 118.157 110.096 119.064 111.32 120.129C112.884 121.489 113.961 122.724 114.55 123.835C115.14 124.946 115.434 126.249 115.434 127.745C115.434 129.694 114.947 131.19 113.972 132.233C113.02 133.276 111.626 133.797 109.79 133.797ZM117.579 109.657H121.319V119.347H125.331V109.657H129.071V133.457H125.331V122.747H121.319V133.457H117.579V109.657ZM134.746 109.657H139.812L143.688 133.457H139.948L139.268 128.731V128.799H135.018L134.338 133.457H130.87L134.746 109.657ZM138.826 125.569L137.16 113.805H137.092L135.46 125.569H138.826ZM145.502 109.657H151.044C152.971 109.657 154.376 110.11 155.26 111.017C156.144 111.901 156.586 113.272 156.586 115.131V116.593C156.586 119.064 155.77 120.628 154.138 121.285V121.353C155.045 121.625 155.68 122.18 156.042 123.019C156.428 123.858 156.62 124.98 156.62 126.385V130.567C156.62 131.247 156.643 131.802 156.688 132.233C156.734 132.641 156.847 133.049 157.028 133.457H153.22C153.084 133.072 152.994 132.709 152.948 132.369C152.903 132.029 152.88 131.417 152.88 130.533V126.181C152.88 125.093 152.699 124.334 152.336 123.903C151.996 123.472 151.396 123.257 150.534 123.257H149.242V133.457H145.502V109.657ZM150.602 119.857C151.35 119.857 151.906 119.664 152.268 119.279C152.654 118.894 152.846 118.248 152.846 117.341V115.505C152.846 114.644 152.688 114.02 152.37 113.635C152.076 113.25 151.6 113.057 150.942 113.057H149.242V119.857H150.602ZM159.215 109.657H162.955V133.457H159.215V109.657ZM165.756 109.657H170.448L174.086 123.903H174.154V109.657H177.486V133.457H173.644L169.156 116.083H169.088V133.457H165.756V109.657ZM185.57 133.797C183.757 133.797 182.374 133.287 181.422 132.267C180.47 131.224 179.994 129.74 179.994 127.813V115.301C179.994 113.374 180.47 111.901 181.422 110.881C182.374 109.838 183.757 109.317 185.57 109.317C187.383 109.317 188.766 109.838 189.718 110.881C190.67 111.901 191.146 113.374 191.146 115.301V117.341H187.61V115.063C187.61 113.499 186.964 112.717 185.672 112.717C184.38 112.717 183.734 113.499 183.734 115.063V128.085C183.734 129.626 184.38 130.397 185.672 130.397C186.964 130.397 187.61 129.626 187.61 128.085V123.427H185.74V120.027H191.146V127.813C191.146 129.74 190.67 131.224 189.718 132.267C188.766 133.287 187.383 133.797 185.57 133.797Z" fill="black"/>
</svg>
