<svg width="12" height="6" viewBox="0 0 12 6" fill="none" xmlns="http://www.w3.org/2000/svg">
<path d="M9.2 2.292C8.928 2.092 8.636 1.832 8.324 1.512C8.02 1.192 7.748 0.872 7.508 0.552L8.492 0C8.764 0.352 9.072 0.704 9.416 1.056C9.76 1.4 10.12 1.728 10.496 2.04C10.872 2.344 11.24 2.612 11.6 2.844C11.24 3.076 10.872 3.348 10.496 3.66C10.12 3.964 9.76 4.292 9.416 4.644C9.072 4.988 8.764 5.336 8.492 5.688L7.508 5.136C7.748 4.808 8.02 4.488 8.324 4.176C8.636 3.856 8.928 3.596 9.2 3.396H0.5V2.292H9.2Z" fill="white"/>
</svg>
