<svg width="16" height="16" viewBox="0 0 16 16" fill="none" xmlns="http://www.w3.org/2000/svg">
  <path d="M8 1.44c2.136 0 2.389.009 3.233.047.78.036 1.203.166 1.485.276.374.145.64.318.92.598.28.28.453.546.598.92.11.282.24.705.276 1.485.038.844.047 1.097.047 3.233s-.009 2.389-.047 3.233c-.036.78-.166 1.203-.276 1.485a2.478 2.478 0 01-.598.92c-.28.28-.546.453-.92.598-.282.11-.705.24-1.485.276-.844.038-1.097.047-3.233.047s-2.389-.009-3.233-.047c-.78-.036-1.203-.166-1.485-.276a2.478 2.478 0 01-.92-.598 2.478 2.478 0 01-.598-.92c-.11-.282-.24-.705-.276-1.485C1.45 10.389 1.44 10.136 1.44 8s.009-2.389.047-3.233c.036-.78.166-1.203.276-1.485.145-.374.318-.64.598-.92.28-.28.546-.453.92-.598.282-.11.705-.24 1.485-.276C5.61 1.45 5.864 1.44 8 1.44zM8 0C5.827 0 5.555.01 4.702.048 3.85.087 3.27.222 2.76.42a3.913 3.913 0 00-1.417.923c-.445.444-.72.89-.923 1.417-.198.51-.333 1.09-.372 1.942C.01 5.555 0 5.827 0 8s.01 2.445.048 3.298c.039.852.174 1.433.372 1.942.203.527.478.973.923 1.417.444.445.89.72 1.417.923.51.198 1.09.333 1.942.372.853.038 1.125.048 3.298.048s2.445-.01 3.298-.048c.852-.039 1.433-.174 1.942-.372a3.913 3.913 0 001.417-.923c.445-.444.72-.89.923-1.417.198-.51.333-1.09.372-1.942.038-.853.048-1.125.048-3.298s-.01-2.445-.048-3.298c-.039-.852-.174-1.433-.372-1.942a3.913 3.913 0 00-.923-1.417A3.913 3.913 0 0013.24.42c-.51-.198-1.09-.333-1.942-.372C10.445.01 10.173 0 8 0z" fill="#fff"/>
  <path d="M8 3.892a4.108 4.108 0 100 8.216 4.108 4.108 0 000-8.216zm0 6.775a2.667 2.667 0 110-5.334 2.667 2.667 0 010 5.334z" fill="#fff"/>
  <circle cx="12.27" cy="3.73" r=".96" fill="#fff"/>
</svg>
