<svg width="453" height="555" viewBox="0 0 453 555" fill="none" xmlns="http://www.w3.org/2000/svg">
<mask id="path-1-outside-1_253_1242" maskUnits="userSpaceOnUse" x="0.0507812" y="0.242188" width="453" height="554" fill="black">
<rect fill="white" x="0.0507812" y="0.242188" width="453" height="554"/>
<path fill-rule="evenodd" clip-rule="evenodd" d="M291.22 25.2422H161.605V66.8715H198.611V97.6738H185.793V130.414C94.0547 149.205 25.0508 230.383 25.0508 327.678C25.0508 438.888 115.204 529.042 226.414 529.042C337.625 529.042 427.778 438.888 427.778 327.678C427.778 230.385 358.777 149.208 267.041 130.415V97.6738H254.217V66.8715H291.22V25.2422Z"/>
</mask>
<path fill-rule="evenodd" clip-rule="evenodd" d="M291.22 25.2422H161.605V66.8715H198.611V97.6738H185.793V130.414C94.0547 149.205 25.0508 230.383 25.0508 327.678C25.0508 438.888 115.204 529.042 226.414 529.042C337.625 529.042 427.778 438.888 427.778 327.678C427.778 230.385 358.777 149.208 267.041 130.415V97.6738H254.217V66.8715H291.22V25.2422Z" fill="#FF90FF"/>
<path d="M161.605 25.2422V0.242188C147.798 0.242188 136.605 11.4351 136.605 25.2422L161.605 25.2422ZM291.22 25.2422H316.22C316.22 11.4351 305.027 0.242188 291.22 0.242188V25.2422ZM161.605 66.8715H136.605C136.605 80.6787 147.798 91.8715 161.605 91.8715V66.8715ZM198.611 66.8715H223.611C223.611 53.0644 212.418 41.8715 198.611 41.8715V66.8715ZM198.611 97.6738V122.674C212.418 122.674 223.611 111.481 223.611 97.6738H198.611ZM185.793 97.6738V72.6738C171.986 72.6738 160.793 83.8667 160.793 97.6738H185.793ZM185.793 130.414L190.81 154.905C202.442 152.522 210.793 142.287 210.793 130.414H185.793ZM267.041 130.415H242.041C242.041 142.288 250.392 152.523 262.023 154.906L267.041 130.415ZM267.041 97.6738H292.041C292.041 83.8667 280.848 72.6738 267.041 72.6738V97.6738ZM254.217 97.6738H229.217C229.217 111.481 240.41 122.674 254.217 122.674V97.6738ZM254.217 66.8715V41.8715C240.41 41.8715 229.217 53.0644 229.217 66.8715H254.217ZM291.22 66.8715V91.8715C305.027 91.8715 316.22 80.6787 316.22 66.8715H291.22ZM161.605 50.2422H291.22V0.242188H161.605V50.2422ZM186.605 66.8715V25.2422H136.605V66.8715H186.605ZM198.611 41.8715H161.605V91.8715H198.611V41.8715ZM173.611 66.8715V97.6738H223.611V66.8715H173.611ZM198.611 72.6738H185.793V122.674H198.611V72.6738ZM160.793 97.6738V130.414H210.793V97.6738H160.793ZM180.776 105.922C77.6383 127.049 0.0507812 218.275 0.0507812 327.678H50.0508C50.0508 242.492 110.471 171.362 190.81 154.905L180.776 105.922ZM0.0507812 327.678C0.0507812 452.695 101.397 554.042 226.414 554.042V504.042C129.011 504.042 50.0508 425.081 50.0508 327.678H0.0507812ZM226.414 554.042C351.432 554.042 452.778 452.695 452.778 327.678H402.778C402.778 425.081 323.817 504.042 226.414 504.042V554.042ZM452.778 327.678C452.778 218.277 375.193 127.052 272.058 105.923L262.023 154.906C342.36 171.364 402.778 242.494 402.778 327.678H452.778ZM292.041 130.415V97.6738H242.041V130.415H292.041ZM267.041 72.6738H254.217V122.674H267.041V72.6738ZM279.217 97.6738V66.8715H229.217V97.6738H279.217ZM291.22 41.8715H254.217V91.8715H291.22V41.8715ZM266.22 25.2422V66.8715H316.22V25.2422H266.22Z" fill="white" mask="url(#path-1-outside-1_253_1242)"/>
<circle cx="226.414" cy="327.678" r="201.364" fill="#FF90FF"/>
<circle cx="226.414" cy="327.68" r="163.564" fill="white"/>
<rect x="198.611" y="62.2559" width="55.6061" height="57.2917" fill="#EE58EE"/>
<rect x="217.17" y="211.893" width="18.4874" height="117.884" fill="black"/>
<rect x="217.17" y="164.117" width="18.4874" height="22.2829" fill="black"/>
<rect x="217.166" y="468.957" width="18.4874" height="22.2829" fill="black"/>
<rect x="85.1328" y="318.438" width="18.4874" height="22.2829" transform="rotate(90 85.1328 318.438)" fill="black"/>
<rect x="389.979" y="318.436" width="18.4874" height="22.2829" transform="rotate(90 389.979 318.436)" fill="black"/>
<rect x="185.791" y="97.6738" width="81.248" height="57.2917" fill="#FF90FF"/>
<rect x="161.607" y="25.2422" width="129.614" height="41.6294" fill="#FF90FF"/>
</svg>
