<svg width="478" height="211" viewBox="0 0 478 211" fill="none" xmlns="http://www.w3.org/2000/svg">
<path d="M38.4425 2.17587H76.3305C83.3278 2.17587 89.3865 3.37053 94.5065 5.75986C99.6265 8.1492 103.808 11.4345 107.05 15.6159C110.293 19.7119 112.682 24.5332 114.218 30.0799C115.84 35.6265 116.65 41.5572 116.65 47.8719C116.65 54.1865 115.84 60.1172 114.218 65.6639C112.682 71.2105 110.293 76.0745 107.05 80.2559C103.808 84.3519 99.6265 87.5945 94.5065 89.9839C89.3865 92.3732 83.3278 93.5679 76.3305 93.5679H38.4425V2.17587ZM54.4425 80.5119H70.1865C76.4158 80.5119 81.4932 79.7012 85.4185 78.0799C89.4292 76.3732 92.5438 74.0692 94.7625 71.1679C97.0665 68.1812 98.6025 64.7252 99.3705 60.7999C100.224 56.7892 100.65 52.4799 100.65 47.8719C100.65 43.2639 100.224 38.9972 99.3705 35.0719C98.6025 31.0612 97.0665 27.6052 94.7625 24.7039C92.5438 21.7172 89.4292 19.4132 85.4185 17.7919C81.4932 16.0852 76.4158 15.2319 70.1865 15.2319H54.4425V80.5119ZM123.137 2.17587H188.929V15.9999H139.137V39.9359H185.217V52.9919H139.137V79.7439H189.825V93.5679H123.137V2.17587ZM196.082 2.17587H236.402C242.888 2.17587 248.178 3.11453 252.274 4.99187C256.37 6.8692 259.528 9.21587 261.746 12.0319C263.965 14.8479 265.458 17.9199 266.226 21.2479C267.08 24.5759 267.506 27.6479 267.506 30.4639C267.506 33.2799 267.08 36.3519 266.226 39.6799C265.458 42.9225 263.965 45.9519 261.746 48.7679C259.528 51.5839 256.37 53.9305 252.274 55.8079C248.178 57.5999 242.888 58.4959 236.402 58.4959H212.082V93.5679H196.082V2.17587ZM212.082 45.4399H235.506C237.298 45.4399 239.133 45.1839 241.01 44.6719C242.888 44.1599 244.594 43.3492 246.13 42.2399C247.752 41.0452 249.032 39.5092 249.97 37.6319C250.994 35.6692 251.506 33.2372 251.506 30.3359C251.506 27.3492 251.08 24.8745 250.226 22.9119C249.373 20.9492 248.221 19.4132 246.77 18.3039C245.32 17.1092 243.656 16.2985 241.778 15.8719C239.901 15.4452 237.896 15.2319 235.762 15.2319H212.082V45.4399ZM273.778 2.17587H317.426C327.495 2.17587 335.047 4.35187 340.082 8.70387C345.116 13.0559 347.634 19.1145 347.634 26.8799C347.634 31.2319 346.994 34.8585 345.714 37.7599C344.434 40.5759 342.94 42.8799 341.234 44.6719C339.527 46.3785 337.82 47.6159 336.114 48.3839C334.492 49.1519 333.298 49.6639 332.53 49.9199V50.1759C333.895 50.3465 335.345 50.7732 336.882 51.4559C338.503 52.1385 339.996 53.2479 341.362 54.7839C342.727 56.2345 343.836 58.1545 344.69 60.5439C345.628 62.9332 346.098 65.9199 346.098 69.5039C346.098 74.8799 346.482 79.7865 347.25 84.2239C348.103 88.5759 349.383 91.6905 351.09 93.5679H333.938C332.743 91.6052 332.018 89.4292 331.762 87.0399C331.591 84.6505 331.506 82.3465 331.506 80.1279C331.506 75.9465 331.25 72.3625 330.738 69.3759C330.226 66.3039 329.287 63.7865 327.922 61.8239C326.556 59.7759 324.679 58.2825 322.29 57.3439C319.986 56.4052 316.999 55.9359 313.33 55.9359H289.778V93.5679H273.778V2.17587ZM289.778 43.7759H316.018C321.138 43.7759 325.02 42.5812 327.666 40.1919C330.311 37.7172 331.633 34.0479 331.633 29.1839C331.633 26.2825 331.207 23.9359 330.354 22.1439C329.5 20.2665 328.306 18.8159 326.77 17.7919C325.319 16.7679 323.612 16.0852 321.65 15.7439C319.772 15.4025 317.81 15.2319 315.762 15.2319H289.778V43.7759ZM395.135 13.0559C390.271 13.0559 386.047 14.0372 382.463 15.9999C378.964 17.9625 376.105 20.6079 373.887 23.9359C371.668 27.1785 370.004 30.8905 368.895 35.0719C367.871 39.2532 367.359 43.5199 367.359 47.8719C367.359 52.2239 367.871 56.4905 368.895 60.6719C370.004 64.8532 371.668 68.6079 373.887 71.9359C376.105 75.1785 378.964 77.7812 382.463 79.7439C386.047 81.7065 390.271 82.6879 395.135 82.6879C399.999 82.6879 404.18 81.7065 407.679 79.7439C411.263 77.7812 414.164 75.1785 416.383 71.9359C418.601 68.6079 420.223 64.8532 421.247 60.6719C422.356 56.4905 422.911 52.2239 422.911 47.8719C422.911 43.5199 422.356 39.2532 421.247 35.0719C420.223 30.8905 418.601 27.1785 416.383 23.9359C414.164 20.6079 411.263 17.9625 407.679 15.9999C404.18 14.0372 399.999 13.0559 395.135 13.0559ZM395.135 -0.0001297C401.961 -0.0001297 408.063 1.27987 413.439 3.83987C418.9 6.39987 423.508 9.85587 427.263 14.2079C431.017 18.5599 433.876 23.6372 435.839 29.4399C437.887 35.2425 438.911 41.3865 438.911 47.8719C438.911 54.4425 437.887 60.6292 435.839 66.4319C433.876 72.2345 431.017 77.3119 427.263 81.6639C423.508 86.0159 418.9 89.4719 413.439 92.0319C408.063 94.5065 401.961 95.7439 395.135 95.7439C388.308 95.7439 382.164 94.5065 376.703 92.0319C371.327 89.4719 366.761 86.0159 363.007 81.6639C359.252 77.3119 356.351 72.2345 354.303 66.4319C352.34 60.6292 351.359 54.4425 351.359 47.8719C351.359 41.3865 352.34 35.2425 354.303 29.4399C356.351 23.6372 359.252 18.5599 363.007 14.2079C366.761 9.85587 371.327 6.39987 376.703 3.83987C382.164 1.27987 388.308 -0.0001297 395.135 -0.0001297ZM9.15527e-05 117.176H22.5281L47.7441 188.728H48.0001L72.5761 117.176H94.8481V208.568H79.6161V138.04H79.3601L54.0161 208.568H40.8321L15.4881 138.04H15.2321V208.568H9.15527e-05V117.176ZM106.326 117.176H172.118V131H122.326V154.936H168.406V167.992H122.326V194.744H173.014V208.568H106.326V117.176ZM179.271 117.176H245.063V131H195.271V154.936H241.351V167.992H195.271V194.744H245.959V208.568H179.271V117.176ZM252.245 117.176H326.229V131H297.173V208.568H281.173V131H252.245V117.176ZM354.145 133.816C357.217 133.816 360.204 133.56 363.105 133.048C366.006 132.536 368.609 131.683 370.913 130.488C373.302 129.293 375.308 127.757 376.929 125.88C378.636 124.003 379.745 121.699 380.257 118.968H392.161V208.568H376.161V145.336H354.145V133.816ZM446.39 128.696C442.465 128.696 439.137 129.891 436.406 132.28C433.675 134.584 432.31 137.955 432.31 142.392C432.31 146.659 433.633 149.944 436.278 152.248C438.923 154.467 442.294 155.576 446.39 155.576C450.486 155.576 453.857 154.467 456.502 152.248C459.147 149.944 460.47 146.659 460.47 142.392C460.47 137.955 459.105 134.584 456.374 132.28C453.643 129.891 450.315 128.696 446.39 128.696ZM446.39 210.36C441.867 210.36 437.643 209.72 433.718 208.44C429.878 207.16 426.55 205.325 423.734 202.936C420.918 200.461 418.699 197.475 417.078 193.976C415.542 190.477 414.774 186.552 414.774 182.2C414.774 176.568 416.225 171.832 419.126 167.992C422.113 164.152 426.123 161.592 431.158 160.312V160.056C427.062 158.52 423.905 156.173 421.686 153.016C419.553 149.773 418.486 145.976 418.486 141.624C418.486 133.944 420.875 127.971 425.654 123.704C430.518 119.352 437.43 117.176 446.39 117.176C455.35 117.176 462.219 119.352 466.998 123.704C471.862 127.971 474.294 133.944 474.294 141.624C474.294 145.976 473.185 149.773 470.966 153.016C468.833 156.173 465.718 158.52 461.622 160.056V160.312C466.657 161.592 470.625 164.152 473.526 167.992C476.513 171.832 478.006 176.568 478.006 182.2C478.006 186.552 477.195 190.477 475.574 193.976C474.038 197.475 471.862 200.461 469.046 202.936C466.23 205.325 462.859 207.16 458.934 208.44C455.094 209.72 450.913 210.36 446.39 210.36ZM446.39 198.84C451.254 198.84 455.307 197.389 458.55 194.488C461.793 191.587 463.414 187.491 463.414 182.2C463.414 177.251 461.793 173.411 458.55 170.68C455.307 167.864 451.254 166.456 446.39 166.456C441.526 166.456 437.473 167.864 434.23 170.68C430.987 173.411 429.366 177.251 429.366 182.2C429.366 187.491 430.987 191.587 434.23 194.488C437.473 197.389 441.526 198.84 446.39 198.84Z" fill="white"/>
</svg>
