<svg width="1834" height="173" viewBox="0 0 1834 173" fill="none" xmlns="http://www.w3.org/2000/svg">
<path d="M1440.8 3.91016H1573.74V28.7502H1521.53V168.13H1492.78V28.7502H1440.8V3.91016Z" fill="white"/>
<path d="M1318.47 3.91016H1436.69V28.7502H1347.22V71.7602H1430.02V95.2202H1347.22V143.29H1438.3V168.13H1318.47V3.91016Z" fill="white"/>
<path d="M1180.49 3.91016H1298.71V28.7502H1209.24V71.7602H1292.04V95.2202H1209.24V143.29H1300.32V168.13H1180.49V3.91016Z" fill="white"/>
<path d="M982.54 3.91016H1023.02L1068.33 132.48H1068.79L1112.95 3.91016H1152.97V168.13H1125.6V41.4002H1125.14L1079.6 168.13H1055.91L1010.37 41.4002H1009.91V168.13H982.54V3.91016Z" fill="white"/>
<path d="M640.931 23.46C632.191 23.46 624.601 25.2233 618.161 28.75C611.874 32.2767 606.738 37.03 602.751 43.01C598.764 48.8367 595.774 55.5067 593.781 63.02C591.941 70.5333 591.021 78.2 591.021 86.02C591.021 93.84 591.941 101.507 593.781 109.02C595.774 116.533 598.764 123.28 602.751 129.26C606.738 135.087 611.874 139.763 618.161 143.29C624.601 146.817 632.191 148.58 640.931 148.58C649.671 148.58 657.184 146.817 663.471 143.29C669.911 139.763 675.124 135.087 679.111 129.26C683.098 123.28 686.011 116.533 687.851 109.02C689.844 101.507 690.841 93.84 690.841 86.02C690.841 78.2 689.844 70.5333 687.851 63.02C686.011 55.5067 683.098 48.8367 679.111 43.01C675.124 37.03 669.911 32.2767 663.471 28.75C657.184 25.2233 649.671 23.46 640.931 23.46ZM640.931 0C653.198 0 664.161 2.29999 673.821 6.89999C683.634 11.5 691.914 17.71 698.661 25.53C705.408 33.35 710.544 42.4733 714.071 52.9C717.751 63.3267 719.591 74.3667 719.591 86.02C719.591 97.8267 717.751 108.943 714.071 119.37C710.544 129.797 705.408 138.92 698.661 146.74C691.914 154.56 683.634 160.77 673.821 165.37C664.161 169.817 653.198 172.04 640.931 172.04C628.664 172.04 617.624 169.817 607.811 165.37C598.151 160.77 589.948 154.56 583.201 146.74C576.454 138.92 571.241 129.797 567.561 119.37C564.034 108.943 562.271 97.8267 562.271 86.02C562.271 74.3667 564.034 63.3267 567.561 52.9C571.241 42.4733 576.454 33.35 583.201 25.53C589.948 17.71 598.151 11.5 607.811 6.89999C617.624 2.29999 628.664 0 640.931 0Z" fill="white"/>
<path d="M422.868 3.91016H501.298C519.391 3.91016 532.961 7.82015 542.008 15.6402C551.054 23.4602 555.578 34.3468 555.578 48.3002C555.578 56.1202 554.428 62.6368 552.128 67.8502C549.828 72.9102 547.144 77.0502 544.078 80.2702C541.011 83.3368 537.944 85.5602 534.878 86.9402C531.964 88.3202 529.818 89.2402 528.438 89.7002V90.1602C530.891 90.4668 533.498 91.2335 536.258 92.4602C539.171 93.6868 541.854 95.6802 544.308 98.4402C546.761 101.047 548.754 104.497 550.288 108.79C551.974 113.084 552.818 118.45 552.818 124.89C552.818 134.55 553.508 143.367 554.888 151.34C556.421 159.16 558.721 164.757 561.788 168.13H530.968C528.821 164.603 527.518 160.694 527.058 156.4C526.751 152.107 526.598 147.967 526.598 143.98C526.598 136.467 526.138 130.027 525.218 124.66C524.298 119.14 522.611 114.617 520.158 111.09C517.704 107.41 514.331 104.727 510.038 103.04C505.898 101.353 500.531 100.51 493.938 100.51H451.618V168.13H422.868V3.91016ZM451.618 78.6602H498.768C507.968 78.6602 514.944 76.5135 519.698 72.2202C524.451 67.7735 526.828 61.1802 526.828 52.4402C526.828 47.2268 526.061 43.0102 524.528 39.7902C522.994 36.4168 520.848 33.8102 518.088 31.9702C515.481 30.1302 512.414 28.9035 508.888 28.2902C505.514 27.6768 501.988 27.3702 498.308 27.3702H451.618V78.6602Z" fill="white"/>
<path d="M283.259 3.91016H355.709C367.363 3.91016 376.869 5.59683 384.229 8.97016C391.589 12.3435 397.263 16.5602 401.249 21.6202C405.236 26.6802 407.919 32.2002 409.299 38.1802C410.833 44.1602 411.599 49.6802 411.599 54.7402C411.599 59.8002 410.833 65.3202 409.299 71.3002C407.919 77.1268 405.236 82.5702 401.249 87.6302C397.263 92.6902 391.589 96.9068 384.229 100.28C376.869 103.5 367.363 105.11 355.709 105.11H312.009V168.13H283.259V3.91016ZM312.009 81.6502H354.099C357.319 81.6502 360.616 81.1902 363.989 80.2702C367.363 79.3502 370.429 77.8935 373.189 75.9002C376.103 73.7535 378.403 70.9935 380.089 67.6202C381.929 64.0935 382.849 59.7235 382.849 54.5102C382.849 49.1435 382.083 44.6968 380.549 41.1702C379.016 37.6435 376.946 34.8835 374.339 32.8902C371.733 30.7435 368.743 29.2868 365.369 28.5201C361.996 27.7535 358.393 27.3702 354.559 27.3702H312.009V81.6502Z" fill="white"/>
<path d="M152.187 3.91016H270.407V28.7502H180.937V71.7602H263.737V95.2202H180.937V143.29H272.017V168.13H152.187V3.91016Z" fill="white"/>
<path d="M0 3.91016H68.08C80.6533 3.91016 91.54 6.05682 100.74 10.3502C109.94 14.6435 117.453 20.5468 123.28 28.0602C129.107 35.4202 133.4 44.0835 136.16 54.0502C139.073 64.0168 140.53 74.6735 140.53 86.0202C140.53 97.3668 139.073 108.023 136.16 117.99C133.4 127.957 129.107 136.697 123.28 144.21C117.453 151.57 109.94 157.397 100.74 161.69C91.54 165.983 80.6533 168.13 68.08 168.13H0V3.91016ZM28.75 144.67H57.04C68.2333 144.67 77.3567 143.214 84.41 140.3C91.6167 137.234 97.2133 133.094 101.2 127.88C105.34 122.513 108.1 116.303 109.48 109.25C111.013 102.043 111.78 94.3002 111.78 86.0202C111.78 77.7402 111.013 70.0735 109.48 63.0202C108.1 55.8135 105.34 49.6035 101.2 44.3902C97.2133 39.0235 91.6167 34.8835 84.41 31.9702C77.3567 28.9035 68.2333 27.3702 57.04 27.3702H28.75V144.67Z" fill="white"/>
<path d="M1776.46 24.6102C1769.41 24.6102 1763.43 26.7568 1758.52 31.0502C1753.62 35.1902 1751.16 41.2468 1751.16 49.2202C1751.16 56.8868 1753.54 62.7902 1758.29 66.9302C1763.05 70.9168 1769.1 72.9102 1776.46 72.9102C1783.82 72.9102 1789.88 70.9168 1794.63 66.9302C1799.39 62.7902 1801.76 56.8868 1801.76 49.2202C1801.76 41.2468 1799.31 35.1902 1794.4 31.0502C1789.5 26.7568 1783.52 24.6102 1776.46 24.6102ZM1776.46 171.35C1768.34 171.35 1760.75 170.2 1753.69 167.9C1746.79 165.6 1740.81 162.303 1735.75 158.01C1730.69 153.563 1726.71 148.197 1723.79 141.91C1721.03 135.623 1719.65 128.57 1719.65 120.75C1719.65 110.63 1722.26 102.12 1727.47 95.2202C1732.84 88.3202 1740.05 83.7202 1749.09 81.4202V80.9602C1741.73 78.2002 1736.06 73.9835 1732.07 68.3102C1728.24 62.4835 1726.32 55.6602 1726.32 47.8402C1726.32 34.0402 1730.62 23.3068 1739.2 15.6402C1747.94 7.82015 1760.36 3.91016 1776.46 3.91016C1792.56 3.91016 1804.91 7.82015 1813.49 15.6402C1822.23 23.3068 1826.6 34.0402 1826.6 47.8402C1826.6 55.6602 1824.61 62.4835 1820.62 68.3102C1816.79 73.9835 1811.19 78.2002 1803.83 80.9602V81.4202C1812.88 83.7202 1820.01 88.3202 1825.22 95.2202C1830.59 102.12 1833.27 110.63 1833.27 120.75C1833.27 128.57 1831.82 135.623 1828.9 141.91C1826.14 148.197 1822.23 153.563 1817.17 158.01C1812.11 162.303 1806.06 165.6 1799 167.9C1792.1 170.2 1784.59 171.35 1776.46 171.35ZM1776.46 150.65C1785.2 150.65 1792.49 148.044 1798.31 142.83C1804.14 137.617 1807.05 130.257 1807.05 120.75C1807.05 111.857 1804.14 104.957 1798.31 100.05C1792.49 94.9902 1785.2 92.4602 1776.46 92.4602C1767.72 92.4602 1760.44 94.9902 1754.61 100.05C1748.79 104.957 1745.87 111.857 1745.87 120.75C1745.87 130.257 1748.79 137.617 1754.61 142.83C1760.44 148.044 1767.72 150.65 1776.46 150.65Z" fill="white"/>
<path d="M1610.71 33.8099C1616.23 33.8099 1621.6 33.3499 1626.81 32.4299C1632.02 31.5099 1636.7 29.9766 1640.84 27.8299C1645.13 25.6832 1648.74 22.9232 1651.65 19.5499C1654.72 16.1765 1656.71 12.0366 1657.63 7.12988H1679.02V168.13H1650.27V54.5099H1610.71V33.8099Z" fill="white"/>
</svg>
