<svg width="316" height="316" viewBox="0 0 316 316" fill="none" xmlns="http://www.w3.org/2000/svg">
<g clip-path="url(#clip0_12_322)">
<path d="M157.903 316.026C244.949 316.026 315.513 245.554 315.513 158.623C315.513 71.6915 244.949 1.2196 157.903 1.2196C70.8572 1.2196 0.292602 71.6915 0.292601 158.623C0.2926 245.554 70.8572 316.026 157.903 316.026Z" fill="black"/>
<path d="M157.904 306.549C239.709 306.549 306.025 240.32 306.025 158.622C306.025 76.925 239.709 10.6962 157.904 10.6962C76.0992 10.6962 9.7832 76.925 9.7832 158.622C9.7832 240.32 76.0992 306.549 157.904 306.549Z" fill="white"/>
<path d="M126.568 152.093V142.06H109.978V134.16L125.778 96.7928H135.258V134.16H139.366V142.06H135.258V152.093H126.568ZM117.878 134.16H126.568V112.593H126.41L117.878 134.16ZM156.224 152.883C147.692 152.883 143.031 147.827 143.031 138.979V109.907C143.031 101.059 147.692 96.0028 156.224 96.0028C164.756 96.0028 169.417 101.059 169.417 109.907V138.979C169.417 147.827 164.756 152.883 156.224 152.883ZM156.224 144.983C158.989 144.983 160.727 143.482 160.727 139.532V109.354C160.727 105.404 158.989 103.903 156.224 103.903C153.459 103.903 151.721 105.404 151.721 109.354V139.532C151.721 143.482 153.459 144.983 156.224 144.983ZM189.83 152.093V142.06H173.24V134.16L189.04 96.7928H198.52V134.16H202.628V142.06H198.52V152.093H189.83ZM181.14 134.16H189.83V112.593H189.672L181.14 134.16ZM81.5198 219.093V163.793H105.22V171.693H90.2098V186.308H102.139V194.208H90.2098V211.193H105.22V219.093H81.5198ZM110.219 219.093V163.793H123.096C132.102 163.793 135.973 167.98 135.973 176.512V179.909C135.973 185.597 134.156 189.231 130.285 190.811V190.969C134.63 192.312 136.052 196.42 136.052 202.661V212.378C136.052 215.064 136.131 217.039 137 219.093H128.152C127.678 217.671 127.362 216.802 127.362 212.299V202.187C127.362 197.052 125.861 195.393 121.911 195.393H118.909V219.093H110.219ZM118.909 187.493H122.069C125.308 187.493 127.283 186.071 127.283 181.647V177.381C127.283 173.431 125.94 171.693 122.859 171.693H118.909V187.493ZM142.081 219.093V163.793H154.958C163.964 163.793 167.835 167.98 167.835 176.512V179.909C167.835 185.597 166.018 189.231 162.147 190.811V190.969C166.492 192.312 167.914 196.42 167.914 202.661V212.378C167.914 215.064 167.993 217.039 168.862 219.093H160.014C159.54 217.671 159.224 216.802 159.224 212.299V202.187C159.224 197.052 157.723 195.393 153.773 195.393H150.771V219.093H142.081ZM150.771 187.493H153.931C157.17 187.493 159.145 186.071 159.145 181.647V177.381C159.145 173.431 157.802 171.693 154.721 171.693H150.771V187.493ZM186.505 219.883C177.973 219.883 173.312 214.827 173.312 205.979V176.907C173.312 168.059 177.973 163.003 186.505 163.003C195.037 163.003 199.698 168.059 199.698 176.907V205.979C199.698 214.827 195.037 219.883 186.505 219.883ZM186.505 211.983C189.27 211.983 191.008 210.482 191.008 206.532V176.354C191.008 172.404 189.27 170.903 186.505 170.903C183.74 170.903 182.002 172.404 182.002 176.354V206.532C182.002 210.482 183.74 211.983 186.505 211.983ZM205.574 219.093V163.793H218.451C227.457 163.793 231.328 167.98 231.328 176.512V179.909C231.328 185.597 229.511 189.231 225.64 190.811V190.969C229.985 192.312 231.407 196.42 231.407 202.661V212.378C231.407 215.064 231.486 217.039 232.355 219.093H223.507C223.033 217.671 222.717 216.802 222.717 212.299V202.187C222.717 197.052 221.216 195.393 217.266 195.393H214.264V219.093H205.574ZM214.264 187.493H217.424C220.663 187.493 222.638 186.071 222.638 181.647V177.381C222.638 173.431 221.295 171.693 218.214 171.693H214.264V187.493Z" fill="black"/>
<circle cx="16.6777" cy="158" r="3.51111" fill="black"/>
<circle cx="299.322" cy="158" r="3.51111" fill="black"/>
<circle cx="28.6608" cy="214.95" r="3.51111" transform="rotate(-23.7647 28.6608 214.95)" fill="black"/>
<circle cx="287.339" cy="101.05" r="3.51111" transform="rotate(-23.7647 287.339 101.05)" fill="black"/>
<circle cx="60.4358" cy="260.241" r="3.51111" transform="rotate(-46.3408 60.4358 260.241)" fill="black"/>
<circle cx="255.564" cy="55.7595" r="3.51111" transform="rotate(-46.3408 255.564 55.7595)" fill="black"/>
<circle cx="158" cy="299.322" r="3.51111" transform="rotate(-90 158 299.322)" fill="black"/>
<circle cx="158" cy="16.6775" r="3.51111" transform="rotate(-90 158 16.6775)" fill="black"/>
<circle cx="27.9883" cy="102.602" r="3.51111" transform="rotate(23.0789 27.9883 102.602)" fill="black"/>
<circle cx="288.011" cy="213.398" r="3.51111" transform="rotate(23.0789 288.011 213.398)" fill="black"/>
<circle cx="58.2007" cy="57.9396" r="3.51111" transform="rotate(45.0748 58.2007 57.9396)" fill="black"/>
<circle cx="257.799" cy="258.061" r="3.51111" transform="rotate(45.0748 257.799 258.061)" fill="black"/>
<circle cx="101.321" cy="28.5416" r="3.51111" transform="rotate(66.3554 101.321 28.5416)" fill="black"/>
<circle cx="214.679" cy="287.458" r="3.51111" transform="rotate(66.3554 214.679 287.458)" fill="black"/>
<circle cx="210.7" cy="26.8713" r="3.51111" transform="rotate(111.895 210.7 26.8713)" fill="black"/>
<circle cx="105.3" cy="289.128" r="3.51111" transform="rotate(111.895 105.3 289.128)" fill="black"/>
</g>
<defs>
<clipPath id="clip0_12_322">
<rect width="316" height="316" fill="white"/>
</clipPath>
</defs>
</svg>
