<svg width="1024" height="400" viewBox="0 0 1024 400" fill="none" xmlns="http://www.w3.org/2000/svg">
<g clip-path="url(#clip0_370_9308)">
<rect width="1024" height="400" fill="#FFEC86"/>
<path d="M649.101 161.881L859 400L201 400L401.795 126L649.101 161.881Z" fill="#A0EEE9"/>
<path d="M43.78 35H48.25L51.67 56H48.37L47.77 51.83V51.89H44.02L43.42 56H40.36L43.78 35ZM47.38 49.04L45.91 38.66H45.85L44.41 49.04H47.38ZM53.271 35H58.251C59.951 35 61.191 35.4 61.971 36.2C62.751 36.98 63.141 38.19 63.141 39.83V40.67C63.141 41.75 62.961 42.63 62.601 43.31C62.261 43.99 61.731 44.48 61.011 44.78V44.84C62.651 45.4 63.471 46.86 63.471 49.22V51.02C63.471 52.64 63.041 53.88 62.181 54.74C61.341 55.58 60.101 56 58.461 56H53.271V35ZM57.861 43.55C58.521 43.55 59.011 43.38 59.331 43.04C59.671 42.7 59.841 42.13 59.841 41.33V40.16C59.841 39.4 59.701 38.85 59.421 38.51C59.161 38.17 58.741 38 58.161 38H56.571V43.55H57.861ZM58.461 53C59.041 53 59.471 52.85 59.751 52.55C60.031 52.23 60.171 51.69 60.171 50.93V49.1C60.171 48.14 60.001 47.48 59.661 47.12C59.341 46.74 58.801 46.55 58.041 46.55H56.571V53H58.461ZM70.1699 56.3C68.5499 56.3 67.3099 55.84 66.4499 54.92C65.5899 54 65.1599 52.7 65.1599 51.02V39.98C65.1599 38.3 65.5899 37 66.4499 36.08C67.3099 35.16 68.5499 34.7 70.1699 34.7C71.7899 34.7 73.0299 35.16 73.8899 36.08C74.7499 37 75.1799 38.3 75.1799 39.98V51.02C75.1799 52.7 74.7499 54 73.8899 54.92C73.0299 55.84 71.7899 56.3 70.1699 56.3ZM70.1699 53.3C71.3099 53.3 71.8799 52.61 71.8799 51.23V39.77C71.8799 38.39 71.3099 37.7 70.1699 37.7C69.0299 37.7 68.4599 38.39 68.4599 39.77V51.23C68.4599 52.61 69.0299 53.3 70.1699 53.3ZM82.2116 56.3C80.6116 56.3 79.3916 55.85 78.5516 54.95C77.7116 54.03 77.2916 52.72 77.2916 51.02V35H80.5916V51.26C80.5916 51.98 80.7316 52.5 81.0116 52.82C81.3116 53.14 81.7316 53.3 82.2716 53.3C82.8116 53.3 83.2216 53.14 83.5016 52.82C83.8016 52.5 83.9516 51.98 83.9516 51.26V35H87.1316V51.02C87.1316 52.72 86.7116 54.03 85.8716 54.95C85.0316 55.85 83.8116 56.3 82.2116 56.3ZM92.062 38H88.612V35H98.812V38H95.362V56H92.062V38ZM41.23 66H46.27C47.91 66 49.14 66.44 49.96 67.32C50.78 68.2 51.19 69.49 51.19 71.19V81.81C51.19 83.51 50.78 84.8 49.96 85.68C49.14 86.56 47.91 87 46.27 87H41.23V66ZM46.21 84C46.75 84 47.16 83.84 47.44 83.52C47.74 83.2 47.89 82.68 47.89 81.96V71.04C47.89 70.32 47.74 69.8 47.44 69.48C47.16 69.16 46.75 69 46.21 69H44.53V84H46.21ZM53.4175 66H58.2775C59.9175 66 61.1475 66.44 61.9675 67.32C62.7875 68.2 63.1975 69.49 63.1975 71.19V73.26C63.1975 74.96 62.7875 76.25 61.9675 77.13C61.1475 78.01 59.9175 78.45 58.2775 78.45H56.7175V87H53.4175V66ZM58.2775 75.45C58.8175 75.45 59.2175 75.3 59.4775 75C59.7575 74.7 59.8975 74.19 59.8975 73.47V70.98C59.8975 70.26 59.7575 69.75 59.4775 69.45C59.2175 69.15 58.8175 69 58.2775 69H56.7175V75.45H58.2775ZM64.9898 66H69.6998L71.7998 81.03H71.8598L73.9598 66H78.6698V87H75.5498V71.1H75.4898L73.0898 87H70.3298L67.9298 71.1H67.8698V87H64.9898V66ZM90.557 70.98H87.107V68.64C88.047 68.64 88.797 68.56 89.357 68.4C89.937 68.24 90.397 67.98 90.737 67.62C91.077 67.24 91.377 66.7 91.637 66H93.857V87H90.557V70.98ZM102.779 87.3C101.179 87.3 99.9588 86.85 99.1188 85.95C98.2788 85.03 97.8588 83.72 97.8588 82.02V80.37H100.979V82.26C100.979 83.62 101.549 84.3 102.689 84.3C103.829 84.3 104.399 83.62 104.399 82.26V77.55C104.399 76.17 103.829 75.48 102.689 75.48C101.549 75.48 100.979 76.17 100.979 77.55V77.73H97.8588L98.4588 66H107.159V69H101.399L101.129 74.01H101.189C101.809 72.99 102.759 72.48 104.039 72.48C105.239 72.48 106.149 72.89 106.769 73.71C107.389 74.53 107.699 75.72 107.699 77.28V82.02C107.699 83.72 107.279 85.03 106.439 85.95C105.599 86.85 104.379 87.3 102.779 87.3ZM112.54 69H109.09V66H119.29V69H115.84V87H112.54V69ZM120.888 66H124.188V74.55H127.728V66H131.028V87H127.728V77.55H124.188V87H120.888V66Z" fill="black"/>
<path d="M963.22 70.4486C962.649 69.6719 961.906 68.838 960.992 67.9471C960.078 67.079 959.165 66.3022 958.251 65.6169L956.675 68.4268C957.68 69.2036 958.685 70.0831 959.69 71.0654C960.672 72.0478 961.609 73.0758 962.5 74.1495C963.368 75.2233 964.134 76.2741 964.796 77.3022C965.459 76.2741 966.235 75.2233 967.126 74.1495C967.994 73.0758 968.931 72.0478 969.936 71.0654C970.919 70.0831 971.912 69.2036 972.917 68.4268L971.341 65.6169C970.405 66.3022 969.491 67.079 968.6 67.9471C967.686 68.838 966.943 69.6719 966.372 70.4486L966.372 45.6045L963.22 45.6045L963.22 70.4486Z" fill="black"/>
<path d="M223.02 243H249.84L270.36 369H250.56L246.96 343.98V344.34H224.46L220.86 369H202.5L223.02 243ZM244.62 327.24L235.8 264.96H235.44L226.8 327.24H244.62ZM279.966 243H309.846C320.046 243 327.486 245.4 332.166 250.2C336.846 254.88 339.186 262.14 339.186 271.98V277.02C339.186 283.5 338.106 288.78 335.946 292.86C333.906 296.94 330.726 299.88 326.406 301.68V302.04C336.246 305.4 341.166 314.16 341.166 328.32V339.12C341.166 348.84 338.586 356.28 333.426 361.44C328.386 366.48 320.946 369 311.106 369H279.966V243ZM307.506 294.3C311.466 294.3 314.406 293.28 316.326 291.24C318.366 289.2 319.386 285.78 319.386 280.98V273.96C319.386 269.4 318.546 266.1 316.866 264.06C315.306 262.02 312.786 261 309.306 261H299.766V294.3H307.506ZM311.106 351C314.586 351 317.166 350.1 318.846 348.3C320.526 346.38 321.366 343.14 321.366 338.58V327.6C321.366 321.84 320.346 317.88 318.306 315.72C316.386 313.44 313.146 312.3 308.586 312.3H299.766V351H311.106ZM381.359 370.8C371.639 370.8 364.199 368.04 359.039 362.52C353.879 357 351.299 349.2 351.299 339.12V272.88C351.299 262.8 353.879 255 359.039 249.48C364.199 243.96 371.639 241.2 381.359 241.2C391.079 241.2 398.519 243.96 403.679 249.48C408.839 255 411.419 262.8 411.419 272.88V339.12C411.419 349.2 408.839 357 403.679 362.52C398.519 368.04 391.079 370.8 381.359 370.8ZM381.359 352.8C388.199 352.8 391.619 348.66 391.619 340.38V271.62C391.619 263.34 388.199 259.2 381.359 259.2C374.519 259.2 371.099 263.34 371.099 271.62V340.38C371.099 348.66 374.519 352.8 381.359 352.8ZM453.61 370.8C444.01 370.8 436.69 368.1 431.65 362.7C426.61 357.18 424.09 349.32 424.09 339.12V243H443.89V340.56C443.89 344.88 444.73 348 446.41 349.92C448.21 351.84 450.73 352.8 453.97 352.8C457.21 352.8 459.67 351.84 461.35 349.92C463.15 348 464.05 344.88 464.05 340.56V243H483.13V339.12C483.13 349.32 480.61 357.18 475.57 362.7C470.53 368.1 463.21 370.8 453.61 370.8ZM512.712 261H492.012V243H553.212V261H532.512V369H512.712V261ZM591.626 243H621.866C631.706 243 639.086 245.64 644.006 250.92C648.926 256.2 651.386 263.94 651.386 274.14V337.86C651.386 348.06 648.926 355.8 644.006 361.08C639.086 366.36 631.706 369 621.866 369H591.626V243ZM621.506 351C624.746 351 627.206 350.04 628.886 348.12C630.686 346.2 631.586 343.08 631.586 338.76V273.24C631.586 268.92 630.686 265.8 628.886 263.88C627.206 261.96 624.746 261 621.506 261H611.426V351H621.506ZM664.751 243H693.911C703.751 243 711.131 245.64 716.051 250.92C720.971 256.2 723.431 263.94 723.431 274.14V286.56C723.431 296.76 720.971 304.5 716.051 309.78C711.131 315.06 703.751 317.7 693.911 317.7H684.551V369H664.751V243ZM693.911 299.7C697.151 299.7 699.551 298.8 701.111 297C702.791 295.2 703.631 292.14 703.631 287.82V272.88C703.631 268.56 702.791 265.5 701.111 263.7C699.551 261.9 697.151 261 693.911 261H684.551V299.7H693.911ZM734.185 243H762.445L775.045 333.18H775.405L788.005 243H816.265V369H797.545V273.6H797.185L782.785 369H766.225L751.825 273.6H751.465V369H734.185V243Z" fill="black"/>
<path d="M512.137 236.864C446.682 236.864 386.865 198.845 358.987 139.786C299.906 111.908 261.908 52.0908 261.908 -13.3647C261.908 -78.8203 299.927 -138.637 358.987 -166.515C386.865 -225.595 446.682 -263.594 512.137 -263.594C577.593 -263.594 637.409 -225.574 665.288 -166.515C724.368 -138.637 762.366 -78.8203 762.366 -13.3647C762.366 52.0908 724.347 111.908 665.288 139.786C637.409 198.866 577.593 236.864 512.137 236.864Z" fill="white"/>
<path d="M512.72 -36L652.5 161.5C615.15 188.256 606.5 237.5 512.72 237.5C435.5 237.5 383.092 173.861 372.5 165.5L512.72 -36Z" fill="#F4F4F4"/>
<path d="M512.114 -256.272C577.78 -256.272 634.314 -217.18 659.731 -161.003C715.908 -135.586 755 -79.0519 755 -13.386C755 52.2799 715.908 108.814 659.731 134.231C634.314 190.408 577.78 229.5 512.114 229.5C446.448 229.5 389.914 190.408 364.497 134.231C308.32 108.814 269.228 52.2799 269.228 -13.386C269.228 -79.0519 308.32 -135.586 364.497 -161.003C389.914 -217.18 446.448 -256.272 512.114 -256.272ZM512.114 -271C444.681 -271 383.012 -232.349 353.43 -172.07C293.15 -142.509 254.5 -80.8192 254.5 -13.386C254.5 54.0473 293.15 115.716 353.43 145.298C382.991 205.578 444.681 244.228 512.114 244.228C579.547 244.228 641.216 205.578 670.798 145.298C731.078 115.737 769.728 54.0473 769.728 -13.386C769.728 -80.8192 731.078 -142.488 670.798 -172.07C641.237 -232.349 579.547 -271 512.114 -271Z" fill="black"/>
<path d="M506.072 183.422V181.192C506.072 177.552 508.239 175.279 512.132 175.279C516.024 175.279 518.191 177.552 518.191 181.192V183.422C518.191 185.694 517.223 187.314 515.519 188.135C517.076 188.997 517.96 190.575 517.96 192.785V194.363C517.96 197.834 515.856 200.043 512.153 200.043C508.45 200.043 506.346 197.834 506.346 194.363V192.785C506.346 190.575 507.25 188.997 508.786 188.135C507.061 187.314 506.114 185.694 506.114 183.422H506.072ZM509.712 183.632C509.712 185.568 510.532 186.388 512.11 186.388C513.689 186.388 514.509 185.568 514.509 183.632V181.128C514.509 179.55 513.689 178.73 512.11 178.73C510.532 178.73 509.712 179.55 509.712 181.128V183.632ZM514.278 192.574C514.278 190.639 513.457 189.818 512.11 189.818C510.764 189.818 509.943 190.639 509.943 192.574V194.426C509.943 195.835 510.701 196.593 512.11 196.593C513.52 196.593 514.278 195.835 514.278 194.426V192.574Z" fill="black"/>
<path d="M512.119 220.957C514.978 220.957 517.295 218.64 517.295 215.781C517.295 212.923 514.978 210.605 512.119 210.605C509.261 210.605 506.943 212.923 506.943 215.781C506.943 218.64 509.261 220.957 512.119 220.957Z" fill="black"/>
</g>
<defs>
<clipPath id="clip0_370_9308">
<rect width="1024" height="400" fill="white"/>
</clipPath>
</defs>
</svg>
