<svg width="171" height="171" viewBox="0 0 171 171" fill="none" xmlns="http://www.w3.org/2000/svg">
<rect x="0.523438" y="0.851562" width="170" height="170" rx="24" fill="white"/>
<path d="M46.4679 70.0078C42.2408 70.0078 38.1867 71.6768 35.1976 74.6477C32.2085 77.6185 30.5293 81.6478 30.5293 85.8493C30.5293 90.0507 32.2085 94.08 35.1976 97.0508C38.1867 100.022 42.2408 101.691 46.4679 101.691C50.6951 101.691 54.7492 100.022 57.7383 97.0508C60.7274 94.08 62.4066 90.0507 62.4066 85.8493C62.4066 81.6478 60.7274 77.6185 57.7383 74.6477C54.7492 71.6768 50.6951 70.0078 46.4679 70.0078ZM46.4679 94.7289C45.2947 94.7294 44.1329 94.5001 43.0488 94.0542C41.9647 93.6083 40.9797 92.9545 40.1499 92.1301C39.3201 91.3057 38.6619 90.327 38.2128 89.2497C37.7637 88.1724 37.5326 87.0178 37.5326 85.8517C37.5324 84.6858 37.7633 83.5313 38.2121 82.4541C38.6609 81.3769 39.3188 80.3982 40.1482 79.5737C40.9776 78.7493 41.9623 78.0953 43.046 77.6491C44.1297 77.2029 45.2913 76.9732 46.4643 76.9732C48.8332 76.9735 51.1051 77.9091 52.7801 79.5741C54.455 81.2391 55.396 83.4972 55.396 85.8517C55.396 88.2054 54.4555 90.4629 52.7813 92.1276C51.107 93.7923 48.8362 94.728 46.4679 94.7289Z" fill="black"/>
<path d="M118.562 76.9766C115.259 76.9769 112.091 78.2789 109.755 80.5963C107.42 82.9136 106.107 86.0564 106.107 89.3335C106.107 92.6104 107.42 95.7532 109.755 98.0703C112.091 100.387 115.259 101.689 118.562 101.689C121.865 101.689 125.034 100.387 127.369 98.0704C129.705 95.7533 131.018 92.6105 131.018 89.3335C131.018 86.0563 129.705 82.9135 127.37 80.5962C125.034 78.2789 121.866 76.9769 118.562 76.9766ZM118.562 95.6812C116.865 95.6812 115.238 95.0124 114.038 93.822C112.838 92.6316 112.164 91.017 112.164 89.3335C112.163 88.4998 112.329 87.6742 112.65 86.904C112.972 86.1337 113.443 85.4338 114.037 84.8442C114.631 84.2546 115.337 83.787 116.113 83.4679C116.89 83.1488 117.722 82.9846 118.562 82.9846C119.403 82.9844 120.235 83.1485 121.011 83.4675C121.788 83.7865 122.494 84.2542 123.088 84.8438C123.682 85.4334 124.154 86.1333 124.475 86.9037C124.797 87.674 124.962 88.4997 124.962 89.3335C124.962 90.1672 124.796 90.9927 124.475 91.7629C124.153 92.5331 123.682 93.233 123.087 93.8224C122.493 94.4119 121.788 94.8794 121.011 95.1983C120.235 95.5173 119.403 95.6814 118.562 95.6812Z" fill="black"/>
<path d="M65.1504 101.463V88.7579C65.1504 88.7579 65.8594 78.0825 76.6459 78.0825C76.6459 78.0825 82.2686 77.3991 84.6191 81.7092C84.6191 81.7092 88.1851 77.1483 95.2671 78.1952C100.387 79.2858 103.442 83.694 103.766 88.9081C103.773 89.0184 103.779 89.1299 103.783 89.2413V101.559H96.8261V89.8932C96.8261 89.8932 97.228 85.1251 92.2913 85.1251C87.9483 85.1251 88.0114 89.9102 88.0114 89.9102V101.696H80.8747V89.3359C80.8747 89.3359 80.4595 85.1966 76.6896 85.0948C71.663 84.9579 72.0758 89.434 72.0758 89.434L72.1208 101.504L65.1504 101.463Z" fill="black"/>
<path d="M136.927 101.689C138.909 101.689 140.516 100.129 140.516 98.2039C140.516 96.2791 138.909 94.7188 136.927 94.7188C134.945 94.7188 133.338 96.2791 133.338 98.2039C133.338 100.129 134.945 101.689 136.927 101.689Z" fill="#F0572E"/>
</svg>
