<svg width="1920" height="301" viewBox="0 0 1920 301" fill="none" xmlns="http://www.w3.org/2000/svg">
<g clip-path="url(#clip0_1130_10010)">
<rect width="1920" height="301" fill="black"/>
<g filter="url(#filter0_f_1130_10010)">
<path d="M460.854 411.768L350 -28.4681L1437 -88L1383.94 158.632L1138.59 508.82V814.983L835.446 846L641.583 555.344L460.854 411.768Z" fill="url(#paint0_linear_1130_10010)"/>
</g>
<circle cx="783.48" cy="283.844" r="8.79493" transform="rotate(2.41818 783.48 283.844)" fill="#88BAFF" fill-opacity="0.4"/>
<ellipse cx="959.58" cy="114.247" rx="10.0513" ry="10.6796" transform="rotate(2.41818 959.58 114.247)" fill="#FFE6FF" fill-opacity="0.2"/>
<ellipse cx="1284.92" cy="67.9728" rx="9.42314" ry="10.6796" transform="rotate(2.41818 1284.92 67.9728)" fill="#88BAFF" fill-opacity="0.2"/>
<ellipse cx="1245.59" cy="105.924" rx="14.4488" ry="15.077" transform="rotate(2.41818 1245.59 105.924)" fill="#88BAFF" fill-opacity="0.1"/>
<circle cx="672.556" cy="260.292" r="10.0513" transform="rotate(2.41818 672.556 260.292)" fill="#FFE6FF" fill-opacity="0.1"/>
<circle cx="660.246" cy="15.8125" r="25.1284" transform="rotate(2.41818 660.246 15.8125)" fill="#FFE6FF" fill-opacity="0.1"/>
<ellipse cx="652.925" cy="204.135" rx="5.65388" ry="6.28209" transform="rotate(2.41818 652.925 204.135)" fill="#FFE6FF" fill-opacity="0.1"/>
<ellipse cx="1031.45" cy="18.9148" rx="5.02567" ry="5.65388" transform="rotate(2.41818 1031.45 18.9148)" fill="#FFE6FF" fill-opacity="0.2"/>
<ellipse cx="1053.36" cy="310.334" rx="9.42314" ry="10.0513" transform="rotate(2.41818 1053.36 310.334)" fill="#88BAFF" fill-opacity="0.4"/>
<circle cx="1046.04" cy="35.4597" r="8.79493" transform="rotate(2.41818 1046.04 35.4597)" fill="#FFE6FF" fill-opacity="0.2"/>
<ellipse cx="1276.5" cy="29.2586" rx="5.65388" ry="6.28209" transform="rotate(2.41818 1276.5 29.2586)" fill="#88BAFF" fill-opacity="0.1"/>
<circle cx="1061.7" cy="-0.89493" r="5.02567" transform="rotate(2.41818 1061.7 -0.89493)" fill="#FFE6FF" fill-opacity="0.2"/>
<path fill-rule="evenodd" clip-rule="evenodd" d="M933.78 151.895L958.253 165.671L953.444 174.214L936.372 164.605L924.118 186.374L948.07 199.856L943.261 208.399L919.309 194.917L919.308 194.919L910.765 190.11L932.636 151.255L933.778 151.898L933.78 151.895Z" fill="white"/>
<path fill-rule="evenodd" clip-rule="evenodd" d="M1058.76 222.255L1034.29 208.48L1029.48 217.023L1046.55 226.632L1034.3 248.401L1010.35 234.921L1005.54 243.465L1036.89 261.112L1036.89 261.111L1038.03 261.752L1059.9 222.897L1058.76 222.256L1058.76 222.255Z" fill="white"/>
<path d="M955.132 125.053L1070.63 190.066L987.187 265.539L933.895 235.541L955.132 125.053Z" fill="#FF90FF"/>
<rect x="954.383" y="112.62" width="146.041" height="20.9347" transform="rotate(29.3751 954.383 112.62)" fill="#006AFE"/>
<rect x="947.928" y="243.449" width="28.9487" height="45.6251" transform="rotate(29.3751 947.928 243.449)" fill="white"/>
<rect x="917.907" y="267.021" width="58.1475" height="20.7021" transform="rotate(29.3751 917.907 267.021)" fill="white"/>
<rect x="872.816" y="257.539" width="146.041" height="57.7145" transform="rotate(29.3751 872.816 257.539)" fill="#006AFE"/>
<rect x="879.113" y="275.481" width="117.459" height="32.6216" transform="rotate(29.3751 879.113 275.481)" fill="#4C97FF"/>
<path fill-rule="evenodd" clip-rule="evenodd" d="M1002.61 183.641L1002.61 183.64L995.933 179.879L995.932 179.88L989.361 176.18L985.6 182.862L992.171 186.561L973.294 220.097L966.716 216.394L962.955 223.075L982.773 234.231L986.534 227.549L979.976 223.858L998.853 190.322L998.859 190.325L1002.62 183.644L1002.61 183.641Z" fill="white"/>
<circle cx="844.875" cy="299.461" r="2.45195" transform="rotate(173.065 844.875 299.461)" fill="#88BAFF" fill-opacity="0.5"/>
<ellipse cx="1032.04" cy="69.8309" rx="4.92237" ry="5.23002" transform="rotate(-4 1032.04 69.8309)" fill="#FFE6FF" fill-opacity="0.2"/>
<circle cx="949.236" cy="153.832" r="8.21474" transform="rotate(173.065 949.236 153.832)" fill="#FFE6FF"/>
<circle cx="938.836" cy="132.645" r="4.00537" transform="rotate(173.065 938.836 132.645)" fill="#FFE6FF" fill-opacity="0.8"/>
<circle cx="999.321" cy="255.643" r="4.00537" transform="rotate(-110.717 999.321 255.643)" fill="#FFE6FF" fill-opacity="0.8"/>
<circle cx="935.996" cy="128.166" r="2.54775" transform="rotate(173.065 935.996 128.166)" fill="#FFE6FF" fill-opacity="0.8"/>
<circle cx="1002.99" cy="251.819" r="2.54775" transform="rotate(-110.717 1002.99 251.819)" fill="#FFE6FF" fill-opacity="0.8"/>
<circle cx="1026.47" cy="229.916" r="2.54775" transform="rotate(-110.717 1026.47 229.916)" fill="#FFE6FF" fill-opacity="0.8"/>
<circle cx="1029.2" cy="227.579" r="1.69058" transform="rotate(-110.717 1029.2 227.579)" fill="#FFE6FF" fill-opacity="0.8"/>
<circle cx="938.388" cy="127.772" r="1.70334" transform="rotate(173.065 938.388 127.772)" fill="#FFE6FF" fill-opacity="0.8"/>
<circle cx="935.472" cy="112.097" r="1.70334" transform="rotate(173.065 935.472 112.097)" fill="#FFE6FF" fill-opacity="0.8"/>
<circle cx="932.75" cy="108.649" r="1.70334" transform="rotate(173.065 932.75 108.649)" fill="#FFE6FF" fill-opacity="0.8"/>
<circle cx="950.183" cy="144.364" r="3.32151" transform="rotate(173.065 950.183 144.364)" fill="#FFE6FF"/>
<circle cx="962.619" cy="115.066" r="5.69962" transform="rotate(173.065 962.619 115.066)" fill="#88BAFF"/>
<circle cx="955.267" cy="115.006" r="4.11639" transform="rotate(173.065 955.267 115.006)" fill="#88BAFF"/>
<circle cx="947.9" cy="121.454" r="6.76826" transform="rotate(-4 947.9 121.454)" fill="#88BAFF"/>
<circle cx="959.016" cy="97.5282" r="5.71107" transform="rotate(173.065 959.016 97.5282)" fill="#88BAFF" fill-opacity="0.7"/>
<circle cx="962.346" cy="83.9969" r="2.53316" transform="rotate(173.065 962.346 83.9969)" fill="#88BAFF" fill-opacity="0.7"/>
<circle cx="960.813" cy="60.1143" r="1.45794" transform="rotate(173.065 960.813 60.1143)" fill="#88BAFF"/>
<circle cx="988.302" cy="99.1845" r="1.26658" transform="rotate(-26.2847 988.302 99.1845)" fill="#88BAFF"/>
<circle cx="989.278" cy="101.882" r="2.21652" transform="rotate(-26.2847 989.278 101.882)" fill="#88BAFF"/>
<circle cx="991.014" cy="132.611" r="3.99942" transform="rotate(-64.3562 991.014 132.611)" fill="#88BAFF"/>
<circle cx="986.434" cy="130.067" r="2.46118" transform="rotate(-64.3562 986.434 130.067)" fill="#88BAFF"/>
<ellipse cx="925.362" cy="186.166" rx="7.38355" ry="7.6912" transform="rotate(125.188 925.362 186.166)" fill="white" fill-opacity="0.7"/>
<ellipse cx="920.172" cy="270.877" rx="7.38355" ry="7.6912" transform="rotate(174.162 920.172 270.877)" fill="white" fill-opacity="0.7"/>
<ellipse cx="929.275" cy="170.478" rx="4.61472" ry="4.30707" transform="rotate(125.188 929.275 170.478)" fill="white" fill-opacity="0.7"/>
<ellipse cx="934.577" cy="263.531" rx="4.61472" ry="4.30707" transform="rotate(174.162 934.577 263.531)" fill="white" fill-opacity="0.7"/>
<ellipse cx="927.163" cy="249.563" rx="2.92062" ry="2.72591" transform="rotate(174.162 927.163 249.563)" fill="white" fill-opacity="0.7"/>
<ellipse cx="919.589" cy="235.069" rx="3.17705" ry="2.96524" transform="rotate(174.162 919.589 235.069)" fill="white" fill-opacity="0.7"/>
<ellipse cx="920.678" cy="231.592" rx="2.22566" ry="2.07728" transform="rotate(174.162 920.678 231.592)" fill="white" fill-opacity="0.7"/>
<ellipse cx="916.866" cy="226.265" rx="1.13139" ry="1.05596" transform="rotate(174.162 916.866 226.265)" fill="white" fill-opacity="0.7"/>
<circle cx="930.358" cy="178.018" r="5.23002" transform="rotate(125.188 930.358 178.018)" fill="white" fill-opacity="0.7"/>
<circle cx="929.6" cy="269.298" r="5.23002" transform="rotate(174.162 929.6 269.298)" fill="white" fill-opacity="0.7"/>
<circle cx="926.592" cy="141.79" r="5.23002" transform="rotate(125.188 926.592 141.79)" fill="white" fill-opacity="0.7"/>
<circle cx="923.474" cy="137.996" r="2.38625" transform="rotate(125.188 923.474 137.996)" fill="white" fill-opacity="0.7"/>
<circle cx="915.586" cy="122.173" r="2.38625" transform="rotate(125.188 915.586 122.173)" fill="white" fill-opacity="0.7"/>
<circle cx="877.879" cy="258.786" r="7.59949" transform="rotate(-175.341 877.879 258.786)" fill="#88BAFF"/>
<circle cx="887.657" cy="264.206" r="6.05894" transform="rotate(-175.341 887.657 264.206)" fill="#88BAFF"/>
<circle cx="856.904" cy="247.801" r="1.26658" transform="rotate(-175.341 856.904 247.801)" fill="#88BAFF"/>
<circle cx="863.43" cy="267.142" r="1.26658" transform="rotate(-175.341 863.43 267.142)" fill="#88BAFF"/>
<circle cx="860.471" cy="261.169" r="0.77887" transform="rotate(-175.341 860.471 261.169)" fill="#88BAFF"/>
<circle cx="857.453" cy="244.984" r="2.21652" transform="rotate(-175.341 857.453 244.984)" fill="#88BAFF"/>
<circle cx="873.544" cy="242.068" r="3.82421" transform="rotate(-175.341 873.544 242.068)" fill="#88BAFF"/>
<circle cx="860.584" cy="277.214" r="3.82421" transform="rotate(-165.703 860.584 277.214)" fill="#88BAFF"/>
<circle cx="875.133" cy="238.242" r="3.02635" transform="rotate(-175.341 875.133 238.242)" fill="#88BAFF"/>
<circle cx="862.79" cy="273.709" r="3.02635" transform="rotate(-165.703 862.79 273.709)" fill="#88BAFF"/>
<circle cx="866.142" cy="255.222" r="2.21652" transform="rotate(-175.341 866.142 255.222)" fill="#88BAFF"/>
</g>
<g clip-path="url(#clip1_1130_10010)">
<path d="M566.117 49.3508H581.344C603 49.3508 610.945 62.0701 610.945 75.8771C610.945 89.6842 602.669 102.403 582.599 102.403H577.581V118.825H566.117V49.3508ZM583.104 91.2105C593.975 91.2105 599.742 84.9824 599.742 75.8771C599.742 66.7719 593.801 60.6315 583.104 60.6315H577.581V91.2105H583.104Z" fill="white"/>
<path d="M617.966 49.3508H633.193C654.849 49.3508 662.793 62.0701 662.793 75.8771C662.793 84.6315 659.448 92.9824 651.922 97.8596L663.455 118.754H649.744L641.712 101.825C639.534 102.158 637.2 102.421 634.604 102.421H629.412V118.842H617.948V49.3508H617.966ZM634.935 91.2105C645.806 91.2105 651.573 84.9824 651.573 75.8771C651.573 66.7719 645.632 60.6315 634.935 60.6315H629.412V91.2105H634.935Z" fill="white"/>
<path d="M703.771 120C682.951 120 667.968 103.246 667.968 83.9474C667.968 64.6491 682.951 48 703.771 48C724.59 48 739.486 64.7544 739.486 83.9649C739.486 103.175 724.52 120.018 703.771 120.018V120ZM703.771 108.474C717.569 108.474 728.022 97.4386 728.022 83.9649C728.022 70.4912 717.569 59.5439 703.771 59.5439C689.972 59.5439 679.432 70.4912 679.432 83.9649C679.432 97.4386 689.885 108.474 703.771 108.474Z" fill="white"/>
<path d="M743.162 94.4912H754.626C754.626 103.088 758.215 108.561 766.578 108.561C774.94 108.561 778.703 103.088 778.703 94.4912V49.3508H790.167V94.1578C790.167 110.158 781.212 119.667 766.578 119.667C751.943 119.667 743.162 110.403 743.162 94.4912Z" fill="white"/>
<path d="M799.854 49.4386H837.574V60.386H811.318V78.1579H835.413V88.3509H811.318V107.719H837.574V118.754H799.854V49.4386Z" fill="white"/>
<path d="M842.835 84.0526C842.835 64.7719 858.48 48 878.638 48C897.21 48 912.507 62.4912 914.266 79.9123H902.646C900.973 68.7193 891.025 59.5263 878.638 59.5263C864.665 59.5263 854.299 70.9825 854.299 84.0351C854.299 97.0877 864.665 108.456 878.638 108.456C891.269 108.456 901.13 99.193 902.646 87.8246H914.266C912.768 105.421 897.28 120 878.638 120C858.48 120 842.835 103.333 842.835 84.0351V84.0526Z" fill="white"/>
<path d="M927.629 60.2983H912.576V49.2632H954.146V60.2983H939.093V118.754H927.629V60.2983Z" fill="white"/>
<path d="M976.969 118.737L1003.57 49.4386H1015.61L1041.54 118.754H1029.74L1026.06 108.561H992.771L989.008 118.754H976.969V118.737ZM1022.46 98.7018L1009.58 63.0702L996.447 98.7018H1022.46Z" fill="white"/>
<path d="M1046.2 49.3508H1061.43C1083.09 49.3508 1091.03 62.0701 1091.03 75.8771C1091.03 84.6315 1087.69 92.9824 1080.16 97.8596L1091.69 118.754H1077.98L1069.95 101.825C1067.77 102.158 1065.44 102.421 1062.84 102.421H1057.65V118.842H1046.19V49.3508H1046.2ZM1063.19 91.2105C1074.06 91.2105 1079.83 84.9824 1079.83 75.8771C1079.83 66.7719 1073.89 60.6315 1063.19 60.6315H1057.67V91.2105H1063.19Z" fill="white"/>
<path d="M1096.22 84.0526C1096.22 64.7719 1111.87 48 1132.03 48C1150.6 48 1165.9 62.4912 1167.66 79.9123H1156.04C1154.36 68.7193 1144.41 59.5263 1132.03 59.5263C1118.05 59.5263 1107.69 70.9825 1107.69 84.0351C1107.69 97.0877 1118.05 108.456 1132.03 108.456C1144.66 108.456 1154.52 99.193 1156.04 87.8246H1167.66C1166.16 105.421 1150.67 120 1132.03 120C1111.87 120 1096.22 103.333 1096.22 84.0351V84.0526Z" fill="white"/>
<path d="M1175.34 49.3508H1186.8V77.5614H1212.73V49.3508H1224.26V118.754H1212.73V88.5263H1186.8V118.754H1175.34V49.3508Z" fill="white"/>
<path d="M1234.63 49.4386H1246.16V118.754H1234.63V49.4386Z" fill="white"/>
<path d="M1250.43 49.4386H1262.64L1281.3 102.07L1299.37 49.4386H1311.49L1287.49 118.754H1275.03L1250.43 49.4386Z" fill="white"/>
<path d="M1316.16 49.4386H1353.88V60.386H1327.63V78.1579H1351.72V88.3509H1327.63V107.719H1353.88V118.754H1316.16V49.4386Z" fill="white"/>
</g>
<defs>
<filter id="filter0_f_1130_10010" x="144.6" y="-293.4" width="1497.8" height="1344.8" filterUnits="userSpaceOnUse" color-interpolation-filters="sRGB">
<feFlood flood-opacity="0" result="BackgroundImageFix"/>
<feBlend mode="normal" in="SourceGraphic" in2="BackgroundImageFix" result="shape"/>
<feGaussianBlur stdDeviation="102.7" result="effect1_foregroundBlur_1130_10010"/>
</filter>
<linearGradient id="paint0_linear_1130_10010" x1="893.5" y1="7" x2="893.5" y2="846" gradientUnits="userSpaceOnUse">
<stop stop-color="#1A1D3F" stop-opacity="0.55"/>
<stop offset="1" stop-color="#2D336E"/>
</linearGradient>
<clipPath id="clip0_1130_10010">
<rect width="1920" height="301" fill="white"/>
</clipPath>
<clipPath id="clip1_1130_10010">
<rect width="787.765" height="72" fill="white" transform="translate(566.117 48)"/>
</clipPath>
</defs>
</svg>
