<svg width="360" height="180" viewBox="0 0 360 180" fill="none" xmlns="http://www.w3.org/2000/svg">
<g clip-path="url(#clip0_1094_5498)">
<rect width="360" height="180" fill="black"/>
<g filter="url(#filter0_f_1094_5498)">
<path d="M-116.485 235.366L-182 -24.8163L460.424 -60L429.064 85.7611L284.06 292.724V473.669L104.902 492L-9.67264 320.221L-116.485 235.366Z" fill="url(#paint0_linear_1094_5498)"/>
</g>
<ellipse cx="178.266" cy="119.529" rx="5.94041" ry="6.31168" transform="rotate(2.41818 178.266 119.529)" fill="#FFE6FF" fill-opacity="0.2"/>
<ellipse cx="347.303" cy="114.611" rx="8.53934" ry="8.91061" transform="rotate(2.41818 347.303 114.611)" fill="#88BAFF" fill-opacity="0.1"/>
<circle cx="1.35719" cy="61.355" r="14.851" transform="rotate(2.41818 1.35719 61.355)" fill="#FFE6FF" fill-opacity="0.1"/>
<ellipse cx="-2.96951" cy="172.655" rx="3.34148" ry="3.71276" transform="rotate(2.41818 -2.96951 172.655)" fill="#FFE6FF" fill-opacity="0.1"/>
<ellipse cx="220.743" cy="63.1865" rx="2.97021" ry="3.34148" transform="rotate(2.41818 220.743 63.1865)" fill="#FFE6FF" fill-opacity="0.2"/>
<circle cx="229.362" cy="72.9672" r="5.19786" transform="rotate(2.41818 229.362 72.9672)" fill="#FFE6FF" fill-opacity="0.2"/>
<circle cx="238.618" cy="51.4796" r="2.97021" transform="rotate(2.41818 238.618 51.4796)" fill="#FFE6FF" fill-opacity="0.2"/>
<path fill-rule="evenodd" clip-rule="evenodd" d="M162.031 90.3669L178.82 99.8173L175.521 105.678L163.809 99.0858L155.403 114.02L171.834 123.269L168.535 129.13L152.104 119.881L152.103 119.882L146.242 116.583L161.246 89.9277L162.03 90.3688L162.031 90.3669Z" fill="white"/>
<path fill-rule="evenodd" clip-rule="evenodd" d="M242.693 135.775L242.693 135.775L248.554 139.074L233.55 165.729L232.768 165.29L232.768 165.29L211.261 153.184L214.56 147.323L230.987 156.57L239.394 141.636L227.683 135.044L230.982 129.183L242.693 135.775Z" fill="white"/>
<path d="M176.679 71.9492L255.912 116.55L198.669 168.326L162.11 147.747L176.679 71.9492Z" fill="#FF90FF"/>
<rect x="176.165" y="63.4219" width="100.187" height="14.3617" transform="rotate(29.3751 176.165 63.4219)" fill="#006AFE"/>
<rect x="171.737" y="153.172" width="19.8595" height="31.2998" transform="rotate(29.3751 171.737 153.172)" fill="white"/>
<rect x="151.142" y="169.344" width="39.8905" height="14.2021" transform="rotate(29.3751 151.142 169.344)" fill="white"/>
<rect x="120.208" y="162.84" width="100.187" height="39.5934" transform="rotate(29.3751 120.208 162.84)" fill="#006AFE"/>
<rect x="124.528" y="175.148" width="80.5796" height="22.3791" transform="rotate(29.3751 124.528 175.148)" fill="#4C97FF"/>
<path fill-rule="evenodd" clip-rule="evenodd" d="M209.252 112.145L209.253 112.144L204.669 109.564L204.669 109.564L200.16 107.027L197.58 111.61L202.089 114.148L189.139 137.154L184.626 134.614L182.046 139.197L195.641 146.85L198.221 142.267L193.722 139.734L206.672 116.728L206.676 116.73L209.256 112.147L209.252 112.145Z" fill="white"/>
<ellipse cx="229.438" cy="34.0702" rx="3.37685" ry="3.5879" transform="rotate(-4 229.438 34.0702)" fill="#FFE6FF" fill-opacity="0.2"/>
<circle cx="172.634" cy="91.6956" r="5.63549" transform="rotate(173.065 172.634 91.6956)" fill="#FFE6FF"/>
<circle cx="165.5" cy="77.1588" r="2.74777" transform="rotate(173.065 165.5 77.1588)" fill="#FFE6FF" fill-opacity="0.8"/>
<circle cx="206.994" cy="161.54" r="2.74777" transform="rotate(-110.717 206.994 161.54)" fill="#FFE6FF" fill-opacity="0.8"/>
<circle cx="163.551" cy="74.0893" r="1.74781" transform="rotate(173.065 163.551 74.0893)" fill="#FFE6FF" fill-opacity="0.8"/>
<circle cx="209.513" cy="158.915" r="1.74781" transform="rotate(-110.717 209.513 158.915)" fill="#FFE6FF" fill-opacity="0.8"/>
<circle cx="225.617" cy="143.891" r="1.74781" transform="rotate(-110.717 225.617 143.891)" fill="#FFE6FF" fill-opacity="0.8"/>
<circle cx="227.491" cy="142.286" r="1.15977" transform="rotate(-110.717 227.491 142.286)" fill="#FFE6FF" fill-opacity="0.8"/>
<circle cx="165.192" cy="73.8171" r="1.16852" transform="rotate(173.065 165.192 73.8171)" fill="#FFE6FF" fill-opacity="0.8"/>
<circle cx="163.192" cy="63.0631" r="1.16852" transform="rotate(173.065 163.192 63.0631)" fill="#FFE6FF" fill-opacity="0.8"/>
<circle cx="161.324" cy="60.6999" r="1.16852" transform="rotate(173.065 161.324 60.6999)" fill="#FFE6FF" fill-opacity="0.8"/>
<circle cx="173.284" cy="85.2007" r="2.27862" transform="rotate(173.065 173.284 85.2007)" fill="#FFE6FF"/>
<circle cx="181.815" cy="65.1024" r="3.91006" transform="rotate(173.065 181.815 65.1024)" fill="#88BAFF"/>
<circle cx="176.772" cy="65.0611" r="2.82393" transform="rotate(173.065 176.772 65.0611)" fill="#88BAFF"/>
<circle cx="171.717" cy="69.4837" r="4.64317" transform="rotate(-4 171.717 69.4837)" fill="#88BAFF"/>
<circle cx="179.344" cy="53.0682" r="3.91792" transform="rotate(173.065 179.344 53.0682)" fill="#88BAFF" fill-opacity="0.7"/>
<circle cx="181.628" cy="43.7855" r="1.73781" transform="rotate(173.065 181.628 43.7855)" fill="#88BAFF" fill-opacity="0.7"/>
<circle cx="180.577" cy="27.4013" r="1.00018" transform="rotate(173.065 180.577 27.4013)" fill="#88BAFF"/>
<circle cx="199.434" cy="54.2068" r="0.868903" transform="rotate(-26.2847 199.434 54.2068)" fill="#88BAFF"/>
<circle cx="200.105" cy="56.0572" r="1.52058" transform="rotate(-26.2847 200.105 56.0572)" fill="#88BAFF"/>
<circle cx="201.295" cy="77.1358" r="2.74369" transform="rotate(-64.3562 201.295 77.1358)" fill="#88BAFF"/>
<circle cx="198.153" cy="75.3922" r="1.68843" transform="rotate(-64.3562 198.153 75.3922)" fill="#88BAFF"/>
<ellipse cx="156.256" cy="113.876" rx="5.06528" ry="5.27633" transform="rotate(125.188 156.256 113.876)" fill="white" fill-opacity="0.7"/>
<ellipse cx="152.696" cy="171.993" rx="5.06528" ry="5.27633" transform="rotate(174.162 152.696 171.993)" fill="white" fill-opacity="0.7"/>
<ellipse cx="158.941" cy="103.115" rx="3.1658" ry="2.95474" transform="rotate(125.188 158.941 103.115)" fill="white" fill-opacity="0.7"/>
<ellipse cx="162.578" cy="166.953" rx="3.1658" ry="2.95474" transform="rotate(174.162 162.578 166.953)" fill="white" fill-opacity="0.7"/>
<ellipse cx="157.492" cy="157.371" rx="2.00361" ry="1.87004" transform="rotate(174.162 157.492 157.371)" fill="white" fill-opacity="0.7"/>
<ellipse cx="152.296" cy="147.425" rx="2.17952" ry="2.03422" transform="rotate(174.162 152.296 147.425)" fill="white" fill-opacity="0.7"/>
<ellipse cx="153.043" cy="145.042" rx="1.52685" ry="1.42506" transform="rotate(174.162 153.043 145.042)" fill="white" fill-opacity="0.7"/>
<ellipse cx="150.428" cy="141.386" rx="0.776156" ry="0.724412" transform="rotate(174.162 150.428 141.386)" fill="white" fill-opacity="0.7"/>
<circle cx="159.684" cy="108.287" r="3.5879" transform="rotate(125.188 159.684 108.287)" fill="white" fill-opacity="0.7"/>
<circle cx="159.164" cy="170.909" r="3.5879" transform="rotate(174.162 159.164 170.909)" fill="white" fill-opacity="0.7"/>
<circle cx="157.1" cy="83.435" r="3.5879" transform="rotate(125.188 157.1 83.435)" fill="white" fill-opacity="0.7"/>
<circle cx="154.961" cy="80.832" r="1.63702" transform="rotate(125.188 154.961 80.832)" fill="white" fill-opacity="0.7"/>
<circle cx="149.55" cy="69.9766" r="1.63702" transform="rotate(125.188 149.55 69.9766)" fill="white" fill-opacity="0.7"/>
<circle cx="123.682" cy="163.697" r="5.21342" transform="rotate(-175.341 123.682 163.697)" fill="#88BAFF"/>
<circle cx="130.39" cy="167.414" r="4.15656" transform="rotate(-175.341 130.39 167.414)" fill="#88BAFF"/>
<circle cx="109.292" cy="156.161" r="0.868903" transform="rotate(-175.341 109.292 156.161)" fill="#88BAFF"/>
<circle cx="113.77" cy="169.431" r="0.868903" transform="rotate(-175.341 113.77 169.431)" fill="#88BAFF"/>
<circle cx="111.739" cy="165.33" r="0.534322" transform="rotate(-175.341 111.739 165.33)" fill="#88BAFF"/>
<circle cx="109.669" cy="154.228" r="1.52058" transform="rotate(-175.341 109.669 154.228)" fill="#88BAFF"/>
<circle cx="120.708" cy="152.227" r="2.62349" transform="rotate(-175.341 120.708 152.227)" fill="#88BAFF"/>
<circle cx="111.818" cy="176.337" r="2.62349" transform="rotate(-165.703 111.818 176.337)" fill="#88BAFF"/>
<circle cx="121.798" cy="149.602" r="2.07614" transform="rotate(-175.341 121.798 149.602)" fill="#88BAFF"/>
<circle cx="113.331" cy="173.932" r="2.07614" transform="rotate(-165.703 113.331 173.932)" fill="#88BAFF"/>
<circle cx="115.63" cy="161.252" r="1.52058" transform="rotate(-175.341 115.63 161.252)" fill="#88BAFF"/>
</g>
<g clip-path="url(#clip1_1094_5498)">
<path d="M21 32.543H27.1468C35.8887 32.543 39.0957 37.666 39.0957 43.2272C39.0957 48.7883 35.755 53.9114 27.6531 53.9114H25.6277V60.5254H21V32.543ZM27.8571 49.4031C32.2456 49.4031 34.5735 46.8946 34.5735 43.2272C34.5735 39.5598 32.1753 37.0866 27.8571 37.0866H25.6277V49.4031H27.8571Z" fill="white"/>
<path d="M41.9299 32.543H48.0766C56.8186 32.543 60.0256 37.666 60.0256 43.2272C60.0256 46.7533 58.6752 50.1168 55.637 52.0812L60.2928 60.4972H54.7579L51.5157 53.6782C50.6366 53.8125 49.6942 53.9185 48.6463 53.9185H46.5505V60.5325H41.9229V32.543H41.9299ZM48.7799 49.4031C53.1685 49.4031 55.4964 46.8946 55.4964 43.2272C55.4964 39.5598 53.0981 37.0866 48.7799 37.0866H46.5505V49.4031H48.7799Z" fill="white"/>
<path d="M76.5669 61C68.1626 61 62.1143 54.2517 62.1143 46.4788C62.1143 38.7059 68.1626 32 76.5669 32C84.9712 32 90.9843 38.7483 90.9843 46.4859C90.9843 54.2234 84.9431 61.0071 76.5669 61.0071V61ZM76.5669 56.3575C82.1369 56.3575 86.3567 51.9128 86.3567 46.4859C86.3567 41.059 82.1369 36.6496 76.5669 36.6496C70.9968 36.6496 66.7419 41.059 66.7419 46.4859C66.7419 51.9128 70.9617 56.3575 76.5669 56.3575Z" fill="white"/>
<path d="M92.4683 50.7245H97.0959C97.0959 54.187 98.5447 56.3917 101.92 56.3917C105.296 56.3917 106.815 54.187 106.815 50.7245V32.543H111.443V50.5902C111.443 57.0347 107.828 60.8646 101.92 60.8646C96.0128 60.8646 92.4683 57.1336 92.4683 50.7245Z" fill="white"/>
<path d="M115.354 32.5781H130.58V36.9875H119.981V44.1456H129.708V48.2511H119.981V56.0523H130.58V60.497H115.354V32.5781Z" fill="white"/>
<path d="M132.704 46.5212C132.704 38.7554 139.019 32 147.156 32C154.653 32 160.828 37.8367 161.539 44.8536H156.848C156.172 40.3453 152.157 36.6425 147.156 36.6425C141.516 36.6425 137.331 41.2568 137.331 46.5141C137.331 51.7714 141.516 56.3504 147.156 56.3504C152.255 56.3504 156.236 52.6194 156.848 48.0404H161.539C160.934 55.1279 154.681 61 147.156 61C139.019 61 132.704 54.287 132.704 46.5141V46.5212Z" fill="white"/>
<path d="M166.933 36.9525H160.856V32.5078H177.637V36.9525H171.561V60.4973H166.933V36.9525Z" fill="white"/>
<path d="M186.85 60.4899L197.589 32.5781H202.449L212.914 60.497H208.153L206.669 56.3915H193.229L191.71 60.497H186.85V60.4899ZM205.213 52.4202L200.016 38.0686L194.713 52.4202H205.213Z" fill="white"/>
<path d="M214.799 32.543H220.946C229.687 32.543 232.894 37.666 232.894 43.2272C232.894 46.7533 231.544 50.1168 228.506 52.0812L233.162 60.4972H227.627L224.385 53.6782C223.506 53.8125 222.563 53.9185 221.515 53.9185H219.419V60.5325H214.792V32.543H214.799ZM221.656 49.4031C226.044 49.4031 228.372 46.8946 228.372 43.2272C228.372 39.5598 225.974 37.0866 221.656 37.0866H219.426V49.4031H221.656Z" fill="white"/>
<path d="M234.99 46.5212C234.99 38.7554 241.306 32 249.443 32C256.94 32 263.115 37.8367 263.825 44.8536H259.134C258.459 40.3453 254.443 36.6425 249.443 36.6425C243.802 36.6425 239.618 41.2568 239.618 46.5141C239.618 51.7714 243.802 56.3504 249.443 56.3504C254.542 56.3504 258.522 52.6194 259.134 48.0404H263.825C263.22 55.1279 256.968 61 249.443 61C241.306 61 234.99 54.287 234.99 46.5141V46.5212Z" fill="white"/>
<path d="M266.927 32.543H271.554V43.9055H282.019V32.543H286.675V60.4972H282.019V48.322H271.554V60.4972H266.927V32.543Z" fill="white"/>
<path d="M290.86 32.5781H295.516V60.497H290.86V32.5781Z" fill="white"/>
<path d="M297.239 32.5781H302.169L309.701 53.777L316.994 32.5781H321.889L312.198 60.497H307.169L297.239 32.5781Z" fill="white"/>
<path d="M323.774 32.5781H339V36.9875H328.401V44.1456H338.128V48.2511H328.401V56.0523H339V60.497H323.774V32.5781Z" fill="white"/>
</g>
<defs>
<filter id="filter0_f_1094_5498" x="-387.4" y="-265.4" width="1053.22" height="962.8" filterUnits="userSpaceOnUse" color-interpolation-filters="sRGB">
<feFlood flood-opacity="0" result="BackgroundImageFix"/>
<feBlend mode="normal" in="SourceGraphic" in2="BackgroundImageFix" result="shape"/>
<feGaussianBlur stdDeviation="102.7" result="effect1_foregroundBlur_1094_5498"/>
</filter>
<linearGradient id="paint0_linear_1094_5498" x1="139.212" y1="-3.85439" x2="139.212" y2="492" gradientUnits="userSpaceOnUse">
<stop stop-color="#1A1D3F" stop-opacity="0.55"/>
<stop offset="1" stop-color="#2D336E"/>
</linearGradient>
<clipPath id="clip0_1094_5498">
<rect width="360" height="180" fill="white"/>
</clipPath>
<clipPath id="clip1_1094_5498">
<rect width="318" height="29" fill="white" transform="translate(21 32)"/>
</clipPath>
</defs>
</svg>
