<svg width="120" height="80" viewBox="0 0 120 80" fill="none" xmlns="http://www.w3.org/2000/svg">
<path d="M65.876 33.523H60C60 30.0386 61.5443 26.9032 63.9864 24.7615C61.5443 22.6197 60 19.4844 60 16H65.876C65.876 19.2212 68.5118 21.8416 71.7519 21.8416V27.6832C68.5099 27.6813 65.876 30.3018 65.876 33.523Z" fill="#EFEFEF"/>
<path d="M18.876 16H13V45.2043H18.876V16Z" fill="#EFEFEF"/>
<path d="M54.126 16H48.25V45.2043H54.126V16Z" fill="#EFEFEF"/>
<path d="M83.5019 16H77.626V45.2043H83.5019V16Z" fill="#EFEFEF"/>
<path d="M107.002 16H101.126V45.2043H107.002V16Z" fill="#EFEFEF"/>
<path d="M95.2519 25.7341H89.376V35.4683H95.2519V25.7341Z" fill="#EFEFEF"/>
<path d="M30.626 45.2043H24.75C24.75 39.1167 27.8884 33.7442 32.6422 30.6031C27.8884 27.4601 24.75 22.0876 24.75 16H30.626C30.626 22.4405 35.8976 27.6813 42.376 27.6813V33.523C35.8957 33.523 30.626 38.7619 30.626 45.2043Z" fill="#EFEFEF"/>
<path d="M18.876 53.9658H22.9352C23.9059 53.9658 24.7615 54.1489 25.5078 54.517C26.2521 54.8851 26.8314 55.4038 27.2439 56.0713C27.6563 56.7388 27.8635 57.5169 27.8635 58.4057C27.8635 59.2944 27.6563 60.0725 27.2439 60.74C26.8314 61.4075 26.2521 61.9263 25.5078 62.2944C24.7634 62.6625 23.9059 62.8455 22.9352 62.8455H18.876V53.9658ZM22.8317 61.1596C23.7256 61.1596 24.4373 60.9117 24.9687 60.4177C25.5001 59.9238 25.7668 59.2525 25.7668 58.4057C25.7668 57.5608 25.5001 56.8895 24.9687 56.3936C24.4373 55.8997 23.7237 55.6517 22.8317 55.6517H20.9421V61.1596H22.8317Z" fill="#EFEFEF"/>
<path d="M35.9586 61.1978V62.8475H29.041V53.9658H35.7937V55.6155H31.0956V57.5436H35.2431V59.1418H31.0956V61.1978H35.9586Z" fill="#EFEFEF"/>
<path d="M43.1572 54.3587C43.7404 54.6219 44.1893 54.9938 44.5039 55.4763C44.8186 55.9588 44.9759 56.529 44.9759 57.1889C44.9759 57.8412 44.8186 58.4095 44.5039 58.8958C44.1893 59.3821 43.7404 59.754 43.1572 60.0115C42.5741 60.269 41.8873 60.3987 41.095 60.3987H39.2956V62.8475H37.2295V53.9658H41.0969C41.8873 53.9658 42.5741 54.0955 43.1572 54.3587ZM42.3976 58.3237C42.7218 58.0567 42.8829 57.6791 42.8829 57.1889C42.8829 56.6892 42.7218 56.3078 42.3976 56.0408C42.0734 55.7738 41.6015 55.6403 40.9799 55.6403H39.2956V58.7242H40.9799C41.6034 58.7242 42.0753 58.5907 42.3976 58.3237Z" fill="#EFEFEF"/>
<path d="M51.8871 62.8475L50.1644 60.3739H50.0627H48.2633V62.8475H46.1953V53.9658H50.0627C50.8531 53.9658 51.5418 54.0974 52.125 54.3587C52.7082 54.6219 53.1571 54.9938 53.4717 55.4763C53.7863 55.9588 53.9436 56.529 53.9436 57.1889C53.9436 57.8488 53.7844 58.4171 53.464 58.8958C53.1456 59.3745 52.6909 59.7388 52.1039 59.9924L54.1086 62.8475H51.8871ZM51.3634 56.0389C51.0392 55.7719 50.5673 55.6384 49.9457 55.6384H48.2614V58.7337H49.9457C50.5673 58.7337 51.0392 58.5983 51.3634 58.3275C51.6876 58.0567 51.8487 57.6771 51.8487 57.1851C51.8487 56.6892 51.6876 56.3059 51.3634 56.0389Z" fill="#EFEFEF"/>
<path d="M57.2069 62.403C56.4625 62.0063 55.8794 61.4571 55.4573 60.759C55.0353 60.061 54.8262 59.2772 54.8262 58.4056C54.8262 57.534 55.0372 56.7502 55.4573 56.0522C55.8794 55.3542 56.4606 54.8068 57.2069 54.4082C57.9512 54.0115 58.7876 53.8113 59.7142 53.8113C60.6407 53.8113 61.4752 54.0096 62.2157 54.4082C62.9562 54.8068 63.5394 55.3542 63.9653 56.0522C64.3912 56.7502 64.6041 57.534 64.6041 58.4056C64.6041 59.2772 64.3912 60.061 63.9653 60.759C63.5394 61.4571 62.9562 62.0044 62.2157 62.403C61.4752 62.8016 60.6407 63 59.7142 63C58.7876 63 57.9512 62.7997 57.2069 62.403ZM61.1434 60.8868C61.5692 60.6465 61.903 60.309 62.1447 59.8779C62.3865 59.4469 62.5092 58.9568 62.5092 58.4056C62.5092 57.8564 62.3884 57.3643 62.1447 56.9333C61.903 56.5023 61.5673 56.1647 61.1434 55.9244C60.7175 55.6841 60.2417 55.562 59.7142 55.562C59.1866 55.562 58.7109 55.6822 58.285 55.9244C57.8591 56.1647 57.5253 56.5023 57.2836 56.9333C57.0419 57.3643 56.9191 57.8564 56.9191 58.4056C56.9191 58.9549 57.04 59.4469 57.2836 59.8779C57.5253 60.309 57.8591 60.6465 58.285 60.8868C58.7109 61.1271 59.1866 61.2492 59.7142 61.2492C60.2417 61.2492 60.7194 61.1271 61.1434 60.8868Z" fill="#EFEFEF"/>
<path d="M73.7257 62.8473L73.7123 57.5187L71.0822 61.9089H70.1499L67.5332 57.6331V62.8492H65.5938V53.9675H67.3049L70.6487 59.4868L73.9425 53.9675H75.6402L75.6652 62.8492H73.7257V62.8473Z" fill="#EFEFEF"/>
<path d="M84.1374 61.1978V62.8475H77.2197V53.9658H83.9724V55.6155H79.2762V57.5436H83.4237V59.1418H79.2762V61.1978H84.1374Z" fill="#EFEFEF"/>
<path d="M92.3249 61.1978V62.8475H85.4072V53.9658H92.1599V55.6155H87.4637V57.5436H91.6112V59.1418H87.4637V61.1978H92.3249Z" fill="#EFEFEF"/>
<path d="M96.2002 55.6403H93.3418V53.9658H101.128V55.6403H98.2701V62.8475H96.2002V55.6403Z" fill="#EFEFEF"/>
</svg>
