<svg width="170" height="108" viewBox="0 0 170 108" fill="none" xmlns="http://www.w3.org/2000/svg">
<path d="M52.5 108H30.375C30.375 85.4887 42.195 65.6207 60.0974 54C42.1982 42.3825 30.375 22.5144 30.375 0H52.5C52.5 23.8203 72.3525 43.1975 96.75 43.1975V64.7962C72.3493 64.7994 52.5 84.1797 52.5 108Z" fill="#0038FF"/>
<path d="M126.375 108H104.625C104.625 85.4887 116.245 65.6207 133.844 54C116.248 42.3825 104.625 22.5144 104.625 0H126.375C126.375 23.8203 145.891 43.1975 169.875 43.1975V64.7962C145.888 64.7994 126.375 84.1797 126.375 108Z" fill="#0038FF"/>
<rect y="41.625" width="85.5" height="24.75" fill="#0038FF"/>
</svg>
