<svg width="173" height="150" viewBox="0 0 173 150" fill="none" xmlns="http://www.w3.org/2000/svg">
<path d="M123.793 40.0966C123.319 17.8739 105.045 0 82.5412 0C59.7515 0 41.2743 18.3446 41.2743 40.9784C41.2743 45.544 42.0345 49.9228 43.4269 54.0251C42.7119 53.9877 41.9969 53.9728 41.2743 53.9728C18.4771 53.9653 0 72.3099 0 94.9437C0 117.577 18.4771 135.922 41.2743 135.922C52.6165 135.922 62.8899 131.379 70.3485 124.026C80.1553 139.621 97.5863 150 117.471 150C148.141 150 173 125.319 173 94.869C172.992 66.5413 151.482 43.2126 123.793 40.0966Z" fill="#00FF94"/>
</svg>
