<svg width="1024" height="400" viewBox="0 0 1024 400" fill="none" xmlns="http://www.w3.org/2000/svg">
<g clip-path="url(#clip0_370_9079)">
<path d="M678.807 163.619L897 400L213 400L421.729 128L678.807 163.619Z" fill="#A0EEE9"/>
<path d="M41.3444 35.0465H46.8533C48.6458 35.0465 49.9902 35.5274 50.8865 36.4893C51.7828 37.4512 52.2309 38.8612 52.2309 40.7193V52.3272C52.2309 54.1853 51.7828 55.5953 50.8865 56.5572C49.9902 57.5191 48.6458 58 46.8533 58H41.3444V35.0465ZM46.7877 54.7209C47.3779 54.7209 47.826 54.546 48.1321 54.1963C48.46 53.8465 48.624 53.2781 48.624 52.4912V40.5553C48.624 39.7684 48.46 39.2 48.1321 38.8502C47.826 38.5005 47.3779 38.3256 46.7877 38.3256H44.9514V54.7209H46.7877ZM54.6656 35.0465H64.5029V38.3256H58.2726V44.3919H63.224V47.6709H58.2726V54.7209H64.5029V58H54.6656V35.0465ZM66.5779 35.0465H71.89C73.6825 35.0465 75.027 35.5274 75.9232 36.4893C76.8195 37.4512 77.2677 38.8612 77.2677 40.7193V42.9819C77.2677 44.84 76.8195 46.25 75.9232 47.2119C75.027 48.1737 73.6825 48.6546 71.89 48.6546H70.1849V58H66.5779V35.0465ZM71.89 45.3756C72.4802 45.3756 72.9174 45.2116 73.2016 44.8837C73.5077 44.5558 73.6607 43.9984 73.6607 43.2114V40.4898C73.6607 39.7028 73.5077 39.1453 73.2016 38.8174C72.9174 38.4895 72.4802 38.3256 71.89 38.3256H70.1849V45.3756H71.89ZM79.2266 35.0465H84.5715C86.4297 35.0465 87.785 35.4837 88.6376 36.3581C89.4901 37.2107 89.9164 38.5333 89.9164 40.3258V41.7358C89.9164 44.1186 89.1294 45.627 87.5555 46.2609V46.3265C88.4299 46.5888 89.042 47.1244 89.3918 47.9333C89.7634 48.7421 89.9492 49.8242 89.9492 51.1795V55.2128C89.9492 55.8686 89.9711 56.4042 90.0148 56.8195C90.0585 57.213 90.1678 57.6065 90.3427 58H86.6701C86.539 57.6284 86.4515 57.2786 86.4078 56.9507C86.3641 56.6228 86.3422 56.0326 86.3422 55.18V50.9828C86.3422 49.9335 86.1673 49.2012 85.8176 48.7858C85.4897 48.3705 84.9104 48.1628 84.0797 48.1628H82.8336V58H79.2266V35.0465ZM84.1452 44.8837C84.8666 44.8837 85.4022 44.6979 85.752 44.3263C86.1236 43.9546 86.3094 43.3316 86.3094 42.4572V40.6865C86.3094 39.8558 86.1564 39.2546 85.8504 38.883C85.5662 38.5114 85.1071 38.3256 84.4732 38.3256H82.8336V44.8837H84.1452ZM97.6655 58.3279C95.8948 58.3279 94.5395 57.8251 93.5995 56.8195C92.6595 55.814 92.1895 54.393 92.1895 52.5567V40.4898C92.1895 38.6535 92.6595 37.2326 93.5995 36.227C94.5395 35.2214 95.8948 34.7186 97.6655 34.7186C99.4362 34.7186 100.792 35.2214 101.732 36.227C102.672 37.2326 103.142 38.6535 103.142 40.4898V52.5567C103.142 54.393 102.672 55.814 101.732 56.8195C100.792 57.8251 99.4362 58.3279 97.6655 58.3279ZM97.6655 55.0488C98.9116 55.0488 99.5346 54.2947 99.5346 52.7863V40.2602C99.5346 38.7519 98.9116 37.9977 97.6655 37.9977C96.4195 37.9977 95.7964 38.7519 95.7964 40.2602V52.7863C95.7964 54.2947 96.4195 55.0488 97.6655 55.0488ZM105.581 35.0465H110.729L113.024 51.4747H113.09L115.385 35.0465H120.533V58H117.123V40.6209H117.058L114.434 58H111.418L108.794 40.6209H108.729V58H105.581V35.0465ZM123.225 35.0465H133.062V38.3256H126.832V44.3919H131.783V47.6709H126.832V54.7209H133.062V58H123.225V35.0465ZM135.137 35.0465H144.975V38.3256H138.744V44.3919H143.696V47.6709H138.744V54.7209H144.975V58H135.137V35.0465ZM149.87 38.3256H146.099V35.0465H157.247V38.3256H153.477V58H149.87V38.3256ZM46.3942 74.4898H42.6233V71.9321C43.6507 71.9321 44.4705 71.8446 45.0826 71.6698C45.7165 71.4949 46.2193 71.2107 46.5909 70.8172C46.9626 70.4019 47.2905 69.8116 47.5747 69.0465H50.0012V92H46.3942V74.4898ZM59.5233 74.4898H55.7523V71.9321C56.7798 71.9321 57.5996 71.8446 58.2116 71.6698C58.8456 71.4949 59.3484 71.2107 59.72 70.8172C60.0916 70.4019 60.4196 69.8116 60.7037 69.0465H63.1303V92H59.5233V74.4898ZM72.3296 78.8837H79.5435V82.1628H72.3296V78.8837ZM91.9938 74.4898H88.2228V71.9321C89.2503 71.9321 90.07 71.8446 90.6821 71.6698C91.3161 71.4949 91.8189 71.2107 92.1905 70.8172C92.5621 70.4019 92.89 69.8116 93.1742 69.0465H95.6007V92H91.9938V74.4898ZM106.107 87.8356H99.2205V84.5565L105.779 69.0465H109.714V84.5565H111.419V87.8356H109.714V92H106.107V87.8356ZM106.107 84.5565V75.6047H106.041L102.5 84.5565H106.107ZM116.022 72.3256H112.251V69.0465H123.4V72.3256H119.629V92H116.022V72.3256ZM125.146 69.0465H128.753V78.3919H132.623V69.0465H136.23V92H132.623V81.6709H128.753V92H125.146V69.0465Z" fill="black"/>
<path d="M963.22 73.4486C962.649 72.6719 961.906 71.838 960.992 70.9471C960.078 70.079 959.165 69.3022 958.251 68.6169L956.675 71.4268C957.68 72.2036 958.685 73.0831 959.69 74.0654C960.672 75.0478 961.609 76.0758 962.5 77.1495C963.368 78.2233 964.134 79.2741 964.796 80.3022C965.459 79.2741 966.235 78.2233 967.126 77.1495C967.994 76.0758 968.931 75.0478 969.936 74.0654C970.919 73.0831 971.912 72.2036 972.917 71.4268L971.341 68.6169C970.405 69.3022 969.491 70.079 968.6 70.9471C967.686 71.838 966.943 72.6719 966.372 73.4486L966.372 48.6045L963.22 48.6045L963.22 73.4486Z" fill="black"/>
<path d="M45.6222 243H74.7822C84.6222 243 92.0022 245.64 96.9222 250.92C101.842 256.2 104.302 263.94 104.302 274.14V286.56C104.302 296.76 101.842 304.5 96.9222 309.78C92.0022 315.06 84.6222 317.7 74.7822 317.7H65.4222V369H45.6222V243ZM74.7822 299.7C78.0222 299.7 80.4222 298.8 81.9822 297C83.6622 295.2 84.5022 292.14 84.5022 287.82V272.88C84.5022 268.56 83.6622 265.5 81.9822 263.7C80.4222 261.9 78.0222 261 74.7822 261H65.4222V299.7H74.7822ZM115.056 243H144.396C154.596 243 162.036 245.4 166.716 250.2C171.396 254.88 173.736 262.14 173.736 271.98V279.72C173.736 292.8 169.416 301.08 160.776 304.56V304.92C165.576 306.36 168.936 309.3 170.856 313.74C172.896 318.18 173.916 324.12 173.916 331.56V353.7C173.916 357.3 174.036 360.24 174.276 362.52C174.516 364.68 175.116 366.84 176.076 369H155.916C155.196 366.96 154.716 365.04 154.476 363.24C154.236 361.44 154.116 358.2 154.116 353.52V330.48C154.116 324.72 153.156 320.7 151.236 318.42C149.436 316.14 146.256 315 141.696 315H134.856V369H115.056V243ZM142.056 297C146.016 297 148.956 295.98 150.876 293.94C152.916 291.9 153.936 288.48 153.936 283.68V273.96C153.936 269.4 153.096 266.1 151.416 264.06C149.856 262.02 147.336 261 143.856 261H134.856V297H142.056ZM216.273 370.8C206.553 370.8 199.113 368.04 193.953 362.52C188.793 357 186.213 349.2 186.213 339.12V272.88C186.213 262.8 188.793 255 193.953 249.48C199.113 243.96 206.553 241.2 216.273 241.2C225.993 241.2 233.433 243.96 238.593 249.48C243.753 255 246.333 262.8 246.333 272.88V339.12C246.333 349.2 243.753 357 238.593 362.52C233.433 368.04 225.993 370.8 216.273 370.8ZM216.273 352.8C223.113 352.8 226.533 348.66 226.533 340.38V271.62C226.533 263.34 223.113 259.2 216.273 259.2C209.433 259.2 206.013 263.34 206.013 271.62V340.38C206.013 348.66 209.433 352.8 216.273 352.8ZM264.404 369.72C260.804 369.72 257.744 369.48 255.224 369V351C257.144 351.48 259.304 351.72 261.704 351.72C265.664 351.72 268.604 350.76 270.524 348.84C272.444 346.8 273.404 343.74 273.404 339.66V243H293.204V339.12C293.204 349.44 290.804 357.12 286.004 362.16C281.324 367.2 274.124 369.72 264.404 369.72ZM307.36 243H361.36V261H327.16V294.3H354.34V312.3H327.16V351H361.36V369H307.36V243ZM400.651 370.8C391.171 370.8 383.911 368.1 378.871 362.7C373.951 357.3 371.491 349.68 371.491 339.84V272.16C371.491 262.32 373.951 254.7 378.871 249.3C383.911 243.9 391.171 241.2 400.651 241.2C410.131 241.2 417.331 243.9 422.251 249.3C427.291 254.7 429.811 262.32 429.811 272.16V285.48H411.091V270.9C411.091 263.1 407.791 259.2 401.191 259.2C394.591 259.2 391.291 263.1 391.291 270.9V341.28C391.291 348.96 394.591 352.8 401.191 352.8C407.791 352.8 411.091 348.96 411.091 341.28V322.02H429.811V339.84C429.811 349.68 427.291 357.3 422.251 362.7C417.331 368.1 410.131 370.8 400.651 370.8ZM457.137 261H436.437V243H497.637V261H476.937V369H457.137V261ZM551.352 243H578.172L598.692 369H578.892L575.292 343.98V344.34H552.792L549.192 369H530.832L551.352 243ZM572.952 327.24L564.132 264.96H563.772L555.132 327.24H572.952ZM608.298 243H637.638C647.838 243 655.278 245.4 659.958 250.2C664.638 254.88 666.978 262.14 666.978 271.98V279.72C666.978 292.8 662.658 301.08 654.018 304.56V304.92C658.818 306.36 662.178 309.3 664.098 313.74C666.138 318.18 667.158 324.12 667.158 331.56V353.7C667.158 357.3 667.278 360.24 667.518 362.52C667.758 364.68 668.358 366.84 669.318 369H649.158C648.438 366.96 647.958 365.04 647.718 363.24C647.478 361.44 647.358 358.2 647.358 353.52V330.48C647.358 324.72 646.398 320.7 644.478 318.42C642.678 316.14 639.498 315 634.938 315H628.098V369H608.298V243ZM635.298 297C639.258 297 642.198 295.98 644.118 293.94C646.158 291.9 647.178 288.48 647.178 283.68V273.96C647.178 269.4 646.338 266.1 644.658 264.06C643.098 262.02 640.578 261 637.098 261H628.098V297H635.298ZM708.796 370.8C699.316 370.8 692.056 368.1 687.016 362.7C682.096 357.3 679.636 349.68 679.636 339.84V272.16C679.636 262.32 682.096 254.7 687.016 249.3C692.056 243.9 699.316 241.2 708.796 241.2C718.276 241.2 725.476 243.9 730.396 249.3C735.436 254.7 737.956 262.32 737.956 272.16V285.48H719.236V270.9C719.236 263.1 715.936 259.2 709.336 259.2C702.736 259.2 699.436 263.1 699.436 270.9V341.28C699.436 348.96 702.736 352.8 709.336 352.8C715.936 352.8 719.236 348.96 719.236 341.28V322.02H737.956V339.84C737.956 349.68 735.436 357.3 730.396 362.7C725.476 368.1 718.276 370.8 708.796 370.8ZM749.802 243H769.602V294.3H790.842V243H810.642V369H790.842V312.3H769.602V369H749.802V243ZM825.388 243H845.188V369H825.388V243ZM854.797 243H874.777L887.737 340.74H888.097L901.057 243H919.237L900.157 369H873.877L854.797 243ZM928.747 243H982.747V261H948.547V294.3H975.727V312.3H948.547V351H982.747V369H928.747V243Z" fill="black"/>
<path d="M356.612 186.623L284.814 3.52248L356.612 -179.601L536.934 -248.597L717.278 -179.601L789.075 3.52248L717.278 186.623L536.934 255.619L356.612 186.623Z" fill="white"/>
<path d="M534.72 -22L699 184.241C661.65 210.997 570.226 241 534.72 241C494.412 241 384.592 195.947 374 187.586L534.72 -22Z" fill="#F4F4F4"/>
<path d="M536.936 -240.194L711.23 -173.506L780.652 3.49997L711.23 180.506L536.936 247.194L362.642 180.506L293.22 3.49997L362.642 -173.506L536.936 -240.194ZM536.936 -257L531.334 -254.849L357.04 -188.161L350.564 -185.696L348.032 -179.242L278.61 -2.23662L276.369 3.49997L278.61 9.23657L348.032 186.242L350.564 192.696L357.04 195.161L531.334 261.849L536.936 264L542.538 261.849L716.833 195.161L723.309 192.696L725.841 186.242L795.263 9.23657L797.504 3.49997L795.263 -2.23662L725.841 -179.242L723.309 -185.696L716.833 -188.161L542.538 -254.849L536.936 -257Z" fill="black"/>
<path d="M336.377 13.5623V17.9543H333.665C333.441 14.9516 332.231 13.1589 330.842 12.397V9.68555H356.477V13.5623H336.377Z" fill="black"/>
<path d="M352.837 1.91074V-5.77539H356.489V6.52691H353.128L344.075 0.857535C340.713 -1.27128 338.943 -1.89875 336.971 -1.89875C335.179 -1.89875 334.193 -1.04718 334.193 0.454197C334.193 1.95557 335.179 2.80707 336.971 2.80707H338.473V6.54934H337.263C333.095 6.54934 330.518 4.28605 330.518 0.431766C330.518 -3.42251 332.893 -5.75296 336.859 -5.75296C339.638 -5.75296 341.901 -4.90148 346.047 -2.30209L352.814 1.95553L352.837 1.91074Z" fill="black"/>
<path d="M531.887 191.263V188.888C531.887 185.011 534.195 182.591 538.34 182.591C542.486 182.591 544.794 185.011 544.794 188.888V191.263C544.794 193.683 543.763 195.409 541.948 196.282C543.606 197.201 544.548 198.882 544.548 201.235V202.915C544.548 206.613 542.307 208.966 538.363 208.966C534.419 208.966 532.178 206.613 532.178 202.915V201.235C532.178 198.882 533.142 197.201 534.777 196.282C532.94 195.409 531.932 193.683 531.932 191.263H531.887ZM535.763 191.487C535.763 193.549 536.637 194.423 538.318 194.423C539.999 194.423 540.873 193.549 540.873 191.487V188.82C540.873 187.14 539.999 186.266 538.318 186.266C536.637 186.266 535.763 187.14 535.763 188.82V191.487ZM540.626 201.011C540.626 198.949 539.752 198.075 538.318 198.075C536.884 198.075 536.01 198.949 536.01 201.011V202.983C536.01 204.484 536.817 205.291 538.318 205.291C539.819 205.291 540.626 204.484 540.626 202.983V201.011Z" fill="black"/>
<path d="M722.754 12.6656V10.5816H717.398V6.70498H722.754V-0.869141H726.227L743.034 5.98789V10.6041H726.407V12.688H722.754V12.6656ZM726.407 6.70498H736.468L726.407 2.78347V6.70498Z" fill="black"/>
<path d="M682.922 147.969L699.011 164.081" stroke="black" stroke-width="2.24086" stroke-miterlimit="10" stroke-linecap="round"/>
<path d="M393.32 147.969L377.23 164.081" stroke="black" stroke-width="2.24086" stroke-miterlimit="10" stroke-linecap="round"/>
</g>
<defs>
<clipPath id="clip0_370_9079">
<rect width="1024" height="400" fill="white"/>
</clipPath>
</defs>
</svg>
