<svg width="171" height="171" viewBox="0 0 171 171" fill="none" xmlns="http://www.w3.org/2000/svg">
<rect x="0.46875" y="0.984375" width="170" height="170" rx="24" fill="#3663FF"/>
<path d="M62.3605 75.8685L68.9281 83.3453L76.8091 92.2085L116.215 58.2905V34.8203H83.8632H54.7227V58.2905H82.7929L62.3605 75.8685Z" fill="white"/>
<path d="M105.098 73.1875L85.9565 89.5563C92.5318 89.8028 97.8407 95.3248 97.8407 102.079C97.8407 108.982 92.2882 114.603 85.4695 114.603C78.6507 114.603 73.0983 108.982 73.0983 102.079H50.8398C50.8398 121.456 66.3282 137.134 85.4695 137.134C104.611 137.134 120.099 121.456 120.099 102.079C120.099 90.0493 114.157 79.4984 105.098 73.1875Z" fill="white"/>
</svg>
