<svg width="171" height="171" viewBox="0 0 171 171" fill="none" xmlns="http://www.w3.org/2000/svg">
<rect x="0.6875" y="0.117188" width="170" height="170" rx="24" fill="#3663FF"/>
<path d="M62.5792 75.0013L69.1468 82.4781L77.0279 91.3413L116.433 57.4234V33.9531H84.0819H54.9414V57.4234H83.0117L62.5792 75.0013Z" fill="white"/>
<path d="M105.317 72.3203L86.1753 88.6891C92.7505 88.9356 98.0594 94.4576 98.0594 101.212C98.0594 108.115 92.507 113.735 85.6882 113.735C78.8695 113.735 73.317 108.115 73.317 101.212H51.0586C51.0586 120.589 66.547 136.267 85.6882 136.267C104.829 136.267 120.318 120.589 120.318 101.212C120.318 89.1821 114.376 78.6312 105.317 72.3203Z" fill="white"/>
</svg>
