<svg width="171" height="171" viewBox="0 0 171 171" fill="none" xmlns="http://www.w3.org/2000/svg">
<rect x="0.742188" y="0.984375" width="170" height="170" rx="24" fill="white"/>
<path d="M46.6887 70.1406C42.4615 70.1406 38.4074 71.8096 35.4183 74.7805C32.4292 77.7513 30.75 81.7807 30.75 85.9821C30.75 90.1835 32.4292 94.2128 35.4183 97.1837C38.4074 100.155 42.4615 101.824 46.6887 101.824C50.9158 101.824 54.9699 100.155 57.959 97.1837C60.9481 94.2128 62.6273 90.1835 62.6273 85.9821C62.6273 81.7807 60.9481 77.7513 57.959 74.7805C54.9699 71.8096 50.9158 70.1406 46.6887 70.1406V70.1406ZM46.6887 94.8617C45.5154 94.8622 44.3536 94.6329 43.2695 94.187C42.1854 93.7411 41.2004 93.0873 40.3706 92.2629C39.5408 91.4386 38.8826 90.4598 38.4335 89.3825C37.9844 88.3052 37.7533 87.1506 37.7533 85.9845C37.7531 84.8186 37.984 83.6641 38.4328 82.5869C38.8816 81.5098 39.5395 80.531 40.3689 79.7065C41.1983 78.8821 42.183 78.2281 43.2667 77.7819C44.3504 77.3357 45.512 77.106 46.685 77.106C49.054 77.1063 51.3258 78.0419 53.0008 79.7069C54.6758 81.3719 55.6167 83.63 55.6167 85.9845C55.6167 88.3383 54.6762 90.5957 53.002 92.2604C51.3277 93.9251 49.0569 94.8608 46.6887 94.8617Z" fill="black"/>
<path d="M118.783 77.1094C115.48 77.1097 112.312 78.4117 109.976 80.7291C107.64 83.0464 106.328 86.1893 106.328 89.4663C106.328 92.7432 107.64 95.886 109.976 98.2031C112.312 100.52 115.48 101.822 118.783 101.822C122.086 101.822 125.254 100.52 127.59 98.2032C129.926 95.8861 131.239 92.7434 131.239 89.4663C131.239 86.1891 129.926 83.0463 127.59 80.729C125.254 78.4117 122.086 77.1097 118.783 77.1094ZM118.783 95.814C117.086 95.814 115.458 95.1452 114.258 93.9548C113.058 92.7644 112.384 91.1498 112.384 89.4663C112.384 88.6326 112.55 87.807 112.871 87.0368C113.192 86.2665 113.664 85.5666 114.258 84.977C114.852 84.3874 115.558 83.9198 116.334 83.6007C117.11 83.2816 117.942 83.1174 118.783 83.1174C119.623 83.1172 120.456 83.2813 121.232 83.6003C122.009 83.9194 122.714 84.387 123.309 84.9766C123.903 85.5662 124.374 86.2661 124.696 87.0365C125.017 87.8068 125.183 88.6325 125.183 89.4663C125.183 90.3 125.017 91.1255 124.695 91.8957C124.374 92.666 123.902 93.3658 123.308 93.9552C122.714 94.5447 122.008 95.0122 121.232 95.3312C120.455 95.6501 119.623 95.8142 118.783 95.814Z" fill="black"/>
<path d="M65.3711 101.596V88.8907C65.3711 88.8907 66.0802 78.2153 76.8666 78.2153C76.8666 78.2153 82.4893 77.5319 84.8398 81.842C84.8398 81.842 88.4058 77.2811 95.4879 78.328C100.608 79.4186 103.663 83.8268 103.987 89.0409C103.994 89.1512 104 89.2627 104.004 89.3741V101.691H97.0468V90.0261C97.0468 90.0261 97.4487 85.2579 92.512 85.2579C88.169 85.2579 88.2321 90.043 88.2321 90.043V101.828H81.0954V89.4687C81.0954 89.4687 80.6802 85.3294 76.9103 85.2276C71.8837 85.0907 72.2965 89.5668 72.2965 89.5668L72.3415 101.637L65.3711 101.596Z" fill="black"/>
<path d="M137.147 101.822C139.129 101.822 140.736 100.261 140.736 98.3367C140.736 96.4119 139.129 94.8516 137.147 94.8516C135.165 94.8516 133.559 96.4119 133.559 98.3367C133.559 100.261 135.165 101.822 137.147 101.822Z" fill="#F0572E"/>
</svg>
