<svg width="171" height="171" viewBox="0 0 171 171" fill="none" xmlns="http://www.w3.org/2000/svg">
<path d="M170.895 24.2969C170.895 11.042 160.149 0.296875 146.895 0.296875H24.8945C11.6397 0.296875 0.894531 11.042 0.894531 24.2969V146.297C0.894531 159.552 11.6397 170.297 24.8945 170.297H146.895C160.149 170.297 170.895 159.552 170.895 146.297V24.2969Z" fill="#1C1C1C"/>
<path d="M85.937 150.299C85.6112 150.072 85.1862 149.76 84.6904 149.392C83.3587 148.429 81.4462 146.998 79.1087 145.156C74.4337 141.487 68.0445 136.217 61.2304 129.785C47.5737 116.879 32.3587 99.4402 25.6012 81.0236C23.4054 74.9602 22.1445 68.8261 22.1445 62.7344C22.1445 45.4369 32.557 32.4744 45.5337 27.8136C58.4537 23.1811 74.0654 26.7369 84.7046 42.8727L85.8946 44.6719L87.0704 42.8727C97.7237 26.7369 113.335 23.1811 126.241 27.8136C139.232 32.4744 149.645 45.4369 149.645 62.7344C149.645 68.8261 148.384 74.9602 146.188 81.0236C139.416 99.4402 124.23 116.879 110.587 129.785C103.787 136.217 97.412 141.487 92.7512 145.156C90.4137 146.984 88.5012 148.414 87.1837 149.378C86.6737 149.76 86.2629 150.058 85.937 150.299Z" fill="#EE624C"/>
<path d="M85.9377 151.865L85.116 151.27C84.7902 151.029 84.3652 150.732 83.8552 150.363C82.0702 149.046 80.1719 147.615 78.2452 146.099C73.9669 142.742 67.3652 137.344 60.2677 130.643C47.7727 118.828 31.3819 100.695 24.2702 81.3433C21.9185 74.8408 20.7285 68.5225 20.7285 62.5583C20.7285 45.8417 30.2769 31.6041 45.0669 26.3058C56.9952 22.0275 73.9952 23.8833 85.8952 41.9175C97.7952 23.8833 114.795 22.0275 126.724 26.3058C141.514 31.6041 151.062 45.8275 151.062 62.5583C151.062 68.5083 149.872 74.8267 147.52 81.3292C140.409 100.695 124.046 118.828 111.565 130.643C104.51 137.33 97.9085 142.742 93.616 146.099C91.7177 147.587 89.8194 149.032 88.006 150.349C87.496 150.717 87.071 151.029 86.7452 151.256L85.9377 151.865ZM56.216 27.1416C52.9719 27.1416 49.5577 27.7083 46.0019 28.9833C32.3735 33.8708 23.5618 47.0458 23.5618 62.5583C23.5618 68.1825 24.6952 74.175 26.9335 80.3658C33.8469 99.1933 49.9402 116.972 62.2085 128.575C69.221 135.205 75.7377 140.546 79.9735 143.861C81.886 145.362 83.756 146.765 85.5127 148.068L85.9235 148.366C86.051 148.267 86.1927 148.168 86.3344 148.068C88.1194 146.751 89.9894 145.348 91.8594 143.875C96.0952 140.546 102.626 135.205 109.596 128.589C121.85 116.987 137.915 99.2075 144.843 80.3658C147.081 74.175 148.214 68.1825 148.214 62.5583C148.214 47.0458 139.403 33.8708 125.76 28.9833C109.1 23.0191 95.4577 32.5675 88.2469 43.49L85.8952 47.06L83.5294 43.4758C77.8627 34.8766 68.201 27.1416 56.216 27.1416Z" fill="white"/>
<path d="M57.1367 101.938L57.1226 101.839C53.7084 102.533 50.0959 100.989 48.3251 97.7873C46.1292 93.8348 47.5601 88.8481 51.5126 86.6523C52.3201 86.1989 53.1701 85.9014 54.0342 85.7456L52.5467 85.6464C51.1867 84.9239 49.9967 83.8189 49.2034 82.3739C47.0076 78.4214 48.4384 73.4348 52.3909 71.2389C54.4451 70.0914 56.8109 69.8789 58.8792 70.6014C60.5792 71.2106 63.0442 72.2589 65.3392 74.1289C67.9034 76.2256 69.2634 76.8773 71.3601 77.1181C72.8334 77.2881 73.6267 77.4014 74.3351 77.1606C75.1851 76.8631 76.0917 76.3389 76.2476 75.5314C76.4176 74.6814 76.2476 74.2706 75.5109 73.6898C74.9584 73.2506 72.6917 72.8256 71.8276 72.4148C71.0342 72.0323 70.4817 71.2248 70.0284 70.4031C68.4134 67.4848 69.4617 63.8156 72.3801 62.2006C73.8392 61.3931 75.4826 61.2514 76.9701 61.6764L77.0126 61.7614C77.0126 60.5431 77.3242 59.3106 77.9476 58.2622C79.6192 55.4147 83.3026 53.9839 86.5184 54.7489C87.8784 55.0747 89.1676 55.7972 90.1309 56.8172L89.6776 55.9389C89.6776 53.7147 90.8534 51.5472 92.9501 50.3997C96.0101 48.6997 99.8776 49.8047 101.563 52.8647C102.102 53.8422 102.116 55.0889 102.116 56.1231L102.088 56.1372L102.116 56.1514C105.969 54.7631 110.248 54.6781 114.186 55.7972C114.469 55.8822 114.753 55.9672 115.022 56.0522C115.121 56.0806 115.206 56.1089 115.305 56.1514C116.226 56.4772 117.118 56.8597 117.983 57.3131C122.686 59.7922 126.327 64.1697 128.069 69.1847C130.038 68.0939 132.503 68.8022 133.594 70.7714C134.685 72.7406 133.977 75.2056 132.008 76.2964C131.809 76.4098 131.597 76.5089 131.384 76.5798C132.673 77.1606 133.368 78.6056 132.971 80.0081C132.532 81.5381 130.931 82.4306 129.401 81.9914C128.919 81.8498 128.508 81.6089 128.168 81.2831L128.395 81.6089C126.95 87.0489 123.38 91.9223 118.082 94.8689C114.993 96.5831 111.678 97.4473 108.378 97.5464L107.414 96.5689C107.556 96.7531 107.683 96.9656 107.811 97.1781C109.157 99.6148 108.278 102.689 105.842 104.035C103.632 105.267 100.883 104.644 99.3817 102.689C99.1551 104.176 98.2626 105.551 96.8459 106.344C94.4092 107.69 91.3351 106.811 89.9892 104.375C89.5784 104.885 88.3459 105.891 87.7367 106.231C85.3001 107.576 82.1267 106.755 80.8801 104.261C79.2651 101.031 82.0559 98.6939 82.1976 97.4331C82.3109 96.3848 82.2401 95.7189 81.3192 95.0956C80.9934 94.8689 80.0584 94.7414 79.2367 94.9256C78.4151 95.1098 77.6501 95.5348 77.0692 96.1439C74.1651 99.2039 73.0176 102.236 72.2242 107.676C71.9409 109.616 70.7792 111.387 69.0792 112.648C65.4526 115.354 60.3242 114.589 57.6184 110.962C55.6067 108.271 55.5217 104.701 57.1367 101.938Z" fill="#F2B458"/>
<path d="M54.1484 85.7777L58.1009 86.0468C56.8401 85.636 55.4801 85.5368 54.1484 85.7777Z" fill="url(#paint0_linear_628_13499)"/>
<path d="M89.6062 103.156L90.0879 99.5156C89.4787 100.606 89.2946 101.91 89.6062 103.156Z" fill="url(#paint1_linear_628_13499)"/>
<path d="M98.9297 99.5078L99.5105 102.709C99.6664 101.661 99.4964 100.528 98.9297 99.5078Z" fill="url(#paint2_linear_628_13499)"/>
<path d="M106.619 95.6562L107.526 96.5771C107.257 96.2371 106.959 95.9254 106.619 95.6562Z" fill="url(#paint3_linear_628_13499)"/>
<path d="M90.2148 56.8281L91.7732 59.8456C91.5749 58.6981 91.0082 57.6781 90.2148 56.8281Z" fill="url(#paint4_linear_628_13499)"/>
<path d="M102.172 56.1467L102.2 56.1606C102.2 56.1467 102.2 56.1467 102.2 56.1328C102.186 56.1328 102.172 56.1467 102.172 56.1467Z" fill="url(#paint5_linear_628_13499)"/>
<path d="M102.199 56.1344V56.1485C106.053 54.7602 110.331 54.6752 114.269 55.7944C110.331 54.6894 106.053 54.746 102.199 56.1344Z" fill="url(#paint6_linear_628_13499)"/>
<path d="M127.629 80.3359C127.771 80.6901 127.997 81.0159 128.266 81.2851L127.629 80.3359Z" fill="url(#paint7_linear_628_13499)"/>
<path d="M115.105 56.0781C115.205 56.1065 115.29 56.1348 115.389 56.1773C115.304 56.1348 115.205 56.1065 115.105 56.0781Z" fill="url(#paint8_linear_628_13499)"/>
<path d="M131.484 76.6021L128.594 76.5312C129.486 76.8996 130.52 76.9421 131.484 76.6021Z" fill="url(#paint9_linear_628_13499)"/>
<path d="M126.637 70.6765L128.153 69.2031C127.515 69.5715 126.991 70.0815 126.637 70.6765Z" fill="url(#paint10_linear_628_13499)"/>
<path d="M105.604 91.3372C105.094 90.5863 104.598 89.8213 104.145 89.0422C101.566 84.6788 99.8523 79.933 99.0448 74.9463C98.3648 70.7105 98.3507 66.4038 99.0165 62.1538C99.144 61.3747 98.6057 60.6522 97.8407 60.5388C97.0615 60.4255 96.339 60.9497 96.2257 61.7147C95.659 65.2988 95.5598 68.9113 95.8998 72.5097C94.6673 71.9572 93.4207 71.5888 92.2023 71.518C90.8281 71.433 89.3265 71.688 87.9523 72.2405C86.1248 72.9772 84.4815 74.3088 83.3481 75.9947C82.059 77.9072 81.7615 80.2872 82.5548 82.2138C83.1356 83.588 84.2831 84.6222 85.6006 85.1322C84.3823 87.6822 84.4106 90.7138 85.8273 93.2638C87.4565 96.1963 90.4456 97.8538 93.5481 97.8538C94.8656 97.8538 96.1973 97.5422 97.4723 96.933L97.529 96.9047C97.5432 96.8905 97.5715 96.8905 97.5857 96.8763L97.8407 96.763C100.093 95.743 101.722 94.4113 102.983 92.513C103.082 92.6547 103.167 92.8105 103.252 92.9522C103.521 93.3488 103.975 93.5755 104.428 93.5755C104.697 93.5755 104.981 93.4905 105.221 93.3347C105.887 92.8672 106.057 91.9747 105.604 91.3372ZM96.7356 94.1422H96.4523L96.2257 94.3688C96.0273 94.4538 95.829 94.5247 95.6165 94.6097C95.6023 94.6097 95.6023 94.6238 95.6023 94.6238C92.8823 95.5872 89.7515 94.4822 88.3206 91.8897C87.074 89.6513 87.3856 86.8747 89.0856 84.9622C89.539 84.4522 90.0632 84.0272 90.6723 83.7013C91.3523 83.3188 91.6073 82.4547 91.2248 81.7747C90.8423 81.0947 89.9781 80.8397 89.2981 81.2222C88.6181 81.6047 88.009 82.0863 87.4565 82.6247C86.5781 82.6672 85.5865 82.0722 85.1898 81.1372C84.7506 80.103 84.9631 78.7005 85.714 77.5955C86.5215 76.3913 87.7398 75.4138 89.029 74.8897C90.0207 74.493 91.0831 74.3088 92.0465 74.3655C93.4207 74.4505 94.979 75.0738 96.3815 76.0372C97.2315 80.868 98.889 85.4863 101.311 89.7788C100.249 91.8613 98.9173 93.1363 96.7356 94.1422Z" fill="#EDA53C"/>
<path d="M78.6413 89.1616C77.7063 87.4474 77.1113 85.5916 76.8563 83.6649C76.7713 82.9849 76.7005 82.1066 76.998 81.4691C77.3238 80.7608 77.0263 79.9108 76.318 79.5849C75.6096 79.2591 74.7738 79.5566 74.4338 80.2649C73.8246 81.5541 73.9096 82.9566 74.0513 84.0191C74.3488 86.2999 75.0571 88.4816 76.148 90.5074C76.4171 90.9891 76.7005 91.4707 76.998 91.9241C77.2671 92.3349 77.7205 92.5616 78.1738 92.5616C78.443 92.5616 78.7121 92.4907 78.953 92.3207C79.6046 91.8816 79.7746 91.0032 79.3496 90.3516C79.1088 89.9691 78.868 89.5724 78.6413 89.1616Z" fill="#EDA53C"/>
<path d="M134.928 70.0903C134.22 68.8153 133.058 67.8803 131.641 67.4837C130.749 67.2287 129.842 67.2286 128.964 67.427C126.938 62.5678 123.283 58.4737 118.735 56.0795C117.815 55.5978 116.851 55.1728 115.888 54.8328C115.775 54.7903 115.661 54.7478 115.562 54.7195C115.265 54.6203 114.953 54.5212 114.655 54.4362C111 53.3878 107.105 53.3312 103.52 54.252C103.435 53.5578 103.251 52.8353 102.883 52.1695C101.877 50.3561 100.234 49.0386 98.2362 48.472C96.2387 47.9053 94.1562 48.1461 92.3429 49.152C90.4304 50.2145 89.1271 51.957 88.6312 53.997C88.0929 53.742 87.5262 53.5153 86.9312 53.3737C83.0354 52.4528 78.7854 54.2095 76.8162 57.5528C76.3629 58.3178 76.0654 59.1678 75.8812 60.0603C74.4646 59.9611 73.0621 60.2728 71.7871 60.967C68.1887 62.9645 66.8996 67.4978 68.8829 71.0962C69.3787 72.0028 70.1154 73.1078 71.3054 73.6887C71.8012 73.9295 72.4954 74.1278 73.2321 74.3403C73.7279 74.482 74.5637 74.7228 74.7337 74.822C74.9037 74.9495 74.9746 75.0203 74.9887 75.0203C74.9887 75.0487 74.9887 75.1195 74.9604 75.247C74.9321 75.3178 74.6629 75.587 73.9546 75.842C73.6146 75.9553 72.9487 75.8845 71.9429 75.7711L71.6171 75.7287C69.9737 75.5445 68.8829 75.1336 66.3329 73.037C64.4062 71.4786 62.0971 70.2036 59.4621 69.2686C57.0112 68.4045 54.2204 68.6736 51.8262 70.0053C47.1937 72.5695 45.5221 78.4345 48.0862 83.067C48.6246 84.0445 49.4887 84.9795 50.4237 85.7445C46.2021 88.4503 44.7429 94.032 47.2079 98.4803C48.8512 101.455 51.8687 103.24 55.1271 103.396C54.2912 106.244 54.7871 109.374 56.6146 111.825C58.1446 113.879 60.3829 115.225 62.9329 115.594C63.4004 115.664 63.8821 115.693 64.3496 115.693C66.4037 115.693 68.3871 115.041 70.0729 113.794C72.1271 112.264 73.4446 110.168 73.7704 107.887C74.5637 102.461 75.6546 99.8545 78.2329 97.1203C78.6012 96.7237 79.1254 96.4403 79.5646 96.327C80.0887 96.2561 80.6696 96.3553 80.8537 96.5395C80.9812 96.6811 80.9387 97.0495 80.9104 97.2336C80.8679 97.3753 80.6412 97.7862 80.4571 98.0837C79.6212 99.5145 78.2329 101.909 79.7204 104.884C80.4712 106.385 81.7746 107.476 83.4179 107.986C85.1179 108.51 86.9879 108.312 88.5462 107.448C88.9996 107.193 89.4387 106.895 89.9487 106.442C90.7137 107.221 91.6629 107.816 92.7396 108.128C93.3346 108.298 93.9296 108.383 94.5246 108.383C95.6012 108.383 96.6779 108.114 97.6554 107.561C98.7179 106.966 99.5679 106.116 100.135 105.096C101.155 105.719 102.345 106.045 103.535 106.045C104.597 106.045 105.674 105.79 106.651 105.238C108.167 104.402 109.258 103.028 109.725 101.37C109.966 100.534 110.037 99.6703 109.938 98.8345C113.055 98.537 116.129 97.5878 118.877 96.072C123.92 93.2811 127.604 88.8045 129.417 83.3786C129.715 83.4353 130.012 83.4778 130.31 83.4778C131.032 83.4778 131.74 83.2937 132.392 82.9395C133.398 82.387 134.12 81.4662 134.446 80.3612C134.815 79.0862 134.56 77.7687 133.851 76.7345C135.65 75.1053 136.175 72.3428 134.928 70.0903ZM131.712 79.6245C131.599 80.007 131.358 80.3186 131.018 80.5028C130.678 80.687 130.281 80.7436 129.899 80.6303C129.658 80.5595 129.445 80.4462 129.275 80.262C129.134 80.1203 129.02 79.9645 128.95 79.7803C128.652 79.0578 127.816 78.7178 127.094 79.0153C126.371 79.3128 126.031 80.1487 126.329 80.8712C126.485 81.2395 126.697 81.5653 126.938 81.877C125.436 86.9062 122.107 91.0712 117.503 93.6353C114.825 95.1228 111.935 95.9303 108.904 96.1003C108.819 95.9728 108.748 95.8453 108.663 95.732C108.337 95.2928 107.94 94.8961 107.501 94.5561C106.892 94.0745 106 94.1737 105.518 94.797C105.036 95.4062 105.135 96.2986 105.759 96.7803C106 96.9786 106.226 97.2053 106.41 97.4461C106.51 97.5878 106.609 97.7295 106.694 97.8853C107.161 98.7353 107.275 99.7128 107.005 100.648C106.736 101.583 106.127 102.348 105.277 102.829C103.86 103.623 102.09 103.339 100.956 102.22C100.999 101.044 100.744 99.8828 100.163 98.8345C99.7804 98.1545 98.9162 97.8995 98.2362 98.282C97.5562 98.6645 97.3012 99.5287 97.6837 100.209C98.0804 100.917 98.2221 101.724 98.0946 102.518C97.9246 103.637 97.2587 104.6 96.2671 105.139C95.4171 105.606 94.4396 105.719 93.5046 105.45C92.5696 105.181 91.8046 104.572 91.3229 103.722C91.1671 103.439 91.0537 103.141 90.9687 102.829C90.7421 101.937 90.8696 101.016 91.3087 100.209C91.6912 99.5287 91.4362 98.6645 90.7562 98.282C90.0762 97.9137 89.2121 98.1545 88.8296 98.8345C88.0362 100.265 87.8237 101.923 88.2204 103.509C88.2629 103.694 88.3337 103.864 88.3904 104.034C87.8379 104.6 87.4837 104.827 87.1437 105.011C86.2512 105.507 85.1887 105.62 84.2254 105.309C83.3329 105.039 82.6246 104.444 82.2279 103.651C81.4771 102.164 82.0296 101.002 82.8796 99.5428C83.2762 98.8628 83.6162 98.282 83.6729 97.687C83.9279 96.1003 83.3471 95.1228 82.8229 94.5986C81.5762 93.3236 79.6637 93.4795 78.9979 93.5787C77.8929 93.8337 76.8729 94.4145 76.1221 95.2078C73.1046 98.3953 71.7871 101.498 70.9087 107.519C70.6821 109.034 69.7471 110.508 68.3162 111.57C66.8712 112.647 65.0862 113.1 63.2871 112.845C61.5021 112.576 59.9154 111.641 58.8387 110.182C57.2946 108.099 57.0821 105.337 58.2579 103.056C58.9379 102.858 59.5896 102.617 60.2129 102.263C62.2954 101.101 63.8679 99.2312 64.6471 96.9645C64.9021 96.2278 64.5054 95.4203 63.7687 95.1653C63.0321 94.9103 62.2246 95.307 61.9696 96.0437C61.4312 97.6303 60.3121 98.962 58.8387 99.7695C58.2296 100.109 57.5779 100.35 56.8979 100.492C53.9937 101.087 51.0612 99.7411 49.6162 97.1345C47.8029 93.862 48.9929 89.7395 52.2512 87.9262C52.9029 87.5578 53.6112 87.317 54.3479 87.1753C55.4246 86.977 56.5579 87.062 57.6204 87.402C58.3571 87.6428 59.1646 87.232 59.4054 86.4812C59.6462 85.7303 59.2354 84.937 58.4846 84.6961C56.9829 84.2145 55.3821 84.1153 53.8521 84.3845C53.7104 84.4128 53.5687 84.4695 53.4271 84.4978C52.3362 83.8461 51.0896 82.7553 50.5087 81.7211C48.6954 78.4487 49.8854 74.3261 53.1437 72.5128C54.8437 71.5778 56.7846 71.3795 58.4704 71.9745C60.8079 72.7961 62.8337 73.9153 64.5054 75.2753C67.2679 77.5278 68.8546 78.307 71.2629 78.5761L71.5887 78.6187C72.9912 78.7887 73.9121 78.8878 74.8754 78.5478C76.9154 77.8253 77.5387 76.692 77.7087 75.8703C77.9921 74.4961 77.6096 73.5328 76.4479 72.6262C75.9521 72.2295 75.1871 72.0028 73.9829 71.6628C73.4446 71.507 72.7787 71.3228 72.5096 71.1953C72.0279 70.9545 71.6029 70.2745 71.3196 69.7786C70.7246 68.702 70.5829 67.4553 70.9229 66.2653C71.2629 65.0753 72.0421 64.0978 73.1187 63.5028C73.9262 63.0636 74.8187 62.8653 75.7112 62.9362C75.9662 65.1178 77.0146 67.1012 78.6437 68.3903C78.8987 68.6028 79.2104 68.702 79.5221 68.702C79.9329 68.702 80.3579 68.5178 80.6271 68.1637C81.1087 67.5545 81.0096 66.662 80.4004 66.1662C79.1821 65.1887 78.4596 63.5737 78.4737 61.817C78.4737 60.797 78.7287 59.8336 79.2104 59.0261C80.5421 56.7595 83.5596 55.527 86.2229 56.1645C87.3279 56.4336 88.3621 57.0145 89.1412 57.822C89.7787 58.502 90.1896 59.2811 90.3312 60.0886C90.4587 60.8537 91.1812 61.392 91.9604 61.2503C92.7254 61.1228 93.2496 60.3862 93.1221 59.6212C92.8954 58.247 92.2296 56.9437 91.1954 55.867C91.1954 55.867 91.1954 55.867 91.1812 55.8528C91.1812 54.082 92.0879 52.5237 93.6604 51.6453C94.8079 51.0078 96.1396 50.852 97.4004 51.2203C98.6613 51.5887 99.7096 52.4103 100.347 53.572C100.73 54.2662 100.73 55.3428 100.73 56.1645C100.73 56.632 100.956 57.057 101.339 57.3261C101.721 57.5953 102.203 57.652 102.628 57.4962C106.141 56.2353 110.122 56.1078 113.848 57.1845C114.103 57.2553 114.358 57.3403 114.641 57.4253L114.882 57.5103C115.746 57.8078 116.582 58.1761 117.361 58.587C121.399 60.7261 124.629 64.3953 126.4 68.7445C126.003 69.0986 125.663 69.5095 125.38 69.9628C124.983 70.6287 125.195 71.507 125.875 71.9037C126.541 72.3003 127.42 72.0878 127.816 71.4078C128.057 70.997 128.383 70.6853 128.808 70.4586C129.431 70.1186 130.14 70.0336 130.82 70.232C131.5 70.4303 132.066 70.8695 132.406 71.4928C133.115 72.7678 132.647 74.3828 131.372 75.0912C131.245 75.162 131.103 75.2187 130.961 75.2753C130.352 75.4878 129.686 75.4737 129.077 75.2187C128.355 74.9212 127.533 75.2612 127.235 75.9837C126.938 76.7062 127.278 77.5278 128 77.8253C128.666 78.1087 129.389 78.2362 130.097 78.2362C130.465 78.2362 130.834 78.1795 131.188 78.1087C131.655 78.477 131.868 79.0578 131.712 79.6245Z" fill="#FFDFB1"/>
<defs>
<linearGradient id="paint0_linear_628_13499" x1="55.6004" y1="84.9706" x2="56.6432" y2="86.8508" gradientUnits="userSpaceOnUse">
<stop stop-color="#DEA6A9"/>
<stop offset="1" stop-color="#DEA6A9"/>
</linearGradient>
<linearGradient id="paint1_linear_628_13499" x1="89.1309" y1="100.039" x2="90.5653" y2="102.625" gradientUnits="userSpaceOnUse">
<stop stop-color="#DEA6A9"/>
<stop offset="1" stop-color="#DEA6A9"/>
</linearGradient>
<linearGradient id="paint2_linear_628_13499" x1="98.466" y1="99.7707" x2="99.9626" y2="102.469" gradientUnits="userSpaceOnUse">
<stop stop-color="#DEA6A9"/>
<stop offset="1" stop-color="#DEA6A9"/>
</linearGradient>
<linearGradient id="paint3_linear_628_13499" x1="106.768" y1="95.5789" x2="107.372" y2="96.6678" gradientUnits="userSpaceOnUse">
<stop stop-color="#DEA6A9"/>
<stop offset="1" stop-color="#DEA6A9"/>
</linearGradient>
<linearGradient id="paint4_linear_628_13499" x1="90.2544" y1="56.8073" x2="91.8995" y2="59.7735" gradientUnits="userSpaceOnUse">
<stop stop-color="#DEA6A9"/>
<stop offset="1" stop-color="#DEA6A9"/>
</linearGradient>
<linearGradient id="paint5_linear_628_13499" x1="102.181" y1="56.1392" x2="102.193" y2="56.1609" gradientUnits="userSpaceOnUse">
<stop stop-color="#DEA6A9"/>
<stop offset="1" stop-color="#DEA6A9"/>
</linearGradient>
<linearGradient id="paint6_linear_628_13499" x1="106.877" y1="53.5415" x2="109.58" y2="58.4139" gradientUnits="userSpaceOnUse">
<stop stop-color="#DEA6A9"/>
<stop offset="1" stop-color="#DEA6A9"/>
</linearGradient>
<linearGradient id="paint7_linear_628_13499" x1="127.667" y1="80.3232" x2="128.221" y2="81.3221" gradientUnits="userSpaceOnUse">
<stop stop-color="#DEA6A9"/>
<stop offset="1" stop-color="#DEA6A9"/>
</linearGradient>
<linearGradient id="paint8_linear_628_13499" x1="115.197" y1="56.0237" x2="115.303" y2="56.2147" gradientUnits="userSpaceOnUse">
<stop stop-color="#DEA6A9"/>
<stop offset="1" stop-color="#DEA6A9"/>
</linearGradient>
<linearGradient id="paint9_linear_628_13499" x1="129.675" y1="75.9272" x2="130.388" y2="77.2138" gradientUnits="userSpaceOnUse">
<stop stop-color="#DEA6A9"/>
<stop offset="1" stop-color="#DEA6A9"/>
</linearGradient>
<linearGradient id="paint10_linear_628_13499" x1="127.267" y1="69.6987" x2="127.533" y2="70.1788" gradientUnits="userSpaceOnUse">
<stop stop-color="#DEA6A9"/>
<stop offset="1" stop-color="#DEA6A9"/>
</linearGradient>
</defs>
</svg>
