<svg width="171" height="171" viewBox="0 0 171 171" fill="none" xmlns="http://www.w3.org/2000/svg">
<path d="M170.113 24.4297C170.113 11.1749 159.368 0.429688 146.113 0.429688H24.1133C10.8584 0.429688 0.113281 11.1749 0.113281 24.4297V146.43C0.113281 159.685 10.8584 170.43 24.1133 170.43H146.113C159.368 170.43 170.113 159.685 170.113 146.43V24.4297Z" fill="#1C1C1C"/>
<path d="M85.1558 150.431C84.83 150.205 84.405 149.893 83.9091 149.525C82.5775 148.561 80.665 147.131 78.3275 145.289C73.6525 141.62 67.2633 136.35 60.4491 129.918C46.7925 117.012 31.5775 99.573 24.8199 81.1564C22.6241 75.093 21.3633 68.9589 21.3633 62.8672C21.3633 45.5697 31.7758 32.6072 44.7525 27.9464C57.6725 23.3139 73.2841 26.8697 83.9233 43.0055L85.1133 44.8047L86.2891 43.0055C96.9425 26.8697 112.554 23.3139 125.46 27.9464C138.451 32.6072 148.863 45.5697 148.863 62.8672C148.863 68.9589 147.602 75.093 145.407 81.1564C138.635 99.573 123.448 117.012 109.806 129.918C103.006 136.35 96.6308 141.62 91.97 145.289C89.6325 147.116 87.72 148.547 86.4025 149.511C85.8925 149.893 85.4816 150.191 85.1558 150.431Z" fill="#EE624C"/>
<path d="M85.1545 151.998L84.3328 151.403C84.007 151.162 83.582 150.864 83.072 150.496C81.287 149.179 79.3887 147.748 77.462 146.232C73.1837 142.874 66.582 137.477 59.4845 130.776C46.9895 118.961 30.5986 100.828 23.487 81.4761C21.1353 74.9736 19.9453 68.6553 19.9453 62.6911C19.9453 45.9745 29.4937 31.737 44.2837 26.4386C56.212 22.1603 73.212 24.0161 85.112 42.0503C97.012 24.0161 114.012 22.1603 125.94 26.4386C140.73 31.737 150.279 45.9603 150.279 62.6911C150.279 68.6411 149.089 74.9595 146.737 81.462C139.625 100.828 123.263 118.961 110.782 130.776C103.727 137.463 97.1253 142.874 92.8328 146.232C90.9345 147.719 89.0362 149.164 87.2228 150.482C86.7128 150.85 86.2878 151.162 85.962 151.389L85.1545 151.998ZM55.4328 27.2745C52.1887 27.2745 48.7745 27.8411 45.2187 29.1161C31.5903 34.0036 22.7786 47.1786 22.7786 62.6911C22.7786 68.3153 23.912 74.3078 26.1503 80.4986C33.0636 99.3261 49.157 117.105 61.4253 128.708C68.4378 135.338 74.9545 140.679 79.1903 143.994C81.1028 145.495 82.9728 146.898 84.7295 148.201L85.1403 148.499C85.2678 148.399 85.4095 148.3 85.5512 148.201C87.3362 146.884 89.2062 145.481 91.0762 144.008C95.312 140.679 101.843 135.338 108.813 128.722C121.067 117.119 137.132 99.3403 144.06 80.4986C146.298 74.3078 147.431 68.3153 147.431 62.6911C147.431 47.1786 138.62 34.0036 124.977 29.1161C108.317 23.152 94.6745 32.7003 87.4637 43.6228L85.112 47.1928L82.7462 43.6086C77.0795 35.0095 67.4178 27.2745 55.4328 27.2745Z" fill="white"/>
<path d="M56.3535 102.071L56.3394 101.972C52.9252 102.666 49.3127 101.122 47.5418 97.9201C45.346 93.9676 46.7768 88.9809 50.7294 86.7851C51.5369 86.3317 52.3868 86.0342 53.251 85.8784L51.7635 85.7792C50.4035 85.0567 49.2135 83.9517 48.4202 82.5067C46.2243 78.5542 47.6552 73.5676 51.6077 71.3717C53.6619 70.2242 56.0277 70.0117 58.096 70.7342C59.796 71.3434 62.261 72.3917 64.556 74.2617C67.1202 76.3584 68.4802 77.0101 70.5769 77.2509C72.0502 77.4209 72.8435 77.5342 73.5519 77.2934C74.4019 76.9959 75.3085 76.4717 75.4644 75.6642C75.6344 74.8142 75.4644 74.4034 74.7277 73.8226C74.1752 73.3834 71.9085 72.9584 71.0444 72.5476C70.251 72.1651 69.6985 71.3576 69.2452 70.5359C67.6302 67.6176 68.6785 63.9484 71.5969 62.3334C73.056 61.5259 74.6994 61.3842 76.1869 61.8092L76.2294 61.8942C76.2294 60.6759 76.541 59.4434 77.1644 58.3951C78.836 55.5476 82.5194 54.1167 85.7352 54.8817C87.0952 55.2076 88.3844 55.9301 89.3477 56.9501L88.8944 56.0717C88.8944 53.8476 90.0702 51.6801 92.1669 50.5326C95.2269 48.8326 99.0944 49.9375 100.78 52.9976C101.319 53.9751 101.333 55.2217 101.333 56.2559L101.304 56.2701L101.333 56.2842C105.186 54.8959 109.464 54.8109 113.403 55.9301C113.686 56.0151 113.969 56.1001 114.239 56.1851C114.338 56.2134 114.423 56.2417 114.522 56.2842C115.443 56.6101 116.335 56.9926 117.199 57.4459C121.903 59.9251 125.544 64.3026 127.286 69.3176C129.255 68.2267 131.72 68.9351 132.811 70.9042C133.902 72.8734 133.194 75.3384 131.224 76.4292C131.026 76.5426 130.814 76.6417 130.601 76.7126C131.89 77.2934 132.584 78.7384 132.188 80.1409C131.749 81.6709 130.148 82.5634 128.618 82.1242C128.136 81.9826 127.725 81.7417 127.385 81.4159L127.612 81.7417C126.167 87.1817 122.597 92.0551 117.299 95.0017C114.21 96.7159 110.895 97.5801 107.594 97.6793L106.631 96.7017C106.773 96.8859 106.9 97.0984 107.028 97.3109C108.374 99.7476 107.495 102.822 105.059 104.168C102.849 105.4 100.1 104.777 98.5985 102.822C98.3719 104.309 97.4794 105.683 96.0627 106.477C93.626 107.823 90.5519 106.944 89.206 104.508C88.7952 105.018 87.5627 106.023 86.9535 106.363C84.5169 107.709 81.3435 106.888 80.0969 104.394C78.4819 101.164 81.2727 98.8268 81.4144 97.5659C81.5277 96.5176 81.4569 95.8517 80.536 95.2284C80.2102 95.0017 79.2752 94.8742 78.4535 95.0584C77.6319 95.2426 76.8669 95.6676 76.286 96.2767C73.3819 99.3368 72.2344 102.368 71.441 107.808C71.1577 109.749 69.996 111.52 68.296 112.781C64.6694 115.487 59.541 114.722 56.8352 111.095C54.8235 108.403 54.7385 104.833 56.3535 102.071Z" fill="#F2B458"/>
<path d="M53.3672 85.9105L57.3197 86.1796C56.0589 85.7688 54.6989 85.6696 53.3672 85.9105Z" fill="url(#paint0_linear_628_13499)"/>
<path d="M88.8211 103.289L89.3028 99.6484C88.6936 100.739 88.5094 102.043 88.8211 103.289Z" fill="url(#paint1_linear_628_13499)"/>
<path d="M98.1484 99.6406L98.7293 102.842C98.8851 101.794 98.7151 100.661 98.1484 99.6406Z" fill="url(#paint2_linear_628_13499)"/>
<path d="M105.836 95.7891L106.743 96.7099C106.473 96.3699 106.176 96.0582 105.836 95.7891Z" fill="url(#paint3_linear_628_13499)"/>
<path d="M89.4336 56.9609L90.992 59.9784C90.7936 58.8309 90.2269 57.8109 89.4336 56.9609Z" fill="url(#paint4_linear_628_13499)"/>
<path d="M101.387 56.2795L101.415 56.2934C101.415 56.2795 101.415 56.2795 101.415 56.2656C101.401 56.2656 101.387 56.2795 101.387 56.2795Z" fill="url(#paint5_linear_628_13499)"/>
<path d="M101.418 56.2672V56.2813C105.271 54.893 109.55 54.808 113.488 55.9272C109.55 54.8222 105.271 54.8788 101.418 56.2672Z" fill="url(#paint6_linear_628_13499)"/>
<path d="M126.844 80.4688C126.985 80.8229 127.212 81.1488 127.481 81.4179L126.844 80.4688Z" fill="url(#paint7_linear_628_13499)"/>
<path d="M114.324 56.2109C114.423 56.2393 114.508 56.2676 114.608 56.3101C114.523 56.2676 114.423 56.2393 114.324 56.2109Z" fill="url(#paint8_linear_628_13499)"/>
<path d="M130.699 76.7349L127.809 76.6641C128.701 77.0324 129.735 77.0749 130.699 76.7349Z" fill="url(#paint9_linear_628_13499)"/>
<path d="M125.855 70.8093L127.371 69.3359C126.734 69.7043 126.21 70.2143 125.855 70.8093Z" fill="url(#paint10_linear_628_13499)"/>
<path d="M104.823 91.47C104.313 90.7191 103.817 89.9541 103.364 89.175C100.785 84.8116 99.0711 80.0658 98.2636 75.0791C97.5836 70.8433 97.5694 66.5366 98.2352 62.2867C98.3627 61.5075 97.8244 60.785 97.0594 60.6717C96.2802 60.5583 95.5577 61.0825 95.4444 61.8475C94.8777 65.4316 94.7786 69.0441 95.1186 72.6425C93.8861 72.09 92.6394 71.7216 91.4211 71.6508C90.0469 71.5658 88.5452 71.8208 87.1711 72.3733C85.3436 73.11 83.7002 74.4416 82.5669 76.1275C81.2777 78.04 80.9802 80.42 81.7736 82.3466C82.3544 83.7208 83.5019 84.755 84.8194 85.265C83.6011 87.815 83.6294 90.8466 85.0461 93.3966C86.6752 96.3291 89.6644 97.9866 92.7669 97.9866C94.0844 97.9866 95.4161 97.675 96.6911 97.0658L96.7477 97.0375C96.7619 97.0233 96.7902 97.0233 96.8044 97.0091L97.0594 96.8958C99.3119 95.8758 100.941 94.5441 102.202 92.6458C102.301 92.7875 102.386 92.9433 102.471 93.085C102.74 93.4816 103.194 93.7083 103.647 93.7083C103.916 93.7083 104.199 93.6233 104.44 93.4675C105.106 93 105.276 92.1075 104.823 91.47ZM95.9544 94.275H95.6711L95.4444 94.5016C95.2461 94.5866 95.0477 94.6575 94.8352 94.7425C94.8211 94.7425 94.8211 94.7566 94.8211 94.7566C92.1011 95.72 88.9702 94.615 87.5394 92.0225C86.2927 89.7841 86.6044 87.0075 88.3044 85.095C88.7577 84.585 89.2819 84.16 89.8911 83.8341C90.5711 83.4516 90.8261 82.5875 90.4436 81.9075C90.0611 81.2275 89.1969 80.9725 88.5169 81.355C87.8369 81.7375 87.2277 82.2191 86.6752 82.7575C85.7969 82.8 84.8052 82.205 84.4086 81.27C83.9694 80.2358 84.1819 78.8333 84.9327 77.7283C85.7402 76.5241 86.9586 75.5466 88.2477 75.0225C89.2394 74.6258 90.3019 74.4416 91.2652 74.4983C92.6394 74.5833 94.1977 75.2066 95.6002 76.17C96.4502 81.0008 98.1077 85.6191 100.53 89.9116C99.4677 91.9941 98.1361 93.2691 95.9544 94.275Z" fill="#EDA53C"/>
<path d="M77.86 89.2944C76.925 87.5802 76.33 85.7244 76.075 83.7977C75.99 83.1177 75.9192 82.2394 76.2167 81.6019C76.5425 80.8936 76.245 80.0436 75.5367 79.7178C74.8284 79.3919 73.9925 79.6894 73.6525 80.3977C73.0434 81.6869 73.1284 83.0894 73.27 84.1519C73.5675 86.4327 74.2759 88.6144 75.3667 90.6402C75.6359 91.1219 75.9192 91.6036 76.2167 92.0569C76.4859 92.4677 76.9392 92.6944 77.3925 92.6944C77.6617 92.6944 77.9309 92.6235 78.1717 92.4535C78.8234 92.0144 78.9934 91.1361 78.5684 90.4844C78.3275 90.1019 78.0867 89.7052 77.86 89.2944Z" fill="#EDA53C"/>
<path d="M134.143 70.2231C133.434 68.9481 132.273 68.0131 130.856 67.6165C129.964 67.3615 129.057 67.3615 128.179 67.5598C126.153 62.7006 122.498 58.6065 117.95 56.2123C117.029 55.7306 116.066 55.3056 115.103 54.9656C114.989 54.9231 114.876 54.8806 114.777 54.8523C114.479 54.7531 114.168 54.654 113.87 54.569C110.215 53.5206 106.319 53.464 102.735 54.3848C102.65 53.6906 102.466 52.9681 102.098 52.3023C101.092 50.489 99.4486 49.1715 97.4511 48.6048C95.4536 48.0381 93.3711 48.279 91.5578 49.2848C89.6453 50.3473 88.3419 52.0898 87.8461 54.1298C87.3077 53.8748 86.7411 53.6481 86.1461 53.5065C82.2502 52.5856 78.0002 54.3423 76.0311 57.6856C75.5777 58.4506 75.2802 59.3006 75.0961 60.1931C73.6794 60.094 72.2769 60.4056 71.0019 61.0998C67.4036 63.0973 66.1144 67.6306 68.0977 71.229C68.5936 72.1356 69.3302 73.2406 70.5202 73.8215C71.0161 74.0623 71.7102 74.2606 72.4469 74.4731C72.9427 74.6148 73.7786 74.8556 73.9486 74.9548C74.1186 75.0823 74.1894 75.1531 74.2036 75.1531C74.2036 75.1815 74.2036 75.2523 74.1752 75.3798C74.1469 75.4506 73.8777 75.7198 73.1694 75.9748C72.8294 76.0881 72.1636 76.0173 71.1577 75.904L70.8319 75.8615C69.1886 75.6773 68.0977 75.2665 65.5477 73.1698C63.6211 71.6115 61.3119 70.3365 58.6769 69.4015C56.2261 68.5373 53.4352 68.8065 51.0411 70.1381C46.4086 72.7023 44.7369 78.5673 47.3011 83.1998C47.8394 84.1773 48.7036 85.1123 49.6386 85.8773C45.4169 88.5831 43.9577 94.1648 46.4227 98.6131C48.0661 101.588 51.0836 103.373 54.3419 103.529C53.5061 106.376 54.0019 109.507 55.8294 111.958C57.3594 114.012 59.5977 115.358 62.1477 115.726C62.6152 115.797 63.0969 115.826 63.5644 115.826C65.6186 115.826 67.6019 115.174 69.2877 113.927C71.3419 112.397 72.6594 110.301 72.9852 108.02C73.7786 102.594 74.8694 99.9873 77.4477 97.2531C77.8161 96.8565 78.3402 96.5731 78.7794 96.4598C79.3036 96.389 79.8844 96.4881 80.0686 96.6723C80.1961 96.814 80.1536 97.1823 80.1252 97.3665C80.0827 97.5081 79.8561 97.919 79.6719 98.2165C78.8361 99.6473 77.4477 102.041 78.9352 105.016C79.6861 106.518 80.9894 107.609 82.6327 108.119C84.3327 108.643 86.2027 108.445 87.7611 107.581C88.2144 107.326 88.6536 107.028 89.1636 106.575C89.9286 107.354 90.8778 107.949 91.9544 108.261C92.5494 108.431 93.1444 108.516 93.7394 108.516C94.8161 108.516 95.8928 108.246 96.8703 107.694C97.9328 107.099 98.7828 106.249 99.3494 105.229C100.369 105.852 101.559 106.178 102.749 106.178C103.812 106.178 104.889 105.923 105.866 105.371C107.382 104.535 108.473 103.161 108.94 101.503C109.181 100.667 109.252 99.8031 109.153 98.9673C112.269 98.6698 115.344 97.7206 118.092 96.2048C123.135 93.414 126.819 88.9373 128.632 83.5115C128.929 83.5681 129.227 83.6106 129.524 83.6106C130.247 83.6106 130.955 83.4265 131.607 83.0723C132.613 82.5198 133.335 81.599 133.661 80.494C134.029 79.219 133.774 77.9015 133.066 76.8673C134.865 75.2381 135.389 72.4756 134.143 70.2231ZM130.927 79.7573C130.814 80.1398 130.573 80.4515 130.233 80.6356C129.893 80.8198 129.496 80.8765 129.114 80.7631C128.873 80.6923 128.66 80.579 128.49 80.3948C128.349 80.2531 128.235 80.0973 128.164 79.9131C127.867 79.1906 127.031 78.8506 126.309 79.1481C125.586 79.4456 125.246 80.2815 125.544 81.004C125.699 81.3723 125.912 81.6981 126.153 82.0098C124.651 87.039 121.322 91.204 116.718 93.7681C114.04 95.2556 111.15 96.0631 108.119 96.2331C108.034 96.1056 107.963 95.9781 107.878 95.8648C107.552 95.4256 107.155 95.029 106.716 94.689C106.107 94.2073 105.214 94.3065 104.733 94.9298C104.251 95.539 104.35 96.4315 104.974 96.9131C105.214 97.1115 105.441 97.3381 105.625 97.579C105.724 97.7206 105.824 97.8623 105.909 98.0181C106.376 98.8681 106.489 99.8456 106.22 100.781C105.951 101.716 105.342 102.481 104.492 102.962C103.075 103.756 101.304 103.472 100.171 102.353C100.214 101.177 99.9586 100.016 99.3778 98.9673C98.9953 98.2873 98.1311 98.0323 97.4511 98.4148C96.7711 98.7973 96.5161 99.6615 96.8986 100.341C97.2953 101.05 97.4369 101.857 97.3094 102.651C97.1394 103.77 96.4736 104.733 95.4819 105.271C94.6319 105.739 93.6544 105.852 92.7194 105.583C91.7844 105.314 91.0194 104.705 90.5378 103.855C90.3819 103.571 90.2686 103.274 90.1836 102.962C89.9569 102.07 90.0844 101.149 90.5236 100.341C90.9061 99.6615 90.6511 98.7973 89.9711 98.4148C89.2911 98.0465 88.4269 98.2873 88.0444 98.9673C87.2511 100.398 87.0386 102.056 87.4352 103.642C87.4777 103.826 87.5486 103.996 87.6052 104.166C87.0527 104.733 86.6986 104.96 86.3586 105.144C85.4661 105.64 84.4036 105.753 83.4402 105.441C82.5477 105.172 81.8394 104.577 81.4427 103.784C80.6919 102.296 81.2444 101.135 82.0944 99.6756C82.4911 98.9956 82.8311 98.4148 82.8877 97.8198C83.1427 96.2331 82.5619 95.2556 82.0377 94.7315C80.7911 93.4565 78.8786 93.6123 78.2127 93.7115C77.1077 93.9665 76.0877 94.5473 75.3369 95.3406C72.3194 98.5281 71.0019 101.631 70.1236 107.651C69.8969 109.167 68.9619 110.641 67.5311 111.703C66.0861 112.78 64.3011 113.233 62.5019 112.978C60.7169 112.709 59.1302 111.774 58.0536 110.315C56.5094 108.232 56.2969 105.47 57.4727 103.189C58.1527 102.991 58.8044 102.75 59.4277 102.396C61.5102 101.234 63.0827 99.364 63.8619 97.0973C64.1169 96.3606 63.7202 95.5531 62.9836 95.2981C62.2469 95.0431 61.4394 95.4398 61.1844 96.1765C60.6461 97.7631 59.5269 99.0948 58.0536 99.9023C57.4444 100.242 56.7927 100.483 56.1127 100.625C53.2086 101.22 50.2761 99.874 48.8311 97.2673C47.0177 93.9948 48.2077 89.8723 51.4661 88.059C52.1177 87.6906 52.8261 87.4498 53.5627 87.3081C54.6394 87.1098 55.7727 87.1948 56.8352 87.5348C57.5719 87.7756 58.3794 87.3648 58.6202 86.614C58.8611 85.8631 58.4502 85.0698 57.6994 84.829C56.1977 84.3473 54.5969 84.2481 53.0669 84.5173C52.9252 84.5456 52.7836 84.6023 52.6419 84.6306C51.5511 83.979 50.3044 82.8881 49.7236 81.854C47.9102 78.5815 49.1002 74.459 52.3586 72.6456C54.0586 71.7106 55.9994 71.5123 57.6852 72.1073C60.0227 72.929 62.0486 74.0481 63.7202 75.4081C66.4827 77.6606 68.0694 78.4398 70.4777 78.709L70.8036 78.7515C72.2061 78.9215 73.1269 79.0206 74.0902 78.6806C76.1302 77.9581 76.7536 76.8248 76.9236 76.0031C77.2069 74.629 76.8244 73.6656 75.6627 72.759C75.1669 72.3623 74.4019 72.1356 73.1977 71.7956C72.6594 71.6398 71.9936 71.4556 71.7244 71.3281C71.2427 71.0873 70.8177 70.4073 70.5344 69.9115C69.9394 68.8348 69.7977 67.5881 70.1377 66.3981C70.4777 65.2081 71.2569 64.2306 72.3336 63.6356C73.1411 63.1965 74.0336 62.9981 74.9261 63.069C75.1811 65.2506 76.2294 67.234 77.8586 68.5231C78.1136 68.7356 78.4252 68.8348 78.7369 68.8348C79.1477 68.8348 79.5727 68.6506 79.8419 68.2965C80.3236 67.6873 80.2244 66.7948 79.6152 66.299C78.3969 65.3215 77.6744 63.7065 77.6886 61.9498C77.6886 60.9298 77.9436 59.9665 78.4252 59.159C79.7569 56.8923 82.7744 55.6598 85.4377 56.2973C86.5427 56.5665 87.5769 57.1473 88.3561 57.9548C88.9936 58.6348 89.4044 59.414 89.5461 60.2215C89.6736 60.9865 90.3961 61.5248 91.1753 61.3831C91.9403 61.2556 92.4644 60.519 92.3369 59.754C92.1103 58.3798 91.4444 57.0765 90.4103 55.9998C90.4103 55.9998 90.4103 55.9998 90.3961 55.9856C90.3961 54.2148 91.3028 52.6565 92.8753 51.7781C94.0228 51.1406 95.3544 50.9848 96.6153 51.3531C97.8761 51.7215 98.9244 52.5431 99.5619 53.7048C99.9444 54.399 99.9444 55.4756 99.9444 56.2973C99.9444 56.7648 100.171 57.1898 100.554 57.459C100.936 57.7281 101.418 57.7848 101.843 57.629C105.356 56.3681 109.337 56.2406 113.063 57.3173C113.318 57.3881 113.573 57.4731 113.856 57.5581L114.097 57.6431C114.961 57.9406 115.797 58.309 116.576 58.7198C120.614 60.859 123.844 64.5281 125.614 68.8773C125.218 69.2315 124.878 69.6423 124.594 70.0956C124.198 70.7615 124.41 71.6398 125.09 72.0365C125.756 72.4331 126.634 72.2206 127.031 71.5406C127.272 71.1298 127.598 70.8181 128.023 70.5915C128.646 70.2515 129.354 70.1665 130.034 70.3648C130.714 70.5631 131.281 71.0023 131.621 71.6256C132.329 72.9006 131.862 74.5156 130.587 75.224C130.459 75.2948 130.318 75.3515 130.176 75.4081C129.567 75.6206 128.901 75.6065 128.292 75.3515C127.569 75.054 126.748 75.394 126.45 76.1165C126.153 76.839 126.493 77.6606 127.215 77.9581C127.881 78.2415 128.604 78.369 129.312 78.369C129.68 78.369 130.049 78.3123 130.403 78.2415C130.87 78.6098 131.083 79.1906 130.927 79.7573Z" fill="#FFDFB1"/>
<defs>
<linearGradient id="paint0_linear_628_13499" x1="54.8191" y1="85.1034" x2="55.8619" y2="86.9836" gradientUnits="userSpaceOnUse">
<stop stop-color="#DEA6A9"/>
<stop offset="1" stop-color="#DEA6A9"/>
</linearGradient>
<linearGradient id="paint1_linear_628_13499" x1="88.3458" y1="100.172" x2="89.7801" y2="102.758" gradientUnits="userSpaceOnUse">
<stop stop-color="#DEA6A9"/>
<stop offset="1" stop-color="#DEA6A9"/>
</linearGradient>
<linearGradient id="paint2_linear_628_13499" x1="97.6848" y1="99.9036" x2="99.1813" y2="102.601" gradientUnits="userSpaceOnUse">
<stop stop-color="#DEA6A9"/>
<stop offset="1" stop-color="#DEA6A9"/>
</linearGradient>
<linearGradient id="paint3_linear_628_13499" x1="105.985" y1="95.7117" x2="106.588" y2="96.8006" gradientUnits="userSpaceOnUse">
<stop stop-color="#DEA6A9"/>
<stop offset="1" stop-color="#DEA6A9"/>
</linearGradient>
<linearGradient id="paint4_linear_628_13499" x1="89.4731" y1="56.9401" x2="91.1183" y2="59.9064" gradientUnits="userSpaceOnUse">
<stop stop-color="#DEA6A9"/>
<stop offset="1" stop-color="#DEA6A9"/>
</linearGradient>
<linearGradient id="paint5_linear_628_13499" x1="101.396" y1="56.272" x2="101.408" y2="56.2937" gradientUnits="userSpaceOnUse">
<stop stop-color="#DEA6A9"/>
<stop offset="1" stop-color="#DEA6A9"/>
</linearGradient>
<linearGradient id="paint6_linear_628_13499" x1="106.096" y1="53.6743" x2="108.799" y2="58.5467" gradientUnits="userSpaceOnUse">
<stop stop-color="#DEA6A9"/>
<stop offset="1" stop-color="#DEA6A9"/>
</linearGradient>
<linearGradient id="paint7_linear_628_13499" x1="126.882" y1="80.456" x2="127.436" y2="81.4549" gradientUnits="userSpaceOnUse">
<stop stop-color="#DEA6A9"/>
<stop offset="1" stop-color="#DEA6A9"/>
</linearGradient>
<linearGradient id="paint8_linear_628_13499" x1="114.416" y1="56.1565" x2="114.522" y2="56.3475" gradientUnits="userSpaceOnUse">
<stop stop-color="#DEA6A9"/>
<stop offset="1" stop-color="#DEA6A9"/>
</linearGradient>
<linearGradient id="paint9_linear_628_13499" x1="128.89" y1="76.06" x2="129.603" y2="77.3466" gradientUnits="userSpaceOnUse">
<stop stop-color="#DEA6A9"/>
<stop offset="1" stop-color="#DEA6A9"/>
</linearGradient>
<linearGradient id="paint10_linear_628_13499" x1="126.486" y1="69.8315" x2="126.752" y2="70.3116" gradientUnits="userSpaceOnUse">
<stop stop-color="#DEA6A9"/>
<stop offset="1" stop-color="#DEA6A9"/>
</linearGradient>
</defs>
</svg>
