<svg width="161" height="161" viewBox="0 0 161 161" fill="none" xmlns="http://www.w3.org/2000/svg">
<rect x="0.921875" y="0.015625" width="160" height="160" rx="24" fill="#68E592"/>
<mask id="mask0_628_13528" style="mask-type:alpha" maskUnits="userSpaceOnUse" x="0" y="0" width="161" height="161">
<rect x="0.921875" y="0.015625" width="160" height="160" rx="24" fill="#68E592"/>
</mask>
<g mask="url(#mask0_628_13528)">
<g clip-path="url(#clip0_628_13528)">
<rect x="24.6211" y="144.734" width="109.433" height="41.2616" fill="#FF8E66"/>
<path d="M36.2654 143.21C36.3902 143.006 36.5216 142.816 36.6463 142.612C39.7266 137.49 41.7954 131.809 45.0793 126.817C45.2066 126.642 45.3753 126.501 45.5704 126.406C45.7655 126.312 45.9809 126.267 46.1975 126.276C46.414 126.285 46.6249 126.348 46.8114 126.458C46.9979 126.569 47.1542 126.724 47.2663 126.909C47.7261 126.252 48.1989 125.595 48.7047 124.985C49.1031 124.499 49.5234 124.026 49.9656 123.566C48.3252 122.933 46.7337 122.18 45.2041 121.313C40.4365 118.585 36.8127 114.229 34.9979 109.045C33.2575 103.896 33.7237 97.9455 36.6595 93.3744L37.0273 92.3893C35.8911 87.365 35.057 82.0714 36.4427 77.1063C38.5641 69.4681 45.4996 64.1088 52.6912 60.7527C53.197 60.5163 53.7158 60.2864 54.2281 60.0959C54.5827 59.9383 54.9374 59.7938 55.2986 59.6493L55.6073 59.518C56.4677 59.1765 57.3346 58.8612 58.2344 58.5591L58.4445 58.4869C64.6147 56.4426 71.0763 55.4155 77.5762 55.446H80.0588C88.0683 55.3921 96.0043 56.9744 103.381 60.0959C103.9 60.3192 104.412 60.5491 104.924 60.7527C112.109 64.1088 119.045 69.4681 121.173 77.1063C122.545 82.0714 121.724 87.365 120.581 92.3893L120.956 93.3744C123.885 97.9718 124.358 103.883 122.617 109.045C120.789 114.23 117.151 118.582 112.372 121.3C111.794 121.635 111.19 121.957 110.572 122.259C111.493 123.1 112.351 124.006 113.14 124.972C113.646 125.596 114.125 126.239 114.579 126.896C114.691 126.71 114.847 126.556 115.033 126.445C115.22 126.335 115.431 126.272 115.647 126.263C115.864 126.254 116.079 126.299 116.274 126.393C116.47 126.487 116.638 126.629 116.766 126.804C120.049 131.809 122.112 137.476 125.192 142.599C125.31 142.803 125.442 142.993 125.566 143.197L136.922 129.674L137.211 130.18V107.738L137.125 107.955C137.618 88.5209 133.842 64.608 118.158 50.0605L117.784 51.4266C117.683 51.7704 117.475 52.073 117.19 52.2904C116.906 52.5077 116.559 52.6285 116.201 52.6351L106.29 53.1079L97.5157 53.5283C96.1037 53.5939 94.6588 53.7713 93.3321 53.1933C92.1485 52.6182 91.0073 51.9597 89.9169 51.223L75.0082 41.9297C74.7001 41.7415 74.4604 41.4593 74.3245 41.1248C74.1886 40.7902 74.1635 40.4209 74.2529 40.0711L74.8243 37.8052L74.982 37.1484C61.1898 38.1599 43.0696 43.2104 31.4053 60.5819C17.6986 80.9746 18.1846 116.703 21.4356 135.434V135.723L24.9165 129.687L36.2654 143.21Z" fill="#FF8E66"/>
<path d="M71.8828 115.653C75.1344 116.18 78.2241 117.438 80.9199 119.331C83.6133 117.429 86.7035 116.165 89.9571 115.633C97.3392 114.47 105.063 117.19 110.573 122.253C111.19 121.951 111.795 121.596 112.373 121.294C117.136 118.57 120.759 114.222 122.579 109.046C124.319 103.897 123.846 97.9462 120.917 93.3751L120.543 92.3899C121.686 87.3656 122.513 82.0721 121.134 77.1069C119.006 69.4687 112.07 64.1094 104.885 60.7533C104.373 60.5169 103.861 60.287 103.342 60.0966C95.9657 56.9751 88.0296 55.3927 80.0202 55.4466H77.5376C71.0376 55.4162 64.576 56.4432 58.4059 58.4875L58.1957 58.5597C57.3222 58.8618 56.4553 59.1771 55.5686 59.5186L55.26 59.65C54.8987 59.7945 54.5441 59.939 54.1894 60.0966C53.6771 60.3199 53.1583 60.5497 52.6526 60.7533C45.4282 64.1094 38.5255 69.4687 36.4041 77.1069C35.0249 82.0721 35.8524 87.3656 36.9886 92.3899L36.6209 93.3751C33.6851 97.9724 33.2188 103.883 34.9593 109.046C36.7834 114.229 40.4166 118.581 45.1917 121.301C46.7213 122.168 48.3128 122.921 49.9533 123.554C55.5161 117.682 63.8899 114.392 71.8828 115.653ZM88.6304 82.5515C90.5613 76.8967 97.9762 75.2745 105.654 77.8885C113.331 80.5024 118.967 85.3822 116.425 92.0221C113.758 98.9904 106.711 100.146 99.0402 97.5324C91.3691 94.9185 86.7061 88.18 88.6304 82.5515ZM78.7001 90.5444C82.4633 90.5444 85.5107 92.5147 85.5107 94.9316C85.5107 97.3485 82.4633 100.094 78.7001 100.094C74.9368 100.094 71.8894 97.3551 71.8894 94.9316C71.8894 92.5081 74.9368 90.5115 78.7001 90.5115V90.5444ZM40.9752 92.0221C38.4335 85.3822 44.0686 80.5024 51.7463 77.8885C59.4239 75.2745 66.8519 76.8967 68.7697 82.5515C70.6875 88.2063 66.0375 94.9185 58.3599 97.5324C50.6823 100.146 43.6417 98.9707 40.9752 91.9893V92.0221ZM64.192 102.406C64.1885 102.24 64.2183 102.075 64.2795 101.921C64.3407 101.767 64.4321 101.627 64.5485 101.509C64.6648 101.39 64.8036 101.297 64.9567 101.233C65.1098 101.169 65.2741 101.137 65.4399 101.138C69.8887 101.652 74.3667 101.872 78.8445 101.795C83.1661 101.795 87.5599 101.874 91.8354 101.204C92.1505 101.124 92.4841 101.169 92.7668 101.329C93.0494 101.49 93.2593 101.753 93.3526 102.064C93.4375 102.379 93.3948 102.715 93.2338 102.999C93.0727 103.283 92.8063 103.492 92.4922 103.581C88.0459 104.277 83.5207 104.238 79.035 104.238C74.4937 104.321 69.952 104.102 65.4399 103.581C65.1166 103.578 64.8069 103.451 64.5747 103.226C64.3424 103.001 64.2055 102.696 64.192 102.373V102.406Z" fill="#FFE7DC"/>
<path d="M78.6974 100.057C82.4607 100.057 85.5081 97.3185 85.5081 94.895C85.5081 92.4715 82.4607 90.5078 78.6974 90.5078C74.9341 90.5078 71.8867 92.4781 71.8867 94.895C71.8867 97.3119 74.9341 100.057 78.6974 100.057Z" fill="#262626"/>
<path d="M92.4745 103.568C92.7886 103.479 93.0551 103.27 93.2161 102.986C93.3771 102.702 93.4198 102.366 93.3349 102.051C93.2416 101.74 93.0317 101.477 92.7491 101.316C92.4664 101.156 92.1328 101.111 91.8178 101.191C87.5422 101.847 83.1484 101.782 78.8269 101.782C74.3491 101.859 69.8711 101.639 65.4222 101.125C65.0953 101.127 64.7823 101.257 64.5511 101.489C64.3199 101.72 64.1892 102.033 64.1875 102.36C64.1959 102.684 64.3289 102.992 64.5588 103.221C64.7888 103.45 65.098 103.581 65.4222 103.588C69.9343 104.109 74.4761 104.328 79.0173 104.245C83.5031 104.225 88.0282 104.258 92.4745 103.568Z" fill="#262626"/>
<path d="M99.0407 97.5003C106.712 100.127 113.759 98.9584 116.425 91.99C118.967 85.3501 113.332 80.4703 105.654 77.8564C97.9767 75.2424 90.5487 76.8647 88.6309 82.5195C86.7132 88.1742 91.3631 94.8864 99.0407 97.5003ZM92.2038 83.9512C92.7883 81.7051 95.4876 80.4703 98.292 81.1928C101.096 81.9152 102.843 84.3256 102.233 86.5717C101.622 88.8178 98.9488 90.046 96.1509 89.3236C93.3531 88.6011 91.6192 86.1973 92.2038 83.9512Z" fill="#FF9676"/>
<path d="M102.251 86.5514C102.836 84.305 101.06 81.8975 98.2831 81.1743C95.5066 80.4511 92.7814 81.6859 92.1962 83.9324C91.6111 86.1789 93.3875 88.5863 96.164 89.3095C98.9405 90.0327 101.666 88.7979 102.251 86.5514Z" fill="#262626"/>
<path d="M68.7678 82.5507C66.8435 76.8959 59.422 75.2737 51.7444 77.8876C44.0667 80.5016 38.4316 85.3813 40.9733 92.0213C43.6398 98.9896 50.6869 100.145 58.358 97.5316C66.0291 94.9176 70.6921 88.1792 68.7678 82.5507ZM61.1493 89.3548C58.3711 90.0772 55.6456 88.8491 55.061 86.6029C54.4765 84.3568 56.2564 81.9464 59.0017 81.224C61.747 80.5015 64.4988 81.7363 65.0833 83.9824C65.6679 86.2286 63.9274 88.5995 61.1493 89.322V89.3548Z" fill="#FF9676"/>
<path d="M61.1424 89.3335C63.9189 88.6103 65.6954 86.2029 65.1102 83.9564C64.5251 81.7099 61.7999 80.4751 59.0234 81.1983C56.2469 81.9215 54.4705 84.329 55.0556 86.5754C55.6408 88.8219 58.3659 90.0568 61.1424 89.3335Z" fill="#262626"/>
<path d="M67.3478 180.217C66.5596 181.197 65.7562 182.161 64.9374 183.106L27.9219 156.836C27.7512 156.98 27.5935 157.138 27.4228 157.282C26.2275 158.307 24.4739 156.573 25.6823 155.535C29.8186 152.001 33.3871 147.852 36.2629 143.234L24.9073 129.711L21.433 135.747L19.0227 139.93C15.7389 147.01 13.4402 154.642 13.4336 162.425C13.427 170.207 15.9096 178.187 21.2689 183.842C26.1487 188.984 33.1498 191.933 40.2298 192.334C52.091 192.991 59.4468 188.584 63.4531 184.893C64.9764 183.536 66.289 181.96 67.3478 180.217V180.217Z" fill="#FF8E66"/>
<path d="M38.6226 144.095C41.7817 138.913 43.8768 133.14 47.1935 128.057C47.3156 127.892 47.3865 127.695 47.397 127.491C47.4075 127.286 47.3573 127.083 47.2526 126.907C47.1405 126.722 46.9842 126.567 46.7977 126.457C46.6112 126.346 46.4003 126.284 46.1837 126.275C45.9672 126.265 45.7518 126.31 45.5567 126.404C45.3616 126.499 45.1929 126.64 45.0655 126.815C41.7817 131.82 39.726 137.488 36.6458 142.611C36.521 142.814 36.3897 143.005 36.2649 143.208C33.3891 147.827 29.8206 151.976 25.6843 155.51C24.4758 156.547 26.2294 158.281 27.4247 157.257C27.5955 157.112 27.7531 156.955 27.9239 156.81C32.11 153.135 35.7169 148.848 38.6226 144.095V144.095Z" fill="#FF6B43"/>
<path d="M142.82 139.907L137.211 130.193L136.922 129.688L125.567 143.21C128.445 147.829 132.015 151.978 136.154 155.512C137.356 156.549 135.609 158.283 134.413 157.259C134.243 157.114 134.078 156.957 133.914 156.812L96.8987 183.083C96.0799 182.137 95.2764 181.174 94.4883 180.193C95.7483 182.235 97.3423 184.051 99.2039 185.565C103.368 189.079 110.52 192.915 121.606 192.284C128.686 191.884 135.694 188.935 140.574 183.792C145.926 178.137 148.416 170.164 148.409 162.375C148.402 154.586 146.071 146.987 142.82 139.907Z" fill="#FF8E66"/>
<path d="M123.236 144.091C120.077 138.909 117.982 133.136 114.698 128.053C114.576 127.889 114.504 127.692 114.493 127.488C114.481 127.284 114.53 127.08 114.632 126.904C114.179 126.247 113.7 125.59 113.194 124.979C112.405 124.014 111.547 123.107 110.626 122.267C105.103 117.203 97.3922 114.484 90.0101 115.647C86.7399 116.165 83.6311 117.423 80.9205 119.324C78.2265 117.424 75.1366 116.16 71.8833 115.627C63.8904 114.366 55.5166 117.656 49.9538 123.541C49.516 123.979 49.0956 124.452 48.6928 124.96C48.1871 125.583 47.7142 126.227 47.2545 126.884C47.3592 127.06 47.4094 127.263 47.3989 127.467C47.3884 127.672 47.3175 127.869 47.1954 128.033C43.8524 133.117 41.7836 138.89 38.6245 144.072C35.7188 148.824 32.1119 153.111 27.9258 156.787L64.9413 183.057C65.7644 182.112 66.5679 181.148 67.3516 180.168C68.1135 179.222 68.8556 178.256 69.5846 177.284C69.3831 177.257 69.1913 177.181 69.0261 177.063C68.8609 176.944 68.7274 176.787 68.6372 176.604C68.547 176.422 68.503 176.221 68.509 176.017C68.5151 175.814 68.5709 175.615 68.6717 175.439C70.8259 172.483 72.8553 169.443 74.7928 166.349C76.3888 163.807 77.9716 161.239 79.4887 158.639C77.9322 155.92 76.4545 153.155 75.1409 150.331C72.5138 144.63 70.7274 138.509 71.7717 132.177C71.7889 131.989 71.8599 131.81 71.9764 131.661C72.0929 131.511 72.2498 131.399 72.4285 131.337C72.6447 131.277 72.8723 131.272 73.091 131.322C73.3097 131.372 73.5126 131.475 73.6813 131.623C73.85 131.771 73.9793 131.959 74.0575 132.169C74.1358 132.379 74.1605 132.605 74.1295 132.828C73.6395 136.179 73.8975 139.597 74.8848 142.837C76.553 148.748 79.7514 154.107 82.8185 159.368C85.9841 164.898 89.4323 170.263 93.1495 175.439C93.312 175.721 93.3562 176.057 93.2726 176.372C93.1889 176.686 92.9842 176.956 92.7029 177.12C92.5578 177.205 92.3968 177.258 92.23 177.278C92.959 178.25 93.7078 179.248 94.4696 180.168C95.2315 181.087 96.059 182.138 96.88 183.057L133.895 156.787C129.723 153.116 126.13 148.836 123.236 144.091Z" fill="#FF8E66"/>
<path d="M93.1683 175.49C89.4503 170.305 86.0021 164.932 82.8373 159.392C79.7702 154.138 76.5718 148.773 74.9036 142.862C73.9163 139.622 73.6583 136.204 74.1483 132.852C74.1793 132.63 74.1546 132.404 74.0764 132.194C73.9981 131.983 73.8688 131.796 73.7001 131.648C73.5314 131.5 73.3286 131.397 73.1099 131.347C72.8912 131.297 72.6635 131.302 72.4473 131.362C72.2686 131.424 72.1117 131.536 71.9952 131.685C71.8788 131.834 71.8077 132.014 71.7905 132.202C70.7462 138.514 72.5064 144.681 75.1597 150.355C76.4733 153.179 77.951 155.944 79.5075 158.663C77.9904 161.291 76.4076 163.832 74.8116 166.374C72.8413 169.467 70.871 172.508 68.6906 175.464C68.5898 175.64 68.5339 175.839 68.5279 176.042C68.5219 176.245 68.5658 176.447 68.656 176.629C68.7462 176.811 68.8797 176.969 69.0449 177.087C69.2101 177.206 69.4019 177.282 69.6035 177.309C69.8412 177.324 70.0785 177.275 70.2918 177.169C70.505 177.063 70.6866 176.903 70.8185 176.705C74.4767 171.687 77.7671 166.407 80.9064 161.048C82.1674 163.169 83.4678 165.271 84.7682 167.352C86.7386 170.538 88.8402 173.664 91.0601 176.705C91.1922 176.901 91.3731 177.059 91.585 177.164C91.797 177.269 92.0325 177.317 92.2685 177.303C92.4353 177.283 92.5963 177.229 92.7414 177.145C93.0123 176.977 93.208 176.712 93.2876 176.403C93.3671 176.095 93.3244 175.768 93.1683 175.49V175.49Z" fill="#FF6B43"/>
<path d="M116.766 126.815C116.639 126.64 116.47 126.499 116.275 126.404C116.08 126.31 115.864 126.265 115.648 126.275C115.431 126.284 115.22 126.346 115.034 126.457C114.847 126.567 114.691 126.722 114.579 126.907C114.476 127.084 114.428 127.288 114.439 127.492C114.451 127.696 114.522 127.893 114.645 128.057C117.981 133.14 120.05 138.913 123.183 144.095C126.089 148.85 129.698 153.137 133.888 156.81C134.052 156.955 134.216 157.112 134.387 157.257C135.583 158.281 137.33 156.547 136.128 155.51C131.989 151.976 128.419 147.827 125.541 143.208C125.416 143.005 125.284 142.814 125.166 142.611C122.112 137.488 120.057 131.807 116.766 126.815Z" fill="#FF6B43"/>
<path d="M123.294 45.2721C122.78 45.739 122.368 46.3062 122.082 46.9388C121.796 47.5714 121.643 48.2559 121.632 48.95C121.495 51.3801 123.307 53.462 124.391 53.5474C125.304 53.5999 127.511 51.7479 127.675 49.3178C127.796 47.9964 127.408 46.6786 126.591 45.6333C126.736 42.1305 126.882 38.6278 127.031 35.125L123.747 35.2761C123.59 38.595 123.439 41.9269 123.294 45.2721Z" fill="#FFCA5F"/>
<path d="M74.2536 40.0337L74.2452 40.0316L74.8166 37.8118L74.8166 37.8117L74.9742 37.1551L74.9743 37.155C76.0771 32.7348 77.1844 28.3123 78.296 23.8877L72.8765 20.5088C72.8764 20.5088 72.8764 20.5088 72.8764 20.5087C72.5677 20.3205 72.3278 20.0377 72.1922 19.7024C72.0567 19.3672 72.0327 18.9972 72.1239 18.6472C72.1239 18.6472 72.1239 18.6472 72.1239 18.6471L72.2486 18.1415L72.2487 18.1411L72.2488 18.1411C72.3533 17.7968 72.5641 17.4945 72.8511 17.2774C73.1381 17.0604 73.4864 16.9399 73.8461 16.9331C73.8461 16.9331 73.8462 16.9331 73.8462 16.9331L87.1455 16.2763L87.1455 16.2763L98.8229 15.7181L98.8233 15.7255L98.8229 15.7181C99.1891 15.7008 99.5619 15.6718 99.9389 15.6424C100.028 15.6355 100.118 15.6285 100.208 15.6216C100.676 15.5859 101.15 15.5539 101.624 15.5473C102.572 15.5342 103.521 15.6228 104.429 15.9879C105.784 16.5332 107.041 17.3539 108.278 18.1613C108.695 18.434 109.111 18.7052 109.527 18.9638L109.522 18.9711L109.527 18.9638L111.425 20.146L111.45 20.1619H111.42H111.125C108.33 20.2767 105.545 20.5618 102.786 21.0155C102.37 21.1346 102.017 21.4119 101.803 21.7881C101.59 22.1643 101.532 22.6093 101.643 23.0276C101.766 23.4408 102.044 23.7905 102.419 24.0035C102.794 24.2166 103.237 24.2766 103.655 24.1709L103.656 24.1708L103.656 24.1708C105.978 23.7887 108.32 23.5409 110.671 23.4285C110.791 23.4228 110.912 23.4168 111.032 23.4109C113.11 23.3086 115.281 23.2018 117.288 23.823L117.288 23.8231L117.544 23.915L117.546 23.9157L117.546 23.9158L121.243 26.2211L127.043 29.8333L129.538 31.3898C129.538 31.3898 129.538 31.3898 129.538 31.3898C129.886 31.5947 130.143 31.9248 130.256 32.3126C130.369 32.6999 130.33 33.1156 130.147 33.475C130.114 33.8729 129.936 34.2448 129.646 34.5198C129.356 34.7951 128.975 34.9538 128.575 34.9655C128.575 34.9655 128.575 34.9655 128.575 34.9655L127.032 35.0443L123.748 35.1954L122.191 35.2739L122.108 35.5765L122.108 35.5765L120.137 42.801L118.167 50.0254L118.159 50.0232L118.167 50.0254L117.793 51.3915L117.793 51.3917C117.691 51.7372 117.482 52.0414 117.196 52.2599C116.91 52.4783 116.562 52.5997 116.202 52.6063C116.202 52.6063 116.202 52.6063 116.202 52.6063L106.291 53.0792L97.5168 53.4995C97.337 53.5079 97.1565 53.5181 96.9756 53.5283C95.7361 53.5981 94.4775 53.6691 93.3292 53.1638L93.3289 53.1637C92.145 52.5884 91.0035 51.9298 89.9129 51.1929C89.9128 51.1929 89.9128 51.1928 89.9127 51.1928L75.0044 41.8997L74.2536 40.0337ZM74.2536 40.0337L74.2452 40.0316C74.1553 40.3832 74.1805 40.7544 74.3171 41.0907C74.4538 41.4269 74.6946 41.7104 75.0043 41.8997L74.2536 40.0337ZM96.4478 31.5555L96.4479 31.5556C96.5746 31.6324 96.6986 31.7092 96.8209 31.7849C97.7445 32.3569 98.5737 32.8704 99.7362 32.8704C100.692 32.8704 101.648 32.8148 102.603 32.7592C102.961 32.7384 103.319 32.7176 103.677 32.6997C103.677 32.6997 103.677 32.6997 103.677 32.6997L120.044 31.9246C120.57 31.8985 120.963 32.0831 121.225 32.3758C121.486 32.6686 121.617 33.0704 121.616 33.4791C121.614 34.2967 121.088 35.139 120.043 35.1913L110.481 35.6444L101.897 36.0516C101.672 36.0629 101.443 36.0775 101.212 36.0924C100.088 36.1644 98.9001 36.2405 97.8342 35.9469C96.5532 35.4891 95.3442 34.8504 94.2441 34.0501L94.2436 34.0498L79.8539 25.0849C78.9622 24.5199 78.9275 23.5305 79.3403 22.8208C79.5467 22.466 79.8647 22.1819 80.2426 22.0563C80.6203 21.9307 81.0585 21.9631 81.5063 22.2426L89.5255 27.2406L96.4478 31.5555Z" fill="#222222" stroke="#212121" stroke-width="0.0172322"/>
<path d="M79.8463 25.0754L94.2361 34.0404C95.3369 34.8411 96.5467 35.4803 97.8286 35.9384C99.1421 36.2931 100.58 36.1092 101.894 36.0435L110.478 35.6363L120.041 35.1831C122.142 35.078 122.155 31.7942 120.041 31.8993L103.674 32.6743C102.36 32.7399 101.047 32.8516 99.7332 32.845C98.4197 32.8385 97.533 32.2277 96.4494 31.5315L89.527 27.2165L81.5079 22.2185C79.7083 21.1151 78.0533 23.9589 79.8463 25.0754Z" fill="#575757"/>
<path d="M102.755 21.032C102.337 21.1517 101.983 21.4305 101.768 21.8088C101.553 22.187 101.495 22.6343 101.606 23.0549C101.73 23.4703 102.01 23.8218 102.387 24.0359C102.764 24.2501 103.209 24.3104 103.629 24.2042C105.95 23.8134 108.292 23.5568 110.643 23.4358C112.83 23.3307 115.136 23.1862 117.257 23.8298L117.513 23.9218C118.905 24.398 120.17 25.1866 121.211 26.2271V26.2271L127.01 29.8393C126.433 27.7682 125.365 25.8667 123.897 24.2959C122.429 22.7251 120.604 21.5312 118.577 20.8153C116.298 20.0075 113.815 20.0337 111.418 20.1191H111.123C108.318 20.2525 105.523 20.5573 102.755 21.032V21.032Z" fill="#FFCA5F"/>
</g>
</g>
<defs>
<clipPath id="clip0_628_13528">
<rect width="134.979" height="176.815" fill="white" transform="translate(13.4297 15.5625)"/>
</clipPath>
</defs>
</svg>
