<svg width="171" height="171" viewBox="0 0 171 171" fill="none" xmlns="http://www.w3.org/2000/svg">
<rect x="0.894531" y="0.382812" width="170" height="170" rx="24" fill="white"/>
<g clip-path="url(#clip0_628_13588)">
<path d="M60.7217 85.4577C60.7217 83.0446 59.3897 80.9215 57.3595 79.6512C59.3897 78.3808 60.7217 76.252 60.7217 73.8447C60.7217 69.9524 57.2607 66.7969 52.991 66.7969C52.9619 66.7969 52.9328 66.8027 52.9037 66.8027C52.8747 66.8027 52.8514 66.7969 52.8281 66.7969H29.9035C26.5878 66.7969 23.8945 69.2448 23.8945 72.2727V98.6368C23.8945 101.659 26.5878 104.113 29.9035 104.113H52.8165C52.8223 104.113 52.8223 104.113 52.8281 104.113C52.8805 104.113 52.9328 104.118 52.9852 104.118C57.2548 104.118 60.7159 100.963 60.7159 97.0706C60.7159 94.6575 59.3838 92.5345 57.3537 91.2641C59.3897 89.9996 60.7217 87.8707 60.7217 85.4577Z" fill="#FF0084"/>
<path d="M129.174 67.1016C126.754 67.1016 124.625 68.4299 123.351 70.4544C122.077 68.4299 119.943 67.1016 117.529 67.1016C113.625 67.1016 110.461 70.553 110.461 74.8107C110.461 74.8397 110.467 74.8687 110.467 74.8977C110.467 74.9267 110.461 74.9499 110.461 74.9731V97.8277C110.461 101.14 112.922 103.82 115.952 103.82H142.396C145.427 103.82 147.887 101.134 147.887 97.8277V74.9789C147.887 74.9731 147.887 74.9731 147.887 74.9673C147.887 74.9151 147.893 74.8629 147.893 74.8107C147.893 70.553 144.729 67.1016 140.825 67.1016C138.406 67.1016 136.277 68.4299 135.003 70.4544C133.729 68.4299 131.594 67.1016 129.174 67.1016Z" fill="#FFD917"/>
<path d="M80.8352 69.1845L65.4843 95.6994C63.3203 99.4351 66.0252 104.11 70.3531 104.11H101.055C105.383 104.11 108.088 99.4409 105.924 95.6994L90.5728 69.1845C88.4089 65.4489 82.9991 65.4489 80.8352 69.1845Z" fill="#0B70FF"/>
<path d="M78.073 93.7869C77.247 93.7869 76.5723 93.1199 76.5723 92.2904V91.02C76.5723 90.1963 77.2412 89.5234 78.073 89.5234C78.899 89.5234 79.5738 90.1905 79.5738 91.02V92.2904C79.5738 93.1199 78.899 93.7869 78.073 93.7869Z" fill="#141719"/>
<path d="M82.9012 93.7869C82.0752 93.7869 81.4004 93.1199 81.4004 92.2904V91.02C81.4004 90.1963 82.0693 89.5234 82.9012 89.5234C83.7272 89.5234 84.4019 90.1905 84.4019 91.02V92.2904C84.4019 93.1199 83.733 93.7869 82.9012 93.7869Z" fill="#141719"/>
<path d="M46.4637 78.7869C45.6377 78.7869 44.9629 78.1199 44.9629 77.2904V76.02C44.9629 75.1963 45.6318 74.5234 46.4637 74.5234C47.2897 74.5234 47.9644 75.1905 47.9644 76.02V77.2904C47.9644 78.1199 47.2897 78.7869 46.4637 78.7869Z" fill="#141719"/>
<path d="M51.2918 78.7869C50.4658 78.7869 49.791 78.1199 49.791 77.2904V76.02C49.791 75.1963 50.46 74.5234 51.2918 74.5234C52.1178 74.5234 52.7926 75.1905 52.7926 76.02V77.2904C52.7926 78.1199 52.1236 78.7869 51.2918 78.7869Z" fill="#141719"/>
<path d="M125.784 86.4588C124.958 86.4588 124.283 85.7917 124.283 84.9622V83.6919C124.283 82.8682 124.952 82.1953 125.784 82.1953C126.61 82.1953 127.285 82.8624 127.285 83.6919V84.9622C127.285 85.7917 126.61 86.4588 125.784 86.4588Z" fill="#141719"/>
<path d="M130.612 86.4588C129.786 86.4588 129.111 85.7917 129.111 84.9622V83.6919C129.111 82.8682 129.78 82.1953 130.612 82.1953C131.438 82.1953 132.113 82.8624 132.113 83.6919V84.9622C132.113 85.7917 131.438 86.4588 130.612 86.4588Z" fill="#141719"/>
</g>
<defs>
<clipPath id="clip0_628_13588">
<rect width="124" height="37.7392" fill="white" transform="translate(23.8945 66.3828)"/>
</clipPath>
</defs>
</svg>
