<svg width="171" height="171" viewBox="0 0 171 171" fill="none" xmlns="http://www.w3.org/2000/svg">
<rect x="0.113281" y="0.515625" width="170" height="170" rx="24" fill="white"/>
<g clip-path="url(#clip0_628_13588)">
<path d="M59.9405 85.5905C59.9405 83.1774 58.6084 81.0543 56.5783 79.784C58.6084 78.5136 59.9405 76.3848 59.9405 73.9775C59.9405 70.0853 56.4794 66.9297 52.2097 66.9297C52.1807 66.9297 52.1516 66.9355 52.1225 66.9355C52.0934 66.9355 52.0701 66.9297 52.0469 66.9297H29.1222C25.8065 66.9297 23.1133 69.3776 23.1133 72.4055V98.7696C23.1133 101.792 25.8065 104.245 29.1222 104.245H52.0352C52.0411 104.245 52.0411 104.245 52.0469 104.245C52.0992 104.245 52.1516 104.251 52.2039 104.251C56.4736 104.251 59.9347 101.096 59.9347 97.2034C59.9347 94.7903 58.6026 92.6673 56.5725 91.3969C58.6084 90.1324 59.9405 88.0036 59.9405 85.5905Z" fill="#FF0084"/>
<path d="M128.393 67.2344C125.973 67.2344 123.844 68.5627 122.57 70.5872C121.296 68.5627 119.161 67.2344 116.747 67.2344C112.844 67.2344 109.68 70.6858 109.68 74.9435C109.68 74.9725 109.686 75.0015 109.686 75.0305C109.686 75.0595 109.68 75.0827 109.68 75.1059V97.9606C109.68 101.273 112.14 103.953 115.171 103.953H141.615C144.645 103.953 147.106 101.267 147.106 97.9606V75.1117C147.106 75.1059 147.106 75.1059 147.106 75.1001C147.106 75.0479 147.112 74.9957 147.112 74.9435C147.112 70.6858 143.947 67.2344 140.044 67.2344C137.624 67.2344 135.495 68.5627 134.221 70.5872C132.948 68.5627 130.813 67.2344 128.393 67.2344Z" fill="#FFD917"/>
<path d="M80.054 69.3174L64.703 95.8323C62.5391 99.5679 65.244 104.243 69.5718 104.243H100.274C104.602 104.243 107.306 99.5737 105.143 95.8323L89.7916 69.3174C87.6277 65.5817 82.2179 65.5817 80.054 69.3174Z" fill="#0B70FF"/>
<path d="M77.2898 93.9198C76.4638 93.9198 75.7891 93.2527 75.7891 92.4232V91.1528C75.7891 90.3291 76.458 89.6562 77.2898 89.6562C78.1158 89.6562 78.7906 90.3233 78.7906 91.1528V92.4232C78.7906 93.2527 78.1158 93.9198 77.2898 93.9198Z" fill="#141719"/>
<path d="M82.118 93.9198C81.292 93.9198 80.6172 93.2527 80.6172 92.4232V91.1528C80.6172 90.3291 81.2861 89.6562 82.118 89.6562C82.944 89.6562 83.6187 90.3233 83.6187 91.1528V92.4232C83.6187 93.2527 82.9498 93.9198 82.118 93.9198Z" fill="#141719"/>
<path d="M45.6805 78.9198C44.8545 78.9198 44.1797 78.2527 44.1797 77.4232V76.1528C44.1797 75.3291 44.8486 74.6562 45.6805 74.6562C46.5065 74.6562 47.1812 75.3233 47.1812 76.1528V77.4232C47.1812 78.2527 46.5065 78.9198 45.6805 78.9198Z" fill="#141719"/>
<path d="M50.5086 78.9198C49.6826 78.9198 49.0078 78.2527 49.0078 77.4232V76.1528C49.0078 75.3291 49.6768 74.6562 50.5086 74.6562C51.3346 74.6562 52.0094 75.3233 52.0094 76.1528V77.4232C52.0094 78.2527 51.3404 78.9198 50.5086 78.9198Z" fill="#141719"/>
<path d="M125.001 86.5916C124.175 86.5916 123.5 85.9245 123.5 85.095V83.8247C123.5 83.001 124.169 82.3281 125.001 82.3281C125.827 82.3281 126.502 82.9952 126.502 83.8247V85.095C126.502 85.9245 125.827 86.5916 125.001 86.5916Z" fill="#141719"/>
<path d="M129.829 86.5916C129.003 86.5916 128.328 85.9245 128.328 85.095V83.8247C128.328 83.001 128.997 82.3281 129.829 82.3281C130.655 82.3281 131.33 82.9952 131.33 83.8247V85.095C131.33 85.9245 130.655 86.5916 129.829 86.5916Z" fill="#141719"/>
</g>
<defs>
<clipPath id="clip0_628_13588">
<rect width="124" height="37.7392" fill="white" transform="translate(23.1133 66.5156)"/>
</clipPath>
</defs>
</svg>
