<svg width="171" height="171" viewBox="0 0 171 171" fill="none" xmlns="http://www.w3.org/2000/svg">
<g clip-path="url(#clip0_628_13604)">
<rect x="0.214844" y="0.117188" width="170" height="170" rx="24" fill="#191919"/>
<rect width="169.904" height="169.904" transform="translate(0.214844 0.117188)" fill="white"/>
<path d="M89.1644 121.04C111.795 121.04 130.141 102.694 130.141 80.0628C130.141 57.4319 111.795 39.0859 89.1644 39.0859C66.5335 39.0859 48.1875 57.4319 48.1875 80.0628C48.1875 102.694 66.5335 121.04 89.1644 121.04Z" fill="#43D7B3"/>
<path d="M47.7264 114.511C37.7732 104.593 32.1835 91.1192 32.1953 77.0717C32.1953 47.8649 55.9587 24.1016 85.1654 24.1016C114.372 24.1016 138.139 47.8649 138.136 77.0717C138.136 106.282 114.372 130.042 85.1654 130.042C71.1179 130.054 57.6439 124.464 47.7264 114.511ZM116.995 45.2421C99.4029 27.6777 70.9042 27.6975 53.3359 45.2856C35.7675 62.8738 35.7873 91.3764 53.3794 108.945C70.9715 126.513 99.4701 126.493 117.038 108.901C125.473 100.455 130.208 89.0067 130.2 77.0717C130.208 65.1287 125.457 53.6722 116.995 45.2421Z" fill="#283237"/>
<path d="M55.1285 62.4482C57.7817 58.7103 58.4575 54.6347 56.6377 53.3452C54.818 52.0558 51.1918 54.0407 48.5386 57.7787C45.8853 61.5166 45.2096 65.5922 47.0293 66.8817C48.8491 68.1711 52.4752 66.1862 55.1285 62.4482Z" fill="#283237"/>
<path d="M64.1329 49.941C66.1414 48.3463 67.141 46.263 66.3654 45.2879C65.5899 44.3127 63.3329 44.8148 61.3243 46.4095C59.3158 48.0042 58.3162 50.0874 59.0918 51.0626C59.8673 52.0378 62.1243 51.5356 64.1329 49.941Z" fill="#283237"/>
<path d="M84.669 89.073C52.8164 89.073 31.78 79.5607 25.4126 73.1673C23.8 71.548 23.8 68.9237 25.4126 67.3044C27.0253 65.6851 29.639 65.6851 31.2517 67.3044C35.633 71.7036 54.453 80.7811 84.669 80.7811C101.277 80.7811 113.836 77.8776 121.443 75.4447C131.326 72.2819 136.553 68.8399 138.086 67.3004C139.699 65.6811 142.313 65.6811 143.925 67.3004C145.538 68.9197 145.538 71.544 143.925 73.1633C140.458 76.6452 132.99 80.4541 123.949 83.3457C115.783 85.958 102.337 89.073 84.669 89.073Z" fill="#283237"/>
<path d="M137.931 146.149H31.7656L36.2209 120.901C36.8941 117.082 40.0939 114.312 43.8245 114.312H125.876C129.607 114.312 132.802 117.086 133.48 120.901L137.931 146.149Z" fill="#283237"/>
<path d="M50.612 133.336C49.915 135.33 48.9131 137.202 47.6418 138.891L44.9727 136.846C46.4181 134.871 47.4557 132.628 48.022 130.25C48.4774 128.449 48.7547 126.609 48.8457 124.754H46.2162V121.545H54.9049V124.754H52.3545C52.5248 126.657 52.8297 128.548 53.2772 130.408C53.7604 132.719 54.6989 134.907 56.0454 136.846L53.396 138.931C52.1604 137.241 51.2139 135.346 50.612 133.336ZM56.3543 140.336V130.432H53.7445V127.223H56.3543V121.003H59.8868V140.332L56.3543 140.336ZM61.0907 140.696V120.805H64.8648V140.696H61.0907Z" fill="white"/>
<path d="M66.6172 139.388V136.02H73.8208V134.256H67.7815V126.275H79.9829V124.751H67.7815V121.281H83.8164V129.381H71.6942V131.047H83.8164V134.256H77.8365V136.02H84.9609V139.388H66.6172Z" fill="white"/>
<path d="M93.3143 140.694V134.981H86.0117V131.934H104.355V134.981H97.0092V140.694H93.3143ZM89.3027 128.681C87.679 127.72 86.875 126.557 86.875 125.211C86.875 123.846 87.679 122.707 89.3027 121.741C90.9263 120.776 92.8946 120.297 95.2034 120.297C97.4924 120.297 99.4566 120.776 101.084 121.741C102.712 122.707 103.512 123.846 103.512 125.211C103.512 126.557 102.708 127.716 101.084 128.681C99.2863 129.671 97.2548 130.161 95.2034 130.106C92.8946 130.106 90.9263 129.623 89.3027 128.681ZM98.1735 126.897C98.9972 126.458 99.3972 125.935 99.3972 125.314C99.3972 124.693 98.9972 124.171 98.1735 123.731C97.2508 123.284 96.2291 123.063 95.2034 123.09C94.1697 123.063 93.1441 123.284 92.2134 123.731C91.3897 124.171 90.9897 124.693 90.9897 125.314C90.9897 125.935 91.3897 126.458 92.2134 126.897C93.1401 127.356 94.1697 127.573 95.2034 127.538C96.2291 127.577 97.2508 127.356 98.1735 126.897Z" fill="#43D7B3"/>
<path d="M117.915 140.695V135.781H113.198V140.695H109.987V135.781H106.375V132.089H124.719V135.781H121.127V140.695H117.915ZM115.729 126.557C114.585 128.203 112.014 129.758 108.022 131.23L106.937 128.041C110.41 126.735 112.478 125.513 113.139 124.373H107.46V121.164H123.535V124.373H118.275C119.04 125.679 120.964 126.941 124.057 128.124L122.992 131.313C119.321 129.924 116.893 128.342 115.729 126.557Z" fill="#43D7B3"/>
</g>
<defs>
<clipPath id="clip0_628_13604">
<rect x="0.214844" y="0.117188" width="170" height="170" rx="24" fill="white"/>
</clipPath>
</defs>
</svg>
