<svg width="1920" height="301" viewBox="0 0 1920 301" fill="none" xmlns="http://www.w3.org/2000/svg">
<g clip-path="url(#clip0_6578_10937)">
<rect width="1920" height="301" fill="black"/>
<g filter="url(#filter0_f_6578_10937)">
<path d="M460.854 411.768L350 -28.4681L1437 -88L1383.94 158.632L1138.59 508.82V814.983L835.446 846L641.583 555.344L460.854 411.768Z" fill="url(#paint0_linear_6578_10937)"/>
</g>
<circle cx="783.48" cy="283.842" r="8.79493" transform="rotate(2.41818 783.48 283.842)" fill="#88BAFF" fill-opacity="0.4"/>
<ellipse cx="959.58" cy="114.246" rx="10.0513" ry="10.6796" transform="rotate(2.41818 959.58 114.246)" fill="#FFE6FF" fill-opacity="0.2"/>
<circle cx="610.468" cy="215.466" r="10.0513" transform="rotate(2.41818 610.468 215.466)" fill="#FFE6FF" fill-opacity="0.1"/>
<circle cx="660.247" cy="15.8108" r="25.1284" transform="rotate(2.41818 660.247 15.8108)" fill="#FFE6FF" fill-opacity="0.1"/>
<circle cx="1270.77" cy="84.772" r="11.305" transform="rotate(2.41818 1270.77 84.772)" fill="#FFE6FF" fill-opacity="0.1"/>
<circle cx="1244.94" cy="131.649" r="8.47117" transform="rotate(2.41818 1244.94 131.649)" fill="#FFE6FF" fill-opacity="0.1"/>
<circle cx="1222.68" cy="4.67581" r="14.0937" transform="rotate(2.41818 1222.68 4.67581)" fill="#FFE6FF" fill-opacity="0.1"/>
<ellipse cx="561.915" cy="151.515" rx="5.65388" ry="6.28209" transform="rotate(2.41818 561.915 151.515)" fill="#FFE6FF" fill-opacity="0.1"/>
<ellipse cx="1031.45" cy="18.9117" rx="5.02567" ry="5.65388" transform="rotate(2.41818 1031.45 18.9117)" fill="#FFE6FF" fill-opacity="0.2"/>
<ellipse cx="1053.36" cy="310.331" rx="9.42314" ry="10.0513" transform="rotate(2.41818 1053.36 310.331)" fill="#88BAFF" fill-opacity="0.4"/>
<circle cx="1064.16" cy="51.1582" r="8.79493" transform="rotate(2.41818 1064.16 51.1582)" fill="#FFE6FF" fill-opacity="0.15"/>
<circle cx="1061.7" cy="-0.895662" r="5.02567" transform="rotate(2.41818 1061.7 -0.895662)" fill="#FFE6FF" fill-opacity="0.2"/>
<rect x="772.98" y="193.828" width="121.824" height="156.894" transform="rotate(-22.0864 772.98 193.828)" fill="#779BCE"/>
<rect x="809.707" y="194.57" width="121.824" height="156.894" transform="rotate(-14.6742 809.707 194.57)" fill="#E4F2FF"/>
<rect x="830.744" y="208.016" width="88.5992" height="9.22908" transform="rotate(-14.6742 830.744 208.016)" fill="#B9D0F1"/>
<rect x="836.355" y="229.441" width="88.5992" height="9.22908" transform="rotate(-14.6742 836.355 229.441)" fill="#B9D0F1"/>
<rect x="841.967" y="250.867" width="88.5992" height="9.22908" transform="rotate(-14.6742 841.967 250.867)" fill="#B9D0F1"/>
<rect x="847.576" y="272.297" width="50.7599" height="9.22908" transform="rotate(-14.6742 847.576 272.297)" fill="#B9D0F1"/>
<path d="M1089.77 277.392C1097.11 261.47 1091.19 246.005 1084.79 238.179C1078.39 230.352 1049.8 195.428 1041.3 185.273C1036.33 179.342 1028.15 177.266 1020.94 180.074L978.455 196.634C972.577 198.287 971.726 199.165 968.628 205.88L957.314 230.399C951.055 243.964 956.976 260.037 970.544 266.298L1039.31 297.883C1064.9 311.852 1074.63 310.193 1088.74 279.618L1089.77 277.392Z" fill="#FFCCE6"/>
<path d="M1025 240.333L1031.33 226.608L1022.78 222.598L1009.45 229.213L995.546 239.797L1025 240.333Z" fill="#F683AD"/>
<path d="M947.024 278.962L921.577 279.754L930.472 255.899L941.552 247.947L958.104 271.01L947.024 278.962Z" fill="#8DC6FF"/>
<path d="M947.025 278.961L930.473 255.898L1060.14 162.834L1076.7 185.897L947.025 278.961Z" fill="#006AFE"/>
<rect x="1073.54" y="188.164" width="28.3878" height="14.7575" transform="rotate(-125.667 1073.54 188.164)" fill="#8DC6FF"/>
<rect x="1068.73" y="191.617" width="28.3878" height="7.39124" transform="rotate(-125.667 1068.73 191.617)" fill="#8DC6FF"/>
<mask id="mask0_6578_10937" style="mask-type:alpha" maskUnits="userSpaceOnUse" x="921" y="247" width="38" height="33">
<path d="M947.024 278.962L921.577 279.754L930.472 255.899L941.552 247.947L958.104 271.01L947.024 278.962Z" fill="white"/>
</mask>
<g mask="url(#mask0_6578_10937)">
<rect x="922.023" y="286.176" width="10.9556" height="10.735" transform="rotate(-125.667 922.023 286.176)" fill="#006AFE"/>
</g>
<path d="M957.344 248.87C957.069 250.648 957.169 252.405 957.552 254.079C958.559 258.51 961.679 262.308 966.131 264.011L1019.6 288.298L1034.14 240.885L999.099 238.768L971.472 237.097C964.468 236.907 958.425 241.949 957.344 248.87Z" fill="#FFCCE6"/>
<rect x="1096.92" y="249.75" width="38.749" height="65.7772" transform="rotate(24.7694 1096.92 249.75)" fill="#FF97FF"/>
<circle cx="986.824" cy="192.493" r="6.94917" transform="rotate(133.467 986.824 192.493)" fill="#FFF5FF"/>
<circle cx="990.484" cy="183.675" r="4.72276" transform="rotate(133.467 990.484 183.675)" fill="#FFF5FF"/>
<circle opacity="0.3" cx="1120" cy="204.999" r="1.41555" transform="rotate(133.467 1120 204.999)" fill="#FFF5FF"/>
<circle cx="1080.93" cy="232.884" r="4.77291" transform="rotate(133.467 1080.93 232.884)" fill="#FFF5FF"/>
<circle opacity="0.3" cx="983.886" cy="138.884" r="4.16319" transform="rotate(133.467 983.886 138.884)" fill="#FFDDFF"/>
<circle opacity="0.5" cx="1122.24" cy="243.243" r="2.29463" transform="rotate(133.467 1122.24 243.243)" fill="#FFF5FF"/>
<circle opacity="0.7" cx="982.157" cy="171.155" r="2.2323" transform="rotate(133.467 982.157 171.155)" fill="#FFDDFF"/>
<circle cx="1128.51" cy="274.51" r="5.31151" transform="rotate(133.467 1128.51 274.51)" fill="#FFDDFF"/>
<circle cx="1130.65" cy="266.647" r="3.99547" transform="rotate(133.467 1130.65 266.647)" fill="#FFDDFF"/>
<circle cx="788.249" cy="187.395" r="7.95683" transform="rotate(133.467 788.249 187.395)" fill="#D4E6FF"/>
<circle cx="794.175" cy="248.177" r="4.36874" transform="rotate(133.467 794.175 248.177)" fill="#D4E6FF"/>
<circle cx="799.088" cy="182.967" r="6.34384" transform="rotate(133.467 799.088 182.967)" fill="#D4E6FF"/>
<circle opacity="0.7" cx="805.488" cy="147.487" r="3.8822" transform="rotate(133.467 805.488 147.487)" fill="#C7DEFF"/>
<circle opacity="0.3" cx="787.436" cy="128.436" r="2.43111" transform="rotate(133.467 787.436 128.436)" fill="#C7DEFF"/>
</g>
<g clip-path="url(#clip1_6578_10937)">
<path d="M842.869 49.4375H860.817C876.308 49.4375 884.062 55.2445 884.062 67.7884C884.062 74.5252 880.939 79.3322 875.817 81.5954C883.483 83.6129 887.939 89.9287 887.939 97.8585C887.939 111.42 879.185 118.736 860.238 118.736H842.869V49.4375ZM861.062 77.9814C868.887 77.9814 873.185 75.455 873.185 68.8936C873.185 61.8235 869.062 59.3849 861.062 59.3849H853.817V77.9989H861.062V77.9814ZM859.974 108.122C871.097 108.122 876.22 105.595 876.22 97.7533C876.22 90.3498 871.167 87.227 861.062 87.227H853.817V108.122H859.957H859.974Z" fill="white"/>
<path d="M895.676 49.3516H907.22V107.72H930.378V118.755H895.676V49.3516Z" fill="white"/>
<path d="M964.308 120C943.344 120 928.256 103.246 928.256 83.9474C928.256 64.6491 943.344 48 964.308 48C985.273 48 1000.27 64.7544 1000.27 83.9649C1000.27 103.175 985.203 120.018 964.308 120.018V120ZM964.308 108.474C978.203 108.474 988.73 97.4386 988.73 83.9649C988.73 70.4912 978.203 59.5439 964.308 59.5439C950.414 59.5439 939.8 70.4912 939.8 83.9649C939.8 97.4386 950.326 108.474 964.308 108.474Z" fill="white"/>
<path d="M1005.31 83.9649C1005.31 64.7719 1020.38 48 1041.36 48C1058.62 48 1072.01 59.614 1075.89 74.4386H1062.66C1059.8 65.7719 1051.38 59.5263 1041.34 59.5263C1026.94 59.5263 1016.68 70.5614 1016.68 84.1228C1016.68 97.6842 1026.87 108.719 1041.27 108.719C1051.71 108.719 1060.73 101.982 1063.5 92.5439H1036.8V82.3509H1077.06C1078.24 102.316 1062.66 120 1041.36 120C1020.06 120 1005.31 103.246 1005.31 83.9474V83.9649Z" fill="white"/>
</g>
<defs>
<filter id="filter0_f_6578_10937" x="144.6" y="-293.4" width="1497.8" height="1344.8" filterUnits="userSpaceOnUse" color-interpolation-filters="sRGB">
<feFlood flood-opacity="0" result="BackgroundImageFix"/>
<feBlend mode="normal" in="SourceGraphic" in2="BackgroundImageFix" result="shape"/>
<feGaussianBlur stdDeviation="102.7" result="effect1_foregroundBlur_6578_10937"/>
</filter>
<linearGradient id="paint0_linear_6578_10937" x1="893.5" y1="7" x2="893.5" y2="846" gradientUnits="userSpaceOnUse">
<stop stop-color="#1A1D3F" stop-opacity="0.55"/>
<stop offset="1" stop-color="#2D336E"/>
</linearGradient>
<clipPath id="clip0_6578_10937">
<rect width="1920" height="301" fill="white"/>
</clipPath>
<clipPath id="clip1_6578_10937">
<rect width="234.263" height="72" fill="white" transform="translate(842.869 48)"/>
</clipPath>
</defs>
</svg>
