<svg width="1920" height="301" viewBox="0 0 1920 301" fill="none" xmlns="http://www.w3.org/2000/svg">
<g clip-path="url(#clip0_1116_5927)">
<rect width="1920" height="301" fill="black"/>
<g filter="url(#filter0_f_1116_5927)">
<path d="M460.854 411.768L350 -28.4681L1437 -88L1383.94 158.632L1138.59 508.82V814.983L835.446 846L641.583 555.344L460.854 411.768Z" fill="url(#paint0_linear_1116_5927)"/>
</g>
<circle cx="783.48" cy="283.844" r="8.79493" transform="rotate(2.41818 783.48 283.844)" fill="#88BAFF" fill-opacity="0.4"/>
<ellipse cx="959.58" cy="114.247" rx="10.0513" ry="10.6796" transform="rotate(2.41818 959.58 114.247)" fill="#FFE6FF" fill-opacity="0.2"/>
<ellipse cx="1284.92" cy="67.9728" rx="9.42314" ry="10.6796" transform="rotate(2.41818 1284.92 67.9728)" fill="#88BAFF" fill-opacity="0.2"/>
<ellipse cx="1245.59" cy="105.924" rx="14.4488" ry="15.077" transform="rotate(2.41818 1245.59 105.924)" fill="#88BAFF" fill-opacity="0.1"/>
<circle cx="672.556" cy="260.292" r="10.0513" transform="rotate(2.41818 672.556 260.292)" fill="#FFE6FF" fill-opacity="0.1"/>
<circle cx="660.246" cy="15.8125" r="25.1284" transform="rotate(2.41818 660.246 15.8125)" fill="#FFE6FF" fill-opacity="0.1"/>
<ellipse cx="652.925" cy="204.135" rx="5.65388" ry="6.28209" transform="rotate(2.41818 652.925 204.135)" fill="#FFE6FF" fill-opacity="0.1"/>
<ellipse cx="1031.45" cy="18.9148" rx="5.02567" ry="5.65388" transform="rotate(2.41818 1031.45 18.9148)" fill="#FFE6FF" fill-opacity="0.2"/>
<ellipse cx="1053.36" cy="310.334" rx="9.42314" ry="10.0513" transform="rotate(2.41818 1053.36 310.334)" fill="#88BAFF" fill-opacity="0.4"/>
<circle cx="1046.04" cy="35.4597" r="8.79493" transform="rotate(2.41818 1046.04 35.4597)" fill="#FFE6FF" fill-opacity="0.2"/>
<ellipse cx="1276.5" cy="29.2586" rx="5.65388" ry="6.28209" transform="rotate(2.41818 1276.5 29.2586)" fill="#88BAFF" fill-opacity="0.1"/>
<circle cx="1061.7" cy="-0.89493" r="5.02567" transform="rotate(2.41818 1061.7 -0.89493)" fill="#FFE6FF" fill-opacity="0.2"/>
<path d="M923.192 242.4L895.894 244.548L904.233 218.467L915.732 209.357L934.691 233.291L923.192 242.4Z" fill="white"/>
<rect x="923.194" y="242.399" width="30.5326" height="118.882" transform="rotate(-128.385 923.194 242.399)" fill="#006AFE"/>
<rect x="1016.38" y="168.578" width="30.5326" height="15.8724" transform="rotate(-128.385 1016.38 168.578)" fill="#FF97FF"/>
<rect x="1011.39" y="172.534" width="30.5326" height="7.94966" transform="rotate(-128.385 1011.39 172.534)" fill="white"/>
<mask id="mask0_1116_5927" style="mask-type:alpha" maskUnits="userSpaceOnUse" x="895" y="209" width="40" height="36">
<path d="M923.192 242.4L895.894 244.548L904.233 218.467L915.732 209.358L934.691 233.291L923.192 242.4Z" fill="white"/>
</mask>
<g mask="url(#mask0_1116_5927)">
<rect x="896.702" y="251.425" width="11.7833" height="11.546" transform="rotate(-128.385 896.702 251.425)" fill="#9A9A9A"/>
</g>
<circle cx="907.115" cy="213.11" r="6.47379" transform="rotate(120.226 907.115 213.11)" fill="#88BAFF"/>
<circle cx="914.876" cy="207.586" r="5.16144" transform="rotate(120.226 914.876 207.586)" fill="#88BAFF"/>
<circle cx="4.8651" cy="4.8651" r="4.8651" transform="matrix(0.999959 0.00902067 0.00902067 -0.999959 987.371 119.304)" fill="#88BAFF" fill-opacity="0.7"/>
<circle cx="1006.83" cy="133.608" r="8.36198" transform="rotate(85.5672 1006.83 133.608)" fill="#88BAFF"/>
<circle cx="891.587" cy="219.46" r="5.70906" transform="rotate(179.483 891.587 219.46)" fill="#88BAFF"/>
<circle cx="894.344" cy="212.385" r="3.23803" transform="rotate(179.483 894.344 212.385)" fill="#88BAFF"/>
<circle cx="913.028" cy="201.457" r="3.23803" transform="rotate(179.483 913.028 201.457)" fill="#88BAFF"/>
<ellipse cx="889.416" cy="199.524" rx="1.5299" ry="1.52081" transform="rotate(179.483 889.416 199.524)" fill="#88BAFF" fill-opacity="0.3"/>
<circle cx="957.996" cy="256.831" r="3.20202" transform="rotate(179.483 957.996 256.831)" fill="#88BAFF"/>
<circle cx="961.641" cy="254.563" r="2.2083" transform="rotate(179.483 961.641 254.563)" fill="#88BAFF"/>
<circle cx="951.7" cy="228.758" r="2.08874" transform="rotate(179.483 951.7 228.758)" fill="#88BAFF" fill-opacity="0.5"/>
<circle cx="1027.8" cy="144.565" r="1.52852" transform="rotate(179.483 1027.8 144.565)" fill="#88BAFF" fill-opacity="0.5"/>
<circle cx="1002.57" cy="123.93" r="4.85535" transform="rotate(85.5672 1002.57 123.93)" fill="#88BAFF"/>
<circle cx="947.842" cy="182.762" r="1.88819" transform="rotate(123.498 947.842 182.762)" fill="#88BAFF"/>
<circle cx="949.398" cy="177.59" r="1.14832" transform="rotate(123.498 949.398 177.59)" fill="#88BAFF"/>
<circle cx="2.15793" cy="2.15793" r="2.15793" transform="matrix(0.999959 0.00902067 0.00902067 -0.999959 985.996 105.482)" fill="#88BAFF" fill-opacity="0.7"/>
</g>
<g clip-path="url(#clip1_1116_5927)">
<path d="M842.868 49.4386H860.816C876.307 49.4386 884.061 55.2456 884.061 67.7895C884.061 74.5263 880.938 79.3333 875.816 81.5965C883.482 83.614 887.938 89.9298 887.938 97.8596C887.938 111.421 879.184 118.737 860.237 118.737H842.868V49.4386ZM861.061 77.9825C868.886 77.9825 873.184 75.4561 873.184 68.8947C873.184 61.8246 869.061 59.386 861.061 59.386H853.816V78H861.061V77.9825ZM859.973 108.123C871.096 108.123 876.219 105.596 876.219 97.7544C876.219 90.3509 871.166 87.2281 861.061 87.2281H853.816V108.123H859.956H859.973Z" fill="white"/>
<path d="M895.675 49.3508H907.219V107.719H930.377V118.754H895.675V49.3508Z" fill="white"/>
<path d="M964.307 120C943.342 120 928.254 103.246 928.254 83.9474C928.254 64.6491 943.342 48 964.307 48C985.271 48 1000.27 64.7544 1000.27 83.9649C1000.27 103.175 985.201 120.018 964.307 120.018V120ZM964.307 108.474C978.201 108.474 988.728 97.4386 988.728 83.9649C988.728 70.4912 978.201 59.5439 964.307 59.5439C950.412 59.5439 939.798 70.4912 939.798 83.9649C939.798 97.4386 950.324 108.474 964.307 108.474Z" fill="white"/>
<path d="M1005.31 83.9649C1005.31 64.7719 1020.38 48 1041.36 48C1058.62 48 1072.01 59.614 1075.89 74.4386H1062.66C1059.8 65.7719 1051.38 59.5263 1041.34 59.5263C1026.94 59.5263 1016.68 70.5614 1016.68 84.1228C1016.68 97.6842 1026.87 108.719 1041.27 108.719C1051.71 108.719 1060.73 101.982 1063.5 92.5439H1036.8V82.3509H1077.06C1078.24 102.316 1062.66 120 1041.36 120C1020.06 120 1005.31 103.246 1005.31 83.9474V83.9649Z" fill="white"/>
</g>
<defs>
<filter id="filter0_f_1116_5927" x="144.6" y="-293.4" width="1497.8" height="1344.8" filterUnits="userSpaceOnUse" color-interpolation-filters="sRGB">
<feFlood flood-opacity="0" result="BackgroundImageFix"/>
<feBlend mode="normal" in="SourceGraphic" in2="BackgroundImageFix" result="shape"/>
<feGaussianBlur stdDeviation="102.7" result="effect1_foregroundBlur_1116_5927"/>
</filter>
<linearGradient id="paint0_linear_1116_5927" x1="893.5" y1="7" x2="893.5" y2="846" gradientUnits="userSpaceOnUse">
<stop stop-color="#1A1D3F" stop-opacity="0.55"/>
<stop offset="1" stop-color="#2D336E"/>
</linearGradient>
<clipPath id="clip0_1116_5927">
<rect width="1920" height="301" fill="white"/>
</clipPath>
<clipPath id="clip1_1116_5927">
<rect width="234.263" height="72" fill="white" transform="translate(842.868 48)"/>
</clipPath>
</defs>
</svg>
