<svg width="360" height="180" viewBox="0 0 360 180" fill="none" xmlns="http://www.w3.org/2000/svg">
<g clip-path="url(#clip0_1094_5499)">
<rect width="360" height="180" fill="black"/>
<g filter="url(#filter0_f_1094_5499)">
<path d="M-116.485 235.366L-182 -24.8163L460.424 -60L429.064 85.7611L284.06 292.724V473.669L104.902 492L-9.67264 320.221L-116.485 235.366Z" fill="url(#paint0_linear_1094_5499)"/>
</g>
<ellipse cx="178.265" cy="119.529" rx="5.94041" ry="6.31168" transform="rotate(2.41818 178.265 119.529)" fill="#FFE6FF" fill-opacity="0.2"/>
<ellipse cx="347.302" cy="114.61" rx="8.53934" ry="8.91061" transform="rotate(2.41818 347.302 114.61)" fill="#88BAFF" fill-opacity="0.1"/>
<circle cx="1.35768" cy="61.3538" r="14.851" transform="rotate(2.41818 1.35768 61.3538)" fill="#FFE6FF" fill-opacity="0.1"/>
<ellipse cx="-2.96951" cy="172.654" rx="3.34148" ry="3.71276" transform="rotate(2.41818 -2.96951 172.654)" fill="#FFE6FF" fill-opacity="0.1"/>
<ellipse cx="220.743" cy="63.1875" rx="2.97021" ry="3.34148" transform="rotate(2.41818 220.743 63.1875)" fill="#FFE6FF" fill-opacity="0.2"/>
<circle cx="229.362" cy="72.9655" r="5.19786" transform="rotate(2.41818 229.362 72.9655)" fill="#FFE6FF" fill-opacity="0.2"/>
<circle cx="238.619" cy="51.4797" r="2.97021" transform="rotate(2.41818 238.619 51.4797)" fill="#FFE6FF" fill-opacity="0.2"/>
<path d="M156.846 154.887L138.844 156.303L144.343 139.104L151.926 133.096L164.429 148.88L156.846 154.887Z" fill="white"/>
<rect x="156.848" y="154.886" width="20.1354" height="78.3995" transform="rotate(-128.385 156.848 154.886)" fill="#006AFE"/>
<rect x="218.301" y="106.204" width="20.1354" height="10.4674" transform="rotate(-128.385 218.301 106.204)" fill="#FF97FF"/>
<rect x="215.009" y="108.812" width="20.1354" height="5.24257" transform="rotate(-128.385 215.009 108.812)" fill="white"/>
<mask id="mask0_1094_5499" style="mask-type:alpha" maskUnits="userSpaceOnUse" x="138" y="133" width="27" height="24">
<path d="M156.846 154.887L138.844 156.304L144.343 139.104L151.926 133.097L164.429 148.88L156.846 154.887Z" fill="white"/>
</mask>
<g mask="url(#mask0_1094_5499)">
<rect x="139.377" y="160.839" width="7.77073" height="7.61427" transform="rotate(-128.385 139.377 160.839)" fill="#9A9A9A"/>
</g>
<circle cx="146.244" cy="135.571" r="4.26928" transform="rotate(120.226 146.244 135.571)" fill="#88BAFF"/>
<circle cx="151.362" cy="131.928" r="3.40382" transform="rotate(120.226 151.362 131.928)" fill="#88BAFF"/>
<circle cx="3.20839" cy="3.20839" r="3.20839" transform="matrix(0.999959 0.00902067 0.00902067 -0.999959 199.171 73.7087)" fill="#88BAFF" fill-opacity="0.7"/>
<circle cx="212.005" cy="83.1416" r="5.51449" transform="rotate(85.5672 212.005 83.1416)" fill="#88BAFF"/>
<circle cx="136.004" cy="139.759" r="3.76496" transform="rotate(179.483 136.004 139.759)" fill="#88BAFF"/>
<circle cx="137.822" cy="135.093" r="2.13539" transform="rotate(179.483 137.822 135.093)" fill="#88BAFF"/>
<circle cx="150.143" cy="127.886" r="2.13539" transform="rotate(179.483 150.143 127.886)" fill="#88BAFF"/>
<ellipse cx="134.572" cy="126.611" rx="1.00893" ry="1.00293" transform="rotate(179.483 134.572 126.611)" fill="#88BAFF" fill-opacity="0.3"/>
<circle cx="179.798" cy="164.404" r="2.11164" transform="rotate(179.483 179.798 164.404)" fill="#88BAFF"/>
<circle cx="182.202" cy="162.908" r="1.45631" transform="rotate(179.483 182.202 162.908)" fill="#88BAFF"/>
<circle cx="175.646" cy="145.891" r="1.37747" transform="rotate(179.483 175.646 145.891)" fill="#88BAFF" fill-opacity="0.5"/>
<circle cx="225.832" cy="90.3677" r="1.00801" transform="rotate(179.483 225.832 90.3677)" fill="#88BAFF" fill-opacity="0.5"/>
<circle cx="209.191" cy="76.7593" r="3.20196" transform="rotate(85.5672 209.191 76.7593)" fill="#88BAFF"/>
<circle cx="173.103" cy="115.558" r="1.24521" transform="rotate(123.498 173.103 115.558)" fill="#88BAFF"/>
<circle cx="174.129" cy="112.146" r="0.756894" transform="rotate(123.498 174.129 112.146)" fill="#88BAFF"/>
<circle cx="1.42309" cy="1.42309" r="1.42309" transform="matrix(0.999959 0.00902067 0.00902067 -0.999959 198.264 64.594)" fill="#88BAFF" fill-opacity="0.7"/>
</g>
<g clip-path="url(#clip1_1094_5499)">
<path d="M122.5 32.6993H131.31C138.915 32.6993 142.722 35.5222 142.722 41.6199C142.722 44.8948 141.189 47.2315 138.674 48.3316C142.437 49.3124 144.625 52.3826 144.625 56.2374C144.625 62.8297 140.327 66.386 131.026 66.386H122.5V32.6993ZM131.431 46.5748C135.272 46.5748 137.382 45.3468 137.382 42.1572C137.382 38.7203 135.358 37.5349 131.431 37.5349H127.874V46.5834H131.431V46.5748ZM130.897 61.2264C136.357 61.2264 138.872 59.9983 138.872 56.1862C138.872 52.5873 136.392 51.0692 131.431 51.0692H127.874V61.2264H130.888H130.897Z" fill="white"/>
<path d="M148.423 32.6566H154.09V61.0302H165.458V66.3944H148.423V32.6566Z" fill="white"/>
<path d="M182.114 67C171.823 67 164.416 58.8555 164.416 49.4744C164.416 40.0933 171.823 32 182.114 32C192.406 32 199.77 40.1445 199.77 49.4829C199.77 58.8214 192.372 67.0085 182.114 67.0085V67ZM182.114 61.3969C188.935 61.3969 194.103 56.0326 194.103 49.4829C194.103 42.9332 188.935 37.6116 182.114 37.6116C175.293 37.6116 170.083 42.9332 170.083 49.4829C170.083 56.0326 175.25 61.3969 182.114 61.3969Z" fill="white"/>
<path d="M202.241 49.4829C202.241 40.153 209.639 32 219.939 32C228.414 32 234.985 37.6457 236.888 44.8521H230.395C228.991 40.6391 224.857 37.6031 219.931 37.6031C212.86 37.6031 207.822 42.9673 207.822 49.5597C207.822 56.152 212.826 61.5163 219.896 61.5163C225.021 61.5163 229.447 58.2415 230.808 53.6533H217.7V48.6983H237.466C238.043 58.4035 230.395 67 219.939 67C209.484 67 202.241 58.8555 202.241 49.4744V49.4829Z" fill="white"/>
</g>
<defs>
<filter id="filter0_f_1094_5499" x="-387.4" y="-265.4" width="1053.22" height="962.8" filterUnits="userSpaceOnUse" color-interpolation-filters="sRGB">
<feFlood flood-opacity="0" result="BackgroundImageFix"/>
<feBlend mode="normal" in="SourceGraphic" in2="BackgroundImageFix" result="shape"/>
<feGaussianBlur stdDeviation="102.7" result="effect1_foregroundBlur_1094_5499"/>
</filter>
<linearGradient id="paint0_linear_1094_5499" x1="139.212" y1="-3.85439" x2="139.212" y2="492" gradientUnits="userSpaceOnUse">
<stop stop-color="#1A1D3F" stop-opacity="0.55"/>
<stop offset="1" stop-color="#2D336E"/>
</linearGradient>
<clipPath id="clip0_1094_5499">
<rect width="360" height="180" fill="white"/>
</clipPath>
<clipPath id="clip1_1094_5499">
<rect width="115" height="35" fill="white" transform="translate(122.5 32)"/>
</clipPath>
</defs>
</svg>
