<svg width="112" height="25" viewBox="0 0 112 25" fill="none" xmlns="http://www.w3.org/2000/svg">
<path d="M104.532 24.1654V4.16536H100.715V0.832031H111.999V4.16536H108.182V24.1654H104.532Z" fill="white"/>
<path d="M90.2852 24.1654V0.832031H100.242V4.16536H93.9359V10.332H98.9474V13.6654H93.9359V20.832H100.242V24.1654H90.2852Z" fill="white"/>
<path d="M78.8906 24.1654V0.832031H88.8472V4.16536H82.5414V10.332H87.5528V13.6654H82.5414V20.832H88.8472V24.1654H78.8906Z" fill="white"/>
<path d="M61.6992 24.1654V0.832031H66.9098L69.233 17.532H69.2994L71.6226 0.832031H76.8332V24.1654H73.3816V6.4987H73.3152L70.6601 24.1654H67.6068L64.9517 6.4987H64.8853V24.1654H61.6992Z" fill="white"/>
<path d="M54.3511 24.5C50.7667 24.5 48.8086 22.3667 48.8086 18.6333V6.36667C48.8086 2.63333 50.7667 0.5 54.3511 0.5C57.9354 0.5 59.8936 2.63333 59.8936 6.36667V18.6333C59.8936 22.3667 57.9354 24.5 54.3511 24.5ZM54.3511 21.1667C55.5127 21.1667 56.2428 20.5333 56.2428 18.8667V6.13333C56.2428 4.46667 55.5127 3.83333 54.3511 3.83333C53.1895 3.83333 52.4593 4.46667 52.4593 6.13333V18.8667C52.4593 20.5333 53.1895 21.1667 54.3511 21.1667Z" fill="white"/>
<path d="M36.3516 24.1654V0.832031H41.7613C45.5448 0.832031 47.171 2.5987 47.171 6.1987V7.63203C47.171 10.032 46.4077 11.5654 44.7815 12.232V12.2987C46.6068 12.8654 47.2042 14.5987 47.2042 17.232V21.332C47.2042 22.4654 47.2374 23.2987 47.6025 24.1654H43.8854C43.6862 23.5654 43.5535 23.1987 43.5535 21.2987V17.032C43.5535 14.8654 42.9229 14.1654 41.2635 14.1654H40.0023V24.1654H36.3516ZM40.0023 10.832H41.3298C42.6906 10.832 43.5203 10.232 43.5203 8.36536V6.56537C43.5203 4.8987 42.9561 4.16536 41.6617 4.16536H40.0023V10.832Z" fill="white"/>
<path d="M24.2109 24.1654V0.832031H29.5875C33.2382 0.832031 35.0304 2.86536 35.0304 6.5987V8.8987C35.0304 12.632 33.2382 14.6654 29.5875 14.6654H27.8617V24.1654H24.2109ZM27.8617 11.332H29.5875C30.7491 11.332 31.3797 10.7987 31.3797 9.13203V6.36536C31.3797 4.6987 30.7491 4.16536 29.5875 4.16536H27.8617V11.332Z" fill="white"/>
<path d="M12.8164 24.1654V0.832031H22.773V4.16536H16.4671V10.332H21.4786V13.6654H16.4671V20.832H22.773V24.1654H12.8164Z" fill="white"/>
<path d="M0 24.1654V0.832031H5.57568C9.22642 0.832031 11.0186 2.86536 11.0186 6.5987V18.3987C11.0186 22.132 9.22642 24.1654 5.57568 24.1654H0ZM3.65074 20.832H5.5093C6.6709 20.832 7.36786 20.232 7.36786 18.5654V6.43203C7.36786 4.76537 6.6709 4.16536 5.5093 4.16536H3.65074V20.832Z" fill="white"/>
</svg>
