<svg width="92" height="92" viewBox="0 0 92 92" fill="none" xmlns="http://www.w3.org/2000/svg">
<rect x="6" y="39.7192" width="80" height="48.0834" fill="#006AFE"/>
<path d="M45.8809 15.834L86 39.7193H6L45.8809 15.834Z" fill="#006AFE"/>
<rect x="8.91016" y="10.8137" width="65.5485" height="65.5485" transform="rotate(-3.23699 8.91016 10.8137)" fill="#E1E1E1"/>
<path d="M14.6659 12.717H73.9006L76.4074 15.7744L79.5896 18.3927V78.2656H14.041L14.6659 12.717Z" fill="white"/>
<path d="M73.8984 18.4069V12.717L79.5883 18.4069H73.8984Z" fill="#D9D9D9"/>
<path d="M22.0801 21.9241H23.3672C25.9415 21.9241 27.0718 23.4666 27.0718 25.3143C27.0718 27.162 25.9415 28.7293 23.3672 28.7293H22.0801V21.9241ZM23.491 27.591C25.1494 27.591 25.9332 26.6011 25.9332 25.3143C25.9332 24.0275 25.1494 23.0542 23.491 23.0542H23.2104V27.591H23.491Z" fill="black"/>
<path d="M27.8301 21.9409H31.5512V23.0133H28.9604V24.7537H31.3367V25.7518H28.9604V27.6491H31.5512V28.7296H27.8301V21.9409Z" fill="black"/>
<path d="M32.3359 21.9326H33.8376C35.9745 21.9326 36.7584 23.1782 36.7584 24.531C36.7584 25.8838 35.9415 27.1293 33.9613 27.1293H33.4663V28.7378H32.3359V21.9326ZM34.0109 26.0322C35.0835 26.0322 35.6528 25.4218 35.6528 24.531C35.6528 23.6401 35.067 23.0379 34.0109 23.0379H33.4663V26.0322H34.0109Z" fill="black"/>
<path d="M37.4512 21.9326H38.9528C41.0898 21.9326 41.8736 23.1782 41.8736 24.531C41.8736 25.3888 41.5436 26.2055 40.801 26.6839L41.9396 28.7296H40.5865L39.7944 27.0716C39.5799 27.1046 39.3489 27.1293 39.0931 27.1293H38.5815V28.7378H37.4512V21.9326ZM39.1261 26.0322C40.1987 26.0322 40.768 25.4218 40.768 24.531C40.768 23.6401 40.1822 23.0379 39.1261 23.0379H38.5815V26.0322H39.1261Z" fill="black"/>
<path d="M45.9161 28.853C43.8617 28.853 42.3848 27.2115 42.3848 25.3225C42.3848 23.4335 43.8617 21.8003 45.9161 21.8003C47.9706 21.8003 49.4392 23.4418 49.4392 25.3225C49.4392 27.2032 47.9623 28.853 45.9161 28.853ZM45.9161 27.7229C47.2775 27.7229 48.3089 26.6423 48.3089 25.3225C48.3089 24.0027 47.2775 22.9304 45.9161 22.9304C44.5547 22.9304 43.5151 24.0027 43.5151 25.3225C43.5151 26.6423 44.5465 27.7229 45.9161 27.7229Z" fill="black"/>
<path d="M50.1992 21.9409H51.6514L54.0441 27.4098L56.4038 21.9409H57.8477V28.7296H56.7174V23.7969L54.5556 28.7296H53.516L51.3296 23.7721V28.7296H50.1992V21.9409Z" fill="black"/>
<path d="M58.8711 21.9409H62.5922V23.0133H60.0015V24.7537H62.3777V25.7518H60.0015V27.6491H62.5922V28.7296H58.8711V21.9409Z" fill="black"/>
<path d="M63.375 21.9409H67.0961V23.0133H64.5054V24.7537H66.8816V25.7518H64.5054V27.6491H67.0961V28.7296H63.375V21.9409Z" fill="black"/>
<path d="M68.9363 23.0047H67.4512V21.9241H71.5518V23.0047H70.0667V28.7293H68.9363V23.0047Z" fill="black"/>
<path d="M66.0495 35.6694H25.7969V36.5309H66.0495V35.6694Z" fill="#EEEEEE"/>
<path d="M66.0495 37.9883H25.7969V38.8497H66.0495V37.9883Z" fill="#EEEEEE"/>
<path d="M66.0495 40.3069H25.7969V41.1683H66.0495V40.3069Z" fill="#EEEEEE"/>
<path d="M66.0495 42.6257H25.7969V43.4872H66.0495V42.6257Z" fill="#EEEEEE"/>
<rect x="20.6699" y="31.2454" width="50.6593" height="0.556696" fill="black"/>
<path fill-rule="evenodd" clip-rule="evenodd" d="M59.6722 7.93518C59.5887 6.45937 60.7173 5.19527 62.1931 5.11172C63.6689 5.02818 64.933 6.15683 65.0166 7.63264L65.4309 14.9517L65.4309 14.9517C65.49 15.9963 64.8228 16.7547 64.0959 16.7958C63.369 16.837 62.6204 16.1587 62.5613 15.1141L62.232 9.29723L61.3231 9.34868L61.6524 15.1656C61.7319 16.5702 62.7874 17.7818 64.1473 17.7048C65.4989 17.6283 66.408 16.3212 66.3412 14.9263L66.3413 14.9263L65.9255 7.58119C65.8135 5.60339 64.1195 4.09083 62.1417 4.20279C60.1639 4.31476 58.6513 6.00884 58.7633 7.98664L59.6722 7.93518Z" fill="#868686"/>
<rect x="20.3379" y="48.8357" width="33.798" height="20.7112" fill="#EEEEEE"/>
<rect x="56.2988" y="48.8357" width="15.0213" height="20.7112" fill="#EEEEEE"/>
<path d="M6 87.7788L40.2532 68.9121L6 39.7561V87.7788Z" fill="#4C97FF"/>
<path d="M86 87.7788L51.7468 68.9121L86 39.7561V87.7788Z" fill="#4C97FF"/>
<path d="M40.2508 68.8643H51.7492L86 87.7547H6L40.2508 68.8643Z" fill="#006AFE"/>
</svg>
