<svg width="20" height="21" viewBox="0 0 20 21" fill="none" xmlns="http://www.w3.org/2000/svg">
<path d="M6.25 10.5H6.25833M10 10.5H10.0083M13.75 10.5H13.7583M10 18C14.1421 18 17.5 14.6421 17.5 10.5C17.5 6.35786 14.1421 3 10 3C5.85786 3 2.5 6.35786 2.5 10.5C2.5 11.4976 2.69478 12.4497 3.04839 13.3204C3.11606 13.4871 3.1499 13.5704 3.165 13.6377C3.17976 13.7036 3.18516 13.7524 3.18517 13.8199C3.18518 13.8889 3.17265 13.9641 3.14759 14.1145L2.65344 17.0794C2.60169 17.3898 2.57582 17.5451 2.62397 17.6573C2.66611 17.7556 2.7444 17.8339 2.84265 17.876C2.95491 17.9242 3.11015 17.8983 3.42063 17.8466L6.38554 17.3524C6.53591 17.3273 6.61109 17.3148 6.68011 17.3148C6.74763 17.3148 6.79638 17.3202 6.86227 17.335C6.92962 17.3501 7.01294 17.3839 7.17958 17.4516C8.05025 17.8052 9.00238 18 10 18ZM6.66667 10.5C6.66667 10.7301 6.48012 10.9167 6.25 10.9167C6.01988 10.9167 5.83333 10.7301 5.83333 10.5C5.83333 10.2699 6.01988 10.0833 6.25 10.0833C6.48012 10.0833 6.66667 10.2699 6.66667 10.5ZM10.4167 10.5C10.4167 10.7301 10.2301 10.9167 10 10.9167C9.76988 10.9167 9.58333 10.7301 9.58333 10.5C9.58333 10.2699 9.76988 10.0833 10 10.0833C10.2301 10.0833 10.4167 10.2699 10.4167 10.5ZM14.1667 10.5C14.1667 10.7301 13.9801 10.9167 13.75 10.9167C13.5199 10.9167 13.3333 10.7301 13.3333 10.5C13.3333 10.2699 13.5199 10.0833 13.75 10.0833C13.9801 10.0833 14.1667 10.2699 14.1667 10.5Z" stroke="#040C23" stroke-width="1.5" stroke-linecap="round" stroke-linejoin="round"/>
</svg>
