<svg width="20" height="21" viewBox="0 0 20 21" fill="none" xmlns="http://www.w3.org/2000/svg">
<path d="M1.66699 6.3335L8.47109 11.0964C9.02207 11.482 9.29756 11.6749 9.59721 11.7496C9.8619 11.8156 10.1387 11.8156 10.4034 11.7496C10.7031 11.6749 10.9786 11.482 11.5296 11.0964L18.3337 6.3335M5.66699 17.1668H14.3337C15.7338 17.1668 16.4339 17.1668 16.9686 16.8943C17.439 16.6547 17.8215 16.2722 18.0612 15.8018C18.3337 15.267 18.3337 14.567 18.3337 13.1668V7.8335C18.3337 6.43336 18.3337 5.7333 18.0612 5.19852C17.8215 4.72811 17.439 4.34566 16.9686 4.10598C16.4339 3.8335 15.7338 3.8335 14.3337 3.8335H5.66699C4.26686 3.8335 3.5668 3.8335 3.03202 4.10598C2.56161 4.34566 2.17916 4.72811 1.93948 5.19852C1.66699 5.7333 1.66699 6.43336 1.66699 7.8335V13.1668C1.66699 14.567 1.66699 15.267 1.93948 15.8018C2.17916 16.2722 2.56161 16.6547 3.03202 16.8943C3.5668 17.1668 4.26686 17.1668 5.66699 17.1668Z" stroke="#040C23" stroke-width="1.5" stroke-linecap="round" stroke-linejoin="round"/>
</svg>
