<svg width="36" height="36" viewBox="0 0 36 36" fill="none" xmlns="http://www.w3.org/2000/svg">
<path d="M15 12.0034C15.2643 11.252 15.786 10.6185 16.4726 10.215C17.1592 9.81142 17.9665 9.66391 18.7515 9.79855C19.5365 9.9332 20.2485 10.3413 20.7614 10.9506C21.2743 11.5599 21.555 12.3311 21.5539 13.1275C21.5539 15.3758 18.1814 16.5 18.1814 16.5M18.2249 21H18.2399M10.5 27V30.5033C10.5 31.3025 10.5 31.7022 10.6638 31.9074C10.8063 32.0859 11.0224 32.1898 11.2508 32.1895C11.5134 32.1892 11.8255 31.9396 12.4496 31.4403L16.0278 28.5777C16.7588 27.993 17.1243 27.7006 17.5312 27.4927C17.8923 27.3082 18.2766 27.1734 18.6738 27.0919C19.1215 27 19.5895 27 20.5256 27H24.3C26.8202 27 28.0804 27 29.043 26.5095C29.8897 26.0781 30.5781 25.3897 31.0095 24.543C31.5 23.5804 31.5 22.3202 31.5 19.8V11.7C31.5 9.17976 31.5 7.91965 31.0095 6.95704C30.5781 6.11031 29.8897 5.4219 29.043 4.99047C28.0804 4.5 26.8202 4.5 24.3 4.5H11.7C9.17976 4.5 7.91965 4.5 6.95704 4.99047C6.11031 5.4219 5.4219 6.11031 4.99047 6.95704C4.5 7.91965 4.5 9.17976 4.5 11.7V21C4.5 22.395 4.5 23.0924 4.65333 23.6647C5.06944 25.2176 6.2824 26.4306 7.83531 26.8467C8.40756 27 9.10504 27 10.5 27Z" stroke="white" stroke-width="2.25" stroke-linecap="round" stroke-linejoin="round"/>
</svg>
