<svg width="24" height="24" viewBox="0 0 24 24" fill="none" xmlns="http://www.w3.org/2000/svg">
<circle cx="12" cy="12" r="12" fill="black"/>
<path d="M12.9705 14.8378C13.3221 14.3661 13.7792 13.8597 14.3418 13.3186C14.9044 12.7914 15.4669 12.3197 16.0295 11.9035L17 13.61C16.3812 14.0817 15.7623 14.6159 15.1435 15.2124C14.5387 15.809 13.962 16.4333 13.4135 17.0854C12.879 17.7375 12.4079 18.3757 12 19C11.5921 18.3757 11.1139 17.7375 10.5654 17.0854C10.0309 16.4333 9.45429 15.809 8.83544 15.2124C8.23066 14.6159 7.61885 14.0817 7 13.61L7.97046 11.9035C8.54712 12.3197 9.10971 12.7914 9.65823 13.3186C10.2208 13.8597 10.6779 14.3661 11.0295 14.8378L11.0295 5L12.9705 5L12.9705 14.8378Z" fill="white"/>
</svg>
