<svg width="current" height="current" viewBox="0 0 24 24" fill="none" xmlns="http://www.w3.org/2000/svg">
<circle cx="12" cy="12" r="12" fill="white"/>
<path d="M11.0295 9.16216C10.6779 9.63387 10.2208 10.1403 9.65823 10.6814C9.09564 11.2086 8.53305 11.6803 7.97046 12.0965L7 10.39C7.61885 9.91829 8.23769 9.38415 8.85654 8.78757C9.46132 8.19099 10.038 7.56667 10.5865 6.91459C11.121 6.26252 11.5921 5.62432 12 5C12.4079 5.62432 12.8861 6.26252 13.4346 6.91459C13.9691 7.56667 14.5457 8.19099 15.1646 8.78757C15.7693 9.38415 16.3812 9.91829 17 10.39L16.0295 12.0965C15.4529 11.6803 14.8903 11.2086 14.3418 10.6814C13.7792 10.1403 13.3221 9.63387 12.9705 9.16216V19H11.0295L11.0295 9.16216Z" fill="black"/>
</svg>
