<svg width="20" height="21" viewBox="0 0 20 21" fill="none" xmlns="http://www.w3.org/2000/svg">
<path d="M1.6665 6.3335L8.4706 11.0964C9.02158 11.482 9.29707 11.6749 9.59672 11.7496C9.86142 11.8156 10.1383 11.8156 10.403 11.7496C10.7026 11.6749 10.9781 11.482 11.5291 11.0964L18.3332 6.3335M5.6665 17.1668H14.3332C15.7333 17.1668 16.4334 17.1668 16.9681 16.8943C17.4386 16.6547 17.821 16.2722 18.0607 15.8018C18.3332 15.267 18.3332 14.567 18.3332 13.1668V7.8335C18.3332 6.43336 18.3332 5.7333 18.0607 5.19852C17.821 4.72811 17.4386 4.34566 16.9681 4.10598C16.4334 3.8335 15.7333 3.8335 14.3332 3.8335H5.6665C4.26637 3.8335 3.56631 3.8335 3.03153 4.10598C2.56112 4.34566 2.17867 4.72811 1.93899 5.19852C1.6665 5.7333 1.6665 6.43336 1.6665 7.8335V13.1668C1.6665 14.567 1.6665 15.267 1.93899 15.8018C2.17867 16.2722 2.56112 16.6547 3.03153 16.8943C3.56631 17.1668 4.26637 17.1668 5.6665 17.1668Z" stroke="white" stroke-width="1.5" stroke-linecap="round" stroke-linejoin="round"/>
</svg>
