<svg width="72" height="72" viewBox="0 0 72 72" fill="none" xmlns="http://www.w3.org/2000/svg">
<path d="M72 12C72 5.37258 66.6274 0 60 0H12C5.37258 0 0 5.37258 0 12V60C0 66.6274 5.37258 72 12 72H60C66.6274 72 72 66.6274 72 60V12Z" fill="#1C1C1C"/>
<path d="M36.0164 60.9943C35.8914 60.9073 35.7283 60.7878 35.5381 60.6464C35.0272 60.2769 34.2935 59.728 33.3968 59.0215C31.6033 57.6138 29.1522 55.5921 26.5381 53.1247C21.299 48.1736 15.4621 41.4834 12.8697 34.4182C12.0273 32.0921 11.5436 29.7389 11.5436 27.4019C11.5436 20.7661 15.5381 15.7933 20.5164 14.0052C25.4729 12.228 31.462 13.5922 35.5435 19.7824L36.0001 20.4726L36.4512 19.7824C40.5381 13.5922 46.5272 12.228 51.4783 14.0052C56.462 15.7933 60.4566 20.7661 60.4566 27.4019C60.4566 29.7389 59.9729 32.0921 59.1305 34.4182C56.5326 41.4834 50.7066 48.1736 45.4729 53.1247C42.8642 55.5921 40.4185 57.6138 38.6305 59.0215C37.7338 59.7225 37.0001 60.2714 36.4946 60.641C36.299 60.7878 36.1414 60.9019 36.0164 60.9943Z" fill="#EE624C"/>
<path d="M36.0164 61.6627L35.7012 61.4344C35.5762 61.342 35.4131 61.2279 35.2175 61.0866C34.5327 60.5812 33.8044 60.0323 33.0653 59.4507C31.424 58.1627 28.8914 56.092 26.1686 53.5214C21.3751 48.9888 15.0871 42.0323 12.3588 34.6084C11.4566 32.1138 11.0001 29.6899 11.0001 27.4019C11.0001 20.9888 14.6632 15.5269 20.3371 13.4943C24.9131 11.853 31.4349 12.5649 36.0001 19.4834C40.5653 12.5649 47.087 11.853 51.6631 13.4943C57.337 15.5269 61.0001 20.9834 61.0001 27.4019C61.0001 29.6845 60.5435 32.1084 59.6414 34.603C56.9131 42.0323 50.6359 48.9888 45.8479 53.5214C43.1414 56.0866 40.6088 58.1627 38.962 59.4507C38.2338 60.0214 37.5055 60.5757 36.8099 61.0812C36.6142 61.2225 36.4512 61.342 36.3262 61.429L36.0164 61.6627ZM24.6142 13.8149C23.3697 13.8149 22.0599 14.0323 20.6958 14.5215C15.4675 16.3965 12.0871 21.4508 12.0871 27.4019C12.0871 29.5595 12.5219 31.8584 13.3806 34.2334C16.0327 41.4562 22.2066 48.2768 26.9131 52.7279C29.6034 55.2714 32.1034 57.3203 33.7284 58.592C34.462 59.1681 35.1794 59.7062 35.8533 60.2062L36.011 60.3203C36.0599 60.2823 36.1142 60.2442 36.1686 60.2062C36.8533 59.7007 37.5707 59.1627 38.2881 58.5975C39.9131 57.3203 42.4186 55.2714 45.0925 52.7334C49.7936 48.2823 55.9566 41.4616 58.6142 34.2334C59.4729 31.8584 59.9077 29.5595 59.9077 27.4019C59.9077 21.4508 56.5272 16.3965 51.2935 14.5215C44.9023 12.2334 39.6686 15.8965 36.9023 20.0867L36.0001 21.4562L35.0925 20.0812C32.9186 16.7823 29.2121 13.8149 24.6142 13.8149Z" fill="white"/>
<path d="M24.9675 42.5051L24.9621 42.4671C23.6523 42.7334 22.2664 42.141 21.5871 40.9127C20.7447 39.3964 21.2936 37.4834 22.8099 36.641C23.1197 36.4671 23.4458 36.353 23.7773 36.2932L23.2066 36.2551C22.6849 35.978 22.2284 35.5541 21.924 34.9997C21.0816 33.4834 21.6306 31.5704 23.1469 30.728C23.9349 30.2878 24.8425 30.2062 25.636 30.4834C26.2882 30.7171 27.2338 31.1193 28.1143 31.8367C29.0979 32.641 29.6197 32.891 30.424 32.9834C30.9892 33.0486 31.2936 33.0921 31.5653 32.9997C31.8914 32.8856 32.2392 32.6845 32.299 32.3747C32.3642 32.0486 32.299 31.891 32.0164 31.6682C31.8045 31.4997 30.9349 31.3367 30.6034 31.1791C30.299 31.0323 30.0871 30.7225 29.9132 30.4073C29.2936 29.2878 29.6958 27.8802 30.8153 27.2606C31.3751 26.9508 32.0056 26.8965 32.5762 27.0595L32.5925 27.0921C32.5925 26.6247 32.7121 26.1519 32.9512 25.7497C33.5925 24.6573 35.0055 24.1084 36.2392 24.4019C36.761 24.5269 37.2555 24.8041 37.6251 25.1954L37.4512 24.8584C37.4512 24.0052 37.9023 23.1736 38.7066 22.7334C39.8805 22.0812 41.3642 22.5052 42.011 23.6791C42.2175 24.0541 42.2229 24.5323 42.2229 24.9291L42.2121 24.9345L42.2229 24.9399C43.7012 24.4073 45.3425 24.3747 46.8534 24.8041C46.9621 24.8367 47.0707 24.8693 47.174 24.9019C47.2121 24.9128 47.2447 24.9236 47.2827 24.9399C47.636 25.0649 47.9784 25.2117 48.3099 25.3856C50.1142 26.3367 51.511 28.016 52.1794 29.9399C52.9349 29.5215 53.8805 29.7932 54.299 30.5486C54.7175 31.3041 54.4457 32.2497 53.6903 32.6682C53.6142 32.7117 53.5327 32.7497 53.4512 32.7769C53.9457 32.9997 54.212 33.5541 54.0599 34.0921C53.8914 34.6791 53.2773 35.0215 52.6903 34.853C52.5055 34.7986 52.3479 34.7062 52.2175 34.5812L52.3044 34.7062C51.7501 36.7932 50.3805 38.6627 48.3479 39.7932C47.1631 40.4508 45.8914 40.7823 44.6251 40.8204L44.2555 40.4454C44.3099 40.516 44.3588 40.5975 44.4077 40.6791C44.924 41.6138 44.5871 42.7932 43.6523 43.3095C42.8045 43.7823 41.7501 43.5432 41.174 42.7932C41.0871 43.3638 40.7447 43.891 40.2012 44.1954C39.2664 44.7117 38.0871 44.3747 37.5708 43.4399C37.4132 43.6356 36.9403 44.0214 36.7066 44.1519C35.7718 44.6682 34.5545 44.353 34.0762 43.3964C33.4566 42.1573 34.5273 41.2606 34.5816 40.7769C34.6251 40.3747 34.5979 40.1193 34.2447 39.8801C34.1197 39.7932 33.761 39.7443 33.4458 39.8149C33.1305 39.8856 32.8371 40.0486 32.6142 40.2823C31.5001 41.4562 31.0599 42.6193 30.7556 44.7062C30.6469 45.4508 30.2012 46.1301 29.549 46.6138C28.1577 47.6519 26.1903 47.3584 25.1523 45.9671C24.3806 44.9345 24.348 43.5649 24.9675 42.5051Z" fill="#F2B458"/>
<path d="M23.8208 36.304L25.3371 36.4073C24.8534 36.2497 24.3317 36.2116 23.8208 36.304Z" fill="url(#paint0_linear)"/>
<path d="M37.4239 42.9779L37.6087 41.5812C37.375 41.9997 37.3044 42.4997 37.4239 42.9779Z" fill="url(#paint1_linear)"/>
<path d="M41 41.5703L41.2228 42.7986C41.2826 42.3964 41.2174 41.9616 41 41.5703Z" fill="url(#paint2_linear)"/>
<path d="M43.951 40.0975L44.2989 40.4508C44.1956 40.3203 44.0815 40.2008 43.951 40.0975Z" fill="url(#paint3_linear)"/>
<path d="M37.6577 25.2007L38.2556 26.3583C38.1795 25.9181 37.9621 25.5268 37.6577 25.2007Z" fill="url(#paint4_linear)"/>
<path d="M42.2446 24.9399L42.2555 24.9453C42.2555 24.9399 42.2555 24.9399 42.2555 24.9344C42.2501 24.9344 42.2446 24.9399 42.2446 24.9399Z" fill="url(#paint5_linear)"/>
<path d="M42.2555 24.9344V24.9399C43.7338 24.4073 45.375 24.3747 46.8859 24.804C45.375 24.3801 43.7338 24.4018 42.2555 24.9344Z" fill="url(#paint6_linear)"/>
<path d="M52.0109 34.2171C52.0652 34.3529 52.1522 34.4779 52.2554 34.5812L52.0109 34.2171Z" fill="url(#paint7_linear)"/>
<path d="M47.2065 24.9127C47.2446 24.9235 47.2772 24.9344 47.3153 24.9507C47.2826 24.9344 47.2446 24.9235 47.2065 24.9127Z" fill="url(#paint8_linear)"/>
<path d="M53.4891 32.7823L52.3804 32.7551C52.7228 32.8964 53.1195 32.9128 53.4891 32.7823Z" fill="url(#paint9_linear)"/>
<path d="M51.6305 30.5159L52.212 29.9507C51.9675 30.092 51.7664 30.2877 51.6305 30.5159Z" fill="url(#paint10_linear)"/>
<path d="M43.5613 38.4459C43.3656 38.1579 43.1754 37.8644 43.0015 37.5655C42.0124 35.8916 41.3548 34.071 41.045 32.1579C40.7841 30.5329 40.7787 28.8808 41.0341 27.2503C41.083 26.9514 40.8765 26.6742 40.583 26.6308C40.2841 26.5873 40.007 26.7884 39.9635 27.0818C39.7461 28.4568 39.708 29.8427 39.8385 31.2231C39.3656 31.0112 38.8874 30.8699 38.42 30.8427C37.8928 30.8101 37.3167 30.9079 36.7896 31.1199C36.0885 31.4025 35.458 31.9134 35.0233 32.5601C34.5287 33.2938 34.4146 34.2068 34.7189 34.946C34.9417 35.4731 35.382 35.8699 35.8874 36.0655C35.42 37.0438 35.4309 38.2068 35.9743 39.1851C36.5993 40.3101 37.7461 40.9459 38.9363 40.9459C39.4417 40.9459 39.9526 40.8264 40.4417 40.5927L40.4635 40.5818C40.4689 40.5764 40.4798 40.5764 40.4852 40.5709L40.583 40.5275C41.4472 40.1362 42.0722 39.6253 42.5559 38.897C42.5939 38.9514 42.6265 39.0112 42.6591 39.0655C42.7624 39.2177 42.9363 39.3046 43.1102 39.3046C43.2135 39.3046 43.3222 39.272 43.4146 39.2122C43.67 39.0329 43.7352 38.6905 43.5613 38.4459ZM40.1591 39.522H40.0504L39.9635 39.609C39.8874 39.6416 39.8113 39.6688 39.7298 39.7014C39.7243 39.7014 39.7243 39.7068 39.7243 39.7068C38.6809 40.0764 37.4798 39.6525 36.9309 38.6579C36.4526 37.7992 36.5722 36.734 37.2243 36.0003C37.3983 35.8046 37.5993 35.6416 37.833 35.5166C38.0939 35.3699 38.1917 35.0383 38.045 34.7775C37.8983 34.5166 37.5667 34.4188 37.3059 34.5655C37.045 34.7123 36.8113 34.897 36.5993 35.1036C36.2624 35.1199 35.882 34.8916 35.7298 34.5329C35.5613 34.1362 35.6428 33.5981 35.9309 33.1742C36.2406 32.7123 36.708 32.3373 37.2026 32.1362C37.583 31.984 37.9906 31.9134 38.3602 31.9351C38.8874 31.9677 39.4852 32.2068 40.0233 32.5764C40.3493 34.4297 40.9852 36.2014 41.9146 37.8481C41.5069 38.647 40.9961 39.1362 40.1591 39.522Z" fill="#EDA53C"/>
<path d="M33.2174 37.6098C32.8587 36.9522 32.6304 36.2403 32.5326 35.5011C32.5 35.2403 32.4728 34.9033 32.587 34.6588C32.712 34.387 32.5978 34.0609 32.3261 33.9359C32.0543 33.8109 31.7337 33.9251 31.6033 34.1968C31.3696 34.6914 31.4022 35.2294 31.4565 35.637C31.5706 36.512 31.8424 37.349 32.2609 38.1261C32.3641 38.3109 32.4728 38.4957 32.587 38.6696C32.6902 38.8272 32.8641 38.9142 33.038 38.9142C33.1413 38.9142 33.2446 38.887 33.3369 38.8218C33.5869 38.6533 33.6522 38.3163 33.4891 38.0663C33.3967 37.9196 33.3043 37.7674 33.2174 37.6098Z" fill="#EDA53C"/>
<path d="M54.8098 30.2931C54.538 29.804 54.0924 29.4453 53.5489 29.2931C53.2065 29.1953 52.8587 29.1953 52.5217 29.2714C51.7446 27.4073 50.3424 25.8366 48.5978 24.9182C48.2446 24.7334 47.875 24.5703 47.5054 24.4399C47.462 24.4236 47.4185 24.4073 47.3804 24.3964C47.2663 24.3584 47.1468 24.3203 47.0326 24.2877C45.6304 23.8856 44.1359 23.8638 42.7609 24.2171C42.7283 23.9508 42.6576 23.6736 42.5163 23.4182C42.1305 22.7225 41.5 22.2171 40.7337 21.9997C39.9674 21.7823 39.1685 21.8747 38.4729 22.2606C37.7392 22.6682 37.2392 23.3366 37.0489 24.1192C36.8424 24.0214 36.625 23.9345 36.3968 23.8801C34.9022 23.5269 33.2718 24.2008 32.5163 25.4834C32.3424 25.7768 32.2283 26.1029 32.1576 26.4453C31.6142 26.4073 31.0761 26.5268 30.587 26.7932C29.2066 27.5595 28.712 29.2986 29.4729 30.679C29.6631 31.0268 29.9457 31.4508 30.4022 31.6736C30.5924 31.766 30.8587 31.8421 31.1413 31.9236C31.3316 31.9779 31.6522 32.0703 31.7174 32.1084C31.7826 32.1573 31.8098 32.1844 31.8152 32.1844C31.8152 32.1953 31.8152 32.2225 31.8044 32.2714C31.7935 32.2986 31.6902 32.4018 31.4185 32.4997C31.2881 32.5431 31.0326 32.516 30.6468 32.4725L30.5218 32.4562C29.8913 32.3855 29.4729 32.2279 28.4946 31.4236C27.7555 30.8258 26.8696 30.3366 25.8587 29.9779C24.9185 29.6464 23.8479 29.7497 22.9294 30.2605C21.1522 31.2442 20.5109 33.4942 21.4946 35.2714C21.7011 35.6464 22.0326 36.0051 22.3913 36.2986C20.7718 37.3366 20.212 39.4779 21.1577 41.1844C21.7881 42.3257 22.9457 43.0105 24.1957 43.0703C23.875 44.1627 24.0653 45.3638 24.7663 46.304C25.3533 47.092 26.212 47.6083 27.1903 47.7496C27.3696 47.7768 27.5544 47.7877 27.7337 47.7877C28.5218 47.7877 29.2826 47.5377 29.9294 47.0594C30.7174 46.4725 31.2229 45.6681 31.3479 44.7931C31.6522 42.7116 32.0707 41.7116 33.0598 40.6627C33.2011 40.5105 33.4022 40.4018 33.5707 40.3583C33.7718 40.3312 33.9946 40.3692 34.0652 40.4399C34.1142 40.4942 34.0979 40.6355 34.087 40.7062C34.0707 40.7605 33.9837 40.9181 33.9131 41.0323C33.5924 41.5812 33.0598 42.4996 33.6305 43.6409C33.9185 44.217 34.4185 44.6355 35.0489 44.8312C35.7011 45.0323 36.4185 44.9562 37.0163 44.6246C37.1902 44.5268 37.3587 44.4127 37.5544 44.2388C37.8478 44.5377 38.212 44.7659 38.625 44.8855C38.8533 44.9507 39.0815 44.9833 39.3098 44.9833C39.7228 44.9833 40.1359 44.8801 40.5109 44.6681C40.9185 44.4399 41.2446 44.1138 41.462 43.7225C41.8533 43.9616 42.3098 44.0866 42.7663 44.0866C43.1739 44.0866 43.587 43.9888 43.962 43.7768C44.5435 43.4562 44.962 42.929 45.1413 42.2931C45.2337 41.9725 45.2609 41.641 45.2228 41.3203C46.4185 41.2062 47.5978 40.842 48.6522 40.2605C50.587 39.1899 52 37.4725 52.6957 35.391C52.8098 35.4127 52.9239 35.429 53.038 35.429C53.3152 35.429 53.587 35.3584 53.837 35.2225C54.2228 35.0105 54.5 34.6573 54.625 34.2334C54.7663 33.7442 54.6685 33.2388 54.3967 32.8421C55.087 32.2171 55.288 31.1573 54.8098 30.2931ZM53.5761 33.9507C53.5326 34.0975 53.4402 34.2171 53.3098 34.2877C53.1794 34.3584 53.0272 34.3801 52.8804 34.3366C52.788 34.3094 52.7065 34.266 52.6413 34.1953C52.587 34.141 52.5435 34.0812 52.5163 34.0105C52.4022 33.7334 52.0815 33.6029 51.8044 33.7171C51.5272 33.8312 51.3967 34.1518 51.5109 34.429C51.5707 34.5703 51.6522 34.6953 51.7446 34.8149C51.1685 36.7442 49.8913 38.342 48.125 39.3257C47.0978 39.8964 45.9891 40.2062 44.8261 40.2714C44.7935 40.2225 44.7663 40.1736 44.7337 40.1301C44.6087 39.9616 44.4565 39.8094 44.2881 39.679C44.0544 39.4942 43.712 39.5323 43.5272 39.7714C43.3424 40.0051 43.3804 40.3475 43.6196 40.5323C43.712 40.6083 43.7989 40.6953 43.8696 40.7877C43.9076 40.842 43.9457 40.8964 43.9783 40.9562C44.1576 41.2823 44.2011 41.6573 44.0978 42.016C43.9946 42.3746 43.7609 42.6681 43.4348 42.8529C42.8913 43.1573 42.212 43.0486 41.7772 42.6192C41.7935 42.1681 41.6957 41.7225 41.4728 41.3203C41.3261 41.0594 40.9946 40.9616 40.7337 41.1083C40.4728 41.2551 40.375 41.5866 40.5218 41.8475C40.6739 42.1192 40.7283 42.429 40.6794 42.7333C40.6141 43.1627 40.3587 43.5323 39.9783 43.7388C39.6522 43.9181 39.2772 43.9616 38.9185 43.8583C38.5598 43.7551 38.2663 43.5214 38.0815 43.1953C38.0218 43.0866 37.9783 42.9725 37.9457 42.8529C37.8587 42.5105 37.9076 42.1573 38.0761 41.8475C38.2228 41.5866 38.125 41.2551 37.8642 41.1083C37.6033 40.967 37.2718 41.0594 37.125 41.3203C36.8207 41.8692 36.7392 42.5051 36.8913 43.1138C36.9076 43.1844 36.9348 43.2496 36.9565 43.3149C36.7446 43.5323 36.6087 43.6192 36.4783 43.6899C36.1359 43.8801 35.7283 43.9236 35.3587 43.804C35.0163 43.7007 34.7446 43.4725 34.5924 43.1681C34.3044 42.5975 34.5163 42.1518 34.8424 41.592C34.9946 41.3312 35.125 41.1083 35.1468 40.8801C35.2446 40.2714 35.0218 39.8964 34.8207 39.6953C34.3424 39.2062 33.6087 39.266 33.3533 39.304C32.9294 39.4018 32.5381 39.6247 32.25 39.929C31.0924 41.1518 30.587 42.342 30.25 44.6518C30.1631 45.2333 29.8044 45.7986 29.2555 46.2062C28.7011 46.6192 28.0163 46.7931 27.3261 46.6953C26.6413 46.592 26.0326 46.2333 25.6196 45.6736C25.0272 44.8746 24.9457 43.8149 25.3968 42.9399C25.6576 42.8638 25.9076 42.7714 26.1468 42.6355C26.9457 42.1899 27.5489 41.4725 27.8479 40.6029C27.9457 40.3203 27.7935 40.0105 27.5109 39.9127C27.2283 39.8149 26.9185 39.967 26.8207 40.2497C26.6142 40.8583 26.1848 41.3692 25.6196 41.679C25.3859 41.8094 25.1359 41.9018 24.875 41.9562C23.7609 42.1844 22.6359 41.6681 22.0816 40.6681C21.3859 39.4127 21.8424 37.8312 23.0924 37.1355C23.3424 36.9942 23.6142 36.9018 23.8968 36.8475C24.3098 36.7714 24.7446 36.804 25.1522 36.9344C25.4348 37.0268 25.7446 36.8692 25.837 36.5812C25.9294 36.2931 25.7718 35.9888 25.4837 35.8964C24.9076 35.7116 24.2935 35.6736 23.7066 35.7768C23.6522 35.7877 23.5979 35.8094 23.5435 35.8203C23.125 35.5703 22.6468 35.1518 22.424 34.7551C21.7283 33.4997 22.1848 31.9181 23.4348 31.2225C24.087 30.8638 24.8316 30.7877 25.4783 31.016C26.375 31.3312 27.1522 31.7605 27.7935 32.2823C28.8533 33.1464 29.462 33.4453 30.3859 33.5486L30.5109 33.5649C31.0489 33.6301 31.4022 33.6681 31.7718 33.5377C32.5544 33.2605 32.7935 32.8258 32.8587 32.5105C32.9674 31.9834 32.8207 31.6138 32.375 31.266C32.1848 31.1138 31.8913 31.0268 31.4294 30.8964C31.2229 30.8366 30.9674 30.766 30.8642 30.7171C30.6794 30.6247 30.5163 30.3638 30.4076 30.1736C30.1794 29.7605 30.125 29.2823 30.2555 28.8258C30.3859 28.3692 30.6848 27.9942 31.0979 27.766C31.4076 27.5975 31.75 27.5214 32.0924 27.5486C32.1902 28.3855 32.5924 29.1464 33.2174 29.641C33.3152 29.7225 33.4348 29.7605 33.5544 29.7605C33.712 29.7605 33.875 29.6899 33.9783 29.554C34.1631 29.3203 34.125 28.9779 33.8913 28.7877C33.4239 28.4127 33.1468 27.7932 33.1522 27.1192C33.1522 26.7279 33.25 26.3584 33.4348 26.0486C33.9457 25.179 35.1033 24.7062 36.125 24.9508C36.5489 25.054 36.9457 25.2769 37.2446 25.5866C37.4892 25.8475 37.6468 26.1464 37.7011 26.4562C37.75 26.7497 38.0272 26.9562 38.3261 26.9018C38.6196 26.8529 38.8207 26.5703 38.7718 26.2769C38.6848 25.7497 38.4294 25.2497 38.0326 24.8366C38.0326 24.8366 38.0326 24.8366 38.0272 24.8312C38.0272 24.1519 38.375 23.554 38.9783 23.2171C39.4185 22.9725 39.9294 22.9127 40.4131 23.054C40.8968 23.1953 41.2989 23.5106 41.5435 23.9562C41.6902 24.2225 41.6902 24.6355 41.6902 24.9508C41.6902 25.1301 41.7772 25.2932 41.9239 25.3964C42.0707 25.4997 42.2554 25.5214 42.4185 25.4616C43.7663 24.9779 45.2935 24.929 46.7228 25.3421C46.8207 25.3692 46.9185 25.4019 47.0272 25.4345L47.1196 25.4671C47.4511 25.5812 47.7717 25.7225 48.0707 25.8801C49.6196 26.7008 50.8587 28.1084 51.538 29.7768C51.3859 29.9127 51.2554 30.0703 51.1467 30.2442C50.9946 30.4997 51.0761 30.8366 51.337 30.9888C51.5924 31.141 51.9294 31.0595 52.0815 30.7986C52.1739 30.641 52.2989 30.5214 52.462 30.4345C52.7011 30.304 52.9728 30.2714 53.2337 30.3475C53.4946 30.4236 53.712 30.5921 53.8424 30.8312C54.1141 31.3203 53.9348 31.9399 53.4457 32.2116C53.3967 32.2388 53.3424 32.2605 53.288 32.2823C53.0544 32.3638 52.7989 32.3584 52.5652 32.2605C52.2881 32.1464 51.9728 32.2768 51.8587 32.554C51.7446 32.8312 51.875 33.1464 52.1522 33.2605C52.4076 33.3692 52.6848 33.4181 52.9565 33.4181C53.0978 33.4181 53.2391 33.3964 53.375 33.3692C53.5544 33.5105 53.6359 33.7334 53.5761 33.9507Z" fill="#FFDFB1"/>
<defs>
<linearGradient id="paint0_linear" x1="24.3778" y1="35.9944" x2="24.7779" y2="36.7157" gradientUnits="userSpaceOnUse">
<stop stop-color="#DEA6A9"/>
<stop offset="1" stop-color="#DEA6A9"/>
</linearGradient>
<linearGradient id="paint1_linear" x1="37.2416" y1="41.7821" x2="37.7918" y2="42.7741" gradientUnits="userSpaceOnUse">
<stop stop-color="#DEA6A9"/>
<stop offset="1" stop-color="#DEA6A9"/>
</linearGradient>
<linearGradient id="paint2_linear" x1="40.8221" y1="41.6712" x2="41.3962" y2="42.7061" gradientUnits="userSpaceOnUse">
<stop stop-color="#DEA6A9"/>
<stop offset="1" stop-color="#DEA6A9"/>
</linearGradient>
<linearGradient id="paint3_linear" x1="44.0082" y1="40.0678" x2="44.2397" y2="40.4856" gradientUnits="userSpaceOnUse">
<stop stop-color="#DEA6A9"/>
<stop offset="1" stop-color="#DEA6A9"/>
</linearGradient>
<linearGradient id="paint4_linear" x1="37.6729" y1="25.1927" x2="38.304" y2="26.3307" gradientUnits="userSpaceOnUse">
<stop stop-color="#DEA6A9"/>
<stop offset="1" stop-color="#DEA6A9"/>
</linearGradient>
<linearGradient id="paint5_linear" x1="42.2483" y1="24.9369" x2="42.2528" y2="24.9454" gradientUnits="userSpaceOnUse">
<stop stop-color="#DEA6A9"/>
<stop offset="1" stop-color="#DEA6A9"/>
</linearGradient>
<linearGradient id="paint6_linear" x1="44.0501" y1="23.9397" x2="45.0869" y2="25.8089" gradientUnits="userSpaceOnUse">
<stop stop-color="#DEA6A9"/>
<stop offset="1" stop-color="#DEA6A9"/>
</linearGradient>
<linearGradient id="paint7_linear" x1="52.0256" y1="34.2122" x2="52.2382" y2="34.5954" gradientUnits="userSpaceOnUse">
<stop stop-color="#DEA6A9"/>
<stop offset="1" stop-color="#DEA6A9"/>
</linearGradient>
<linearGradient id="paint8_linear" x1="47.2417" y1="24.8918" x2="47.2825" y2="24.9651" gradientUnits="userSpaceOnUse">
<stop stop-color="#DEA6A9"/>
<stop offset="1" stop-color="#DEA6A9"/>
</linearGradient>
<linearGradient id="paint9_linear" x1="52.7951" y1="32.5234" x2="53.0686" y2="33.017" gradientUnits="userSpaceOnUse">
<stop stop-color="#DEA6A9"/>
<stop offset="1" stop-color="#DEA6A9"/>
</linearGradient>
<linearGradient id="paint10_linear" x1="51.8723" y1="30.1408" x2="51.9743" y2="30.325" gradientUnits="userSpaceOnUse">
<stop stop-color="#DEA6A9"/>
<stop offset="1" stop-color="#DEA6A9"/>
</linearGradient>
</defs>
</svg>
