<svg width="72" height="72" viewBox="0 0 72 72" fill="none" xmlns="http://www.w3.org/2000/svg">
<rect width="72" height="72" rx="12" fill="#3663FF"/>
<path d="M26.2131 32.7185L28.9947 35.8851L32.3325 39.6389L49.0219 25.2737V15.3334H35.3201H22.9783V25.2737H34.8669L26.2131 32.7185Z" fill="white"/>
<path d="M44.3132 31.5834L36.2063 38.516C38.9911 38.6204 41.2396 40.9592 41.2396 43.8199C41.2396 46.7434 38.888 49.1238 36 49.1238C33.1121 49.1238 30.7605 46.7434 30.7605 43.8199H21.3334C21.3334 52.0264 27.8931 58.6667 36 58.6667C44.1069 58.6667 50.6667 52.0264 50.6667 43.8199C50.6667 38.7249 48.1501 34.2562 44.3132 31.5834Z" fill="white"/>
</svg>
