<svg width="376" height="644" viewBox="0 0 376 644" fill="none" xmlns="http://www.w3.org/2000/svg">
<rect x="0.5" y="0.03125" width="371.739" height="643.969" fill="url(#paint0_linear_408_46)"/>
<path opacity="0.1" d="M-54.8698 147.548H-35.1289C-18.2617 147.548 -7.82909 137.178 -7.82909 122.122C-7.82909 107.067 -18.2617 96.6343 -35.1289 96.6343H-54.8698V147.548ZM-43.5 137.49V106.692H-34.9415C-25.196 106.692 -19.1988 112.315 -19.1988 122.122C-19.1988 131.93 -25.196 137.49 -34.9415 137.49H-43.5ZM-2.87485 147.548H35.5448V137.678H8.49487V126.745H32.7961V116.875H8.49487V106.505H34.9826V96.6343H-2.87485V147.548ZM41.3112 147.548H52.6809V133.992H60.8646C74.1085 133.992 81.8549 126.62 81.8549 115.251C81.8549 104.006 74.1085 96.6343 60.8646 96.6343H41.3112V147.548ZM52.6809 123.934V106.692H60.3648C66.6744 106.692 70.4851 109.628 70.4851 115.251C70.4851 120.936 66.6744 123.934 60.3648 123.934H52.6809ZM129.587 147.548L117.78 129.244C123.777 126.433 127.088 121.06 127.088 114.064C127.088 103.506 119.529 96.6343 106.598 96.6343H86.1073V147.548H97.477V131.493H106.535L116.406 147.548H129.587ZM97.477 106.692H106.098C112.095 106.692 115.719 109.253 115.719 114.064C115.719 118.874 112.095 121.435 106.098 121.435H97.477V106.692ZM157.667 148.798C173.472 148.798 185.154 137.49 185.154 122.06C185.154 106.63 173.472 95.3224 157.667 95.3224C141.862 95.3224 130.18 106.63 130.18 122.06C130.18 137.49 141.862 148.798 157.667 148.798ZM157.667 138.552C148.421 138.552 141.549 131.618 141.549 122.06C141.549 112.439 148.421 105.568 157.667 105.568C166.913 105.568 173.784 112.439 173.784 122.06C173.784 131.618 166.913 138.552 157.667 138.552ZM190.036 147.548H201.406V119.624L213.213 139.177H220.085L231.892 119.624V147.548H243.261V96.6343H234.203L216.649 125.121L199.094 96.6343H190.036V147.548ZM250.389 147.548H288.809V137.678H261.759V126.745H286.06V116.875H261.759V106.505H288.246V96.6343H250.389V147.548ZM294.575 147.548H332.995V137.678H305.945V126.745H330.246V116.875H305.945V106.505H332.432V96.6343H294.575V147.548ZM338.761 147.548H350.131V116.313L375.556 146.923H385.052V96.0096H373.682V127.245L348.257 96.6343H338.761V147.548ZM433.765 96.6343H389.285V106.692H405.84V147.548H417.21V106.692H433.765V96.6343Z" fill="white"/>
<defs>
<linearGradient id="paint0_linear_408_46" x1="186.37" y1="0.03125" x2="186.37" y2="644" gradientUnits="userSpaceOnUse">
<stop stop-color="#3D63F1" stop-opacity="0"/>
<stop offset="1" stop-color="#3D63F2"/>
</linearGradient>
</defs>
</svg>
