<svg width="218" height="70" viewBox="0 0 218 70" fill="none" xmlns="http://www.w3.org/2000/svg">
<path fill-rule="evenodd" clip-rule="evenodd" d="M217.031 0H147.581V69.4499H217.031L217.031 0.00161525L217.031 0ZM217.031 0.00161525C197.857 0.00161525 182.312 15.5422 182.306 34.7149C182.3 15.5422 166.755 0.00161525 147.581 0.00161525H217.031Z" fill="url(#paint0_angular_408_922)"/>
<path fill-rule="evenodd" clip-rule="evenodd" d="M104.175 0H69.4503V34.6283C69.4502 34.6611 69.4502 34.6938 69.4502 34.7266C69.4502 34.7593 69.4502 34.7921 69.4503 34.8248V69.4499H103.836C103.949 69.451 104.062 69.4515 104.175 69.4515C104.175 69.451 104.175 69.4504 104.175 69.4499H104.175V69.3528C104.229 50.2201 119.755 34.7266 138.9 34.7266C138.9 15.5485 123.353 0.00168947 104.175 0.00161525V0Z" fill="url(#paint1_angular_408_922)"/>
<path fill-rule="evenodd" clip-rule="evenodd" d="M34.7249 0H0V69.4499H34.7249V69.3C34.7252 69.3466 34.7253 69.3933 34.7253 69.44C34.7324 50.2723 50.2694 34.7353 69.4371 34.7282C50.2694 34.7211 34.7324 19.184 34.7253 0.0163651C34.7253 0.0630551 34.7252 0.109724 34.7249 0.15637V0Z" fill="url(#paint2_angular_408_922)"/>
<defs>
<radialGradient id="paint0_angular_408_922" cx="0" cy="0" r="1" gradientUnits="userSpaceOnUse" gradientTransform="translate(182.306 34.7249) scale(34.725)">
<stop stop-color="#3F67FB" stop-opacity="0"/>
<stop offset="0.24857" stop-color="#3F67FB" stop-opacity="0.6"/>
<stop offset="0.501668" stop-color="#3F67FB"/>
</radialGradient>
<radialGradient id="paint1_angular_408_922" cx="0" cy="0" r="1" gradientUnits="userSpaceOnUse" gradientTransform="translate(104.175 34.7258) rotate(-90) scale(34.7258 34.7249)">
<stop stop-color="#3F67FB" stop-opacity="0"/>
<stop offset="0.185272" stop-color="#3F67FB" stop-opacity="0.440675"/>
<stop offset="0.251665" stop-color="#3F67FB" stop-opacity="0.6"/>
<stop offset="1" stop-color="#3F67FB"/>
</radialGradient>
<radialGradient id="paint2_angular_408_922" cx="0" cy="0" r="1" gradientUnits="userSpaceOnUse" gradientTransform="translate(34.7185 34.7249) rotate(-180) scale(34.7185 34.7249)">
<stop stop-color="#3F67FB" stop-opacity="0"/>
<stop offset="0.253853" stop-color="#3F67FB" stop-opacity="0.6"/>
<stop offset="0.521489" stop-color="#3F67FB" stop-opacity="0.8"/>
<stop offset="1" stop-color="#3F67FB"/>
</radialGradient>
</defs>
</svg>
