<svg width="100" height="40" viewBox="0 0 100 40" fill="none" xmlns="http://www.w3.org/2000/svg">
<path d="M54.2488 22.5982H49.998C49.998 20.0952 51.1152 17.8429 52.8818 16.3044C51.1152 14.7658 49.998 12.5136 49.998 10.0106H54.2488C54.2488 12.3245 56.1556 14.2069 58.4995 14.2069V18.4032C56.1542 18.4018 54.2488 20.2842 54.2488 22.5982Z" fill="white"/>
<path d="M20.2488 10.0106H15.998V30.9894H20.2488V10.0106Z" fill="white"/>
<path d="M45.7488 10.0106H41.498V30.9894H45.7488V10.0106Z" fill="white"/>
<path d="M66.9998 10.0106H62.749V30.9894H66.9998V10.0106Z" fill="white"/>
<path d="M83.9998 10.0106H79.749V30.9894H83.9998V10.0106Z" fill="white"/>
<path d="M75.4998 17.0031H71.249V23.9956H75.4998V17.0031Z" fill="white"/>
<path d="M28.7488 30.9894H24.498C24.498 26.6164 26.7684 22.7571 30.2073 20.5007C26.7684 18.2429 24.498 14.3836 24.498 10.0106H28.7488C28.7488 14.6371 32.5624 18.4018 37.2488 18.4018V22.5982C32.561 22.5982 28.7488 26.3616 28.7488 30.9894Z" fill="white"/>
</svg>
