<svg width="366" height="396" viewBox="0 0 366 396" fill="none" xmlns="http://www.w3.org/2000/svg">
<path d="M74.5132 289.129L74.2849 245.975L53.3495 281.107H43.11L22.2833 247.138V289.129H1V207.702H19.9571L48.5776 254.693L76.4915 207.702H95.4486L95.6769 289.129H74.5132Z" fill="black" stroke="white" stroke-miterlimit="10"/>
<path d="M272.793 64.6216V82.4156H207.422V1H271.283V18.794H230.216V32.5227H266.391V49.7407H230.216V64.6324H272.793V64.6216Z" fill="black" stroke="white" stroke-miterlimit="10"/>
<path d="M185.747 64.6216V82.4156H120.375V1H184.236V18.794H143.169V32.5227H179.344V49.7407H143.169V64.6324H185.747V64.6216Z" fill="black" stroke="white" stroke-miterlimit="10"/>
<path d="M317.076 331.998H292.064V313.736H365.002V331.998H340.109V395.163H317.076V331.998Z" fill="black" stroke="white" stroke-miterlimit="10"/>
<path d="M74.5132 82.4265L74.2849 39.2729L53.3495 74.4045H43.11L22.2833 40.436V82.4265H1V1H19.9571L48.5776 47.9906L76.4915 1H95.4486L95.6769 82.4265H74.5132Z" fill="black" stroke="white" stroke-miterlimit="10"/>
<path d="M272.793 271.681V289.475H207.422V208.049H271.283V225.843H230.216V239.572H266.391V256.789H230.216V271.681H272.793Z" fill="black" stroke="white" stroke-miterlimit="10"/>
<path d="M317.076 122.613H292.064V104.351H365.002V122.613H340.109V185.778H317.076V122.613Z" fill="black" stroke="white" stroke-miterlimit="10"/>
<path d="M185.747 167.973V185.767H120.375V104.34H184.236V122.134H143.169V135.863H179.344V153.081H143.169V167.973H185.747Z" fill="black" stroke="white" stroke-miterlimit="10"/>
<path d="M317.076 225.964H292.064V207.702H365.002V225.964H340.109V289.129H317.076V225.964Z" fill="black" stroke="white" stroke-miterlimit="10"/>
<path d="M74.5132 186.135L74.2849 142.981L53.3495 178.113H43.11L22.2833 144.145V186.135H1V104.708H19.9571L48.5776 151.699L76.4915 104.708H95.4486L95.6769 186.135H74.5132Z" fill="black" stroke="white" stroke-miterlimit="10"/>
<path d="M185.747 376.86V394.654H120.375V313.227H184.236V331.021H143.169V344.75H179.344V361.968H143.169V376.86H185.747Z" fill="black" stroke="white" stroke-miterlimit="10"/>
<path d="M272.793 376.86V394.654H207.422V313.227H271.283V331.021H230.216V344.75H266.391V361.968H230.216V376.86H272.793Z" fill="black" stroke="white" stroke-miterlimit="10"/>
<path d="M94.95 313.961L95.1755 394.388H75.0105L74.7849 351.732L74.7754 349.935L73.8554 351.478L53.0654 386.366H43.39L22.7096 352.625L21.7833 351.114V352.887V394.377H1.5V313.961H19.6762L48.1506 360.712L48.5829 361.422L49.0075 360.707L76.7761 313.961H94.95Z" fill="white" stroke="white"/>
<path d="M143.169 272.181H185.247V288.975H120.875V208.549H183.736V225.343H143.169H142.669V225.843V239.572V240.072H143.169H178.844V256.289H143.169H142.669V256.789V271.681V272.181H143.169Z" fill="white" stroke="white"/>
<path d="M230.216 168.473H272.293V185.267H207.922V104.84H270.783V121.634H230.216H229.716V122.134V135.863V136.363H230.216H265.891V152.581H230.216H229.716V153.081V167.973V168.473H230.216Z" fill="white" stroke="white"/>
<path d="M317.574 19.2614V18.7614H317.074H292.562V1.5H364.5V18.7614H340.108H339.608V19.2614V81.9265H317.574V19.2614Z" fill="white" stroke="white"/>
</svg>
