<svg width="325" height="394" viewBox="0 0 325 394" fill="none" xmlns="http://www.w3.org/2000/svg">
<path d="M300.857 131.442H323.803V262.774H300.964V172.385V171.502L300.507 172.258L278.496 208.719H259.572L237.657 172.258L237.201 171.499V172.385V262.774H214.362V131.442H237.211L268.823 183.937L269.034 184.287L269.245 183.937L300.857 131.442Z" stroke="white" stroke-width="0.491799"/>
<path d="M300.857 0.245899H323.803V131.577H300.964V41.1888V40.3057L300.507 41.0617L278.496 77.5232H259.572L237.657 41.0621L237.201 40.3024V41.1888V131.577H214.362V0.245899H237.211L268.823 52.741L269.034 53.0908L269.245 52.741L300.857 0.245899Z" stroke="white" stroke-width="0.491799"/>
<path d="M300.718 262.177L269.034 314.791L237.35 262.177H214.116V394H237.446V303.366L259.433 339.946H278.635L300.718 303.366V394H324.049V262.177H300.718Z" fill="white"/>
<path d="M132.963 117.315L132.856 117.388V117.518V131.577H109.921V0.245899H136.77L200.448 43.9106V70.9189L132.963 117.315ZM132.856 89.9625V90.43L133.241 90.1651L180.575 57.6173L180.87 57.4147L180.575 57.2121L133.241 24.6643L132.856 24.3994V24.8669V89.9625Z" stroke="white" stroke-width="0.491799"/>
<path d="M132.962 379.492L132.856 379.565V379.694V393.754H109.921V262.423H136.77L200.448 306.087V333.096L132.962 379.492ZM132.856 352.139V352.607L133.241 352.342L180.574 319.794L180.869 319.591L180.574 319.389L133.241 286.841L132.856 286.576V287.044V352.139Z" stroke="white" stroke-width="0.491799"/>
<path d="M136.846 131.196H109.675V263.02H133.102V248.714L200.693 202.245V174.977L136.846 131.196ZM133.102 221.159V156.063L180.435 188.611L133.102 221.159Z" fill="white"/>
<path d="M23.1808 236.329V236.821L23.5745 236.525L76.1886 196.968L76.4498 196.772L76.1889 196.576L23.5747 156.923L23.1808 156.626V157.119V236.329ZM0.245899 262.774V131.442H26.6089L95.9573 183.645V210.667L26.8009 262.774H0.245899Z" stroke="white" stroke-width="0.491799"/>
<path d="M23.1808 367.309V367.802L23.5745 367.506L76.1886 327.949L76.4498 327.753L76.1889 327.556L23.5747 287.903L23.1808 287.607V288.1V367.309ZM0.245899 393.754V262.423H26.6089L95.9573 314.626V341.647L26.8009 393.754H0.245899Z" stroke="white" stroke-width="0.491799"/>
<path d="M26.6911 0.000976562H0V131.824H26.8831L96.2032 79.5943V52.3271L26.6911 0.000976562ZM23.4267 105.133V25.924L76.0409 65.5766L23.4267 105.133Z" fill="white"/>
</svg>
