<svg width="24" height="24" viewBox="0 0 24 24" fill="none" xmlns="http://www.w3.org/2000/svg">
<path d="M6.01553 7.85599C6.03628 7.63961 5.9572 7.42529 5.80102 7.27967L4.2145 5.29637V5H9.1431L12.9527 13.6674L16.3017 5H21V5.29637L19.6428 6.64591C19.5262 6.73821 19.4678 6.891 19.4916 7.04073V16.9593C19.4669 17.11 19.5252 17.2618 19.6428 17.3541L20.9684 18.7036V19H14.302V18.7036L15.675 17.3213C15.8095 17.1818 15.8095 17.1398 15.8095 16.9265V8.9102L11.9919 18.9692H11.4759L7.03169 8.9102V15.6518C6.99512 15.9348 7.08507 16.2209 7.27782 16.426L9.06402 18.6729V18.9692H4V18.6729L5.7862 16.426C5.97697 16.2209 6.06297 15.9338 6.01651 15.6518V7.85599H6.01553Z" fill="white"/>
</svg>
