<svg width="24" height="24" viewBox="0 0 24 24" fill="none" xmlns="http://www.w3.org/2000/svg">
<path d="M8.66744 12.0004C8.66744 10.1594 10.1594 8.66664 12.0004 8.66664C13.8413 8.66664 15.3341 10.1594 15.3341 12.0004C15.3341 13.8413 13.8413 15.3341 12.0004 15.3341C10.1594 15.3341 8.66744 13.8413 8.66744 12.0004ZM6.8653 12.0004C6.8653 14.8365 9.16426 17.1354 12.0004 17.1354C14.8365 17.1354 17.1354 14.8365 17.1354 12.0004C17.1354 9.16426 14.8365 6.86529 12.0004 6.86529C9.16426 6.86529 6.8653 9.16426 6.8653 12.0004ZM16.1387 6.66169C16.1384 7.32443 16.6755 7.86197 17.3382 7.86221C18.001 7.86245 18.5385 7.32539 18.5388 6.66265C18.539 5.9999 18.0019 5.46236 17.3392 5.46212H17.3387C16.6763 5.46244 16.1392 5.99926 16.1387 6.66169ZM7.96021 20.1404C6.98522 20.096 6.45528 19.9336 6.10311 19.7964C5.63621 19.6146 5.30308 19.3981 4.95283 19.0484C4.60257 18.6986 4.38577 18.3658 4.2048 17.8989C4.06751 17.5469 3.90511 17.0168 3.86079 16.0418C3.81231 14.9877 3.80262 14.671 3.80262 12.0004C3.80262 9.32986 3.81311 9.01409 3.86079 7.95909C3.90519 6.9841 4.06879 6.45504 4.2048 6.10199C4.38657 5.63509 4.60305 5.30196 4.95283 4.95171C5.3026 4.60145 5.63541 4.38465 6.10311 4.20368C6.45512 4.06639 6.98522 3.90399 7.96021 3.85967C9.01433 3.81119 9.33098 3.8015 12.0004 3.8015C14.6697 3.8015 14.9867 3.81199 16.0417 3.85967C17.0167 3.90407 17.5458 4.06767 17.8988 4.20368C18.3657 4.38465 18.6988 4.60193 19.0491 4.95171C19.3993 5.30148 19.6154 5.63509 19.7971 6.10199C19.9344 6.454 20.0968 6.9841 20.1411 7.95909C20.1896 9.01409 20.1993 9.32986 20.1993 12.0004C20.1993 14.671 20.1896 14.9868 20.1411 16.0418C20.0967 17.0168 19.9335 17.5467 19.7971 17.8989C19.6154 18.3658 19.3989 18.6989 19.0491 19.0484C18.6993 19.3978 18.3657 19.6146 17.8988 19.7964C17.5468 19.9337 17.0167 20.0961 16.0417 20.1404C14.9876 20.1889 14.6709 20.1986 12.0004 20.1986C9.32978 20.1986 9.01401 20.1889 7.96021 20.1404ZM7.87741 2.06056C6.81281 2.10904 6.08535 2.27785 5.45004 2.52506C4.7921 2.78035 4.23512 3.12284 3.67854 3.67854C3.12196 4.23424 2.78035 4.7921 2.52506 5.45004C2.27785 6.08575 2.10904 6.81281 2.06056 7.87741C2.01128 8.94369 2 9.28458 2 12.0004C2 14.7161 2.01128 15.057 2.06056 16.1233C2.10904 17.188 2.27785 17.915 2.52506 18.5507C2.78035 19.2082 3.12204 19.7667 3.67854 20.3222C4.23504 20.8776 4.7921 21.2197 5.45004 21.4757C6.08655 21.7229 6.81281 21.8917 7.87741 21.9402C8.94425 21.9886 9.28458 22.0007 12.0004 22.0007C14.7161 22.0007 15.057 21.9894 16.1233 21.9402C17.188 21.8917 17.915 21.7229 18.5507 21.4757C19.2082 21.2197 19.7656 20.8779 20.3222 20.3222C20.8788 19.7665 21.2197 19.2082 21.4757 18.5507C21.7229 17.915 21.8925 17.1879 21.9402 16.1233C21.9886 15.0562 21.9999 14.7161 21.9999 12.0004C21.9999 9.28458 21.9886 8.94369 21.9402 7.87741C21.8917 6.81273 21.7229 6.08535 21.4757 5.45004C21.2197 4.7925 20.8779 4.23512 20.3222 3.67854C19.7665 3.12196 19.2082 2.78035 18.5515 2.52506C17.915 2.27785 17.1879 2.10824 16.1241 2.06056C15.0578 2.01208 14.7169 2 12.0012 2C9.28538 2 8.94425 2.01128 7.87741 2.06056Z" fill="white"/>
</svg>
