<svg width="88" height="26" viewBox="0 0 88 26" fill="none" xmlns="http://www.w3.org/2000/svg">
<path fill-rule="evenodd" clip-rule="evenodd" d="M4 0C1.79086 0 0 1.79086 0 4V22C0 24.2091 1.79086 26 4 26H75C77.2091 26 79 24.2091 79 22V18.1962L88 13L79 7.80385V4C79 1.79086 77.2091 0 75 0H4Z" fill="#0019FF"/>
<path d="M15.2475 8.204C13.4235 8.204 12.4875 9.452 12.4875 11.06C12.4875 12.644 13.5315 13.616 14.9355 13.616C15.7995 13.616 16.4475 13.268 16.8675 12.884C16.7955 14.972 15.9795 15.464 14.7795 15.464C14.1915 15.464 13.4475 15.236 13.1115 15.056L12.8595 16.136C13.2435 16.364 14.0355 16.652 14.8635 16.652C16.8555 16.652 18.3195 15.548 18.3195 12.368V11.816C18.3195 9.5 17.2155 8.204 15.2475 8.204ZM15.2835 9.296C16.3875 9.296 16.8555 10.172 16.8555 11.54V11.744C16.5795 12.14 15.9675 12.548 15.3675 12.548C14.5275 12.548 13.9035 12.056 13.9035 10.952C13.9035 9.944 14.3835 9.296 15.2835 9.296ZM28.1493 17.948V7.256H26.7453V17.948H28.1493ZM24.8613 8.372H19.8693V9.536H23.3493C23.1573 11.66 21.5613 13.892 19.2213 14.96L20.0853 16.016C23.3493 14.24 24.7773 11.6 24.8613 8.372ZM42.5005 16.604V15.488H38.3485V13.22H41.3485V8.096H34.0045V13.22H36.9445V15.488H32.8405V16.604H42.5005ZM39.9445 12.104H35.3965V9.2H39.9445V12.104ZM52.0793 17.816V13.556H50.6633V14.612H46.4393V13.58H45.0233V17.816H52.0793ZM43.7033 8.996H45.8393C45.7193 10.472 44.7233 11.564 43.2833 12.08L44.1233 13.184C45.1673 12.812 46.2713 11.84 46.5833 10.784C47.0633 11.792 48.0833 12.56 48.8873 12.884L49.6553 11.78C48.5153 11.42 47.4713 10.448 47.3033 8.996H49.3433V7.868H43.7033V8.996ZM52.0673 13.016V7.256H50.6633V13.016H52.0673ZM50.6633 16.7H46.4393V15.704H50.6633V16.7ZM63.2661 13.316V12.188H53.6061V13.316H57.7101V14C55.7541 14.132 54.6261 14.852 54.6261 15.92C54.6261 17.108 56.0181 17.84 58.4301 17.84C60.8541 17.84 62.2461 17.108 62.2461 15.92C62.2461 14.852 61.1061 14.132 59.1141 14V13.316H63.2661ZM62.7741 10.688C61.3461 10.628 59.7261 9.956 59.2941 8.876H62.3061V7.76H54.6021V8.876H57.6021C57.2301 9.956 55.7781 10.64 54.1101 10.712C54.3021 11.072 54.5061 11.432 54.6981 11.804C56.3901 11.66 57.8901 10.868 58.4301 9.812C59.0541 10.844 60.6141 11.672 62.1741 11.804L62.7741 10.688ZM60.8181 15.932C60.8181 16.448 59.8701 16.748 58.4181 16.748C56.9781 16.748 56.0541 16.448 56.0541 15.932C56.0541 15.392 56.9781 15.092 58.4181 15.092C59.8701 15.092 60.8181 15.392 60.8181 15.932ZM64.7089 14.12H65.9089L66.0769 7.964H64.5169L64.7089 14.12ZM64.5889 16.676H66.0289V15.272H64.5889V16.676Z" fill="white"/>
</svg>
