<svg width="20" height="20" viewBox="0 0 20 20" fill="none" xmlns="http://www.w3.org/2000/svg">
<path d="M10.4287 1.42382C5.99632 1.42382 2.40234 4.74751 2.40234 8.84771C2.40234 11.8759 3.67135 13.3213 5.40763 14.6407L5.41679 14.6453V18.198C5.41679 18.3652 5.60921 18.4614 5.74206 18.3606L8.78629 16.0998L8.85272 16.1273C9.36353 16.2212 9.89037 16.2716 10.431 16.2716C14.8633 16.2716 18.4573 12.9479 18.4573 8.84771C18.455 4.74751 14.8633 1.42382 10.4287 1.42382Z" fill="#FFDD00"/>
<path d="M10.4272 1C5.77265 1 2 4.4909 2 8.79497C2 11.9743 3.33085 13.493 5.15647 14.8766L5.16563 14.8811V18.6125C5.16563 18.7889 5.36721 18.8897 5.50693 18.7843L8.70234 16.4113L8.77106 16.441C9.30707 16.5395 9.8614 16.5922 10.4272 16.5922C15.0817 16.5922 18.8544 13.1013 18.8544 8.79726C18.8544 4.4909 15.0817 1 10.4272 1ZM7.60285 10.7695C8.42976 10.7695 9.13527 10.2747 9.3483 9.51193H10.5692C10.2714 10.9825 9.12611 11.9446 7.60285 11.9446C5.8322 11.9446 4.42805 10.6229 4.42805 8.7858C4.42805 6.94644 5.8322 5.62704 7.60285 5.62704C9.14214 5.62704 10.2943 6.60972 10.5784 8.10549H9.35975C9.17421 7.29232 8.4435 6.7861 7.60285 6.7861C6.41173 6.7861 5.61917 7.63592 5.61917 8.7858C5.61917 9.93798 6.51939 10.7695 7.60285 10.7695ZM15.6544 11.8255H14.5343V9.2989C14.5343 8.71709 14.1952 8.40556 13.6753 8.40556C13.0935 8.40556 12.7201 8.76061 12.7201 9.48215V11.8255H11.6V5.64537H12.7201V7.97035C12.9881 7.56262 13.4233 7.36333 14.0143 7.36333C14.4907 7.36333 14.8824 7.51909 15.1871 7.83978C15.5009 8.16047 15.6567 8.59568 15.6567 9.15917V11.8255H15.6544Z" fill="#000100"/>
</svg>
