<svg width="32" height="32" viewBox="0 0 32 32" fill="none" xmlns="http://www.w3.org/2000/svg">
<path d="M30.0259 24.2588C30.5792 24.2588 31.0308 23.8107 30.9984 23.2593C30.8949 21.5 30.519 19.7686 29.8838 18.1359C29.1286 16.1946 28.0216 14.4308 26.6262 12.9451C25.2307 11.4593 23.5741 10.2808 21.7509 9.47672C19.9276 8.67264 17.9735 8.25879 16 8.25879C14.0265 8.25879 12.0724 8.67264 10.2491 9.47672C8.4259 10.2808 6.76926 11.4593 5.37381 12.9451C3.97836 14.4308 2.87142 16.1946 2.11621 18.1359C1.48099 19.7687 1.10506 21.5 1.00164 23.2594C0.969233 23.8107 1.42084 24.2588 1.97414 24.2588L16 24.2588H30.0259Z" fill="#1B5BFF"/>
<rect x="6.72266" y="4.51758" width="2" height="10" rx="1" transform="rotate(-15 6.72266 4.51758)" fill="#1B5BFF"/>
<rect x="24.3115" y="4.25879" width="2" height="10" rx="1" transform="rotate(15 24.3115 4.25879)" fill="#1B5BFF"/>
<circle cx="9.5" cy="16.7588" r="1.5" fill="#1B1A1E"/>
<circle cx="22.5" cy="16.7588" r="1.5" fill="#1B1A1E"/>
</svg>
