<svg width="32" height="32" viewBox="0 0 32 32" fill="none" xmlns="http://www.w3.org/2000/svg">
<rect x="1" y="1" width="30" height="30" rx="8" fill="#1B5BFF"/>
<path d="M7.71484 13.6367H9.21484V20H7.71484V13.6367ZM8.47656 12.7344C8.32031 12.7344 8.17578 12.6973 8.04297 12.623C7.91016 12.5488 7.80469 12.4492 7.72656 12.3242C7.64844 12.1992 7.60938 12.0625 7.60938 11.9141C7.60938 11.7695 7.64844 11.6348 7.72656 11.5098C7.80469 11.3848 7.91016 11.2871 8.04297 11.2168C8.17578 11.1426 8.32031 11.1055 8.47656 11.1055C8.63281 11.1055 8.77734 11.1426 8.91016 11.2168C9.04297 11.2871 9.14844 11.3848 9.22656 11.5098C9.30469 11.6348 9.34375 11.7695 9.34375 11.9141C9.34375 12.0625 9.30469 12.1992 9.22656 12.3242C9.14844 12.4492 9.04297 12.5488 8.91016 12.623C8.77734 12.6973 8.63281 12.7344 8.47656 12.7344ZM18.0629 15.7578C18.0629 16.6523 17.895 17.4277 17.559 18.084C17.227 18.7402 16.7641 19.2441 16.1704 19.5957C15.5805 19.9434 14.9145 20.1172 14.1723 20.1172C13.4262 20.1172 12.7582 19.9434 12.1684 19.5957C11.5786 19.2441 11.1157 18.7402 10.7797 18.084C10.4477 17.4238 10.2817 16.6484 10.2817 15.7578C10.2817 14.8633 10.4477 14.0879 10.7797 13.4316C11.1157 12.7715 11.5786 12.2676 12.1684 11.9199C12.7582 11.5723 13.4262 11.3984 14.1723 11.3984C14.9145 11.3984 15.5805 11.5742 16.1704 11.9258C16.7641 12.2734 17.227 12.7754 17.559 13.4316C17.895 14.0879 18.0629 14.8633 18.0629 15.7578ZM11.8168 15.7578C11.8168 16.3906 11.9145 16.9316 12.1098 17.3809C12.309 17.8301 12.5864 18.1699 12.9418 18.4004C13.2973 18.6309 13.7075 18.7461 14.1723 18.7461C14.6411 18.7461 15.0512 18.6309 15.4028 18.4004C15.7582 18.1699 16.0336 17.8301 16.2289 17.3809C16.4282 16.9316 16.5278 16.3906 16.5278 15.7578C16.5278 15.125 16.4282 14.584 16.2289 14.1348C16.0336 13.6855 15.7582 13.3457 15.4028 13.1152C15.0512 12.8848 14.6411 12.7695 14.1723 12.7695C13.7075 12.7695 13.2973 12.8848 12.9418 13.1152C12.5864 13.3457 12.309 13.6855 12.1098 14.1348C11.9145 14.584 11.8168 15.125 11.8168 15.7578ZM23.8173 13.8477C23.7782 13.4883 23.6161 13.207 23.3309 13.0039C23.0497 12.8008 22.6825 12.6992 22.2294 12.6992C21.9091 12.6992 21.6298 12.7461 21.3915 12.8398C21.1571 12.9336 20.9774 13.0645 20.8524 13.2324C20.7274 13.4004 20.6649 13.5918 20.6649 13.8066C20.6649 14.127 20.7997 14.377 21.0692 14.5566C21.3388 14.7324 21.6884 14.8711 22.1181 14.9727L22.9149 15.1836C23.6454 15.3516 24.2411 15.6309 24.702 16.0215C25.1669 16.4082 25.3993 16.9414 25.3993 17.6211C25.3993 18.1172 25.2724 18.5547 25.0184 18.9336C24.7645 19.3125 24.3954 19.6074 23.911 19.8184C23.4306 20.0254 22.8563 20.1289 22.1884 20.1289C21.5321 20.1289 20.9599 20.0273 20.4716 19.8242C19.9872 19.6172 19.6083 19.3164 19.3349 18.9219C19.0614 18.5273 18.9149 18.0547 18.8954 17.5039H20.3954C20.4306 17.9297 20.6102 18.2559 20.9345 18.4824C21.2587 18.709 21.6727 18.8242 22.1766 18.8281C22.5087 18.8281 22.8016 18.7773 23.0556 18.6758C23.3134 18.5703 23.5145 18.4258 23.6591 18.2422C23.8036 18.0586 23.8759 17.8477 23.8759 17.6094C23.872 17.2969 23.7431 17.0547 23.4891 16.8828C23.2352 16.707 22.8524 16.5547 22.3407 16.4258L21.3798 16.1797C19.872 15.7852 19.1181 15.0234 19.1181 13.8945C19.1181 13.4023 19.2528 12.9688 19.5224 12.5938C19.7919 12.2148 20.163 11.9219 20.6356 11.7148C21.1083 11.5039 21.6415 11.3984 22.2352 11.3984C22.8251 11.3984 23.3485 11.502 23.8056 11.709C24.2665 11.916 24.6259 12.207 24.8837 12.582C25.1415 12.9531 25.2743 13.375 25.2821 13.8477H23.8173Z" fill="#1B1A1E"/>
</svg>
