<svg width="149" height="22" viewBox="0 0 149 22" fill="none" xmlns="http://www.w3.org/2000/svg">
<path d="M139.017 21.5514V3.71922H132.69V0.448242H148.859V3.71922H142.532V21.5514H139.017Z" fill="white"/>
<path d="M117.246 21.5514V0.448242H130.468V3.58733H120.788V9.46982H129.116V12.4506H120.788V18.4123H130.198V21.5514H117.246Z" fill="white"/>
<path d="M101.671 21.5514V0.448242H114.893V3.58733H105.213V9.46982H113.541V12.4506H105.213V18.4123H114.623V21.5514H101.671Z" fill="white"/>
<path d="M84.0674 21.5514V0.448242H89.34L91.6113 12.2132H91.9628L94.207 0.448242H99.3174V21.5514H96.1539V10.3931L96.3431 3.11251H95.9646L93.8014 14.561H89.6104L87.4202 3.11251H87.0417L87.231 10.3931V21.5514H84.0674Z" fill="white"/>
<path d="M73.9831 22C71.3153 22 69.2963 21.0855 67.9264 19.2566C66.5744 17.4101 65.8984 14.6579 65.8984 11C65.8984 7.34213 66.5744 4.59872 67.9264 2.76978C69.2963 0.923262 71.3153 0 73.9831 0C76.669 0 78.6879 0.923262 80.0399 2.76978C81.3918 4.59872 82.0678 7.34213 82.0678 11C82.0678 14.6579 81.3918 17.4101 80.0399 19.2566C78.6879 21.0855 76.669 22 73.9831 22ZM73.9831 18.7818C75.5334 18.7818 76.678 18.1487 77.4171 16.8825C78.1561 15.6163 78.5257 13.6555 78.5257 11C78.5257 8.34453 78.1561 6.38369 77.4171 5.11751C76.678 3.85132 75.5334 3.21822 73.9831 3.21822C72.4329 3.21822 71.2882 3.85132 70.5492 5.11751C69.8101 6.38369 69.4406 8.34453 69.4406 11C69.4406 13.6555 69.8101 15.6163 70.5492 16.8825C71.2882 18.1487 72.4329 18.7818 73.9831 18.7818Z" fill="white"/>
<path d="M49.9419 21.5514V0.448242H57.594C59 0.448242 60.2258 0.703238 61.2713 1.21323C62.3168 1.72322 63.1279 2.44424 63.7048 3.3763C64.2816 4.30835 64.57 5.41627 64.57 6.70004C64.57 7.8783 64.2726 8.91587 63.6777 9.81275C63.1009 10.7096 62.2897 11.4131 61.2442 11.9231C60.1987 12.4155 58.982 12.6617 57.594 12.6617H53.484V21.5514H49.9419ZM61.109 21.5514L55.4038 12.0813H59.1893L65.1108 21.5514H61.109ZM53.484 9.70724H57.594C58.6395 9.70724 59.4687 9.43465 60.0815 8.88949C60.7125 8.34432 61.0279 7.61451 61.0279 6.70004C61.0279 5.78557 60.7125 5.05576 60.0815 4.51059C59.4687 3.96543 58.6395 3.69285 57.594 3.69285H53.484V9.70724Z" fill="white"/>
<path d="M33.4751 21.5514V0.448242H41.1272C42.5332 0.448242 43.759 0.712031 44.8045 1.23961C45.85 1.7496 46.6521 2.47942 47.2109 3.42906C47.7878 4.3787 48.0762 5.4954 48.0762 6.77918C48.0762 8.04536 47.7878 9.15328 47.2109 10.1029C46.6521 11.035 45.85 11.756 44.8045 12.266C43.759 12.776 42.5332 13.031 41.1272 13.031H37.0172V21.5514H33.4751ZM37.0172 9.91827H41.2083C42.2538 9.91827 43.065 9.64568 43.6418 9.10052C44.2366 8.53777 44.5341 7.77278 44.5341 6.80556C44.5341 5.83833 44.2366 5.08213 43.6418 4.53697C43.065 3.97422 42.2538 3.69285 41.2083 3.69285H37.0172V9.91827Z" fill="white"/>
<path d="M18.1016 21.5514V0.448242H31.3237V3.58733H21.6437V9.46982H29.9717V12.4506H21.6437V18.4123H31.0533V21.5514H18.1016Z" fill="white"/>
<path d="M0.859375 21.5518V0.44873H7.13244C10.0887 0.44873 12.3149 1.33682 13.8111 3.113C15.3253 4.88918 16.0824 7.51827 16.0824 11.0003C16.0824 14.4823 15.3253 17.1114 13.8111 18.8876C12.3149 20.6638 10.0887 21.5518 7.13244 21.5518H0.859375ZM4.40149 18.3072H7.13244C8.95307 18.3072 10.305 17.7093 11.1883 16.5135C12.0896 15.3 12.5403 13.4623 12.5403 11.0003C12.5403 8.52067 12.0896 6.68294 11.1883 5.4871C10.305 4.29126 8.95307 3.69333 7.13244 3.69333H4.40149V18.3072Z" fill="white"/>
</svg>
