<svg width="46" height="21" viewBox="0 0 46 21" fill="none" xmlns="http://www.w3.org/2000/svg">
<path d="M31.8711 20.9668V0.966797H36.7075L38.7909 12.1168H39.1133L41.1718 0.966797H45.8594V20.9668H42.9576V10.3918L43.1312 3.4918H42.784L40.7998 14.3418H36.9555L34.9465 3.4918H34.5993L34.7729 10.3918V20.9668H31.8711Z" fill="black"/>
<path d="M16.9116 20.9668V0.966797H23.9306C25.2203 0.966797 26.3446 1.2168 27.3037 1.7168C28.2627 2.20013 28.9985 2.8918 29.511 3.7918C30.0401 4.6918 30.3047 5.75013 30.3047 6.9668C30.3047 8.1668 30.0401 9.2168 29.511 10.1168C28.9985 11.0001 28.2627 11.6835 27.3037 12.1668C26.3446 12.6501 25.2203 12.8918 23.9306 12.8918H20.1607V20.9668H16.9116ZM20.1607 9.9418H24.005C24.964 9.9418 25.7081 9.68346 26.2372 9.1668C26.7828 8.63346 27.0556 7.90846 27.0556 6.9918C27.0556 6.07513 26.7828 5.35846 26.2372 4.8418C25.7081 4.30846 24.964 4.0418 24.005 4.0418H20.1607V9.9418Z" fill="black"/>
<path d="M0.859375 20.9668V0.966797H6.61344C9.32512 0.966797 11.3672 1.80846 12.7395 3.4918C14.1284 5.17513 14.8229 7.6668 14.8229 10.9668C14.8229 14.2668 14.1284 16.7585 12.7395 18.4418C11.3672 20.1251 9.32512 20.9668 6.61344 20.9668H0.859375ZM4.10844 17.8918H6.61344C8.28344 17.8918 9.52354 17.3251 10.3337 16.1918C11.1605 15.0418 11.5738 13.3001 11.5738 10.9668C11.5738 8.6168 11.1605 6.87513 10.3337 5.7418C9.52354 4.60846 8.28344 4.0418 6.61344 4.0418H4.10844V17.8918Z" fill="black"/>
</svg>
