<svg width="161" height="161" viewBox="0 0 161 161" fill="none" xmlns="http://www.w3.org/2000/svg">
<rect x="0.703125" y="0.882812" width="160" height="160" rx="24" fill="#68E592"/>
<mask id="mask0_628_13528" style="mask-type:alpha" maskUnits="userSpaceOnUse" x="0" y="0" width="161" height="161">
<rect x="0.703125" y="0.882812" width="160" height="160" rx="24" fill="#68E592"/>
</mask>
<g mask="url(#mask0_628_13528)">
<g clip-path="url(#clip0_628_13528)">
<rect x="24.4062" y="145.602" width="109.433" height="41.2616" fill="#FF8E66"/>
<path d="M36.0487 144.077C36.1734 143.874 36.3048 143.683 36.4295 143.48C39.5098 138.357 41.5786 132.676 44.8625 127.684C44.9898 127.509 45.1585 127.368 45.3536 127.273C45.5487 127.179 45.7642 127.134 45.9807 127.143C46.1972 127.153 46.4081 127.215 46.5946 127.326C46.7811 127.436 46.9374 127.591 47.0495 127.776C47.5093 127.119 47.9821 126.463 48.4879 125.852C48.8863 125.366 49.3066 124.893 49.7488 124.433C48.1084 123.8 46.5169 123.048 44.9873 122.181C40.2197 119.453 36.5959 115.097 34.7811 109.912C33.0407 104.763 33.5069 98.8127 36.4427 94.2416L36.8105 93.2564C35.6743 88.2322 34.8402 82.9386 36.226 77.9735C38.3473 70.3352 45.2828 64.976 52.4745 61.6199C52.9802 61.3835 53.499 61.1536 54.0113 60.9631C54.3659 60.8055 54.7206 60.661 55.0818 60.5165L55.3905 60.3852C56.2509 60.0437 57.1178 59.7284 58.0176 59.4263L58.2277 59.354C64.3979 57.3097 70.8595 56.2827 77.3594 56.3132H79.842C87.8515 56.2593 95.7876 57.8416 103.164 60.9631C103.683 61.1864 104.195 61.4163 104.707 61.6199C111.892 64.976 118.828 70.3352 120.956 77.9735C122.328 82.9386 121.507 88.2322 120.365 93.2564L120.739 94.2416C123.668 98.839 124.141 104.75 122.401 109.912C120.572 115.097 116.934 119.449 112.155 122.167C111.577 122.502 110.973 122.824 110.355 123.126C111.276 123.967 112.134 124.873 112.923 125.839C113.429 126.463 113.909 127.106 114.362 127.763C114.474 127.578 114.63 127.423 114.817 127.312C115.003 127.202 115.214 127.139 115.431 127.13C115.647 127.121 115.863 127.166 116.058 127.26C116.253 127.355 116.422 127.496 116.549 127.671C119.833 132.676 121.895 138.344 124.975 143.466C125.093 143.67 125.225 143.861 125.35 144.064L136.705 130.541L136.994 131.047V108.605L136.909 108.822C137.401 89.3881 133.625 65.4752 117.941 50.9277L117.567 52.2938C117.466 52.6375 117.258 52.9402 116.974 53.1575C116.689 53.3749 116.342 53.4957 115.984 53.5022L106.073 53.9751L97.2989 54.3954C95.8869 54.4611 94.442 54.6384 93.1153 54.0605C91.9317 53.4853 90.7905 52.8269 89.7001 52.0902L74.7915 42.7969C74.4833 42.6087 74.2436 42.3265 74.1077 41.992C73.9718 41.6574 73.9467 41.2881 74.0362 40.9383L74.6075 38.6724L74.7652 38.0156C60.973 39.027 42.8528 44.0776 31.1885 61.4491C17.4818 81.8418 17.9678 117.57 21.2188 136.301V136.59L24.6997 130.554L36.0487 144.077Z" fill="#FF8E66"/>
<path d="M71.666 116.52C74.9176 117.047 78.0074 118.305 80.7031 120.198C83.3965 118.297 86.4867 117.032 89.7403 116.5C97.1224 115.338 104.846 118.057 110.356 123.12C110.974 122.818 111.578 122.464 112.156 122.161C116.919 119.437 120.542 115.089 122.362 109.913C124.102 104.764 123.63 98.8134 120.7 94.2422L120.326 93.2571C121.469 88.2328 122.296 82.9393 120.917 77.9741C118.789 70.3359 111.854 64.9766 104.669 61.6205C104.156 61.3841 103.644 61.1542 103.125 60.9638C95.7489 57.8422 87.8128 56.2599 79.8034 56.3138H77.3208C70.8208 56.2833 64.3592 57.3104 58.1891 59.3547L57.9789 59.4269C57.1054 59.729 56.2385 60.0443 55.3518 60.3858L55.0432 60.5172C54.6819 60.6617 54.3273 60.8061 53.9726 60.9638C53.4604 61.1871 52.9415 61.4169 52.4358 61.6205C45.2114 64.9766 38.3087 70.3359 36.1873 77.9741C34.8081 82.9393 35.6356 88.2328 36.7718 93.2571L36.4041 94.2422C33.4683 98.8396 33.002 104.751 34.7425 109.913C36.5666 115.097 40.1999 119.448 44.9749 122.168C46.5045 123.035 48.0961 123.788 49.7365 124.421C55.2993 118.549 63.6731 115.259 71.666 116.52ZM88.4136 83.4187C90.3445 77.7639 97.7594 76.1417 105.437 78.7557C113.115 81.3696 118.75 86.2494 116.208 92.8893C113.542 99.8576 106.494 101.014 98.8234 98.3996C91.1523 95.7857 86.4893 89.0472 88.4136 83.4187ZM78.4833 91.4116C82.2465 91.4116 85.2939 93.3819 85.2939 95.7988C85.2939 98.2157 82.2465 100.961 78.4833 100.961C74.72 100.961 71.6726 98.2223 71.6726 95.7988C71.6726 93.3753 74.72 91.3787 78.4833 91.3787V91.4116ZM40.7584 92.8893C38.2167 86.2494 43.8518 81.3696 51.5295 78.7557C59.2071 76.1417 66.6351 77.7639 68.5529 83.4187C70.4707 89.0735 65.8207 95.7857 58.1431 98.3996C50.4655 101.014 43.4249 99.8379 40.7584 92.8565V92.8893ZM63.9752 103.273C63.9717 103.107 64.0015 102.942 64.0627 102.788C64.1239 102.634 64.2153 102.494 64.3317 102.376C64.448 102.258 64.5868 102.164 64.7399 102.1C64.893 102.037 65.0573 102.004 65.2231 102.005C69.6719 102.52 74.1499 102.739 78.6277 102.662C82.9493 102.662 87.3431 102.741 91.6186 102.071C91.9337 101.991 92.2673 102.036 92.55 102.197C92.8326 102.357 93.0425 102.62 93.1358 102.931C93.2207 103.247 93.178 103.582 93.017 103.866C92.8559 104.15 92.5895 104.36 92.2754 104.448C87.8291 105.145 83.3039 105.105 78.8182 105.105C74.277 105.189 69.7352 104.969 65.2231 104.448C64.8998 104.445 64.5901 104.318 64.3579 104.093C64.1256 103.868 63.9887 103.563 63.9752 103.24V103.273Z" fill="#FFE7DC"/>
<path d="M78.4826 100.924C82.2458 100.924 85.2933 98.1857 85.2933 95.7622C85.2933 93.3387 82.2458 91.375 78.4826 91.375C74.7193 91.375 71.6719 93.3453 71.6719 95.7622C71.6719 98.1791 74.7193 100.924 78.4826 100.924Z" fill="#262626"/>
<path d="M92.2597 104.435C92.5738 104.346 92.8402 104.137 93.0012 103.853C93.1623 103.569 93.205 103.233 93.1201 102.918C93.0267 102.607 92.8169 102.344 92.5342 102.183C92.2516 102.023 91.9179 101.978 91.6029 102.058C87.3274 102.715 82.9336 102.649 78.6121 102.649C74.1342 102.726 69.6562 102.507 65.2074 101.992C64.8804 101.994 64.5674 102.125 64.3362 102.356C64.1051 102.587 63.9744 102.9 63.9727 103.227C63.981 103.551 64.114 103.86 64.344 104.088C64.5739 104.317 64.8831 104.448 65.2074 104.455C69.7195 104.976 74.2612 105.195 78.8025 105.112C83.2882 105.092 87.8134 105.125 92.2597 104.435Z" fill="#262626"/>
<path d="M98.8239 98.3675C106.495 100.995 113.542 99.8255 116.209 92.8572C118.75 86.2173 113.115 81.3375 105.438 78.7236C97.7599 76.1096 90.3319 77.7319 88.4141 83.3866C86.4964 89.0414 91.1463 95.7536 98.8239 98.3675ZM91.987 84.8184C92.5715 82.5722 95.2708 81.3375 98.0752 82.06C100.88 82.7824 102.627 85.1927 102.016 87.4389C101.405 89.685 98.732 90.9132 95.9341 90.1907C93.1363 89.4683 91.4024 87.0645 91.987 84.8184Z" fill="#FF9676"/>
<path d="M102.036 87.4186C102.621 85.1722 100.845 82.7647 98.0682 82.0415C95.2917 81.3183 92.5666 82.5531 91.9814 84.7996C91.3962 87.0461 93.1727 89.4535 95.9492 90.1767C98.7257 90.8999 101.451 89.6651 102.036 87.4186Z" fill="#262626"/>
<path d="M68.551 83.4179C66.6267 77.7631 59.2052 76.1409 51.5276 78.7548C43.8499 81.3688 38.2148 86.2485 40.7565 92.8884C43.423 99.8568 50.4701 101.013 58.1412 98.3987C65.8123 95.7848 70.4753 89.0464 68.551 83.4179ZM60.9325 90.222C58.1543 90.9444 55.4288 89.7163 54.8442 87.4701C54.2597 85.224 56.0396 82.8136 58.7849 82.0912C61.5302 81.3687 64.282 82.6035 64.8665 84.8496C65.4511 87.0958 63.7106 89.4667 60.9325 90.1891V90.222Z" fill="#FF9676"/>
<path d="M60.9276 90.2007C63.7041 89.4775 65.4805 87.0701 64.8954 84.8236C64.3102 82.5771 61.585 81.3423 58.8085 82.0655C56.032 82.7887 54.2556 85.1961 54.8408 87.4426C55.4259 89.6891 58.1511 90.9239 60.9276 90.2007Z" fill="#262626"/>
<path d="M67.1329 181.084C66.3448 182.065 65.5414 183.028 64.7226 183.974L27.7071 157.703C27.5363 157.847 27.3787 158.005 27.2079 158.149C26.0126 159.174 24.259 157.44 25.4675 156.402C29.6038 152.868 33.1723 148.719 36.0481 144.101L24.6925 130.578L21.2182 136.614L18.8079 140.797C15.524 147.877 13.2253 155.509 13.2188 163.292C13.2122 171.075 15.6948 179.054 21.054 184.709C25.9338 189.852 32.935 192.8 40.0149 193.201C51.8762 193.858 59.232 189.451 63.2383 185.76C64.7615 184.403 66.0741 182.827 67.1329 181.084Z" fill="#FF8E66"/>
<path d="M38.4039 144.962C41.563 139.78 43.658 134.007 46.9747 128.924C47.0969 128.759 47.1677 128.563 47.1782 128.358C47.1888 128.154 47.1385 127.951 47.0339 127.775C46.9217 127.589 46.7654 127.434 46.579 127.324C46.3925 127.213 46.1815 127.151 45.965 127.142C45.7485 127.133 45.533 127.177 45.3379 127.272C45.1428 127.366 44.9741 127.507 44.8468 127.683C41.563 132.687 39.5073 138.355 36.427 143.478C36.3022 143.681 36.1709 143.872 36.0461 144.076C33.1704 148.694 29.6018 152.843 25.4655 156.377C24.2571 157.415 26.0107 159.148 27.206 158.124C27.3768 157.979 27.5344 157.822 27.7051 157.677C31.8913 154.002 35.4982 149.715 38.4039 144.962Z" fill="#FF6B43"/>
<path d="M142.603 140.774L136.994 131.06L136.705 130.555L125.35 144.078C128.228 148.696 131.799 152.845 135.937 156.379C137.139 157.417 135.392 159.15 134.196 158.126C134.026 157.981 133.862 157.824 133.697 157.679L96.6819 183.95C95.8631 183.004 95.0596 182.041 94.2715 181.06C95.5315 183.102 97.1255 184.918 98.9871 186.433C103.151 189.946 110.303 193.782 121.389 193.151C128.469 192.751 135.477 189.802 140.357 184.659C145.71 179.005 148.199 171.031 148.192 163.242C148.186 155.453 145.854 147.854 142.603 140.774Z" fill="#FF8E66"/>
<path d="M123.017 144.958C119.858 139.777 117.763 134.003 114.479 128.92C114.357 128.756 114.286 128.56 114.274 128.355C114.262 128.151 114.311 127.948 114.414 127.771C113.961 127.114 113.481 126.457 112.975 125.846C112.186 124.881 111.328 123.975 110.407 123.134C104.884 118.07 97.1735 115.351 89.7914 116.514C86.5211 117.032 83.4123 118.29 80.7017 120.192C78.0077 118.292 74.9178 117.027 71.6646 116.494C63.6717 115.233 55.2979 118.523 49.7351 124.408C49.2972 124.846 48.8769 125.319 48.4741 125.827C47.9684 126.451 47.4955 127.094 47.0357 127.751C47.1404 127.927 47.1906 128.13 47.1801 128.335C47.1696 128.539 47.0988 128.736 46.9766 128.9C43.6337 133.984 41.5648 139.757 38.4058 144.939C35.5001 149.692 31.8931 153.978 27.707 157.654L64.7225 183.925C65.5457 182.979 66.3491 182.016 67.1329 181.035C67.8947 180.089 68.6369 179.124 69.3659 178.152C69.1644 178.124 68.9726 178.048 68.8074 177.93C68.6422 177.811 68.5086 177.654 68.4185 177.472C68.3283 177.289 68.2843 177.088 68.2903 176.885C68.2963 176.681 68.3522 176.483 68.453 176.306C70.6072 173.351 72.6366 170.31 74.5741 167.216C76.17 164.675 77.7528 162.107 79.27 159.506C77.7134 156.787 76.2357 154.022 74.9222 151.198C72.2951 145.497 70.5087 139.376 71.5529 133.045C71.5701 132.856 71.6412 132.677 71.7577 132.528C71.8741 132.379 72.0311 132.266 72.2097 132.204C72.4259 132.144 72.6536 132.139 72.8723 132.189C73.091 132.239 73.2938 132.342 73.4625 132.49C73.6312 132.638 73.7605 132.826 73.8388 133.036C73.917 133.246 73.9417 133.473 73.9107 133.695C73.4208 137.046 73.6787 140.464 74.666 143.704C76.3342 149.615 79.5327 154.974 82.5998 160.235C85.7653 165.766 89.2135 171.13 92.9308 176.306C93.0933 176.588 93.1375 176.924 93.0538 177.239C92.9702 177.554 92.7654 177.823 92.4842 177.987C92.3391 178.072 92.1781 178.125 92.0113 178.145C92.7403 179.117 93.489 180.115 94.2509 181.035C95.0127 181.954 95.8402 183.005 96.6612 183.925L133.677 157.654C129.504 153.983 125.911 149.703 123.017 144.958Z" fill="#FF8E66"/>
<path d="M92.9496 176.357C89.2316 171.172 85.7833 165.799 82.6186 160.26C79.5515 155.005 76.353 149.64 74.6848 143.729C73.6975 140.489 73.4396 137.071 73.9296 133.72C73.9606 133.497 73.9358 133.271 73.8576 133.061C73.7794 132.851 73.6501 132.663 73.4814 132.515C73.3126 132.367 73.1098 132.264 72.8911 132.214C72.6724 132.164 72.4447 132.169 72.2285 132.229C72.0499 132.291 71.893 132.403 71.7765 132.552C71.66 132.702 71.5889 132.881 71.5717 133.069C70.5275 139.381 72.2876 145.548 74.941 151.222C76.2545 154.047 77.7322 156.812 79.2888 159.531C77.7716 162.158 76.1888 164.699 74.5929 167.241C72.6226 170.334 70.6523 173.375 68.4718 176.331C68.371 176.507 68.3152 176.706 68.3091 176.909C68.3031 177.113 68.3471 177.314 68.4373 177.496C68.5274 177.679 68.661 177.836 68.8262 177.955C68.9914 178.073 69.1832 178.149 69.3847 178.176C69.6224 178.191 69.8598 178.143 70.073 178.037C70.2862 177.931 70.4679 177.77 70.5997 177.572C74.2579 172.554 77.5483 167.274 80.6877 161.915C81.9487 164.036 83.2491 166.138 84.5495 168.22C86.5198 171.405 88.6215 174.531 90.8414 177.572C90.9734 177.768 91.1544 177.926 91.3663 178.031C91.5782 178.136 91.8138 178.184 92.0498 178.17C92.2166 178.15 92.3776 178.097 92.5227 178.012C92.7936 177.845 92.9893 177.579 93.0688 177.27C93.1484 176.962 93.1056 176.635 92.9496 176.357Z" fill="#FF6B43"/>
<path d="M116.549 127.683C116.422 127.507 116.253 127.366 116.058 127.272C115.863 127.177 115.648 127.133 115.431 127.142C115.215 127.151 115.004 127.213 114.817 127.324C114.631 127.434 114.474 127.589 114.362 127.775C114.259 127.951 114.211 128.155 114.222 128.359C114.234 128.563 114.306 128.76 114.428 128.924C117.764 134.007 119.833 139.78 122.966 144.962C125.872 149.717 129.481 154.004 133.671 157.677C133.835 157.822 134 157.979 134.17 158.124C135.366 159.148 137.113 157.415 135.911 156.377C131.773 152.843 128.202 148.694 125.324 144.076C125.199 143.872 125.068 143.681 124.949 143.478C121.895 138.355 119.84 132.674 116.549 127.683Z" fill="#FF6B43"/>
<path d="M123.079 46.1393C122.566 46.6062 122.153 47.1734 121.867 47.806C121.581 48.4386 121.428 49.1231 121.418 49.8172C121.28 52.2473 123.092 54.3292 124.176 54.4146C125.089 54.4671 127.296 52.615 127.46 50.185C127.581 48.8636 127.194 47.5458 126.376 46.5005C126.521 42.9977 126.667 39.495 126.816 35.9922L123.532 36.1433C123.375 39.4621 123.224 42.7941 123.079 46.1393Z" fill="#FFCA5F"/>
<path d="M74.0368 40.9009L74.0284 40.8988L74.5998 38.679L74.5998 38.6789L74.7574 38.0222L74.7575 38.0222C75.8603 33.6019 76.9676 29.1795 78.0792 24.7549L72.6597 21.376C72.6597 21.3759 72.6596 21.3759 72.6596 21.3759C72.3509 21.1876 72.111 20.9049 71.9754 20.5696C71.8399 20.2343 71.8159 19.8643 71.9071 19.5144C71.9071 19.5144 71.9071 19.5143 71.9071 19.5143L72.0318 19.0087L72.032 19.0083L72.032 19.0083C72.1365 18.664 72.3474 18.3616 72.6343 18.1446C72.9213 17.9276 73.2696 17.8071 73.6293 17.8003C73.6293 17.8003 73.6294 17.8003 73.6294 17.8003L86.9287 17.1435L86.9287 17.1435L98.6061 16.5853L98.6065 16.5939L98.6061 16.5853C98.9723 16.568 99.3451 16.539 99.7221 16.5096C99.8116 16.5026 99.9012 16.4957 99.991 16.4888C100.46 16.4531 100.934 16.4211 101.408 16.4145C102.355 16.4013 103.304 16.49 104.212 16.8551C105.568 17.4003 106.824 18.221 108.061 19.0284C108.478 19.3012 108.894 19.5724 109.31 19.831L109.305 19.8383L109.31 19.831L111.208 21.0132L111.233 21.0291H111.203H110.908C108.113 21.1439 105.329 21.429 102.569 21.8827C102.153 22.0018 101.8 22.2791 101.587 22.6552C101.373 23.0315 101.315 23.4765 101.426 23.8948C101.549 24.308 101.827 24.6577 102.202 24.8707C102.577 25.0838 103.02 25.1438 103.438 25.0381L103.439 25.038L103.439 25.038C105.761 24.6559 108.103 24.4081 110.454 24.2957C110.574 24.29 110.695 24.284 110.816 24.2781C112.894 24.1758 115.064 24.0689 117.071 24.6902L117.071 24.6903L117.327 24.7822L117.329 24.7829L117.329 24.783L121.027 27.0883L126.826 30.7005L129.321 32.257C129.321 32.257 129.321 32.257 129.321 32.257C129.67 32.4619 129.926 32.792 130.039 33.1798C130.152 33.5671 130.113 33.9828 129.93 34.3422C129.897 34.7401 129.719 35.112 129.429 35.387C129.139 35.6623 128.758 35.821 128.358 35.8327C128.358 35.8327 128.358 35.8327 128.358 35.8327L126.815 35.9115L126.815 35.9115L123.531 36.0626L121.974 36.1411L121.891 36.4437L121.891 36.4437L119.92 43.6681L117.95 50.8926L117.942 50.8903L117.95 50.8926L117.576 52.2587L117.576 52.2589C117.475 52.6044 117.266 52.9086 116.979 53.1271C116.693 53.3455 116.345 53.4669 115.985 53.4735C115.985 53.4735 115.985 53.4735 115.985 53.4735L106.074 53.9464L97.3 54.3667C97.1203 54.3751 96.9397 54.3852 96.7588 54.3954C95.5193 54.4653 94.2607 54.5363 93.1124 54.031L93.1121 54.0309C91.9283 53.4556 90.7867 52.797 89.6961 52.0601C89.696 52.0601 89.696 52.06 89.6959 52.06L74.7876 42.7669L74.0368 40.9009ZM74.0368 40.9009L74.0284 40.8988C73.9385 41.2504 73.9637 41.6216 74.1003 41.9579M74.0368 40.9009L74.1003 41.9579M74.1003 41.9579C74.237 42.2941 74.4778 42.5776 74.7875 42.7668L74.1003 41.9579ZM96.231 32.4227L96.2311 32.4228C96.3578 32.4996 96.4818 32.5764 96.6041 32.6521C97.5277 33.2241 98.3569 33.7376 99.5194 33.7376C100.475 33.7376 101.431 33.682 102.386 33.6264C102.745 33.6056 103.103 33.5847 103.46 33.5668L119.827 32.7918C120.353 32.7657 120.747 32.9503 121.008 33.2429C121.27 33.5358 121.4 33.9376 121.399 34.3463C121.398 35.1639 120.871 36.0062 119.826 36.0585L110.264 36.5116L101.68 36.9188C101.455 36.93 101.226 36.9447 100.995 36.9596C99.8708 37.0316 98.6833 37.1077 97.6174 36.8141C96.3364 36.3563 95.1274 35.7176 94.0273 34.9173L94.0268 34.917L79.6371 25.9521C78.7454 25.3871 78.7107 24.3977 79.1235 23.688C79.3299 23.3332 79.6479 23.0491 80.0258 22.9234C80.4035 22.7979 80.8417 22.8303 81.2895 23.1098L89.3087 28.1078L96.231 32.4227Z" fill="#222222" stroke="#212121" stroke-width="0.0172322"/>
<path d="M79.6314 25.9426L94.0212 34.9075C95.1221 35.7083 96.3319 36.3475 97.6138 36.8056C98.9273 37.1603 100.366 36.9764 101.679 36.9107L110.263 36.5035L119.826 36.0503C121.927 35.9452 121.94 32.6614 119.826 32.7665L103.459 33.5415C102.145 33.6071 100.832 33.7188 99.5184 33.7122C98.2048 33.7057 97.3182 33.0949 96.2345 32.3987L89.3122 28.0837L81.293 23.0857C79.4935 21.9823 77.8384 24.8261 79.6314 25.9426Z" fill="#575757"/>
<path d="M102.537 21.8992C102.118 22.0189 101.764 22.2977 101.549 22.6759C101.334 23.0542 101.276 23.5015 101.387 23.9221C101.511 24.3375 101.791 24.689 102.168 24.9031C102.545 25.1173 102.99 25.1776 103.41 25.0714C105.732 24.6806 108.074 24.424 110.425 24.303C112.612 24.1979 114.917 24.0534 117.038 24.697L117.294 24.789C118.687 25.2652 119.951 26.0537 120.992 27.0943L126.791 30.7065C126.214 28.6354 125.146 26.7339 123.678 25.1631C122.21 23.5922 120.386 22.3984 118.358 21.6825C116.079 20.8747 113.597 20.9009 111.2 20.9863H110.904C108.099 21.1196 105.305 21.4245 102.537 21.8992Z" fill="#FFCA5F"/>
</g>
</g>
<defs>
<clipPath id="clip0_628_13528">
<rect width="134.979" height="176.815" fill="white" transform="translate(13.2129 16.4297)"/>
</clipPath>
</defs>
</svg>
