<svg width="171" height="171" viewBox="0 0 171 171" fill="none" xmlns="http://www.w3.org/2000/svg">
<g clip-path="url(#clip0_628_13604)">
<rect x="0.996094" y="0.984375" width="170" height="170" rx="24" fill="#191919"/>
<rect width="169.904" height="169.904" transform="translate(0.994141 0.984375)" fill="white"/>
<path d="M89.9437 121.907C112.575 121.907 130.921 103.561 130.921 80.93C130.921 58.2991 112.575 39.9531 89.9437 39.9531C67.3128 39.9531 48.9668 58.2991 48.9668 80.93C48.9668 103.561 67.3128 121.907 89.9437 121.907Z" fill="#43D7B3"/>
<path d="M48.5057 115.378C38.5525 105.46 32.9628 91.9864 32.9746 77.9388C32.9746 48.7321 56.738 24.9688 85.9447 24.9688C115.151 24.9688 138.919 48.7321 138.915 77.9388C138.915 107.15 115.151 130.909 85.9447 130.909C71.8972 130.921 58.4232 125.331 48.5057 115.378ZM117.774 46.1093C100.182 28.5449 71.6835 28.5647 54.1152 46.1528C36.5468 63.741 36.5666 92.2435 54.1587 109.812C71.7508 127.38 100.249 127.36 117.818 109.768C126.252 101.322 130.987 89.8739 130.979 77.9388C130.987 65.9958 126.236 54.5394 117.774 46.1093Z" fill="#283237"/>
<path d="M55.9058 63.3154C58.5591 59.5774 59.2348 55.5019 57.415 54.2124C55.5953 52.9229 51.9692 54.9079 49.3159 58.6458C46.6626 62.3838 45.9869 66.4594 47.8067 67.7489C49.6264 69.0383 53.2525 67.0534 55.9058 63.3154Z" fill="#283237"/>
<path d="M64.9122 50.8082C66.9207 49.2135 67.9203 47.1302 67.1447 46.155C66.3692 45.1799 64.1122 45.682 62.1036 47.2767C60.0951 48.8713 59.0955 50.9546 59.8711 51.9298C60.6466 52.905 62.9036 52.4028 64.9122 50.8082Z" fill="#283237"/>
<path d="M85.4464 89.9402C53.5938 89.9402 32.5573 80.4279 26.19 74.0345C24.5773 72.4152 24.5773 69.7909 26.19 68.1716C27.8027 66.5523 30.4163 66.5523 32.029 68.1716C36.4103 72.5708 55.2303 81.6483 85.4464 81.6483C102.054 81.6483 114.614 78.7448 122.22 76.3119C132.103 73.1491 137.33 69.7071 138.864 68.1676C140.476 66.5483 143.09 66.5483 144.703 68.1676C146.315 69.7869 146.315 72.4112 144.703 74.0305C141.235 77.5124 133.767 81.3213 124.727 84.2128C116.56 86.8252 103.114 89.9402 85.4464 89.9402Z" fill="#283237"/>
<path d="M138.71 147.016H32.5449L37.0002 121.768C37.6734 117.949 40.8732 115.18 44.6038 115.18H126.655C130.386 115.18 133.582 117.953 134.259 121.768L138.71 147.016Z" fill="#283237"/>
<path d="M51.3913 134.203C50.6943 136.197 49.6924 138.069 48.4211 139.758L45.752 137.713C47.1974 135.738 48.235 133.495 48.8013 131.117C49.2567 129.316 49.534 127.477 49.625 125.621H46.9955V122.412H55.6842V125.621H53.1338C53.3041 127.524 53.609 129.415 54.0565 131.275C54.5397 133.586 55.4782 135.774 56.8247 137.713L54.1753 139.798C52.9397 138.108 51.9932 136.213 51.3913 134.203ZM57.1336 141.203V131.299H54.5238V128.09H57.1336V121.87H60.6661V141.199L57.1336 141.203ZM61.87 141.563V121.672H65.6441V141.563H61.87Z" fill="white"/>
<path d="M67.3984 140.255V136.888H74.6021V135.123H68.5627V127.142H80.7641V125.619H68.5627V122.148H84.5976V130.248H72.4754V131.914H84.5976V135.123H78.6177V136.888H85.7421V140.255H67.3984Z" fill="white"/>
<path d="M94.0936 141.561V135.848H86.791V132.801H105.135V135.848H97.7885V141.561H94.0936ZM90.0819 129.549C88.4583 128.587 87.6543 127.424 87.6543 126.078C87.6543 124.713 88.4583 123.574 90.0819 122.608C91.7056 121.643 93.6739 121.164 95.9827 121.164C98.2717 121.164 100.236 121.643 101.864 122.608C103.491 123.574 104.291 124.713 104.291 126.078C104.291 127.424 103.487 128.583 101.864 129.549C100.066 130.538 98.034 131.028 95.9827 130.973C93.6739 130.973 91.7056 130.49 90.0819 129.549ZM98.9528 127.764C99.7765 127.325 100.177 126.803 100.177 126.181C100.177 125.56 99.7765 125.038 98.9528 124.599C98.0301 124.151 97.0084 123.93 95.9827 123.958C94.949 123.93 93.9234 124.151 92.9927 124.599C92.169 125.038 91.769 125.56 91.769 126.181C91.769 126.803 92.169 127.325 92.9927 127.764C93.9194 128.223 94.949 128.441 95.9827 128.405C97.0084 128.445 98.0301 128.223 98.9528 127.764Z" fill="#43D7B3"/>
<path d="M118.694 141.562V136.648H113.978V141.562H110.766V136.648H107.154V132.956H125.498V136.648H121.906V141.562H118.694ZM116.508 127.424C115.364 129.07 112.794 130.625 108.802 132.097L107.717 128.908C111.19 127.602 113.257 126.38 113.918 125.24H108.239V122.031H124.314V125.24H119.055C119.819 126.546 121.744 127.808 124.837 128.991L123.771 132.18C120.1 130.792 117.673 129.209 116.508 127.424Z" fill="#43D7B3"/>
</g>
<defs>
<clipPath id="clip0_628_13604">
<rect x="0.996094" y="0.984375" width="170" height="170" rx="24" fill="white"/>
</clipPath>
</defs>
</svg>
