<svg width="330" height="221" viewBox="0 0 330 221" fill="none" xmlns="http://www.w3.org/2000/svg">
<rect y="0.5" width="330" height="220" rx="12" fill="#222437"/>
<path d="M54 95.0625H59.776C71.3279 95.0625 76.4004 102.061 76.4004 110.445C76.4004 118.829 71.3279 125.94 59.776 125.94H54V95.0625ZM60.3313 120.775C67.7734 120.775 71.2909 116.284 71.2909 110.445C71.2909 104.606 67.7734 100.19 60.3313 100.19H59.0725V120.775H60.3313Z" fill="white" fill-opacity="0.1"/>
<path d="M79.8066 95.1367H96.5051V100.002H84.8791V107.899H95.5424V112.428H84.8791V121.036H96.5051V125.939H79.8066V95.1367Z" fill="white" fill-opacity="0.1"/>
<path d="M100.023 95.1016H106.762C116.352 95.1016 119.869 100.753 119.869 106.891C119.869 113.029 116.204 118.681 107.317 118.681H105.096V125.979H100.023V95.1016ZM107.54 113.703C112.353 113.703 114.908 110.933 114.908 106.891C114.908 102.849 112.279 100.117 107.54 100.117H105.096V113.703H107.54Z" fill="white" fill-opacity="0.1"/>
<path d="M122.979 95.1016H129.717C139.307 95.1016 142.824 100.753 142.824 106.891C142.824 110.783 141.343 114.489 138.011 116.659L143.12 125.941H137.048L133.494 118.419C132.531 118.568 131.494 118.681 130.347 118.681H128.051V125.979H122.979V95.1016ZM130.495 113.703C135.308 113.703 137.863 110.933 137.863 106.891C137.863 102.849 135.234 100.117 130.495 100.117H128.051V113.703H130.495Z" fill="white" fill-opacity="0.1"/>
<path d="M160.966 126.5C151.747 126.5 145.119 119.052 145.119 110.481C145.119 101.911 151.747 94.5 160.966 94.5C170.185 94.5 176.776 101.948 176.776 110.481C176.776 119.015 170.148 126.5 160.966 126.5ZM160.966 121.373C167.075 121.373 171.703 116.47 171.703 110.481C171.703 104.493 167.075 99.6275 160.966 99.6275C154.857 99.6275 150.192 104.493 150.192 110.481C150.192 116.47 154.82 121.373 160.966 121.373Z" fill="white" fill-opacity="0.1"/>
<path d="M180.182 95.1367H186.698L197.435 119.951L208.025 95.1367H214.504V125.939H209.432V103.558L199.731 125.939H195.066L185.254 103.445V125.939H180.182V95.1367Z" fill="white" fill-opacity="0.1"/>
<path d="M219.096 95.1367H235.794V100.002H224.168V107.899H234.832V112.428H224.168V121.036H235.794V125.939H219.096V95.1367Z" fill="white" fill-opacity="0.1"/>
<path d="M239.312 95.1367H256.011V100.002H244.385V107.899H255.048V112.428H244.385V121.036H256.011V125.939H239.312V95.1367Z" fill="white" fill-opacity="0.1"/>
<path d="M264.262 99.9654H257.598V95.0625H275.999V99.9654H269.335V125.94H264.262V99.9654Z" fill="white" fill-opacity="0.1"/>
</svg>
