<svg width="772" height="230" viewBox="0 0 772 230" fill="none" xmlns="http://www.w3.org/2000/svg">
<path d="M260.581 133.023V139.625H263.198V141.656H260.581V150.836H258.081V133.023H260.581ZM255.6 134.664V136.676H249.741V144.469C252.319 144.439 254.448 144.322 256.811 143.902L257.084 145.992C254.331 146.461 251.909 146.539 248.764 146.52H247.26V134.664H255.6Z" fill="white"/>
<path d="M245.013 133.023V150.797H242.533V133.023H245.013ZM233.49 134.723V144.273C235.892 144.244 238.47 144.02 241.087 143.512L241.4 145.562C238.275 146.207 235.345 146.422 232.591 146.402H231.029V134.723H233.49Z" fill="white"/>
<path d="M227.688 133.023V137.301H230.091V139.371H227.688V143.434H225.188V133.023H227.688ZM218.528 144.117V145.465H225.188V144.117H227.688V150.602H216.048V144.117H218.528ZM218.528 148.648H225.188V147.379H218.528V148.648ZM224.134 134.586V136.539H213.587V134.586H217.63V132.906H220.11V134.586H224.134ZM218.86 137.047C221.438 137.047 223.235 138.297 223.235 140.191C223.235 142.086 221.438 143.336 218.86 143.336C216.243 143.336 214.446 142.086 214.446 140.191C214.446 138.297 216.243 137.047 218.86 137.047ZM218.86 138.883C217.669 138.863 216.868 139.352 216.888 140.191C216.868 141.051 217.669 141.52 218.86 141.52C220.052 141.52 220.872 141.051 220.872 140.191C220.872 139.352 220.052 138.863 218.86 138.883Z" fill="white"/>
<path d="M207.609 134V135.992H204.055C204.172 137.867 205.51 139.742 208.293 140.504L207.043 142.438C205.012 141.861 203.586 140.641 202.785 139.078C201.975 140.768 200.52 142.105 198.41 142.75L197.16 140.797C199.992 139.977 201.369 138.004 201.496 135.992H197.844V134H207.609ZM211.984 133.023V142.672H209.484V133.023H211.984ZM202.551 143.414V145.074H209.504V143.414H211.984V150.602H200.09V143.414H202.551ZM202.551 148.609H209.504V147.008H202.551V148.609Z" fill="white"/>
<path d="M196.886 146.676V148.727H180.616V146.676H187.472V143.043H182.335V134.332H195.069V143.043H189.952V146.676H196.886ZM184.796 136.324V141.09H192.608V136.324H184.796Z" fill="white"/>
<path d="M176.572 140.992V142.848H160.302V140.992H176.572ZM174.619 143.727V147.926H164.658V148.941H175.146V150.641H162.177V146.344H172.158V145.445H162.158V143.727H174.619ZM174.599 133.336V137.516H164.814V138.473H174.912V140.152H162.333V135.934H172.099V135.035H162.294V133.336H174.599Z" fill="white"/>
<path d="M154.169 134.586V136.598H152.431V144.449C153.173 144.41 153.896 144.342 154.599 144.254L154.755 146.051C151.142 146.676 147.04 146.754 143.993 146.754L143.759 144.703L145.771 144.684V136.598H144.247V134.586H154.169ZM158.837 133.023V150.797H156.376V141.48H153.642V139.488H156.376V133.023H158.837ZM148.192 144.645L150.028 144.586V136.598H148.192V144.645Z" fill="white"/>
<path d="M142.234 133.023V150.836H139.715V133.023H142.234ZM137.078 134.586V136.617H130.926V144.488C134.109 144.479 136.062 144.41 138.309 144L138.543 146.051C136.082 146.52 133.816 146.598 129.969 146.598H128.426V134.586H137.078Z" fill="white"/>
<path d="M121.159 133.023V136.559H123.561V138.629H121.159V141.91H118.659V133.023H121.159ZM116.295 133.668C116.295 138.434 113.249 141.285 107.877 142.398L106.959 140.348C111.159 139.557 113.19 137.75 113.502 135.68H107.858V133.668H116.295ZM121.159 142.594V147.496H111.842V148.648H121.667V150.621H109.401V145.641H118.678V144.566H109.362V142.594H121.159Z" fill="white"/>
<path d="M91.6647 134.273C94.067 134.273 95.8542 136.256 96.2155 139.449H99.3014V133.023H101.762V150.836H99.3014V141.441H96.235C95.9713 144.859 94.1452 146.949 91.6647 146.949C88.9694 146.949 87.0358 144.508 87.0553 140.602C87.0358 136.734 88.9694 134.273 91.6647 134.273ZM91.6647 136.52C90.3366 136.52 89.4186 137.965 89.4381 140.602C89.4186 143.258 90.3366 144.684 91.6647 144.684C93.0124 144.684 93.8913 143.258 93.8913 140.602C93.8913 137.965 93.0124 136.52 91.6647 136.52Z" fill="white"/>
<path d="M86.5273 139.957V141.91H70.2773V139.957H86.5273ZM84.5938 137.027V138.98H72.3086V133.375H84.457V135.367H74.7891V137.027H84.5938ZM84.5156 142.965V147.613H74.6133V148.707H84.9844V150.641H72.1719V145.836H82.0547V144.84H72.1523V142.965H84.5156Z" fill="white"/>
<path d="M62.8545 134.488V143.023H54.3193V134.488H62.8545ZM56.7803 136.48V141.07H60.3936V136.48H56.7803ZM67.8936 133.023V138.141H70.2959V140.191H67.8936V145.992H65.3936V133.023H67.8936ZM68.5381 148.492V150.484H56.3701V144.723H58.8506V148.492H68.5381Z" fill="white"/>
<path d="M41.603 133.277C45.6851 133.277 48.0483 134.352 48.0679 136.305C48.0483 138.277 45.6851 139.352 41.603 139.352C37.5015 139.352 35.1187 138.277 35.1187 136.305C35.1187 134.352 37.5015 133.277 41.603 133.277ZM41.603 135.094C38.9858 135.094 37.7163 135.523 37.7358 136.305C37.7163 137.184 38.9858 137.516 41.603 137.516C44.2397 137.516 45.4897 137.184 45.4897 136.305C45.4897 135.523 44.2397 135.094 41.603 135.094ZM49.7085 140.191V142.164H33.4976V140.191H49.7085ZM47.7358 143.199V147.73H37.8335V148.805H48.2046V150.68H35.3921V145.992H45.2749V145.016H35.3726V143.199H47.7358Z" fill="white"/>
<path d="M27.1104 134.215V136.207H23.5752C23.5947 138.277 24.835 140.279 27.6768 141.109L26.4854 143.062C24.5225 142.467 23.165 141.275 22.3838 139.742C21.5928 141.539 20.1475 142.965 18.0088 143.668L16.7393 141.695C19.6885 140.768 21.0166 138.463 21.0557 136.207H17.4229V134.215H27.1104ZM31.1143 133.023V137.145H33.5166V139.176H31.1143V143.57H28.6143V133.023H31.1143ZM25.2939 143.922C28.9854 143.902 31.29 145.172 31.29 147.34C31.29 149.508 28.9854 150.797 25.2939 150.797C21.5244 150.797 19.2002 149.508 19.2002 147.34C19.2002 145.172 21.5244 143.902 25.2939 143.922ZM25.2939 145.855C22.9502 145.855 21.6807 146.344 21.7002 147.34C21.6807 148.355 22.9502 148.863 25.2939 148.863C27.5986 148.863 28.8291 148.355 28.8291 147.34C28.8291 146.344 27.5986 145.855 25.2939 145.855Z" fill="white"/>
<path d="M7.24609 135.445C7.22656 137.828 8.45703 140.016 11.3086 140.895L10 142.848C8.08594 142.184 6.78711 140.953 6.05469 139.352C5.25391 141.207 3.81836 142.672 1.67969 143.395L0.371094 141.402C3.41797 140.426 4.70703 138.043 4.72656 135.562V133.941H7.24609V135.445ZM15.5078 133.023V143.434H13.0273V138.316H9.6875V136.285H13.0273V133.023H15.5078ZM9.43359 143.902C13.2227 143.902 15.5469 145.172 15.5664 147.359C15.5469 149.547 13.2227 150.797 9.43359 150.797C5.64453 150.797 3.32031 149.547 3.32031 147.359C3.32031 145.172 5.64453 143.902 9.43359 143.902ZM9.43359 145.836C7.07031 145.836 5.80078 146.344 5.80078 147.359C5.80078 148.336 7.07031 148.863 9.43359 148.863C11.7969 148.863 13.0859 148.336 13.0859 147.359C13.0859 146.344 11.7969 145.836 9.43359 145.836Z" fill="white"/>
<g clip-path="url(#clip0_653_3121)">
<path d="M0.000976562 1.93359H20.0867C60.2583 1.93359 77.8977 25.9921 77.8977 54.8108C77.8977 83.6295 60.2583 108.074 20.0867 108.074H0.000976562V1.93359ZM22.0181 90.3196C47.8978 90.3196 60.1295 74.881 60.1295 54.8108C60.1295 34.7406 47.8978 19.5593 22.0181 19.5593H17.6404V90.3196H22.0181Z" fill="white"/>
<path d="M89.7427 2.19629H147.811V18.9214H107.382V46.0676H144.464V61.6349H107.382V91.2255H147.811V108.079H89.7427V2.19629Z" fill="white"/>
<path d="M160.042 2.06445H183.475C216.823 2.06445 229.055 21.4914 229.055 42.5908C229.055 63.6902 216.308 83.1171 185.407 83.1171H177.681V108.205H160.042V2.06445ZM186.179 66.006C202.917 66.006 211.801 56.4855 211.801 42.5908C211.801 28.696 202.66 19.3042 186.179 19.3042H177.681V66.006H186.179Z" fill="white"/>
<path d="M239.872 2.06445H263.305C296.653 2.06445 308.885 21.4914 308.885 42.5908C308.885 55.9709 303.735 68.7077 292.147 76.1697L309.915 108.076H288.799L276.438 82.2165C273.091 82.7311 269.486 83.1171 265.494 83.1171H257.511V108.205H239.872V2.06445ZM266.009 66.006C282.747 66.006 291.632 56.4855 291.632 42.5908C291.632 28.696 282.49 19.3042 266.009 19.3042H257.511V66.006H266.009Z" fill="white"/>
<path d="M371.974 110.001C339.914 110.001 316.867 84.3986 316.867 54.9367C316.867 25.4747 339.914 0.000976562 371.974 0.000976562C404.034 0.000976562 426.952 25.6033 426.952 54.9367C426.952 84.27 403.905 110.001 371.974 110.001ZM371.974 92.3753C393.218 92.3753 409.313 75.5214 409.313 54.9367C409.313 34.3519 393.218 17.6267 371.974 17.6267C350.729 17.6267 334.506 34.3519 334.506 54.9367C334.506 75.5214 350.6 92.3753 371.974 92.3753Z" fill="white"/>
<path d="M438.798 2.19629H461.459L498.798 87.4945L535.622 2.19629H558.154V108.079H540.515V31.1437L506.781 108.079H490.558L456.438 30.7577V108.079H438.798V2.19629Z" fill="white"/>
<path d="M574.117 2.19629H632.185V18.9214H591.756V46.0676H628.838V61.6349H591.756V91.2255H632.185V108.079H574.117V2.19629Z" fill="white"/>
<path d="M644.419 2.19629H702.488V18.9214H662.059V46.0676H699.14V61.6349H662.059V91.2255H702.488V108.079H644.419V2.19629Z" fill="white"/>
<path d="M731.185 18.7874H708.009V1.93359H772V18.7874H748.824V108.074H731.185V18.7874Z" fill="white"/>
</g>
<g clip-path="url(#clip1_653_3121)">
<path d="M539.251 149.33L525 149.216L530.017 134.112L554.87 134.227V228.396H539.251V149.33Z" fill="white"/>
<path d="M565.36 194.985C565.132 185.831 567.413 178.508 575.735 165.693L596.142 134.227H613.357L594.66 162.603C596.712 162.26 598.65 162.031 600.474 162.031C622.364 162.031 635.588 176.334 635.588 195.442C635.588 214.551 621.68 229.998 600.474 229.998C579.269 229.998 565.93 214.436 565.36 194.985ZM600.474 214.551C611.647 214.551 620.197 206.084 620.197 194.756C620.197 183.428 611.647 175.19 600.474 175.19C589.302 175.19 580.751 183.542 580.751 194.756C580.751 205.969 589.302 214.551 600.474 214.551Z" fill="white"/>
<path d="M660.668 148.987H640.146V133.998H696.808V148.987H676.286V228.396H660.668V148.987Z" fill="white"/>
<path d="M705.017 134.112H720.635V172.444H755.977V134.112H771.71V228.396H755.977V187.318H720.635V228.396H705.017V134.112Z" fill="white"/>
</g>
<defs>
<clipPath id="clip0_653_3121">
<rect width="772" height="110" fill="white"/>
</clipPath>
<clipPath id="clip1_653_3121">
<rect width="246.71" height="96" fill="white" transform="translate(525 134)"/>
</clipPath>
</defs>
</svg>
