<svg width="296" height="89" viewBox="0 0 296 89" fill="none" xmlns="http://www.w3.org/2000/svg">
<path d="M156.33 53.3008V57.2634H157.9V58.4826H156.33V63.9928H154.829V53.3008H156.33ZM153.34 54.2856V55.4931H149.823V60.1709C151.37 60.1533 152.648 60.0829 154.067 59.8309L154.231 61.0853C152.578 61.3667 151.124 61.4136 149.237 61.4018H148.334V54.2856H153.34Z" fill="white"/>
<path d="M146.985 53.3008V63.9693H145.497V53.3008H146.985ZM140.068 54.3207V60.0536C141.511 60.036 143.058 59.9012 144.629 59.5964L144.817 60.8274C142.941 61.2143 141.182 61.3432 139.529 61.3315H138.591V54.3207H140.068Z" fill="white"/>
<path d="M136.587 53.3008V55.8683H138.029V57.111H136.587V59.5495H135.086V53.3008H136.587ZM131.088 59.9599V60.7688H135.086V59.9599H136.587V63.8521H129.599V59.9599H131.088ZM131.088 62.6797H135.086V61.9177H131.088V62.6797ZM134.453 54.2387V55.4111H128.122V54.2387H130.549V53.2305H132.038V54.2387H134.453ZM131.287 55.7159C132.835 55.7159 133.914 56.4662 133.914 57.6034C133.914 58.7406 132.835 59.4909 131.287 59.4909C129.716 59.4909 128.638 58.7406 128.638 57.6034C128.638 56.4662 129.716 55.7159 131.287 55.7159ZM131.287 56.8179C130.572 56.8062 130.092 57.0993 130.103 57.6034C130.092 58.1192 130.572 58.4006 131.287 58.4006C132.003 58.4006 132.495 58.1192 132.495 57.6034C132.495 57.0993 132.003 56.8062 131.287 56.8179Z" fill="white"/>
<path d="M124.533 53.887V55.0828H122.4C122.47 56.2083 123.273 57.3337 124.944 57.7909L124.193 58.9516C122.974 58.6057 122.118 57.873 121.638 56.9351C121.151 57.9492 120.278 58.7523 119.012 59.1392L118.261 57.9668C119.961 57.4744 120.788 56.2903 120.864 55.0828H118.672V53.887H124.533ZM127.159 53.3008V59.0923H125.659V53.3008H127.159ZM121.497 59.5378V60.5343H125.671V59.5378H127.159V63.8521H120.02V59.5378H121.497ZM121.497 62.6563H125.671V61.6949H121.497V62.6563Z" fill="white"/>
<path d="M118.097 61.4953V62.7263H108.331V61.4953H112.446V59.3147H109.363V54.0859H117.007V59.3147H113.935V61.4953H118.097ZM110.84 55.2818V58.1423H115.529V55.2818H110.84Z" fill="white"/>
<path d="M105.903 58.084V59.1977H96.1367V58.084H105.903ZM104.73 59.7253V62.2459H98.7511V62.8555H105.047V63.8755H97.2622V61.2962H103.253V60.757H97.2505V59.7253H104.73ZM104.718 53.4883V55.9971H98.8449V56.5716H104.906V57.5798H97.356V55.0475H103.218V54.5082H97.3325V53.4883H104.718Z" fill="white"/>
<path d="M92.4557 54.2387V55.4462H91.4123V60.1591C91.8578 60.1357 92.2916 60.0946 92.7137 60.0419L92.8075 61.1205C90.6386 61.4956 88.1766 61.5425 86.3477 61.5425L86.207 60.3115L87.4146 60.2998V55.4462H86.5001V54.2387H92.4557ZM95.2577 53.3008V63.9693H93.7805V58.3771H92.1392V57.1813H93.7805V53.3008H95.2577ZM88.8683 60.2764L89.9703 60.2412V55.4462H88.8683V60.2764Z" fill="white"/>
<path d="M85.2925 53.3008V63.9928H83.7802V53.3008H85.2925ZM82.1975 54.2387V55.4579H78.5045V60.1826C80.4155 60.1767 81.5879 60.1357 82.9361 59.8895L83.0768 61.1205C81.5996 61.4018 80.2396 61.4487 77.9301 61.4487H77.0039V54.2387H82.1975Z" fill="white"/>
<path d="M72.6418 53.3008V55.4228H74.0838V56.6655H72.6418V58.6351H71.1411V53.3008H72.6418ZM69.7226 53.6877C69.7226 56.5482 67.8937 58.2599 64.6697 58.9281L64.1187 57.6972C66.6392 57.2223 67.8585 56.1379 68.0461 54.8952H64.6579V53.6877H69.7226ZM72.6418 59.0454V61.988H67.0496V62.6797H72.9466V63.8638H65.5841V60.8743H71.1529V60.2295H65.5607V59.0454H72.6418Z" fill="white"/>
<path d="M54.9378 54.0511C56.3798 54.0511 57.4525 55.241 57.6694 57.1579H59.5217V53.3008H60.9989V63.9928H59.5217V58.3537H57.6811C57.5228 60.4053 56.4267 61.6598 54.9378 61.6598C53.3199 61.6598 52.1593 60.1943 52.171 57.8496C52.1593 55.5283 53.3199 54.0511 54.9378 54.0511ZM54.9378 55.3993C54.1406 55.3993 53.5896 56.2669 53.6013 57.8496C53.5896 59.444 54.1406 60.2998 54.9378 60.2998C55.7467 60.2998 56.2743 59.444 56.2743 57.8496C56.2743 56.2669 55.7467 55.3993 54.9378 55.3993Z" fill="white"/>
<path d="M51.8537 57.4626V58.635H42.0996V57.4626H51.8537ZM50.6931 55.704V56.8764H43.3189V53.5117H50.611V54.7075H44.8078V55.704H50.6931ZM50.6462 59.268V62.0583H44.7023V62.7148H50.9275V63.8754H43.2368V60.9914H49.169V60.3935H43.2251V59.268H50.6462Z" fill="white"/>
<path d="M37.6447 54.1801V59.3033H32.5215V54.1801H37.6447ZM33.9987 55.3759V58.1309H36.1675V55.3759H33.9987ZM40.6694 53.3008V56.3724H42.1114V57.6034H40.6694V61.0853H39.1688V53.3008H40.6694ZM41.0563 62.5859V63.7817H33.7525V60.3233H35.2414V62.5859H41.0563Z" fill="white"/>
<path d="M24.8878 53.4531C27.338 53.4531 28.7566 54.0979 28.7683 55.2703C28.7566 56.4544 27.338 57.0992 24.8878 57.0992C22.4258 57.0992 20.9955 56.4544 20.9955 55.2703C20.9955 54.0979 22.4258 53.4531 24.8878 53.4531ZM24.8878 54.5434C23.3168 54.5434 22.5548 54.8013 22.5665 55.2703C22.5548 55.7979 23.3168 55.9972 24.8878 55.9972C26.4705 55.9972 27.2208 55.7979 27.2208 55.2703C27.2208 54.8013 26.4705 54.5434 24.8878 54.5434ZM29.7531 57.6033V58.7874H20.0225V57.6033H29.7531ZM28.569 59.4087V62.1286H22.6251V62.7734H28.8504V63.8989H21.1597V61.0852H27.0918V60.499H21.1479V59.4087H28.569Z" fill="white"/>
<path d="M16.1882 54.0159V55.2117H14.0662C14.0779 56.4544 14.8224 57.6561 16.5281 58.1544L15.813 59.3267C14.6348 58.9692 13.82 58.254 13.351 57.3337C12.8762 58.4123 12.0087 59.2681 10.7249 59.6902L9.96289 58.5061C11.7332 57.9492 12.5304 56.5658 12.5538 55.2117H10.3732V54.0159H16.1882ZM18.5915 53.3008V55.7745H20.0335V56.9937H18.5915V59.6316H17.0909V53.3008H18.5915ZM15.0979 59.8426C17.3136 59.8309 18.697 60.5929 18.697 61.8942C18.697 63.1956 17.3136 63.9693 15.0979 63.9693C12.8352 63.9693 11.4401 63.1956 11.4401 61.8942C11.4401 60.5929 12.8352 59.8309 15.0979 59.8426ZM15.0979 61.0032C13.691 61.0032 12.929 61.2963 12.9407 61.8942C12.929 62.5039 13.691 62.8087 15.0979 62.8087C16.4813 62.8087 17.2198 62.5039 17.2198 61.8942C17.2198 61.2963 16.4813 61.0032 15.0979 61.0032Z" fill="white"/>
<path d="M4.2654 54.7545C4.25368 56.1848 4.99227 57.4979 6.70393 58.0254L5.91844 59.1978C4.76952 58.7992 3.9899 58.0606 3.55026 57.0993C3.06959 58.213 2.2079 59.0923 0.924158 59.5261L0.138672 58.3302C1.96756 57.7441 2.74133 56.3138 2.75305 54.8249V53.8518H4.2654V54.7545ZM9.22451 53.3008V59.5495H7.73561V56.4779H5.73086V55.2586H7.73561V53.3008H9.22451ZM5.57845 59.8309C7.85285 59.8309 9.24796 60.5929 9.25969 61.906C9.24796 63.219 7.85285 63.9693 5.57845 63.9693C3.30406 63.9693 1.90895 63.219 1.90895 61.906C1.90895 60.5929 3.30406 59.8309 5.57845 59.8309ZM5.57845 60.9915C4.15989 60.9915 3.39785 61.2963 3.39785 61.906C3.39785 62.4921 4.15989 62.8087 5.57845 62.8087C6.99702 62.8087 7.77078 62.4921 7.77078 61.906C7.77078 61.2963 6.99702 60.9915 5.57845 60.9915Z" fill="white"/>
<g clip-path="url(#clip0_964_7095)">
<path d="M0.000488281 1.0127H7.70177C23.1043 1.0127 29.8676 10.2372 29.8676 21.2869C29.8676 32.3365 23.1043 41.709 7.70177 41.709H0.000488281V1.0127ZM8.44227 34.9016C18.3651 34.9016 23.055 28.9822 23.055 21.2869C23.055 13.5916 18.3651 7.77075 8.44227 7.77075H6.76379V34.9016H8.44227Z" fill="white"/>
<path d="M34.4092 1.11328H56.6738V7.52603H41.1725V17.9344H55.3902V23.9032H41.1725V35.2488H56.6738V41.7109H34.4092V1.11328Z" fill="white"/>
<path d="M61.3633 1.06348H70.3481C83.1342 1.06348 87.8241 8.51213 87.8241 16.6021C87.8241 24.692 82.9367 32.1407 71.0886 32.1407H68.1266V41.7598H61.3633V1.06348ZM71.3848 25.5799C77.8025 25.5799 81.2089 21.9296 81.2089 16.6021C81.2089 11.2745 77.7038 7.67354 71.3848 7.67354H68.1266V25.5799H71.3848Z" fill="white"/>
<path d="M91.9717 1.06348H100.957C113.743 1.06348 118.432 8.51213 118.432 16.6021C118.432 21.7323 116.458 26.6158 112.015 29.4769L118.827 41.7104H110.731L105.992 31.7953C104.708 31.9927 103.326 32.1407 101.796 32.1407H98.735V41.7598H91.9717V1.06348ZM101.993 25.5799C108.411 25.5799 111.817 21.9296 111.817 16.6021C111.817 11.2745 108.312 7.67354 101.993 7.67354H98.735V25.5799H101.993Z" fill="white"/>
<path d="M142.622 42.4486C130.33 42.4486 121.493 32.6322 121.493 21.3359C121.493 10.0396 130.33 0.272461 142.622 0.272461C154.915 0.272461 163.702 10.0889 163.702 21.3359C163.702 32.5829 154.865 42.4486 142.622 42.4486ZM142.622 35.6906C150.768 35.6906 156.939 29.2285 156.939 21.3359C156.939 13.4433 150.768 7.03051 142.622 7.03051C134.477 7.03051 128.256 13.4433 128.256 21.3359C128.256 29.2285 134.427 35.6906 142.622 35.6906Z" fill="white"/>
<path d="M168.244 1.11328H176.932L191.249 33.8183L205.368 1.11328H214.007V41.7109H207.244V12.2123L194.31 41.7109H188.089L175.007 12.0643V41.7109H168.244V1.11328Z" fill="white"/>
<path d="M220.128 1.11328H242.392V7.52603H226.891V17.9344H241.109V23.9032H226.891V35.2488H242.392V41.7109H220.128V1.11328Z" fill="white"/>
<path d="M247.083 1.11328H269.348V7.52603H253.846V17.9344H268.064V23.9032H253.846V35.2488H269.348V41.7109H247.083V1.11328Z" fill="white"/>
<path d="M280.351 7.47477H271.465V1.0127H296V7.47477H287.114V41.709H280.351V7.47477Z" fill="white"/>
</g>
<g clip-path="url(#clip1_964_7095)">
<path d="M206.76 57.5273L201.296 57.4834L203.219 51.6924L212.749 51.7363V87.8426H206.76V57.5273Z" fill="white"/>
<path d="M216.77 75.0322C216.683 71.5224 217.557 68.7146 220.748 63.801L228.573 51.7363H235.173L228.005 62.6165C228.791 62.4849 229.534 62.3971 230.234 62.3971C238.627 62.3971 243.697 67.8811 243.697 75.2076C243.697 82.5342 238.364 88.4569 230.234 88.4569C222.103 88.4569 216.989 82.4903 216.77 75.0322ZM230.234 82.5342C234.518 82.5342 237.796 79.2877 237.796 74.9444C237.796 70.6011 234.518 67.4424 230.234 67.4424C225.95 67.4424 222.672 70.645 222.672 74.9444C222.672 79.2438 225.95 82.5342 230.234 82.5342Z" fill="white"/>
<path d="M253.313 57.3956H245.445V51.6484H267.17V57.3956H259.302V87.8425H253.313V57.3956Z" fill="white"/>
<path d="M270.317 51.6924H276.306V66.3894H289.857V51.6924H295.889V87.8426H289.857V72.0927H276.306V87.8426H270.317V51.6924Z" fill="white"/>
</g>
<defs>
<clipPath id="clip0_964_7095">
<rect width="296" height="42.1762" fill="white" transform="translate(0 0.271484)"/>
</clipPath>
<clipPath id="clip1_964_7095">
<rect width="94.5933" height="36.8083" fill="white" transform="translate(201.296 51.6494)"/>
</clipPath>
</defs>
</svg>
