<svg width="156" height="78" viewBox="0 0 156 78" fill="none" xmlns="http://www.w3.org/2000/svg">
<path d="M137.4 45.9984H133.26V42.3984H145.5V45.9984H141.36V67.5984H137.4V45.9984Z" fill="white"/>
<path d="M120.381 42.3984H125.349L129.201 57.4824H129.273V42.3984H132.801V67.5984H128.733L123.981 49.2024H123.909V67.5984H120.381V42.3984Z" fill="white"/>
<path d="M108.743 42.3984H119.543V45.9984H112.703V52.6584H118.139V56.2584H112.703V63.9984H119.543V67.5984H108.743V42.3984Z" fill="white"/>
<path d="M90.8115 42.3984H96.4635L98.9835 60.4344H99.0555L101.576 42.3984H107.228V67.5984H103.484V48.5184H103.412L100.532 67.5984H97.2195L94.3395 48.5184H94.2675V67.5984H90.8115V42.3984Z" fill="white"/>
<path d="M82.2347 45.9984H78.0947V42.3984H90.3347V45.9984H86.1947V67.5984H82.2347V45.9984Z" fill="white"/>
<path d="M73.6523 42.3984H77.6123V67.5984H73.6523V42.3984Z" fill="white"/>
<path d="M66.3679 67.9584C64.4479 67.9584 62.9839 67.4184 61.9759 66.3384C60.9679 65.2344 60.4639 63.6624 60.4639 61.6224V42.3984H64.4239V61.9104C64.4239 62.7744 64.5919 63.3984 64.9279 63.7824C65.2879 64.1664 65.7919 64.3584 66.4399 64.3584C67.0879 64.3584 67.5799 64.1664 67.9159 63.7824C68.2759 63.3984 68.4559 62.7744 68.4559 61.9104V42.3984H72.2719V61.6224C72.2719 63.6624 71.7679 65.2344 70.7599 66.3384C69.7519 67.4184 68.2879 67.9584 66.3679 67.9584Z" fill="white"/>
<path d="M47.5283 42.3984H53.3963C55.4363 42.3984 56.9243 42.8784 57.8603 43.8384C58.7963 44.7744 59.2643 46.2264 59.2643 48.1944V49.7424C59.2643 52.3584 58.4003 54.0144 56.6723 54.7104V54.7824C57.6323 55.0704 58.3043 55.6584 58.6883 56.5464C59.0963 57.4344 59.3003 58.6224 59.3003 60.1104V64.5384C59.3003 65.2584 59.3243 65.8464 59.3723 66.3024C59.4203 66.7344 59.5403 67.1664 59.7323 67.5984H55.7003C55.5563 67.1904 55.4603 66.8064 55.4123 66.4464C55.3643 66.0864 55.3403 65.4384 55.3403 64.5024V59.8944C55.3403 58.7424 55.1483 57.9384 54.7643 57.4824C54.4043 57.0264 53.7683 56.7984 52.8563 56.7984H51.4883V67.5984H47.5283V42.3984ZM52.9283 53.1984C53.7203 53.1984 54.3083 52.9944 54.6923 52.5864C55.1003 52.1784 55.3043 51.4944 55.3043 50.5344V48.5904C55.3043 47.6784 55.1363 47.0184 54.8003 46.6104C54.4883 46.2024 53.9843 45.9984 53.2883 45.9984H51.4883V53.1984H52.9283Z" fill="white"/>
<path d="M40.7675 67.9591C38.8715 67.9591 37.4195 67.4191 36.4115 66.3391C35.4275 65.2591 34.9355 63.7351 34.9355 61.7671V48.2311C34.9355 46.2631 35.4275 44.7391 36.4115 43.6591C37.4195 42.5791 38.8715 42.0391 40.7675 42.0391C42.6635 42.0391 44.1035 42.5791 45.0875 43.6591C46.0955 44.7391 46.5995 46.2631 46.5995 48.2311V50.8951H42.8555V47.9791C42.8555 46.4191 42.1955 45.6391 40.8755 45.6391C39.5555 45.6391 38.8955 46.4191 38.8955 47.9791V62.0551C38.8955 63.5911 39.5555 64.3591 40.8755 64.3591C42.1955 64.3591 42.8555 63.5911 42.8555 62.0551V58.2031H46.5995V61.7671C46.5995 63.7351 46.0955 65.2591 45.0875 66.3391C44.1035 67.4191 42.6635 67.9591 40.7675 67.9591Z" fill="white"/>
<path d="M23.5488 42.3984H34.3488V45.9984H27.5088V52.6584H32.9448V56.2584H27.5088V63.9984H34.3488V67.5984H23.5488V42.3984Z" fill="white"/>
<path d="M10.4697 42.3984H16.3377C18.3777 42.3984 19.8657 42.8784 20.8017 43.8384C21.7377 44.7744 22.2057 46.2264 22.2057 48.1944V49.7424C22.2057 52.3584 21.3417 54.0144 19.6137 54.7104V54.7824C20.5737 55.0704 21.2457 55.6584 21.6297 56.5464C22.0377 57.4344 22.2417 58.6224 22.2417 60.1104V64.5384C22.2417 65.2584 22.2657 65.8464 22.3137 66.3024C22.3617 66.7344 22.4817 67.1664 22.6737 67.5984H18.6417C18.4977 67.1904 18.4017 66.8064 18.3537 66.4464C18.3057 66.0864 18.2817 65.4384 18.2817 64.5024V59.8944C18.2817 58.7424 18.0897 57.9384 17.7057 57.4824C17.3457 57.0264 16.7097 56.7984 15.7977 56.7984H14.4297V67.5984H10.4697V42.3984ZM15.8697 53.1984C16.6617 53.1984 17.2497 52.9944 17.6337 52.5864C18.0417 52.1784 18.2457 51.4944 18.2457 50.5344V48.5904C18.2457 47.6784 18.0777 47.0184 17.7417 46.6104C17.4297 46.2024 16.9257 45.9984 16.2297 45.9984H14.4297V53.1984H15.8697Z" fill="white"/>
<path d="M139.627 31.0264H132.067V27.4264L139.267 10.3984H143.587V27.4264H145.459V31.0264H143.587V35.5984H139.627V31.0264ZM139.627 27.4264V17.5984H139.555L135.667 27.4264H139.627Z" fill="white"/>
<path d="M119.957 32.8631C119.957 31.0631 120.245 29.5271 120.821 28.2551C121.397 26.9591 122.429 25.5311 123.917 23.9711C125.381 22.4111 126.389 21.0791 126.941 19.9751C127.517 18.8711 127.805 17.7191 127.805 16.5191C127.805 15.4391 127.625 14.6951 127.265 14.2871C126.929 13.8551 126.425 13.6391 125.753 13.6391C124.385 13.6391 123.701 14.4671 123.701 16.1231V18.8231H119.957V16.3751C119.957 14.3351 120.461 12.7751 121.469 11.6951C122.477 10.5911 123.941 10.0391 125.861 10.0391C127.781 10.0391 129.245 10.5911 130.253 11.6951C131.261 12.7751 131.765 14.3351 131.765 16.3751C131.765 17.9111 131.393 19.4111 130.649 20.8751C129.929 22.3391 128.669 24.0191 126.869 25.9151C125.693 27.1631 124.901 28.1831 124.493 28.9751C124.085 29.7431 123.881 30.5711 123.881 31.4591V31.9991H131.405V35.5991H119.957V32.8631Z" fill="white"/>
<path d="M112.78 35.9591C110.836 35.9591 109.348 35.4071 108.316 34.3031C107.284 33.1991 106.768 31.6391 106.768 29.6231V16.3751C106.768 14.3591 107.284 12.7991 108.316 11.6951C109.348 10.5911 110.836 10.0391 112.78 10.0391C114.724 10.0391 116.212 10.5911 117.244 11.6951C118.276 12.7991 118.792 14.3591 118.792 16.3751V29.6231C118.792 31.6391 118.276 33.1991 117.244 34.3031C116.212 35.4071 114.724 35.9591 112.78 35.9591ZM112.78 32.3591C114.148 32.3591 114.832 31.5311 114.832 29.8751V16.1231C114.832 14.4671 114.148 13.6391 112.78 13.6391C111.412 13.6391 110.728 14.4671 110.728 16.1231V29.8751C110.728 31.5311 111.412 32.3591 112.78 32.3591Z" fill="white"/>
<path d="M94.0088 32.8631C94.0088 31.0631 94.2968 29.5271 94.8728 28.2551C95.4488 26.9591 96.4808 25.5311 97.9688 23.9711C99.4328 22.4111 100.441 21.0791 100.993 19.9751C101.569 18.8711 101.857 17.7191 101.857 16.5191C101.857 15.4391 101.677 14.6951 101.317 14.2871C100.981 13.8551 100.477 13.6391 99.8048 13.6391C98.4368 13.6391 97.7528 14.4671 97.7528 16.1231V18.8231H94.0088V16.3751C94.0088 14.3351 94.5128 12.7751 95.5208 11.6951C96.5288 10.5911 97.9928 10.0391 99.9128 10.0391C101.833 10.0391 103.297 10.5911 104.305 11.6951C105.313 12.7751 105.817 14.3351 105.817 16.3751C105.817 17.9111 105.445 19.4111 104.701 20.8751C103.981 22.3391 102.721 24.0191 100.921 25.9151C99.7448 27.1631 98.9528 28.1831 98.5448 28.9751C98.1368 29.7431 97.9328 30.5711 97.9328 31.4591V31.9991H105.457V35.5991H94.0088V32.8631Z" fill="white"/>
</svg>
