<svg width="1024" height="760" viewBox="0 0 1024 760" fill="none" xmlns="http://www.w3.org/2000/svg">
<g clip-path="url(#clip0_6_518)">
<path d="M-20.1655 377.333L1050.81 39.8751L1051.28 713.31L-20.1655 377.333Z" fill="#A0EEE9"/>
<path d="M612.866 55H639.424V123.809H667.913V55H694.471V224.005H667.913V147.953H639.424V224.005H612.866V55Z" fill="black"/>
<path d="M545.684 79.1435H517.919V55H600.007V79.1435H572.242V224.005H545.684V79.1435Z" fill="black"/>
<path d="M467.124 226.419C454.247 226.419 444.429 222.798 437.668 215.555C430.908 208.151 427.528 197.608 427.528 183.927V170.648H452.637V185.858C452.637 196.803 457.225 202.276 466.399 202.276C475.574 202.276 480.161 196.803 480.161 185.858V147.953C480.161 136.847 475.574 131.294 466.399 131.294C457.225 131.294 452.637 136.847 452.637 147.953V149.401H427.528L432.357 55H502.373V79.1435H456.018L453.845 119.463H454.328C459.317 111.254 466.963 107.15 477.264 107.15C486.921 107.15 494.245 110.45 499.235 117.049C504.224 123.648 506.719 133.225 506.719 145.78V183.927C506.719 197.608 503.339 208.151 496.579 215.555C489.819 222.798 480 226.419 467.124 226.419Z" fill="black"/>
<path d="M368.765 95.0783H341V76.2463C348.565 76.2463 354.601 75.6025 359.108 74.3148C363.775 73.0272 367.477 70.9347 370.214 68.0375C372.95 64.9793 375.364 60.6335 377.457 55H395.323V224.005H368.765V95.0783Z" fill="black"/>
<path d="M737.855 692.005V523H777.209C804.733 523 816.563 535.796 816.563 561.871V572.253C816.563 589.636 811.01 600.742 799.18 605.571V606.054C812.459 610.158 816.805 622.713 816.805 641.786V671.483C816.805 679.692 817.046 685.727 819.702 692.005H792.661C791.213 687.659 790.247 685.003 790.247 671.241V640.338C790.247 624.644 785.66 619.574 773.588 619.574H764.413V692.005H737.855ZM764.413 595.431H774.071C783.97 595.431 790.005 591.085 790.005 577.564V564.527C790.005 552.455 785.901 547.144 776.485 547.144H764.413V595.431Z" fill="black"/>
<path d="M650.147 692.005V523H722.577V547.144H676.704V591.809H713.161V615.953H676.704V667.861H722.577V692.005H650.147Z" fill="black"/>
<path d="M552.535 692.005V523H592.613C620.137 523 631.967 535.796 631.967 561.871V568.631C631.967 586.015 626.656 596.879 614.825 601.708V602.191C629.07 607.02 634.623 619.574 634.623 637.44V651.927C634.623 678.002 620.861 692.005 594.303 692.005H552.535ZM579.093 591.809H589.475C599.373 591.809 605.409 587.463 605.409 573.943V564.527C605.409 552.455 601.305 547.144 591.889 547.144H579.093V591.809ZM579.093 667.861H594.303C603.236 667.861 608.065 663.757 608.065 651.202V636.475C608.065 620.781 602.995 615.953 590.923 615.953H579.093V667.861Z" fill="black"/>
<path d="M422.622 692.005V523H460.527L477.428 643.959H477.911L494.811 523H532.717V692.005H507.607V564.044H507.124L487.81 692.005H465.597L446.283 564.044H445.8V692.005H422.622Z" fill="black"/>
<path d="M334.913 692.005V523H407.344V547.144H361.471V591.809H397.928V615.953H361.471V667.861H407.344V692.005H334.913Z" fill="black"/>
<path d="M205 692.005V523H242.905L259.806 643.959H260.289L277.189 523H315.095V692.005H289.985V564.044H289.502L270.188 692.005H247.976L228.661 564.044H228.178V692.005H205Z" fill="black"/>
<path d="M170.833 539.834C265.182 539.834 341.667 463.349 341.667 369C341.667 274.652 265.182 198.167 170.833 198.167C76.4847 198.167 0 274.652 0 369C0 463.349 76.4847 539.834 170.833 539.834Z" fill="black"/>
<path d="M170.836 529.547C259.504 529.547 331.384 457.667 331.384 368.999C331.384 280.331 259.504 208.452 170.836 208.452C82.1679 208.452 10.2882 280.331 10.2882 368.999C10.2882 457.667 82.1679 529.547 170.836 529.547Z" fill="white"/>
<path d="M175.089 367.025L319.836 307.208C324.756 319.82 330.726 339.552 331.419 364.298C332.186 391.691 326.161 413.55 321.364 426.842C272.604 406.901 223.849 386.966 175.089 367.025Z" fill="#F4F4F4"/>
<path d="M165.096 218.465H161.996V216.549C164.115 216.393 165.38 215.539 165.926 214.558H167.841V232.657H165.101V218.465H165.096Z" fill="black"/>
<path d="M170.498 228.576V218.651C170.498 216.068 172.227 214.309 174.816 214.309C177.405 214.309 179.106 216.068 179.106 218.651V219.243H176.471V218.517C176.471 217.536 175.826 216.886 174.84 216.886C173.853 216.886 173.238 217.53 173.238 218.517V222.656C173.65 221.982 174.555 221.361 175.902 221.361C177.997 221.361 179.239 222.807 179.239 225.059V228.576C179.239 231.159 177.481 232.918 174.898 232.918C172.315 232.918 170.504 231.159 170.504 228.576H170.498ZM176.494 228.704V225.471C176.494 224.356 175.925 223.84 174.996 223.84C173.911 223.84 173.238 224.513 173.238 225.651V228.704C173.238 229.685 173.859 230.335 174.892 230.335C175.925 230.335 176.494 229.691 176.494 228.704Z" fill="black"/>
<path d="M108.011 232.088L105.143 233.272L104.412 231.507C106.31 230.556 107.157 229.279 107.279 228.164L109.05 227.433L115.974 244.156L113.444 245.206L108.011 232.094V232.088Z" fill="black"/>
<path d="M116.78 239.338L116.572 238.839L118.911 237.591L119.137 238.142C119.689 239.477 120.484 239.767 121.412 239.378C122.341 238.989 122.701 238.229 122.243 237.132L120.64 233.26C120.234 232.279 119.509 232.024 118.702 232.361C117.796 232.738 117.384 233.632 117.808 234.659L117.924 234.944L115.486 235.954L111.527 226.399L118.766 223.404L119.752 225.796L114.952 227.787L116.676 231.943C116.769 231.148 117.436 230.201 118.586 229.725C120.472 228.942 122.173 229.807 123.015 231.838L124.756 236.041C125.807 238.572 124.936 240.725 122.452 241.752C119.967 242.78 117.831 241.874 116.78 239.344V239.338Z" fill="black"/>
<path d="M60.405 266.556L58.2108 268.75L56.8584 267.398C58.2457 265.79 58.5417 264.293 58.2283 263.213L59.5807 261.86L72.3797 274.659L70.441 276.598L60.405 266.562V266.556Z" fill="black"/>
<path d="M77.9314 263.758L76.8924 264.797L79.5625 267.467L77.6238 269.406L74.9537 266.736L71.1691 270.521L69.4335 268.785L64.459 256.973L66.7634 254.668L75.0639 262.969L76.1088 261.924L77.9372 263.753L77.9314 263.758ZM73.1252 264.908L68.0985 259.881L71.1691 266.864L73.1252 264.908Z" fill="black"/>
<path d="M29.6515 316.463L28.4674 319.33L26.697 318.599C27.3645 316.579 27.0627 315.081 26.3604 314.205L27.0917 312.44L43.8146 319.365L42.764 321.896L29.6515 316.463Z" fill="black"/>
<path d="M42.5685 307.036L44.1183 307.681C46.649 308.731 47.601 310.89 46.5562 313.421C45.5055 315.952 43.3056 316.805 40.7749 315.755L40.2757 315.546L41.0477 313.009L41.5991 313.236C42.9341 313.787 43.7468 313.456 44.1531 312.475C44.5594 311.494 44.2227 310.687 43.1257 310.229L41.3843 309.509C40.0493 308.952 39.2366 309.288 38.6794 310.629L38.2615 311.633L35.87 310.647L36.2183 309.811C36.7697 308.476 36.4389 307.663 35.098 307.106L33.8094 306.572C32.8284 306.166 32.0855 306.473 31.714 307.379C31.3425 308.284 31.6443 309.027 32.8633 309.532L33.2464 309.689L32.2364 312.127L31.6617 311.889C29.247 310.89 28.3241 308.801 29.3457 306.34C30.3673 303.879 32.4976 303.054 34.9123 304.053L36.0093 304.505C37.5127 305.127 38.3544 306.206 38.4705 307.623C39.6023 306.578 41.0012 306.375 42.5801 307.03L42.5685 307.036Z" fill="black"/>
<path d="M20.3022 374.432V377.532H18.3867C18.23 375.413 17.3767 374.148 16.3957 373.602V371.687H34.4943V374.427H20.3022V374.432Z" fill="black"/>
<path d="M31.91 366.208V360.781H34.4931V369.47H32.1132L25.7282 365.465C23.3483 363.967 22.1062 363.526 20.7131 363.526C19.4477 363.526 18.7512 364.118 18.7512 365.18C18.7512 366.243 19.4477 366.835 20.7131 366.835H21.7753V369.47H20.9221C17.9733 369.47 16.1623 367.868 16.1623 365.151C16.1623 362.435 17.8457 360.781 20.6376 360.781C22.5996 360.781 24.2074 361.373 27.1271 363.213L31.91 366.214V366.208Z" fill="black"/>
<path d="M33.413 430.604L34.5972 433.472L32.8326 434.203C31.8806 432.305 30.6036 431.458 29.4892 431.336L28.7578 429.565L45.4807 422.641L46.5313 425.171L33.4189 430.604H33.413Z" fill="black"/>
<path d="M30.3144 423.128L31.5043 425.995L29.7339 426.726C28.782 424.828 27.5049 423.981 26.3905 423.859L25.6591 422.089L42.382 415.164L43.4326 417.694L30.3202 423.128H30.3144Z" fill="black"/>
<path d="M68.5552 479.593L70.7493 481.788L69.3968 483.14C67.789 481.753 66.2914 481.457 65.2118 481.77L63.8593 480.418L76.6583 467.619L78.597 469.557L68.561 479.593H68.5552Z" fill="black"/>
<path d="M71.862 468.646L64.8791 475.629C63.0333 477.474 60.5489 477.475 58.6798 475.611C56.8166 473.748 56.8166 471.258 58.6624 469.412L65.6453 462.429C67.4911 460.583 69.9755 460.583 71.8445 462.447C73.7078 464.31 73.7078 466.8 71.862 468.646ZM67.584 464.368L60.6011 471.351C59.7943 472.152 59.7943 473.069 60.5083 473.783C61.2222 474.497 62.1335 474.497 62.9404 473.69L69.9232 466.707C70.7301 465.9 70.7301 464.989 70.0161 464.275C69.3021 463.561 68.3908 463.561 67.584 464.368Z" fill="black"/>
<path d="M109.597 506.387L113.399 497.216C114.386 494.824 116.661 493.866 119.053 494.853C121.444 495.846 122.344 498.121 121.357 500.507L121.131 501.058L118.693 500.048L118.971 499.381C119.349 498.475 118.995 497.628 118.089 497.25C117.184 496.873 116.359 497.233 115.988 498.144L114.403 501.964C115.042 501.499 116.116 501.273 117.358 501.79C119.291 502.591 119.883 504.402 119.024 506.48L117.677 509.73C116.69 512.116 114.392 513.068 112 512.081C109.562 511.071 108.61 508.772 109.603 506.387H109.597ZM115.088 508.801L116.324 505.818C116.748 504.79 116.423 504.094 115.564 503.74C114.56 503.322 113.683 503.688 113.248 504.738L112.081 507.559C111.704 508.465 112.029 509.301 112.987 509.695C113.892 510.073 114.717 509.713 115.088 508.801Z" fill="black"/>
<path d="M166.286 511.211V509.533C166.286 506.793 167.917 505.087 170.837 505.087C173.757 505.087 175.388 506.793 175.388 509.533V511.211C175.388 512.917 174.662 514.13 173.373 514.751C174.534 515.396 175.208 516.586 175.208 518.24V519.43C175.208 522.042 173.629 523.696 170.837 523.696C168.045 523.696 166.466 522.042 166.466 519.43V518.24C166.466 516.586 167.139 515.396 168.3 514.751C167.006 514.13 166.286 512.917 166.286 511.211ZM169.026 511.367C169.026 512.813 169.647 513.434 170.837 513.434C172.027 513.434 172.648 512.813 172.648 511.367V509.481C172.648 508.291 172.027 507.67 170.837 507.67C169.647 507.67 169.026 508.291 169.026 509.481V511.367ZM172.462 518.089C172.462 516.644 171.841 516.023 170.831 516.023C169.821 516.023 169.2 516.644 169.2 518.089V519.488C169.2 520.55 169.769 521.119 170.831 521.119C171.893 521.119 172.462 520.55 172.462 519.488V518.089Z" fill="black"/>
<path d="M226.136 513.254L225.224 511.055L223.222 494.872L225.851 493.78L227.587 509.795L232.817 507.63L233.827 510.068L226.136 513.254Z" fill="black"/>
<path d="M273.127 465.286L280.145 472.304C281.973 474.132 281.991 476.599 280.162 478.427C278.334 480.256 275.884 480.221 274.056 478.392L273.638 477.975L275.501 476.111L276.012 476.622C276.709 477.319 277.62 477.319 278.317 476.622C279.013 475.926 278.996 475.032 278.299 474.335L275.374 471.41C275.559 472.176 275.356 473.255 274.404 474.207C272.924 475.688 271.02 475.542 269.43 473.952L266.945 471.468C265.117 469.639 265.117 467.155 266.945 465.326C268.809 463.463 271.299 463.463 273.127 465.292V465.286ZM268.797 469.436L271.084 471.723C271.868 472.507 272.64 472.472 273.296 471.816C274.062 471.05 274.062 470.098 273.261 469.291L271.102 467.132C270.405 466.435 269.511 466.418 268.78 467.149C268.083 467.846 268.101 468.74 268.797 469.436Z" fill="black"/>
<path d="M302.243 418.861L302.742 419.07L301.97 421.606L301.418 421.38C300.083 420.829 299.317 421.183 298.934 422.111C298.551 423.04 298.835 423.835 299.932 424.288L303.804 425.89C304.785 426.296 305.476 425.966 305.812 425.159C306.19 424.253 305.847 423.325 304.82 422.901L304.535 422.785L305.545 420.347L315.1 424.305L312.105 431.544L309.713 430.557L311.704 425.757L307.548 424.033C308.041 424.66 308.245 425.803 307.769 426.952C306.985 428.839 305.174 429.431 303.142 428.589L298.94 426.848C296.409 425.797 295.504 423.661 296.531 421.177C297.558 418.692 299.712 417.822 302.243 418.872V418.861Z" fill="black"/>
<path d="M310.949 373.811V372.337H307.176V369.597H310.949V364.246H313.404L325.269 369.081V372.337H313.532V373.811H310.949ZM313.532 369.597H320.642L313.532 366.829V369.597Z" fill="black"/>
<path d="M303.84 318.488L302.291 319.132C299.76 320.183 297.56 319.33 296.509 316.799C295.459 314.268 296.416 312.109 298.947 311.058L299.446 310.849L300.694 313.188L300.143 313.415C298.808 313.966 298.471 314.779 298.877 315.76C299.284 316.741 300.096 317.072 301.193 316.619L302.935 315.899C304.27 315.348 304.607 314.535 304.055 313.2L303.637 312.196L306.029 311.203L306.377 312.039C306.928 313.374 307.741 313.711 309.082 313.159L310.37 312.625C311.351 312.219 311.659 311.476 311.282 310.571C310.904 309.665 310.161 309.357 308.943 309.857L308.559 310.013L307.549 307.575L308.124 307.337C310.539 306.339 312.669 307.163 313.685 309.624C314.706 312.086 313.778 314.175 311.369 315.174L310.272 315.626C308.768 316.247 307.41 316.085 306.33 315.162C306.267 316.7 305.425 317.832 303.846 318.488H303.84Z" fill="black"/>
<path d="M268.271 269.98L272.107 273.817L270.279 275.645L264.138 269.504L265.821 267.82L273.17 266.137C275.909 265.516 277.099 264.947 278.086 263.96C278.98 263.067 279.055 262.149 278.307 261.401C277.558 260.652 276.641 260.722 275.747 261.621L274.998 262.37L273.135 260.507L273.738 259.903C275.822 257.819 278.237 257.674 280.158 259.59C282.08 261.511 282.056 263.868 280.083 265.841C278.695 267.228 277.14 267.942 273.773 268.714L268.271 269.974V269.98Z" fill="black"/>
<path d="M228.197 229.818L225.33 228.629L226.061 226.858C228.081 227.526 229.578 227.224 230.455 226.521L232.225 227.253L225.3 243.97L222.77 242.919L228.203 229.807L228.197 229.818Z" fill="black"/>
<path d="M170.836 370.468C172.647 370.468 174.116 369 174.116 367.188C174.116 365.377 172.647 363.909 170.836 363.909C169.025 363.909 167.557 365.377 167.557 367.188C167.557 369 169.025 370.468 170.836 370.468Z" fill="black"/>
<path d="M148.83 386.363H150.496V386.906C150.496 387.83 150.359 388.703 150.084 389.527C149.81 390.351 149.391 391.081 148.83 391.717C148.268 392.341 147.544 392.822 146.658 393.159L145.647 391.53C146.371 391.243 146.964 390.862 147.426 390.388C147.9 389.914 148.249 389.377 148.474 388.778C148.711 388.179 148.83 387.555 148.83 386.906V386.363ZM149.279 386.363H150.927V386.906C150.927 387.505 151.045 388.092 151.282 388.666C151.519 389.227 151.875 389.733 152.349 390.182C152.836 390.619 153.435 390.969 154.147 391.231L153.136 392.878C152.25 392.554 151.519 392.092 150.945 391.493C150.384 390.894 149.966 390.201 149.691 389.415C149.416 388.616 149.279 387.78 149.279 386.906V386.363ZM146.078 385.071H153.66V386.812H146.078V385.071ZM148.83 383.218H150.927V385.858H148.83V383.218ZM158.134 383.049H160.25V393.608H158.134V383.049ZM155.869 387.43H158.752V389.227H155.869V387.43ZM154.521 383.33H156.599V393.515H154.521V383.33ZM148.493 394.395H160.25V400.273H158.022V396.173H148.493V394.395ZM174.102 383.049H176.349V392.822H174.102V383.049ZM164.985 393.627H176.349V400.067H164.985V393.627ZM174.159 395.387H167.157V398.307H174.159V395.387ZM167.007 383.873C167.893 383.873 168.686 384.048 169.385 384.397C170.083 384.747 170.633 385.227 171.032 385.839C171.431 386.45 171.631 387.162 171.631 387.973C171.631 388.772 171.431 389.483 171.032 390.107C170.633 390.719 170.083 391.199 169.385 391.549C168.686 391.898 167.893 392.073 167.007 392.073C166.121 392.073 165.328 391.898 164.629 391.549C163.93 391.199 163.381 390.719 162.982 390.107C162.582 389.483 162.383 388.772 162.383 387.973C162.383 387.162 162.582 386.45 162.982 385.839C163.381 385.227 163.93 384.747 164.629 384.397C165.328 384.048 166.121 383.873 167.007 383.873ZM167.007 385.708C166.545 385.708 166.127 385.801 165.753 385.989C165.378 386.163 165.085 386.419 164.873 386.756C164.66 387.093 164.554 387.499 164.554 387.973C164.554 388.422 164.66 388.822 164.873 389.171C165.085 389.508 165.378 389.77 165.753 389.958C166.127 390.132 166.545 390.22 167.007 390.22C167.481 390.22 167.899 390.132 168.261 389.958C168.636 389.77 168.929 389.508 169.141 389.171C169.353 388.822 169.459 388.422 169.459 387.973C169.459 387.499 169.353 387.093 169.141 386.756C168.929 386.419 168.636 386.163 168.261 385.989C167.899 385.801 167.481 385.708 167.007 385.708ZM189.827 383.031H192.055V392.691H189.827V383.031ZM191.456 386.906H194.414V388.722H191.456V386.906ZM184.941 384.06H187.318C187.318 385.558 187 386.9 186.363 388.085C185.739 389.271 184.828 390.282 183.63 391.118C182.444 391.942 180.997 392.579 179.287 393.028L178.426 391.268C179.861 390.906 181.059 390.419 182.02 389.808C182.981 389.196 183.705 388.497 184.192 387.711C184.691 386.912 184.941 386.057 184.941 385.146V384.06ZM179.231 384.06H186.251V385.839H179.231V384.06ZM180.99 393.402H192.055V400.067H180.99V393.402ZM189.864 395.162H183.181V398.289H189.864V395.162Z" fill="black"/>
<path d="M79.2194 326.203H85.7041C87.9584 326.203 89.6028 326.733 90.6372 327.794C91.6715 328.828 92.1887 330.433 92.1887 332.608V334.318C92.1887 337.209 91.2339 339.039 89.3243 339.808V339.888C90.3852 340.206 91.1278 340.856 91.5522 341.837C92.003 342.819 92.2285 344.132 92.2285 345.776V350.669C92.2285 351.465 92.255 352.115 92.3081 352.619C92.3611 353.096 92.4937 353.573 92.7059 354.051H88.2502C88.091 353.6 87.985 353.176 87.9319 352.778C87.8789 352.38 87.8523 351.664 87.8523 350.629V345.537C87.8523 344.264 87.6402 343.376 87.2158 342.872C86.818 342.368 86.1151 342.116 85.1073 342.116H83.5956V354.051H79.2194V326.203ZM85.1869 338.138C86.0621 338.138 86.7119 337.912 87.1362 337.461C87.5871 337.01 87.8126 336.254 87.8126 335.194V333.045C87.8126 332.037 87.6269 331.308 87.2556 330.857C86.9108 330.406 86.3538 330.181 85.5847 330.181H83.5956V338.138H85.1869ZM95.2647 326.203H107.2V330.181H99.6409V337.541H105.648V341.519H99.6409V350.072H107.2V354.051H95.2647V326.203ZM115.484 354.449C113.362 354.449 111.758 353.852 110.67 352.658C109.583 351.438 109.039 349.701 109.039 347.447V345.855H113.176V347.765C113.176 349.569 113.932 350.47 115.444 350.47C116.187 350.47 116.744 350.258 117.115 349.834C117.513 349.383 117.712 348.667 117.712 347.685C117.712 346.519 117.447 345.497 116.916 344.622C116.386 343.72 115.404 342.646 113.972 341.4C112.169 339.808 110.909 338.376 110.193 337.103C109.477 335.804 109.119 334.345 109.119 332.727C109.119 330.526 109.676 328.828 110.789 327.635C111.903 326.415 113.521 325.805 115.643 325.805C117.738 325.805 119.316 326.415 120.377 327.635C121.465 328.828 122.008 330.552 122.008 332.807V333.96H117.871V332.528C117.871 331.573 117.685 330.884 117.314 330.459C116.943 330.009 116.399 329.783 115.683 329.783C114.224 329.783 113.495 330.672 113.495 332.449C113.495 333.456 113.76 334.398 114.29 335.273C114.847 336.148 115.842 337.209 117.274 338.456C119.104 340.047 120.364 341.493 121.054 342.792C121.743 344.092 122.088 345.617 122.088 347.367C122.088 349.648 121.518 351.399 120.377 352.619C119.263 353.839 117.632 354.449 115.484 354.449ZM124.597 326.203H131.042C133.217 326.203 134.848 326.786 135.935 327.953C137.023 329.12 137.566 330.831 137.566 333.085V335.83C137.566 338.084 137.023 339.795 135.935 340.962C134.848 342.129 133.217 342.713 131.042 342.713H128.973V354.051H124.597V326.203ZM131.042 338.734C131.758 338.734 132.288 338.535 132.633 338.138C133.005 337.74 133.19 337.063 133.19 336.109V332.807C133.19 331.852 133.005 331.175 132.633 330.778C132.288 330.38 131.758 330.181 131.042 330.181H128.973V338.734H131.042ZM146.269 354.449C144.12 354.449 142.476 353.839 141.335 352.619C140.195 351.399 139.625 349.675 139.625 347.447V332.807C139.625 330.579 140.195 328.855 141.335 327.635C142.476 326.415 144.12 325.805 146.269 325.805C148.417 325.805 150.061 326.415 151.202 327.635C152.342 328.855 152.912 330.579 152.912 332.807V347.447C152.912 349.675 152.342 351.399 151.202 352.619C150.061 353.839 148.417 354.449 146.269 354.449ZM146.269 350.47C147.78 350.47 148.536 349.555 148.536 347.725V332.528C148.536 330.698 147.78 329.783 146.269 329.783C144.757 329.783 144.001 330.698 144.001 332.528V347.725C144.001 349.555 144.757 350.47 146.269 350.47ZM155.872 326.203H161.362L165.619 342.872H165.698V326.203H169.597V354.051H165.102L159.85 333.722H159.771V354.051H155.872V326.203ZM178.539 354.449C176.417 354.449 174.812 353.852 173.725 352.658C172.637 351.438 172.094 349.701 172.094 347.447V345.855H176.231V347.765C176.231 349.569 176.987 350.47 178.499 350.47C179.241 350.47 179.798 350.258 180.17 349.834C180.567 349.383 180.766 348.667 180.766 347.685C180.766 346.519 180.501 345.497 179.971 344.622C179.44 343.72 178.459 342.646 177.027 341.4C175.223 339.808 173.964 338.376 173.247 337.103C172.531 335.804 172.173 334.345 172.173 332.727C172.173 330.526 172.73 328.828 173.844 327.635C174.958 326.415 176.576 325.805 178.698 325.805C180.793 325.805 182.371 326.415 183.432 327.635C184.519 328.828 185.063 330.552 185.063 332.807V333.96H180.926V332.528C180.926 331.573 180.74 330.884 180.369 330.459C179.997 330.009 179.454 329.783 178.737 329.783C177.279 329.783 176.549 330.672 176.549 332.449C176.549 333.456 176.815 334.398 177.345 335.273C177.902 336.148 178.897 337.209 180.329 338.456C182.159 340.047 183.419 341.493 184.108 342.792C184.798 344.092 185.143 345.617 185.143 347.367C185.143 349.648 184.572 351.399 183.432 352.619C182.318 353.839 180.687 354.449 178.539 354.449ZM187.652 326.203H192.028V354.051H187.652V326.203ZM195.305 326.203H201.909C204.164 326.203 205.808 326.733 206.842 327.794C207.877 328.828 208.394 330.433 208.394 332.608V333.722C208.394 335.154 208.155 336.321 207.678 337.223C207.227 338.124 206.524 338.774 205.569 339.172V339.251C207.744 339.994 208.832 341.93 208.832 345.06V347.447C208.832 349.595 208.261 351.239 207.121 352.38C206.007 353.494 204.363 354.051 202.188 354.051H195.305V326.203ZM201.392 337.541C202.267 337.541 202.917 337.315 203.341 336.864C203.792 336.414 204.018 335.658 204.018 334.597V333.045C204.018 332.037 203.832 331.308 203.461 330.857C203.116 330.406 202.559 330.181 201.79 330.181H199.681V337.541H201.392ZM202.188 350.072C202.957 350.072 203.527 349.874 203.898 349.476C204.27 349.051 204.455 348.335 204.455 347.327V344.901C204.455 343.628 204.23 342.752 203.779 342.275C203.355 341.771 202.639 341.519 201.631 341.519H199.681V350.072H202.188ZM211.389 326.203H215.766V354.051H211.389V326.203ZM219.043 326.203H223.419V350.072H230.62V354.051H219.043V326.203ZM232.718 326.203H237.095V354.051H232.718V326.203ZM243.793 330.181H239.218V326.203H252.745V330.181H248.17V354.051H243.793V330.181ZM259.037 342.195L253.746 326.203H258.4L261.384 336.427H261.464L264.447 326.203H268.704L263.413 342.195V354.051H259.037V342.195Z" fill="black"/>
<path d="M512.496 539.833C606.845 539.833 683.33 463.348 683.33 369C683.33 274.651 606.845 198.166 512.496 198.166C418.148 198.166 341.663 274.651 341.663 369C341.663 463.348 418.148 539.833 512.496 539.833Z" fill="black"/>
<path d="M512.499 529.547C601.167 529.547 673.046 457.668 673.046 369C673.046 280.332 601.167 208.452 512.499 208.452C423.831 208.452 351.951 280.332 351.951 369C351.951 457.668 423.831 529.547 512.499 529.547Z" fill="white"/>
<path d="M516.538 367.024L661.285 307.207C666.205 319.819 672.175 339.552 672.868 364.297C673.635 391.69 667.61 413.549 662.813 426.841C614.053 406.9 565.298 386.965 516.538 367.024Z" fill="#F4F4F4"/>
<path d="M506.755 218.465H503.655V216.549C505.774 216.392 507.039 215.539 507.585 214.558H509.501V232.657H506.761V218.465H506.755Z" fill="black"/>
<path d="M512.157 228.576V218.65C512.157 216.067 513.887 214.309 516.476 214.309C519.065 214.309 520.765 216.067 520.765 218.65V219.242H518.13V218.517C518.13 217.536 517.486 216.886 516.499 216.886C515.512 216.886 514.897 217.53 514.897 218.517V222.656C515.309 221.982 516.215 221.361 517.561 221.361C519.657 221.361 520.899 222.806 520.899 225.059V228.576C520.899 231.159 519.14 232.918 516.557 232.918C513.974 232.918 512.163 231.159 512.163 228.576H512.157ZM518.153 228.704V225.471C518.153 224.356 517.584 223.84 516.656 223.84C515.57 223.84 514.897 224.513 514.897 225.651V228.704C514.897 229.685 515.518 230.335 516.551 230.335C517.584 230.335 518.153 229.691 518.153 228.704Z" fill="black"/>
<path d="M449.67 232.087L446.802 233.271L446.071 231.507C447.969 230.555 448.817 229.278 448.939 228.163L450.709 227.432L457.634 244.155L455.103 245.205L449.67 232.093V232.087Z" fill="black"/>
<path d="M458.439 239.337L458.231 238.838L460.57 237.59L460.796 238.141C461.348 239.476 462.143 239.767 463.072 239.378C464 238.989 464.36 238.228 463.902 237.131L462.299 233.26C461.893 232.279 461.168 232.023 460.361 232.36C459.455 232.737 459.043 233.631 459.467 234.659L459.583 234.943L457.145 235.953L453.186 226.399L460.425 223.404L461.411 225.795L456.611 227.786L458.335 231.942C458.428 231.147 459.095 230.201 460.245 229.725C462.131 228.941 463.832 229.806 464.674 231.838L466.415 236.04C467.466 238.571 466.595 240.724 464.111 241.752C461.626 242.779 459.49 241.874 458.439 239.343V239.337Z" fill="black"/>
<path d="M402.074 266.555L399.88 268.749L398.527 267.397C399.915 265.789 400.211 264.291 399.897 263.211L401.25 261.859L414.049 274.658L412.11 276.597L402.074 266.561V266.555Z" fill="black"/>
<path d="M419.6 263.757L418.561 264.796L421.231 267.466L419.293 269.405L416.623 266.735L412.838 270.519L411.102 268.784L406.128 256.971L408.432 254.667L416.733 262.968L417.778 261.923L419.606 263.751L419.6 263.757ZM414.794 264.906L409.767 259.88L412.838 266.862L414.794 264.906Z" fill="black"/>
<path d="M371.314 316.462L370.13 319.33L368.359 318.598C369.027 316.578 368.725 315.081 368.023 314.204L368.754 312.44L385.477 319.364L384.426 321.895L371.314 316.462Z" fill="black"/>
<path d="M384.232 307.035L385.781 307.68C388.312 308.73 389.264 310.89 388.219 313.42C387.169 315.951 384.969 316.804 382.438 315.754L381.939 315.545L382.711 313.008L383.262 313.235C384.597 313.786 385.41 313.455 385.816 312.474C386.223 311.493 385.886 310.687 384.789 310.228L383.047 309.508C381.712 308.951 380.9 309.288 380.343 310.628L379.925 311.633L377.533 310.646L377.881 309.81C378.433 308.475 378.102 307.662 376.761 307.105L375.473 306.571C374.492 306.165 373.749 306.472 373.377 307.378C373.006 308.283 373.307 309.026 374.526 309.531L374.91 309.688L373.9 312.126L373.325 311.888C370.91 310.89 369.987 308.8 371.009 306.339C372.03 303.878 374.161 303.054 376.575 304.052L377.672 304.505C379.176 305.126 380.018 306.205 380.134 307.622C381.265 306.577 382.664 306.374 384.243 307.03L384.232 307.035Z" fill="black"/>
<path d="M361.967 374.431V377.531H360.051C359.895 375.412 359.041 374.147 358.061 373.601V371.686H376.159V374.425H361.967V374.431Z" fill="black"/>
<path d="M373.575 366.207V360.779H376.158V369.469H373.778L367.393 365.464C365.013 363.966 363.771 363.525 362.378 363.525C361.112 363.525 360.416 364.117 360.416 365.179C360.416 366.241 361.112 366.833 362.378 366.833H363.44V369.469H362.587C359.638 369.469 357.827 367.867 357.827 365.15C357.827 362.434 359.51 360.779 362.302 360.779C364.264 360.779 365.872 361.371 368.792 363.211L373.575 366.212V366.207Z" fill="black"/>
<path d="M375.083 430.604L376.267 433.471L374.503 434.202C373.551 432.304 372.274 431.457 371.159 431.335L370.428 429.565L387.151 422.64L388.201 425.171L375.089 430.604H375.083Z" fill="black"/>
<path d="M371.984 423.127L373.174 425.994L371.404 426.726C370.452 424.827 369.175 423.98 368.06 423.858L367.329 422.088L384.052 415.163L385.102 417.694L371.99 423.127H371.984Z" fill="black"/>
<path d="M410.212 479.593L412.407 481.787L411.054 483.139C409.446 481.752 407.949 481.456 406.869 481.77L405.517 480.417L418.316 467.618L420.254 469.557L410.218 479.593H410.212Z" fill="black"/>
<path d="M413.52 468.646L406.537 475.628C404.691 477.474 402.207 477.474 400.338 475.611C398.475 473.748 398.475 471.258 400.321 469.412L407.304 462.429C409.149 460.583 411.634 460.583 413.503 462.446C415.366 464.31 415.366 466.8 413.52 468.646ZM409.242 464.368L402.259 471.351C401.453 472.152 401.453 473.069 402.167 473.783C402.88 474.497 403.792 474.497 404.599 473.69L411.581 466.707C412.388 465.9 412.388 464.989 411.674 464.275C410.96 463.561 410.049 463.561 409.242 464.368Z" fill="black"/>
<path d="M451.262 506.387L455.064 497.215C456.051 494.824 458.326 493.866 460.718 494.853C463.109 495.845 464.009 498.121 463.022 500.507L462.796 501.058L460.358 500.048L460.636 499.38C461.014 498.475 460.659 497.627 459.754 497.25C458.848 496.873 458.024 497.233 457.653 498.144L456.068 501.963C456.707 501.499 457.78 501.273 459.023 501.789C460.956 502.59 461.548 504.401 460.689 506.479L459.342 509.73C458.355 512.116 456.057 513.068 453.665 512.081C451.227 511.071 450.275 508.772 451.268 506.387H451.262ZM456.753 508.801L457.989 505.818C458.413 504.79 458.088 504.094 457.229 503.74C456.225 503.322 455.348 503.687 454.913 504.738L453.746 507.559C453.369 508.465 453.694 509.3 454.652 509.695C455.557 510.072 456.382 509.713 456.753 508.801Z" fill="black"/>
<path d="M507.949 511.21V509.532C507.949 506.793 509.58 505.086 512.5 505.086C515.42 505.086 517.051 506.793 517.051 509.532V511.21C517.051 512.917 516.325 514.13 515.036 514.751C516.197 515.395 516.871 516.585 516.871 518.239V519.429C516.871 522.041 515.292 523.696 512.5 523.696C509.708 523.696 508.129 522.041 508.129 519.429V518.239C508.129 516.585 508.802 515.395 509.963 514.751C508.669 514.13 507.949 512.917 507.949 511.21ZM510.689 511.367C510.689 512.812 511.31 513.433 512.5 513.433C513.69 513.433 514.311 512.812 514.311 511.367V509.48C514.311 508.29 513.69 507.669 512.5 507.669C511.31 507.669 510.689 508.29 510.689 509.48V511.367ZM514.125 518.088C514.125 516.643 513.504 516.022 512.494 516.022C511.484 516.022 510.863 516.643 510.863 518.088V519.487C510.863 520.549 511.432 521.118 512.494 521.118C513.556 521.118 514.125 520.549 514.125 519.487V518.088Z" fill="black"/>
<path d="M567.795 513.254L566.884 511.054L564.881 494.871L567.51 493.78L569.246 509.794L574.476 507.629L575.486 510.067L567.795 513.254Z" fill="black"/>
<path d="M614.79 465.285L621.808 472.302C623.637 474.131 623.654 476.598 621.826 478.426C619.997 480.255 617.548 480.22 615.719 478.391L615.301 477.973L617.165 476.11L617.675 476.621C618.372 477.317 619.283 477.317 619.98 476.621C620.676 475.924 620.659 475.03 619.962 474.334L617.037 471.408C617.223 472.175 617.019 473.254 616.067 474.206C614.587 475.686 612.683 475.541 611.093 473.951L608.609 471.466C606.78 469.638 606.78 467.154 608.609 465.325C610.472 463.462 612.962 463.462 614.79 465.29V465.285ZM610.46 469.435L612.747 471.722C613.531 472.506 614.303 472.471 614.959 471.815C615.725 471.049 615.725 470.097 614.924 469.29L612.765 467.131C612.068 466.434 611.174 466.417 610.443 467.148C609.746 467.844 609.764 468.738 610.46 469.435Z" fill="black"/>
<path d="M643.905 418.86L644.405 419.069L643.633 421.606L643.081 421.379C641.746 420.828 640.98 421.182 640.597 422.111C640.214 423.039 640.498 423.835 641.595 424.287L645.467 425.889C646.448 426.296 647.139 425.965 647.475 425.158C647.853 424.253 647.51 423.324 646.483 422.9L646.198 422.784L647.208 420.346L656.762 424.305L653.767 431.543L651.376 430.556L653.367 425.756L649.211 424.032C649.704 424.659 649.907 425.802 649.431 426.952C648.648 428.838 646.837 429.43 644.805 428.589L640.603 426.847C638.072 425.797 637.166 423.661 638.194 421.176C639.221 418.692 641.375 417.821 643.905 418.872V418.86Z" fill="black"/>
<path d="M652.614 373.811V372.336H648.841V369.597H652.614V364.245H655.069L666.933 369.08V372.336H655.197V373.811H652.614ZM655.197 369.597H662.307L655.197 366.828V369.597Z" fill="black"/>
<path d="M645.503 318.488L643.953 319.132C641.423 320.183 639.223 319.33 638.172 316.799C637.121 314.268 638.079 312.109 640.61 311.058L641.109 310.849L642.357 313.188L641.806 313.415C640.471 313.966 640.134 314.779 640.54 315.76C640.947 316.741 641.759 317.072 642.856 316.619L644.598 315.899C645.933 315.348 646.269 314.535 645.718 313.2L645.3 312.196L647.691 311.203L648.04 312.039C648.591 313.374 649.404 313.711 650.745 313.159L652.033 312.625C653.014 312.219 653.322 311.476 652.945 310.57C652.567 309.665 651.824 309.357 650.605 309.857L650.222 310.013L649.212 307.575L649.787 307.337C652.202 306.339 654.332 307.163 655.348 309.624C656.369 312.085 655.441 314.175 653.032 315.173L651.935 315.626C650.431 316.247 649.073 316.085 647.993 315.162C647.929 316.7 647.088 317.832 645.509 318.488H645.503Z" fill="black"/>
<path d="M609.935 269.979L613.772 273.816L611.944 275.644L605.803 269.503L607.486 267.82L614.834 266.137C617.574 265.515 618.764 264.947 619.751 263.96C620.645 263.066 620.72 262.149 619.972 261.4C619.223 260.651 618.306 260.721 617.412 261.621L616.663 262.369L614.8 260.506L615.403 259.902C617.487 257.819 619.902 257.673 621.823 259.589C623.744 261.51 623.721 263.867 621.748 265.84C620.36 267.228 618.805 267.942 615.438 268.714L609.935 269.973V269.979Z" fill="black"/>
<path d="M569.86 229.818L566.992 228.628L567.724 226.857C569.744 227.525 571.241 227.223 572.118 226.521L573.888 227.252L566.963 243.969L564.433 242.919L569.866 229.806L569.86 229.818Z" fill="black"/>
<path d="M512.499 370.468C514.31 370.468 515.779 368.999 515.779 367.188C515.779 365.377 514.31 363.909 512.499 363.909C510.688 363.909 509.219 365.377 509.219 367.188C509.219 368.999 510.688 370.468 512.499 370.468Z" fill="black"/>
<path d="M496.312 390.201H511.888V391.961H496.312V390.201ZM502.958 388.273H505.186V390.725H502.958V388.273ZM498.259 383.574H509.903V388.928H498.259V383.574ZM507.713 385.296H500.449V387.205H507.713V385.296ZM498.128 392.99H509.96V397.259H500.337V398.944H498.146V395.705H507.769V394.638H498.128V392.99ZM498.146 398.438H510.428V400.123H498.146V398.438ZM524.804 383.049H527.051V392.298H524.804V383.049ZM515.706 393.084H517.896V394.806H524.842V393.084H527.051V400.067H515.706V393.084ZM517.896 396.529V398.289H524.842V396.529H517.896ZM517.709 383.779C518.595 383.779 519.388 383.954 520.086 384.304C520.785 384.641 521.335 385.115 521.734 385.726C522.133 386.326 522.333 387.025 522.333 387.823C522.333 388.61 522.133 389.309 521.734 389.92C521.335 390.532 520.785 391.012 520.086 391.362C519.388 391.699 518.595 391.867 517.709 391.867C516.823 391.867 516.03 391.699 515.331 391.362C514.632 391.012 514.083 390.532 513.684 389.92C513.284 389.309 513.085 388.61 513.085 387.823C513.085 387.025 513.284 386.326 513.684 385.726C514.083 385.115 514.632 384.641 515.331 384.304C516.03 383.954 516.823 383.779 517.709 383.779ZM517.709 385.614C517.235 385.614 516.81 385.708 516.436 385.895C516.074 386.07 515.787 386.326 515.575 386.663C515.362 386.987 515.256 387.374 515.256 387.823C515.256 388.273 515.362 388.666 515.575 389.003C515.787 389.327 516.074 389.577 516.436 389.752C516.81 389.926 517.235 390.014 517.709 390.014C518.183 390.014 518.601 389.926 518.963 389.752C519.338 389.577 519.631 389.327 519.843 389.003C520.055 388.666 520.161 388.273 520.161 387.823C520.161 387.374 520.055 386.987 519.843 386.663C519.631 386.326 519.338 386.07 518.963 385.895C518.601 385.708 518.183 385.614 517.709 385.614Z" fill="black"/>
<path d="M468.749 326.203H475.433C477.608 326.203 479.239 326.786 480.326 327.953C481.414 329.12 481.957 330.831 481.957 333.085V347.168C481.957 349.423 481.414 351.133 480.326 352.3C479.239 353.467 477.608 354.051 475.433 354.051H468.749V326.203ZM475.353 350.072C476.069 350.072 476.613 349.86 476.984 349.436C477.382 349.012 477.581 348.322 477.581 347.367V332.886C477.581 331.931 477.382 331.242 476.984 330.817C476.613 330.393 476.069 330.181 475.353 330.181H473.125V350.072H475.353ZM484.911 326.203H489.287V354.051H484.911V326.203ZM498.771 354.449C496.649 354.449 495.031 353.852 493.917 352.658C492.803 351.438 492.247 349.701 492.247 347.447V332.807C492.247 330.552 492.803 328.828 493.917 327.635C495.031 326.415 496.649 325.805 498.771 325.805C500.893 325.805 502.511 326.415 503.625 327.635C504.738 328.828 505.295 330.552 505.295 332.807V335.194H501.158V332.528C501.158 330.698 500.402 329.783 498.89 329.783C497.379 329.783 496.623 330.698 496.623 332.528V347.765C496.623 349.569 497.379 350.47 498.89 350.47C500.402 350.47 501.158 349.569 501.158 347.765V342.315H498.97V338.336H505.295V347.447C505.295 349.701 504.738 351.438 503.625 352.658C502.511 353.852 500.893 354.449 498.771 354.449ZM514.311 354.449C512.189 354.449 510.572 353.852 509.458 352.658C508.344 351.438 507.787 349.701 507.787 347.447V332.807C507.787 330.552 508.344 328.828 509.458 327.635C510.572 326.415 512.189 325.805 514.311 325.805C516.433 325.805 518.051 326.415 519.165 327.635C520.279 328.828 520.836 330.552 520.836 332.807V335.194H516.698V332.528C516.698 330.698 515.942 329.783 514.431 329.783C512.919 329.783 512.163 330.698 512.163 332.528V347.765C512.163 349.569 512.919 350.47 514.431 350.47C515.942 350.47 516.698 349.569 516.698 347.765V342.315H514.51V338.336H520.836V347.447C520.836 349.701 520.279 351.438 519.165 352.658C518.051 353.852 516.433 354.449 514.311 354.449ZM523.645 326.203H528.021V354.051H523.645V326.203ZM531.299 326.203H536.789L541.046 342.872H541.125V326.203H545.024V354.051H540.529L535.277 333.722H535.198V354.051H531.299V326.203ZM554.483 354.449C552.361 354.449 550.743 353.852 549.629 352.658C548.515 351.438 547.958 349.701 547.958 347.447V332.807C547.958 330.552 548.515 328.828 549.629 327.635C550.743 326.415 552.361 325.805 554.483 325.805C556.605 325.805 558.222 326.415 559.336 327.635C560.45 328.828 561.007 330.552 561.007 332.807V335.194H556.87V332.528C556.87 330.698 556.114 329.783 554.602 329.783C553.09 329.783 552.335 330.698 552.335 332.528V347.765C552.335 349.569 553.09 350.47 554.602 350.47C556.114 350.47 556.87 349.569 556.87 347.765V342.315H554.682V338.336H561.007V347.447C561.007 349.701 560.45 351.438 559.336 352.658C558.222 353.852 556.605 354.449 554.483 354.449Z" fill="black"/>
<path d="M854.17 539.833C948.519 539.833 1025 463.348 1025 368.999C1025 274.651 948.519 198.166 854.17 198.166C759.822 198.166 683.337 274.651 683.337 368.999C683.337 463.348 759.822 539.833 854.17 539.833Z" fill="black"/>
<path d="M854.173 529.547C942.841 529.547 1014.72 457.667 1014.72 368.999C1014.72 280.331 942.841 208.451 854.173 208.451C765.505 208.451 693.625 280.331 693.625 368.999C693.625 457.667 765.505 529.547 854.173 529.547Z" fill="white"/>
<path d="M858.627 367.024L1003.37 307.207C1008.29 319.819 1014.26 339.551 1014.96 364.297C1015.72 391.69 1009.7 413.549 1004.9 426.841C956.141 406.9 907.387 386.965 858.627 367.024Z" fill="#F4F4F4"/>
<path d="M848.431 218.464H845.331V216.548C847.45 216.392 848.715 215.538 849.261 214.557H851.176V232.656H848.436V218.464H848.431Z" fill="black"/>
<path d="M853.833 228.575V218.649C853.833 216.066 855.562 214.307 858.151 214.307C860.74 214.307 862.441 216.066 862.441 218.649V219.241H859.806V218.516C859.806 217.535 859.161 216.885 858.175 216.885C857.188 216.885 856.572 217.529 856.572 218.516V222.654C856.985 221.981 857.89 221.36 859.237 221.36C861.332 221.36 862.574 222.805 862.574 225.057V228.575C862.574 231.158 860.816 232.917 858.233 232.917C855.65 232.917 853.839 231.158 853.839 228.575H853.833ZM859.829 228.703V225.47C859.829 224.355 859.26 223.839 858.331 223.839C857.246 223.839 856.572 224.512 856.572 225.65V228.703C856.572 229.684 857.194 230.334 858.227 230.334C859.26 230.334 859.829 229.69 859.829 228.703Z" fill="black"/>
<path d="M791.347 232.087L788.48 233.271L787.748 231.507C789.646 230.555 790.494 229.278 790.616 228.163L792.386 227.432L799.311 244.155L796.78 245.205L791.347 232.093V232.087Z" fill="black"/>
<path d="M800.117 239.337L799.908 238.838L802.247 237.59L802.473 238.141C803.025 239.476 803.82 239.767 804.749 239.378C805.677 238.989 806.037 238.228 805.579 237.131L803.977 233.26C803.57 232.279 802.845 232.023 802.038 232.36C801.133 232.737 800.72 233.631 801.144 234.659L801.26 234.943L798.822 235.953L794.864 226.399L802.102 223.404L803.089 225.795L798.288 227.786L800.012 231.942C800.105 231.147 800.773 230.201 801.922 229.725C803.808 228.941 805.509 229.806 806.351 231.838L808.092 236.04C809.143 238.571 808.272 240.724 805.788 241.752C803.303 242.779 801.167 241.874 800.117 239.343V239.337Z" fill="black"/>
<path d="M743.745 266.554L741.551 268.749L740.198 267.396C741.586 265.788 741.882 264.291 741.568 263.211L742.921 261.859L755.72 274.658L753.781 276.596L743.745 266.56V266.554Z" fill="black"/>
<path d="M761.271 263.756L760.232 264.795L762.902 267.466L760.964 269.404L758.294 266.734L754.509 270.519L752.774 268.783L747.799 256.971L750.103 254.667L758.404 262.967L759.449 261.922L761.277 263.751L761.271 263.756ZM756.465 264.906L751.439 259.879L754.509 266.862L756.465 264.906Z" fill="black"/>
<path d="M712.988 316.462L711.804 319.329L710.033 318.598C710.701 316.578 710.399 315.08 709.697 314.204L710.428 312.439L727.151 319.364L726.1 321.895L712.988 316.462Z" fill="black"/>
<path d="M725.906 307.035L727.455 307.679C729.986 308.73 730.938 310.889 729.893 313.42C728.843 315.951 726.643 316.804 724.112 315.753L723.613 315.544L724.385 313.008L724.936 313.234C726.271 313.786 727.084 313.455 727.49 312.474C727.897 311.493 727.56 310.686 726.463 310.228L724.722 309.508C723.386 308.951 722.574 309.287 722.017 310.628L721.599 311.632L719.207 310.645L719.555 309.81C720.107 308.475 719.776 307.662 718.435 307.105L717.147 306.571C716.166 306.164 715.423 306.472 715.051 307.378C714.68 308.283 714.982 309.026 716.2 309.531L716.584 309.688L715.574 312.126L714.999 311.888C712.584 310.889 711.661 308.8 712.683 306.338C713.705 303.877 715.835 303.053 718.249 304.052L719.347 304.504C720.85 305.125 721.692 306.205 721.808 307.621C722.94 306.576 724.338 306.373 725.917 307.029L725.906 307.035Z" fill="black"/>
<path d="M703.639 374.431V377.531H701.724C701.567 375.412 700.714 374.147 699.733 373.601V371.686H717.831V374.425H703.639V374.431Z" fill="black"/>
<path d="M715.247 366.207V360.779H717.83V369.469H715.45L709.065 365.464C706.685 363.966 705.443 363.525 704.05 363.525C702.785 363.525 702.088 364.117 702.088 365.179C702.088 366.241 702.785 366.834 704.05 366.834H705.112V369.469H704.259C701.31 369.469 699.499 367.867 699.499 365.15C699.499 362.434 701.183 360.779 703.974 360.779C705.936 360.779 707.544 361.371 710.464 363.212L715.247 366.212V366.207Z" fill="black"/>
<path d="M716.748 430.603L717.932 433.47L716.168 434.201C715.216 432.303 713.939 431.456 712.824 431.334L712.093 429.564L728.816 422.639L729.867 425.17L716.754 430.603H716.748Z" fill="black"/>
<path d="M713.65 423.126L714.839 425.994L713.069 426.725C712.117 424.827 710.84 423.979 709.726 423.858L708.994 422.087L725.717 415.162L726.768 417.693L713.655 423.126H713.65Z" fill="black"/>
<path d="M751.889 479.593L754.084 481.787L752.731 483.139C751.123 481.752 749.626 481.456 748.546 481.769L747.194 480.417L759.993 467.618L761.931 469.557L751.895 479.593H751.889Z" fill="black"/>
<path d="M755.197 468.645L748.214 475.628C746.368 477.474 743.884 477.474 742.015 475.611C740.152 473.747 740.152 471.257 741.998 469.411L748.98 462.428C750.826 460.583 753.311 460.583 755.18 462.446C757.043 464.309 757.043 466.799 755.197 468.645ZM750.919 464.367L743.936 471.35C743.129 472.151 743.13 473.068 743.843 473.782C744.557 474.496 745.469 474.496 746.276 473.689L753.258 466.706C754.065 465.9 754.065 464.988 753.351 464.274C752.637 463.56 751.726 463.56 750.919 464.367Z" fill="black"/>
<path d="M792.934 506.387L796.736 497.215C797.723 494.824 799.998 493.866 802.39 494.853C804.781 495.846 805.681 498.121 804.694 500.507L804.468 501.058L802.03 500.048L802.309 499.381C802.686 498.475 802.332 497.628 801.426 497.25C800.521 496.873 799.697 497.233 799.325 498.144L797.74 501.964C798.379 501.499 799.453 501.273 800.695 501.789C802.628 502.59 803.22 504.402 802.361 506.48L801.014 509.73C800.027 512.116 797.729 513.068 795.337 512.081C792.899 511.071 791.947 508.772 792.94 506.387H792.934ZM798.425 508.801L799.662 505.818C800.085 504.79 799.76 504.094 798.901 503.74C797.897 503.322 797.021 503.688 796.585 504.738L795.419 507.559C795.041 508.465 795.366 509.301 796.324 509.695C797.23 510.073 798.054 509.713 798.425 508.801Z" fill="black"/>
<path d="M849.621 511.21V509.532C849.621 506.792 851.252 505.086 854.172 505.086C857.091 505.086 858.722 506.792 858.722 509.532V511.21C858.722 512.916 857.997 514.129 856.708 514.75C857.869 515.395 858.542 516.585 858.542 518.239V519.429C858.542 522.041 856.964 523.695 854.172 523.695C851.38 523.695 849.801 522.041 849.801 519.429V518.239C849.801 516.585 850.474 515.395 851.635 514.75C850.341 514.129 849.621 512.916 849.621 511.21ZM852.361 511.366C852.361 512.812 852.982 513.433 854.172 513.433C855.361 513.433 855.983 512.812 855.983 511.366V509.48C855.983 508.29 855.361 507.669 854.172 507.669C852.982 507.669 852.361 508.29 852.361 509.48V511.366ZM855.797 518.088C855.797 516.643 855.176 516.022 854.166 516.022C853.156 516.022 852.535 516.643 852.535 518.088V519.487C852.535 520.549 853.104 521.118 854.166 521.118C855.228 521.118 855.797 520.549 855.797 519.487V518.088Z" fill="black"/>
<path d="M909.472 513.253L908.561 511.053L906.558 494.87L909.188 493.779L910.923 509.794L916.153 507.629L917.163 510.067L909.472 513.253Z" fill="black"/>
<path d="M956.465 465.285L963.483 472.303C965.311 474.131 965.328 476.598 963.5 478.426C961.672 480.255 959.222 480.22 957.394 478.391L956.976 477.974L958.839 476.11L959.35 476.621C960.046 477.318 960.958 477.318 961.654 476.621C962.351 475.925 962.333 475.031 961.637 474.334L958.711 471.409C958.897 472.175 958.694 473.254 957.742 474.206C956.262 475.687 954.358 475.541 952.767 473.951L950.283 471.467C948.455 469.638 948.455 467.154 950.283 465.325C952.146 463.462 954.637 463.462 956.465 465.291V465.285ZM952.135 469.435L954.422 471.722C955.205 472.506 955.977 472.471 956.633 471.815C957.399 471.049 957.399 470.097 956.598 469.29L954.439 467.131C953.743 466.434 952.849 466.417 952.117 467.148C951.421 467.845 951.438 468.739 952.135 469.435Z" fill="black"/>
<path d="M985.579 418.86L986.078 419.069L985.306 421.605L984.755 421.379C983.42 420.827 982.654 421.182 982.27 422.11C981.887 423.039 982.172 423.834 983.269 424.287L987.14 425.889C988.121 426.295 988.812 425.964 989.149 425.158C989.526 424.252 989.184 423.323 988.156 422.9L987.872 422.784L988.882 420.346L998.436 424.304L995.441 431.543L993.049 430.556L995.04 425.755L990.884 424.032C991.378 424.658 991.581 425.802 991.105 426.951C990.321 428.838 988.51 429.43 986.479 428.588L982.276 426.847C979.745 425.796 978.84 423.66 979.867 421.176C980.895 418.691 983.048 417.821 985.579 418.871V418.86Z" fill="black"/>
<path d="M994.286 373.81V372.336H990.513V369.596H994.286V364.244H996.742L1008.61 369.08V372.336H996.869V373.81H994.286ZM996.869 369.596H1003.98L996.869 366.827V369.596Z" fill="black"/>
<path d="M987.175 318.487L985.625 319.132C983.094 320.182 980.894 319.329 979.844 316.798C978.793 314.267 979.751 312.108 982.282 311.057L982.781 310.848L984.029 313.188L983.478 313.414C982.142 313.966 981.806 314.778 982.212 315.759C982.618 316.74 983.431 317.071 984.528 316.618L986.269 315.898C987.605 315.347 987.941 314.534 987.39 313.199L986.972 312.195L989.363 311.203L989.712 312.038C990.263 313.373 991.076 313.71 992.416 313.159L993.705 312.625C994.686 312.218 994.994 311.475 994.616 310.57C994.239 309.664 993.496 309.357 992.277 309.856L991.894 310.013L990.884 307.575L991.459 307.337C993.873 306.338 996.004 307.163 997.02 309.624C998.041 312.085 997.112 314.174 994.703 315.173L993.606 315.626C992.103 316.247 990.745 316.084 989.665 315.161C989.601 316.699 988.76 317.831 987.181 318.487H987.175Z" fill="black"/>
<path d="M951.608 269.979L955.445 273.815L953.616 275.644L947.475 269.503L949.159 267.819L956.507 266.136C959.247 265.515 960.437 264.946 961.424 263.959C962.317 263.065 962.393 262.148 961.644 261.4C960.895 260.651 959.978 260.72 959.084 261.62L958.336 262.369L956.472 260.506L957.076 259.902C959.16 257.818 961.575 257.673 963.496 259.588C965.417 261.51 965.394 263.866 963.42 265.84C962.033 267.227 960.477 267.941 957.111 268.713L951.608 269.973V269.979Z" fill="black"/>
<path d="M911.533 229.817L908.666 228.627L909.397 226.857C911.417 227.525 912.915 227.223 913.791 226.52L915.562 227.252L908.637 243.969L906.106 242.918L911.539 229.806L911.533 229.817Z" fill="black"/>
<path d="M854.172 370.467C855.983 370.467 857.451 368.999 857.451 367.188C857.451 365.376 855.983 363.908 854.172 363.908C852.361 363.908 850.892 365.376 850.892 367.188C850.892 368.999 852.361 370.467 854.172 370.467Z" fill="black"/>
<path d="M845.234 393.796C846.47 393.796 847.537 393.927 848.436 394.189C849.347 394.451 850.052 394.825 850.551 395.312C851.05 395.786 851.3 396.36 851.3 397.034C851.3 397.708 851.05 398.282 850.551 398.757C850.052 399.243 849.347 399.612 848.436 399.861C847.537 400.123 846.47 400.254 845.234 400.254C843.999 400.254 842.925 400.123 842.014 399.861C841.103 399.612 840.398 399.243 839.899 398.757C839.399 398.282 839.15 397.708 839.15 397.034C839.15 396.36 839.399 395.786 839.899 395.312C840.398 394.825 841.103 394.451 842.014 394.189C842.925 393.927 843.999 393.796 845.234 393.796ZM845.234 395.48C844.423 395.48 843.73 395.543 843.156 395.668C842.582 395.78 842.139 395.955 841.827 396.192C841.527 396.417 841.378 396.697 841.378 397.034C841.378 397.359 841.527 397.64 841.827 397.877C842.139 398.101 842.582 398.276 843.156 398.401C843.73 398.513 844.423 398.569 845.234 398.569C846.046 398.569 846.738 398.513 847.312 398.401C847.886 398.276 848.323 398.101 848.623 397.877C848.935 397.64 849.091 397.359 849.091 397.034C849.091 396.697 848.935 396.417 848.623 396.192C848.323 395.955 847.886 395.78 847.312 395.668C846.738 395.543 846.046 395.48 845.234 395.48ZM839.318 383.836H850.289V385.596H839.318V383.836ZM837.558 390.819H853.06V392.597H837.558V390.819ZM843.474 387.73H845.684V391.287H843.474V387.73ZM848.979 383.836H851.188V385.259C851.188 385.945 851.169 386.663 851.132 387.411C851.094 388.148 850.957 388.965 850.72 389.864L848.529 389.621C848.754 388.747 848.885 387.973 848.922 387.299C848.96 386.613 848.979 385.932 848.979 385.259V383.836ZM857.645 393.852H859.929V400.254H857.645V393.852ZM863.599 393.852H865.864V400.254H863.599V393.852ZM853.994 392.691H869.589V394.488H853.994V392.691ZM861.764 383.648C862.987 383.648 864.06 383.804 864.984 384.117C865.908 384.429 866.625 384.872 867.137 385.446C867.661 386.02 867.923 386.7 867.923 387.486C867.923 388.248 867.661 388.915 867.137 389.49C866.625 390.064 865.908 390.507 864.984 390.819C864.06 391.131 862.987 391.287 861.764 391.287C860.553 391.287 859.48 391.131 858.544 390.819C857.62 390.507 856.896 390.064 856.372 389.49C855.848 388.915 855.586 388.248 855.586 387.486C855.586 386.7 855.848 386.02 856.372 385.446C856.896 384.872 857.62 384.429 858.544 384.117C859.48 383.804 860.553 383.648 861.764 383.648ZM861.764 385.427C860.978 385.427 860.291 385.508 859.704 385.67C859.13 385.833 858.681 386.07 858.357 386.382C858.032 386.681 857.87 387.05 857.87 387.486C857.87 387.911 858.032 388.279 858.357 388.591C858.681 388.89 859.13 389.121 859.704 389.284C860.291 389.446 860.978 389.527 861.764 389.527C862.55 389.527 863.23 389.446 863.804 389.284C864.391 389.121 864.84 388.89 865.152 388.591C865.477 388.279 865.639 387.911 865.639 387.486C865.639 387.05 865.477 386.681 865.152 386.382C864.84 386.07 864.391 385.833 863.804 385.67C863.23 385.508 862.55 385.427 861.764 385.427Z" fill="black"/>
<path d="M811.727 354.449C809.605 354.449 808.001 353.852 806.913 352.658C805.826 351.438 805.282 349.701 805.282 347.447V345.855H809.42V347.765C809.42 349.569 810.176 350.47 811.687 350.47C812.43 350.47 812.987 350.258 813.358 349.834C813.756 349.383 813.955 348.667 813.955 347.685C813.955 346.519 813.69 345.497 813.159 344.622C812.629 343.72 811.648 342.646 810.215 341.4C808.412 339.808 807.152 338.376 806.436 337.103C805.72 335.804 805.362 334.345 805.362 332.727C805.362 330.526 805.919 328.828 807.033 327.635C808.147 326.415 809.765 325.805 811.886 325.805C813.982 325.805 815.56 326.415 816.62 327.635C817.708 328.828 818.252 330.552 818.252 332.807V333.96H814.114V332.528C814.114 331.573 813.928 330.884 813.557 330.459C813.186 330.009 812.642 329.783 811.926 329.783C810.467 329.783 809.738 330.672 809.738 332.449C809.738 333.456 810.003 334.398 810.534 335.273C811.091 336.148 812.085 337.209 813.517 338.456C815.347 340.047 816.607 341.493 817.297 342.792C817.986 344.092 818.331 345.617 818.331 347.367C818.331 349.648 817.761 351.399 816.62 352.619C815.507 353.839 813.875 354.449 811.727 354.449ZM820.84 326.203H825.216V337.541H829.911V326.203H834.287V354.051H829.911V341.519H825.216V354.051H820.84V326.203ZM840.928 326.203H846.855L851.391 354.051H847.014L846.219 348.521V348.6H841.246L840.45 354.051H836.392L840.928 326.203ZM845.702 344.821L843.752 331.056H843.673L841.763 344.821H845.702ZM853.514 326.203H859.998C862.253 326.203 863.897 326.733 864.931 327.794C865.966 328.828 866.483 330.433 866.483 332.608V334.318C866.483 337.209 865.528 339.039 863.619 339.808V339.888C864.679 340.206 865.422 340.856 865.846 341.837C866.297 342.819 866.523 344.132 866.523 345.776V350.669C866.523 351.465 866.549 352.115 866.602 352.619C866.655 353.096 866.788 353.573 867 354.051H862.544C862.385 353.6 862.279 353.176 862.226 352.778C862.173 352.38 862.147 351.664 862.147 350.629V345.537C862.147 344.264 861.934 343.376 861.51 342.872C861.112 342.368 860.409 342.116 859.402 342.116H857.89V354.051H853.514V326.203ZM859.481 338.138C860.356 338.138 861.006 337.912 861.431 337.461C861.881 337.01 862.107 336.254 862.107 335.194V333.045C862.107 332.037 861.921 331.308 861.55 330.857C861.205 330.406 860.648 330.181 859.879 330.181H857.89V338.138H859.481ZM869.559 326.203H873.935V354.051H869.559V326.203ZM877.213 326.203H882.703L886.959 342.872H887.039V326.203H890.938V354.051H886.442L881.191 333.722H881.111V354.051H877.213V326.203ZM900.397 354.449C898.275 354.449 896.657 353.852 895.543 352.658C894.429 351.438 893.872 349.701 893.872 347.447V332.807C893.872 330.552 894.429 328.828 895.543 327.635C896.657 326.415 898.275 325.805 900.397 325.805C902.518 325.805 904.136 326.415 905.25 327.635C906.364 328.828 906.921 330.552 906.921 332.807V335.194H902.784V332.528C902.784 330.698 902.028 329.783 900.516 329.783C899.004 329.783 898.248 330.698 898.248 332.528V347.765C898.248 349.569 899.004 350.47 900.516 350.47C902.028 350.47 902.784 349.569 902.784 347.765V342.315H900.595V338.336H906.921V347.447C906.921 349.701 906.364 351.438 905.25 352.658C904.136 353.852 902.518 354.449 900.397 354.449Z" fill="black"/>
</g>
<defs>
<clipPath id="clip0_6_518">
<rect width="1024" height="760" fill="white"/>
</clipPath>
</defs>
</svg>
