<svg width="24" height="24" viewBox="0 0 24 24" fill="none" xmlns="http://www.w3.org/2000/svg">
<path d="M14.6999 11.604C14.4279 11.404 14.1359 11.144 13.8239 10.824C13.5199 10.504 13.2479 10.184 13.0079 9.86401L13.9919 9.31201C14.2639 9.66401 14.5719 10.016 14.9159 10.368C15.2599 10.712 15.6199 11.04 15.9959 11.352C16.3719 11.656 16.7399 11.924 17.0999 12.156C16.7399 12.388 16.3719 12.66 15.9959 12.972C15.6199 13.276 15.2599 13.604 14.9159 13.956C14.5719 14.3 14.2639 14.648 13.9919 15L13.0079 14.448C13.2479 14.12 13.5199 13.8 13.8239 13.488C14.1359 13.168 14.4279 12.908 14.6999 12.708L5.99994 12.708L5.99994 11.604L14.6999 11.604Z" fill="black"/>
</svg>
