<svg width="24" height="24" viewBox="0 0 24 24" fill="none" xmlns="http://www.w3.org/2000/svg">
<path d="M11.292 8.39997C11.092 8.67198 10.832 8.96397 10.512 9.27597C10.192 9.57997 9.872 9.85198 9.552 10.092L9 9.10798C9.352 8.83598 9.704 8.52798 10.056 8.18398C10.4 7.83998 10.728 7.47998 11.04 7.10398C11.344 6.72798 11.612 6.35998 11.844 5.99998C12.076 6.35998 12.348 6.72798 12.66 7.10398C12.964 7.47998 13.292 7.83998 13.644 8.18398C13.988 8.52798 14.336 8.83598 14.688 9.10798L14.136 10.092C13.808 9.85198 13.488 9.57997 13.176 9.27597C12.856 8.96397 12.596 8.67197 12.396 8.39997L12.396 17.1L11.292 17.1L11.292 8.39997Z" fill="black"/>
</svg>
