<svg width="286" height="26" viewBox="0 0 286 26" fill="none" xmlns="http://www.w3.org/2000/svg">
<g clip-path="url(#clip0_1032_4393)">
<path d="M13.7411 8.54646C13.7411 5.89832 12.0369 4.10543 9.24307 4.10543C6.44921 4.10543 4.61832 6.11372 4.61832 8.90758H0.696777C0.696777 3.83301 4.19385 0.335938 9.27475 0.335938C14.3556 0.335938 17.7007 3.40855 17.7007 8.39442C17.7007 13.9315 13.5321 16.2375 6.26549 21.5021H17.1558L17.1875 25.5187H0.696777V21.5971C10.3644 14.3876 13.7411 12.2019 13.7411 8.5528V8.54646Z" fill="white"/>
<path d="M32.6264 26C25.0558 26 19.6074 19.9498 19.6074 12.981C19.6074 6.01218 25.0558 0 32.6264 0C40.1971 0 45.6138 6.05019 45.6138 12.9873C45.6138 19.9245 40.1717 26.0063 32.6264 26.0063V26ZM32.6264 21.8377C37.644 21.8377 41.4451 17.8528 41.4451 12.9873C41.4451 8.12183 37.644 4.16862 32.6264 4.16862C27.6089 4.16862 23.776 8.12183 23.776 12.9873C23.776 17.8528 27.5772 21.8377 32.6264 21.8377Z" fill="white"/>
<path d="M60.9071 8.54499C60.9071 5.89684 59.203 4.10395 56.4091 4.10395C53.6152 4.10395 51.7843 6.11224 51.7843 8.9061H47.8628C47.8628 3.8252 51.3599 0.328125 56.4408 0.328125C61.5217 0.328125 64.8667 3.40074 64.8667 8.3866C64.8667 13.9236 60.6981 16.2297 53.4315 21.4943H64.3219L64.3535 25.5109H47.8691V21.5893C57.5431 14.3798 60.9135 12.1941 60.9135 8.54499H60.9071Z" fill="white"/>
<path d="M77.6958 20.4693H65.4688V16.4844L77.9683 0.519531H81.8581V16.5161H84.5316V20.4693H81.8581V25.5502H77.6895V20.4693H77.6958ZM77.7845 16.5415V6.50637L69.7894 16.5415H77.7845Z" fill="white"/>
<path d="M88.7636 25.7582C87.3951 25.7582 86.2104 24.7572 86.2104 23.2367C86.2104 21.7162 87.3951 20.6836 88.7636 20.6836C90.132 20.6836 91.285 21.6846 91.285 23.2367C91.285 24.7889 90.132 25.7582 88.7636 25.7582Z" fill="white"/>
<path d="M96.1186 4.52871L92.3174 4.49704L93.6541 0.480469L100.287 0.512145V25.5428H96.1186V4.52871Z" fill="white"/>
<path d="M116.557 8.54499C116.557 5.89684 114.852 4.10395 112.059 4.10395C109.265 4.10395 107.434 6.11224 107.434 8.9061H103.512C103.512 3.8252 107.009 0.328125 112.09 0.328125C117.171 0.328125 120.516 3.40074 120.516 8.3866C120.516 13.9236 116.347 16.2297 109.081 21.4943H119.971L120.003 25.5109H103.519V21.5893C113.193 14.3798 116.563 12.1941 116.563 8.54499H116.557Z" fill="white"/>
<path d="M124.976 25.7582C123.608 25.7582 122.423 24.7572 122.423 23.2367C122.423 21.7162 123.608 20.6836 124.976 20.6836C126.344 20.6836 127.497 21.6846 127.497 23.2367C127.497 24.7889 126.344 25.7582 124.976 25.7582Z" fill="white"/>
<path d="M142.341 26C134.77 26 129.322 19.9498 129.322 12.981C129.322 6.01218 134.77 0 142.341 0C149.911 0 155.328 6.05019 155.328 12.9873C155.328 19.9245 149.886 26.0063 142.341 26.0063V26ZM142.341 21.8377C147.358 21.8377 151.159 17.8528 151.159 12.9873C151.159 8.12183 147.358 4.16862 142.341 4.16862C137.323 4.16862 133.49 8.12183 133.49 12.9873C133.49 17.8528 137.292 21.8377 142.341 21.8377Z" fill="white"/>
<path d="M166.852 9.51563C172.414 9.88308 174.974 12.772 174.974 17.3017C174.974 22.7437 171.204 25.9113 166.003 25.9113C160.802 25.9113 156.88 22.5346 156.88 16.8772H161.074C161.074 19.9815 162.988 21.8948 166.003 21.8948C169.019 21.8948 170.869 20.1336 170.869 17.0926C170.869 14.2354 169.26 12.4995 165.243 12.4995H162.874L161.841 10.0351L168.011 4.46641H159.586V0.519531H172.725V4.47275L166.858 9.52197L166.852 9.51563Z" fill="white"/>
<path d="M185.003 10.7617H193.182V14.5946H185.003V10.7617Z" fill="white"/>
<path d="M206.232 4.52871L202.431 4.49704L203.768 0.480469L210.395 0.512145V25.5428H206.226V4.52871H206.232Z" fill="white"/>
<path d="M226.663 8.54499C226.663 5.89684 224.959 4.10395 222.165 4.10395C219.372 4.10395 217.541 6.11224 217.541 8.9061H213.619C213.619 3.8252 217.116 0.328125 222.197 0.328125C227.278 0.328125 230.623 3.40074 230.623 8.3866C230.623 13.9236 226.454 16.2297 219.188 21.4943H230.078L230.11 25.5109H213.625V21.5893C223.299 14.3798 226.67 12.1941 226.67 8.54499H226.663Z" fill="white"/>
<path d="M235.09 25.7582C233.721 25.7582 232.537 24.7572 232.537 23.2367C232.537 21.7162 233.721 20.6836 235.09 20.6836C236.458 20.6836 237.611 21.6846 237.611 23.2367C237.611 24.7889 236.458 25.7582 235.09 25.7582Z" fill="white"/>
<path d="M252.455 26C244.884 26 239.436 19.9498 239.436 12.981C239.436 6.01218 244.878 0 252.455 0C260.032 0 265.442 6.05019 265.442 12.9873C265.442 19.9245 260 26.0063 252.455 26.0063V26ZM252.455 21.8377C257.472 21.8377 261.273 17.8528 261.273 12.9873C261.273 8.12183 257.472 4.16862 252.455 4.16862C247.437 4.16862 243.604 8.12183 243.604 12.9873C243.604 17.8528 247.405 21.8377 252.455 21.8377Z" fill="white"/>
<path d="M285.994 9.39637C286.057 11.8291 285.449 13.7741 283.225 17.1824L277.783 25.545H273.19L278.176 17.9997C277.631 18.0884 277.112 18.1517 276.624 18.1517C270.783 18.1517 267.254 14.3506 267.254 9.26967C267.254 4.18877 270.973 0.0898438 276.63 0.0898438C282.288 0.0898438 285.842 4.22678 286 9.39637H285.994ZM276.63 14.661C279.608 14.661 281.888 12.4436 281.888 9.45973C281.888 6.47581 279.608 4.20144 276.63 4.20144C273.653 4.20144 271.372 6.45047 271.372 9.45973C271.372 12.469 273.653 14.661 276.63 14.661Z" fill="white"/>
</g>
<defs>
<clipPath id="clip0_1032_4393">
<rect width="285.303" height="26" fill="white" transform="translate(0.696777)"/>
</clipPath>
</defs>
</svg>
