<svg width="394" height="26" viewBox="0 0 394 26" fill="none" xmlns="http://www.w3.org/2000/svg">
<path d="M13.9035 8.54446C13.9035 5.89696 12.1997 4.10451 9.40652 4.10451C6.61334 4.10451 4.78289 6.11231 4.78289 8.90549H0.862305C0.862305 3.83216 4.35853 0.335938 9.43819 0.335938C14.5179 0.335938 17.8621 3.4078 17.8621 8.39246C17.8621 13.9281 13.6945 16.2336 6.42966 21.497H17.3174L17.349 25.5126H0.862305V21.592C10.5339 14.3842 13.9035 12.199 13.9035 8.5508V8.54446Z" fill="white"/>
<path d="M32.7844 25.9937C25.2156 25.9937 19.7686 19.9449 19.7686 12.9778C19.7686 6.01072 25.2156 0 32.7844 0C40.3532 0 45.7686 6.04872 45.7686 12.9842C45.7686 19.9196 40.3279 26 32.7844 26V25.9937ZM32.7844 21.8324C37.8007 21.8324 41.601 17.8485 41.601 12.9842C41.601 8.11985 37.8007 4.1676 32.7844 4.1676C27.7681 4.1676 23.9362 8.11985 23.9362 12.9842C23.9362 17.8485 27.7364 21.8324 32.7844 21.8324Z" fill="white"/>
<path d="M61.0578 8.54298C61.0578 5.89548 59.354 4.10303 56.5608 4.10303C53.7676 4.10303 51.9372 6.11083 51.9372 8.90401H48.0166C48.0166 3.82435 51.5128 0.328125 56.5925 0.328125C61.6721 0.328125 65.0164 3.39999 65.0164 8.38464C65.0164 13.9203 60.8488 16.2258 53.584 21.4891H64.4717L64.5033 25.5047H48.0229V21.5842C57.6946 14.3764 61.0641 12.1912 61.0641 8.54298H61.0578Z" fill="white"/>
<path d="M77.8433 20.4645H65.6191V16.4806L78.1156 0.519531H82.0045V16.5122H84.6774V20.4645H82.0045V25.5441H77.8369V20.4645H77.8433ZM77.9319 16.5376V6.50492L69.9388 16.5376H77.9319Z" fill="white"/>
<g clip-path="url(#clip0_948_4428)">
<path d="M114.677 0.457031H119.41C128.877 0.457031 133.034 6.14358 133.034 12.9553C133.034 19.767 128.877 25.5447 119.41 25.5447H114.677V0.457031ZM119.865 21.3483C125.964 21.3483 128.847 17.6991 128.847 12.9553C128.847 8.21142 125.964 4.62311 119.865 4.62311H118.834V21.3483H119.865Z" fill="white"/>
<path d="M135.826 0.515625H149.511V4.46884H139.983V10.8852H148.722V14.5647H139.983V21.5589H149.511V25.5425H135.826V0.515625Z" fill="white"/>
<path d="M152.394 0.488281H157.916C165.775 0.488281 168.658 5.08009 168.658 10.0672C168.658 15.0544 165.654 19.6462 158.371 19.6462H156.551V25.576H152.394V0.488281ZM158.553 15.6017C162.498 15.6017 164.592 13.3514 164.592 10.0672C164.592 6.78302 162.437 4.56313 158.553 4.56313H156.551V15.6017H158.553Z" fill="white"/>
<path d="M171.206 0.488281H176.729C184.587 0.488281 187.47 5.08009 187.47 10.0672C187.47 13.2298 186.256 16.2403 183.525 18.0041L187.713 25.5456H182.737L179.824 19.4333C179.035 19.5549 178.185 19.6462 177.244 19.6462H175.363V25.576H171.206V0.488281ZM177.366 15.6017C181.31 15.6017 183.404 13.3514 183.404 10.0672C183.404 6.78302 181.25 4.56313 177.366 4.56313H175.363V15.6017H177.366Z" fill="white"/>
<path d="M202.338 26C194.783 26 189.352 19.9485 189.352 12.9848C189.352 6.02105 194.783 0 202.338 0C209.894 0 215.295 6.05146 215.295 12.9848C215.295 19.9181 209.864 26 202.338 26ZM202.338 21.8339C207.345 21.8339 211.138 17.8503 211.138 12.9848C211.138 8.1193 207.345 4.16608 202.338 4.16608C197.332 4.16608 193.509 8.1193 193.509 12.9848C193.509 17.8503 197.302 21.8339 202.338 21.8339Z" fill="white"/>
<path d="M218.087 0.515625H223.427L232.227 20.677L240.905 0.515625H246.215V25.5425H242.058V7.35773L234.108 25.5425H230.285L222.244 7.2665V25.5425H218.087V0.515625Z" fill="white"/>
<path d="M249.978 0.515625H263.662V4.46884H254.135V10.8852H262.873V14.5647H254.135V21.5589H263.662V25.5425H249.978V0.515625Z" fill="white"/>
<path d="M266.545 0.515625H280.23V4.46884H270.702V10.8852H279.441V14.5647H270.702V21.5589H280.23V25.5425H266.545V0.515625Z" fill="white"/>
<path d="M286.993 4.44066H281.531V0.457031H296.612V4.44066H291.15V25.5447H286.993V4.44066Z" fill="white"/>
</g>
<g clip-path="url(#clip1_948_4428)">
<path d="M330.487 4.15282L326.612 4.12183L327.976 0.03125L334.734 0.0622393V25.5664H330.487V4.15282Z" fill="white"/>
<path d="M337.586 16.5178C337.524 14.0387 338.144 12.0553 340.407 8.58455L345.956 0.0625H350.637L345.553 7.74784C346.111 7.65487 346.638 7.59289 347.134 7.59289C353.086 7.59289 356.682 11.4666 356.682 16.6418C356.682 21.817 352.9 26.0005 347.134 26.0005C341.368 26.0005 337.741 21.786 337.586 16.5178ZM347.134 21.817C350.172 21.817 352.497 19.5238 352.497 16.4558C352.497 13.3879 350.172 11.1567 347.134 11.1567C344.096 11.1567 341.771 13.4189 341.771 16.4558C341.771 19.4928 344.096 21.817 347.134 21.817Z" fill="white"/>
<path d="M363.502 4.0596H357.922V0H373.33V4.0596H367.749V25.5662H363.502V4.0596Z" fill="white"/>
<path d="M375.562 0.03125H379.809V10.4127H389.419V0.03125H393.697V25.5664H389.419V14.4413H379.809V25.5664H375.562V0.03125Z" fill="white"/>
</g>
<defs>
<clipPath id="clip0_948_4428">
<rect width="181.935" height="26" fill="white" transform="translate(114.677)"/>
</clipPath>
<clipPath id="clip1_948_4428">
<rect width="67.0849" height="26" fill="white" transform="translate(326.612)"/>
</clipPath>
</defs>
</svg>
