<svg width="360" height="180" viewBox="0 0 360 180" fill="none" xmlns="http://www.w3.org/2000/svg">
<g clip-path="url(#clip0_1094_5496)">
<rect width="360" height="180" fill="black"/>
<g filter="url(#filter0_f_1094_5496)">
<path d="M-116.485 235.366L-182 -24.8163L460.424 -60L429.064 85.7611L284.06 292.724V473.669L104.902 492L-9.67264 320.221L-116.485 235.366Z" fill="url(#paint0_linear_1094_5496)"/>
</g>
<ellipse cx="178.266" cy="119.529" rx="5.94041" ry="6.31168" transform="rotate(2.41818 178.266 119.529)" fill="#FFE6FF" fill-opacity="0.2"/>
<ellipse cx="347.303" cy="114.611" rx="8.53934" ry="8.91061" transform="rotate(2.41818 347.303 114.611)" fill="#88BAFF" fill-opacity="0.1"/>
<circle cx="1.35719" cy="61.355" r="14.851" transform="rotate(2.41818 1.35719 61.355)" fill="#FFE6FF" fill-opacity="0.1"/>
<ellipse cx="-2.96951" cy="172.655" rx="3.34148" ry="3.71276" transform="rotate(2.41818 -2.96951 172.655)" fill="#FFE6FF" fill-opacity="0.1"/>
<ellipse cx="220.743" cy="63.1865" rx="2.97021" ry="3.34148" transform="rotate(2.41818 220.743 63.1865)" fill="#FFE6FF" fill-opacity="0.2"/>
<circle cx="229.362" cy="72.9672" r="5.19786" transform="rotate(2.41818 229.362 72.9672)" fill="#FFE6FF" fill-opacity="0.2"/>
<circle cx="238.618" cy="51.4796" r="2.97021" transform="rotate(2.41818 238.618 51.4796)" fill="#FFE6FF" fill-opacity="0.2"/>
<ellipse cx="58.4681" cy="58.4681" rx="58.4681" ry="58.4681" transform="matrix(-0.915852 -0.401516 -0.401516 0.915852 250.814 127.285)" fill="#FF90FF"/>
<ellipse cx="47.4926" cy="47.4926" rx="47.4926" ry="47.4926" transform="matrix(-0.915852 -0.401516 -0.401516 0.915852 236.355 132.93)" fill="white"/>
<rect width="16.1458" height="16.6352" transform="matrix(-0.915852 -0.401516 -0.401516 0.915852 212.128 90.0156)" fill="#EE58EE"/>
<rect width="5.36801" height="34.2288" transform="matrix(-0.915852 -0.401516 -0.401516 0.915852 189.747 127.645)" fill="black"/>
<rect width="5.36801" height="6.47009" transform="matrix(-0.915852 -0.401516 -0.401516 0.915852 195.319 114.941)" fill="black"/>
<rect width="5.36801" height="6.47009" transform="matrix(-0.401516 0.915852 0.915852 0.401516 212.439 171.371)" fill="black"/>
<rect width="5.36801" height="6.47009" transform="matrix(-0.401516 0.915852 0.915852 0.401516 131.372 135.832)" fill="black"/>
<rect width="23.5912" height="16.6352" transform="matrix(-0.915852 -0.401516 -0.401516 0.915852 211.409 100.93)" fill="#FF90FF"/>
<rect width="37.6349" height="13.6761" transform="matrix(-0.915852 -0.401516 -0.401516 0.915852 226.921 83.0312)" fill="#FF90FF"/>
<circle cx="8.2024" cy="8.2024" r="8.2024" transform="matrix(0.998688 0.0512035 0.0512035 -0.998688 162.682 104.402)" fill="#FFE6FF"/>
<circle cx="3.99935" cy="3.99935" r="3.99935" transform="matrix(0.998688 0.0512035 0.0512035 -0.998688 155.968 91.7734)" fill="#FFE6FF" fill-opacity="0.8"/>
<circle cx="3.31651" cy="3.31651" r="3.31651" transform="matrix(0.998688 0.0512035 0.0512035 -0.998688 133.39 113.008)" fill="#FFE6FF" fill-opacity="0.7"/>
<circle cx="3.31651" cy="3.31651" r="3.31651" transform="matrix(0.998688 0.0512035 0.0512035 -0.998688 177.907 101.125)" fill="#FFE6FF"/>
<circle cx="3.31651" cy="3.31651" r="3.31651" transform="matrix(0.998688 0.0512035 0.0512035 -0.998688 214.317 80.8633)" fill="#FFE6FF"/>
<circle cx="3.31651" cy="3.31651" r="3.31651" transform="matrix(0.998688 0.0512035 0.0512035 -0.998688 224.696 136.219)" fill="#FFE6FF"/>
<circle cx="2.45556" cy="2.45556" r="2.45556" transform="matrix(0.998688 0.0512035 0.0512035 -0.998688 228.812 149.164)" fill="#FFE6FF"/>
<circle cx="1.41197" cy="1.41197" r="1.41197" transform="matrix(0.998688 0.0512035 0.0512035 -0.998688 230.513 128.516)" fill="#FFE6FF"/>
<circle cx="0.993826" cy="0.993826" r="0.993826" transform="matrix(0.998688 0.0512035 0.0512035 -0.998688 235.044 121.691)" fill="#FFE6FF"/>
<circle cx="0.741669" cy="0.741669" r="0.741669" transform="matrix(0.998688 0.0512035 0.0512035 -0.998688 236.858 119.707)" fill="#FFE6FF"/>
<circle cx="5.14111" cy="5.14111" r="5.14111" transform="matrix(0.998688 0.0512035 0.0512035 -0.998688 225.973 144.641)" fill="#FFE6FF"/>
<path fill-rule="evenodd" clip-rule="evenodd" d="M165.603 71.1906C166.869 71.2555 167.843 72.3347 167.778 73.6011C167.717 74.7942 166.756 75.7277 165.586 75.7776C165.608 75.8941 165.616 76.015 165.61 76.1386C165.567 76.9799 164.85 77.627 164.008 77.5839C163.167 77.5407 162.52 76.8237 162.563 75.9824C162.594 75.3736 162.978 74.8666 163.507 74.6491C163.286 74.2745 163.168 73.833 163.192 73.366C163.257 72.0996 164.336 71.1256 165.603 71.1906ZM143.805 94.085C144.647 94.1282 145.294 94.8452 145.251 95.6865C145.208 96.5279 144.491 97.175 143.649 97.1318C142.808 97.0887 142.161 96.3717 142.204 95.5303C142.247 94.689 142.964 94.0419 143.805 94.085ZM147.173 86.3634C147.205 85.7461 146.73 85.2199 146.113 85.1883C145.496 85.1566 144.969 85.6314 144.938 86.2488C144.906 86.8662 145.381 87.3923 145.998 87.424C146.616 87.4556 147.142 86.9808 147.173 86.3634Z" fill="#FFE6FF" fill-opacity="0.7"/>
<circle cx="1.67173" cy="1.67173" r="1.67173" transform="matrix(0.998688 0.0512035 0.0512035 -0.998688 204.646 70.1719)" fill="#FFE6FF"/>
<circle cx="0.946959" cy="0.946959" r="0.946959" transform="matrix(0.998688 0.0512035 0.0512035 -0.998688 189.919 62.3711)" fill="#FFE6FF"/>
<circle cx="3.31651" cy="3.31651" r="3.31651" transform="matrix(0.998688 0.0512035 0.0512035 -0.998688 184.944 75.5781)" fill="#FFE6FF"/>
<circle cx="3.31651" cy="3.31651" r="3.31651" transform="matrix(0.954444 0.29839 0.29839 -0.954444 135.303 110.5)" fill="#FFE6FF"/>
<circle cx="0.941682" cy="0.941682" r="0.941682" transform="matrix(0.998688 0.0512035 0.0512035 -0.998688 223.581 78.6484)" fill="#FFE6FF"/>
<circle cx="226.825" cy="90.1442" r="0.941682" transform="rotate(-156.091 226.825 90.1442)" fill="#FFE6FF"/>
<circle cx="1.89735" cy="1.89735" r="1.89735" transform="matrix(0.998688 0.0512035 0.0512035 -0.998688 219.703 82.625)" fill="#FFE6FF"/>
<circle cx="228.003" cy="94.184" r="1.89735" transform="rotate(-156.091 228.003 94.184)" fill="#FFE6FF"/>
<circle cx="4.00281" cy="4.00281" r="4.00281" transform="matrix(0.998688 0.0512035 0.0512035 -0.998688 188.444 72.0039)" fill="#FFE6FF"/>
<circle cx="4.00281" cy="4.00281" r="4.00281" transform="matrix(0.954444 0.29839 0.29839 -0.954444 139.583 107.91)" fill="#FFE6FF"/>
<circle cx="214.381" cy="108.311" r="9.80126" transform="rotate(177.065 214.381 108.311)" fill="#FFE6FF"/>
<circle cx="225.851" cy="103.608" r="5.69105" transform="rotate(177.065 225.851 103.608)" fill="#FFE6FF" fill-opacity="0.7"/>
</g>
<g clip-path="url(#clip1_1094_5496)">
<path d="M22 32.7461H30.2584C42.0156 32.7461 46.3276 39.808 46.3276 47.4805C46.3276 52.3466 44.512 56.9787 40.4269 59.6878L46.6932 71.2908H39.2481L34.8919 61.8902C33.713 62.0786 32.4396 62.215 31.0338 62.215H28.2222V71.3363H22V32.7461ZM31.2166 55.9977C37.1173 55.9977 40.2504 52.535 40.2504 47.4805C40.2504 42.4261 37.029 39.0154 31.2166 39.0154H28.2222V55.9977H31.2166Z" fill="white"/>
<path d="M50.6396 32.793H71.1091V38.8739H56.8555V48.7423H69.9302V54.4009H56.8555V65.1594H71.1091V71.2857H50.6396V32.793Z" fill="white"/>
<path d="M73.9712 52.0227C73.9712 41.3097 82.4628 32 93.4005 32C103.481 32 111.783 40.0494 112.735 49.7294H106.425C105.517 43.5056 100.114 38.4057 93.3942 38.4057C85.8103 38.4057 80.187 44.766 80.187 52.0162C80.187 59.2665 85.8166 65.5813 93.3942 65.5813C100.247 65.5813 105.605 60.4359 106.425 54.1212H112.735C111.916 63.8987 103.519 71.9935 93.4005 71.9935C82.4628 71.9935 73.9712 62.7293 73.9712 52.0162V52.0227Z" fill="white"/>
<path d="M116.908 32.7461H125.167C136.924 32.7461 141.236 39.808 141.236 47.4805C141.236 52.3466 139.42 56.9787 135.335 59.6878L141.601 71.2908H134.156L129.8 61.8902C128.621 62.0786 127.348 62.215 125.942 62.215H123.13V71.3363H116.915V32.7461H116.908ZM126.125 55.9977C132.025 55.9977 135.159 52.535 135.159 47.4805C135.159 42.4261 131.937 39.0154 126.125 39.0154H123.13V55.9977H126.125Z" fill="white"/>
<path d="M144.962 56.6098V32.793H151.184V56.7917C151.184 61.7031 153.088 65.6791 158.264 65.6791C163.439 65.6791 165.387 61.7031 165.387 56.7917V32.793H171.603V56.6033C171.603 65.6336 166.793 71.9029 158.257 71.9029C149.721 71.9029 144.956 65.5882 144.956 56.6033L144.962 56.6098Z" fill="white"/>
<path d="M176.867 32.793H183.133V71.2922H176.867V32.793Z" fill="white"/>
<path d="M194.392 38.8295H186.222V32.7031H208.785V38.8295H200.614V71.2934H194.399V38.8295H194.392Z" fill="white"/>
<path d="M212.044 32.793H220.031L233.194 63.8081L246.181 32.793H254.124V71.2922H247.908V43.3241L236.012 71.2987H230.294L218.266 43.1811V71.2987H212.05V32.793H212.044Z" fill="white"/>
<path d="M259.753 32.793H280.223V38.8739H265.969V48.7423H279.044V54.4009H265.969V65.1594H280.223V71.2857H259.753V32.793Z" fill="white"/>
<path d="M284.535 32.7916H290.845L305.918 59.6878V32.7461H312.185V71.2908H306.013L290.807 44.2062V71.2908H284.541V32.7916H284.535Z" fill="white"/>
<path d="M323.614 38.8295H315.444V32.7031H338.006V38.8295H329.836V71.2934H323.62V38.8295H323.614Z" fill="white"/>
</g>
<defs>
<filter id="filter0_f_1094_5496" x="-387.4" y="-265.4" width="1053.22" height="962.8" filterUnits="userSpaceOnUse" color-interpolation-filters="sRGB">
<feFlood flood-opacity="0" result="BackgroundImageFix"/>
<feBlend mode="normal" in="SourceGraphic" in2="BackgroundImageFix" result="shape"/>
<feGaussianBlur stdDeviation="102.7" result="effect1_foregroundBlur_1094_5496"/>
</filter>
<linearGradient id="paint0_linear_1094_5496" x1="139.212" y1="-3.85439" x2="139.212" y2="492" gradientUnits="userSpaceOnUse">
<stop stop-color="#1A1D3F" stop-opacity="0.55"/>
<stop offset="1" stop-color="#2D336E"/>
</linearGradient>
<clipPath id="clip0_1094_5496">
<rect width="360" height="180" fill="white"/>
</clipPath>
<clipPath id="clip1_1094_5496">
<rect width="316" height="40" fill="white" transform="translate(22 32)"/>
</clipPath>
</defs>
</svg>
