<svg width="1920" height="301" viewBox="0 0 1920 301" fill="none" xmlns="http://www.w3.org/2000/svg">
<g clip-path="url(#clip0_1116_5929)">
<rect width="1920" height="301" fill="black"/>
<g filter="url(#filter0_f_1116_5929)">
<path d="M460.854 411.768L350 -28.4681L1437 -88L1383.94 158.632L1138.59 508.82V814.983L835.446 846L641.583 555.344L460.854 411.768Z" fill="url(#paint0_linear_1116_5929)"/>
</g>
<circle cx="783.48" cy="283.842" r="8.79493" transform="rotate(2.41818 783.48 283.842)" fill="#88BAFF" fill-opacity="0.4"/>
<ellipse cx="959.581" cy="114.246" rx="10.0513" ry="10.6796" transform="rotate(2.41818 959.581 114.246)" fill="#FFE6FF" fill-opacity="0.2"/>
<ellipse cx="1284.92" cy="67.97" rx="9.42314" ry="10.6796" transform="rotate(2.41818 1284.92 67.97)" fill="#88BAFF" fill-opacity="0.2"/>
<ellipse cx="1245.6" cy="105.923" rx="14.4488" ry="15.077" transform="rotate(2.41818 1245.6 105.923)" fill="#88BAFF" fill-opacity="0.1"/>
<circle cx="672.557" cy="260.291" r="10.0513" transform="rotate(2.41818 672.557 260.291)" fill="#FFE6FF" fill-opacity="0.1"/>
<circle cx="660.246" cy="15.8108" r="25.1284" transform="rotate(2.41818 660.246 15.8108)" fill="#FFE6FF" fill-opacity="0.1"/>
<ellipse cx="652.925" cy="204.132" rx="5.65388" ry="6.28209" transform="rotate(2.41818 652.925 204.132)" fill="#FFE6FF" fill-opacity="0.1"/>
<ellipse cx="1031.45" cy="18.9156" rx="5.02567" ry="5.65388" transform="rotate(2.41818 1031.45 18.9156)" fill="#FFE6FF" fill-opacity="0.2"/>
<ellipse cx="1053.36" cy="310.331" rx="9.42314" ry="10.0513" transform="rotate(2.41818 1053.36 310.331)" fill="#88BAFF" fill-opacity="0.4"/>
<circle cx="1046.04" cy="35.459" r="8.79493" transform="rotate(2.41818 1046.04 35.459)" fill="#FFE6FF" fill-opacity="0.2"/>
<ellipse cx="1276.5" cy="29.2572" rx="5.65388" ry="6.28209" transform="rotate(2.41818 1276.5 29.2572)" fill="#88BAFF" fill-opacity="0.1"/>
<circle cx="1061.7" cy="-0.895662" r="5.02567" transform="rotate(2.41818 1061.7 -0.895662)" fill="#FFE6FF" fill-opacity="0.2"/>
<ellipse cx="96.9379" cy="96.9379" rx="96.9379" ry="96.9379" transform="matrix(-0.915852 -0.401516 -0.401516 0.915852 1077.41 209.82)" fill="#FF90FF"/>
<ellipse cx="78.7411" cy="78.7411" rx="78.7411" ry="78.7411" transform="matrix(-0.915852 -0.401516 -0.401516 0.915852 1053.43 219.18)" fill="white"/>
<rect width="26.7692" height="27.5806" transform="matrix(-0.915852 -0.401516 -0.401516 0.915852 1013.27 148.027)" fill="#EE58EE"/>
<rect width="8.89996" height="56.7501" transform="matrix(-0.915852 -0.401516 -0.401516 0.915852 976.16 210.414)" fill="black"/>
<rect width="8.89996" height="10.7272" transform="matrix(-0.915852 -0.401516 -0.401516 0.915852 985.396 189.352)" fill="black"/>
<rect width="8.89996" height="10.7272" transform="matrix(-0.401516 0.915852 0.915852 0.401516 1013.78 282.91)" fill="black"/>
<rect width="8.89996" height="10.7272" transform="matrix(-0.401516 0.915852 0.915852 0.401516 879.374 223.988)" fill="black"/>
<rect width="39.1134" height="27.5806" transform="matrix(-0.915852 -0.401516 -0.401516 0.915852 1012.07 166.121)" fill="#FF90FF"/>
<rect width="62.3972" height="22.6744" transform="matrix(-0.915852 -0.401516 -0.401516 0.915852 1037.79 136.449)" fill="#FF90FF"/>
<circle cx="13.5993" cy="13.5993" r="13.5993" transform="matrix(0.998688 0.0512035 0.0512035 -0.998688 931.285 171.883)" fill="#FFE6FF"/>
<circle cx="6.63077" cy="6.63077" r="6.63077" transform="matrix(0.998688 0.0512035 0.0512035 -0.998688 920.154 150.941)" fill="#FFE6FF" fill-opacity="0.8"/>
<circle cx="5.49866" cy="5.49866" r="5.49866" transform="matrix(0.998688 0.0512035 0.0512035 -0.998688 882.722 186.148)" fill="#FFE6FF" fill-opacity="0.7"/>
<circle cx="5.49866" cy="5.49866" r="5.49866" transform="matrix(0.998688 0.0512035 0.0512035 -0.998688 956.528 166.453)" fill="#FFE6FF"/>
<circle cx="5.49866" cy="5.49866" r="5.49866" transform="matrix(0.998688 0.0512035 0.0512035 -0.998688 1016.9 132.855)" fill="#FFE6FF"/>
<circle cx="5.49866" cy="5.49866" r="5.49866" transform="matrix(0.998688 0.0512035 0.0512035 -0.998688 1034.1 224.637)" fill="#FFE6FF"/>
<circle cx="4.07123" cy="4.07123" r="4.07123" transform="matrix(0.998688 0.0512035 0.0512035 -0.998688 1040.93 246.094)" fill="#FFE6FF"/>
<circle cx="2.34099" cy="2.34099" r="2.34099" transform="matrix(0.998688 0.0512035 0.0512035 -0.998688 1043.75 211.859)" fill="#FFE6FF"/>
<circle cx="1.64773" cy="1.64773" r="1.64773" transform="matrix(0.998688 0.0512035 0.0512035 -0.998688 1051.26 200.551)" fill="#FFE6FF"/>
<circle cx="1.22966" cy="1.22966" r="1.22966" transform="matrix(0.998688 0.0512035 0.0512035 -0.998688 1054.27 197.262)" fill="#FFE6FF"/>
<circle cx="8.52377" cy="8.52377" r="8.52377" transform="matrix(0.998688 0.0512035 0.0512035 -0.998688 1036.22 238.598)" fill="#FFE6FF"/>
<path fill-rule="evenodd" clip-rule="evenodd" d="M936.128 116.821C938.228 116.929 939.843 118.719 939.735 120.818C939.634 122.796 938.04 124.344 936.1 124.427C936.137 124.62 936.151 124.82 936.14 125.025C936.069 126.42 934.88 127.493 933.485 127.421C932.09 127.35 931.017 126.161 931.089 124.766C931.141 123.757 931.777 122.916 932.653 122.556C932.287 121.935 932.092 121.203 932.132 120.428C932.239 118.329 934.029 116.714 936.128 116.821ZM899.99 154.78C901.385 154.851 902.458 156.04 902.386 157.435C902.315 158.83 901.126 159.903 899.731 159.831C898.336 159.76 897.263 158.571 897.335 157.176C897.406 155.781 898.595 154.708 899.99 154.78ZM905.573 141.977C905.625 140.954 904.838 140.082 903.815 140.029C902.791 139.977 901.919 140.764 901.866 141.787C901.814 142.811 902.601 143.683 903.625 143.736C904.648 143.788 905.52 143.001 905.573 141.977Z" fill="#FFE6FF" fill-opacity="0.7"/>
<circle cx="2.77168" cy="2.77168" r="2.77168" transform="matrix(0.998688 0.0512035 0.0512035 -0.998688 1000.86 115.129)" fill="#FFE6FF"/>
<circle cx="1.57002" cy="1.57002" r="1.57002" transform="matrix(0.998688 0.0512035 0.0512035 -0.998688 976.445 102.199)" fill="#FFE6FF"/>
<circle cx="5.49866" cy="5.49866" r="5.49866" transform="matrix(0.998688 0.0512035 0.0512035 -0.998688 968.194 124.094)" fill="#FFE6FF"/>
<circle cx="5.49866" cy="5.49866" r="5.49866" transform="matrix(0.954444 0.29839 0.29839 -0.954444 885.892 181.992)" fill="#FFE6FF"/>
<circle cx="1.56128" cy="1.56128" r="1.56128" transform="matrix(0.998688 0.0512035 0.0512035 -0.998688 1032.25 129.184)" fill="#FFE6FF"/>
<circle cx="1037.63" cy="148.241" r="1.56128" transform="rotate(-156.091 1037.63 148.241)" fill="#FFE6FF"/>
<circle cx="3.14574" cy="3.14574" r="3.14574" transform="matrix(0.998688 0.0512035 0.0512035 -0.998688 1025.82 135.777)" fill="#FFE6FF"/>
<circle cx="1039.59" cy="154.939" r="3.14574" transform="rotate(-156.091 1039.59 154.939)" fill="#FFE6FF"/>
<circle cx="6.63651" cy="6.63651" r="6.63651" transform="matrix(0.998688 0.0512035 0.0512035 -0.998688 973.999 118.168)" fill="#FFE6FF"/>
<circle cx="6.63651" cy="6.63651" r="6.63651" transform="matrix(0.954444 0.29839 0.29839 -0.954444 892.99 177.699)" fill="#FFE6FF"/>
<circle cx="1017" cy="178.365" r="16.2501" transform="rotate(177.065 1017 178.365)" fill="#FFE6FF"/>
<circle cx="1036.02" cy="170.568" r="9.43556" transform="rotate(177.065 1036.02 170.568)" fill="#FFE6FF" fill-opacity="0.7"/>
</g>
<g clip-path="url(#clip1_1116_5929)">
<path d="M669.6 49.3438H684.779C706.388 49.3438 714.314 62.0551 714.314 75.8658C714.314 84.6246 710.977 92.9624 703.468 97.8388L714.986 118.724H701.302L693.295 101.803C691.128 102.142 688.788 102.388 686.204 102.388H681.036V118.806H669.6V49.3438ZM686.54 91.1966C697.385 91.1966 703.144 84.9637 703.144 75.8658C703.144 66.7678 697.223 60.6285 686.54 60.6285H681.036V91.1966H686.54Z" fill="white"/>
<path d="M722.239 49.4258H759.861V60.3714H733.663V78.1346H757.694V88.32H733.663V107.685H759.861V118.713H722.239V49.4258Z" fill="white"/>
<path d="M765.122 84.0409C765.122 64.7575 780.729 48 800.832 48C819.359 48 834.619 62.4889 836.369 79.9129H824.77C823.102 68.7101 813.172 59.5303 800.821 59.5303C786.882 59.5303 776.546 70.9787 776.546 84.0292C776.546 97.0797 786.893 108.446 800.821 108.446C813.415 108.446 823.264 99.1847 824.77 87.8181H836.369C834.863 105.418 819.429 119.988 800.832 119.988C780.729 119.988 765.122 103.313 765.122 84.0292V84.0409Z" fill="white"/>
<path d="M844.04 49.3438H859.218C880.828 49.3438 888.753 62.0551 888.753 75.8658C888.753 84.6246 885.416 92.9624 877.908 97.8388L889.425 118.724H875.741L867.735 101.803C865.568 102.142 863.227 102.388 860.643 102.388H855.476V118.806H844.051V49.3438H844.04ZM860.979 91.1966C871.825 91.1966 877.583 84.9637 877.583 75.8658C877.583 66.7678 871.662 60.6285 860.979 60.6285H855.476V91.1966H860.979Z" fill="white"/>
<path d="M895.6 92.296V49.4258H907.037V92.6234C907.037 101.464 910.536 108.621 920.049 108.621C929.561 108.621 933.142 101.464 933.142 92.6234V49.4258H944.566V92.2843C944.566 108.539 935.726 119.824 920.037 119.824C904.348 119.824 895.589 108.457 895.589 92.2843L895.6 92.296Z" fill="white"/>
<path d="M954.241 49.4258H965.758V118.724H954.241V49.4258Z" fill="white"/>
<path d="M986.453 60.2892H971.437V49.2617H1012.91V60.2892H997.889V118.724H986.465V60.2892H986.453Z" fill="white"/>
<path d="M1018.9 49.4258H1033.58L1057.77 105.253L1081.64 49.4258H1096.24V118.724H1084.81V68.3818L1062.95 118.736H1052.44L1030.33 68.1245V118.736H1018.91V49.4258H1018.9Z" fill="white"/>
<path d="M1106.58 49.4258H1144.21V60.3714H1118.01V78.1346H1142.04V88.32H1118.01V107.685H1144.21V118.713H1106.58V49.4258Z" fill="white"/>
<path d="M1152.13 49.4256H1163.73L1191.44 97.8388V49.3438H1202.95V118.724H1191.61L1163.66 69.972V118.724H1152.14V49.4256H1152.13Z" fill="white"/>
<path d="M1223.96 60.2892H1208.94V49.2617H1250.41V60.2892H1235.4V118.724H1223.97V60.2892H1223.96Z" fill="white"/>
</g>
<defs>
<filter id="filter0_f_1116_5929" x="144.6" y="-293.4" width="1497.8" height="1344.8" filterUnits="userSpaceOnUse" color-interpolation-filters="sRGB">
<feFlood flood-opacity="0" result="BackgroundImageFix"/>
<feBlend mode="normal" in="SourceGraphic" in2="BackgroundImageFix" result="shape"/>
<feGaussianBlur stdDeviation="102.7" result="effect1_foregroundBlur_1116_5929"/>
</filter>
<linearGradient id="paint0_linear_1116_5929" x1="893.5" y1="7" x2="893.5" y2="846" gradientUnits="userSpaceOnUse">
<stop stop-color="#1A1D3F" stop-opacity="0.55"/>
<stop offset="1" stop-color="#2D336E"/>
</linearGradient>
<clipPath id="clip0_1116_5929">
<rect width="1920" height="301" fill="white"/>
</clipPath>
<clipPath id="clip1_1116_5929">
<rect width="580.8" height="72" fill="white" transform="translate(669.6 48)"/>
</clipPath>
</defs>
</svg>
