<svg width="24" height="24" viewBox="0 0 24 24" fill="none" xmlns="http://www.w3.org/2000/svg">
<path fill-rule="evenodd" clip-rule="evenodd" d="M12.0003 0.994629C18.0755 0.994629 22.9996 5.9187 22.9996 11.9939C22.9996 17.4845 18.9796 22.0349 13.724 22.8606V15.1762H16.2855L16.7737 11.9939H16.7684L16.7685 11.9937H13.724V9.93269C13.724 9.0648 14.1459 8.21499 15.514 8.21499H16.9002V5.50886C16.9002 5.50886 16.0359 5.35998 15.054 5.30887C14.8489 5.29812 14.6386 5.29162 14.43 5.29162C11.9167 5.29162 10.2774 6.81646 10.2774 9.5708V11.9937H7.48688V15.1759H7.49207V15.1762H10.2774V22.8598C5.01835 22.0319 1.00098 17.4827 1.00098 11.9939C1.00098 5.9187 5.92505 0.994629 12.0003 0.994629Z" fill="white"/>
</svg>
