<svg width="1052" height="259" viewBox="0 0 1052 259" fill="none" xmlns="http://www.w3.org/2000/svg">
<ellipse cx="116.951" cy="160.4" rx="85.1069" ry="85.1069" transform="rotate(31.18 116.951 160.4)" fill="#FF90FF"/>
<ellipse cx="116.951" cy="160.401" rx="69.1309" ry="69.131" transform="rotate(31.18 116.951 160.401)" fill="white"/>
<rect x="164.978" y="58.3398" width="23.5021" height="24.2145" transform="rotate(31.18 164.978 58.3398)" fill="#EE58EE"/>
<rect x="138.943" y="116.51" width="7.81375" height="49.8239" transform="rotate(31.18 138.943 116.51)" fill="black"/>
<rect x="149.398" y="99.2344" width="7.81375" height="9.41795" transform="rotate(31.18 149.398 99.2344)" fill="black"/>
<rect x="82.6929" y="209.465" width="7.81375" height="9.41794" transform="rotate(31.18 82.6929 209.465)" fill="black"/>
<rect x="67.8867" y="126.143" width="7.81376" height="9.41795" transform="rotate(121.18 67.8867 126.143)" fill="black"/>
<rect x="178.118" y="192.85" width="7.81375" height="9.41795" transform="rotate(121.18 178.118 192.85)" fill="black"/>
<rect x="152.592" y="68.3418" width="34.3397" height="24.2145" transform="rotate(31.18 152.592 68.3418)" fill="#FF90FF"/>
<rect x="160.894" y="34.8809" width="54.7818" height="19.9071" transform="rotate(31.18 160.894 34.8809)" fill="#FF90FF"/>
<rect x="721.394" y="44.8574" width="188.085" height="134.503" rx="22.3529" transform="rotate(29.4364 721.394 44.8574)" fill="#006AFE"/>
<circle cx="738.1" cy="205.55" r="11.6863" transform="rotate(29.4364 738.1 205.55)" fill="#4C97FF"/>
<path d="M640.052 153.396L834.331 263.029L834.031 263.562C827.964 274.313 814.33 278.11 803.578 272.043L648.234 184.381C637.482 178.314 633.685 164.68 639.752 153.929L640.052 153.396Z" fill="#006AFE"/>
<rect x="728.86" y="71.6719" width="148.718" height="95.1361" transform="rotate(29.4364 728.86 71.6719)" fill="black"/>
<path d="M808.39 171.047L780.345 178.858L778.232 171.133L798.57 165.506L792.893 145.258L800.579 143.003L808.39 171.047Z" fill="white"/>
<path d="M793.802 133.045L755.058 170.689L748.167 166.8L786.955 129.182L793.802 133.045Z" fill="white"/>
<path d="M733.871 128.994L761.915 121.183L763.959 128.928L743.691 134.535L749.388 154.854L741.682 157.038L733.871 128.994Z" fill="white"/>
<path fill-rule="evenodd" clip-rule="evenodd" d="M405.403 132.583L405.402 132.581L395.171 138.793L423.421 185.322L424.785 184.494L424.785 184.495L462.329 161.701L456.117 151.47L427.44 168.881L411.614 142.814L432.058 130.401L425.847 120.17L405.403 132.583Z" fill="white"/>
<path fill-rule="evenodd" clip-rule="evenodd" d="M537.341 52.4761L537.34 52.4751L547.571 46.2636L575.821 92.7933L574.455 93.6225L574.458 93.6269L536.914 116.421L530.703 106.19L559.381 88.7782L543.553 62.707L523.108 75.1197L516.896 64.8888L537.341 52.4761Z" fill="white"/>
<path d="M380.755 99.1777L519.067 15.2047L549.423 149.166L485.604 187.912L380.755 99.1777Z" fill="#FF90FF"/>
<rect x="367.076" y="92.5312" width="178.293" height="25.5579" transform="rotate(-31.2632 367.076 92.5312)" fill="#006AFE"/>
<rect x="502.409" y="177.709" width="35.3418" height="55.7009" transform="rotate(-31.2632 502.409 177.709)" fill="white"/>
<rect x="509.521" y="223.77" width="70.9888" height="25.2739" transform="rotate(-31.2632 509.521 223.77)" fill="white"/>
<rect x="472.443" y="266.074" width="178.293" height="70.4601" transform="rotate(-31.2632 472.443 266.074)" fill="#006AFE"/>
<rect x="495.309" y="270.111" width="143.399" height="39.8257" transform="rotate(-31.2632 495.309 270.111)" fill="#4C97FF"/>
<path fill-rule="evenodd" clip-rule="evenodd" d="M455.636 93.3672L471.514 83.7273L471.514 83.7283L471.515 83.7281L500.752 131.884L508.608 127.114L513.466 135.115L489.734 149.524L484.876 141.523L492.75 136.742L468.371 96.586L460.494 101.368L455.636 93.3672Z" fill="white"/>
<path d="M931.89 220.458L899.063 225.589L906.733 193.261L919.8 181.174L944.957 208.371L931.89 220.458Z" fill="white"/>
<rect x="931.892" y="220.455" width="37.048" height="144.251" transform="rotate(-132.769 931.892 220.455)" fill="#006AFE"/>
<rect x="1037.78" y="122.504" width="37.048" height="19.2595" transform="rotate(-132.769 1037.78 122.504)" fill="#FF97FF"/>
<rect x="1032.11" y="127.75" width="37.048" height="9.64605" transform="rotate(-132.769 1032.11 127.75)" fill="white"/>
<mask id="mask0_653_2940" style="mask-type:alpha" maskUnits="userSpaceOnUse" x="899" y="181" width="46" height="45">
<path d="M931.89 220.458L899.064 225.589L906.733 193.261L919.8 181.174L944.957 208.371L931.89 220.458Z" fill="white"/>
</mask>
<g mask="url(#mask0_653_2940)">
<rect x="900.678" y="233.834" width="14.2977" height="14.0098" transform="rotate(-132.769 900.678 233.834)" fill="#9A9A9A"/>
</g>
<path fill-rule="evenodd" clip-rule="evenodd" d="M243.903 107.577L274.005 139.131C273.497 141.173 274.013 143.422 275.572 145.057C277.995 147.596 282.018 147.691 284.558 145.268C287.097 142.844 287.193 138.822 284.77 136.282C283.293 134.734 281.22 134.095 279.251 134.381L249.022 102.694L254.752 97.227L313.41 124.066L315.333 154.596L306.169 163.338L300.833 168.429L292.655 176.231L262.22 172.9L238.172 113.044L243.903 107.577Z" fill="#FF90FF"/>
<path d="M293.624 187.555L326.569 156.126L427.744 270.277L402.8 294.706L293.624 187.555Z" fill="#006AFE"/>
<rect x="293.624" y="187.555" width="45.5317" height="16.4818" transform="rotate(-43.6512 293.624 187.555)" fill="white"/>
</svg>
