<svg width="227" height="82" viewBox="0 0 227 82" fill="none" xmlns="http://www.w3.org/2000/svg">
<path d="M196.77 0C202.929 0 208.287 1.65422 212.818 4.97754L213.239 5.29297C217.559 8.59071 220.91 13.1875 223.302 19.0586L223.53 19.6309C225.848 25.5747 227 32.5875 227 40.6572C227 48.9144 225.772 56.1173 223.303 62.2539L223.302 62.2559C220.833 68.3164 217.342 73.0193 212.818 76.3369C208.287 79.6602 202.929 81.3145 196.77 81.3145C190.683 81.3144 185.328 79.6589 180.726 76.3389L180.722 76.3369C176.198 73.0193 172.707 68.3164 170.238 62.2559L170.237 62.2539C167.768 56.1173 166.54 48.9144 166.54 40.6572C166.54 32.327 167.768 25.123 170.238 19.0586L170.473 18.4941C172.927 12.7053 176.339 8.19141 180.722 4.97754L180.726 4.97559L181.159 4.66895C185.664 1.55347 190.873 6.69942e-05 196.77 0ZM138.02 61.123C140.941 61.1231 143.397 62.0495 145.347 63.918H145.348C147.372 65.7863 148.393 68.1014 148.393 70.8311C148.392 73.5599 147.372 75.9069 145.354 77.8467V77.8477C143.403 79.7208 140.945 80.6494 138.02 80.6494C135.164 80.6494 132.711 79.7179 130.691 77.8535L130.685 77.8467C128.667 75.9069 127.647 73.5599 127.646 70.8311C127.646 68.1014 128.667 65.7863 130.691 63.918L131.075 63.5801C133.019 61.9415 135.342 61.123 138.02 61.123ZM32.0107 68.4453H52.6436V79.9834H0.0605469V68.4453H19.252V16.2959L1.53711 19.5176L0.948242 19.625V9.12598L1.28906 9.01172L24.1416 1.35742L24.2188 1.33105H32.0107V68.4453ZM111.727 11.0293L111.688 11.123L82.5117 79.6787L82.3828 79.9834H68.9736L69.2803 79.2822L98.3701 12.9805H58.0342V1.33105H111.727V11.0293ZM180.604 75.625C180.741 75.7293 180.879 75.832 181.018 75.9336L180.604 75.624C180.468 75.5197 180.332 75.4146 180.197 75.3076L180.604 75.625ZM212.936 75.624C212.809 75.7203 212.682 75.8152 212.555 75.9092C212.683 75.8145 212.811 75.719 212.938 75.6221L212.936 75.624ZM191.533 68.3555C193.188 69.0799 194.931 69.4433 196.77 69.4434C200.12 69.4434 203.072 68.3069 205.646 66.0195L206.123 65.5781C208.478 63.3112 210.348 60.1733 211.716 56.1377L211.718 56.1338L211.995 55.3047C213.341 51.1141 214.019 46.2343 214.019 40.6572C214.019 36.545 213.652 32.8094 212.921 29.4482C212.284 26.52 211.428 23.9648 210.358 21.7764L191.533 68.3555ZM222.188 63.5791C222.232 63.4801 222.276 63.3801 222.32 63.2803C222.276 63.3801 222.232 63.4801 222.188 63.5791ZM135.573 61.8828C135.47 61.906 135.368 61.9337 135.266 61.96C135.521 61.8944 135.78 61.8363 136.044 61.79L135.573 61.8828ZM196.77 11.9824C191.801 11.9825 187.693 14.4865 184.436 19.626L184.434 19.6289C181.176 24.6957 179.521 31.6885 179.521 40.6572C179.521 44.7695 179.888 48.505 180.619 51.8662L180.76 52.4922C181.381 55.1676 182.191 57.5469 183.187 59.6338L202.006 13.0693C200.351 12.3451 198.607 11.9824 196.77 11.9824ZM211.556 58.0137C211.573 57.9716 211.591 57.93 211.607 57.8877L211.626 57.8398C211.603 57.8981 211.579 57.9558 211.556 58.0137ZM212.455 55.5059L212.472 55.458C212.531 55.274 212.586 55.0879 212.643 54.9014C212.581 55.1042 212.52 55.306 212.455 55.5059ZM180.421 53.2275C180.466 53.4086 180.512 53.5882 180.559 53.7666C180.509 53.576 180.46 53.3841 180.412 53.1904L180.421 53.2275ZM214.466 43.2539C214.471 43.1254 214.478 42.9965 214.482 42.8672L214.484 42.7998C214.479 42.9517 214.472 43.103 214.466 43.2539ZM214.41 36.8828C214.453 37.6159 214.484 38.362 214.502 39.1211C214.479 38.1091 214.433 37.1201 214.363 36.1543L214.41 36.8828ZM183.408 20.3516C183.402 20.3622 183.397 20.3732 183.391 20.3838C183.494 20.2037 183.599 20.0255 183.706 19.8496L183.408 20.3516ZM186.682 15.9121C186.445 16.1582 186.212 16.415 185.982 16.6816L186.329 16.29C186.563 16.0334 186.799 15.7868 187.04 15.5508L186.682 15.9121ZM192.188 12.251C192.044 12.3023 191.901 12.3566 191.759 12.4131L192.188 12.252C192.331 12.2007 192.476 12.1516 192.621 12.1055L192.188 12.251ZM193.955 11.7588C193.804 11.7896 193.654 11.8235 193.505 11.8594L193.955 11.7598C194.106 11.729 194.258 11.7005 194.411 11.6748L193.955 11.7588ZM195.811 11.5127C195.652 11.523 195.495 11.5363 195.338 11.5518L195.81 11.5137C195.968 11.5034 196.127 11.4954 196.287 11.4902L195.811 11.5127ZM183.633 3.72168C183.483 3.80426 183.335 3.88886 183.187 3.97461C183.483 3.80312 183.782 3.63829 184.084 3.47949L183.633 3.72168ZM185.932 2.60156C185.775 2.66822 185.619 2.73681 185.464 2.80664L185.932 2.60254C186.089 2.53577 186.246 2.46983 186.404 2.40625L185.932 2.60156ZM188.833 1.57227C188.667 1.61993 188.503 1.66987 188.339 1.7207L188.834 1.57227C188.999 1.52468 189.165 1.47899 189.332 1.43457L188.833 1.57227ZM191.37 0.976562C191.197 1.00832 191.026 1.04222 190.854 1.07715L191.371 0.976562C191.544 0.944838 191.717 0.914299 191.891 0.885742L191.37 0.976562ZM194.558 0.576172C194.014 0.614289 193.476 0.666772 192.945 0.733398C193.653 0.644454 194.373 0.581095 195.104 0.542969L194.558 0.576172ZM196.77 0.5C196.395 0.500004 196.024 0.506822 195.655 0.519531L196.211 0.504883C196.396 0.501712 196.583 0.500002 196.77 0.5Z" fill="#040C23"/>
</svg>
