<svg width="526" height="81" viewBox="0 0 526 81" fill="none" xmlns="http://www.w3.org/2000/svg">
<path d="M490.126 79.0267V14.1826H467.68V2.28809H525.042V14.1826H502.596V79.0267H490.126Z" fill="#040C23"/>
<path d="M412.891 79.0267V2.28809H459.797V13.703H425.457V35.0938H455.001V45.9332H425.457V67.6118H458.838V79.0267H412.891Z" fill="#040C23"/>
<path d="M357.637 79.0267V2.28809H404.543V13.703H370.203V35.0938H399.747V45.9332H370.203V67.6118H403.584V79.0267H357.637Z" fill="#040C23"/>
<path d="M295.188 79.0267V2.28809H313.893L321.95 45.0699H323.197L331.159 2.28809H349.288V79.0267H338.065V38.4512L338.737 11.9763H337.394L329.72 53.607H314.852L307.082 11.9763H305.739L306.411 38.4512V79.0267H295.188Z" fill="#040C23"/>
<path d="M259.412 80.6572C249.947 80.6572 242.785 77.3319 237.925 70.6812C233.129 63.9666 230.73 53.9586 230.73 40.6572C230.73 27.3559 233.129 17.3798 237.925 10.7292C242.785 4.01454 249.947 0.657227 259.412 0.657227C268.94 0.657227 276.102 4.01454 280.898 10.7292C285.694 17.3798 288.093 27.3559 288.093 40.6572C288.093 53.9586 285.694 63.9666 280.898 70.6812C276.102 77.3319 268.94 80.6572 259.412 80.6572ZM259.412 68.9546C264.911 68.9546 268.972 66.6524 271.594 62.0481C274.216 57.4438 275.527 50.3135 275.527 40.6572C275.527 31.001 274.216 23.8707 271.594 19.2663C268.972 14.662 264.911 12.3599 259.412 12.3599C253.912 12.3599 249.851 14.662 247.229 19.2663C244.607 23.8707 243.296 31.001 243.296 40.6572C243.296 50.3135 244.607 57.4438 247.229 62.0481C249.851 66.6524 253.912 68.9546 259.412 68.9546Z" fill="#040C23"/>
<path d="M174.125 79.0267V2.28809H201.271C206.259 2.28809 210.608 3.21534 214.317 5.06986C218.026 6.92438 220.904 9.54628 222.95 12.9356C224.996 16.3249 226.019 20.3536 226.019 25.0219C226.019 29.3065 224.964 33.0795 222.854 36.3408C220.808 39.6022 217.93 42.1602 214.221 44.0147C210.512 45.8053 206.195 46.7006 201.271 46.7006H186.691V79.0267H174.125ZM213.741 79.0267L193.502 44.5902H206.931L227.938 79.0267H213.741ZM186.691 35.9572H201.271C204.98 35.9572 207.922 34.9659 210.096 32.9835C212.334 31.0011 213.454 28.3472 213.454 25.0219C213.454 21.6966 212.334 19.0427 210.096 17.0603C207.922 15.0779 204.98 14.0866 201.271 14.0866H186.691V35.9572Z" fill="#040C23"/>
<path d="M115.707 79.0267V2.28809H142.853C147.841 2.28809 152.19 3.24732 155.899 5.16578C159.608 7.0203 162.454 9.67417 164.436 13.1274C166.482 16.5807 167.506 20.6414 167.506 25.3097C167.506 29.914 166.482 33.9428 164.436 37.396C162.454 40.7853 159.608 43.4072 155.899 45.2617C152.19 47.1162 147.841 48.0435 142.853 48.0435H128.273V79.0267H115.707ZM128.273 36.7245H143.141C146.85 36.7245 149.728 35.7333 151.774 33.7509C153.884 31.7046 154.94 28.9228 154.94 25.4056C154.94 21.8884 153.884 19.1386 151.774 17.1562C149.728 15.1098 146.85 14.0866 143.141 14.0866H128.273V36.7245Z" fill="#040C23"/>
<path d="M61.168 79.0267V2.28809H108.074V13.703H73.7339V35.0938H103.278V45.9332H73.7339V67.6118H107.115V79.0267H61.168Z" fill="#040C23"/>
<path d="M0 79.0267V2.28809H22.2542C32.7418 2.28809 40.6395 5.5175 45.9472 11.9763C51.3189 18.4352 54.0048 27.9955 54.0048 40.6574C54.0048 53.3193 51.3189 62.8796 45.9472 69.3384C40.6395 75.7973 32.7418 79.0267 22.2542 79.0267H0ZM12.5659 67.2281H22.2542C28.713 67.2281 33.5092 65.0539 36.6427 60.7053C39.8401 56.2929 41.4389 49.6102 41.4389 40.6574C41.4389 31.6406 39.8401 24.958 36.6427 20.6094C33.5092 16.2609 28.713 14.0866 22.2542 14.0866H12.5659V67.2281Z" fill="#040C23"/>
</svg>
