<svg width="530" height="84" viewBox="0 0 530 84" fill="none" xmlns="http://www.w3.org/2000/svg">
<g clip-path="url(#clip0_1248_3275)">
<path d="M507.781 7.72217V19.8902H528.841V28.9382H507.781V51.3242C507.781 53.9242 508.301 55.9262 509.341 57.3302C510.381 58.6822 511.915 59.3582 513.943 59.3582C516.023 59.3582 517.661 58.6042 518.857 57.0962C520.105 55.5882 521.015 53.2222 521.587 49.9982H530.323C530.063 55.9782 528.477 60.5542 525.565 63.7262C522.705 66.8462 518.727 68.4062 513.631 68.4062C508.587 68.4062 504.713 66.9502 502.009 64.0382C499.305 61.0742 497.953 56.9142 497.953 51.5582V28.9382H488.125V19.8902H497.953V7.72217H507.781Z" fill="black"/>
<path d="M443.594 67.0801V19.8901H453.422V23.7121H455.918C457.01 22.1001 458.492 20.8521 460.364 19.9681C462.288 19.0841 464.394 18.6421 466.682 18.6421C469.958 18.6421 472.766 19.3701 475.106 20.8261C477.446 22.2821 479.266 24.3621 480.566 27.0661C481.866 29.7701 482.516 32.9941 482.516 36.7381V67.0801H472.688V39.2341C472.688 35.5421 471.856 32.7341 470.192 30.8101C468.58 28.8861 466.188 27.9241 463.016 27.9241C459.844 27.9241 457.452 28.8861 455.84 30.8101C454.228 32.7341 453.422 35.5421 453.422 39.2341V67.0801H443.594Z" fill="black"/>
<path d="M401.039 38.6101H428.729L425.453 42.9001C425.453 37.8041 424.543 33.9561 422.723 31.3561C420.955 28.7041 418.303 27.3781 414.767 27.3781C411.023 27.3781 408.137 28.7561 406.109 31.5121C404.081 34.2681 403.067 38.1421 403.067 43.1341C403.067 48.4901 404.081 52.5981 406.109 55.4581C408.137 58.2661 411.127 59.6701 415.079 59.6701C417.523 59.6701 419.681 59.0721 421.553 57.8761C423.425 56.6281 425.011 54.8601 426.311 52.5721H435.593C434.761 55.8481 433.357 58.6821 431.381 61.0741C429.457 63.4141 427.091 65.2341 424.283 66.5341C421.527 67.7821 418.433 68.4061 415.001 68.4061C410.477 68.4061 406.603 67.4181 403.379 65.4421C400.207 63.4141 397.763 60.5281 396.047 56.7841C394.383 52.9881 393.551 48.4381 393.551 43.1341C393.551 38.0901 394.409 33.7481 396.125 30.1081C397.893 26.4681 400.363 23.6601 403.535 21.6841C406.707 19.6561 410.451 18.6421 414.767 18.6421C418.875 18.6421 422.385 19.5781 425.297 21.4501C428.261 23.3221 430.497 26.0781 432.005 29.7181C433.565 33.3061 434.345 37.6741 434.345 42.8221C434.345 43.4981 434.319 44.1741 434.267 44.8501C434.267 45.4741 434.241 46.0981 434.189 46.7221H401.039V38.6101Z" fill="black"/>
<path d="M341.121 19.8901H350.793V24.0241H357.189L352.509 27.0661C352.665 24.4141 353.393 22.3601 354.693 20.9041C356.045 19.3961 357.839 18.6421 360.075 18.6421C362.155 18.6421 363.871 19.4481 365.223 21.0601C366.575 22.6721 367.381 24.9081 367.641 27.7681L362.961 24.3361H373.335L368.733 27.1441C368.889 24.4921 369.695 22.4121 371.151 20.9041C372.607 19.3961 374.505 18.6421 376.845 18.6421C379.497 18.6421 381.603 19.7601 383.163 21.9961C384.775 24.1801 385.581 27.2221 385.581 31.1221V67.0801H376.455V34.9441C376.455 33.0201 376.091 31.5901 375.363 30.6541C374.635 29.6661 373.569 29.1721 372.165 29.1721C370.761 29.1721 369.695 29.6661 368.967 30.6541C368.239 31.5901 367.875 33.0201 367.875 34.9441V67.0801H358.749V34.9441C358.749 33.0201 358.385 31.5901 357.657 30.6541C356.981 29.6661 355.941 29.1721 354.537 29.1721C353.133 29.1721 352.067 29.6661 351.339 30.6541C350.611 31.5901 350.247 33.0201 350.247 34.9441V67.0801H341.121V19.8901Z" fill="black"/>
<path d="M310.918 7.72217V19.8902H331.978V28.9382H310.918V51.3242C310.918 53.9242 311.438 55.9262 312.478 57.3302C313.518 58.6822 315.052 59.3582 317.08 59.3582C319.16 59.3582 320.798 58.6042 321.994 57.0962C323.242 55.5882 324.152 53.2222 324.724 49.9982H333.46C333.2 55.9782 331.614 60.5542 328.702 63.7262C325.842 66.8462 321.864 68.4062 316.768 68.4062C311.724 68.4062 307.85 66.9502 305.146 64.0382C302.442 61.0742 301.09 56.9142 301.09 51.5582V28.9382H291.262V19.8902H301.09V7.72217H310.918Z" fill="black"/>
<path d="M251.305 19.89H275.251V58.032H289.369V67.08H251.305V58.032H265.423V28.938H251.305V19.89ZM269.713 13.338C267.529 13.338 265.813 12.766 264.565 11.622C263.369 10.426 262.771 8.788 262.771 6.708C262.771 4.576 263.369 2.938 264.565 1.794C265.813 0.598 267.529 0 269.713 0C271.897 0 273.587 0.598 274.783 1.794C276.031 2.938 276.655 4.576 276.655 6.708C276.655 8.788 276.031 10.426 274.783 11.622C273.587 12.766 271.897 13.338 269.713 13.338Z" fill="black"/>
<path d="M241.08 19.8901V67.0801H231.252V63.2581H228.756C227.664 64.9221 226.182 66.1961 224.31 67.0801C222.438 67.9641 220.332 68.4061 217.992 68.4061C214.768 68.4061 211.96 67.6781 209.568 66.2221C207.228 64.7141 205.408 62.6081 204.108 59.9041C202.808 57.2001 202.158 54.0021 202.158 50.3101V19.8901H211.986V47.7361C211.986 51.4801 212.792 54.3141 214.404 56.2381C216.068 58.1621 218.486 59.1241 221.658 59.1241C224.83 59.1241 227.222 58.1621 228.834 56.2381C230.446 54.3141 231.252 51.4801 231.252 47.7361V19.8901H241.08Z" fill="black"/>
<path d="M151.052 19.8901H170.006V23.6341H172.58C173.464 22.0221 174.738 20.8001 176.402 19.9681C178.066 19.0841 179.938 18.6421 182.018 18.6421C185.814 18.6421 188.752 19.9941 190.832 22.6981C192.964 25.4021 194.03 29.1981 194.03 34.0861V41.1841H183.89V35.4901C183.89 30.4981 181.914 28.0021 177.962 28.0021C175.466 28.0021 173.594 29.1201 172.346 31.3561C171.15 33.5921 170.552 36.9721 170.552 41.4961V58.0321H184.748V67.0801H152.3V58.0321H160.88V28.9381H151.052V19.8901Z" fill="black"/>
<path d="M121.787 68.4061C117.419 68.4061 113.623 67.4181 110.399 65.4421C107.175 63.4141 104.679 60.5541 102.911 56.8621C101.143 53.1701 100.259 48.8021 100.259 43.7581C100.259 38.6101 101.143 34.1641 102.911 30.4201C104.731 26.6761 107.305 23.7901 110.633 21.7621C114.013 19.6821 117.939 18.6421 122.411 18.6421C126.415 18.6421 129.899 19.4741 132.863 21.1381C135.827 22.7501 138.167 25.0381 139.883 28.0021C141.599 30.9661 142.535 34.4761 142.691 38.5321H133.799C133.123 35.1001 131.771 32.4221 129.743 30.4981C127.767 28.5741 125.245 27.6121 122.177 27.6121C118.277 27.6121 115.261 29.0421 113.129 31.9021C110.997 34.7101 109.931 38.6621 109.931 43.7581C109.931 48.6981 110.971 52.5461 113.051 55.3021C115.131 58.0061 118.043 59.3581 121.787 59.3581C124.543 59.3581 126.857 58.5521 128.729 56.9401C130.601 55.2761 131.927 52.9621 132.707 49.9981H141.677C141.365 53.6901 140.325 56.9401 138.557 59.7481C136.841 62.5041 134.527 64.6361 131.615 66.1441C128.755 67.6521 125.479 68.4061 121.787 68.4061Z" fill="black"/>
<path d="M57.0319 38.6101H84.7219L81.4459 42.9001C81.4459 37.8041 80.5359 33.9561 78.716 31.3561C76.948 28.7041 74.2959 27.3781 70.7599 27.3781C67.0159 27.3781 64.1299 28.7561 62.1019 31.5121C60.0739 34.2681 59.0599 38.1421 59.0599 43.1341C59.0599 48.4901 60.0739 52.5981 62.1019 55.4581C64.1299 58.2661 67.1199 59.6701 71.0719 59.6701C73.5159 59.6701 75.6739 59.0721 77.5459 57.8761C79.4179 56.6281 81.0039 54.8601 82.3039 52.5721H91.5859C90.7539 55.8481 89.3499 58.6821 87.3739 61.0741C85.4499 63.4141 83.0839 65.2341 80.2759 66.5341C77.5199 67.7821 74.4259 68.4061 70.9939 68.4061C66.4699 68.4061 62.5959 67.4181 59.3719 65.4421C56.1999 63.4141 53.7559 60.5281 52.0399 56.7841C50.3759 52.9881 49.5439 48.4381 49.5439 43.1341C49.5439 38.0901 50.4019 33.7481 52.1179 30.1081C53.8859 26.4681 56.3559 23.6601 59.5279 21.6841C62.6999 19.6561 66.4439 18.6421 70.7599 18.6421C74.8679 18.6421 78.3779 19.5781 81.2899 21.4501C84.2539 23.3221 86.4899 26.0781 87.9979 29.7181C89.5579 33.3061 90.3379 37.6741 90.3379 42.8221C90.3379 43.4981 90.3119 44.1741 90.2599 44.8501C90.2599 45.4741 90.2339 46.0981 90.1819 46.7221H57.0319V38.6101Z" fill="black"/>
<path d="M-0.0012207 67.0801V4.68008H22.0728C26.1288 4.68008 29.6648 5.43408 32.6808 6.94207C35.6968 8.45007 38.0368 10.5821 39.7008 13.3381C41.3648 16.0941 42.1968 19.3701 42.1968 23.1661C42.1968 26.6501 41.3388 29.7181 39.6228 32.3701C37.9588 35.0221 35.6188 37.1021 32.6028 38.6101C29.5868 40.0661 26.0768 40.7941 22.0728 40.7941H10.2168V67.0801H-0.0012207ZM32.2128 67.0801L15.7548 39.0781H26.6748L43.7568 67.0801H32.2128ZM10.2168 32.0581H22.0728C25.0888 32.0581 27.4808 31.2521 29.2488 29.6401C31.0688 28.0281 31.9788 25.8701 31.9788 23.1661C31.9788 20.4621 31.0688 18.3041 29.2488 16.6921C27.4808 15.0801 25.0888 14.2741 22.0728 14.2741H10.2168V32.0581Z" fill="black"/>
</g>
<defs>
<clipPath id="clip0_1248_3275">
<rect width="530" height="84" fill="white"/>
</clipPath>
</defs>
</svg>
