<svg width="249" height="40" viewBox="0 0 249 40" fill="none" xmlns="http://www.w3.org/2000/svg">
<g clip-path="url(#clip0_1966_59707)">
<path d="M238.026 3.61987V9.32362H247.898V13.5649H238.026V24.0583C238.026 25.2771 238.27 26.2155 238.758 26.8736C239.245 27.5074 239.964 27.8242 240.915 27.8242C241.89 27.8242 242.657 27.4708 243.218 26.7639C243.803 26.0571 244.23 24.948 244.498 23.4367H248.593C248.471 26.2399 247.728 28.3849 246.363 29.8717C245.022 31.3342 243.157 32.0655 240.768 32.0655C238.404 32.0655 236.588 31.383 235.321 30.018C234.053 28.6286 233.419 26.6786 233.419 24.168V13.5649H228.812V9.32362H233.419V3.61987H238.026Z" fill="#040C23"/>
<path d="M207.938 31.4438V9.32353H212.544V11.1151H213.714C214.226 10.3595 214.921 9.77446 215.798 9.36009C216.7 8.94571 217.687 8.73853 218.76 8.73853C220.296 8.73853 221.612 9.07978 222.709 9.76228C223.806 10.4448 224.659 11.4198 225.268 12.6873C225.877 13.9548 226.182 15.466 226.182 17.221V31.4438H221.575V18.391C221.575 16.6604 221.185 15.3442 220.405 14.4423C219.65 13.5404 218.528 13.0895 217.042 13.0895C215.555 13.0895 214.433 13.5404 213.678 14.4423C212.922 15.3442 212.544 16.6604 212.544 18.391V31.4438H207.938Z" fill="#040C23"/>
<path d="M187.987 18.0985H200.966L199.431 20.1095C199.431 17.7207 199.004 15.917 198.151 14.6982C197.322 13.4551 196.079 12.8335 194.422 12.8335C192.667 12.8335 191.314 13.4795 190.363 14.7713C189.413 16.0632 188.937 17.8792 188.937 20.2192C188.937 22.7298 189.413 24.6554 190.363 25.996C191.314 27.3123 192.715 27.9704 194.568 27.9704C195.713 27.9704 196.725 27.6901 197.603 27.1295C198.48 26.5445 199.223 25.7157 199.833 24.6432H204.184C203.794 26.1788 203.136 27.5073 202.209 28.6285C201.308 29.7254 200.198 30.5785 198.882 31.1879C197.59 31.7729 196.14 32.0654 194.531 32.0654C192.411 32.0654 190.595 31.6023 189.083 30.676C187.597 29.7254 186.451 28.3726 185.647 26.6176C184.867 24.8382 184.477 22.7054 184.477 20.2192C184.477 17.8548 184.879 15.8195 185.683 14.1132C186.512 12.407 187.67 11.0907 189.157 10.1645C190.643 9.21384 192.398 8.73853 194.422 8.73853C196.347 8.73853 197.993 9.17728 199.358 10.0548C200.747 10.9323 201.795 12.2242 202.502 13.9304C203.233 15.6123 203.599 17.6598 203.599 20.0729C203.599 20.3898 203.587 20.7067 203.562 21.0235C203.562 21.316 203.55 21.6085 203.526 21.901H187.987V18.0985Z" fill="#040C23"/>
<path d="M159.906 9.32353H164.44V11.2613H167.438L165.244 12.6873C165.318 11.4442 165.659 10.4813 166.268 9.79884C166.902 9.09196 167.743 8.73853 168.791 8.73853C169.766 8.73853 170.57 9.11634 171.204 9.87196C171.838 10.6276 172.216 11.6757 172.337 13.0163L170.144 11.4076H175.007L172.849 12.7238C172.923 11.4807 173.3 10.5057 173.983 9.79884C174.665 9.09196 175.555 8.73853 176.652 8.73853C177.895 8.73853 178.882 9.26259 179.613 10.3107C180.369 11.3345 180.747 12.7604 180.747 14.5885V31.4438H176.469V16.3801C176.469 15.4782 176.298 14.8079 175.957 14.3692C175.616 13.906 175.116 13.6745 174.458 13.6745C173.8 13.6745 173.3 13.906 172.959 14.3692C172.618 14.8079 172.447 15.4782 172.447 16.3801V31.4438H168.169V16.3801C168.169 15.4782 167.999 14.8079 167.657 14.3692C167.341 13.906 166.853 13.6745 166.195 13.6745C165.537 13.6745 165.037 13.906 164.696 14.3692C164.355 14.8079 164.184 15.4782 164.184 16.3801V31.4438H159.906V9.32353Z" fill="#040C23"/>
<path d="M145.745 3.61987V9.32362H155.617V13.5649H145.745V24.0583C145.745 25.2771 145.989 26.2155 146.476 26.8736C146.964 27.5074 147.683 27.8242 148.633 27.8242C149.608 27.8242 150.376 27.4708 150.937 26.7639C151.522 26.0571 151.948 24.948 152.217 23.4367H156.312C156.19 26.2399 155.446 28.3849 154.081 29.8717C152.741 31.3342 150.876 32.0655 148.487 32.0655C146.123 32.0655 144.307 31.383 143.039 30.018C141.772 28.6286 141.138 26.6786 141.138 24.168V13.5649H136.531V9.32362H141.138V3.61987H145.745Z" fill="#040C23"/>
<path d="M117.797 9.32344H129.022V27.2025H135.639V31.4438H117.797V27.2025H124.415V13.5647H117.797V9.32344ZM126.426 6.25219C125.402 6.25219 124.597 5.98406 124.012 5.44781C123.452 4.88719 123.172 4.11937 123.172 3.14437C123.172 2.145 123.452 1.37719 124.012 0.840937C124.597 0.280312 125.402 0 126.426 0C127.449 0 128.242 0.280312 128.802 0.840937C129.387 1.37719 129.68 2.145 129.68 3.14437C129.68 4.11937 129.387 4.88719 128.802 5.44781C128.242 5.98406 127.449 6.25219 126.426 6.25219Z" fill="#040C23"/>
<path d="M113.002 9.32349V31.4438H108.396V29.6522H107.226C106.714 30.4322 106.019 31.0294 105.142 31.4438C104.264 31.8582 103.277 32.0654 102.18 32.0654C100.669 32.0654 99.3525 31.7241 98.2313 31.0416C97.1344 30.3347 96.2812 29.3475 95.6719 28.08C95.0625 26.8125 94.7578 25.3135 94.7578 23.5829V9.32349H99.3647V22.3763C99.3647 24.1313 99.7425 25.4597 100.498 26.3616C101.278 27.2635 102.412 27.7144 103.898 27.7144C105.385 27.7144 106.507 27.2635 107.262 26.3616C108.018 25.4597 108.396 24.1313 108.396 22.3763V9.32349H113.002Z" fill="#040C23"/>
<path d="M70.8047 9.32353H79.6894V11.0785H80.8959C81.3103 10.3229 81.9075 9.75009 82.6875 9.36009C83.4675 8.94571 84.345 8.73853 85.32 8.73853C87.0994 8.73853 88.4766 9.37228 89.4516 10.6398C90.4509 11.9073 90.9506 13.6867 90.9506 15.9779V19.3051H86.1975V16.636C86.1975 14.296 85.2713 13.126 83.4188 13.126C82.2488 13.126 81.3712 13.6501 80.7862 14.6982C80.2256 15.7463 79.9453 17.3307 79.9453 19.4513V27.2026H86.5997V31.4438H71.3897V27.2026H75.4116V13.5648H70.8047V9.32353Z" fill="#040C23"/>
<path d="M57.0834 32.0654C55.0359 32.0654 53.2566 31.6023 51.7453 30.676C50.2341 29.7254 49.0641 28.3848 48.2353 26.6542C47.4066 24.9235 46.9922 22.876 46.9922 20.5117C46.9922 18.0985 47.4066 16.0145 48.2353 14.2595C49.0884 12.5045 50.295 11.1517 51.855 10.201C53.4394 9.22603 55.2797 8.73853 57.3759 8.73853C59.2528 8.73853 60.8859 9.12853 62.2753 9.90853C63.6647 10.6642 64.7616 11.7367 65.5659 13.126C66.3703 14.5154 66.8091 16.1607 66.8822 18.062H62.7141C62.3972 16.4532 61.7634 15.1979 60.8128 14.296C59.8866 13.3942 58.7044 12.9432 57.2662 12.9432C55.4381 12.9432 54.0244 13.6135 53.025 14.9542C52.0256 16.2704 51.5259 18.1229 51.5259 20.5117C51.5259 22.8273 52.0134 24.631 52.9884 25.9229C53.9634 27.1904 55.3284 27.8242 57.0834 27.8242C58.3753 27.8242 59.46 27.4463 60.3375 26.6907C61.215 25.9107 61.8366 24.826 62.2022 23.4367H66.4069C66.2606 25.1673 65.7731 26.6907 64.9444 28.007C64.14 29.2988 63.0553 30.2982 61.6903 31.0051C60.3497 31.712 58.8141 32.0654 57.0834 32.0654Z" fill="#040C23"/>
<path d="M26.7366 18.0985H39.7163L38.1806 20.1095C38.1806 17.7207 37.7541 15.917 36.9009 14.6982C36.0722 13.4551 34.8291 12.8335 33.1716 12.8335C31.4166 12.8335 30.0637 13.4795 29.1131 14.7713C28.1625 16.0632 27.6872 17.8792 27.6872 20.2192C27.6872 22.7298 28.1625 24.6554 29.1131 25.996C30.0637 27.3123 31.4653 27.9704 33.3178 27.9704C34.4634 27.9704 35.475 27.6901 36.3525 27.1295C37.23 26.5445 37.9734 25.7157 38.5828 24.6432H42.9337C42.5438 26.1788 41.8856 27.5073 40.9594 28.6285C40.0575 29.7254 38.9484 30.5785 37.6322 31.1879C36.3403 31.7729 34.89 32.0654 33.2812 32.0654C31.1606 32.0654 29.3447 31.6023 27.8334 30.676C26.3466 29.7254 25.2009 28.3726 24.3966 26.6176C23.6166 24.8382 23.2266 22.7054 23.2266 20.2192C23.2266 17.8548 23.6287 15.8195 24.4331 14.1132C25.2619 12.407 26.4197 11.0907 27.9066 10.1645C29.3934 9.21384 31.1484 8.73853 33.1716 8.73853C35.0972 8.73853 36.7425 9.17728 38.1075 10.0548C39.4969 10.9323 40.545 12.2242 41.2519 13.9304C41.9831 15.6123 42.3487 17.6598 42.3487 20.0729C42.3487 20.3898 42.3366 20.7067 42.3122 21.0235C42.3122 21.316 42.3 21.6085 42.2756 21.901H26.7366V18.0985Z" fill="#040C23"/>
<path d="M0 31.4438V2.19385H10.3472C12.2484 2.19385 13.9059 2.54728 15.3197 3.25416C16.7334 3.96103 17.8303 4.96041 18.6103 6.25229C19.3903 7.54416 19.7803 9.07978 19.7803 10.8592C19.7803 12.4923 19.3781 13.9304 18.5738 15.1735C17.7938 16.4167 16.6969 17.3917 15.2831 18.0985C13.8694 18.781 12.2241 19.1223 10.3472 19.1223H4.78969V31.4438H0ZM15.1003 31.4438L7.38563 18.3179H12.5044L20.5116 31.4438H15.1003ZM4.78969 15.0273H10.3472C11.7609 15.0273 12.8822 14.6495 13.7109 13.8938C14.5641 13.1382 14.9906 12.1267 14.9906 10.8592C14.9906 9.59166 14.5641 8.5801 13.7109 7.82447C12.8822 7.06885 11.7609 6.69103 10.3472 6.69103H4.78969V15.0273Z" fill="#040C23"/>
</g>
<defs>
<clipPath id="clip0_1966_59707">
<rect width="248.438" height="39.375" fill="white"/>
</clipPath>
</defs>
</svg>
