<svg width="100" height="101" viewBox="0 0 100 101" fill="none" xmlns="http://www.w3.org/2000/svg">
<g clip-path="url(#clip0_1_9135)">
<path d="M64.0001 80.8175C64.0001 88.55 57.7326 94.8175 50.0001 94.8175C42.2676 94.8175 36.0001 88.55 36.0001 80.8175H64.0001Z" fill="#FF9E00"/>
<path d="M41.5576 14.625C41.5576 9.9625 45.3376 6.1825 50.0001 6.1825C54.6626 6.1825 58.4426 9.9625 58.4426 14.625H41.5601H41.5576Z" fill="#FF9E00"/>
<path d="M15.2601 47.5575C15.2601 27.605 32.0801 11.5825 52.3126 12.8925C70.7776 14.0875 84.7401 30.245 84.7401 48.7475V63.945L90.6501 74.18C92.3526 77.13 90.2251 80.8175 86.8176 80.8175H13.1801C9.77508 80.8175 7.64508 77.13 9.34758 74.18L15.2576 63.945L15.2601 47.5575Z" fill="#FFC000"/>
</g>
<defs>
<clipPath id="clip0_1_9135">
<rect width="100" height="100" fill="white" transform="translate(0 0.5)"/>
</clipPath>
</defs>
</svg>
