<svg width="176" height="66" viewBox="0 0 176 66" fill="none" xmlns="http://www.w3.org/2000/svg">
<rect x="0.5" y="0.5" width="175" height="65" fill="#E3E5EA"/>
<rect x="0.5" y="0.5" width="175" height="65" stroke="#478AF4"/>
<g opacity="0.8">
<path d="M165.162 47.9112L165.162 58.6495" stroke="#478AF4" stroke-width="7"/>
<path d="M158.162 17.3497L158.162 58.6495" stroke="#478AF4" stroke-width="7"/>
<path d="M151.162 52.175L151.162 58.6495" stroke="#478AF4" stroke-width="7"/>
<path d="M144.162 35.1383L144.162 58.6495" stroke="#478AF4" stroke-width="7"/>
<path d="M137.162 45.7005L137.162 58.6495" stroke="#478AF4" stroke-width="7"/>
<path d="M130.162 25.4164L130.162 58.6495" stroke="#478AF4" stroke-width="7"/>
<path d="M123.162 32.1907L123.162 58.6495" stroke="#478AF4" stroke-width="7"/>
<path d="M116.162 40.1664L116.162 58.6495" stroke="#478AF4" stroke-width="7"/>
<path d="M109.162 17.3496L109.162 58.6495" stroke="#478AF4" stroke-width="7"/>
<path d="M102.162 55.4122L102.162 58.6495" stroke="#478AF4" stroke-width="7"/>
<path d="M95.1621 27.7548L95.1621 58.6495" stroke="#478AF4" stroke-width="7"/>
<path d="M88.1621 50.824L88.1621 58.6495" stroke="#478AF4" stroke-width="7"/>
<path d="M81.1621 36.1769L81.1621 58.6495" stroke="#478AF4" stroke-width="7"/>
<path d="M74.1621 25.4164L74.1621 58.6495" stroke="#478AF4" stroke-width="7"/>
<path d="M67.1621 50.824L67.1621 58.6495" stroke="#478AF4" stroke-width="7"/>
<path d="M60.1621 36.1769L60.1621 58.6495" stroke="#478AF4" stroke-width="7"/>
<path d="M53.1621 27.7548L53.1621 58.6495" stroke="#478AF4" stroke-width="7"/>
<path d="M46.1621 40.1664L46.1621 58.6495" stroke="#478AF4" stroke-width="7"/>
<path d="M39.1621 20.6461L39.1621 58.6495" stroke="#478AF4" stroke-width="7"/>
<path d="M32.1621 52.1749L32.1621 58.6495" stroke="#478AF4" stroke-width="7"/>
<path d="M25.1621 25.4164L25.1621 58.6495" stroke="#478AF4" stroke-width="7"/>
<path d="M18.1621 42.033L18.1621 58.6495" stroke="#478AF4" stroke-width="7"/>
<path d="M11.1621 50.3675L11.1621 58.6495" stroke="#478AF4" stroke-width="7"/>
</g>
<g opacity="0.5">
<path d="M172.162 1V6.22559" stroke="#478AF4" stroke-width="0.6"/>
<path d="M170.162 1V6.22559" stroke="#478AF4" stroke-width="0.6"/>
<path d="M168.162 1V6.22559" stroke="#478AF4" stroke-width="0.6"/>
<path d="M166.162 1V6.22559" stroke="#478AF4" stroke-width="0.6"/>
<path d="M164.162 1V6.22559" stroke="#478AF4" stroke-width="0.6"/>
<path d="M162.162 1V6.22559" stroke="#478AF4" stroke-width="0.6"/>
<path d="M160.162 1V9.28528" stroke="#478AF4" stroke-width="0.830795"/>
<path d="M160.162 1V6.22559" stroke="#478AF4" stroke-width="0.6"/>
<path d="M158.162 1V6.22559" stroke="#478AF4" stroke-width="0.6"/>
<path d="M156.162 1V6.22559" stroke="#478AF4" stroke-width="0.6"/>
<path d="M154.162 1V6.22559" stroke="#478AF4" stroke-width="0.6"/>
<path d="M152.162 1V6.22559" stroke="#478AF4" stroke-width="0.6"/>
<path d="M150.162 1V6.22559" stroke="#478AF4" stroke-width="0.6"/>
<path d="M148.162 1V9.28528" stroke="#478AF4" stroke-width="0.830795"/>
<path d="M148.162 1V6.22559" stroke="#478AF4" stroke-width="0.6"/>
<path d="M146.162 1V6.22559" stroke="#478AF4" stroke-width="0.6"/>
<path d="M144.162 1V6.22559" stroke="#478AF4" stroke-width="0.6"/>
<path d="M142.162 1V6.22559" stroke="#478AF4" stroke-width="0.6"/>
<path d="M140.162 1V6.22559" stroke="#478AF4" stroke-width="0.6"/>
<path d="M138.162 1V6.22559" stroke="#478AF4" stroke-width="0.6"/>
<path d="M136.162 1V9.28528" stroke="#478AF4" stroke-width="0.830795"/>
<path d="M136.162 1V6.22559" stroke="#478AF4" stroke-width="0.6"/>
<path d="M134.162 1V6.22559" stroke="#478AF4" stroke-width="0.6"/>
<path d="M132.162 1V6.22559" stroke="#478AF4" stroke-width="0.6"/>
<path d="M130.162 1V6.22559" stroke="#478AF4" stroke-width="0.6"/>
<path d="M128.162 1V6.22559" stroke="#478AF4" stroke-width="0.6"/>
<path d="M126.162 1V6.22559" stroke="#478AF4" stroke-width="0.6"/>
<path d="M124.162 1V9.28528" stroke="#478AF4" stroke-width="0.830795"/>
<path d="M124.162 1V6.22559" stroke="#478AF4" stroke-width="0.6"/>
<path d="M122.162 1V6.22559" stroke="#478AF4" stroke-width="0.6"/>
<path d="M120.162 1V6.22559" stroke="#478AF4" stroke-width="0.6"/>
<path d="M118.162 1V6.22559" stroke="#478AF4" stroke-width="0.6"/>
<path d="M116.162 1V6.22559" stroke="#478AF4" stroke-width="0.6"/>
<path d="M114.162 1V6.22559" stroke="#478AF4" stroke-width="0.6"/>
<path d="M112.162 1V9.28528" stroke="#478AF4" stroke-width="0.830795"/>
<path d="M112.162 1V6.22559" stroke="#478AF4" stroke-width="0.6"/>
<path d="M110.162 1V6.22559" stroke="#478AF4" stroke-width="0.6"/>
<path d="M108.162 1V6.22559" stroke="#478AF4" stroke-width="0.6"/>
<path d="M106.162 1V6.22559" stroke="#478AF4" stroke-width="0.6"/>
<path d="M104.162 1V6.22559" stroke="#478AF4" stroke-width="0.6"/>
<path d="M102.162 1V6.22559" stroke="#478AF4" stroke-width="0.6"/>
<path d="M100.162 1V9.28528" stroke="#478AF4" stroke-width="0.830795"/>
<path d="M100.162 1V6.22559" stroke="#478AF4" stroke-width="0.6"/>
<path d="M98.1621 1V6.22559" stroke="#478AF4" stroke-width="0.6"/>
<path d="M96.1621 1V6.22559" stroke="#478AF4" stroke-width="0.6"/>
<path d="M94.1621 1V6.22559" stroke="#478AF4" stroke-width="0.6"/>
<path d="M92.1621 1V6.22559" stroke="#478AF4" stroke-width="0.6"/>
<path d="M90.1621 1V6.22559" stroke="#478AF4" stroke-width="0.6"/>
<path d="M88.1621 1V9.28528" stroke="#478AF4" stroke-width="0.830795"/>
<path d="M88.1621 1V6.22559" stroke="#478AF4" stroke-width="0.6"/>
<path d="M86.1621 1V6.22559" stroke="#478AF4" stroke-width="0.6"/>
<path d="M84.1621 1V6.22559" stroke="#478AF4" stroke-width="0.6"/>
<path d="M82.1621 1V6.22559" stroke="#478AF4" stroke-width="0.6"/>
<path d="M80.1621 1V6.22559" stroke="#478AF4" stroke-width="0.6"/>
<path d="M78.1621 1V6.22559" stroke="#478AF4" stroke-width="0.6"/>
<path d="M76.1621 1V9.28528" stroke="#478AF4" stroke-width="0.830795"/>
<path d="M76.1621 1V6.22559" stroke="#478AF4" stroke-width="0.6"/>
<path d="M74.1621 1V6.22559" stroke="#478AF4" stroke-width="0.6"/>
<path d="M72.1621 1V6.22559" stroke="#478AF4" stroke-width="0.6"/>
<path d="M70.1621 1V6.22559" stroke="#478AF4" stroke-width="0.6"/>
<path d="M68.1621 1V6.22559" stroke="#478AF4" stroke-width="0.6"/>
<path d="M66.1621 1V6.22559" stroke="#478AF4" stroke-width="0.6"/>
<path d="M64.1621 1V9.28528" stroke="#478AF4" stroke-width="0.830795"/>
<path d="M64.1621 1V6.22559" stroke="#478AF4" stroke-width="0.6"/>
<path d="M62.1621 1V6.22559" stroke="#478AF4" stroke-width="0.6"/>
<path d="M60.1621 1V6.22559" stroke="#478AF4" stroke-width="0.6"/>
<path d="M58.1621 1V6.22559" stroke="#478AF4" stroke-width="0.6"/>
<path d="M56.1621 1V6.22559" stroke="#478AF4" stroke-width="0.6"/>
<path d="M54.1621 1V6.22559" stroke="#478AF4" stroke-width="0.6"/>
<path d="M52.1621 1V9.28528" stroke="#478AF4" stroke-width="0.830795"/>
<path d="M52.1621 1V6.22559" stroke="#478AF4" stroke-width="0.6"/>
<path d="M50.1621 1V6.22559" stroke="#478AF4" stroke-width="0.6"/>
<path d="M48.1621 1V6.22559" stroke="#478AF4" stroke-width="0.6"/>
<path d="M46.1621 1V6.22559" stroke="#478AF4" stroke-width="0.6"/>
<path d="M44.1621 1V6.22559" stroke="#478AF4" stroke-width="0.6"/>
<path d="M42.1621 1V6.22559" stroke="#478AF4" stroke-width="0.6"/>
<path d="M40.1621 1V9.28528" stroke="#478AF4" stroke-width="0.830795"/>
<path d="M40.1621 1V6.22559" stroke="#478AF4" stroke-width="0.6"/>
<path d="M38.1621 1V6.22559" stroke="#478AF4" stroke-width="0.6"/>
<path d="M36.1621 1V6.22559" stroke="#478AF4" stroke-width="0.6"/>
<path d="M34.1621 1V6.22559" stroke="#478AF4" stroke-width="0.6"/>
<path d="M32.1621 1V6.22559" stroke="#478AF4" stroke-width="0.6"/>
<path d="M30.1621 1V6.22559" stroke="#478AF4" stroke-width="0.6"/>
<path d="M28.1621 1V9.28528" stroke="#478AF4" stroke-width="0.830795"/>
<path d="M28.1621 1V6.22559" stroke="#478AF4" stroke-width="0.6"/>
<path d="M26.1621 1V6.22559" stroke="#478AF4" stroke-width="0.6"/>
<path d="M24.1621 1V6.22559" stroke="#478AF4" stroke-width="0.6"/>
<path d="M22.1621 1V6.22559" stroke="#478AF4" stroke-width="0.6"/>
<path d="M20.1621 1V6.22559" stroke="#478AF4" stroke-width="0.6"/>
<path d="M18.1621 1V6.22559" stroke="#478AF4" stroke-width="0.6"/>
<path d="M16.1621 1V9.28528" stroke="#478AF4" stroke-width="0.830795"/>
<path d="M16.1621 1V6.22559" stroke="#478AF4" stroke-width="0.6"/>
<path d="M14.1621 1V6.22559" stroke="#478AF4" stroke-width="0.6"/>
<path d="M12.1621 1V6.22559" stroke="#478AF4" stroke-width="0.6"/>
<path d="M10.1621 1V6.22559" stroke="#478AF4" stroke-width="0.6"/>
<path d="M8.16211 1V6.22559" stroke="#478AF4" stroke-width="0.6"/>
<path d="M6.16211 1V6.22559" stroke="#478AF4" stroke-width="0.6"/>
<path d="M4.16211 1V9.28528" stroke="#478AF4" stroke-width="0.830795"/>
</g>
</svg>
