<svg width="490" height="54" viewBox="0 0 490 54" fill="none" xmlns="http://www.w3.org/2000/svg">
<path opacity="0.1" d="M0.515003 52.6224H20.2558C37.123 52.6224 47.5557 42.2522 47.5557 27.1967C47.5557 12.1412 37.123 1.70852 20.2558 1.70852H0.515003V52.6224ZM11.8847 42.5646V11.7664H20.4433C30.1887 11.7664 36.1859 17.3887 36.1859 27.1967C36.1859 37.0046 30.1887 42.5646 20.4433 42.5646H11.8847ZM52.5099 52.6224H90.9296V42.752H63.8796V31.8195H88.1809V21.9491H63.8796V11.5789H90.3673V1.70852H52.5099V52.6224ZM96.6959 52.6224H108.066V39.0662H116.249C129.493 39.0662 137.24 31.6946 137.24 20.3249C137.24 9.08009 129.493 1.70852 116.249 1.70852H96.6959V52.6224ZM108.066 29.0083V11.7664H115.75C122.059 11.7664 125.87 14.7025 125.87 20.3249C125.87 26.0097 122.059 29.0083 115.75 29.0083H108.066ZM184.972 52.6224L173.165 34.3184C179.162 31.5072 182.473 26.1347 182.473 19.1379C182.473 8.58033 174.914 1.70852 161.983 1.70852H141.492V52.6224H152.862V36.5673H161.92L171.79 52.6224H184.972ZM152.862 11.7664H161.483C167.48 11.7664 171.103 14.3277 171.103 19.1379C171.103 23.9482 167.48 26.5095 161.483 26.5095H152.862V11.7664ZM213.052 53.8718C228.857 53.8718 240.539 42.5646 240.539 27.1342C240.539 11.7039 228.857 0.396625 213.052 0.396625C197.246 0.396625 185.564 11.7039 185.564 27.1342C185.564 42.5646 197.246 53.8718 213.052 53.8718ZM213.052 43.6266C203.806 43.6266 196.934 36.6923 196.934 27.1342C196.934 17.5137 203.806 10.6419 213.052 10.6419C222.297 10.6419 229.169 17.5137 229.169 27.1342C229.169 36.6923 222.297 43.6266 213.052 43.6266ZM245.421 52.6224H256.791V24.6978L268.598 44.2513H275.469L287.276 24.6978V52.6224H298.646V1.70852H289.588L272.034 30.1953L254.479 1.70852H245.421V52.6224ZM305.774 52.6224H344.193V42.752H317.143V31.8195H341.445V21.9491H317.143V11.5789H343.631V1.70852H305.774V52.6224ZM349.96 52.6224H388.379V42.752H361.329V31.8195H385.631V21.9491H361.329V11.5789H387.817V1.70852H349.96V52.6224ZM394.146 52.6224H405.516V21.3869L430.941 51.9977H440.437V1.08381H429.067V32.3193L403.641 1.70852H394.146V52.6224ZM489.15 1.70852H444.67V11.7664H461.225V52.6224H472.595V11.7664H489.15V1.70852Z" fill="white"/>
</svg>
