<svg width="81" height="81" viewBox="0 0 81 81" fill="none" xmlns="http://www.w3.org/2000/svg">
<path d="M20.2207 79.7468C15.0454 79.7468 10.7655 75.8394 10.1781 70.8217C5.1604 70.2343 1.25293 65.9543 1.25293 60.779V20.2217C1.25293 15.0464 5.1604 10.7665 10.1781 10.1791C10.7655 5.16136 15.0454 1.25391 20.2207 1.25391H60.778C65.9534 1.25391 70.2333 5.16136 70.8207 10.1791C75.8384 10.7665 79.7459 15.0464 79.7459 20.2217V60.779C79.7459 65.9543 75.8384 70.2343 70.8207 70.8217C70.2333 75.8394 65.9534 79.7468 60.778 79.7468H20.2207Z" fill="white"/>
<path d="M60.7786 2.50708C65.671 2.50708 69.6358 6.47183 69.6358 11.3642C74.5282 11.3642 78.4929 15.329 78.4929 20.2213V60.7787C78.4929 65.671 74.5282 69.6358 69.6358 69.6358C69.6358 74.5282 65.671 78.4929 60.7786 78.4929H20.2214C15.329 78.4929 11.3642 74.5282 11.3642 69.6358C6.47185 69.6358 2.50707 65.671 2.50707 60.7787V20.2213C2.50707 15.329 6.47185 11.3642 11.3642 11.3642C11.3642 6.47183 15.329 2.50708 20.2214 2.50708H60.7786ZM60.7786 0H20.2214C14.7344 0 10.1429 3.90745 9.08637 9.08635C3.90747 10.1429 0 14.7344 0 20.2213V60.7787C0 66.2656 3.90747 70.8571 9.08637 71.9136C10.1429 77.0925 14.7344 81 20.2214 81H60.7786C66.2656 81 70.8571 77.0925 71.9137 71.9136C77.0925 70.8571 81 66.2656 81 60.7787V20.2213C81 14.7344 77.0925 10.1429 71.9137 9.08635C70.8571 3.90745 66.2656 0 60.7786 0Z" fill="black"/>
<path d="M69.6348 69.6347C74.5272 69.6347 78.492 65.67 78.492 60.7776V40.875H40.499V78.4919H60.7777C65.6701 78.4919 69.6348 74.5271 69.6348 69.6347Z" fill="#F4F4F4"/>
<path d="M39.1995 8.15222H38.4976V7.71885C38.9775 7.68304 39.264 7.48963 39.3858 7.26758H39.8191V11.3649H39.1995V8.15222Z" fill="black"/>
<path d="M40.4196 10.4412V8.19195C40.4196 7.60816 40.81 7.20703 41.3974 7.20703C41.9847 7.20703 42.368 7.60458 42.368 8.19195V8.32805H41.7698V8.1633C41.7698 7.94125 41.623 7.7944 41.4009 7.7944C41.1789 7.7944 41.0392 7.94125 41.0392 8.1633V9.10166C41.1323 8.95124 41.3365 8.80798 41.6409 8.80798C42.1137 8.80798 42.3966 9.13748 42.3966 9.64606V10.4412C42.3966 11.0249 41.999 11.4261 41.4117 11.4261C40.8243 11.4261 40.416 11.0285 40.416 10.4412H40.4196ZM41.777 10.4698V9.73918C41.777 9.48847 41.6481 9.37028 41.4367 9.37028C41.1896 9.37028 41.0392 9.5207 41.0392 9.77857V10.4698C41.0392 10.6919 41.1789 10.8387 41.4153 10.8387C41.6516 10.8387 41.777 10.6919 41.777 10.4698Z" fill="black"/>
<path d="M8.22596 41.729V42.431H7.79259C7.75677 41.951 7.56336 41.6645 7.34131 41.5427V41.1094H11.4386V41.729H8.22596Z" fill="black"/>
<path d="M10.8524 39.8671V38.6387H11.4362V40.6049H10.8989L9.45198 39.6988C8.91475 39.3586 8.63182 39.2583 8.31664 39.2583C8.03012 39.2583 7.87253 39.3944 7.87253 39.6343C7.87253 39.8743 8.03012 40.0104 8.31664 40.0104H8.5566V40.6085H8.3632C7.69704 40.6085 7.28516 40.2468 7.28516 39.6308C7.28516 39.0147 7.66481 38.6423 8.29874 38.6423C8.74285 38.6423 9.10457 38.7784 9.76716 39.1938L10.8488 39.8743L10.8524 39.8671Z" fill="black"/>
<path d="M39.4707 70.3978V70.0181C39.4707 69.3985 39.8396 69.0117 40.5022 69.0117C41.1648 69.0117 41.5337 69.3985 41.5337 70.0181V70.3978C41.5337 70.7846 41.3689 71.0604 41.0788 71.2C41.3438 71.3469 41.4943 71.6155 41.4943 71.9916V72.2602C41.4943 72.8511 41.1361 73.2272 40.5058 73.2272C39.8754 73.2272 39.5173 72.8511 39.5173 72.2602V71.9916C39.5173 71.6155 39.6713 71.3469 39.9327 71.2C39.639 71.0604 39.4779 70.7846 39.4779 70.3978H39.4707ZM40.0903 70.4336C40.0903 70.7631 40.23 70.9028 40.4986 70.9028C40.7672 70.9028 40.9069 70.7631 40.9069 70.4336V70.0074C40.9069 69.7388 40.7672 69.5991 40.4986 69.5991C40.23 69.5991 40.0903 69.7388 40.0903 70.0074V70.4336ZM40.8675 71.9557C40.8675 71.6262 40.7278 71.4866 40.4986 71.4866C40.2694 71.4866 40.1297 71.6262 40.1297 71.9557V72.2709C40.1297 72.5109 40.2586 72.6398 40.4986 72.6398C40.7386 72.6398 40.8675 72.5109 40.8675 72.2709V71.9557Z" fill="black"/>
<path d="M69.981 41.5851V41.252H69.125V40.6324H69.981V39.4219H70.5361L73.2223 40.5178V41.2556H70.5648V41.5887H69.981V41.5851ZM70.5648 40.6324H72.1729L70.5648 40.0057V40.6324Z" fill="black"/>
<path d="M12.4092 12.7637L15.1992 15.5537" stroke="black" stroke-width="0.358153" stroke-miterlimit="10" stroke-linecap="round"/>
<path d="M65.3574 65.709L68.1438 68.4954" stroke="black" stroke-width="0.358153" stroke-miterlimit="10" stroke-linecap="round"/>
<path d="M68.1438 12.7637L65.3574 15.5537" stroke="black" stroke-width="0.358153" stroke-miterlimit="10" stroke-linecap="round"/>
<path d="M15.1992 65.709L12.4092 68.4954" stroke="black" stroke-width="0.358153" stroke-miterlimit="10" stroke-linecap="round"/>
</svg>
