<svg width="287" height="325" viewBox="0 0 287 325" fill="none" xmlns="http://www.w3.org/2000/svg">
<path d="M25.6425 57.1238H13.9857L11.6362 72.9599H0.792725L12.6528 1.39258H27.1786L39.0387 72.9599H27.992L25.6425 57.1238ZM24.2193 46.6869L19.814 16.7317L15.409 46.6869H24.1966H24.2193Z" fill="black"/>
<path d="M47.4232 1.41602H59.3737L73.1767 49.4664V1.41602H83.8168V72.9833H72.3633L58.0409 27.1694V72.9833H47.4006V1.41602H47.4232Z" fill="black"/>
<path d="M95.6732 1.41602H112.639C122.963 1.41602 129.604 8.17063 129.604 18.4946V55.9047C129.604 66.2287 122.963 72.9833 112.639 72.9833H95.6732V1.41602ZM112.142 62.7723C116.344 62.7723 118.784 60.3099 118.784 56.1307V18.2912C118.784 14.0894 116.321 11.6496 112.142 11.6496H106.517V62.7723H112.142Z" fill="black"/>
<path d="M164.777 72.9833L156.916 43.4347H151.291V72.9833H140.447V1.41602H157.413C167.737 1.41602 174.378 8.17063 174.378 18.4946V26.3561C174.378 32.9978 171.622 38.1259 166.924 40.9723L176.027 72.9833H164.777ZM151.291 33.2011H156.916C161.118 33.2011 163.557 30.7387 163.557 26.5594V18.2687C163.557 14.0668 161.095 11.627 156.916 11.627H151.291V33.2011Z" fill="black"/>
<path d="M184.005 56.7181V17.6588C184.005 7.33489 190.963 0.376953 201.378 0.376953C211.792 0.376953 218.75 7.33489 218.75 17.6588V56.7181C218.75 67.0421 211.792 74 201.378 74C190.963 74 184.005 67.0421 184.005 56.7181ZM207.929 56.7181V17.6588C207.929 13.1633 205.376 10.6105 201.378 10.6105C197.379 10.6105 194.826 13.1633 194.826 17.6588V56.7181C194.826 61.2137 197.379 63.7664 201.378 63.7664C205.376 63.7664 207.929 61.2137 207.929 56.7181Z" fill="black"/>
<path d="M229.697 1.41602H240.54V72.9833H229.697V1.41602Z" fill="black"/>
<path d="M252.41 1.41602H269.376C279.7 1.41602 286.341 8.17063 286.341 18.4946V55.9047C286.341 66.2287 279.7 72.9833 269.376 72.9833H252.41V1.41602ZM268.879 62.7723C273.081 62.7723 275.52 60.3099 275.52 56.1307V18.2912C275.52 14.0894 273.058 11.6496 268.879 11.6496H263.254V62.7723H268.879Z" fill="black"/>
<path d="M77.6298 320.263C60.8024 320.263 46.8863 307.558 44.9764 291.243C28.6614 289.333 15.9563 275.417 15.9563 258.59V126.718C15.9563 109.891 28.6614 95.9748 44.9764 94.065C46.8863 77.7499 60.8024 65.0449 77.6298 65.0449H209.501C226.329 65.0449 240.245 77.7499 242.155 94.065C258.47 95.9748 271.175 109.891 271.175 126.718V258.59C271.175 275.417 258.47 289.333 242.155 291.243C240.245 307.558 226.329 320.263 209.501 320.263H77.6298Z" fill="white"/>
<path d="M209.503 69.1205C225.41 69.1205 238.302 82.0118 238.302 97.9193C254.209 97.9193 267.1 110.811 267.1 126.718V258.589C267.1 274.497 254.209 287.388 238.302 287.388C238.302 303.296 225.41 316.187 209.503 316.187H77.6315C61.724 316.187 48.8327 303.296 48.8327 287.388C32.9252 287.388 20.0338 274.497 20.0338 258.589V126.718C20.0338 110.811 32.9252 97.9193 48.8327 97.9193C48.8327 82.0118 61.724 69.1205 77.6315 69.1205H209.503ZM209.503 60.9688H77.6315C59.7909 60.9688 44.8616 73.6738 41.4263 90.5129C24.5872 93.9482 11.8821 108.878 11.8821 126.718V258.589C11.8821 276.43 24.5872 291.359 41.4263 294.795C44.8616 311.634 59.7909 324.339 77.6315 324.339H209.503C227.343 324.339 242.273 311.634 245.708 294.795C262.547 291.359 275.252 276.43 275.252 258.589V126.718C275.252 108.878 262.547 93.9482 245.708 90.5129C242.273 73.6738 227.343 60.9688 209.503 60.9688Z" fill="black"/>
<path d="M238.296 287.389C254.204 287.389 267.095 274.497 267.095 258.59V193.877H143.562V316.188H209.497C225.405 316.188 238.296 303.296 238.296 287.389Z" fill="#F4F4F4"/>
<path d="M139.335 87.4721H137.053V86.063C138.613 85.9466 139.545 85.3177 139.941 84.5957H141.35V97.9179H139.335V87.4721Z" fill="black"/>
<path d="M143.301 94.9141V87.6009C143.301 85.7027 144.571 84.3984 146.481 84.3984C148.39 84.3984 149.636 85.6911 149.636 87.6009V88.0434H147.692V87.5077C147.692 86.7857 147.214 86.3083 146.492 86.3083C145.77 86.3083 145.316 86.7857 145.316 87.5077V90.5588C145.619 90.0697 146.283 89.6039 147.272 89.6039C148.81 89.6039 149.73 90.6753 149.73 92.3289V94.9141C149.73 96.8123 148.437 98.1166 146.527 98.1166C144.617 98.1166 143.29 96.824 143.29 94.9141H143.301ZM147.715 95.0073V92.6317C147.715 91.8165 147.296 91.4322 146.609 91.4322C145.805 91.4322 145.316 91.9213 145.316 92.7598V95.0073C145.316 95.7293 145.77 96.2068 146.539 96.2068C147.307 96.2068 147.715 95.7293 147.715 95.0073Z" fill="black"/>
<path d="M38.6328 196.647V198.93H37.2237C37.1072 197.369 36.4784 196.438 35.7563 196.042V194.633H49.0786V196.647H38.6328Z" fill="black"/>
<path d="M47.1703 190.592V186.598H49.0685V192.991H47.3217L42.6169 190.045C40.8701 188.938 39.9502 188.612 38.9254 188.612C37.9938 188.612 37.4814 189.055 37.4814 189.835C37.4814 190.615 37.9938 191.058 38.9254 191.058H39.7056V193.003H39.0768C36.9108 193.003 35.5715 191.826 35.5715 189.823C35.5715 187.82 36.806 186.609 38.8672 186.609C40.3112 186.609 41.4873 187.052 43.6417 188.403L47.1586 190.615L47.1703 190.592Z" fill="black"/>
<path d="M140.219 289.868V288.634C140.219 286.619 141.418 285.361 143.573 285.361C145.727 285.361 146.927 286.619 146.927 288.634V289.868C146.927 291.126 146.391 292.022 145.448 292.477C146.309 292.954 146.798 293.827 146.798 295.05V295.924C146.798 297.845 145.634 299.068 143.584 299.068C141.535 299.068 140.37 297.845 140.37 295.924V295.05C140.37 293.827 140.871 292.954 141.721 292.477C140.766 292.022 140.242 291.126 140.242 289.868H140.219ZM142.234 289.985C142.234 291.056 142.688 291.51 143.561 291.51C144.434 291.51 144.889 291.056 144.889 289.985V288.599C144.889 287.725 144.434 287.271 143.561 287.271C142.688 287.271 142.234 287.725 142.234 288.599V289.985ZM144.761 294.934C144.761 293.862 144.306 293.408 143.561 293.408C142.816 293.408 142.362 293.862 142.362 294.934V295.959C142.362 296.739 142.781 297.158 143.561 297.158C144.341 297.158 144.761 296.739 144.761 295.959V294.934Z" fill="black"/>
<path d="M239.423 196.182V195.099H236.64V193.085H239.423V189.148H241.228L249.962 192.712V195.111H241.321V196.194H239.423V196.182ZM241.321 193.085H246.55L241.321 191.047V193.085Z" fill="black"/>
<path d="M52.231 102.473L61.3026 111.544" stroke="black" stroke-width="1.16453" stroke-miterlimit="10" stroke-linecap="round"/>
<path d="M224.39 274.625L233.45 283.685" stroke="black" stroke-width="1.16453" stroke-miterlimit="10" stroke-linecap="round"/>
<path d="M233.45 102.473L224.39 111.544" stroke="black" stroke-width="1.16453" stroke-miterlimit="10" stroke-linecap="round"/>
<path d="M61.3026 274.625L52.231 283.685" stroke="black" stroke-width="1.16453" stroke-miterlimit="10" stroke-linecap="round"/>
</svg>
