<svg width="192" height="73" viewBox="0 0 192 73" fill="none" xmlns="http://www.w3.org/2000/svg">
<g clip-path="url(#clip0_1062_13283)">
<path d="M0 28.5653L10.8111 0.581055H15.7066L26.2485 28.5724H21.4523L19.9574 24.4562H6.42576L4.89548 28.5724H0V28.5653ZM18.498 20.4747L13.2624 6.08581L7.92061 20.4747H18.498Z" fill="black"/>
<path d="M28.1543 0.580833H32.8797L44.1726 20.1344V0.54541H48.8627V28.5722H44.2364L32.8443 8.88402V28.5722H28.1543V0.580833Z" fill="black"/>
<path d="M53.0851 0.51001H58.3915C69.0042 0.51001 73.6588 6.87201 73.6588 14.488C73.6588 22.104 68.9972 28.5651 58.3915 28.5651H53.0851V0.51001ZM58.9016 23.8751C65.7382 23.8751 68.9688 19.7944 68.9688 14.488C68.9688 9.18159 65.7382 5.17169 58.9016 5.17169H57.7468V23.8751H58.9016Z" fill="black"/>
<path d="M76.7832 0.54541H82.9752C91.7814 0.54541 95.012 5.68177 95.012 11.2574C95.012 14.7926 93.6517 18.1649 90.5911 20.1344L95.2812 28.5722H89.7056L86.4396 21.7355C85.554 21.8701 84.6046 21.9764 83.549 21.9764H81.4378V28.6076H76.7761V0.54541H76.7832ZM83.6907 17.4493C88.1115 17.4493 90.4565 14.9343 90.4565 11.2574C90.4565 7.58045 88.0407 5.10083 83.6907 5.10083H81.4449V17.4493H83.6907Z" fill="black"/>
<path d="M111.675 29.0753C103.209 29.0753 97.1161 22.3095 97.1161 14.5164C97.1161 6.72331 103.209 0 111.675 0C120.141 0 126.198 6.76582 126.198 14.5235C126.198 22.2812 120.113 29.0824 111.675 29.0824V29.0753ZM111.675 24.4207C117.286 24.4207 121.537 19.9645 121.537 14.5235C121.537 9.08249 117.286 4.66168 111.675 4.66168C106.064 4.66168 101.778 9.08249 101.778 14.5235C101.778 19.9645 106.029 24.4207 111.675 24.4207Z" fill="black"/>
<path d="M129.323 0.581055H134.013V28.5724H129.323V0.581055Z" fill="black"/>
<path d="M138.235 0.51001H143.542C154.154 0.51001 158.809 6.87201 158.809 14.488C158.809 22.104 154.147 28.5651 143.542 28.5651H138.235V0.51001ZM144.052 23.8751C150.888 23.8751 154.119 19.7944 154.119 14.488C154.119 9.18159 150.888 5.17169 144.052 5.17169H142.897V23.8751H144.052Z" fill="black"/>
<path d="M2.34503 44.4348H7.65142C18.2642 44.4348 22.9188 50.7968 22.9188 58.4128C22.9188 66.0288 18.2571 72.4899 7.65142 72.4899H2.34503V44.4348ZM8.16151 67.7999C14.9982 67.7999 18.2288 63.7192 18.2288 58.4128C18.2288 53.1064 14.9982 49.0965 8.16151 49.0965H7.00672V67.7999H8.16151Z" fill="black"/>
<path d="M26.0502 44.5056H41.3884V48.9264H30.7119V56.1032H40.5099V60.2193H30.7119V68.0408H41.3884V72.497H26.0502V44.5056Z" fill="black"/>
<path d="M42.2669 44.5056H47.2332L54.8209 65.7595L62.1676 44.5056H67.0985L57.3359 72.497H52.2704L42.274 44.5056H42.2669Z" fill="black"/>
<path d="M68.9972 44.5056H84.3354V48.9264H73.6589V56.1032H83.4569V60.2193H73.6589V68.0408H84.3354V72.497H68.9972V44.5056Z" fill="black"/>
<path d="M87.566 44.4702H92.2277V68.0408H101.579V72.497H87.566V44.4702Z" fill="black"/>
<path d="M115.281 73.0001C106.815 73.0001 100.722 66.2343 100.722 58.4412C100.722 50.6481 106.808 43.9177 115.281 43.9177C123.754 43.9177 129.805 50.6835 129.805 58.4412C129.805 66.1989 123.719 73.0001 115.281 73.0001ZM115.281 68.3455C120.892 68.3455 125.143 63.8893 125.143 58.4483C125.143 53.0073 120.892 48.5865 115.281 48.5865C109.67 48.5865 105.384 53.0073 105.384 58.4483C105.384 63.8893 109.635 68.3455 115.281 68.3455Z" fill="black"/>
<path d="M132.929 44.4702H139.121C147.927 44.4702 151.158 49.6066 151.158 55.1822C151.158 60.7578 147.792 65.8941 139.631 65.8941H137.591V72.5253H132.929V44.4702ZM139.836 61.3741C144.257 61.3741 146.602 58.8591 146.602 55.1822C146.602 51.5052 144.186 49.0256 139.836 49.0256H137.591V61.3741H139.836Z" fill="black"/>
<path d="M154.013 44.5056H169.351V48.9264H158.674V56.1032H168.472V60.2193H158.674V68.0408H169.351V72.497H154.013V44.5056Z" fill="black"/>
<path d="M172.582 44.4702H178.774C187.58 44.4702 190.81 49.6066 190.81 55.1822C190.81 58.7174 189.45 62.0897 186.389 64.0592L191.08 72.497H185.504L182.238 65.6603C181.352 65.7949 180.403 65.9012 179.347 65.9012H177.236V72.5324H172.574V44.4773L172.582 44.4702ZM179.482 61.3741C183.903 61.3741 186.248 58.8591 186.248 55.1822C186.248 51.5052 183.832 49.0256 179.482 49.0256H177.236V61.3741H179.482Z" fill="black"/>
</g>
<defs>
<clipPath id="clip0_1062_13283">
<rect width="191.079" height="73" fill="white"/>
</clipPath>
</defs>
</svg>
