<svg width="306" height="336" viewBox="0 0 306 336" fill="none" xmlns="http://www.w3.org/2000/svg">
<rect width="306" height="336" fill="#00CEBA"/>
<g clip-path="url(#clip0_1469_9211)">
<path d="M32 68.5653L42.8111 40.5811H47.7066L58.2485 68.5724H53.4523L51.9574 64.4562H38.4258L36.8955 68.5724H32V68.5653ZM50.498 60.4747L45.2624 46.0858L39.9206 60.4747H50.498Z" fill="black"/>
<path d="M60.1543 40.5808H64.8797L76.1726 60.1344V40.5454H80.8627V68.5722H76.2364L64.8443 48.884V68.5722H60.1543V40.5808Z" fill="black"/>
<path d="M85.0851 40.51H90.3915C101.004 40.51 105.659 46.872 105.659 54.488C105.659 62.104 100.997 68.5651 90.3915 68.5651H85.0851V40.51ZM90.9016 63.8751C97.7382 63.8751 100.969 59.7944 100.969 54.488C100.969 49.1816 97.7382 45.1717 90.9016 45.1717H89.7468V63.8751H90.9016Z" fill="black"/>
<path d="M108.783 40.5454H114.975C123.781 40.5454 127.012 45.6818 127.012 51.2574C127.012 54.7926 125.652 58.1649 122.591 60.1344L127.281 68.5722H121.706L118.44 61.7355C117.554 61.8701 116.605 61.9764 115.549 61.9764H113.438V68.6076H108.776V40.5454H108.783ZM115.691 57.4493C120.112 57.4493 122.457 54.9343 122.457 51.2574C122.457 47.5804 120.041 45.1008 115.691 45.1008H113.445V57.4493H115.691Z" fill="black"/>
<path d="M143.675 69.0753C135.209 69.0753 129.116 62.3095 129.116 54.5164C129.116 46.7233 135.209 40 143.675 40C152.141 40 158.198 46.7658 158.198 54.5235C158.198 62.2812 152.113 69.0824 143.675 69.0824V69.0753ZM143.675 64.4207C149.286 64.4207 153.537 59.9645 153.537 54.5235C153.537 49.0825 149.286 44.6617 143.675 44.6617C138.064 44.6617 133.778 49.0825 133.778 54.5235C133.778 59.9645 138.029 64.4207 143.675 64.4207Z" fill="black"/>
<path d="M161.323 40.5811H166.013V68.5724H161.323V40.5811Z" fill="black"/>
<path d="M170.235 40.51H175.542C186.154 40.51 190.809 46.872 190.809 54.488C190.809 62.104 186.147 68.5651 175.542 68.5651H170.235V40.51ZM176.052 63.8751C182.888 63.8751 186.119 59.7944 186.119 54.488C186.119 49.1816 182.888 45.1717 176.052 45.1717H174.897V63.8751H176.052Z" fill="black"/>
<path d="M34.345 84.4348H39.6514C50.2641 84.4348 54.9187 90.7968 54.9187 98.4128C54.9187 106.029 50.257 112.49 39.6514 112.49H34.345V84.4348ZM40.1615 107.8C46.9981 107.8 50.2287 103.719 50.2287 98.4128C50.2287 93.1064 46.9981 89.0965 40.1615 89.0965H39.0067V107.8H40.1615Z" fill="black"/>
<path d="M58.0502 84.5056H73.3884V88.9264H62.7119V96.1032H72.5099V100.219H62.7119V108.041H73.3884V112.497H58.0502V84.5056Z" fill="black"/>
<path d="M74.2668 84.5056H79.2332L86.8208 105.76L94.1676 84.5056H99.0985L89.3358 112.497H84.2703L74.2739 84.5056H74.2668Z" fill="black"/>
<path d="M100.997 84.5056H116.335V88.9264H105.659V96.1032H115.457V100.219H105.659V108.041H116.335V112.497H100.997V84.5056Z" fill="black"/>
<path d="M119.566 84.4702H124.228V108.041H133.579V112.497H119.566V84.4702Z" fill="black"/>
<path d="M147.281 113C138.815 113 132.722 106.234 132.722 98.4412C132.722 90.6481 138.808 83.9177 147.281 83.9177C155.754 83.9177 161.805 90.6835 161.805 98.4412C161.805 106.199 155.719 113 147.281 113ZM147.281 108.346C152.892 108.346 157.143 103.889 157.143 98.4483C157.143 93.0073 152.892 88.5865 147.281 88.5865C141.67 88.5865 137.384 93.0073 137.384 98.4483C137.384 103.889 141.635 108.346 147.281 108.346Z" fill="black"/>
<path d="M164.929 84.4702H171.121C179.927 84.4702 183.158 89.6066 183.158 95.1822C183.158 100.758 179.792 105.894 171.631 105.894H169.591V112.525H164.929V84.4702ZM171.836 101.374C176.257 101.374 178.602 98.8591 178.602 95.1822C178.602 91.5052 176.186 89.0256 171.836 89.0256H169.591V101.374H171.836Z" fill="black"/>
<path d="M186.013 84.5056H201.351V88.9264H190.674V96.1032H200.472V100.219H190.674V108.041H201.351V112.497H186.013V84.5056Z" fill="black"/>
<path d="M204.582 84.4702H210.774C219.58 84.4702 222.81 89.6066 222.81 95.1822C222.81 98.7174 221.45 102.09 218.389 104.059L223.08 112.497H217.504L214.238 105.66C213.352 105.795 212.403 105.901 211.347 105.901H209.236V112.532H204.574V84.4773L204.582 84.4702ZM211.482 101.374C215.903 101.374 218.248 98.8591 218.248 95.1822C218.248 91.5052 215.832 89.0256 211.482 89.0256H209.236V101.374H211.482Z" fill="black"/>
</g>
<path d="M33.8594 152H32.2598L35.8145 142.102H37.5508L41.1191 152H39.5195L38.6172 149.389H34.7617L33.8594 152ZM35.1992 148.131H38.1797L36.7168 143.906H36.6484L35.1992 148.131ZM43.5768 147.598V152H42.1139V144.576H43.5221V145.793H43.6041C43.9596 145 44.6842 144.48 45.7916 144.48C47.3229 144.48 48.3209 145.438 48.3209 147.283V152H46.8717V147.461C46.8717 146.381 46.2838 145.738 45.2995 145.738C44.3014 145.738 43.5768 146.408 43.5768 147.598ZM52.7337 152.15C50.9427 152.15 49.6302 150.701 49.6302 148.309C49.6302 145.889 50.9563 144.48 52.7473 144.48C54.1282 144.48 54.6341 145.314 54.8938 145.779H54.9622V142.102H56.4251V152H55.0032V150.838H54.8938C54.6204 151.33 54.0872 152.15 52.7337 152.15ZM53.0618 150.906C54.3059 150.906 55.0032 149.84 55.0032 148.281C55.0032 146.736 54.3196 145.725 53.0618 145.725C51.763 145.725 51.1204 146.818 51.1204 148.281C51.1204 149.771 51.7903 150.906 53.0618 150.906ZM58.1855 152V144.576H59.5937V145.752H59.6757C59.9491 144.959 60.6874 144.467 61.5624 144.467C61.7402 144.467 62.0273 144.48 62.1777 144.494V145.889C62.0546 145.861 61.7128 145.807 61.412 145.807C60.4003 145.807 59.6484 146.504 59.6484 147.475V152H58.1855ZM66.0298 152.15C63.9244 152.15 62.5572 150.619 62.5572 148.322C62.5572 146.012 63.9244 144.48 66.0298 144.48C68.1216 144.48 69.4888 146.012 69.4888 148.322C69.4888 150.619 68.1216 152.15 66.0298 152.15ZM66.0298 150.934C67.3697 150.934 68.0123 149.744 68.0123 148.322C68.0123 146.9 67.3697 145.684 66.0298 145.684C64.6627 145.684 64.0201 146.9 64.0201 148.322C64.0201 149.744 64.6627 150.934 66.0298 150.934ZM70.7844 152V144.576H72.2473V152H70.7844ZM71.5227 143.428C71.0168 143.428 70.593 143.045 70.593 142.566C70.593 142.088 71.0168 141.705 71.5227 141.705C72.0148 141.705 72.4387 142.088 72.4387 142.566C72.4387 143.045 72.0148 143.428 71.5227 143.428ZM76.66 152.15C74.869 152.15 73.5565 150.701 73.5565 148.309C73.5565 145.889 74.8827 144.48 76.6737 144.48C78.0545 144.48 78.5604 145.314 78.8202 145.779H78.8885V142.102H80.3514V152H78.9295V150.838H78.8202C78.5467 151.33 78.0135 152.15 76.66 152.15ZM76.9881 150.906C78.2323 150.906 78.9295 149.84 78.9295 148.281C78.9295 146.736 78.2459 145.725 76.9881 145.725C75.6893 145.725 75.0467 146.818 75.0467 148.281C75.0467 149.771 75.7166 150.906 76.9881 150.906Z" fill="black"/>
<path d="M84.62 148.164C84.068 148.164 83.612 147.708 83.612 147.156C83.612 146.604 84.068 146.148 84.62 146.148C85.172 146.148 85.628 146.604 85.628 147.156C85.628 147.708 85.172 148.164 84.62 148.164Z" fill="black"/>
<path d="M89.0117 152V142.102H90.5156V146.818H90.6387L94.7812 142.102H96.668L92.6758 146.559L96.6816 152H94.8633L91.6777 147.584L90.5156 148.924V152H89.0117ZM100.247 152.15C98.1412 152.15 96.7741 150.619 96.7741 148.322C96.7741 146.012 98.1412 144.48 100.247 144.48C102.339 144.48 103.706 146.012 103.706 148.322C103.706 150.619 102.339 152.15 100.247 152.15ZM100.247 150.934C101.587 150.934 102.229 149.744 102.229 148.322C102.229 146.9 101.587 145.684 100.247 145.684C98.8795 145.684 98.237 146.9 98.237 148.322C98.237 149.744 98.8795 150.934 100.247 150.934ZM108.474 144.576V145.738H106.956V149.812C106.956 150.646 107.38 150.797 107.845 150.811C108.05 150.811 108.378 150.783 108.583 150.77V152.041C108.378 152.068 108.064 152.096 107.667 152.096C106.519 152.096 105.493 151.467 105.507 150.113V145.738H104.413V144.576H105.507V142.799H106.956V144.576H108.474ZM111.383 142.102V152H109.92V142.102H111.383ZM113.02 152V144.576H114.483V152H113.02ZM113.758 143.428C113.253 143.428 112.829 143.045 112.829 142.566C112.829 142.088 113.253 141.705 113.758 141.705C114.251 141.705 114.674 142.088 114.674 142.566C114.674 143.045 114.251 143.428 113.758 143.428ZM117.583 147.598V152H116.12V144.576H117.529V145.793H117.611C117.966 145 118.691 144.48 119.798 144.48C121.329 144.48 122.327 145.438 122.327 147.283V152H120.878V147.461C120.878 146.381 120.29 145.738 119.306 145.738C118.308 145.738 117.583 146.408 117.583 147.598Z" fill="black"/>
<path d="M126.62 148.164C126.068 148.164 125.612 147.708 125.612 147.156C125.612 146.604 126.068 146.148 126.62 146.148C127.172 146.148 127.628 146.604 127.628 147.156C127.628 147.708 127.172 148.164 126.62 148.164Z" fill="black"/>
<path d="M137.697 145.232C137.328 144.057 136.439 143.346 135.127 143.346C133.459 143.346 132.174 144.658 132.174 147.051C132.174 149.443 133.445 150.756 135.195 150.756C136.774 150.756 137.82 149.758 137.848 148.172H135.414V146.928H139.311V148.049C139.311 150.551 137.588 152.137 135.182 152.137C132.502 152.137 130.684 150.182 130.684 147.051C130.684 143.893 132.557 141.965 135.113 141.965C137.26 141.965 138.9 143.305 139.242 145.232H137.697ZM141.249 152V144.576H142.712V152H141.249ZM141.987 143.428C141.481 143.428 141.057 143.045 141.057 142.566C141.057 142.088 141.481 141.705 141.987 141.705C142.479 141.705 142.903 142.088 142.903 142.566C142.903 143.045 142.479 143.428 141.987 143.428ZM147.822 144.576V145.738H146.304V149.812C146.304 150.646 146.728 150.797 147.193 150.811C147.398 150.811 147.726 150.783 147.931 150.77V152.041C147.726 152.068 147.411 152.096 147.015 152.096C145.866 152.096 144.841 151.467 144.855 150.113V145.738H143.761V144.576H144.855V142.799H146.304V144.576H147.822Z" fill="black"/>
<path d="M39.2461 278.102C39.2461 280.992 40.9453 284.039 43.7969 285.23L42.6055 286.949C40.5156 286.051 38.9922 284.195 38.1914 281.949C37.3711 284.371 35.8281 286.402 33.7578 287.379L32.5078 285.68C35.3008 284.391 37.0391 281.109 37.0391 278.102V276.617H33.1523V274.82H43.1133V276.617H39.2461V278.102ZM47.2734 273.082V290.738H45.0859V273.082H47.2734ZM63.8758 273.102V286.461H61.6883V284.918H58.2313V283.395H61.6883V273.102H63.8758ZM64.2859 288.629V290.387H51.3367V285.172H53.5047V288.629H64.2859ZM48.993 281.031C52.2547 281.012 56.6297 280.973 60.3797 280.504L60.4969 282.066C59.0418 282.311 57.5379 282.477 56.0438 282.574V285.973H53.8758V282.691C52.2254 282.76 50.6531 282.77 49.2664 282.77L48.993 281.031ZM54.7547 273.746C57.3328 273.746 59.1297 275.016 59.1492 276.871C59.1297 278.766 57.3328 279.977 54.7547 279.977C52.1375 279.977 50.3406 278.766 50.3406 276.871C50.3406 275.016 52.1375 273.746 54.7547 273.746ZM54.7547 275.348C53.3484 275.348 52.3914 275.914 52.3914 276.871C52.3914 277.828 53.3484 278.395 54.7547 278.395C56.1023 278.395 57.0594 277.828 57.0789 276.871C57.0594 275.914 56.1023 275.348 54.7547 275.348ZM79.3844 273.082V280.113H82.0992V281.91H79.3844V290.738H77.2359V273.082H79.3844ZM75.8688 275.797V277.535H65.4586V275.797H69.6383V273.336H71.8063V275.797H75.8688ZM70.732 278.688C73.2711 278.688 75.1656 280.406 75.1656 282.848C75.1656 285.289 73.2711 286.988 70.732 286.988C68.1539 286.988 66.2594 285.289 66.2789 282.848C66.2594 280.406 68.1539 278.688 70.732 278.688ZM70.732 280.465C69.3453 280.465 68.3492 281.402 68.3492 282.848C68.3492 284.293 69.3453 285.211 70.732 285.191C72.0797 285.211 73.0758 284.293 73.0953 282.848C73.0758 281.402 72.0797 280.465 70.732 280.465ZM96.7875 273.082V290.738H94.6V273.082H96.7875ZM91.5141 274.957C91.5141 280.211 89.4828 284.684 83.2914 287.613L82.1586 285.875C86.7777 283.678 88.9262 280.689 89.307 276.676H83.057V274.957H91.5141Z" fill="black"/>
<circle cx="119" cy="282" r="12" fill="black"/>
<path d="M121.838 281.03C121.366 280.678 120.86 280.221 120.319 279.658C119.791 279.096 119.32 278.533 118.904 277.97L120.61 277C121.082 277.619 121.616 278.238 122.212 278.857C122.809 279.461 123.433 280.038 124.085 280.586C124.737 281.121 125.376 281.592 126 282C125.376 282.408 124.737 282.886 124.085 283.435C123.433 283.969 122.809 284.546 122.212 285.165C121.616 285.769 121.082 286.381 120.61 287L118.904 286.03C119.32 285.453 119.791 284.89 120.319 284.342C120.86 283.779 121.366 283.322 121.838 282.97H112V281.03H121.838Z" fill="white"/>
<defs>
<clipPath id="clip0_1469_9211">
<rect width="191.079" height="73" fill="white" transform="translate(32 40)"/>
</clipPath>
</defs>
</svg>
