<svg width="142" height="54" viewBox="0 0 142 54" fill="none" xmlns="http://www.w3.org/2000/svg">
<g clip-path="url(#clip0_1062_13632)">
<path d="M0 21.1304L7.99728 0.429688H11.6186L19.4167 21.1356H15.8688L14.763 18.0908H4.7533L3.62131 21.1356H0V21.1304ZM13.6834 15.1455L9.81056 4.5017L5.85908 15.1455H13.6834Z" fill="white"/>
<path d="M20.8265 0.429768H24.322L32.6757 14.8941V0.403564H36.145V21.1357H32.7228L24.2958 6.57185V21.1357H20.8265V0.429768Z" fill="white"/>
<path d="M39.2684 0.377441H43.1937C51.0442 0.377441 54.4874 5.08358 54.4874 10.7173C54.4874 16.351 51.039 21.1305 43.1937 21.1305H39.2684V0.377441ZM43.571 17.6612C48.6283 17.6612 51.018 14.6426 51.018 10.7173C51.018 6.79204 48.6283 3.82581 43.571 3.82581H42.7168V17.6612H43.571Z" fill="white"/>
<path d="M56.7985 0.403564H61.3789C67.893 0.403564 70.2828 4.20306 70.2828 8.32748C70.2828 10.9426 69.2766 13.4371 67.0126 14.8941L70.4819 21.1357H66.3575L63.9416 16.0784C63.2865 16.178 62.5842 16.2566 61.8034 16.2566H60.2416V21.1619H56.7933V0.403564H56.7985ZM61.9082 12.9078C65.1784 12.9078 66.913 11.0474 66.913 8.32748C66.913 5.60756 65.126 3.77332 61.9082 3.77332H60.2469V12.9078H61.9082Z" fill="white"/>
<path d="M82.6089 21.5078C76.3463 21.5078 71.8393 16.5029 71.8393 10.7382C71.8393 4.97341 76.3463 0 82.6089 0C88.8715 0 93.3523 5.00485 93.3523 10.7434C93.3523 16.4819 88.8506 21.513 82.6089 21.513V21.5078ZM82.6089 18.0646C86.7595 18.0646 89.9039 14.7682 89.9039 10.7434C89.9039 6.71856 86.7595 3.44837 82.6089 3.44837C78.4583 3.44837 75.2877 6.71856 75.2877 10.7434C75.2877 14.7682 78.4321 18.0646 82.6089 18.0646Z" fill="white"/>
<path d="M95.6634 0.429688H99.1328V21.1356H95.6634V0.429688Z" fill="white"/>
<path d="M102.256 0.377441H106.181C114.032 0.377441 117.475 5.08358 117.475 10.7173C117.475 16.351 114.027 21.1305 106.181 21.1305H102.256V0.377441ZM106.559 17.6612C111.616 17.6612 114.006 14.6426 114.006 10.7173C114.006 6.79204 111.616 3.82581 106.559 3.82581H105.705V17.6612H106.559Z" fill="white"/>
<path d="M1.73468 32.8696H5.65995C13.5105 32.8696 16.9536 37.5758 16.9536 43.2095C16.9536 48.8432 13.5053 53.6227 5.65995 53.6227H1.73468V32.8696ZM6.03728 50.1534C11.0945 50.1534 13.4843 47.1348 13.4843 43.2095C13.4843 39.2842 11.0945 36.318 6.03728 36.318H5.18305V50.1534H6.03728Z" fill="white"/>
<path d="M19.27 32.9219H30.6161V36.1921H22.7184V41.5009H29.9662V44.5457H22.7184V50.3314H30.6161V53.6278H19.27V32.9219Z" fill="white"/>
<path d="M31.2659 32.9219H34.9396L40.5524 48.6439L45.987 32.9219H49.6345L42.4129 53.6278H38.6658L31.2712 32.9219H31.2659Z" fill="white"/>
<path d="M51.039 32.9219H62.3851V36.1921H54.4874V41.5009H61.7352V44.5457H54.4874V50.3314H62.3851V53.6278H51.039V32.9219Z" fill="white"/>
<path d="M64.7748 32.8958H68.2232V50.3315H75.1409V53.6279H64.7748V32.8958Z" fill="white"/>
<path d="M85.2764 54.0001C79.0138 54.0001 74.5068 48.9952 74.5068 43.2305C74.5068 37.4657 79.0086 32.4871 85.2764 32.4871C91.5443 32.4871 96.0198 37.4919 96.0198 43.2305C96.0198 48.969 91.5181 54.0001 85.2764 54.0001ZM85.2764 50.5569C89.427 50.5569 92.5714 47.2605 92.5714 43.2357C92.5714 39.2109 89.427 35.9407 85.2764 35.9407C81.1258 35.9407 77.9552 39.2109 77.9552 43.2357C77.9552 47.2605 81.0996 50.5569 85.2764 50.5569Z" fill="white"/>
<path d="M98.3309 32.8958H102.911C109.425 32.8958 111.815 36.6952 111.815 40.8197C111.815 44.9441 109.326 48.7436 103.289 48.7436H101.779V53.6489H98.3309V32.8958ZM103.441 45.4C106.711 45.4 108.445 43.5396 108.445 40.8197C108.445 38.0998 106.658 36.2655 103.441 36.2655H101.779V45.4H103.441Z" fill="white"/>
<path d="M113.927 32.9219H125.273V36.1921H117.376V41.5009H124.623V44.5457H117.376V50.3314H125.273V53.6278H113.927V32.9219Z" fill="white"/>
<path d="M127.663 32.8958H132.243C138.758 32.8958 141.147 36.6952 141.147 40.8197C141.147 43.4348 140.141 45.9293 137.877 47.3862L141.346 53.6279H137.222L134.806 48.5706C134.151 48.6702 133.449 48.7488 132.668 48.7488H131.106V53.6541H127.658V32.901L127.663 32.8958ZM132.767 45.4C136.038 45.4 137.772 43.5396 137.772 40.8197C137.772 38.0998 135.985 36.2655 132.767 36.2655H131.106V45.4H132.767Z" fill="white"/>
</g>
<defs>
<clipPath id="clip0_1062_13632">
<rect width="141.346" height="54" fill="white"/>
</clipPath>
</defs>
</svg>
