<svg width="166" height="73" viewBox="0 0 166 73" fill="none" xmlns="http://www.w3.org/2000/svg">
<g clip-path="url(#clip0_1062_12655)">
<path d="M0 0.54541H6.22304C15.0734 0.54541 18.3202 5.68177 18.3202 11.2574C18.3202 16.833 14.9381 21.9693 6.7357 21.9693H4.68508V28.6005H0V0.54541ZM6.94218 17.4493C11.3852 17.4493 13.742 14.9343 13.742 11.2574C13.742 7.58045 11.314 5.10083 6.94218 5.10083H4.68508V17.4493H6.94218Z" fill="black"/>
<path d="M21.1896 0.54541H27.4127C36.263 0.54541 39.5099 5.68177 39.5099 11.2574C39.5099 14.7926 38.1428 18.1649 35.0669 20.1344L39.7804 28.5722H34.1768L30.8944 21.7355C30.0044 21.8701 29.0503 21.9764 27.9894 21.9764H25.8676V28.6076H21.1825V0.54541H21.1896ZM28.1247 17.4493C32.5677 17.4493 34.9245 14.9343 34.9245 11.2574C34.9245 7.58045 32.4965 5.10083 28.1247 5.10083H25.8676V17.4493H28.1247Z" fill="black"/>
<path d="M56.2566 29.0753C47.748 29.0753 41.6246 22.3095 41.6246 14.5164C41.6246 6.72331 47.748 0 56.2566 0C64.7652 0 70.853 6.76582 70.853 14.5235C70.853 22.2812 64.7368 29.0824 56.2566 29.0824V29.0753ZM56.2566 24.4207C61.8958 24.4207 66.1679 19.9645 66.1679 14.5235C66.1679 9.08249 61.8958 4.66168 56.2566 4.66168C50.6174 4.66168 46.3097 9.08249 46.3097 14.5235C46.3097 19.9645 50.5818 24.4207 56.2566 24.4207Z" fill="black"/>
<path d="M73.9929 0.51001H79.3259C89.992 0.51001 94.6699 6.87201 94.6699 14.488C94.6699 22.104 89.9849 28.5651 79.3259 28.5651H73.9929V0.51001ZM79.8386 23.8751C86.7096 23.8751 89.9564 19.7944 89.9564 14.488C89.9564 9.18159 86.7096 5.17169 79.8386 5.17169H78.678V23.8751H79.8386Z" fill="black"/>
<path d="M97.575 17.8888V0.581055H102.26V18.0305C102.26 21.6011 103.698 24.4917 107.593 24.4917C111.488 24.4917 112.962 21.6011 112.962 18.0305V0.581055H117.647V17.8888C117.647 24.4492 114.023 29.0117 107.6 29.0117C101.178 29.0117 97.5892 24.4208 97.5892 17.8888H97.575Z" fill="black"/>
<path d="M120.509 14.5518C120.509 6.76582 126.903 0 135.141 0C142.731 0 148.983 5.8519 149.702 12.8869H144.953C144.269 8.36695 140.204 4.6546 135.141 4.6546C129.431 4.6546 125.194 9.28086 125.194 14.5518C125.194 19.8228 129.431 24.4136 135.141 24.4136C140.303 24.4136 144.333 20.6729 144.953 16.0821H149.702C149.09 23.188 142.76 29.0753 135.141 29.0753C126.903 29.0753 120.509 22.3449 120.509 14.5518Z" fill="black"/>
<path d="M155.163 4.96624H149.011V0.51001H166V4.96624H159.848V28.5722H155.163V4.96624Z" fill="black"/>
<path d="M0 44.4348H5.33302C15.9991 44.4348 20.677 50.7968 20.677 58.4128C20.677 66.0288 15.9919 72.4899 5.33302 72.4899H0V44.4348ZM5.84567 67.7999C12.7167 67.7999 15.9635 63.7192 15.9635 58.4128C15.9635 53.1064 12.7167 49.0965 5.84567 49.0965H4.68508V67.7999H5.84567Z" fill="black"/>
<path d="M23.8241 44.5056H39.2393V48.9264H28.5092V56.1032H38.3564V60.2193H28.5092V68.0408H39.2393V72.497H23.8241V44.5056Z" fill="black"/>
<path d="M40.6704 63.4427H45.2843C45.3555 66.4041 47.1285 68.6783 50.4465 68.6783C53.3871 68.6783 55.3309 66.9071 55.3309 64.4275C55.3309 61.5016 52.9029 60.6868 49.4852 59.5604C45.0066 58.1009 41.9663 55.9543 41.9663 51.4697C41.9663 47.2544 45.5193 43.8821 50.3753 43.8821C55.6727 43.8821 58.9551 47.3535 58.9907 52.5537L54.4765 52.4828C54.4409 49.9324 53.0738 48.1329 50.3753 48.1329C48.0541 48.1329 46.5802 49.564 46.5802 51.5335C46.5802 53.9493 48.5596 54.6932 51.1585 55.5788C55.7724 57.1445 60.0801 58.5685 60.0801 64.4913C60.0801 69.6276 55.9788 72.9574 50.4393 72.9574C44.5581 72.9574 40.6989 69.0113 40.6633 63.4357L40.6704 63.4427Z" fill="black"/>
<path d="M62.8855 44.5056H67.5991V72.497H62.8855V44.5056Z" fill="black"/>
<path d="M70.6108 58.4483C70.6108 50.6977 76.7271 43.9248 85.2428 43.9248C92.2491 43.9248 97.6818 48.6148 99.2553 54.6013H93.8867C92.7261 51.0944 89.3084 48.5794 85.2357 48.5794C79.39 48.5794 75.2247 53.0356 75.2247 58.512C75.2247 63.9885 79.3615 68.4447 85.2072 68.4447C89.4437 68.4447 93.1035 65.7242 94.2285 61.9127H83.3916V57.7965H99.7324C100.209 65.8588 93.8867 73.0001 85.2428 73.0001C76.5989 73.0001 70.6108 66.2343 70.6108 58.4412V58.4483Z" fill="black"/>
<path d="M102.908 44.5056H107.657L119.007 64.0592V44.4702H123.72V72.497H119.071L107.622 52.8088V72.497H102.908V44.5056Z" fill="black"/>
<path d="M127.957 44.5056H143.372V48.9264H132.642V56.1032H142.489V60.2193H132.642V68.0408H143.372V72.497H127.957V44.5056Z" fill="black"/>
<path d="M146.619 44.4702H152.842C161.692 44.4702 164.939 49.6066 164.939 55.1822C164.939 58.7174 163.572 62.0897 160.496 64.0592L165.21 72.497H159.606L156.324 65.6603C155.434 65.7949 154.479 65.9012 153.419 65.9012H151.297V72.5324H146.612V44.4773L146.619 44.4702ZM153.554 61.3741C157.997 61.3741 160.354 58.8591 160.354 55.1822C160.354 51.5052 157.926 49.0256 153.554 49.0256H151.297V61.3741H153.554Z" fill="black"/>
</g>
<defs>
<clipPath id="clip0_1062_12655">
<rect width="166" height="73" fill="white"/>
</clipPath>
</defs>
</svg>
