<svg width="83" height="83" viewBox="0 0 83 83" fill="none" xmlns="http://www.w3.org/2000/svg">
<path d="M41.5032 81.814C30.9587 81.814 21.3226 75.6893 16.8316 66.1752C7.31415 61.6843 1.19287 52.0482 1.19287 41.5037C1.19287 30.9592 7.31754 21.3231 16.8316 16.8321C21.3226 7.31464 30.9587 1.19336 41.5032 1.19336C52.0477 1.19336 61.6838 7.31803 66.1748 16.8321C75.6922 21.3231 81.8135 30.9592 81.8135 41.5037C81.8135 52.0482 75.6888 61.6843 66.1748 66.1752C61.6838 75.6927 52.0477 81.814 41.5032 81.814Z" fill="white"/>
<path d="M41.5 2.37259C52.0784 2.37259 61.1857 8.67013 65.2801 17.7199C74.3299 21.8143 80.6274 30.9216 80.6274 41.5C80.6274 52.0784 74.3299 61.1857 65.2801 65.2802C61.1857 74.3299 52.0784 80.6274 41.5 80.6274C30.9216 80.6274 21.8143 74.3299 17.7199 65.2802C8.67012 61.1857 2.37259 52.0784 2.37259 41.5C2.37259 30.9216 8.67012 21.8143 17.7199 17.7199C21.8143 8.67013 30.9216 2.37259 41.5 2.37259ZM41.5 0C30.6369 0 20.7025 6.22636 15.937 15.937C6.22635 20.6992 0 30.6369 0 41.5C0 52.3631 6.22635 62.2975 15.937 67.063C20.6992 76.7737 30.6369 83 41.5 83C52.3631 83 62.2975 76.7737 67.063 67.063C76.7737 62.3008 83 52.3631 83 41.5C83 30.6369 76.7737 20.7026 67.063 15.937C62.3008 6.22636 52.3631 0 41.5 0Z" fill="black"/>
<path d="M50.1122 3.81694C47.4278 2.88146 44.54 2.37305 41.537 2.37305C30.9586 2.37305 21.8512 8.67058 17.7568 17.7203C17.0417 18.0423 16.3468 18.4016 15.6689 18.7846L41.537 41.5005L50.1122 3.81694Z" fill="#F4F4F4"/>
<path d="M40.1878 8.71414H39.5234V8.30402C39.9776 8.27013 40.2488 8.0871 40.364 7.87695H40.7741V11.7544H40.1878V8.71414Z" fill="black"/>
<path d="M41.3418 10.879V8.75045C41.3418 8.19797 41.7112 7.81836 42.2671 7.81836C42.8229 7.81836 43.1856 8.19458 43.1856 8.75045V8.87925H42.6196V8.72333C42.6196 8.51319 42.4806 8.37422 42.2705 8.37422C42.0603 8.37422 41.9281 8.51319 41.9281 8.72333V9.61136C42.0163 9.46901 42.2095 9.33343 42.4976 9.33343C42.945 9.33343 43.2127 9.64525 43.2127 10.1266V10.879C43.2127 11.4315 42.8365 11.8111 42.2806 11.8111C41.7248 11.8111 41.3384 11.4349 41.3384 10.879H41.3418ZM42.6264 10.9061V10.2147C42.6264 9.97742 42.5043 9.86557 42.3044 9.86557C42.0705 9.86557 41.9281 10.0079 41.9281 10.252V10.9061C41.9281 11.1163 42.0603 11.2552 42.284 11.2552C42.5077 11.2552 42.6264 11.1163 42.6264 10.9061Z" fill="black"/>
<path d="M8.2532 42.6625V43.3269H7.84308C7.80918 42.8727 7.62616 42.6015 7.41602 42.4863V42.0762H11.2935V42.6625H8.2532Z" fill="black"/>
<path d="M10.7411 40.9009V39.7383H11.2936V41.5991H10.7852L9.41583 40.7415C8.90741 40.4196 8.63965 40.3247 8.34138 40.3247C8.07022 40.3247 7.92109 40.4534 7.92109 40.6805C7.92109 40.9076 8.07022 41.0364 8.34138 41.0364H8.56847V41.6025H8.38544C7.75501 41.6025 7.36523 41.2601 7.36523 40.6772C7.36523 40.0942 7.72451 39.7417 8.32443 39.7417C8.74472 39.7417 9.08706 39.8705 9.7141 40.2636L10.7377 40.9076L10.7411 40.9009Z" fill="black"/>
<path d="M40.5278 73.2043V72.845C40.5278 72.2586 40.8769 71.8926 41.504 71.8926C42.131 71.8926 42.4801 72.2586 42.4801 72.845V73.2043C42.4801 73.5703 42.3242 73.8313 42.0497 73.9635C42.3005 74.1025 42.4429 74.3567 42.4429 74.7126V74.9668C42.4429 75.526 42.1039 75.8819 41.5074 75.8819C40.9108 75.8819 40.5719 75.526 40.5719 74.9668V74.7126C40.5719 74.3567 40.7176 74.1025 40.9651 73.9635C40.6871 73.8313 40.5346 73.5703 40.5346 73.2043H40.5278ZM41.1142 73.2382C41.1142 73.55 41.2464 73.6822 41.5006 73.6822C41.7548 73.6822 41.887 73.55 41.887 73.2382V72.8348C41.887 72.5806 41.7548 72.4484 41.5006 72.4484C41.2464 72.4484 41.1142 72.5806 41.1142 72.8348V73.2382ZM41.8497 74.6787C41.8497 74.3669 41.7175 74.2347 41.5006 74.2347C41.2837 74.2347 41.1515 74.3669 41.1515 74.6787V74.9769C41.1515 75.204 41.2735 75.3261 41.5006 75.3261C41.7277 75.3261 41.8497 75.204 41.8497 74.9769V74.6787Z" fill="black"/>
<path d="M73.3462 42.5316V42.2164H72.5361V41.63H73.3462V40.4844H73.8716L76.4136 41.5215V42.2198H73.8987V42.535H73.3462V42.5316ZM73.8987 41.63H75.4205L73.8987 41.0368V41.63Z" fill="black"/>
<path d="M41.5023 5.84337C41.9627 5.84337 42.336 5.47007 42.336 5.00958C42.336 4.54908 41.9627 4.17578 41.5023 4.17578C41.0418 4.17578 40.6685 4.54908 40.6685 5.00958C40.6685 5.47007 41.0418 5.84337 41.5023 5.84337Z" fill="black"/>
<path d="M41.5023 79.2516C41.9627 79.2516 42.336 78.8783 42.336 78.4178C42.336 77.9573 41.9627 77.584 41.5023 77.584C41.0418 77.584 40.6685 77.9573 40.6685 78.4178C40.6685 78.8783 41.0418 79.2516 41.5023 79.2516Z" fill="black"/>
<path d="M78.2039 42.5485C78.6644 42.5485 79.0377 42.1751 79.0377 41.7147C79.0377 41.2542 78.6644 40.8809 78.2039 40.8809C77.7434 40.8809 77.3701 41.2542 77.3701 41.7147C77.3701 42.1751 77.7434 42.5485 78.2039 42.5485Z" fill="black"/>
<path d="M4.8006 42.5465C5.26109 42.5465 5.63439 42.1732 5.63439 41.7127C5.63439 41.2522 5.26109 40.8789 4.8006 40.8789C4.34011 40.8789 3.9668 41.2522 3.9668 41.7127C3.9668 42.1732 4.34011 42.5465 4.8006 42.5465Z" fill="black"/>
</svg>
