<svg width="306" height="336" viewBox="0 0 306 336" fill="none" xmlns="http://www.w3.org/2000/svg">
<rect width="306" height="336" fill="#48A4FF"/>
<g clip-path="url(#clip0_1469_9197)">
<path d="M32 40.5454H38.223C47.0734 40.5454 50.3202 45.6818 50.3202 51.2574C50.3202 56.833 46.9381 61.9693 38.7357 61.9693H36.6851V68.6005H32V40.5454ZM38.9422 57.4493C43.3852 57.4493 45.742 54.9343 45.742 51.2574C45.742 47.5804 43.314 45.1008 38.9422 45.1008H36.6851V57.4493H38.9422Z" fill="black"/>
<path d="M53.1896 40.5454H59.4127C68.263 40.5454 71.5099 45.6818 71.5099 51.2574C71.5099 54.7926 70.1428 58.1649 67.0669 60.1344L71.7804 68.5722H66.1768L62.8944 61.7355C62.0044 61.8701 61.0503 61.9764 59.9894 61.9764H57.8676V68.6076H53.1825V40.5454H53.1896ZM60.1247 57.4493C64.5677 57.4493 66.9245 54.9343 66.9245 51.2574C66.9245 47.5804 64.4965 45.1008 60.1247 45.1008H57.8676V57.4493H60.1247Z" fill="black"/>
<path d="M88.2566 69.0753C79.748 69.0753 73.6246 62.3095 73.6246 54.5164C73.6246 46.7233 79.748 40 88.2566 40C96.7652 40 102.853 46.7658 102.853 54.5235C102.853 62.2812 96.7368 69.0824 88.2566 69.0824V69.0753ZM88.2566 64.4207C93.8958 64.4207 98.1679 59.9645 98.1679 54.5235C98.1679 49.0825 93.8958 44.6617 88.2566 44.6617C82.6174 44.6617 78.3097 49.0825 78.3097 54.5235C78.3097 59.9645 82.5818 64.4207 88.2566 64.4207Z" fill="black"/>
<path d="M105.993 40.51H111.326C121.992 40.51 126.67 46.872 126.67 54.488C126.67 62.104 121.985 68.5651 111.326 68.5651H105.993V40.51ZM111.839 63.8751C118.71 63.8751 121.956 59.7944 121.956 54.488C121.956 49.1816 118.71 45.1717 111.839 45.1717H110.678V63.8751H111.839Z" fill="black"/>
<path d="M129.575 57.8888V40.5811H134.26V58.0305C134.26 61.6011 135.698 64.4917 139.593 64.4917C143.488 64.4917 144.962 61.6011 144.962 58.0305V40.5811H149.647V57.8888C149.647 64.4492 146.023 69.0117 139.6 69.0117C133.178 69.0117 129.589 64.4208 129.589 57.8888H129.575Z" fill="black"/>
<path d="M152.509 54.5518C152.509 46.7658 158.903 40 167.141 40C174.731 40 180.983 45.8519 181.702 52.8869H176.953C176.269 48.3669 172.204 44.6546 167.141 44.6546C161.431 44.6546 157.194 49.2809 157.194 54.5518C157.194 59.8228 161.431 64.4136 167.141 64.4136C172.303 64.4136 176.333 60.6729 176.953 56.0821H181.702C181.09 63.188 174.76 69.0753 167.141 69.0753C158.903 69.0753 152.509 62.3449 152.509 54.5518Z" fill="black"/>
<path d="M187.163 44.9662H181.011V40.51H198V44.9662H191.848V68.5722H187.163V44.9662Z" fill="black"/>
<path d="M32 84.4348H37.333C47.9991 84.4348 52.677 90.7968 52.677 98.4128C52.677 106.029 47.9919 112.49 37.333 112.49H32V84.4348ZM37.8457 107.8C44.7167 107.8 47.9635 103.719 47.9635 98.4128C47.9635 93.1064 44.7167 89.0965 37.8457 89.0965H36.6851V107.8H37.8457Z" fill="black"/>
<path d="M55.8241 84.5056H71.2393V88.9264H60.5092V96.1032H70.3564V100.219H60.5092V108.041H71.2393V112.497H55.8241V84.5056Z" fill="black"/>
<path d="M72.6704 103.443H77.2843C77.3555 106.404 79.1285 108.678 82.4465 108.678C85.3871 108.678 87.3309 106.907 87.3309 104.428C87.3309 101.502 84.9029 100.687 81.4852 99.5604C77.0066 98.1009 73.9663 95.9543 73.9663 91.4697C73.9663 87.2544 77.5193 83.8821 82.3753 83.8821C87.6727 83.8821 90.9551 87.3535 90.9907 92.5537L86.4765 92.4828C86.4409 89.9324 85.0738 88.1329 82.3753 88.1329C80.0541 88.1329 78.5802 89.564 78.5802 91.5335C78.5802 93.9493 80.5596 94.6932 83.1585 95.5788C87.7724 97.1445 92.0801 98.5685 92.0801 104.491C92.0801 109.628 87.9788 112.957 82.4393 112.957C76.5581 112.957 72.6989 109.011 72.6633 103.436L72.6704 103.443Z" fill="black"/>
<path d="M94.8855 84.5056H99.5991V112.497H94.8855V84.5056Z" fill="black"/>
<path d="M102.611 98.4483C102.611 90.6977 108.727 83.9248 117.243 83.9248C124.249 83.9248 129.682 88.6148 131.255 94.6013H125.887C124.726 91.0944 121.308 88.5794 117.236 88.5794C111.39 88.5794 107.225 93.0356 107.225 98.512C107.225 103.988 111.362 108.445 117.207 108.445C121.444 108.445 125.104 105.724 126.228 101.913H115.392V97.7965H131.732C132.209 105.859 125.887 113 117.243 113C108.599 113 102.611 106.234 102.611 98.4412V98.4483Z" fill="black"/>
<path d="M134.908 84.5056H139.657L151.007 104.059V84.4702H155.72V112.497H151.071L139.622 92.8088V112.497H134.908V84.5056Z" fill="black"/>
<path d="M159.957 84.5056H175.372V88.9264H164.642V96.1032H174.489V100.219H164.642V108.041H175.372V112.497H159.957V84.5056Z" fill="black"/>
<path d="M178.619 84.4702H184.842C193.692 84.4702 196.939 89.6066 196.939 95.1822C196.939 98.7174 195.572 102.09 192.496 104.059L197.21 112.497H191.606L188.324 105.66C187.434 105.795 186.479 105.901 185.419 105.901H183.297V112.532H178.612V84.4773L178.619 84.4702ZM185.554 101.374C189.997 101.374 192.354 98.8591 192.354 95.1822C192.354 91.5052 189.926 89.0256 185.554 89.0256H183.297V101.374H185.554Z" fill="black"/>
</g>
<path d="M41.8643 141.704V153.104H40.6582V141.704H41.8643ZM38.3857 142.732V146.884H34.2979V149.372C36.1387 149.366 37.751 149.283 39.6553 148.966L39.7695 149.956C37.751 150.299 36.0371 150.375 34.0312 150.375H33.0664V145.919H37.1543V143.71H33.0537V142.732H38.3857ZM47.6249 144.599C47.6249 146.681 48.7929 148.75 50.5321 149.537L49.7958 150.502C48.5009 149.854 47.5297 148.566 47.0282 147.011C46.5267 148.648 45.5302 150.032 44.2225 150.718L43.4608 149.74C45.2255 148.902 46.4061 146.706 46.4061 144.599V142.656H47.6249V144.599ZM53.0077 141.704V153.104H51.8143V146.465H49.2753V145.487H51.8143V141.704H53.0077ZM64.0496 141.704V153.079H62.8435V141.704H64.0496ZM58.908 145.36C58.908 147.176 60.114 149.029 61.8787 149.778L61.2185 150.705C59.9109 150.134 58.8635 148.953 58.3367 147.519C57.8225 149.036 56.7942 150.299 55.4675 150.896L54.7947 149.969C56.5593 149.182 57.7273 147.265 57.7273 145.36V144.611H55.1375V143.646H57.7146V141.933H58.908V143.646H61.4597V144.611H58.908V145.36Z" fill="black"/>
<path d="M68.62 147.664C68.068 147.664 67.612 147.208 67.612 146.656C67.612 146.104 68.068 145.648 68.62 145.648C69.172 145.648 69.628 146.104 69.628 146.656C69.628 147.208 69.172 147.664 68.62 147.664Z" fill="black"/>
<path d="M78.8428 142.809H80.2393V148.852C80.2393 150.781 78.792 152.152 76.5957 152.152C74.374 152.152 72.9395 150.781 72.9395 148.852V142.809H74.3359V148.737C74.3359 149.981 75.1992 150.883 76.5957 150.883C77.9795 150.883 78.8428 149.981 78.8428 148.737V142.809ZM82.9657 142.809L85.1493 146.389H85.2255L87.4218 142.809H89.0341L86.1649 147.404L89.0595 152H87.4218L85.2255 148.458H85.1493L82.9403 152H81.3153L84.2479 147.404L81.328 142.809H82.9657Z" fill="black"/>
<path d="M92.62 147.664C92.068 147.664 91.612 147.208 91.612 146.656C91.612 146.104 92.068 145.648 92.62 145.648C93.172 145.648 93.628 146.104 93.628 146.656C93.628 147.208 93.172 147.664 92.62 147.664Z" fill="black"/>
<path d="M102.843 142.809H104.239V148.852C104.239 150.781 102.792 152.152 100.596 152.152C98.374 152.152 96.9395 150.781 96.9395 148.852V142.809H98.3359V148.737C98.3359 149.981 99.1992 150.883 100.596 150.883C101.979 150.883 102.843 149.981 102.843 148.737V142.809ZM107.385 142.809V152H105.988V142.809H107.385Z" fill="black"/>
<path d="M111.62 147.664C111.068 147.664 110.612 147.208 110.612 146.656C110.612 146.104 111.068 145.648 111.62 145.648C112.172 145.648 112.628 146.104 112.628 146.656C112.628 147.208 112.172 147.664 111.62 147.664Z" fill="black"/>
<path d="M124.839 141.704V153.104H123.633V141.704H124.839ZM121.589 142.758V143.761H117.361V149.283C119.52 149.277 120.897 149.22 122.503 148.928L122.63 149.931C120.929 150.235 119.443 150.312 117.082 150.312H116.143V142.758H121.589ZM130.485 145.056C130.485 146.858 131.666 148.864 133.392 149.677L132.707 150.616C131.431 150 130.422 148.718 129.914 147.227C129.387 148.858 128.321 150.261 127.019 150.908L126.308 149.956C128.035 149.131 129.292 146.985 129.292 145.056V143.85H126.727V142.847H132.961V143.85H130.485V145.056ZM135.386 141.704V146.211H137.214V147.227H135.386V153.079H134.18V141.704H135.386ZM147.062 141.717V149.981H145.856V141.717H147.062ZM147.405 151.86V152.838H139.623V149.144H140.842V151.86H147.405ZM140.892 142.479C142.606 142.479 143.914 143.646 143.914 145.297C143.914 146.973 142.606 148.128 140.892 148.128C139.178 148.128 137.858 146.973 137.858 145.297C137.858 143.646 139.178 142.479 140.892 142.479ZM140.892 143.532C139.826 143.532 139.039 144.256 139.039 145.297C139.039 146.363 139.826 147.074 140.892 147.074C141.933 147.074 142.733 146.363 142.733 145.297C142.733 144.256 141.933 143.532 140.892 143.532ZM152.912 144.599C152.899 146.681 154.156 148.763 155.921 149.55L155.197 150.502C153.889 149.88 152.855 148.604 152.328 147.049C151.795 148.712 150.747 150.089 149.382 150.756L148.646 149.74C150.436 148.94 151.693 146.77 151.693 144.599V142.656H152.912V144.599ZM158.155 141.704V153.104H156.949V141.704H158.155ZM165.617 143.316C165.617 145.17 167.597 146.922 169.781 147.315L169.222 148.318C167.407 147.925 165.731 146.731 164.995 145.132C164.246 146.719 162.576 147.912 160.754 148.318L160.221 147.315C162.379 146.909 164.347 145.17 164.347 143.316V142.453H165.617V143.316ZM170.251 150.578V151.581H159.84V150.578H170.251ZM175.653 142.428V143.418H172.479V144.649H175.208V145.589H172.479V146.947C173.977 146.935 174.973 146.877 176.135 146.668L176.249 147.62C174.942 147.861 173.863 147.912 172.06 147.912H171.324V142.428H175.653ZM180.515 141.704V148.534H179.372V141.704H180.515ZM178.281 141.895V148.445H177.138V145.5H175.729V144.522H177.138V141.895H178.281ZM180.515 149.042V152.939H172.91V149.042H180.515ZM174.116 149.994V151.962H179.334V149.994H174.116Z" fill="black"/>
<path d="M39.2461 278.102C39.2461 280.992 40.9453 284.039 43.7969 285.23L42.6055 286.949C40.5156 286.051 38.9922 284.195 38.1914 281.949C37.3711 284.371 35.8281 286.402 33.7578 287.379L32.5078 285.68C35.3008 284.391 37.0391 281.109 37.0391 278.102V276.617H33.1523V274.82H43.1133V276.617H39.2461V278.102ZM47.2734 273.082V290.738H45.0859V273.082H47.2734ZM63.8758 273.102V286.461H61.6883V284.918H58.2313V283.395H61.6883V273.102H63.8758ZM64.2859 288.629V290.387H51.3367V285.172H53.5047V288.629H64.2859ZM48.993 281.031C52.2547 281.012 56.6297 280.973 60.3797 280.504L60.4969 282.066C59.0418 282.311 57.5379 282.477 56.0438 282.574V285.973H53.8758V282.691C52.2254 282.76 50.6531 282.77 49.2664 282.77L48.993 281.031ZM54.7547 273.746C57.3328 273.746 59.1297 275.016 59.1492 276.871C59.1297 278.766 57.3328 279.977 54.7547 279.977C52.1375 279.977 50.3406 278.766 50.3406 276.871C50.3406 275.016 52.1375 273.746 54.7547 273.746ZM54.7547 275.348C53.3484 275.348 52.3914 275.914 52.3914 276.871C52.3914 277.828 53.3484 278.395 54.7547 278.395C56.1023 278.395 57.0594 277.828 57.0789 276.871C57.0594 275.914 56.1023 275.348 54.7547 275.348ZM79.3844 273.082V280.113H82.0992V281.91H79.3844V290.738H77.2359V273.082H79.3844ZM75.8688 275.797V277.535H65.4586V275.797H69.6383V273.336H71.8063V275.797H75.8688ZM70.732 278.688C73.2711 278.688 75.1656 280.406 75.1656 282.848C75.1656 285.289 73.2711 286.988 70.732 286.988C68.1539 286.988 66.2594 285.289 66.2789 282.848C66.2594 280.406 68.1539 278.688 70.732 278.688ZM70.732 280.465C69.3453 280.465 68.3492 281.402 68.3492 282.848C68.3492 284.293 69.3453 285.211 70.732 285.191C72.0797 285.211 73.0758 284.293 73.0953 282.848C73.0758 281.402 72.0797 280.465 70.732 280.465ZM96.7875 273.082V290.738H94.6V273.082H96.7875ZM91.5141 274.957C91.5141 280.211 89.4828 284.684 83.2914 287.613L82.1586 285.875C86.7777 283.678 88.9262 280.689 89.307 276.676H83.057V274.957H91.5141Z" fill="black"/>
<circle cx="119" cy="282" r="12" fill="black"/>
<path d="M121.838 281.03C121.366 280.678 120.86 280.221 120.319 279.658C119.791 279.096 119.32 278.533 118.904 277.97L120.61 277C121.082 277.619 121.616 278.238 122.212 278.857C122.809 279.461 123.433 280.038 124.085 280.586C124.737 281.121 125.376 281.592 126 282C125.376 282.408 124.737 282.886 124.085 283.435C123.433 283.969 122.809 284.546 122.212 285.165C121.616 285.769 121.082 286.381 120.61 287L118.904 286.03C119.32 285.453 119.791 284.89 120.319 284.342C120.86 283.779 121.366 283.322 121.838 282.97H112V281.03H121.838Z" fill="white"/>
<defs>
<clipPath id="clip0_1469_9197">
<rect width="166" height="73" fill="white" transform="translate(32 40)"/>
</clipPath>
</defs>
</svg>
