<svg width="123" height="54" viewBox="0 0 123 54" fill="none" xmlns="http://www.w3.org/2000/svg">
<g clip-path="url(#clip0_1062_12838)">
<path d="M0 0.403564H4.61105C11.1689 0.403564 13.5746 4.20306 13.5746 8.32748C13.5746 12.4519 11.0686 16.2514 4.99091 16.2514H3.47148V21.1567H0V0.403564ZM5.1439 12.9078C8.436 12.9078 10.1823 11.0474 10.1823 8.32748C10.1823 5.60756 8.38325 3.77332 5.1439 3.77332H3.47148V12.9078H5.1439Z" fill="white"/>
<path d="M15.7008 0.403564H20.3119C26.8697 0.403564 29.2755 4.20306 29.2755 8.32748C29.2755 10.9426 28.2625 13.4371 25.9834 14.8941L29.4759 21.1357H25.3239L22.8917 16.0784C22.2323 16.178 21.5253 16.2566 20.7392 16.2566H19.167V21.1619H15.6956V0.403564H15.7008ZM20.8395 12.9078C24.1316 12.9078 25.8778 11.0474 25.8778 8.32748C25.8778 5.60756 24.0788 3.77332 20.8395 3.77332H19.167V12.9078H20.8395Z" fill="white"/>
<path d="M41.6841 21.5078C35.3795 21.5078 30.8423 16.5029 30.8423 10.7382C30.8423 4.97341 35.3795 0 41.6841 0C47.9886 0 52.4994 5.00485 52.4994 10.7434C52.4994 16.4819 47.9675 21.513 41.6841 21.513V21.5078ZM41.6841 18.0646C45.8625 18.0646 49.028 14.7682 49.028 10.7434C49.028 6.71856 45.8625 3.44837 41.6841 3.44837C37.5056 3.44837 34.3138 6.71856 34.3138 10.7434C34.3138 14.7682 37.4792 18.0646 41.6841 18.0646Z" fill="white"/>
<path d="M54.8261 0.377441H58.7777C66.6808 0.377441 70.147 5.08358 70.147 10.7173C70.147 16.351 66.6756 21.1305 58.7777 21.1305H54.8261V0.377441ZM59.1575 17.6612C64.2487 17.6612 66.6545 14.6426 66.6545 10.7173C66.6545 6.79204 64.2487 3.82581 59.1575 3.82581H58.2976V17.6612H59.1575Z" fill="white"/>
<path d="M72.2996 13.2327V0.429688H75.771V13.3375C75.771 15.9788 76.8368 18.117 79.7226 18.117C82.6085 18.117 83.7006 15.9788 83.7006 13.3375V0.429688H87.172V13.2327C87.172 18.0856 84.4867 21.4606 79.7279 21.4606C74.9691 21.4606 72.3101 18.0646 72.3101 13.2327H72.2996Z" fill="white"/>
<path d="M89.2929 10.7644C89.2929 5.00485 94.0306 0 100.135 0C105.759 0 110.391 4.3288 110.924 9.5328H107.405C106.898 6.18925 103.886 3.44313 100.135 3.44313C95.9035 3.44313 92.7644 6.8653 92.7644 10.7644C92.7644 14.6634 95.9035 18.0594 100.135 18.0594C103.96 18.0594 106.946 15.2923 107.405 11.8964H110.924C110.47 17.1528 105.78 21.5078 100.135 21.5078C94.0306 21.5078 89.2929 16.5291 89.2929 10.7644Z" fill="white"/>
<path d="M114.97 3.67383H110.412V0.377441H123V3.67383H118.442V21.1358H114.97V3.67383Z" fill="white"/>
<path d="M0 32.8696H3.95157C11.8547 32.8696 15.3209 37.5758 15.3209 43.2095C15.3209 48.8432 11.8494 53.6227 3.95157 53.6227H0V32.8696ZM4.33143 50.1534C9.42258 50.1534 11.8283 47.1348 11.8283 43.2095C11.8283 39.2842 9.42258 36.318 4.33143 36.318H3.47148V50.1534H4.33143Z" fill="white"/>
<path d="M17.6528 32.9219H29.0749V36.1921H21.1243V41.5009H28.4207V44.5457H21.1243V50.3314H29.0749V53.6278H17.6528V32.9219Z" fill="white"/>
<path d="M30.1354 46.9302H33.5541C33.6069 49.1208 34.9206 50.8031 37.3791 50.8031C39.558 50.8031 40.9983 49.4929 40.9983 47.6587C40.9983 45.4943 39.1992 44.8916 36.6668 44.0583C33.3484 42.9787 31.0956 41.3908 31.0956 38.0735C31.0956 34.9553 33.7282 32.4607 37.3263 32.4607C41.2515 32.4607 43.6837 35.0286 43.71 38.8753L40.3652 38.8229C40.3388 36.9362 39.3258 35.6051 37.3263 35.6051C35.6064 35.6051 34.5143 36.6637 34.5143 38.1206C34.5143 39.9077 35.981 40.458 37.9067 41.1131C41.3254 42.2712 44.5172 43.3246 44.5172 47.7058C44.5172 51.5053 41.4784 53.9685 37.3738 53.9685C33.016 53.9685 30.1565 51.0494 30.1301 46.925L30.1354 46.9302Z" fill="white"/>
<path d="M46.5958 32.9219H50.0884V53.6278H46.5958V32.9219Z" fill="white"/>
<path d="M52.3201 43.2356C52.3201 37.5023 56.852 32.4922 63.1618 32.4922C68.3532 32.4922 72.3787 35.9615 73.5446 40.3899H69.5667C68.7067 37.7958 66.1743 35.9353 63.1566 35.9353C58.8251 35.9353 55.7388 39.2317 55.7388 43.2828C55.7388 47.3338 58.804 50.6302 63.1355 50.6302C66.2746 50.6302 68.9863 48.6178 69.8199 45.7983H61.7901V42.7534H73.8981C74.2516 48.7173 69.5667 54 63.1618 54C56.757 54 52.3201 48.9951 52.3201 43.2303V43.2356Z" fill="white"/>
<path d="M76.2512 32.922H79.7701L88.1797 47.3862V32.8958H91.6723V53.6279H88.2272L79.7437 39.064V53.6279H76.2512V32.922Z" fill="white"/>
<path d="M94.8114 32.9219H106.234V36.1921H98.2829V41.5009H105.579V44.5457H98.2829V50.3314H106.234V53.6278H94.8114V32.9219Z" fill="white"/>
<path d="M108.639 32.8958H113.25C119.808 32.8958 122.214 36.6952 122.214 40.8197C122.214 43.4348 121.201 45.9293 118.922 47.3862L122.414 53.6279H118.262L115.83 48.5706C115.171 48.6702 114.464 48.7488 113.678 48.7488H112.106V53.6541H108.634V32.901L108.639 32.8958ZM113.778 45.4C117.07 45.4 118.816 43.5396 118.816 40.8197C118.816 38.0998 117.017 36.2655 113.778 36.2655H112.106V45.4H113.778Z" fill="white"/>
</g>
<defs>
<clipPath id="clip0_1062_12838">
<rect width="123" height="54" fill="white"/>
</clipPath>
</defs>
</svg>
