<svg width="270" height="329" viewBox="0 0 270 329" fill="none" xmlns="http://www.w3.org/2000/svg">
<path d="M23.365 1.36523H39.8696C49.913 1.36523 56.3742 7.9363 56.3742 17.9797V54.3734C56.3742 64.4168 49.913 70.9879 39.8696 70.9879H23.365V1.36523ZM39.3861 61.0543C43.4738 61.0543 45.8473 58.6589 45.8473 54.5932V17.7819C45.8473 13.6942 43.4518 11.3207 39.3861 11.3207H33.9138V61.0543H39.3861Z" fill="black"/>
<path d="M66.9202 1.36523H96.8527V11.3207H77.4472V30.7263H92.8529V40.6818H77.4472V61.0763H96.8527V71.0318H66.9202V1.40918V1.36523Z" fill="black"/>
<path d="M103.334 54.879V52.3957L113.488 51.2968V53.8901C113.488 58.9667 116.081 62.0435 120.257 62.0435C124.432 62.0435 127.025 59.4502 127.025 55.3845C127.025 51.0111 125.245 47.8245 117.378 40.3743C106.939 30.5287 103.95 25.1663 103.95 17.4964C103.95 7.14533 109.927 0.398438 119.971 0.398438C130.014 0.398438 135.992 7.16731 135.992 17.6063V19.4084L125.839 20.5073V18.5074C125.839 13.145 123.751 10.3539 120.081 10.3539C116.411 10.3539 114.323 12.6395 114.323 17.0129C114.323 21.3863 116.52 24.573 123.971 32.0231C134.124 42.1764 137.399 47.2311 137.399 54.901C137.399 64.8565 130.432 71.999 120.388 71.999C110.345 71.999 103.378 64.8345 103.378 54.901L103.334 54.879Z" fill="black"/>
<path d="M146.309 1.36523H156.858V70.9879H146.309V1.36523Z" fill="black"/>
<path d="M190.759 23.057V17.1892C190.759 12.8158 188.276 10.3325 184.386 10.3325C180.496 10.3325 178.012 12.8158 178.012 17.1892V55.1872C178.012 59.5606 180.496 62.044 184.386 62.044C188.276 62.044 190.759 59.5606 190.759 55.1872V42.8582H184.386V32.9027H201.286V55.1872C201.286 65.2306 194.517 71.9995 184.386 71.9995C174.254 71.9995 167.486 65.2306 167.486 55.1872V17.1892C167.486 7.14582 174.254 0.376953 184.386 0.376953C194.517 0.376953 201.286 7.14582 201.286 17.1892V23.057H190.737H190.759Z" fill="black"/>
<path d="M211.552 1.36523H223.178L236.605 48.11V1.36523H246.957V70.9879H235.814L221.881 26.4188V70.9879H211.53V1.36523H211.552Z" fill="black"/>
<path d="M135.173 324.49C100.951 324.49 69.678 304.613 55.1029 273.735C24.2146 259.16 4.34851 227.887 4.34851 193.666C4.34851 159.445 24.2256 128.171 55.1029 113.596C69.678 82.708 100.951 62.8418 135.173 62.8418C169.394 62.8418 200.667 82.719 215.242 113.596C246.13 128.171 265.997 159.445 265.997 193.666C265.997 227.887 246.119 259.16 215.242 273.735C200.667 304.624 169.394 324.49 135.173 324.49Z" fill="white"/>
<path d="M135.161 66.6688C169.492 66.6688 199.049 87.107 212.337 116.477C241.708 129.765 262.146 159.323 262.146 193.654C262.146 227.985 241.708 257.542 212.337 270.83C199.049 300.201 169.492 320.639 135.161 320.639C100.83 320.639 71.2723 300.201 57.9842 270.83C28.614 257.542 8.17583 227.985 8.17583 193.654C8.17583 159.323 28.614 129.765 57.9842 116.477C71.2723 87.107 100.83 66.6688 135.161 66.6688ZM135.161 58.9688C99.9055 58.9688 67.6643 79.1759 52.1982 110.691C20.6829 126.146 0.475769 158.399 0.475769 193.654C0.475769 228.909 20.6829 261.15 52.1982 276.616C67.6533 308.132 99.9055 328.339 135.161 328.339C170.416 328.339 202.657 308.132 218.123 276.616C249.639 261.161 269.846 228.909 269.846 193.654C269.846 158.399 249.639 126.157 218.123 110.691C202.668 79.1759 170.416 58.9688 135.161 58.9688Z" fill="black"/>
<path d="M163.109 71.354C154.397 68.318 145.025 66.668 135.279 66.668C100.948 66.668 71.3904 87.1061 58.1023 116.476C55.7813 117.521 53.5263 118.687 51.3262 119.93L135.279 193.653L163.109 71.354Z" fill="#F4F4F4"/>
<path d="M130.898 87.2502H128.742V85.9192C130.216 85.8092 131.096 85.2152 131.47 84.5332H132.801V97.1173H130.898V87.2502Z" fill="black"/>
<path d="M134.641 94.2788V87.3707C134.641 85.5777 135.84 84.3457 137.644 84.3457C139.448 84.3457 140.625 85.5667 140.625 87.3707V87.7887H138.788V87.2827C138.788 86.6007 138.337 86.1497 137.655 86.1497C136.973 86.1497 136.544 86.6007 136.544 87.2827V90.1647C136.83 89.7027 137.457 89.2627 138.392 89.2627C139.844 89.2627 140.713 90.2747 140.713 91.8368V94.2788C140.713 96.0718 139.492 97.3038 137.688 97.3038C135.884 97.3038 134.63 96.0828 134.63 94.2788H134.641ZM138.81 94.3668V92.1228C138.81 91.3528 138.414 90.9898 137.765 90.9898C137.006 90.9898 136.544 91.4518 136.544 92.2438V94.3668C136.544 95.0488 136.973 95.4998 137.699 95.4998C138.425 95.4998 138.81 95.0488 138.81 94.3668Z" fill="black"/>
<path d="M27.2649 197.426V199.582H25.9338C25.8238 198.108 25.2299 197.228 24.5479 196.854V195.523H37.132V197.426H27.2649Z" fill="black"/>
<path d="M35.3388 191.707V187.934H37.1319V193.973H35.4818L31.0378 191.19C29.3878 190.145 28.5188 189.837 27.5507 189.837C26.6707 189.837 26.1867 190.255 26.1867 190.992C26.1867 191.729 26.6707 192.147 27.5507 192.147H28.2878V193.984H27.6938C25.6477 193.984 24.3828 192.873 24.3828 190.981C24.3828 189.089 25.5487 187.945 27.4958 187.945C28.8598 187.945 29.9708 188.363 32.0058 189.639L35.3278 191.729L35.3388 191.707Z" fill="black"/>
<path d="M132.002 296.548V295.382C132.002 293.479 133.135 292.291 135.17 292.291C137.205 292.291 138.338 293.479 138.338 295.382V296.548C138.338 297.736 137.832 298.583 136.941 299.012C137.755 299.463 138.217 300.288 138.217 301.443V302.268C138.217 304.083 137.117 305.238 135.181 305.238C133.245 305.238 132.145 304.083 132.145 302.268V301.443C132.145 300.288 132.618 299.463 133.421 299.012C132.519 298.583 132.024 297.736 132.024 296.548H132.002ZM133.905 296.658C133.905 297.67 134.334 298.099 135.159 298.099C135.984 298.099 136.413 297.67 136.413 296.658V295.349C136.413 294.524 135.984 294.095 135.159 294.095C134.334 294.095 133.905 294.524 133.905 295.349V296.658ZM136.292 301.333C136.292 300.321 135.863 299.892 135.159 299.892C134.455 299.892 134.026 300.321 134.026 301.333V302.301C134.026 303.038 134.422 303.434 135.159 303.434C135.896 303.434 136.292 303.038 136.292 302.301V301.333Z" fill="black"/>
<path d="M238.51 196.998V195.975H235.881V194.072H238.51V190.354H240.215L248.465 193.72V195.986H240.303V197.009H238.51V196.998ZM240.303 194.072H245.242L240.303 192.147V194.072Z" fill="black"/>
<path d="M135.164 77.9335C136.658 77.9335 137.87 76.722 137.87 75.2275C137.87 73.733 136.658 72.5215 135.164 72.5215C133.669 72.5215 132.458 73.733 132.458 75.2275C132.458 76.722 133.669 77.9335 135.164 77.9335Z" fill="black"/>
<path d="M135.164 316.172C136.658 316.172 137.87 314.96 137.87 313.466C137.87 311.971 136.658 310.76 135.164 310.76C133.669 310.76 132.458 311.971 132.458 313.466C132.458 314.96 133.669 316.172 135.164 316.172Z" fill="black"/>
<path d="M254.277 197.053C255.772 197.053 256.983 195.841 256.983 194.347C256.983 192.852 255.772 191.641 254.277 191.641C252.783 191.641 251.571 192.852 251.571 194.347C251.571 195.841 252.783 197.053 254.277 197.053Z" fill="black"/>
<path d="M16.0512 197.053C17.5457 197.053 18.7572 195.841 18.7572 194.347C18.7572 192.852 17.5457 191.641 16.0512 191.641C14.5567 191.641 13.3452 192.852 13.3452 194.347C13.3452 195.841 14.5567 197.053 16.0512 197.053Z" fill="black"/>
</svg>
