<svg width="80" height="81" viewBox="0 0 80 81" fill="none" xmlns="http://www.w3.org/2000/svg">
<g clip-path="url(#clip0_385_29223)">
<path d="M12.6899 3.76632C6.98012 2.14159 1.69973 7.4181 3.32833 13.1279C5.81572 21.855 7.15033 31.0696 7.15033 40.5975C7.15033 50.1254 5.81572 59.34 3.32833 68.0671C1.69973 73.7769 6.98012 79.0573 12.6899 77.4287C21.417 74.9413 30.6316 73.6067 40.1595 73.6067C49.6874 73.6067 58.902 74.9413 67.6291 77.4287C73.3389 79.0573 78.6193 73.7769 76.9907 68.0671C74.5033 59.34 73.1687 50.1254 73.1687 40.5975C73.1687 31.0696 74.5033 21.855 76.9907 13.1279C78.6193 7.4181 73.3389 2.13772 67.6291 3.76632C58.902 6.25371 49.6874 7.58831 40.1595 7.58831C30.6316 7.58831 21.417 6.25371 12.6899 3.76632Z" fill="white"/>
<path d="M69.7408 78.9855C68.913 78.9855 68.0774 78.8655 67.2573 78.6334C58.4837 76.1306 49.3659 74.8617 40.1591 74.8617C30.9522 74.8617 21.8344 76.1306 13.0608 78.6334C12.2446 78.8655 11.409 78.9855 10.5773 78.9855C7.81912 78.9855 5.16152 77.647 3.47102 75.4072C1.77666 73.1635 1.25055 70.3164 2.02424 67.5969C4.5271 58.8194 5.79207 49.7054 5.79207 40.4986C5.79207 31.2918 4.52323 22.1739 2.02424 13.4004C1.25055 10.6809 1.77666 7.83759 3.47102 5.59004C5.16152 3.3541 7.81912 2.01562 10.5812 2.01562C11.4129 2.01562 12.2446 2.13555 13.0647 2.36765C21.8383 4.87051 30.9561 6.13935 40.1629 6.13935C49.3698 6.13935 58.4876 4.87051 67.2612 2.36765C68.0774 2.13555 68.913 2.01562 69.7447 2.01562C72.5029 2.01562 75.1605 3.3541 76.851 5.59391C78.5453 7.83759 79.0714 10.6847 78.2978 13.4042C75.7949 22.1817 74.5299 31.2957 74.5299 40.5025C74.5299 49.7093 75.7988 58.8272 78.2978 67.6007C79.0714 70.3202 78.5453 73.1635 76.851 75.411C75.1605 77.6509 72.5029 78.9893 69.7447 78.9893L69.7408 78.9855Z" fill="white"/>
<path d="M10.5812 3.37C11.2698 3.37 11.9777 3.46671 12.6934 3.66787C21.4205 6.15526 30.6351 7.48986 40.163 7.48986C49.6909 7.48986 58.9054 6.15526 67.6326 3.66787C68.3482 3.46284 69.0562 3.37 69.7447 3.37C74.557 3.37 78.4177 8.03531 76.9941 13.0294C74.5067 21.7566 73.1721 30.9711 73.1721 40.499C73.1721 50.0269 74.5067 59.2415 76.9941 67.9687C78.4177 72.9628 74.557 77.6281 69.7447 77.6281C69.0562 77.6281 68.3482 77.5314 67.6326 77.3302C58.9054 74.8428 49.6909 73.5082 40.163 73.5082C30.6351 73.5082 21.4205 74.8428 12.6934 77.3302C11.9777 77.5352 11.2698 77.6281 10.5812 77.6281C5.76889 77.6281 1.90822 72.9628 3.33179 67.9687C5.81918 59.2415 7.15378 50.0269 7.15378 40.499C7.15378 30.9711 5.81531 21.7604 3.32792 13.0294C1.90435 8.03531 5.76889 3.37 10.5812 3.37ZM10.5812 0.662109C7.3975 0.662109 4.33758 2.20174 2.39177 4.7781C0.438217 7.3622 -0.169123 10.6426 0.72448 13.7722C3.19253 22.4258 4.44203 31.4199 4.44203 40.499C4.44203 49.5782 3.19253 58.5723 0.72448 67.2259C-0.169123 70.3555 0.438217 73.6359 2.39177 76.2238C4.33758 78.8002 7.39749 80.3398 10.5773 80.3398C11.5328 80.3398 12.4922 80.2044 13.4322 79.9375C22.0859 77.4695 31.0799 76.22 40.1591 76.22C49.2383 76.22 58.2323 77.4695 66.886 79.9375C67.8221 80.2044 68.7854 80.3398 69.7409 80.3398C72.9246 80.3398 75.9845 78.8002 77.9264 76.2238C79.88 73.6359 80.4873 70.3593 79.5937 67.2259C77.1257 58.5723 75.8762 49.5782 75.8762 40.499C75.8762 31.4199 77.1257 22.4258 79.5937 13.7722C80.4873 10.6426 79.88 7.3622 77.9264 4.7781C75.9845 2.20174 72.9246 0.662109 69.7409 0.662109C68.7854 0.662109 67.826 0.797504 66.886 1.06442C58.2323 3.53247 49.2383 4.78197 40.1591 4.78197C31.0799 4.78197 22.0859 3.53247 13.4322 1.06442C12.4961 0.797504 11.5328 0.662109 10.5773 0.662109H10.5812Z" fill="black"/>
<path d="M37.8923 17.1113V14.5628H37.3353V14.2193C37.7159 14.1914 37.9434 14.0383 38.0409 13.8619H38.3844V17.1113H37.8923ZM39.6505 17.1577C39.177 17.1577 38.8613 16.8421 38.8613 16.3779V14.5953C38.8613 14.1311 39.1723 13.8154 39.6365 13.8154C40.1007 13.8154 40.4071 14.1311 40.4071 14.5953V14.7021H39.9336V14.5721C39.9336 14.3957 39.8176 14.2796 39.6412 14.2796C39.4648 14.2796 39.3534 14.3957 39.3534 14.5721V15.3148C39.4276 15.1941 39.5901 15.0827 39.8315 15.0827C40.2075 15.0827 40.4303 15.3427 40.4303 15.7466V16.3779C40.4303 16.8421 40.1147 17.1577 39.6505 17.1577ZM39.6505 16.6935C39.8269 16.6935 39.9383 16.5775 39.9383 16.4011V15.8208C39.9383 15.6212 39.8361 15.5284 39.669 15.5284C39.4741 15.5284 39.3534 15.6491 39.3534 15.8533V16.4011C39.3534 16.5775 39.4648 16.6935 39.6505 16.6935Z" fill="black"/>
<path d="M39.4384 65.3382C39.2063 65.2268 39.0763 65.0086 39.0763 64.7022V64.4005C39.0763 63.9084 39.3688 63.602 39.8933 63.602C40.4179 63.602 40.7103 63.9084 40.7103 64.4005V64.7022C40.7103 65.0086 40.5803 65.2268 40.3482 65.3382C40.5571 65.4542 40.6778 65.6678 40.6778 65.9648V66.1784C40.6778 66.6472 40.3947 66.9443 39.8933 66.9443C39.392 66.9443 39.1088 66.6472 39.1088 66.1784V65.9648C39.1088 65.6678 39.2295 65.4542 39.4384 65.3382ZM40.1858 66.1877V65.937C40.1858 65.677 40.0744 65.5656 39.8933 65.5656C39.7123 65.5656 39.6009 65.677 39.6009 65.937V66.1877C39.6009 66.378 39.703 66.4801 39.8933 66.4801C40.0836 66.4801 40.1858 66.378 40.1858 66.1877ZM39.5684 64.3912V64.73C39.5684 64.99 39.6798 65.1014 39.8933 65.1014C40.1068 65.1014 40.2183 64.99 40.2183 64.73V64.3912C40.2183 64.1776 40.1068 64.0662 39.8933 64.0662C39.6798 64.0662 39.5684 64.1776 39.5684 64.3912Z" fill="black"/>
<path d="M39.5327 71.581C40.0583 71.581 40.4843 71.1549 40.4843 70.6294C40.4843 70.1038 40.0583 69.6777 39.5327 69.6777C39.0071 69.6777 38.5811 70.1038 38.5811 70.6294C38.5811 71.1549 39.0071 71.581 39.5327 71.581Z" fill="black"/>
<path d="M76.9945 67.9716C74.5071 59.2444 73.1725 50.0299 73.1725 40.502C73.1725 39.9024 73.1764 39.3066 73.188 38.707L39.5405 39.7747L58.2675 75.1514C61.4435 75.7316 64.5692 76.4589 67.633 77.3331C73.3427 78.9618 78.6231 73.6814 76.9945 67.9716Z" fill="#F4F4F4"/>
<path d="M39.5327 11.0439C40.0583 11.0439 40.4843 10.6178 40.4843 10.0923C40.4843 9.56668 40.0583 9.14062 39.5327 9.14062C39.0071 9.14062 38.5811 9.56668 38.5811 10.0923C38.5811 10.6178 39.0071 11.0439 39.5327 11.0439Z" fill="black"/>
<path d="M17.4268 42.0623H14.8782V42.6193H14.5347C14.5069 42.2387 14.3537 42.0112 14.1773 41.9137V41.5702H17.4268V42.0623ZM16.1038 40.0488L16.9625 40.5873V39.6125H17.4268V41.1722H16.9997L15.8531 40.4527C15.426 40.1834 15.2032 40.1045 14.9525 40.1045C14.7251 40.1045 14.5997 40.2113 14.5997 40.4016C14.5997 40.5919 14.7251 40.6987 14.9525 40.6987H15.1428V41.1722H14.9897C14.4605 41.1722 14.1355 40.8844 14.1355 40.397C14.1355 39.9096 14.4372 39.6125 14.9386 39.6125C15.2914 39.6125 15.5792 39.7192 16.1038 40.0488Z" fill="black"/>
<path d="M65.0433 41.0145H64.5791V40.7499H63.9014V40.2579H64.5791V39.297H65.0201L67.1508 40.165V40.7499H65.0433V41.0145ZM65.0433 39.7612V40.2579H66.3199L65.0433 39.7612Z" fill="black"/>
<path d="M9.59079 41.6747C10.1164 41.6747 10.5424 41.2487 10.5424 40.7231C10.5424 40.1975 10.1164 39.7715 9.59079 39.7715C9.06522 39.7715 8.63916 40.1975 8.63916 40.7231C8.63916 41.2487 9.06522 41.6747 9.59079 41.6747Z" fill="black"/>
<path d="M70.9248 41.6747C71.4503 41.6747 71.8764 41.2487 71.8764 40.7231C71.8764 40.1975 71.4503 39.7715 70.9248 39.7715C70.3992 39.7715 69.9731 40.1975 69.9731 40.7231C69.9731 41.2487 70.3992 41.6747 70.9248 41.6747Z" fill="black"/>
</g>
<defs>
<clipPath id="clip0_385_29223">
<rect width="79.6777" height="79.6777" fill="white" transform="translate(0.322266 0.660156)"/>
</clipPath>
</defs>
</svg>
