<svg width="306" height="336" viewBox="0 0 306 336" fill="none" xmlns="http://www.w3.org/2000/svg">
<rect width="306" height="336" fill="#FF97FF"/>
<g clip-path="url(#clip0_1469_9223)">
<path d="M32 47.2136H36.6877V68.5868H32V47.2136Z" fill="black"/>
<path d="M32 40.6089H36.6877V44.386H32V40.6089Z" fill="black"/>
<path d="M54.2279 69.0966C45.7658 69.0966 39.676 62.3341 39.676 54.5448C39.676 46.7555 45.7658 40.0354 54.2279 40.0354C62.6899 40.0354 68.7443 46.7979 68.7443 54.5518C68.7443 62.3057 62.6616 69.1037 54.2279 69.1037V69.0966ZM54.2279 64.4443C59.8362 64.4443 64.0849 59.9902 64.0849 54.5518C64.0849 49.1135 59.8362 44.6948 54.2279 44.6948C48.6196 44.6948 44.3354 49.1135 44.3354 54.5518C44.3354 59.9902 48.5842 64.4443 54.2279 64.4443Z" fill="black"/>
<path d="M70.3021 59.5441H74.8907C74.9615 62.504 76.7248 64.7771 80.0246 64.7771C82.9491 64.7771 84.8823 63.0068 84.8823 60.5284C84.8823 57.6038 82.4676 56.7895 79.0686 55.6636C74.6146 54.2049 71.5909 52.0593 71.5909 47.5769C71.5909 43.3636 75.1244 39.9929 79.9538 39.9929C85.2222 39.9929 88.4866 43.4627 88.522 48.6603L84.0326 48.5895C83.9971 46.0403 82.6376 44.2416 79.9538 44.2416C77.6453 44.2416 76.1795 45.672 76.1795 47.6406C76.1795 50.0553 78.1481 50.7988 80.7327 51.684C85.3213 53.2489 89.6054 54.6722 89.6054 60.5921C89.6054 65.726 85.5267 69.0541 80.0175 69.0541C74.1685 69.0541 70.3304 65.1099 70.295 59.537L70.3021 59.5441Z" fill="black"/>
<path d="M32 84.4487H37.3038C47.9114 84.4487 52.5638 90.8076 52.5638 98.4199C52.5638 106.032 47.9044 112.49 37.3038 112.49H32V84.4487ZM37.8137 107.802C44.647 107.802 47.876 103.724 47.876 98.4199C47.876 93.1161 44.647 89.1082 37.8137 89.1082H36.6594V107.802H37.8137Z" fill="black"/>
<path d="M55.6936 84.5125H71.0244V88.9311H60.353V96.1044H70.1463V100.219H60.353V108.036H71.0244V112.49H55.6936V84.5125Z" fill="black"/>
<path d="M71.9025 84.5125H76.8664L84.4503 105.756L91.7935 84.5125H96.722L86.9642 112.49H81.9011L71.9095 84.5125H71.9025Z" fill="black"/>
<path d="M98.6199 84.5125H113.951V88.9311H103.279V96.1044H113.073V100.219H103.279V108.036H113.951V112.49H98.6199V84.5125Z" fill="black"/>
<path d="M117.18 84.4841H121.839V108.043H131.186V112.497H117.18V84.4841Z" fill="black"/>
<path d="M144.881 113C136.419 113 130.329 106.237 130.329 98.4481C130.329 90.6588 136.412 83.9316 144.881 83.9316C153.35 83.9316 159.398 90.6942 159.398 98.4481C159.398 106.202 153.315 113 144.881 113ZM144.881 108.348C150.49 108.348 154.738 103.894 154.738 98.4552C154.738 93.0168 150.49 88.5981 144.881 88.5981C139.273 88.5981 134.989 93.0168 134.989 98.4552C134.989 103.894 139.238 108.348 144.881 108.348Z" fill="black"/>
<path d="M162.521 84.4841H168.709C177.511 84.4841 180.74 89.618 180.74 95.1909C180.74 100.764 177.377 105.898 169.219 105.898H167.18V112.526H162.521V84.4841ZM169.418 101.373C173.836 101.373 176.18 98.8589 176.18 95.1838C176.18 91.5087 173.765 89.0303 169.418 89.0303H167.173V101.373H169.418Z" fill="black"/>
<path d="M183.594 84.5125H198.925V88.9311H188.254V96.1044H198.047V100.219H188.254V108.036H198.925V112.49H183.594V84.5125Z" fill="black"/>
<path d="M202.154 84.4841H208.343C217.145 84.4841 220.374 89.618 220.374 95.1909C220.374 98.7244 219.014 102.095 215.955 104.064L220.643 112.497H215.07L211.806 105.664C210.92 105.799 209.972 105.905 208.916 105.905H206.806V112.533H202.147V84.4912L202.154 84.4841ZM209.051 101.373C213.47 101.373 215.814 98.859 215.814 95.1838C215.814 91.5087 213.399 89.0303 209.051 89.0303H206.806V101.373H209.051Z" fill="black"/>
</g>
<path d="M32.8887 152V144.576H34.3516V152H32.8887ZM33.627 143.428C33.1211 143.428 32.6973 143.045 32.6973 142.566C32.6973 142.088 33.1211 141.705 33.627 141.705C34.1191 141.705 34.543 142.088 34.543 142.566C34.543 143.045 34.1191 143.428 33.627 143.428ZM44.7116 147.051C44.7116 150.209 42.8112 152.137 40.2545 152.137C37.6705 152.137 35.7838 150.209 35.7838 147.051C35.7838 143.879 37.6705 141.965 40.2545 141.965C42.8112 141.965 44.7116 143.879 44.7116 147.051ZM43.2213 147.051C43.2213 144.645 41.9498 143.346 40.2545 143.346C38.5455 143.346 37.2741 144.645 37.2741 147.051C37.2741 149.457 38.5455 150.756 40.2545 150.756C41.9498 150.756 43.2213 149.457 43.2213 147.051ZM51.6536 144.713C51.5579 143.797 50.7513 143.264 49.6165 143.264C48.3997 143.264 47.6341 143.879 47.6341 144.727C47.6341 145.67 48.6595 146.025 49.4388 146.217L50.3958 146.477C51.6673 146.777 53.2395 147.475 53.2532 149.266C53.2395 150.934 51.9134 152.164 49.5755 152.164C47.3606 152.164 45.9661 151.057 45.8704 149.252H47.3743C47.47 150.332 48.4134 150.852 49.5755 150.852C50.8333 150.852 51.7493 150.209 51.763 149.238C51.7493 148.377 50.9427 148.021 49.8899 147.748L48.7141 147.434C47.1282 146.996 46.1302 146.189 46.1302 144.809C46.1302 143.1 47.6614 141.965 49.6575 141.965C51.6673 141.965 53.0755 143.113 53.1165 144.713H51.6536Z" fill="black"/>
<path d="M56.62 148.164C56.068 148.164 55.612 147.708 55.612 147.156C55.612 146.604 56.068 146.148 56.62 146.148C57.172 146.148 57.628 146.604 57.628 147.156C57.628 147.708 57.172 148.164 56.62 148.164Z" fill="black"/>
<path d="M66.3984 144.713C66.3027 143.797 65.4961 143.264 64.3613 143.264C63.1445 143.264 62.3789 143.879 62.3789 144.727C62.3789 145.67 63.4043 146.025 64.1836 146.217L65.1406 146.477C66.4121 146.777 67.9844 147.475 67.998 149.266C67.9844 150.934 66.6582 152.164 64.3203 152.164C62.1055 152.164 60.7109 151.057 60.6152 149.252H62.1191C62.2148 150.332 63.1582 150.852 64.3203 150.852C65.5781 150.852 66.4941 150.209 66.5078 149.238C66.4941 148.377 65.6875 148.021 64.6348 147.748L63.459 147.434C61.873 146.996 60.875 146.189 60.875 144.809C60.875 143.1 62.4062 141.965 64.4023 141.965C66.4121 141.965 67.8203 143.113 67.8613 144.713H66.3984ZM70.9479 152L68.7741 144.576H70.278L71.7272 150.018H71.8092L73.2584 144.576H74.7623L76.1979 149.99H76.2799L77.7155 144.576H79.2194L77.0455 152H75.5553L74.0514 146.654H73.942L72.4518 152H70.9479ZM80.2825 152V144.576H81.7454V152H80.2825ZM81.0208 143.428C80.5149 143.428 80.0911 143.045 80.0911 142.566C80.0911 142.088 80.5149 141.705 81.0208 141.705C81.513 141.705 81.9368 142.088 81.9368 142.566C81.9368 143.045 81.513 143.428 81.0208 143.428ZM86.9237 144.576V145.738H85.3241V152H83.8612V145.738H82.7128V144.576H83.8612V143.715C83.8612 142.389 84.7089 141.637 86.0761 141.637C86.4316 141.637 86.787 141.678 87.0741 141.732V142.949C86.8007 142.908 86.5956 142.895 86.4589 142.895C85.6796 142.895 85.3241 143.209 85.3241 143.934V144.576H86.9237ZM91.5826 144.576V145.738H90.065V149.812C90.065 150.646 90.4888 150.797 90.9537 150.811C91.1588 150.811 91.4869 150.783 91.692 150.77V152.041C91.4869 152.068 91.1724 152.096 90.7759 152.096C89.6275 152.096 88.6021 151.467 88.6158 150.113V145.738H87.522V144.576H88.6158V142.799H90.065V144.576H91.5826Z" fill="black"/>
<path d="M95.62 148.164C95.068 148.164 94.612 147.708 94.612 147.156C94.612 146.604 95.068 146.148 95.62 146.148C96.172 146.148 96.628 146.604 96.628 147.156C96.628 147.708 96.172 148.164 95.62 148.164Z" fill="black"/>
<path d="M106.697 145.232C106.328 144.057 105.439 143.346 104.127 143.346C102.459 143.346 101.174 144.658 101.174 147.051C101.174 149.443 102.445 150.756 104.195 150.756C105.774 150.756 106.82 149.758 106.848 148.172H104.414V146.928H108.311V148.049C108.311 150.551 106.588 152.137 104.182 152.137C101.502 152.137 99.6836 150.182 99.6836 147.051C99.6836 143.893 101.557 141.965 104.113 141.965C106.26 141.965 107.9 143.305 108.242 145.232H106.697ZM110.249 152V144.576H111.712V152H110.249ZM110.987 143.428C110.481 143.428 110.057 143.045 110.057 142.566C110.057 142.088 110.481 141.705 110.987 141.705C111.479 141.705 111.903 142.088 111.903 142.566C111.903 143.045 111.479 143.428 110.987 143.428ZM116.822 144.576V145.738H115.304V149.812C115.304 150.646 115.728 150.797 116.193 150.811C116.398 150.811 116.726 150.783 116.931 150.77V152.041C116.726 152.068 116.411 152.096 116.015 152.096C114.866 152.096 113.841 151.467 113.855 150.113V145.738H112.761V144.576H113.855V142.799H115.304V144.576H116.822Z" fill="black"/>
<path d="M39.2461 278.102C39.2461 280.992 40.9453 284.039 43.7969 285.23L42.6055 286.949C40.5156 286.051 38.9922 284.195 38.1914 281.949C37.3711 284.371 35.8281 286.402 33.7578 287.379L32.5078 285.68C35.3008 284.391 37.0391 281.109 37.0391 278.102V276.617H33.1523V274.82H43.1133V276.617H39.2461V278.102ZM47.2734 273.082V290.738H45.0859V273.082H47.2734ZM63.8758 273.102V286.461H61.6883V284.918H58.2313V283.395H61.6883V273.102H63.8758ZM64.2859 288.629V290.387H51.3367V285.172H53.5047V288.629H64.2859ZM48.993 281.031C52.2547 281.012 56.6297 280.973 60.3797 280.504L60.4969 282.066C59.0418 282.311 57.5379 282.477 56.0438 282.574V285.973H53.8758V282.691C52.2254 282.76 50.6531 282.77 49.2664 282.77L48.993 281.031ZM54.7547 273.746C57.3328 273.746 59.1297 275.016 59.1492 276.871C59.1297 278.766 57.3328 279.977 54.7547 279.977C52.1375 279.977 50.3406 278.766 50.3406 276.871C50.3406 275.016 52.1375 273.746 54.7547 273.746ZM54.7547 275.348C53.3484 275.348 52.3914 275.914 52.3914 276.871C52.3914 277.828 53.3484 278.395 54.7547 278.395C56.1023 278.395 57.0594 277.828 57.0789 276.871C57.0594 275.914 56.1023 275.348 54.7547 275.348ZM79.3844 273.082V280.113H82.0992V281.91H79.3844V290.738H77.2359V273.082H79.3844ZM75.8688 275.797V277.535H65.4586V275.797H69.6383V273.336H71.8063V275.797H75.8688ZM70.732 278.688C73.2711 278.688 75.1656 280.406 75.1656 282.848C75.1656 285.289 73.2711 286.988 70.732 286.988C68.1539 286.988 66.2594 285.289 66.2789 282.848C66.2594 280.406 68.1539 278.688 70.732 278.688ZM70.732 280.465C69.3453 280.465 68.3492 281.402 68.3492 282.848C68.3492 284.293 69.3453 285.211 70.732 285.191C72.0797 285.211 73.0758 284.293 73.0953 282.848C73.0758 281.402 72.0797 280.465 70.732 280.465ZM96.7875 273.082V290.738H94.6V273.082H96.7875ZM91.5141 274.957C91.5141 280.211 89.4828 284.684 83.2914 287.613L82.1586 285.875C86.7777 283.678 88.9262 280.689 89.307 276.676H83.057V274.957H91.5141Z" fill="black"/>
<circle cx="119" cy="282" r="12" fill="black"/>
<path d="M121.838 281.03C121.366 280.678 120.86 280.221 120.319 279.658C119.791 279.096 119.32 278.533 118.904 277.97L120.61 277C121.082 277.619 121.616 278.238 122.212 278.857C122.809 279.461 123.433 280.038 124.085 280.586C124.737 281.121 125.376 281.592 126 282C125.376 282.408 124.737 282.886 124.085 283.435C123.433 283.969 122.809 284.546 122.212 285.165C121.616 285.769 121.082 286.381 120.61 287L118.904 286.03C119.32 285.453 119.791 284.89 120.319 284.342C120.86 283.779 121.366 283.322 121.838 282.97H112V281.03H121.838Z" fill="white"/>
<defs>
<clipPath id="clip0_1469_9223">
<rect width="188.643" height="73" fill="white" transform="translate(32 40)"/>
</clipPath>
</defs>
</svg>
