<svg width="270" height="324" viewBox="0 0 270 324" fill="none" xmlns="http://www.w3.org/2000/svg">
<path d="M83.7939 1.44141H94.9286V74.9302H83.7939V1.44141Z" fill="black"/>
<path d="M106.147 58.2288V18.1208C106.147 7.51972 113.292 0.375 123.986 0.375C134.68 0.375 141.825 7.51972 141.825 18.1208V58.2288C141.825 68.8299 134.68 75.9747 123.986 75.9747C113.292 75.9747 106.147 68.8299 106.147 58.2288ZM130.713 58.2288V18.1208C130.713 13.5046 128.092 10.8833 123.986 10.8833C119.88 10.8833 117.259 13.5046 117.259 18.1208V58.2288C117.259 62.8451 119.88 65.4663 123.986 65.4663C128.092 65.4663 130.713 62.8451 130.713 58.2288Z" fill="black"/>
<path d="M150.572 57.9278V55.3065L161.289 54.1466V56.8839C161.289 62.2425 164.027 65.4901 168.434 65.4901C172.842 65.4901 175.579 62.7528 175.579 58.4613C175.579 53.8451 173.7 50.4814 165.395 42.6176C154.377 32.2252 151.222 26.5652 151.222 18.4694C151.222 7.54348 157.531 0.421875 168.133 0.421875C178.734 0.421875 185.043 7.56665 185.043 18.5853V20.4875L174.326 21.6474V19.5364C174.326 13.8763 172.122 10.9303 168.249 10.9303C164.375 10.9303 162.171 13.3428 162.171 17.959C162.171 22.5753 164.491 25.9388 172.354 33.8027C183.072 44.5198 186.528 49.8552 186.528 57.951C186.528 68.4593 179.174 75.9984 168.573 75.9984C157.972 75.9984 150.619 68.4361 150.619 57.951L150.572 57.9278Z" fill="black"/>
<g clip-path="url(#clip0_548_5763)">
<path d="M42.4156 65.4878C23.1388 60.0025 5.31172 77.8166 10.81 97.0934C19.2077 126.557 23.7135 157.666 23.7135 189.834C23.7135 222.001 19.2077 253.11 10.81 282.574C5.31172 301.85 23.1388 319.678 42.4156 314.179C71.8793 305.782 102.989 301.276 135.156 301.276C167.323 301.276 198.432 305.782 227.896 314.179C247.173 319.678 265 301.85 259.502 282.574C251.104 253.11 246.598 222.001 246.598 189.834C246.598 157.666 251.104 126.557 259.502 97.0934C265 77.8166 247.173 59.9895 227.896 65.4878C198.432 73.8855 167.323 78.3912 135.156 78.3912C102.989 78.3912 71.8793 73.8855 42.4156 65.4878Z" fill="white"/>
<path d="M235.024 319.436C232.229 319.436 229.408 319.031 226.639 318.248C197.019 309.798 166.236 305.514 135.153 305.514C104.069 305.514 73.2867 309.798 43.6662 318.248C40.9105 319.031 38.0895 319.436 35.2816 319.436C25.9697 319.436 16.9974 314.917 11.2901 307.355C5.56975 299.78 3.79357 290.168 6.4056 280.987C14.8555 251.353 19.1262 220.584 19.1262 189.501C19.1262 158.417 14.8425 127.635 6.4056 98.0142C3.79357 88.8329 5.56975 79.2337 11.2901 71.6457C16.9974 64.0969 25.9697 59.5781 35.2947 59.5781C38.1026 59.5781 40.9105 59.983 43.6793 60.7666C73.2997 69.2165 104.082 73.5002 135.166 73.5002C166.249 73.5002 197.032 69.2165 226.652 60.7666C229.408 59.983 232.229 59.5781 235.037 59.5781C244.349 59.5781 253.321 64.0969 259.028 71.6588C264.749 79.2337 266.525 88.8459 263.913 98.0272C255.463 127.661 251.192 158.43 251.192 189.514C251.192 220.597 255.476 251.38 263.913 281C266.525 290.181 264.749 299.78 259.028 307.368C253.321 314.93 244.349 319.449 235.037 319.449L235.024 319.436Z" fill="white"/>
<path d="M35.2957 64.146C37.6204 64.146 40.0104 64.4725 42.4266 65.1516C71.8903 73.5493 103 78.0551 135.167 78.0551C167.334 78.0551 198.443 73.5493 227.907 65.1516C230.323 64.4595 232.713 64.146 235.038 64.146C251.285 64.146 264.319 79.8966 259.512 96.7572C251.115 126.221 246.609 157.33 246.609 189.497C246.609 221.665 251.115 252.774 259.512 282.238C264.319 299.098 251.285 314.849 235.038 314.849C232.713 314.849 230.323 314.522 227.907 313.843C198.443 305.445 167.334 300.94 135.167 300.94C103 300.94 71.8903 305.445 42.4266 313.843C40.0104 314.535 37.6204 314.849 35.2957 314.849C19.0489 314.849 6.01485 299.098 10.821 282.238C19.2187 252.774 23.7244 221.665 23.7244 189.497C23.7244 157.33 19.2056 126.234 10.8079 96.7572C6.00179 79.8966 19.0489 64.146 35.2957 64.146ZM35.2957 55.0039C24.5472 55.0039 14.2166 60.2018 7.64737 68.8999C1.05199 77.6241 -0.998455 88.6991 2.01844 99.2648C10.3508 128.48 14.5692 158.845 14.5692 189.497C14.5692 220.15 10.3508 250.514 2.01844 279.73C-0.998455 290.296 1.05199 301.371 7.64737 310.108C14.2166 318.806 24.5472 324.004 35.2826 324.004C38.5085 324.004 41.7474 323.547 44.921 322.646C74.1366 314.313 104.501 310.095 135.154 310.095C165.806 310.095 196.171 314.313 225.386 322.646C228.547 323.547 231.799 324.004 235.025 324.004C245.773 324.004 256.104 318.806 262.66 310.108C269.255 301.371 271.306 290.309 268.289 279.73C259.956 250.514 255.738 220.15 255.738 189.497C255.738 158.845 259.956 128.48 268.289 99.2648C271.306 88.6991 269.255 77.6241 262.66 68.8999C256.104 60.2018 245.773 55.0039 235.025 55.0039C231.799 55.0039 228.56 55.461 225.386 56.3622C196.171 64.6945 165.806 68.913 135.154 68.913C104.501 68.913 74.1366 64.6945 44.921 56.3622C41.7605 55.461 38.5085 55.0039 35.2826 55.0039H35.2957Z" fill="black"/>
<path d="M127.502 109.66V101.056H125.621V99.8964C126.906 99.8024 127.674 99.2852 128.003 98.6896H129.163V109.66H127.502ZM133.437 109.817C131.839 109.817 130.773 108.751 130.773 107.184V101.166C130.773 99.5986 131.823 98.5329 133.39 98.5329C134.958 98.5329 135.992 99.5986 135.992 101.166V101.526H134.393V101.087C134.393 100.492 134.002 100.1 133.406 100.1C132.81 100.1 132.434 100.492 132.434 101.087V103.595C132.685 103.188 133.234 102.811 134.049 102.811C135.318 102.811 136.07 103.689 136.07 105.053V107.184C136.07 108.751 135.005 109.817 133.437 109.817ZM133.437 108.25C134.033 108.25 134.409 107.858 134.409 107.262V105.303C134.409 104.629 134.064 104.316 133.5 104.316C132.842 104.316 132.434 104.723 132.434 105.413V107.262C132.434 107.858 132.81 108.25 133.437 108.25Z" fill="black"/>
<path d="M132.722 274.24C131.938 273.864 131.499 273.127 131.499 272.093V271.074C131.499 269.413 132.487 268.378 134.257 268.378C136.028 268.378 137.016 269.413 137.016 271.074V272.093C137.016 273.127 136.577 273.864 135.793 274.24C136.499 274.632 136.906 275.353 136.906 276.356V277.076C136.906 278.659 135.95 279.662 134.257 279.662C132.565 279.662 131.609 278.659 131.609 277.076V276.356C131.609 275.353 132.016 274.632 132.722 274.24ZM135.245 277.108V276.262C135.245 275.384 134.869 275.008 134.257 275.008C133.646 275.008 133.27 275.384 133.27 276.262V277.108C133.27 277.75 133.615 278.095 134.257 278.095C134.9 278.095 135.245 277.75 135.245 277.108ZM133.16 271.043V272.187C133.16 273.064 133.537 273.441 134.257 273.441C134.978 273.441 135.355 273.064 135.355 272.187V271.043C135.355 270.322 134.978 269.946 134.257 269.946C133.537 269.946 133.16 270.322 133.16 271.043Z" fill="black"/>
<path d="M133.039 294.433C134.813 294.433 136.252 292.995 136.252 291.221C136.252 289.446 134.813 288.008 133.039 288.008C131.265 288.008 129.826 289.446 129.826 291.221C129.826 292.995 131.265 294.433 133.039 294.433Z" fill="black"/>
<path d="M259.514 282.249C251.116 252.786 246.61 221.676 246.61 189.509C246.61 187.485 246.623 185.474 246.663 183.449L133.065 187.054L196.29 306.489C207.012 308.448 217.565 310.903 227.908 313.855C247.185 319.353 265.012 301.526 259.514 282.249Z" fill="#F4F4F4"/>
<path d="M133.039 90.0545C134.813 90.0545 136.252 88.6161 136.252 86.8417C136.252 85.0673 134.813 83.6289 133.039 83.6289C131.265 83.6289 129.826 85.0673 129.826 86.8417C129.826 88.6161 131.265 90.0545 133.039 90.0545Z" fill="black"/>
<path d="M57.5264 194.775H48.9223V196.655H47.7626C47.6686 195.37 47.1514 194.602 46.5558 194.273V193.113H57.5264V194.775ZM53.0598 187.977L55.9591 189.795V186.504H57.5264V191.77H56.0845L52.2135 189.341C50.7717 188.432 50.0194 188.165 49.1731 188.165C48.4052 188.165 47.982 188.526 47.982 189.168C47.982 189.811 48.4052 190.171 49.1731 190.171H49.8157V191.77H49.2985C47.5118 191.77 46.4148 190.798 46.4148 189.152C46.4148 187.507 47.4335 186.504 49.1261 186.504C50.3172 186.504 51.2888 186.864 53.0598 187.977Z" fill="black"/>
<path d="M220.047 191.233H218.48V190.34H216.191V188.679H218.48V185.435H219.968L227.162 188.365V190.34H220.047V191.233ZM220.047 187.002V188.679H224.357L220.047 187.002Z" fill="black"/>
<path d="M31.953 193.469C33.7274 193.469 35.1658 192.03 35.1658 190.256C35.1658 188.481 33.7274 187.043 31.953 187.043C30.1787 187.043 28.7402 188.481 28.7402 190.256C28.7402 192.03 30.1787 193.469 31.953 193.469Z" fill="black"/>
<path d="M239.022 193.469C240.797 193.469 242.235 192.03 242.235 190.256C242.235 188.481 240.797 187.043 239.022 187.043C237.248 187.043 235.81 188.481 235.81 190.256C235.81 192.03 237.248 193.469 239.022 193.469Z" fill="black"/>
</g>
<defs>
<clipPath id="clip0_548_5763">
<rect width="269" height="269" fill="white" transform="translate(0.661133 55)"/>
</clipPath>
</defs>
</svg>
