<svg width="270" height="324" viewBox="0 0 270 324" fill="none" xmlns="http://www.w3.org/2000/svg">
<g clip-path="url(#clip0_681_5694)">
<path d="M95.216 17.832H84.1611V74.4245H95.216V17.832Z" fill="black"/>
<path d="M95.216 1.41797H84.1611V12.9085H95.216V1.41797Z" fill="black"/>
<path d="M124.103 0.375C113.467 0.375 106.372 7.46957 106.372 18.0039V57.8444C106.372 68.3788 113.467 75.4734 124.103 75.4734C134.739 75.4734 141.834 68.3788 141.834 57.8444V18.0039C141.834 7.46957 134.739 0.375 124.103 0.375ZM130.779 57.8444C130.779 62.4327 128.171 65.0408 124.103 65.0408C120.035 65.0408 117.427 62.4327 117.427 57.8444V18.0039C117.427 13.4157 120.035 10.8075 124.103 10.8075C128.171 10.8075 130.779 13.4157 130.779 18.0039V57.8444Z" fill="black"/>
<path d="M172.08 33.5435C164.256 25.7191 161.965 22.3811 161.965 17.7929C161.965 13.2046 164.154 10.8058 168.012 10.8058C171.871 10.8058 174.06 13.7251 174.06 19.36V21.4476L184.697 20.2991V18.4208C184.697 7.46782 178.439 0.378906 167.905 0.378906C157.371 0.378906 151.113 7.47348 151.113 18.319C151.113 26.3527 154.242 31.982 165.195 42.307C173.432 50.1314 175.311 53.4694 175.311 58.0576C175.311 62.3348 172.601 65.0447 168.216 65.0447C163.832 65.0447 161.122 61.8086 161.122 56.4905V53.7805L150.485 54.929V57.5372C150.485 67.9697 157.789 75.4773 168.324 75.4773C178.858 75.4773 186.156 67.9697 186.156 57.5372C186.156 49.5034 182.716 44.1853 172.075 33.5491L172.08 33.5435Z" fill="black"/>
</g>
<g clip-path="url(#clip1_681_5694)">
<path d="M42.4156 64.9604C23.1388 59.4752 5.31172 77.2892 10.81 96.566C19.2077 126.03 23.7135 157.139 23.7135 189.306C23.7135 221.473 19.2077 252.583 10.81 282.046C5.31172 301.323 23.1388 319.15 42.4156 313.652C71.8793 305.254 102.989 300.748 135.156 300.748C167.323 300.748 198.432 305.254 227.896 313.652C247.173 319.15 265 301.323 259.502 282.046C251.104 252.583 246.598 221.473 246.598 189.306C246.598 157.139 251.104 126.03 259.502 96.566C265 77.2892 247.173 59.4621 227.896 64.9604C198.432 73.3581 167.323 77.8639 135.156 77.8639C102.989 77.8639 71.8793 73.3581 42.4156 64.9604Z" fill="white"/>
<path d="M235.024 318.909C232.229 318.909 229.408 318.504 226.639 317.72C197.019 309.27 166.236 304.987 135.153 304.987C104.069 304.987 73.2867 309.27 43.6662 317.72C40.9105 318.504 38.0895 318.909 35.2816 318.909C25.9697 318.909 16.9974 314.39 11.2901 306.828C5.56975 299.253 3.79357 289.641 6.4056 280.46C14.8555 250.826 19.1262 220.056 19.1262 188.973C19.1262 157.89 14.8425 127.107 6.4056 97.4868C3.79357 88.3055 5.56975 78.7063 11.2901 71.1184C16.9974 63.5696 25.9697 59.0508 35.2947 59.0508C38.1026 59.0508 40.9105 59.4556 43.6793 60.2393C73.2997 68.6892 104.082 72.9729 135.166 72.9729C166.249 72.9729 197.032 68.6892 226.652 60.2393C229.408 59.4556 232.229 59.0508 235.037 59.0508C244.349 59.0508 253.321 63.5696 259.028 71.1314C264.749 78.7063 266.525 88.3186 263.913 97.4999C255.463 127.133 251.192 157.903 251.192 188.986C251.192 220.069 255.476 250.852 263.913 280.473C266.525 289.654 264.749 299.253 259.028 306.841C253.321 314.403 244.349 318.922 235.037 318.922L235.024 318.909Z" fill="white"/>
<path d="M35.2957 63.6187C37.6204 63.6187 40.0104 63.9452 42.4266 64.6243C71.8903 73.022 103 77.5277 135.167 77.5277C167.334 77.5277 198.443 73.022 227.907 64.6243C230.323 63.9321 232.713 63.6187 235.038 63.6187C251.285 63.6187 264.319 79.3692 259.512 96.2299C251.115 125.694 246.609 156.803 246.609 188.97C246.609 221.137 251.115 252.246 259.512 281.71C264.319 298.571 251.285 314.321 235.038 314.321C232.713 314.321 230.323 313.995 227.907 313.316C198.443 304.918 167.334 300.412 135.167 300.412C103 300.412 71.8903 304.918 42.4266 313.316C40.0104 314.008 37.6204 314.321 35.2957 314.321C19.0489 314.321 6.01485 298.571 10.821 281.71C19.2187 252.246 23.7244 221.137 23.7244 188.97C23.7244 156.803 19.2056 125.707 10.8079 96.2299C6.00179 79.3692 19.0489 63.6187 35.2957 63.6187ZM35.2957 54.4766C24.5472 54.4766 14.2166 59.6745 7.64737 68.3726C1.05199 77.0967 -0.998455 88.1718 2.01844 98.7374C10.3508 127.953 14.5692 158.318 14.5692 188.97C14.5692 219.622 10.3508 249.987 2.01844 279.203C-0.998455 289.768 1.05199 300.843 7.64737 309.581C14.2166 318.279 24.5472 323.477 35.2826 323.477C38.5085 323.477 41.7474 323.019 44.921 322.118C74.1366 313.786 104.501 309.567 135.154 309.567C165.806 309.567 196.171 313.786 225.386 322.118C228.547 323.019 231.799 323.477 235.025 323.477C245.773 323.477 256.104 318.279 262.66 309.581C269.255 300.843 271.306 289.781 268.289 279.203C259.956 249.987 255.738 219.622 255.738 188.97C255.738 158.318 259.956 127.953 268.289 98.7374C271.306 88.1718 269.255 77.0967 262.66 68.3726C256.104 59.6745 245.773 54.4766 235.025 54.4766C231.799 54.4766 228.56 54.9337 225.386 55.8348C196.171 64.1672 165.806 68.3856 135.154 68.3856C104.501 68.3856 74.1366 64.1672 44.921 55.8348C41.7605 54.9337 38.5085 54.4766 35.2826 54.4766H35.2957Z" fill="black"/>
<path d="M127.502 100.529H125.621V99.369C126.227 99.3272 126.729 99.1966 127.126 98.9772C127.533 98.7578 127.826 98.4862 128.003 98.1623H129.163V109.133H127.502V100.529ZM133.437 109.29C132.643 109.29 132.001 109.049 131.51 108.569C131.019 108.078 130.773 107.44 130.773 106.657V100.638C130.773 99.8549 131.013 99.2228 131.494 98.7422C131.975 98.2511 132.607 98.0056 133.39 98.0056C134.174 98.0056 134.801 98.2511 135.271 98.7422C135.752 99.2228 135.992 99.8549 135.992 100.638V100.999H134.393V100.56C134.393 100.257 134.305 100.017 134.127 99.8392C133.949 99.6616 133.709 99.5728 133.406 99.5728C133.113 99.5728 132.878 99.6616 132.701 99.8392C132.523 100.017 132.434 100.257 132.434 100.56V103.068C132.57 102.848 132.774 102.665 133.046 102.519C133.328 102.362 133.662 102.284 134.049 102.284C134.675 102.284 135.167 102.488 135.522 102.895C135.887 103.292 136.07 103.836 136.07 104.525V106.657C136.07 107.44 135.825 108.078 135.334 108.569C134.853 109.049 134.221 109.29 133.437 109.29ZM133.437 107.722C133.73 107.722 133.965 107.634 134.143 107.456C134.32 107.278 134.409 107.038 134.409 106.735V104.776C134.409 104.442 134.331 104.196 134.174 104.039C134.017 103.872 133.793 103.789 133.5 103.789C133.166 103.789 132.905 103.888 132.716 104.086C132.528 104.274 132.434 104.541 132.434 104.886V106.735C132.434 107.038 132.523 107.278 132.701 107.456C132.878 107.634 133.124 107.722 133.437 107.722Z" fill="black"/>
<path d="M132.722 273.712C132.325 273.524 132.022 273.248 131.813 272.882C131.604 272.516 131.499 272.077 131.499 271.565V270.547C131.499 269.711 131.739 269.053 132.22 268.572C132.701 268.091 133.38 267.851 134.257 267.851C135.135 267.851 135.814 268.091 136.295 268.572C136.775 269.053 137.016 269.711 137.016 270.547V271.565C137.016 272.077 136.911 272.516 136.702 272.882C136.493 273.248 136.19 273.524 135.793 273.712C136.149 273.911 136.425 274.188 136.624 274.543C136.812 274.909 136.906 275.337 136.906 275.828V276.549C136.906 277.354 136.676 277.986 136.217 278.445C135.746 278.905 135.093 279.135 134.257 279.135C133.422 279.135 132.774 278.905 132.314 278.445C131.844 277.986 131.609 277.354 131.609 276.549V275.828C131.609 275.337 131.708 274.909 131.907 274.543C132.095 274.188 132.366 273.911 132.722 273.712ZM135.245 275.734C135.245 274.898 134.916 274.48 134.257 274.48C133.599 274.48 133.27 274.898 133.27 275.734V276.58C133.27 276.904 133.354 277.15 133.521 277.317C133.688 277.484 133.934 277.568 134.257 277.568C134.581 277.568 134.827 277.484 134.994 277.317C135.161 277.15 135.245 276.904 135.245 276.58V275.734ZM133.16 271.659C133.16 272.088 133.254 272.401 133.443 272.6C133.62 272.809 133.892 272.913 134.257 272.913C134.623 272.913 134.9 272.809 135.088 272.6C135.266 272.401 135.355 272.088 135.355 271.659V270.515C135.355 269.784 134.989 269.418 134.257 269.418C133.526 269.418 133.16 269.784 133.16 270.515V271.659Z" fill="black"/>
<path d="M133.039 293.906C134.813 293.906 136.252 292.468 136.252 290.693C136.252 288.919 134.813 287.48 133.039 287.48C131.265 287.48 129.826 288.919 129.826 290.693C129.826 292.468 131.265 293.906 133.039 293.906Z" fill="black"/>
<path d="M259.514 281.722C251.116 252.258 246.61 221.149 246.61 188.982C246.61 186.957 246.623 184.946 246.663 182.922L133.065 186.526L196.29 305.962C207.012 307.921 217.565 310.376 227.908 313.328C247.185 318.826 265.012 300.999 259.514 281.722Z" fill="#F4F4F4"/>
<path d="M133.039 89.5272C134.813 89.5272 136.252 88.0887 136.252 86.3144C136.252 84.54 134.813 83.1016 133.039 83.1016C131.265 83.1016 129.826 84.54 129.826 86.3144C129.826 88.0887 131.265 89.5272 133.039 89.5272Z" fill="black"/>
<path d="M48.9223 194.247V196.128H47.7626C47.7208 195.522 47.5902 195.02 47.3708 194.623C47.1514 194.216 46.8797 193.923 46.5558 193.746V192.586H57.5264V194.247H48.9223ZM55.9591 189.268V185.977H57.5264V191.242H56.0845L52.2135 188.813C51.503 188.364 50.9284 188.056 50.4896 187.889C50.0403 187.721 49.6015 187.638 49.1731 187.638C48.7865 187.638 48.494 187.727 48.2954 187.904C48.0865 188.071 47.982 188.317 47.982 188.641C47.982 188.965 48.0865 189.215 48.2954 189.393C48.494 189.56 48.7865 189.644 49.1731 189.644H49.8157V191.242H49.2985C48.3999 191.242 47.6947 191.012 47.1827 190.553C46.6708 190.083 46.4148 189.44 46.4148 188.625C46.4148 187.8 46.6551 187.152 47.1357 186.682C47.6163 186.212 48.2798 185.977 49.1261 185.977C49.7216 185.977 50.3067 186.086 50.8814 186.306C51.4456 186.515 52.1717 186.896 53.0598 187.45L55.9591 189.268Z" fill="black"/>
<path d="M218.48 190.706V189.813H216.191V188.152H218.48V184.907H219.968L227.162 187.838V189.813H220.047V190.706H218.48ZM220.047 188.152H224.357L220.047 186.475V188.152Z" fill="black"/>
<path d="M31.953 192.941C33.7274 192.941 35.1658 191.503 35.1658 189.728C35.1658 187.954 33.7274 186.516 31.953 186.516C30.1787 186.516 28.7402 187.954 28.7402 189.728C28.7402 191.503 30.1787 192.941 31.953 192.941Z" fill="black"/>
<path d="M239.022 192.941C240.797 192.941 242.235 191.503 242.235 189.728C242.235 187.954 240.797 186.516 239.022 186.516C237.248 186.516 235.81 187.954 235.81 189.728C235.81 191.503 237.248 192.941 239.022 192.941Z" fill="black"/>
</g>
<defs>
<clipPath id="clip0_681_5694">
<rect width="102" height="75.0984" fill="white" transform="translate(84.1611 0.375)"/>
</clipPath>
<clipPath id="clip1_681_5694">
<rect width="269" height="269" fill="white" transform="translate(0.661133 54.4727)"/>
</clipPath>
</defs>
</svg>
