<svg width="189" height="73" viewBox="0 0 189 73" fill="none" xmlns="http://www.w3.org/2000/svg">
<g clip-path="url(#clip0_1062_13331)">
<path d="M0 7.21362H4.68775V28.5868H0V7.21362Z" fill="black"/>
<path d="M0 0.608887H4.68775V4.38603H0V0.608887Z" fill="black"/>
<path d="M22.2279 29.0966C13.7658 29.0966 7.67603 22.3341 7.67603 14.5448C7.67603 6.75545 13.7658 0.0354004 22.2279 0.0354004C30.6899 0.0354004 36.7443 6.79794 36.7443 14.5518C36.7443 22.3057 30.6616 29.1037 22.2279 29.1037V29.0966ZM22.2279 24.4443C27.8362 24.4443 32.0849 19.9902 32.0849 14.5518C32.0849 9.11349 27.8362 4.69482 22.2279 4.69482C16.6196 4.69482 12.3354 9.11349 12.3354 14.5518C12.3354 19.9902 16.5842 24.4443 22.2279 24.4443Z" fill="black"/>
<path d="M38.3021 19.5441H42.8907C42.9615 22.504 44.7248 24.7771 48.0246 24.7771C50.9491 24.7771 52.8823 23.0068 52.8823 20.5284C52.8823 17.6038 50.4676 16.7895 47.0686 15.6636C42.6146 14.2049 39.5909 12.0593 39.5909 7.57688C39.5909 3.36357 43.1244 -0.00708008 47.9538 -0.00708008C53.2222 -0.00708008 56.4866 3.4627 56.522 8.6603L52.0326 8.58949C51.9971 6.04026 50.6376 4.24163 47.9538 4.24163C45.6453 4.24163 44.1795 5.67204 44.1795 7.64061C44.1795 10.0553 46.1481 10.7988 48.7327 11.684C53.3213 13.2489 57.6054 14.6722 57.6054 20.5921C57.6054 25.726 53.5267 29.0541 48.0175 29.0541C42.1685 29.0541 38.3304 25.1099 38.295 19.537L38.3021 19.5441Z" fill="black"/>
<path d="M0 44.4487H5.30381C15.9114 44.4487 20.5638 50.8076 20.5638 58.4199C20.5638 66.0322 15.9044 72.4902 5.30381 72.4902H0V44.4487ZM5.81366 67.8025C12.647 67.8025 15.876 63.7237 15.876 58.4199C15.876 53.1161 12.647 49.1082 5.81366 49.1082H4.65942V67.8025H5.81366Z" fill="black"/>
<path d="M23.6936 44.5125H39.0244V48.9311H28.353V56.1044H38.1463V60.2185H28.353V68.0362H39.0244V72.4902H23.6936V44.5125Z" fill="black"/>
<path d="M39.9025 44.5125H44.8664L52.4503 65.756L59.7935 44.5125H64.722L54.9642 72.4902H49.9011L39.9095 44.5125H39.9025Z" fill="black"/>
<path d="M66.6199 44.5125H81.9507V48.9311H71.2793V56.1044H81.0726V60.2185H71.2793V68.0362H81.9507V72.4902H66.6199V44.5125Z" fill="black"/>
<path d="M85.1797 44.4841H89.8391V68.0433H99.1863V72.4973H85.1797V44.4841Z" fill="black"/>
<path d="M112.881 72.9999C104.419 72.9999 98.3295 66.2374 98.3295 58.4481C98.3295 50.6588 104.412 43.9316 112.881 43.9316C121.35 43.9316 127.398 50.6942 127.398 58.4481C127.398 66.202 121.315 72.9999 112.881 72.9999ZM112.881 68.3476C118.49 68.3476 122.738 63.8935 122.738 58.4552C122.738 53.0168 118.49 48.5981 112.881 48.5981C107.273 48.5981 102.989 53.0168 102.989 58.4552C102.989 63.8935 107.238 68.3476 112.881 68.3476Z" fill="black"/>
<path d="M130.521 44.4841H136.709C145.511 44.4841 148.74 49.618 148.74 55.1909C148.74 60.7638 145.377 65.8977 137.219 65.8977H135.18V72.5256H130.521V44.4841ZM137.418 61.3728C141.836 61.3728 144.18 58.8589 144.18 55.1838C144.18 51.5087 141.765 49.0303 137.418 49.0303H135.173V61.3728H137.418Z" fill="black"/>
<path d="M151.594 44.5125H166.925V48.9311H156.254V56.1044H166.047V60.2185H156.254V68.0362H166.925V72.4902H151.594V44.5125Z" fill="black"/>
<path d="M170.154 44.4841H176.343C185.145 44.4841 188.374 49.618 188.374 55.1909C188.374 58.7244 187.014 62.0951 183.955 64.0636L188.643 72.4973H183.07L179.806 65.664C178.92 65.7985 177.972 65.9047 176.916 65.9047H174.806V72.5327H170.147V44.4912L170.154 44.4841ZM177.051 61.3728C181.47 61.3728 183.814 58.859 183.814 55.1838C183.814 51.5087 181.399 49.0303 177.051 49.0303H174.806V61.3728H177.051Z" fill="black"/>
</g>
<defs>
<clipPath id="clip0_1062_13331">
<rect width="188.643" height="73" fill="white"/>
</clipPath>
</defs>
</svg>
