<svg width="140" height="54" viewBox="0 0 140 54" fill="none" xmlns="http://www.w3.org/2000/svg">
<g clip-path="url(#clip0_1062_14013)">
<path d="M0 5.33594H3.46765V21.1463H0V5.33594Z" fill="white"/>
<path d="M0 0.450439H3.46765V3.24449H0V0.450439Z" fill="white"/>
<path d="M16.4425 21.5235C10.1829 21.5235 5.6781 16.521 5.6781 10.7591C5.6781 4.99712 10.1829 0.026123 16.4425 0.026123C22.7021 0.026123 27.1807 5.02855 27.1807 10.7643C27.1807 16.5001 22.6811 21.5287 16.4425 21.5287V21.5235ZM16.4425 18.082C20.5911 18.082 23.734 14.7872 23.734 10.7643C23.734 6.74142 20.5911 3.47282 16.4425 3.47282C12.2939 3.47282 9.1248 6.74142 9.1248 10.7643C9.1248 14.7872 12.2677 18.082 16.4425 18.082Z" fill="white"/>
<path d="M28.3331 14.4574H31.7274C31.7798 16.6469 33.0841 18.3284 35.5251 18.3284C37.6884 18.3284 39.1185 17.0188 39.1185 15.1855C39.1185 13.0221 37.3322 12.4197 34.8179 11.5869C31.5231 10.5078 29.2865 8.92067 29.2865 5.60492C29.2865 2.48823 31.9003 -0.00512695 35.4727 -0.00512695C39.3699 -0.00512695 41.7847 2.56156 41.8109 6.40636L38.4899 6.35398C38.4637 4.46825 37.458 3.13776 35.4727 3.13776C33.7651 3.13776 32.6808 4.19586 32.6808 5.65207C32.6808 7.43827 34.137 7.98828 36.0489 8.64304C39.4432 9.80067 42.6123 10.8535 42.6123 15.2326C42.6123 19.0303 39.5951 21.4922 35.5198 21.4922C31.1931 21.4922 28.3541 18.5746 28.3279 14.4521L28.3331 14.4574Z" fill="white"/>
<path d="M0 32.8799H3.92337C11.7701 32.8799 15.2116 37.5837 15.2116 43.2147C15.2116 48.8457 11.7649 53.6229 3.92337 53.6229H0V32.8799ZM4.30051 50.1553C9.35532 50.1553 11.7439 47.1381 11.7439 43.2147C11.7439 39.2914 9.35532 36.3266 4.30051 36.3266H3.4467V50.1553H4.30051Z" fill="white"/>
<path d="M17.5269 32.927H28.8674V36.1956H20.9736V41.5018H28.2179V44.5452H20.9736V50.3281H28.8674V53.6229H17.5269V32.927Z" fill="white"/>
<path d="M29.517 32.927H33.1889L38.799 48.6414L44.2309 32.927H47.8767L40.6585 53.6229H36.9132L29.5222 32.927H29.517Z" fill="white"/>
<path d="M49.2804 32.927H60.621V36.1956H52.7271V41.5018H59.9714V44.5452H52.7271V50.3281H60.621V53.6229H49.2804V32.927Z" fill="white"/>
<path d="M63.0096 32.906H66.4563V50.3333H73.3706V53.6281H63.0096V32.906Z" fill="white"/>
<path d="M83.5012 53.9999C77.2416 53.9999 72.7368 48.9975 72.7368 43.2355C72.7368 37.4735 77.2364 32.4973 83.5012 32.4973C89.766 32.4973 94.2394 37.4997 94.2394 43.2355C94.2394 48.9713 89.7398 53.9999 83.5012 53.9999ZM83.5012 50.5584C87.6498 50.5584 90.7927 47.2636 90.7927 43.2407C90.7927 39.2179 87.6498 35.9492 83.5012 35.9492C79.3526 35.9492 76.1835 39.2179 76.1835 43.2407C76.1835 47.2636 79.3264 50.5584 83.5012 50.5584Z" fill="white"/>
<path d="M96.5494 32.906H101.128C107.639 32.906 110.027 36.7037 110.027 40.8261C110.027 44.9485 107.539 48.7461 101.505 48.7461H99.9961V53.649H96.5494V32.906ZM101.651 45.399C104.92 45.399 106.654 43.5394 106.654 40.8208C106.654 38.1022 104.868 36.2689 101.651 36.2689H99.9909V45.399H101.651Z" fill="white"/>
<path d="M112.138 32.927H123.479V36.1956H115.585V41.5018H122.829V44.5452H115.585V50.3281H123.479V53.6229H112.138V32.927Z" fill="white"/>
<path d="M125.867 32.906H130.445C136.956 32.906 139.345 36.7037 139.345 40.8261C139.345 43.4399 138.339 45.9333 136.076 47.3895L139.544 53.6281H135.422L133.007 48.5733C132.352 48.6728 131.65 48.7514 130.87 48.7514H129.309V53.6543H125.862V32.9112L125.867 32.906ZM130.969 45.399C134.238 45.399 135.972 43.5394 135.972 40.8208C135.972 38.1022 134.185 36.2689 130.969 36.2689H129.309V45.399H130.969Z" fill="white"/>
</g>
<defs>
<clipPath id="clip0_1062_14013">
<rect width="139.544" height="54" fill="white"/>
</clipPath>
</defs>
</svg>
