<svg width="89" height="78" viewBox="0 0 89 78" fill="none" xmlns="http://www.w3.org/2000/svg">
<path d="M22.9132 76.4638L1.32422 39.0717L22.9132 1.67969H66.0878L87.6767 39.0717L66.0878 76.4638H22.9132Z" fill="white"/>
<path d="M65.4246 2.82594L86.3525 39.0726L65.4246 75.3193H23.5721L2.64421 39.0726L23.5721 2.82594H65.4246ZM66.7467 0.535156H22.25L21.5889 1.68055L0.661053 37.9272L0 39.0726L0.661053 40.218L21.5889 76.4647L22.25 77.61H66.75L67.4111 76.4647L88.339 40.218L89 39.0726L88.339 37.9272L67.4111 1.68055L66.75 0.535156H66.7467Z" fill="black"/>
<path d="M43.3128 7.94894H42.6714V7.55297C43.1099 7.52024 43.3717 7.34352 43.483 7.14062H43.879V10.8844H43.3128V7.94894Z" fill="black"/>
<path d="M44.4281 10.0391V7.98393C44.4281 7.45051 44.7848 7.08398 45.3215 7.08398C45.8582 7.08398 46.2083 7.44724 46.2083 7.98393V8.10829H45.6618V7.95775C45.6618 7.75486 45.5277 7.62068 45.3248 7.62068C45.1219 7.62068 44.9942 7.75486 44.9942 7.95775V8.81516C45.0793 8.67771 45.2658 8.54681 45.544 8.54681C45.976 8.54681 46.2345 8.84788 46.2345 9.31258V10.0391C46.2345 10.5725 45.8713 10.939 45.3346 10.939C44.7979 10.939 44.4248 10.5758 44.4248 10.0391H44.4281ZM45.6684 10.0653V9.39767C45.6684 9.16859 45.5506 9.0606 45.3575 9.0606C45.1317 9.0606 44.9942 9.19805 44.9942 9.43367V10.0653C44.9942 10.2682 45.1219 10.4023 45.3378 10.4023C45.5538 10.4023 45.6684 10.2682 45.6684 10.0653Z" fill="black"/>
<path d="M43.5547 68.4969V68.1501C43.5547 67.5839 43.8918 67.2305 44.4972 67.2305C45.1026 67.2305 45.4397 67.5839 45.4397 68.1501V68.4969C45.4397 68.8504 45.2891 69.1024 45.0241 69.23C45.2662 69.3642 45.4037 69.6096 45.4037 69.9532V70.1987C45.4037 70.7386 45.0764 71.0822 44.5005 71.0822C43.9245 71.0822 43.5972 70.7386 43.5972 70.1987V69.9532C43.5972 69.6096 43.7379 69.3642 43.9768 69.23C43.7085 69.1024 43.5612 68.8504 43.5612 68.4969H43.5547ZM44.1208 68.5297C44.1208 68.8307 44.2485 68.9584 44.4939 68.9584C44.7393 68.9584 44.867 68.8307 44.867 68.5297V68.1402C44.867 67.8948 44.7393 67.7672 44.4939 67.7672C44.2485 67.7672 44.1208 67.8948 44.1208 68.1402V68.5297ZM44.831 69.9205C44.831 69.6194 44.7033 69.4918 44.4939 69.4918C44.2845 69.4918 44.1568 69.6194 44.1568 69.9205V70.2085C44.1568 70.4277 44.2746 70.5456 44.4939 70.5456C44.7132 70.5456 44.831 70.4277 44.831 70.2085V69.9205Z" fill="black"/>
<path d="M12.4453 22.0957L44.4998 39.0736L23.5719 75.3203L2.64404 39.0736L12.4453 22.0957Z" fill="#F4F4F4"/>
<path d="M77.1615 40.0684V39.7641H76.3794V39.1979H77.1615V38.0918H77.6688L80.1232 39.0932V39.7673H77.695V40.0717H77.1615V40.0684ZM77.695 39.1979H79.1643L77.695 38.6252V39.1979Z" fill="black"/>
<path d="M9.50754 40.197V40.8384H9.11156C9.07883 40.3999 8.90212 40.1381 8.69922 40.0268V39.6309H12.443V40.197H9.50754Z" fill="black"/>
<path d="M11.9103 38.4955V37.373H12.4438V39.1697H11.9529L10.6308 38.3417C10.1399 38.0308 9.88135 37.9392 9.59337 37.9392C9.33157 37.9392 9.18758 38.0636 9.18758 38.2828C9.18758 38.5021 9.33157 38.6264 9.59337 38.6264H9.81263V39.1729H9.63591C9.02722 39.1729 8.65088 38.8424 8.65088 38.2795C8.65088 37.7167 8.99777 37.3763 9.57701 37.3763C9.9828 37.3763 10.3133 37.5007 10.9187 37.8803L11.9071 38.5021L11.9103 38.4955Z" fill="black"/>
</svg>
