<svg width="306" height="336" viewBox="0 0 306 336" fill="none" xmlns="http://www.w3.org/2000/svg">
<rect width="306" height="336" fill="#877BFF"/>
<g clip-path="url(#clip0_1469_9235)">
<path d="M32 59.5441H36.5886C36.6594 62.504 38.4226 64.7771 41.7225 64.7771C44.647 64.7771 46.5802 63.0068 46.5802 60.5284C46.5802 57.6038 44.1655 56.7895 40.7665 55.6636C36.3195 54.212 33.2888 52.0664 33.2888 47.584C33.2888 43.3636 36.8294 40 41.6517 40C46.9201 40 50.1845 43.4698 50.2199 48.6674L45.7304 48.5966C45.695 46.0473 44.3354 44.2487 41.6517 44.2487C39.3432 44.2487 37.8774 45.6791 37.8774 47.6477C37.8774 50.0624 39.846 50.8059 42.4306 51.691C47.0192 53.256 51.3033 54.6793 51.3033 60.5992C51.3033 65.7331 47.2246 69.0612 41.7154 69.0612C35.8734 69.0612 32.0354 65.1241 32 59.5441Z" fill="black"/>
<path d="M54.0933 40.6089H69.424V45.0276H58.7527V52.2008H68.546V56.315H58.7527V64.1326H69.424V68.5867H54.0933V40.6089Z" fill="black"/>
<path d="M72.6531 40.5806H78.842C87.644 40.5806 90.873 45.7144 90.873 51.2873C90.873 54.8208 89.5134 58.1915 86.4543 60.1601L91.1421 68.5938H85.5692L82.3047 61.7604C81.4196 61.895 80.4707 62.0012 79.4156 62.0012H77.3054V68.6292H72.646V40.5806H72.6531ZM79.5502 57.4692C83.9688 57.4692 86.3127 54.9554 86.3127 51.2802C86.3127 47.6051 83.898 45.1267 79.5502 45.1267H77.3054V57.4692H79.5502Z" fill="black"/>
<path d="M91.2058 40.6089H96.1697L103.754 61.8525L111.097 40.6089H116.025L106.268 68.5867H101.204L91.2058 40.6089Z" fill="black"/>
<path d="M117.923 40.6089H133.254V45.0276H122.583V52.2008H132.376V56.315H122.583V64.1326H133.254V68.5867H117.923V40.6089Z" fill="black"/>
<path d="M136.483 40.5806H142.672C151.474 40.5806 154.703 45.7144 154.703 51.2873C154.703 54.8208 153.343 58.1915 150.284 60.1601L154.972 68.5938H149.399L146.135 61.7604C145.249 61.895 144.301 62.0012 143.245 62.0012H141.135V68.6292H136.476V40.5806H136.483ZM143.387 57.4692C147.806 57.4692 150.15 54.9554 150.15 51.2802C150.15 47.6051 147.735 45.1267 143.387 45.1267H141.142V57.4692H143.387Z" fill="black"/>
<path d="M33.4304 84.4487H38.7342C49.3419 84.4487 53.9942 90.8076 53.9942 98.4199C53.9942 106.032 49.3348 112.49 38.7342 112.49H33.4304V84.4487ZM39.2441 107.802C46.0774 107.802 49.3065 103.724 49.3065 98.4199C49.3065 93.1161 46.0774 89.1082 39.2441 89.1082H38.0898V107.802H39.2441Z" fill="black"/>
<path d="M57.1169 84.5125H72.4477V88.9311H61.7764V96.1044H71.5697V100.219H61.7764V108.036H72.4477V112.49H57.1169V84.5125Z" fill="black"/>
<path d="M73.3329 84.5125H78.2968L85.8808 105.756L93.224 84.5125H98.1525L88.3946 112.49H83.3315L73.34 84.5125H73.3329Z" fill="black"/>
<path d="M100.043 84.5125H115.374V88.9311H104.703V96.1044H114.496V100.219H104.703V108.036H115.374V112.49H100.043V84.5125Z" fill="black"/>
<path d="M118.603 84.4841H123.262V108.043H132.61V112.497H118.603V84.4841Z" fill="black"/>
<path d="M146.305 113C137.843 113 131.753 106.237 131.753 98.4481C131.753 90.6588 137.835 83.9316 146.305 83.9316C154.774 83.9316 160.821 90.6942 160.821 98.4481C160.821 106.202 154.738 113 146.305 113ZM146.305 108.348C151.913 108.348 156.162 103.894 156.162 98.4552C156.162 93.0168 151.913 88.5981 146.305 88.5981C140.696 88.5981 136.412 93.0168 136.412 98.4552C136.412 103.894 140.661 108.348 146.305 108.348Z" fill="black"/>
<path d="M163.951 84.4841H170.14C178.942 84.4841 182.171 89.618 182.171 95.1909C182.171 100.764 178.807 105.898 170.65 105.898H168.61V112.526H163.951V84.4841ZM170.848 101.373C175.267 101.373 177.611 98.8589 177.611 95.1838C177.611 91.5087 175.196 89.0303 170.848 89.0303H168.603V101.373H170.848Z" fill="black"/>
<path d="M185.025 84.5125H200.355V88.9311H189.684V96.1044H199.477V100.219H189.684V108.036H200.355V112.49H185.025V84.5125Z" fill="black"/>
<path d="M203.577 84.4841H209.766C218.568 84.4841 221.797 89.618 221.797 95.1909C221.797 98.7244 220.438 102.095 217.379 104.064L222.066 112.497H216.493L213.229 105.664C212.344 105.799 211.395 105.905 210.34 105.905H208.23V112.533H203.57V84.4912L203.577 84.4841ZM210.481 101.373C214.9 101.373 217.244 98.859 217.244 95.1838C217.244 91.5087 214.829 89.0303 210.481 89.0303H208.237V101.373H210.481Z" fill="black"/>
</g>
<path d="M32.9395 152.5V143.309H36.3037C38.2588 143.309 39.2109 144.362 39.2109 145.721C39.2109 146.863 38.5127 147.447 37.6621 147.663V147.752C38.5762 147.803 39.5664 148.603 39.5664 150.024C39.5664 151.434 38.6016 152.5 36.4561 152.5H32.9395ZM36.3291 151.307C37.6494 151.307 38.1826 150.723 38.1826 149.961C38.1826 149.085 37.4844 148.374 36.3799 148.374H34.3359V151.307H36.3291ZM36.1895 147.282C37.1162 147.282 37.8398 146.711 37.8398 145.835C37.8398 145.073 37.3193 144.502 36.2148 144.502H34.3359V147.282H36.1895ZM40.5028 150.558C40.5028 148.983 41.8358 148.577 43.08 148.488C43.537 148.457 44.5717 148.399 44.8954 148.387L44.8827 147.841C44.8827 147.066 44.413 146.609 43.4862 146.609C42.6864 146.609 42.204 146.978 42.0643 147.485H40.7186C40.8456 146.343 41.912 145.518 43.537 145.518C44.6288 145.518 46.2411 145.924 46.2411 147.917V152.5H44.9208V151.561H44.87C44.6034 152.081 43.9686 152.652 42.8261 152.652C41.5184 152.652 40.5028 151.903 40.5028 150.558ZM41.8231 150.57C41.8231 151.23 42.369 151.573 43.1307 151.573C44.2352 151.573 44.8954 150.837 44.8954 150.012V149.377L43.2704 149.491C42.3817 149.555 41.8231 149.885 41.8231 150.57ZM50.6687 152.64C48.6629 152.64 47.4441 151.154 47.4441 149.085C47.4441 146.978 48.7009 145.518 50.6433 145.518C52.2175 145.518 53.3601 146.444 53.4998 147.841H52.1795C52.0398 147.193 51.5193 146.647 50.6687 146.647C49.5515 146.647 48.8025 147.574 48.8025 149.047C48.8025 150.558 49.5388 151.484 50.6687 151.484C51.4304 151.484 52.0144 151.065 52.1795 150.316H53.4998C53.3474 151.649 52.2937 152.64 50.6687 152.64ZM54.652 152.5V143.309H56.0104V148.514H56.1246L58.8541 145.606H60.4791L57.6989 148.564L60.6696 152.5H59.0065L56.6705 149.402L56.0104 150.05V152.5H54.652ZM64.0943 152.64C62.063 152.64 60.8189 151.243 60.8189 149.098C60.8189 146.978 62.0884 145.518 64.0054 145.518C65.5796 145.518 67.065 146.495 67.065 148.983V149.466H62.1646C62.2027 150.773 62.9707 151.522 64.107 151.522C64.8814 151.522 65.3765 151.192 65.605 150.773H66.9761C66.6714 151.891 65.605 152.64 64.0943 152.64ZM62.1773 148.45H65.732C65.732 147.396 65.0591 146.635 64.0181 146.635C62.9326 146.635 62.228 147.473 62.1773 148.45ZM69.6391 148.412V152.5H68.2807V145.606H69.5883V146.736H69.6645C69.9945 146 70.6674 145.518 71.6957 145.518C73.1176 145.518 74.0443 146.406 74.0443 148.12V152.5H72.6986V148.285C72.6986 147.282 72.1527 146.686 71.2387 146.686C70.3119 146.686 69.6391 147.308 69.6391 148.412ZM78.1419 152.64C76.4788 152.64 75.26 151.294 75.26 149.072C75.26 146.825 76.4915 145.518 78.1546 145.518C79.4368 145.518 79.9065 146.292 80.1477 146.724H80.2112V143.309H81.5696V152.5H80.2493V151.421H80.1477C79.8938 151.878 79.3987 152.64 78.1419 152.64ZM78.4466 151.484C79.6018 151.484 80.2493 150.494 80.2493 149.047C80.2493 147.612 79.6145 146.673 78.4466 146.673C77.2405 146.673 76.6438 147.688 76.6438 149.047C76.6438 150.431 77.2659 151.484 78.4466 151.484Z" fill="black"/>
<path d="M85.62 148.164C85.068 148.164 84.612 147.708 84.612 147.156C84.612 146.604 85.068 146.148 85.62 146.148C86.172 146.148 86.628 146.604 86.628 147.156C86.628 147.708 86.172 148.164 85.62 148.164Z" fill="black"/>
<path d="M91.3359 143.309V152.5H89.9395V143.309H91.3359ZM94.3163 148.412V152.5H92.9579V145.606H94.2655V146.736H94.3417C94.6718 146 95.3446 145.518 96.3729 145.518C97.7948 145.518 98.7216 146.406 98.7216 148.12V152.5H97.3759V148.285C97.3759 147.282 96.83 146.686 95.9159 146.686C94.9891 146.686 94.3163 147.308 94.3163 148.412ZM103.53 145.606V146.686H102.045V152.5H100.686V146.686H99.6199V145.606H100.686V144.807C100.686 143.575 101.473 142.877 102.743 142.877C103.073 142.877 103.403 142.915 103.67 142.966V144.096C103.416 144.058 103.225 144.045 103.098 144.045C102.375 144.045 102.045 144.337 102.045 145.01V145.606H103.53ZM104.631 152.5V145.606H105.939V146.698H106.015C106.269 145.962 106.955 145.505 107.767 145.505C107.932 145.505 108.199 145.518 108.339 145.53V146.825C108.224 146.8 107.907 146.749 107.628 146.749C106.688 146.749 105.99 147.396 105.99 148.298V152.5H104.631ZM108.831 150.558C108.831 148.983 110.164 148.577 111.408 148.488C111.865 148.457 112.899 148.399 113.223 148.387L113.21 147.841C113.21 147.066 112.741 146.609 111.814 146.609C111.014 146.609 110.532 146.978 110.392 147.485H109.046C109.173 146.343 110.24 145.518 111.865 145.518C112.957 145.518 114.569 145.924 114.569 147.917V152.5H113.249V151.561H113.198C112.931 152.081 112.296 152.652 111.154 152.652C109.846 152.652 108.831 151.903 108.831 150.558ZM110.151 150.57C110.151 151.23 110.697 151.573 111.459 151.573C112.563 151.573 113.223 150.837 113.223 150.012V149.377L111.598 149.491C110.709 149.555 110.151 149.885 110.151 150.57Z" fill="black"/>
<path d="M118.62 148.164C118.068 148.164 117.612 147.708 117.612 147.156C117.612 146.604 118.068 146.148 118.62 146.148C119.172 146.148 119.628 146.604 119.628 147.156C119.628 147.708 119.172 148.164 118.62 148.164Z" fill="black"/>
<path d="M129.697 145.232C129.328 144.057 128.439 143.346 127.127 143.346C125.459 143.346 124.174 144.658 124.174 147.051C124.174 149.443 125.445 150.756 127.195 150.756C128.774 150.756 129.82 149.758 129.848 148.172H127.414V146.928H131.311V148.049C131.311 150.551 129.588 152.137 127.182 152.137C124.502 152.137 122.684 150.182 122.684 147.051C122.684 143.893 124.557 141.965 127.113 141.965C129.26 141.965 130.9 143.305 131.242 145.232H129.697ZM133.249 152V144.576H134.712V152H133.249ZM133.987 143.428C133.481 143.428 133.057 143.045 133.057 142.566C133.057 142.088 133.481 141.705 133.987 141.705C134.479 141.705 134.903 142.088 134.903 142.566C134.903 143.045 134.479 143.428 133.987 143.428ZM139.822 144.576V145.738H138.304V149.812C138.304 150.646 138.728 150.797 139.193 150.811C139.398 150.811 139.726 150.783 139.931 150.77V152.041C139.726 152.068 139.411 152.096 139.015 152.096C137.866 152.096 136.841 151.467 136.855 150.113V145.738H135.761V144.576H136.855V142.799H138.304V144.576H139.822Z" fill="black"/>
<path d="M39.2461 278.102C39.2461 280.992 40.9453 284.039 43.7969 285.23L42.6055 286.949C40.5156 286.051 38.9922 284.195 38.1914 281.949C37.3711 284.371 35.8281 286.402 33.7578 287.379L32.5078 285.68C35.3008 284.391 37.0391 281.109 37.0391 278.102V276.617H33.1523V274.82H43.1133V276.617H39.2461V278.102ZM47.2734 273.082V290.738H45.0859V273.082H47.2734ZM63.8758 273.102V286.461H61.6883V284.918H58.2313V283.395H61.6883V273.102H63.8758ZM64.2859 288.629V290.387H51.3367V285.172H53.5047V288.629H64.2859ZM48.993 281.031C52.2547 281.012 56.6297 280.973 60.3797 280.504L60.4969 282.066C59.0418 282.311 57.5379 282.477 56.0438 282.574V285.973H53.8758V282.691C52.2254 282.76 50.6531 282.77 49.2664 282.77L48.993 281.031ZM54.7547 273.746C57.3328 273.746 59.1297 275.016 59.1492 276.871C59.1297 278.766 57.3328 279.977 54.7547 279.977C52.1375 279.977 50.3406 278.766 50.3406 276.871C50.3406 275.016 52.1375 273.746 54.7547 273.746ZM54.7547 275.348C53.3484 275.348 52.3914 275.914 52.3914 276.871C52.3914 277.828 53.3484 278.395 54.7547 278.395C56.1023 278.395 57.0594 277.828 57.0789 276.871C57.0594 275.914 56.1023 275.348 54.7547 275.348ZM79.3844 273.082V280.113H82.0992V281.91H79.3844V290.738H77.2359V273.082H79.3844ZM75.8688 275.797V277.535H65.4586V275.797H69.6383V273.336H71.8063V275.797H75.8688ZM70.732 278.688C73.2711 278.688 75.1656 280.406 75.1656 282.848C75.1656 285.289 73.2711 286.988 70.732 286.988C68.1539 286.988 66.2594 285.289 66.2789 282.848C66.2594 280.406 68.1539 278.688 70.732 278.688ZM70.732 280.465C69.3453 280.465 68.3492 281.402 68.3492 282.848C68.3492 284.293 69.3453 285.211 70.732 285.191C72.0797 285.211 73.0758 284.293 73.0953 282.848C73.0758 281.402 72.0797 280.465 70.732 280.465ZM96.7875 273.082V290.738H94.6V273.082H96.7875ZM91.5141 274.957C91.5141 280.211 89.4828 284.684 83.2914 287.613L82.1586 285.875C86.7777 283.678 88.9262 280.689 89.307 276.676H83.057V274.957H91.5141Z" fill="black"/>
<circle cx="119" cy="282" r="12" fill="black"/>
<path d="M121.838 281.03C121.366 280.678 120.86 280.221 120.319 279.658C119.791 279.096 119.32 278.533 118.904 277.97L120.61 277C121.082 277.619 121.616 278.238 122.212 278.857C122.809 279.461 123.433 280.038 124.085 280.586C124.737 281.121 125.376 281.592 126 282C125.376 282.408 124.737 282.886 124.085 283.435C123.433 283.969 122.809 284.546 122.212 285.165C121.616 285.769 121.082 286.381 120.61 287L118.904 286.03C119.32 285.453 119.791 284.89 120.319 284.342C120.86 283.779 121.366 283.322 121.838 282.97H112V281.03H121.838Z" fill="white"/>
<defs>
<clipPath id="clip0_1469_9235">
<rect width="190.073" height="73" fill="white" transform="translate(32 40)"/>
</clipPath>
</defs>
</svg>
