<svg width="141" height="54" viewBox="0 0 141 54" fill="none" xmlns="http://www.w3.org/2000/svg">
<g clip-path="url(#clip0_1062_14243)">
<path d="M0 14.4573H3.39432C3.4467 16.6468 4.75099 18.3283 7.19197 18.3283C9.35532 18.3283 10.7853 17.0187 10.7853 15.1854C10.7853 13.022 8.99913 12.4196 6.48482 11.5868C3.19527 10.5129 0.953342 8.92579 0.953342 5.61005C0.953342 2.48812 3.57241 0 7.13959 0C11.0368 0 13.4515 2.56669 13.4777 6.41149L10.1568 6.3591C10.1306 4.47337 9.12484 3.14288 7.13959 3.14288C5.43195 3.14288 4.34766 4.20099 4.34766 5.65719C4.34766 7.4434 5.80386 7.9934 7.71578 8.64817C11.1101 9.8058 14.2792 10.8587 14.2792 15.2378C14.2792 19.0354 11.262 21.4973 7.18673 21.4973C2.86526 21.4973 0.0261907 18.5849 0 14.4573Z" fill="white"/>
<path d="M16.343 0.450439H27.6836V3.71904H19.7897V9.02528H27.0341V12.0686H19.7897V17.8515H27.6836V21.1463H16.343V0.450439Z" fill="white"/>
<path d="M30.0722 0.429443H34.6503C41.1613 0.429443 43.5499 4.2271 43.5499 8.34951C43.5499 10.9633 42.5442 13.4567 40.2813 14.9129L43.749 21.1515H39.6265L37.2118 16.0967C36.557 16.1962 35.8551 16.2748 35.0746 16.2748H33.5136V21.1777H30.0669V0.429443H30.0722ZM35.1741 12.9224C38.4427 12.9224 40.1765 11.0629 40.1765 8.34428C40.1765 5.62568 38.3903 3.79233 35.1741 3.79233H33.5136V12.9224H35.1741Z" fill="white"/>
<path d="M43.7961 0.450439H47.4681L53.0781 16.1649L58.51 0.450439H62.1558L54.9376 21.1463H51.1924L43.7961 0.450439Z" fill="white"/>
<path d="M63.5596 0.450439H74.9002V3.71904H67.0063V9.02528H74.2507V12.0686H67.0063V17.8515H74.9002V21.1463H63.5596V0.450439Z" fill="white"/>
<path d="M77.2888 0.429443H81.8669C88.3779 0.429443 90.7665 4.2271 90.7665 8.34951C90.7665 10.9633 89.7608 13.4567 87.4979 14.9129L90.9656 21.1515H86.8431L84.4284 16.0967C83.7736 16.1962 83.0717 16.2748 82.2912 16.2748H80.7302V21.1777H77.2835V0.429443H77.2888ZM82.396 12.9224C85.6646 12.9224 87.3984 11.0629 87.3984 8.34428C87.3984 5.62568 85.6122 3.79233 82.396 3.79233H80.7355V12.9224H82.396Z" fill="white"/>
<path d="M1.05811 32.8799H4.98147C12.8282 32.8799 16.2697 37.5837 16.2697 43.2147C16.2697 48.8457 12.823 53.6229 4.98147 53.6229H1.05811V32.8799ZM5.35862 50.1553C10.4134 50.1553 12.802 47.1381 12.802 43.2147C12.802 39.2914 10.4134 36.3266 5.35862 36.3266H4.5048V50.1553H5.35862Z" fill="white"/>
<path d="M18.5797 32.927H29.9203V36.1956H22.0264V41.5018H29.2707V44.5452H22.0264V50.3281H29.9203V53.6229H18.5797V32.927Z" fill="white"/>
<path d="M30.575 32.927H34.247L39.857 48.6414L45.289 32.927H48.9347L41.7166 53.6229H37.9713L30.5803 32.927H30.575Z" fill="white"/>
<path d="M50.3333 32.927H61.6739V36.1956H53.78V41.5018H61.0244V44.5452H53.78V50.3281H61.6739V53.6229H50.3333V32.927Z" fill="white"/>
<path d="M64.0625 32.906H67.5092V50.3333H74.4235V53.6281H64.0625V32.906Z" fill="white"/>
<path d="M84.5541 53.9999C78.2945 53.9999 73.7897 48.9975 73.7897 43.2355C73.7897 37.4735 78.2893 32.4973 84.5541 32.4973C90.8189 32.4973 95.2923 37.4997 95.2923 43.2355C95.2923 48.9713 90.7927 53.9999 84.5541 53.9999ZM84.5541 50.5584C88.7027 50.5584 91.8456 47.2636 91.8456 43.2407C91.8456 39.2179 88.7027 35.9492 84.5541 35.9492C80.4055 35.9492 77.2364 39.2179 77.2364 43.2407C77.2364 47.2636 80.3793 50.5584 84.5541 50.5584Z" fill="white"/>
<path d="M97.6075 32.906H102.186C108.697 32.906 111.085 36.7037 111.085 40.8261C111.085 44.9485 108.597 48.7461 102.563 48.7461H101.054V53.649H97.6075V32.906ZM102.709 45.399C105.978 45.399 107.712 43.5394 107.712 40.8208C107.712 38.1022 105.926 36.2689 102.709 36.2689H101.049V45.399H102.709Z" fill="white"/>
<path d="M113.196 32.927H124.537V36.1956H116.643V41.5018H123.887V44.5452H116.643V50.3281H124.537V53.6229H113.196V32.927Z" fill="white"/>
<path d="M126.92 32.906H131.498C138.009 32.906 140.398 36.7037 140.398 40.8261C140.398 43.4399 139.392 45.9333 137.129 47.3895L140.597 53.6281H136.475L134.06 48.5733C133.405 48.6728 132.703 48.7514 131.923 48.7514H130.362V53.6543H126.915V32.9112L126.92 32.906ZM132.027 45.399C135.296 45.399 137.03 43.5394 137.03 40.8208C137.03 38.1022 135.244 36.2689 132.027 36.2689H130.367V45.399H132.027Z" fill="white"/>
</g>
<defs>
<clipPath id="clip0_1062_14243">
<rect width="140.602" height="54" fill="white"/>
</clipPath>
</defs>
</svg>
