<svg width="295" height="319" viewBox="0 0 295 319" fill="none" xmlns="http://www.w3.org/2000/svg">
<path d="M20.7109 57.9182V55.2953L31.4346 54.1348V56.8737C31.4346 62.2356 34.1736 65.4852 38.5838 65.4852C42.994 65.4852 45.7329 62.7462 45.7329 58.4521C45.7329 53.833 43.8528 50.4673 35.5431 42.5986C24.5176 32.1999 21.3609 26.5363 21.3609 18.4355C21.3609 7.50288 27.6744 0.376953 38.282 0.376953C48.8897 0.376953 55.2032 7.52608 55.2032 18.5515V20.4549L44.4795 21.6155V19.5032C44.4795 13.8396 42.2744 10.8918 38.3981 10.8918C34.5218 10.8918 32.3167 13.3057 32.3167 17.9248C32.3167 22.5439 34.6378 25.9096 42.5065 33.7783C53.2302 44.502 56.6887 49.8406 56.6887 57.9414C56.6887 68.4563 49.3307 76 38.723 76C28.1154 76 20.7574 68.433 20.7574 57.9414L20.7109 57.9182Z" fill="black"/>
<path d="M66.0868 1.39844H97.7008V11.9132H77.2051V32.409H93.4764V42.9238H77.2051V64.4641H97.7008V74.9789H66.0868V1.44487V1.39844Z" fill="black"/>
<path d="M132.057 74.9324L123.979 44.5718H118.2V74.9324H107.058V1.39844H124.49C135.097 1.39844 141.922 8.33868 141.922 18.9463V27.0239C141.922 33.8481 139.09 39.1171 134.262 42.0418L143.616 74.9324H132.057ZM118.2 34.057H123.979C128.296 34.057 130.803 31.527 130.803 27.2328V18.7142C130.803 14.3969 128.273 11.89 123.979 11.89H118.2V34.057Z" fill="black"/>
<path d="M188.278 1.39844L176.092 74.9324H161.167L148.981 1.39844H160.332L168.734 59.1718L177.137 1.39844H188.278Z" fill="black"/>
<path d="M198.041 1.00781H229.655V11.5226H209.16V32.0184H225.431V42.5332H209.16V64.0734H229.655V74.5882H198.041V1.05425V1.00781Z" fill="black"/>
<path d="M262.864 74.9324L254.786 44.5718H249.007V74.9324H237.865V1.39844H255.297C265.905 1.39844 272.729 8.33868 272.729 18.9463V27.0239C272.729 33.8481 269.897 39.1171 265.069 42.0418L274.423 74.9324H262.864ZM249.007 34.057H254.786C259.104 34.057 261.61 31.527 261.61 27.2328V18.7142C261.61 14.3969 259.08 11.89 254.786 11.89H249.007V34.057Z" fill="black"/>
<path d="M76.0402 314.545L4.50989 190.654L76.0402 66.7637H219.09L290.62 190.654L219.09 314.545H76.0402Z" fill="white"/>
<path d="M216.896 70.5588L286.237 190.654L216.896 310.75H78.2271L8.88701 190.654L78.2271 70.5588H216.896ZM221.277 62.9688H73.8466L71.6563 66.7638L2.31623 186.859L0.125977 190.654L2.31623 194.449L71.6563 314.545L73.8466 318.34H221.288L223.478 314.545L292.818 194.449L295.008 190.654L292.818 186.859L223.478 66.7638L221.288 62.9688H221.277Z" fill="black"/>
<path d="M143.634 87.5278H141.509V86.2158C142.962 86.1074 143.829 85.5219 144.198 84.8496H145.51V97.2538H143.634V87.5278Z" fill="black"/>
<path d="M147.332 94.4571V87.6478C147.332 85.8804 148.514 84.666 150.292 84.666C152.07 84.666 153.231 85.8696 153.231 87.6478V88.0598H151.42V87.5611C151.42 86.8888 150.975 86.4442 150.303 86.4442C149.631 86.4442 149.208 86.8888 149.208 87.5611V90.4019C149.49 89.9465 150.108 89.5128 151.029 89.5128C152.461 89.5128 153.317 90.5103 153.317 92.05V94.4571C153.317 96.2245 152.114 97.4389 150.335 97.4389C148.557 97.4389 147.321 96.2353 147.321 94.4571H147.332ZM151.441 94.5439V92.3319C151.441 91.5729 151.051 91.2151 150.411 91.2151C149.663 91.2151 149.208 91.6705 149.208 92.4512V94.5439C149.208 95.2161 149.631 95.6607 150.346 95.6607C151.062 95.6607 151.441 95.2161 151.441 94.5439Z" fill="black"/>
<path d="M144.436 288.143V286.994C144.436 285.118 145.553 283.947 147.559 283.947C149.564 283.947 150.681 285.118 150.681 286.994V288.143C150.681 289.314 150.182 290.149 149.304 290.572C150.107 291.017 150.562 291.83 150.562 292.969V293.782C150.562 295.571 149.478 296.709 147.569 296.709C145.661 296.709 144.577 295.571 144.577 293.782V292.969C144.577 291.83 145.043 291.017 145.835 290.572C144.945 290.149 144.457 289.314 144.457 288.143H144.436ZM146.312 288.252C146.312 289.249 146.734 289.672 147.548 289.672C148.361 289.672 148.784 289.249 148.784 288.252V286.962C148.784 286.148 148.361 285.725 147.548 285.725C146.734 285.725 146.312 286.148 146.312 286.962V288.252ZM148.664 292.86C148.664 291.863 148.242 291.44 147.548 291.44C146.854 291.44 146.431 291.863 146.431 292.86V293.814C146.431 294.541 146.821 294.931 147.548 294.931C148.274 294.931 148.664 294.541 148.664 293.814V292.86Z" fill="black"/>
<path d="M41.365 134.402L147.571 190.655L78.2307 310.751L8.89062 190.655L41.365 134.402Z" fill="#F4F4F4"/>
<path d="M255.784 193.951V192.943H253.192V191.067H255.784V187.402H257.464L265.596 190.72V192.954H257.551V193.962H255.784V193.951ZM257.551 191.067H262.419L257.551 189.17V191.067Z" fill="black"/>
<path d="M31.625 194.374V196.499H30.313C30.2045 195.046 29.619 194.179 28.9468 193.81V192.498H41.351V194.374H31.625Z" fill="black"/>
<path d="M39.5873 188.737V185.018H41.3547V190.97H39.7283L35.3478 188.227C33.7213 187.197 32.8648 186.893 31.9106 186.893C31.0432 186.893 30.5661 187.305 30.5661 188.032C30.5661 188.758 31.0432 189.17 31.9106 189.17H32.6371V190.981H32.0515C30.0348 190.981 28.7878 189.886 28.7878 188.021C28.7878 186.156 29.9372 185.028 31.8564 185.028C33.2009 185.028 34.296 185.44 36.3019 186.698L39.5765 188.758L39.5873 188.737Z" fill="black"/>
<path d="M210.988 80.7952L274.408 190.655L210.988 300.515H84.1376L20.7177 190.655L84.1376 80.7952H210.988ZM211.617 79.7109H83.5087L83.1943 80.2531L19.7744 190.113L19.46 190.655L19.7744 191.197L83.1943 301.057L83.5087 301.599H211.617L211.932 301.057L275.351 191.197L275.666 190.655L275.351 190.113L211.932 80.2531L211.617 79.7109Z" fill="black"/>
</svg>
