<svg width="191" height="73" viewBox="0 0 191 73" fill="none" xmlns="http://www.w3.org/2000/svg">
<g clip-path="url(#clip0_1062_13509)">
<path d="M0 19.5441H4.58861C4.65942 22.504 6.42264 24.7771 9.72248 24.7771C12.647 24.7771 14.5802 23.0068 14.5802 20.5284C14.5802 17.6038 12.1655 16.7895 8.76651 15.6636C4.31953 14.212 1.28878 12.0663 1.28878 7.58396C1.28878 3.36357 4.82937 0 9.65166 0C14.9201 0 18.1845 3.46978 18.2199 8.66738L13.7304 8.59657C13.695 6.04734 12.3354 4.24871 9.65166 4.24871C7.3432 4.24871 5.87739 5.67912 5.87739 7.64769C5.87739 10.0624 7.84596 10.8059 10.4306 11.691C15.0192 13.256 19.3033 14.6793 19.3033 20.5992C19.3033 25.733 15.2246 29.0612 9.71539 29.0612C3.87341 29.0612 0.035406 25.1241 0 19.5441Z" fill="black"/>
<path d="M22.0933 0.608887H37.4241V5.02755H26.7527V12.2008H36.546V16.315H26.7527V24.1326H37.4241V28.5867H22.0933V0.608887Z" fill="black"/>
<path d="M40.6531 0.580566H46.8421C55.644 0.580566 58.873 5.71443 58.873 11.2873C58.873 14.8208 57.5135 18.1915 54.4544 20.1601L59.1421 28.5938H53.5692L50.3048 21.7604C49.4197 21.895 48.4708 22.0012 47.4157 22.0012H45.3055V28.6292H40.6461V0.580566H40.6531ZM47.5502 17.4692C51.9689 17.4692 54.3128 14.9554 54.3128 11.2802C54.3128 7.60511 51.8981 5.12669 47.5502 5.12669H45.3055V17.4692H47.5502Z" fill="black"/>
<path d="M59.2058 0.608887H64.1697L71.7537 21.8525L79.0969 0.608887H84.0254L74.2675 28.5867H69.2045L59.2058 0.608887Z" fill="black"/>
<path d="M85.9232 0.608887H101.254V5.02755H90.5826V12.2008H100.376V16.315H90.5826V24.1326H101.254V28.5867H85.9232V0.608887Z" fill="black"/>
<path d="M104.483 0.580566H110.672C119.474 0.580566 122.703 5.71443 122.703 11.2873C122.703 14.8208 121.343 18.1915 118.284 20.1601L122.972 28.5938H117.399L114.135 21.7604C113.249 21.895 112.301 22.0012 111.246 22.0012H109.135V28.6292H104.476V0.580566H104.483ZM111.387 17.4692C115.806 17.4692 118.15 14.9554 118.15 11.2802C118.15 7.60511 115.735 5.12669 111.387 5.12669H109.142V17.4692H111.387Z" fill="black"/>
<path d="M1.43042 44.4487H6.73423C17.3419 44.4487 21.9942 50.8076 21.9942 58.4199C21.9942 66.0322 17.3348 72.4902 6.73423 72.4902H1.43042V44.4487ZM7.24408 67.8025C14.0774 67.8025 17.3065 63.7237 17.3065 58.4199C17.3065 53.1161 14.0774 49.1082 7.24408 49.1082H6.08984V67.8025H7.24408Z" fill="black"/>
<path d="M25.117 44.5125H40.4478V48.9311H29.7764V56.1044H39.5697V60.2185H29.7764V68.0362H40.4478V72.4902H25.117V44.5125Z" fill="black"/>
<path d="M41.3329 44.5125H46.2968L53.8808 65.756L61.224 44.5125H66.1525L56.3946 72.4902H51.3315L41.34 44.5125H41.3329Z" fill="black"/>
<path d="M68.0432 44.5125H83.3739V48.9311H72.7026V56.1044H82.4959V60.2185H72.7026V68.0362H83.3739V72.4902H68.0432V44.5125Z" fill="black"/>
<path d="M86.603 44.4841H91.2624V68.0433H100.61V72.4973H86.603V44.4841Z" fill="black"/>
<path d="M114.305 72.9999C105.843 72.9999 99.7527 66.2374 99.7527 58.4481C99.7527 50.6588 105.835 43.9316 114.305 43.9316C122.774 43.9316 128.821 50.6942 128.821 58.4481C128.821 66.202 122.738 72.9999 114.305 72.9999ZM114.305 68.3476C119.913 68.3476 124.162 63.8935 124.162 58.4552C124.162 53.0168 119.913 48.5981 114.305 48.5981C108.696 48.5981 104.412 53.0168 104.412 58.4552C104.412 63.8935 108.661 68.3476 114.305 68.3476Z" fill="black"/>
<path d="M131.951 44.4841H138.14C146.942 44.4841 150.171 49.618 150.171 55.1909C150.171 60.7638 146.807 65.8977 138.65 65.8977H136.61V72.5256H131.951V44.4841ZM138.848 61.3728C143.267 61.3728 145.611 58.8589 145.611 55.1838C145.611 51.5087 143.196 49.0303 138.848 49.0303H136.603V61.3728H138.848Z" fill="black"/>
<path d="M153.025 44.5125H168.355V48.9311H157.684V56.1044H167.477V60.2185H157.684V68.0362H168.355V72.4902H153.025V44.5125Z" fill="black"/>
<path d="M171.577 44.4841H177.766C186.568 44.4841 189.797 49.618 189.797 55.1909C189.797 58.7244 188.438 62.0951 185.379 64.0636L190.066 72.4973H184.493L181.229 65.664C180.344 65.7985 179.395 65.9047 178.34 65.9047H176.23V72.5327H171.57V44.4912L171.577 44.4841ZM178.481 61.3728C182.9 61.3728 185.244 58.859 185.244 55.1838C185.244 51.5087 182.829 49.0303 178.481 49.0303H176.237V61.3728H178.481Z" fill="black"/>
</g>
<defs>
<clipPath id="clip0_1062_13509">
<rect width="190.073" height="73" fill="white"/>
</clipPath>
</defs>
</svg>
