<svg width="81" height="81" viewBox="0 0 81 81" fill="none" xmlns="http://www.w3.org/2000/svg">
<path d="M12.4734 68.9529L1.31396 40.4936L12.4734 12.0307L40.5009 1.30664L68.5318 12.0307L79.6913 40.4936L68.5318 68.9529L40.5009 79.677L12.4734 68.9529Z" fill="white"/>
<path d="M40.5 2.61223L67.5906 12.9776L78.3808 40.4895L67.5906 68.0015L40.5 78.3669L13.4094 68.0015L2.61919 40.4895L13.4094 12.9776L40.5 2.61223ZM40.5 0L39.6293 0.334373L12.5387 10.6997L11.5321 11.0828L11.1385 12.0859L0.348297 39.5979L0 40.4895L0.348297 41.3812L11.1385 68.8932L11.5321 69.8963L12.5387 70.2794L39.6293 80.6447L40.5 80.9791L41.3707 80.6447L68.4613 70.2794L69.4679 69.8963L69.8615 68.8932L80.6517 41.3812L81 40.4895L80.6517 39.5979L69.8615 12.0859L69.4679 11.0828L68.4613 10.6997L41.3707 0.334373L40.5 0Z" fill="black"/>
<path d="M5.76898 32.5762L2.65869 40.5069L13.4489 68.0224L40.5395 78.3877L46.5337 76.0924L40.5395 40.5069L5.76898 32.5762Z" fill="#F4F4F4"/>
<path d="M39.4546 9.47358H38.772V9.05214C39.2387 9.01731 39.5173 8.82923 39.6357 8.61328H40.0572V12.5978H39.4546V9.47358Z" fill="black"/>
<path d="M40.6412 11.6998V9.5125C40.6412 8.94478 41.0208 8.55469 41.592 8.55469C42.1632 8.55469 42.5359 8.9413 42.5359 9.5125V9.64486H41.9543V9.48465C41.9543 9.2687 41.8115 9.1259 41.5955 9.1259C41.3796 9.1259 41.2437 9.2687 41.2437 9.48465V10.3972C41.3343 10.2509 41.5328 10.1116 41.8289 10.1116C42.2886 10.1116 42.5638 10.432 42.5638 10.9266V11.6998C42.5638 12.2675 42.1772 12.6576 41.606 12.6576C41.0348 12.6576 40.6377 12.271 40.6377 11.6998H40.6412ZM41.9612 11.7277V11.0172C41.9612 10.7733 41.8358 10.6584 41.6303 10.6584C41.39 10.6584 41.2437 10.8047 41.2437 11.0555V11.7277C41.2437 11.9436 41.3796 12.0864 41.6094 12.0864C41.8393 12.0864 41.9612 11.9436 41.9612 11.7277Z" fill="black"/>
<path d="M9.32758 42.0537V42.7364H8.90614C8.87131 42.2697 8.68323 41.991 8.46729 41.8726V41.4512H12.4518V42.0537H9.32758Z" fill="black"/>
<path d="M11.886 40.2415V39.0469H12.4538V40.959H11.9313L10.5242 40.0778C10.0017 39.7469 9.72658 39.6494 9.42008 39.6494C9.14144 39.6494 8.98819 39.7818 8.98819 40.0151C8.98819 40.2485 9.14144 40.3808 9.42008 40.3808H9.65344V40.9625H9.46536C8.81753 40.9625 8.41699 40.6107 8.41699 40.0117C8.41699 39.4126 8.78618 39.0504 9.40267 39.0504C9.83456 39.0504 10.1863 39.1827 10.8307 39.5867L11.8825 40.2485L11.886 40.2415Z" fill="black"/>
<path d="M39.7153 69.6741V69.3049C39.7153 68.7023 40.0741 68.3262 40.7184 68.3262C41.3628 68.3262 41.7215 68.7023 41.7215 69.3049V69.6741C41.7215 70.0502 41.5613 70.3184 41.2792 70.4543C41.5369 70.5971 41.6832 70.8583 41.6832 71.224V71.4852C41.6832 72.0599 41.3349 72.4256 40.7219 72.4256C40.1089 72.4256 39.7606 72.0599 39.7606 71.4852V71.224C39.7606 70.8583 39.9104 70.5971 40.1646 70.4543C39.879 70.3184 39.7223 70.0502 39.7223 69.6741H39.7153ZM40.3179 69.7089C40.3179 70.0293 40.4537 70.1652 40.7149 70.1652C40.9762 70.1652 41.112 70.0293 41.112 69.7089V69.2944C41.112 69.0332 40.9762 68.8974 40.7149 68.8974C40.4537 68.8974 40.3179 69.0332 40.3179 69.2944V69.7089ZM41.0737 71.1892C41.0737 70.8687 40.9379 70.7329 40.7149 70.7329C40.492 70.7329 40.3562 70.8687 40.3562 71.1892V71.4957C40.3562 71.729 40.4816 71.8544 40.7149 71.8544C40.9483 71.8544 41.0737 71.729 41.0737 71.4957V71.1892Z" fill="black"/>
<path d="M69.3813 41.9143V41.5903H68.5488V40.9878H69.3813V39.8105H69.9211L72.5333 40.8763V41.5938H69.949V41.9177H69.3813V41.9143ZM69.949 40.9878H71.5128L69.949 40.3783V40.9878Z" fill="black"/>
<path d="M15.6758 15.4336L18.1766 17.9344" stroke="black" stroke-width="0.348297" stroke-miterlimit="10" stroke-linecap="round"/>
<path d="M63.1914 62.9434L65.6922 65.4476" stroke="black" stroke-width="0.348297" stroke-miterlimit="10" stroke-linecap="round"/>
<path d="M65.6922 15.4336L63.1914 17.9344" stroke="black" stroke-width="0.348297" stroke-miterlimit="10" stroke-linecap="round"/>
<path d="M18.1766 62.9434L15.6758 65.4476" stroke="black" stroke-width="0.348297" stroke-miterlimit="10" stroke-linecap="round"/>
</svg>
