<svg width="270" height="332" viewBox="0 0 270 332" fill="none" xmlns="http://www.w3.org/2000/svg">
<path d="M120.308 0.376953L109.191 75.9522H96.5471L90.5116 26.189L84.4761 75.9522H71.8563L60.7395 0.376953H72.2858L78.536 51.4523L84.7862 0.376953H96.4517L102.702 51.4523L108.952 0.376953H120.284H120.308Z" fill="black"/>
<path d="M129.283 0.376953H161.775V11.1836H140.71V32.2483H157.433V43.0551H140.71V65.1933H161.775V76H129.283V0.424639V0.376953Z" fill="black"/>
<path d="M208.395 51.7625V57.9172C208.395 68.8193 201.381 75.9522 190.479 75.9522H171.371V0.376953H189.501C200.403 0.376953 207.417 7.50984 207.417 18.412V22.3959C207.417 29.1948 204.721 34.0614 199.759 36.8526C205.27 39.4528 208.395 44.5103 208.395 51.7625ZM182.798 11.1598V31.6758H187.879C193.39 31.6758 195.966 29.0756 195.966 23.5887V18.1973C195.966 13.7601 193.366 11.1836 188.952 11.1836H182.798V11.1598ZM196.944 50.5697C196.944 45.059 194.344 42.4825 188.857 42.4825H182.822V65.1455H189.954C194.392 65.1455 196.968 62.5452 196.968 58.1319V50.5697H196.944Z" fill="black"/>
<path d="M41.4528 292.044L4.37866 197.496L41.4528 102.936L134.566 67.3086L227.691 102.936L264.765 197.496L227.691 292.044L134.566 327.672L41.4528 292.044Z" fill="white"/>
<path d="M134.567 71.6471L224.568 106.083L260.415 197.484L224.568 288.885L134.567 323.321L44.5664 288.885L8.71886 197.484L44.5664 106.083L134.567 71.6471ZM134.567 62.9688L131.674 64.0796L41.6736 98.5155L38.3295 99.7883L37.022 103.121L1.17445 194.522L0.017334 197.484L1.17445 200.446L37.022 291.847L38.3295 295.179L41.6736 296.452L131.674 330.888L134.567 331.999L137.46 330.888L227.461 296.452L230.805 295.179L232.112 291.847L267.96 200.446L269.117 197.484L267.96 194.522L232.112 103.121L230.805 99.7883L227.461 98.5155L137.46 64.0796L134.567 62.9688Z" fill="black"/>
<path d="M19.1824 171.195L8.84937 197.543L44.6969 288.955L134.698 323.391L154.612 315.766L134.698 197.543L19.1824 171.195Z" fill="#F4F4F4"/>
<path d="M131.095 94.4421H128.827V93.042C130.377 92.9263 131.303 92.3014 131.697 91.584H133.097V104.821H131.095V94.4421Z" fill="black"/>
<path d="M135.039 101.836V94.5688C135.039 92.6827 136.3 91.3867 138.198 91.3867C140.095 91.3867 141.333 92.6711 141.333 94.5688V95.0085H139.401V94.4762C139.401 93.7588 138.926 93.2844 138.209 93.2844C137.492 93.2844 137.04 93.7588 137.04 94.4762V97.5079C137.341 97.0219 138.001 96.559 138.984 96.559C140.512 96.559 141.426 97.6236 141.426 99.2667V101.836C141.426 103.722 140.141 105.018 138.244 105.018C136.346 105.018 135.027 103.733 135.027 101.836H135.039ZM139.424 101.928V99.5676C139.424 98.7576 139.007 98.3757 138.325 98.3757C137.526 98.3757 137.04 98.8617 137.04 99.6949V101.928C137.04 102.646 137.492 103.12 138.255 103.12C139.019 103.12 139.424 102.646 139.424 101.928Z" fill="black"/>
<path d="M31.0043 202.68V204.948H29.6042C29.4885 203.397 28.8637 202.471 28.1462 202.078V200.678H41.3837V202.68H31.0043Z" fill="black"/>
<path d="M39.5032 196.662V192.693H41.3893V199.046H39.6536L34.9788 196.118C33.2432 195.019 32.329 194.695 31.3107 194.695C30.385 194.695 29.8759 195.135 29.8759 195.91C29.8759 196.685 30.385 197.125 31.3107 197.125H32.086V199.058H31.4612C29.3089 199.058 27.9783 197.889 27.9783 195.899C27.9783 193.908 29.2048 192.705 31.2529 192.705C32.6877 192.705 33.8564 193.145 35.9971 194.487L39.4916 196.685L39.5032 196.662Z" fill="black"/>
<path d="M131.96 294.439V293.212C131.96 291.211 133.152 289.961 135.292 289.961C137.433 289.961 138.625 291.211 138.625 293.212V294.439C138.625 295.689 138.092 296.58 137.155 297.031C138.011 297.505 138.497 298.373 138.497 299.588V300.456C138.497 302.365 137.34 303.58 135.304 303.58C133.267 303.58 132.11 302.365 132.11 300.456V299.588C132.11 298.373 132.608 297.505 133.452 297.031C132.504 296.58 131.983 295.689 131.983 294.439H131.96ZM133.962 294.555C133.962 295.619 134.413 296.071 135.281 296.071C136.148 296.071 136.6 295.619 136.6 294.555V293.178C136.6 292.31 136.148 291.859 135.281 291.859C134.413 291.859 133.962 292.31 133.962 293.178V294.555ZM136.472 299.472C136.472 298.408 136.021 297.957 135.281 297.957C134.54 297.957 134.089 298.408 134.089 299.472V300.491C134.089 301.266 134.505 301.683 135.281 301.683C136.056 301.683 136.472 301.266 136.472 300.491V299.472Z" fill="black"/>
<path d="M230.517 202.216V201.139H227.752V199.138H230.517V195.227H232.311L240.989 198.767V201.151H232.403V202.227H230.517V202.216ZM232.403 199.138H237.599L232.403 197.113V199.138Z" fill="black"/>
<path d="M52.0994 114.242L60.4075 122.55" stroke="black" stroke-width="1.15712" stroke-miterlimit="10" stroke-linecap="round"/>
<path d="M209.951 272.084L218.259 280.404" stroke="black" stroke-width="1.15712" stroke-miterlimit="10" stroke-linecap="round"/>
<path d="M218.259 114.242L209.951 122.55" stroke="black" stroke-width="1.15712" stroke-miterlimit="10" stroke-linecap="round"/>
<path d="M60.4075 272.082L52.0994 280.402" stroke="black" stroke-width="1.15712" stroke-miterlimit="10" stroke-linecap="round"/>
</svg>
