<svg width="193" height="73" viewBox="0 0 193 73" fill="none" xmlns="http://www.w3.org/2000/svg">
<g clip-path="url(#clip0_1062_13526)">
<path d="M0 0H4.93427L11.8608 21.3223L18.4732 0H22.5148L29.2985 21.3223L36.0251 0H40.9237L32.0477 28.2131H27.2491L20.494 6.79086L13.9816 28.2131H9.14732L0 0Z" fill="black"/>
<path d="M42.8446 0H58.3044V4.45583H47.5432V11.6894H57.4189V15.8382H47.5432V23.7216H58.3044V28.2131H42.8446V0Z" fill="black"/>
<path d="M61.5605 0H68.8655C75.1708 0 78.3271 2.36359 78.3271 7.46924C78.3271 10.2113 77.056 12.1679 74.9709 13.089C78.0914 13.9102 79.9052 16.4809 79.9052 19.7014C79.9052 25.2212 76.3419 28.206 68.6299 28.206H61.5677V0H61.5605ZM68.9655 11.618C72.1503 11.618 73.8998 10.5897 73.8998 7.9191C73.8998 5.04138 72.2217 4.04881 68.9655 4.04881H66.0164V11.6252H68.9655V11.618ZM68.5156 23.893C73.0429 23.893 75.128 22.8647 75.128 19.6799C75.128 16.6665 73.0715 15.3955 68.9584 15.3955H66.0092V23.9001H68.5085L68.5156 23.893Z" fill="black"/>
<path d="M2.36365 44.2013H7.71208C18.4089 44.2013 23.1004 50.6137 23.1004 58.29C23.1004 65.9663 18.4018 72.4787 7.71208 72.4787H2.36365V44.2013ZM8.22621 67.7515C15.117 67.7515 18.3732 63.6384 18.3732 58.29C18.3732 52.9416 15.117 48.8999 8.22621 48.8999H7.06227V67.7515H8.22621Z" fill="black"/>
<path d="M26.2566 44.2727H41.7163V48.7285H30.9552V55.9621H40.8309V60.1109H30.9552V67.9943H41.7163V72.4859H26.2566V44.2727Z" fill="black"/>
<path d="M42.6018 44.2727H47.6075L55.2552 65.695L62.6602 44.2727H67.6302L57.7902 72.4859H52.6846L42.6089 44.2727H42.6018Z" fill="black"/>
<path d="M69.5438 44.2727H85.0036V48.7285H74.2424V55.9621H84.1181V60.1109H74.2424V67.9943H85.0036V72.4859H69.5438V44.2727Z" fill="black"/>
<path d="M88.2598 44.2371H92.9584V67.9944H102.384V72.4859H88.2598V44.2371Z" fill="black"/>
<path d="M116.194 73C107.661 73 101.52 66.1805 101.52 58.3257C101.52 50.4709 107.654 43.6871 116.194 43.6871C124.735 43.6871 130.833 50.5066 130.833 58.3257C130.833 66.1448 124.699 73 116.194 73ZM116.194 68.3013C121.85 68.3013 126.134 63.8098 126.134 58.3257C126.134 52.8416 121.85 48.3858 116.194 48.3858C110.539 48.3858 106.219 52.8416 106.219 58.3257C106.219 63.8098 110.503 68.3013 116.194 68.3013Z" fill="black"/>
<path d="M133.982 44.2371H140.223C149.099 44.2371 152.355 49.4141 152.355 55.0339C152.355 60.6537 148.963 65.8307 140.737 65.8307H138.681V72.5145H133.982V44.2371ZM140.944 61.2749C145.4 61.2749 147.764 58.7399 147.764 55.0339C147.764 51.3278 145.329 48.8286 140.944 48.8286H138.681V61.2749H140.944Z" fill="black"/>
<path d="M155.233 44.2727H170.693V48.7285H159.932V55.9621H169.807V60.1109H159.932V67.9943H170.693V72.4859H155.233V44.2727Z" fill="black"/>
<path d="M173.949 44.2371H180.19C189.066 44.2371 192.322 49.4141 192.322 55.0339C192.322 58.5971 190.951 61.9961 187.866 63.9813L192.593 72.4859H186.974L183.682 65.5951C182.789 65.7308 181.832 65.8379 180.768 65.8379H178.64V72.5216H173.942V44.2442L173.949 44.2371ZM180.904 61.2749C185.36 61.2749 187.723 58.7399 187.723 55.0339C187.723 51.3278 185.288 48.8286 180.904 48.8286H178.64V61.2749H180.904Z" fill="black"/>
</g>
<defs>
<clipPath id="clip0_1062_13526">
<rect width="192.593" height="73" fill="white"/>
</clipPath>
</defs>
</svg>
