<svg width="306" height="336" viewBox="0 0 306 336" fill="none" xmlns="http://www.w3.org/2000/svg">
<rect width="306" height="336" fill="#FFEC87"/>
<g clip-path="url(#clip0_1469_9247)">
<path d="M32 40H36.9343L43.8608 61.3223L50.4731 40H54.5148L61.2985 61.3223L68.0251 40H72.9237L64.0477 68.2131H59.2491L52.494 46.7909L45.9816 68.2131H41.1473L32 40Z" fill="black"/>
<path d="M74.8446 40H90.3044V44.4558H79.5432V51.6894H89.4189V55.8382H79.5432V63.7216H90.3044V68.2131H74.8446V40Z" fill="black"/>
<path d="M93.5605 40H100.866C107.171 40 110.327 42.3636 110.327 47.4692C110.327 50.2113 109.056 52.1679 106.971 53.089C110.091 53.9102 111.905 56.4809 111.905 59.7014C111.905 65.2212 108.342 68.206 100.63 68.206H93.5677V40H93.5605ZM100.966 51.618C104.15 51.618 105.9 50.5897 105.9 47.9191C105.9 45.0414 104.222 44.0488 100.966 44.0488H98.0164V51.6252H100.966V51.618ZM100.516 63.893C105.043 63.893 107.128 62.8647 107.128 59.6799C107.128 56.6665 105.071 55.3955 100.958 55.3955H98.0092V63.9001H100.509L100.516 63.893Z" fill="black"/>
<path d="M34.3636 84.2013H39.7121C50.4089 84.2013 55.1004 90.6137 55.1004 98.29C55.1004 105.966 50.4018 112.479 39.7121 112.479H34.3636V84.2013ZM40.2262 107.752C47.117 107.752 50.3732 103.638 50.3732 98.29C50.3732 92.9416 47.117 88.8999 40.2262 88.8999H39.0623V107.752H40.2262Z" fill="black"/>
<path d="M58.2566 84.2727H73.7163V88.7285H62.9552V95.9621H72.8309V100.111H62.9552V107.994H73.7163V112.486H58.2566V84.2727Z" fill="black"/>
<path d="M74.6018 84.2727H79.6075L87.2552 105.695L94.6602 84.2727H99.6302L89.7902 112.486H84.6846L74.6089 84.2727H74.6018Z" fill="black"/>
<path d="M101.544 84.2727H117.004V88.7285H106.242V95.9621H116.118V100.111H106.242V107.994H117.004V112.486H101.544V84.2727Z" fill="black"/>
<path d="M120.26 84.2371H124.958V107.994H134.384V112.486H120.26V84.2371Z" fill="black"/>
<path d="M148.194 113C139.661 113 133.52 106.181 133.52 98.3257C133.52 90.4709 139.654 83.6871 148.194 83.6871C156.735 83.6871 162.833 90.5066 162.833 98.3257C162.833 106.145 156.699 113 148.194 113ZM148.194 108.301C153.85 108.301 158.134 103.81 158.134 98.3257C158.134 92.8416 153.85 88.3858 148.194 88.3858C142.539 88.3858 138.219 92.8416 138.219 98.3257C138.219 103.81 142.503 108.301 148.194 108.301Z" fill="black"/>
<path d="M165.982 84.2371H172.223C181.099 84.2371 184.355 89.4141 184.355 95.0339C184.355 100.654 180.963 105.831 172.737 105.831H170.681V112.514H165.982V84.2371ZM172.944 101.275C177.4 101.275 179.764 98.7399 179.764 95.0339C179.764 91.3278 177.329 88.8286 172.944 88.8286H170.681V101.275H172.944Z" fill="black"/>
<path d="M187.233 84.2727H202.693V88.7285H191.932V95.9621H201.807V100.111H191.932V107.994H202.693V112.486H187.233V84.2727Z" fill="black"/>
<path d="M205.949 84.2371H212.19C221.066 84.2371 224.322 89.4141 224.322 95.0339C224.322 98.5971 222.951 101.996 219.866 103.981L224.593 112.486H218.974L215.682 105.595C214.789 105.731 213.832 105.838 212.768 105.838H210.64V112.522H205.942V84.2442L205.949 84.2371ZM212.904 101.275C217.36 101.275 219.723 98.7399 219.723 95.0339C219.723 91.3278 217.288 88.8286 212.904 88.8286H210.64V101.275H212.904Z" fill="black"/>
</g>
<path d="M32.9395 152.5V143.309H38.6396V144.515H34.3359V147.295H38.2334V148.488H34.3359V152.5H32.9395ZM39.868 152.5V145.606H41.1757V146.698H41.2518C41.5057 145.962 42.1913 145.505 43.0038 145.505C43.1688 145.505 43.4354 145.518 43.5751 145.53V146.825C43.4608 146.8 43.1434 146.749 42.8641 146.749C41.9247 146.749 41.2264 147.396 41.2264 148.298V152.5H39.868ZM47.1521 152.64C45.197 152.64 43.9275 151.218 43.9275 149.085C43.9275 146.939 45.197 145.518 47.1521 145.518C49.0945 145.518 50.364 146.939 50.364 149.085C50.364 151.218 49.0945 152.64 47.1521 152.64ZM47.1521 151.51C48.3962 151.51 48.9929 150.405 48.9929 149.085C48.9929 147.765 48.3962 146.635 47.1521 146.635C45.8826 146.635 45.2859 147.765 45.2859 149.085C45.2859 150.405 45.8826 151.51 47.1521 151.51ZM52.9254 148.412V152.5H51.567V145.606H52.8746V146.736H52.9508C53.2809 146 53.9538 145.518 54.9821 145.518C56.4039 145.518 57.3307 146.406 57.3307 148.12V152.5H55.985V148.285C55.985 147.282 55.4391 146.686 54.525 146.686C53.5983 146.686 52.9254 147.308 52.9254 148.412ZM62.0757 145.606V146.686H60.6665V150.469C60.6665 151.243 61.0601 151.383 61.4917 151.396C61.6821 151.396 61.9868 151.37 62.1773 151.357V152.538C61.9868 152.563 61.6948 152.589 61.3267 152.589C60.2603 152.589 59.3081 152.005 59.3208 150.748V146.686H58.3052V145.606H59.3208V143.956H60.6665V145.606H62.0757ZM66.1605 152.64C64.1293 152.64 62.8852 151.243 62.8852 149.098C62.8852 146.978 64.1547 145.518 66.0717 145.518C67.6459 145.518 69.1313 146.495 69.1313 148.983V149.466H64.2309C64.2689 150.773 65.037 151.522 66.1732 151.522C66.9477 151.522 67.4428 151.192 67.6713 150.773H69.0424C68.7377 151.891 67.6713 152.64 66.1605 152.64ZM64.2436 148.45H67.7982C67.7982 147.396 67.1254 146.635 66.0844 146.635C64.9989 146.635 64.2943 147.473 64.2436 148.45ZM71.7054 148.412V152.5H70.347V145.606H71.6546V146.736H71.7307C72.0608 146 72.7337 145.518 73.762 145.518C75.1839 145.518 76.1106 146.406 76.1106 148.12V152.5H74.7649V148.285C74.7649 147.282 74.219 146.686 73.305 146.686C72.3782 146.686 71.7054 147.308 71.7054 148.412ZM80.2082 152.64C78.5451 152.64 77.3263 151.294 77.3263 149.072C77.3263 146.825 78.5578 145.518 80.2209 145.518C81.5031 145.518 81.9728 146.292 82.214 146.724H82.2775V143.309H83.6359V152.5H82.3156V151.421H82.214C81.9601 151.878 81.465 152.64 80.2082 152.64ZM80.5129 151.484C81.6681 151.484 82.3156 150.494 82.3156 149.047C82.3156 147.612 81.6808 146.673 80.5129 146.673C79.3068 146.673 78.7101 147.688 78.7101 149.047C78.7101 150.431 79.3322 151.484 80.5129 151.484Z" fill="black"/>
<path d="M87.62 148.164C87.068 148.164 86.612 147.708 86.612 147.156C86.612 146.604 87.068 146.148 87.62 146.148C88.172 146.148 88.628 146.604 88.628 147.156C88.628 147.708 88.172 148.164 87.62 148.164Z" fill="black"/>
<path d="M96.9414 145.733C96.8525 144.883 96.1035 144.388 95.0498 144.388C93.9199 144.388 93.209 144.959 93.209 145.746C93.209 146.622 94.1611 146.952 94.8848 147.13L95.7734 147.371C96.9541 147.65 98.4141 148.298 98.4268 149.961C98.4141 151.51 97.1826 152.652 95.0117 152.652C92.9551 152.652 91.6602 151.624 91.5713 149.948H92.9678C93.0566 150.951 93.9326 151.434 95.0117 151.434C96.1797 151.434 97.0303 150.837 97.043 149.936C97.0303 149.136 96.2812 148.806 95.3037 148.552L94.2119 148.26C92.7393 147.854 91.8125 147.104 91.8125 145.822C91.8125 144.235 93.2344 143.182 95.0879 143.182C96.9541 143.182 98.2617 144.248 98.2998 145.733H96.9414ZM99.7948 152.5V143.309H103.07C105.203 143.309 106.257 144.591 106.257 146.292C106.257 147.98 105.203 149.275 103.07 149.275H101.191V152.5H99.7948ZM101.191 148.082H102.931C104.289 148.082 104.848 147.32 104.848 146.292C104.848 145.251 104.289 144.502 102.931 144.502H101.191V148.082ZM107.409 152.5H105.924L109.224 143.309H110.837L114.15 152.5H112.665L111.827 150.075H108.247L107.409 152.5ZM108.653 148.907H111.421L110.062 144.984H109.999L108.653 148.907ZM128.122 151.142V152.157H117.711V151.142H128.122ZM127.169 143.296V144.286H125.43V148.082H127.131V149.047H118.626V148.082H120.327V144.286H118.6V143.296H127.169ZM121.52 148.082H124.25V144.286H121.52V148.082ZM133.222 143.423V147.473H130.34V149.809C131.578 149.802 132.759 149.758 134.162 149.504L134.263 150.494C132.689 150.773 131.394 150.812 129.959 150.824H129.172V146.508H132.067V144.4H129.16V143.423H133.222ZM138.579 142.204V153.579H137.424V142.204H138.579ZM136.244 142.458V152.995H135.101V147.206H133.755V146.229H135.101V142.458H136.244ZM149.355 142.217V148.691H148.149V142.217H149.355ZM149.355 149.263V153.439H141.877V149.263H149.355ZM143.071 150.228V152.462H148.174V150.228H143.071ZM143.185 142.788C144.924 142.788 146.206 143.88 146.206 145.479C146.206 147.041 144.924 148.146 143.185 148.146C141.446 148.146 140.151 147.041 140.151 145.479C140.151 143.88 141.446 142.788 143.185 142.788ZM143.185 143.804C142.106 143.804 141.331 144.464 141.331 145.479C141.331 146.457 142.106 147.13 143.185 147.13C144.251 147.13 145.026 146.457 145.026 145.479C145.026 144.464 144.251 143.804 143.185 143.804ZM160.536 142.217V153.579H159.318V150.862H156.804V149.948H159.318V142.217H160.536ZM150.977 148.133C153.135 148.12 156.004 148.107 158.492 147.765L158.556 148.653C157.477 148.844 156.353 148.958 155.255 149.021V153.224H154.049V149.085C153.008 149.129 152.018 149.136 151.142 149.136L150.977 148.133ZM154.722 142.737C156.398 142.737 157.604 143.664 157.604 145.01C157.604 146.381 156.398 147.27 154.722 147.27C153.008 147.27 151.815 146.381 151.815 145.01C151.815 143.664 153.008 142.737 154.722 142.737ZM154.722 143.664C153.668 143.664 152.944 144.21 152.957 145.01C152.944 145.822 153.668 146.343 154.722 146.343C155.737 146.343 156.461 145.822 156.461 145.01C156.461 144.21 155.737 143.664 154.722 143.664ZM171.286 143.309V144.692C171.286 146.355 171.286 147.917 170.791 150.278L169.598 150.164C169.839 149.123 169.966 148.209 170.029 147.358L163.199 147.727L163.047 146.736L170.093 146.47C170.112 145.86 170.112 145.276 170.118 144.692V144.299H163.364V143.309H171.286ZM172.505 151.065V152.056H162.133V151.065H172.505Z" fill="black"/>
<path d="M175.62 148.164C175.068 148.164 174.612 147.708 174.612 147.156C174.612 146.604 175.068 146.148 175.62 146.148C176.172 146.148 176.628 146.604 176.628 147.156C176.628 147.708 176.172 148.164 175.62 148.164Z" fill="black"/>
<path d="M186.697 145.232C186.328 144.057 185.439 143.346 184.127 143.346C182.459 143.346 181.174 144.658 181.174 147.051C181.174 149.443 182.445 150.756 184.195 150.756C185.774 150.756 186.82 149.758 186.848 148.172H184.414V146.928H188.311V148.049C188.311 150.551 186.588 152.137 184.182 152.137C181.502 152.137 179.684 150.182 179.684 147.051C179.684 143.893 181.557 141.965 184.113 141.965C186.26 141.965 187.9 143.305 188.242 145.232H186.697ZM190.249 152V144.576H191.712V152H190.249ZM190.987 143.428C190.481 143.428 190.057 143.045 190.057 142.566C190.057 142.088 190.481 141.705 190.987 141.705C191.479 141.705 191.903 142.088 191.903 142.566C191.903 143.045 191.479 143.428 190.987 143.428ZM196.822 144.576V145.738H195.304V149.812C195.304 150.646 195.728 150.797 196.193 150.811C196.398 150.811 196.726 150.783 196.931 150.77V152.041C196.726 152.068 196.411 152.096 196.015 152.096C194.866 152.096 193.841 151.467 193.855 150.113V145.738H192.761V144.576H193.855V142.799H195.304V144.576H196.822Z" fill="black"/>
<path d="M39.2461 278.102C39.2461 280.992 40.9453 284.039 43.7969 285.23L42.6055 286.949C40.5156 286.051 38.9922 284.195 38.1914 281.949C37.3711 284.371 35.8281 286.402 33.7578 287.379L32.5078 285.68C35.3008 284.391 37.0391 281.109 37.0391 278.102V276.617H33.1523V274.82H43.1133V276.617H39.2461V278.102ZM47.2734 273.082V290.738H45.0859V273.082H47.2734ZM63.8758 273.102V286.461H61.6883V284.918H58.2313V283.395H61.6883V273.102H63.8758ZM64.2859 288.629V290.387H51.3367V285.172H53.5047V288.629H64.2859ZM48.993 281.031C52.2547 281.012 56.6297 280.973 60.3797 280.504L60.4969 282.066C59.0418 282.311 57.5379 282.477 56.0438 282.574V285.973H53.8758V282.691C52.2254 282.76 50.6531 282.77 49.2664 282.77L48.993 281.031ZM54.7547 273.746C57.3328 273.746 59.1297 275.016 59.1492 276.871C59.1297 278.766 57.3328 279.977 54.7547 279.977C52.1375 279.977 50.3406 278.766 50.3406 276.871C50.3406 275.016 52.1375 273.746 54.7547 273.746ZM54.7547 275.348C53.3484 275.348 52.3914 275.914 52.3914 276.871C52.3914 277.828 53.3484 278.395 54.7547 278.395C56.1023 278.395 57.0594 277.828 57.0789 276.871C57.0594 275.914 56.1023 275.348 54.7547 275.348ZM79.3844 273.082V280.113H82.0992V281.91H79.3844V290.738H77.2359V273.082H79.3844ZM75.8688 275.797V277.535H65.4586V275.797H69.6383V273.336H71.8063V275.797H75.8688ZM70.732 278.688C73.2711 278.688 75.1656 280.406 75.1656 282.848C75.1656 285.289 73.2711 286.988 70.732 286.988C68.1539 286.988 66.2594 285.289 66.2789 282.848C66.2594 280.406 68.1539 278.688 70.732 278.688ZM70.732 280.465C69.3453 280.465 68.3492 281.402 68.3492 282.848C68.3492 284.293 69.3453 285.211 70.732 285.191C72.0797 285.211 73.0758 284.293 73.0953 282.848C73.0758 281.402 72.0797 280.465 70.732 280.465ZM96.7875 273.082V290.738H94.6V273.082H96.7875ZM91.5141 274.957C91.5141 280.211 89.4828 284.684 83.2914 287.613L82.1586 285.875C86.7777 283.678 88.9262 280.689 89.307 276.676H83.057V274.957H91.5141Z" fill="black"/>
<circle cx="119" cy="282" r="12" fill="black"/>
<path d="M121.838 281.03C121.366 280.678 120.86 280.221 120.319 279.658C119.791 279.096 119.32 278.533 118.904 277.97L120.61 277C121.082 277.619 121.616 278.238 122.212 278.857C122.809 279.461 123.433 280.038 124.085 280.586C124.737 281.121 125.376 281.592 126 282C125.376 282.408 124.737 282.886 124.085 283.435C123.433 283.969 122.809 284.546 122.212 285.165C121.616 285.769 121.082 286.381 120.61 287L118.904 286.03C119.32 285.453 119.791 284.89 120.319 284.342C120.86 283.779 121.366 283.322 121.838 282.97H112V281.03H121.838Z" fill="white"/>
<defs>
<clipPath id="clip0_1469_9247">
<rect width="192.593" height="73" fill="white" transform="translate(32 40)"/>
</clipPath>
</defs>
</svg>
