<svg width="143" height="54" viewBox="0 0 143 54" fill="none" xmlns="http://www.w3.org/2000/svg">
<g clip-path="url(#clip0_1062_14260)">
<path d="M0 0H3.65001L8.77375 15.7727L13.6651 0H16.6548L21.6729 15.7727L26.6487 0H30.2723L23.7065 20.87H20.1569L15.1599 5.02338L10.3426 20.87H6.76651L0 0Z" fill="white"/>
<path d="M31.6932 0H43.1292V3.2961H35.1689V8.64697H42.4742V11.7159H35.1689V17.5475H43.1292V20.87H31.6932V0Z" fill="white"/>
<path d="M45.538 0H50.9417C55.6059 0 57.9406 1.74841 57.9406 5.52519C57.9406 7.55356 57.0004 9.00088 55.4579 9.68228C57.7663 10.2897 59.108 12.1913 59.108 14.5736C59.108 18.6568 56.4721 20.8647 50.7673 20.8647H45.5432V0H45.538ZM51.0156 8.59415C53.3715 8.59415 54.6656 7.83351 54.6656 5.85797C54.6656 3.72924 53.4243 2.99501 51.0156 2.99501H48.8341V8.59943H51.0156V8.59415ZM50.6828 17.6743C54.0318 17.6743 55.5742 16.9136 55.5742 14.5578C55.5742 12.3287 54.0529 11.3884 51.0103 11.3884H48.8288V17.6795H50.6776L50.6828 17.6743Z" fill="white"/>
<path d="M1.74841 32.6969H5.70479C13.6175 32.6969 17.0879 37.4403 17.0879 43.1187C17.0879 48.7971 13.6122 53.6144 5.70479 53.6144H1.74841V32.6969ZM6.0851 50.1176C11.1824 50.1176 13.5911 47.0751 13.5911 43.1187C13.5911 39.1623 11.1824 36.1726 6.0851 36.1726H5.22411V50.1176H6.0851Z" fill="white"/>
<path d="M19.4227 32.7496H30.8587V36.0457H22.8984V41.3966H30.2037V44.4656H22.8984V50.2971H30.8587V53.6196H19.4227V32.7496Z" fill="white"/>
<path d="M31.5137 32.7496H35.2165L40.8737 48.5963L46.3514 32.7496H50.0278L42.7489 53.6196H38.9721L31.519 32.7496H31.5137Z" fill="white"/>
<path d="M51.4434 32.7496H62.8793V36.0457H54.9191V41.3966H62.2243V44.4656H54.9191V50.2971H62.8793V53.6196H51.4434V32.7496Z" fill="white"/>
<path d="M65.2881 32.7233H68.7638V50.2972H75.7363V53.6197H65.2881V32.7233Z" fill="white"/>
<path d="M85.9521 54C79.6399 54 75.0972 48.9555 75.0972 43.1451C75.0972 37.3346 79.6346 32.3165 85.9521 32.3165C92.2696 32.3165 96.7806 37.361 96.7806 43.1451C96.7806 48.9291 92.2432 54 85.9521 54ZM85.9521 50.5243C90.1356 50.5243 93.3049 47.2018 93.3049 43.1451C93.3049 39.0883 90.1356 35.7922 85.9521 35.7922C81.7686 35.7922 78.5729 39.0883 78.5729 43.1451C78.5729 47.2018 81.7422 50.5243 85.9521 50.5243Z" fill="white"/>
<path d="M99.11 32.7233H103.727C110.292 32.7233 112.701 36.5529 112.701 40.71C112.701 44.8671 110.192 48.6967 104.107 48.6967H102.586V53.6408H99.11V32.7233ZM104.26 45.3266C107.556 45.3266 109.305 43.4514 109.305 40.71C109.305 37.9685 107.503 36.1197 104.26 36.1197H102.586V45.3266H104.26Z" fill="white"/>
<path d="M114.83 32.7496H126.266V36.0457H118.306V41.3966H125.611V44.4656H118.306V50.2971H126.266V53.6196H114.83V32.7496Z" fill="white"/>
<path d="M128.675 32.7233H133.291C139.857 32.7233 142.266 36.5529 142.266 40.71C142.266 43.3458 141.252 45.8601 138.97 47.3286L142.466 53.6197H138.309L135.874 48.5223C135.214 48.6227 134.506 48.7019 133.719 48.7019H132.145V53.6461H128.669V32.7285L128.675 32.7233ZM133.819 45.3266C137.116 45.3266 138.864 43.4514 138.864 40.71C138.864 37.9685 137.063 36.1197 133.819 36.1197H132.145V45.3266H133.819Z" fill="white"/>
</g>
<defs>
<clipPath id="clip0_1062_14260">
<rect width="142.466" height="54" fill="white"/>
</clipPath>
</defs>
</svg>
