<svg width="1024" height="400" viewBox="0 0 1024 400" fill="none" xmlns="http://www.w3.org/2000/svg">
<g clip-path="url(#clip0_370_14720)">
<rect width="1024" height="400" fill="#1EC4B4"/>
<path d="M628.5 125L836.5 400L193 400L400.5 120.5L628.5 125Z" fill="#A0EEE9"/>
<path d="M36.3444 35.0465H41.8533C43.6458 35.0465 44.9902 35.5274 45.8865 36.4893C46.7828 37.4512 47.2309 38.8612 47.2309 40.7193V52.3272C47.2309 54.1853 46.7828 55.5953 45.8865 56.5572C44.9902 57.5191 43.6458 58 41.8533 58H36.3444V35.0465ZM41.7877 54.7209C42.3779 54.7209 42.826 54.546 43.1321 54.1963C43.46 53.8465 43.624 53.2781 43.624 52.4912V40.5553C43.624 39.7684 43.46 39.2 43.1321 38.8502C42.826 38.5005 42.3779 38.3256 41.7877 38.3256H39.9514V54.7209H41.7877ZM49.6656 35.0465H59.5029V38.3256H53.2726V44.3919H58.224V47.6709H53.2726V54.7209H59.5029V58H49.6656V35.0465ZM61.5779 35.0465H66.89C68.6825 35.0465 70.027 35.5274 70.9232 36.4893C71.8195 37.4512 72.2677 38.8612 72.2677 40.7193V42.9819C72.2677 44.84 71.8195 46.25 70.9232 47.2119C70.027 48.1737 68.6825 48.6546 66.89 48.6546H65.1849V58H61.5779V35.0465ZM66.89 45.3756C67.4802 45.3756 67.9174 45.2116 68.2016 44.8837C68.5077 44.5558 68.6607 43.9984 68.6607 43.2114V40.4898C68.6607 39.7028 68.5077 39.1453 68.2016 38.8174C67.9174 38.4895 67.4802 38.3256 66.89 38.3256H65.1849V45.3756H66.89ZM74.2266 35.0465H79.5715C81.4297 35.0465 82.785 35.4837 83.6376 36.3581C84.4901 37.2107 84.9164 38.5333 84.9164 40.3258V41.7358C84.9164 44.1186 84.1294 45.627 82.5555 46.2609V46.3265C83.4299 46.5888 84.042 47.1244 84.3918 47.9333C84.7634 48.7421 84.9492 49.8242 84.9492 51.1795V55.2128C84.9492 55.8686 84.9711 56.4042 85.0148 56.8195C85.0585 57.213 85.1678 57.6065 85.3427 58H81.6701C81.539 57.6284 81.4515 57.2786 81.4078 56.9507C81.3641 56.6228 81.3422 56.0326 81.3422 55.18V50.9828C81.3422 49.9335 81.1673 49.2012 80.8176 48.7858C80.4897 48.3705 79.9104 48.1628 79.0797 48.1628H77.8336V58H74.2266V35.0465ZM79.1452 44.8837C79.8666 44.8837 80.4022 44.6979 80.752 44.3263C81.1236 43.9546 81.3094 43.3316 81.3094 42.4572V40.6865C81.3094 39.8558 81.1564 39.2546 80.8504 38.883C80.5662 38.5114 80.1071 38.3256 79.4732 38.3256H77.8336V44.8837H79.1452ZM92.6655 58.3279C90.8948 58.3279 89.5395 57.8251 88.5995 56.8195C87.6595 55.814 87.1895 54.393 87.1895 52.5567V40.4898C87.1895 38.6535 87.6595 37.2326 88.5995 36.227C89.5395 35.2214 90.8948 34.7186 92.6655 34.7186C94.4362 34.7186 95.7916 35.2214 96.7316 36.227C97.6716 37.2326 98.1416 38.6535 98.1416 40.4898V52.5567C98.1416 54.393 97.6716 55.814 96.7316 56.8195C95.7916 57.8251 94.4362 58.3279 92.6655 58.3279ZM92.6655 55.0488C93.9116 55.0488 94.5346 54.2947 94.5346 52.7863V40.2602C94.5346 38.7519 93.9116 37.9977 92.6655 37.9977C91.4195 37.9977 90.7964 38.7519 90.7964 40.2602V52.7863C90.7964 54.2947 91.4195 55.0488 92.6655 55.0488ZM100.581 35.0465H105.729L108.024 51.4747H108.09L110.385 35.0465H115.533V58H112.123V40.6209H112.058L109.434 58H106.418L103.794 40.6209H103.729V58H100.581V35.0465ZM118.225 35.0465H128.062V38.3256H121.832V44.3919H126.783V47.6709H121.832V54.7209H128.062V58H118.225V35.0465ZM130.137 35.0465H139.975V38.3256H133.744V44.3919H138.696V47.6709H133.744V54.7209H139.975V58H130.137V35.0465ZM144.87 38.3256H141.099V35.0465H152.247V38.3256H148.477V58H144.87V38.3256ZM41.3942 74.4898H37.6233V71.9321C38.6507 71.9321 39.4705 71.8446 40.0826 71.6698C40.7165 71.4949 41.2193 71.2107 41.5909 70.8172C41.9626 70.4019 42.2905 69.8116 42.5747 69.0465H45.0012V92H41.3942V74.4898ZM54.5233 74.4898H50.7523V71.9321C51.7798 71.9321 52.5996 71.8446 53.2116 71.6698C53.8456 71.4949 54.3484 71.2107 54.72 70.8172C55.0916 70.4019 55.4196 69.8116 55.7037 69.0465H58.1303V92H54.5233V74.4898ZM67.3296 78.8837H74.5435V82.1628H67.3296V78.8837ZM86.9938 74.4898H83.2228V71.9321C84.2503 71.9321 85.07 71.8446 85.6821 71.6698C86.3161 71.4949 86.8189 71.2107 87.1905 70.8172C87.5621 70.4019 87.89 69.8116 88.1742 69.0465H90.6007V92H86.9938V74.4898ZM101.107 87.8356H94.2205V84.5565L100.779 69.0465H104.714V84.5565H106.419V87.8356H104.714V92H101.107V87.8356ZM101.107 84.5565V75.6047H101.041L97.4996 84.5565H101.107ZM111.022 72.3256H107.251V69.0465H118.4V72.3256H114.629V92H111.022V72.3256ZM120.146 69.0465H123.753V78.3919H127.623V69.0465H131.23V92H127.623V81.6709H123.753V92H120.146V69.0465Z" fill="black"/>
<path d="M982.219 73.4457C981.648 72.6689 980.905 71.8351 979.992 70.9441C979.078 70.076 978.164 69.2993 977.25 68.6139L975.674 71.4239C976.679 72.2006 977.684 73.0802 978.689 74.0625C979.672 75.0448 980.608 76.0729 981.499 77.1466C982.367 78.2203 983.133 79.2712 983.795 80.2992C984.458 79.2712 985.235 78.2203 986.125 77.1466C986.994 76.0729 987.93 75.0448 988.935 74.0625C989.918 73.0802 990.912 72.2006 991.917 71.4239L990.34 68.6139C989.404 69.2993 988.49 70.076 987.599 70.9441C986.685 71.8351 985.943 72.6689 985.372 73.4457L985.372 48.6016L982.219 48.6016L982.219 73.4457Z" fill="black"/>
<path d="M381.716 226.234H411.596C421.796 226.234 429.236 228.634 433.916 233.434C438.596 238.114 440.936 245.374 440.936 255.214V260.254C440.936 266.734 439.856 272.014 437.696 276.094C435.656 280.174 432.476 283.114 428.156 284.914V285.274C437.996 288.634 442.916 297.394 442.916 311.554V322.354C442.916 332.074 440.336 339.514 435.176 344.674C430.136 349.714 422.696 352.234 412.856 352.234H381.716V226.234ZM409.256 277.534C413.216 277.534 416.156 276.514 418.076 274.474C420.116 272.434 421.136 269.014 421.136 264.214V257.194C421.136 252.634 420.296 249.334 418.616 247.294C417.056 245.254 414.536 244.234 411.056 244.234H401.516V277.534H409.256ZM412.856 334.234C416.336 334.234 418.916 333.334 420.596 331.534C422.276 329.614 423.116 326.374 423.116 321.814V310.834C423.116 305.074 422.096 301.114 420.056 298.954C418.136 296.674 414.896 295.534 410.336 295.534H401.516V334.234H412.856ZM454.489 226.234H474.289V334.234H506.869V352.234H454.489V226.234ZM544.281 354.034C534.561 354.034 527.121 351.274 521.961 345.754C516.801 340.234 514.221 332.434 514.221 322.354V256.114C514.221 246.034 516.801 238.234 521.961 232.714C527.121 227.194 534.561 224.434 544.281 224.434C554.001 224.434 561.441 227.194 566.601 232.714C571.761 238.234 574.341 246.034 574.341 256.114V322.354C574.341 332.434 571.761 340.234 566.601 345.754C561.441 351.274 554.001 354.034 544.281 354.034ZM544.281 336.034C551.121 336.034 554.541 331.894 554.541 323.614V254.854C554.541 246.574 551.121 242.434 544.281 242.434C537.441 242.434 534.021 246.574 534.021 254.854V323.614C534.021 331.894 537.441 336.034 544.281 336.034ZM615.812 354.034C606.212 354.034 598.892 351.334 593.852 345.934C588.812 340.414 586.292 332.554 586.292 322.354V256.114C586.292 245.914 588.812 238.114 593.852 232.714C598.892 227.194 606.212 224.434 615.812 224.434C625.412 224.434 632.732 227.194 637.772 232.714C642.812 238.114 645.332 245.914 645.332 256.114V266.914H626.612V254.854C626.612 246.574 623.192 242.434 616.352 242.434C609.512 242.434 606.092 246.574 606.092 254.854V323.794C606.092 331.954 609.512 336.034 616.352 336.034C623.192 336.034 626.612 331.954 626.612 323.794V299.134H616.712V281.134H645.332V322.354C645.332 332.554 642.812 340.414 637.772 345.934C632.732 351.334 625.412 354.034 615.812 354.034Z" fill="black"/>
<path d="M389.626 223.461C358.497 223.461 332.754 199.958 329.221 169.777C299.04 166.244 275.537 140.501 275.537 109.372V-134.575C275.537 -165.704 299.04 -191.447 329.221 -194.98C332.754 -225.161 358.497 -248.664 389.626 -248.664H633.573C664.702 -248.664 690.445 -225.161 693.978 -194.98C724.159 -191.447 747.662 -165.704 747.662 -134.575V109.372C747.662 140.501 724.159 166.244 693.978 169.777C690.445 199.958 664.702 223.461 633.573 223.461H389.626Z" fill="white"/>
<path d="M509.425 -32L684 198.14C655.677 228.931 605.892 215.073 509.425 219.095C386.347 224.227 359.054 219.095 340 202.417L509.425 -32Z" fill="#F4F4F4"/>
<path d="M633.576 -241.123C663.003 -241.123 686.851 -217.276 686.851 -187.849C716.278 -187.849 740.125 -164.001 740.125 -134.574V109.373C740.125 138.8 716.278 162.647 686.851 162.647C686.851 192.074 663.003 215.922 633.576 215.922H389.629C360.202 215.922 336.354 192.074 336.354 162.647C306.927 162.647 283.08 138.8 283.08 109.373V-134.574C283.08 -164.001 306.927 -187.849 336.354 -187.849C336.354 -217.276 360.202 -241.123 389.629 -241.123H633.576ZM633.576 -256.203H389.629C356.626 -256.203 329.008 -232.7 322.653 -201.55C291.503 -195.195 268 -167.577 268 -134.574V109.373C268 142.376 291.503 169.993 322.653 176.348C329.008 207.499 356.626 231.002 389.629 231.002H633.576C666.579 231.002 694.197 207.499 700.552 176.348C731.702 169.993 755.205 142.376 755.205 109.373V-134.574C755.205 -167.577 731.702 -195.195 700.552 -201.55C694.197 -232.7 666.579 -256.203 633.576 -256.203Z" fill="black"/>
<path d="M505.408 167.235V164.952C505.408 161.225 507.627 158.898 511.612 158.898C515.598 158.898 517.817 161.225 517.817 164.952V167.235C517.817 169.562 516.826 171.221 515.081 172.061C516.675 172.944 517.58 174.56 517.58 176.822V178.437C517.58 181.992 515.425 184.254 511.634 184.254C507.843 184.254 505.688 181.992 505.688 178.437V176.822C505.688 174.56 506.615 172.944 508.187 172.061C506.421 171.221 505.451 169.562 505.451 167.235H505.408ZM509.135 167.451C509.135 169.433 509.975 170.273 511.591 170.273C513.207 170.273 514.047 169.433 514.047 167.451V164.887C514.047 163.272 513.207 162.431 511.591 162.431C509.975 162.431 509.135 163.272 509.135 164.887V167.451ZM513.81 176.606C513.81 174.624 512.97 173.784 511.591 173.784C510.212 173.784 509.372 174.624 509.372 176.606V178.502C509.372 179.945 510.148 180.721 511.591 180.721C513.034 180.721 513.81 179.945 513.81 178.502V176.606Z" fill="black"/>
<path d="M661.117 139.035L677.877 155.795" stroke="black" stroke-width="2.15425" stroke-miterlimit="10" stroke-linecap="round"/>
<path d="M359.422 139.035L342.641 155.795" stroke="black" stroke-width="2.15425" stroke-miterlimit="10" stroke-linecap="round"/>
</g>
<defs>
<clipPath id="clip0_370_14720">
<rect width="1024" height="400" fill="white"/>
</clipPath>
</defs>
</svg>
