<svg width="current" height="current" viewBox="0 0 24 24" fill="none" xmlns="http://www.w3.org/2000/svg">
<circle cx="12" cy="12" r="12" fill="black"/>
<path d="M14.8378 11.0295C14.3661 10.6779 13.8597 10.2208 13.3186 9.65823C12.7914 9.09564 12.3197 8.53305 11.9035 7.97046L13.61 7C14.0817 7.61885 14.6159 8.23769 15.2124 8.85654C15.809 9.46132 16.4333 10.038 17.0854 10.5865C17.7375 11.121 18.3757 11.5921 19 12C18.3757 12.4079 17.7375 12.8861 17.0854 13.4346C16.4333 13.9691 15.809 14.5457 15.2124 15.1646C14.6159 15.7693 14.0817 16.3812 13.61 17L11.9035 16.0295C12.3197 15.4529 12.7914 14.8903 13.3186 14.3418C13.8597 13.7792 14.3661 13.3221 14.8378 12.9705H5V11.0295H14.8378Z" fill="white"/>
</svg>
